<?xml version="1.0" encoding="UTF-8" standalone="no"?>
<svg
   xmlns:dc="http://purl.org/dc/elements/1.1/"
   xmlns:cc="http://creativecommons.org/ns#"
   xmlns:rdf="http://www.w3.org/1999/02/22-rdf-syntax-ns#"
   xmlns:svg="http://www.w3.org/2000/svg"
   xmlns="http://www.w3.org/2000/svg"
   xmlns:sodipodi="http://sodipodi.sourceforge.net/DTD/sodipodi-0.dtd"
   xmlns:inkscape="http://www.inkscape.org/namespaces/inkscape"
   width="700mm"
   height="90mm"
   viewBox="0 0 700 90"
   version="1.1"
   id="svg8"
   inkscape:version="1.0.1 (3bc2e813f5, 2020-09-07)"
   sodipodi:docname="Mud Kitchen ML.svg">
  <defs
     id="defs2">
    <rect
       x="-23.434524"
       y="-80.886905"
       width="596.44643"
       height="229.80952"
       id="rect582" />
  </defs>
  <sodipodi:namedview
     id="base"
     pagecolor="#ffffff"
     bordercolor="#666666"
     borderopacity="1.0"
     inkscape:pageopacity="0.0"
     inkscape:pageshadow="2"
     inkscape:zoom="0.35"
     inkscape:cx="1184.5019"
     inkscape:cy="-159.09596"
     inkscape:document-units="mm"
     inkscape:current-layer="layer1"
     inkscape:document-rotation="0"
     showgrid="false"
     inkscape:window-width="1920"
     inkscape:window-height="1017"
     inkscape:window-x="-8"
     inkscape:window-y="-8"
     inkscape:window-maximized="1" />
  <metadata
     id="metadata5">
    <rdf:RDF>
      <cc:Work
         rdf:about="">
        <dc:format>image/svg+xml</dc:format>
        <dc:type
           rdf:resource="http://purl.org/dc/dcmitype/StillImage" />
        <dc:title></dc:title>
      </cc:Work>
    </rdf:RDF>
  </metadata>
  <g
     inkscape:label="Layer 1"
     inkscape:groupmode="layer"
     id="layer1">
    <text
       xml:space="preserve"
       id="text580"
       style="fill:black;fill-opacity:1;line-height:1.25;stroke:none;font-family:sans-serif;font-style:normal;font-weight:normal;font-size:10.58333333px;white-space:pre;shape-inside:url(#rect582);" />
    <g
       id="g2096"
       transform="translate(-0.48825151,1.6994398)">
      <path
         style="fill:#000000;stroke-width:0.103732"
         d="m 84.436012,65.078125 c -0.58749,-0.289736 -1.130388,-0.840675 -1.488747,-1.510796 -0.294323,-0.550374 -0.349016,-0.756598 -0.339093,-1.278611 0.0065,-0.342315 0.01415,-1.644152 0.01702,-2.892966 0.0027,-1.24881 0.05276,-2.812581 0.110933,-3.475042 0.07272,-0.828129 0.06881,-4.072907 -0.01251,-10.384807 -0.165924,-12.879334 -0.163748,-13.466927 0.05694,-15.352431 0.149324,-1.275784 0.239232,-1.696425 0.435332,-2.03671 0.320106,-0.555463 1.151297,-1.298892 1.830847,-1.637522 0.512654,-0.25547 0.615425,-0.267605 2.26594,-0.267605 2.092171,0 2.60025,0.0852 3.684073,0.617774 0.712115,0.349925 1.018749,0.594841 2.046288,1.634436 3.329765,3.368822 5.329207,6.851301 5.943141,10.351302 0.14428,0.822558 0.18358,1.670891 0.18981,4.097438 0.008,3.171364 -0.0899,4.509023 -0.462307,6.308364 -0.763077,3.6869 -3.046396,7.758814 -6.345971,11.316966 -0.815356,0.879254 -1.779648,1.952887 -2.142869,2.385851 -1.066227,1.270958 -1.643842,1.589126 -3.778187,2.081162 -1.087485,0.250703 -1.568903,0.261046 -2.010626,0.0432 z m 5.930551,-7.768322 c 0.342316,-0.484672 0.873518,-1.313178 1.180443,-1.841127 0.647715,-1.114137 1.983939,-4.109572 2.289409,-5.132198 0.475816,-1.592898 0.7138,-4.22 0.749674,-8.275621 0.0196,-2.218406 0.01231,-2.307902 -0.262575,-3.205693 -0.382478,-1.24928 -0.831023,-2.310541 -2.064848,-4.885452 -0.983276,-2.052024 -1.651217,-3.090227 -1.851866,-2.878424 -0.04045,0.0427 -0.125922,3.158504 -0.189921,6.923997 -0.064,3.765496 -0.15802,7.476531 -0.208929,8.246745 -0.14066,2.128229 -0.165077,4.482696 -0.07207,6.950085 0.07845,2.081271 0.06966,2.285064 -0.131622,3.050774 -0.211364,0.804068 -0.291772,1.928517 -0.137888,1.928266 0.04279,-7.1e-5 0.357877,-0.396679 0.700196,-0.881352 z m 33.972397,7.772333 c -0.80942,-0.211826 -2.11478,-0.874847 -2.91482,-1.480494 -1.41163,-1.068639 -2.07049,-2.056466 -3.15885,-4.7361 -0.32442,-0.798741 -0.71885,-1.708995 -0.8765,-2.022784 -0.60089,-1.195969 -0.64035,-2.317104 -0.14648,-4.162512 0.32402,-1.210769 0.60002,-1.710693 1.16245,-2.105568 0.36659,-0.257384 0.57125,-0.31978 1.15752,-0.352909 0.3917,-0.02215 0.87303,0.01286 1.06963,0.07773 0.47703,0.157439 1.16025,0.7551 1.47185,1.287541 0.23643,0.403991 0.25606,0.553836 0.30131,2.29934 0.0748,2.885093 0.52243,4.260158 1.76088,5.409256 0.80311,0.74515 2.0047,1.408175 2.57937,1.423245 0.35443,0.0093 0.46689,-0.0479 0.80324,-0.408487 0.72597,-0.778275 1.1462,-2.434205 0.94204,-3.712141 -0.13778,-0.862529 -0.32699,-1.437234 -0.82451,-2.504407 -0.94144,-2.019349 -2.30726,-3.862425 -4.70589,-6.350247 -2.16646,-2.247019 -3.94375,-4.728471 -4.92267,-6.873037 -0.19598,-0.429341 -0.58693,-1.254358 -0.86878,-1.833368 -0.66475,-1.365613 -0.81346,-2.311882 -0.62693,-3.98932 0.23779,-2.138548 0.94989,-3.829747 2.09188,-4.968129 1.0136,-1.010406 3.27253,-2.229177 5.75697,-3.106074 1.03244,-0.364412 1.22191,-0.376931 2.31257,-0.152778 2.8047,0.576426 4.93524,2.351225 6.16556,5.136095 0.32668,0.739461 0.33922,0.817944 0.33825,2.116464 -0.001,1.291811 -0.0136,1.371364 -0.30095,1.891659 -0.52196,0.945167 -1.57651,1.271452 -3.07241,0.950637 -0.63877,-0.13699 -1.15587,-0.55753 -1.38274,-1.1245 -0.0894,-0.223341 -0.21302,-0.812851 -0.2748,-1.310015 -0.0618,-0.497167 -0.17567,-1.055559 -0.2531,-1.240867 -0.32239,-0.771574 -1.61333,-1.808879 -2.25398,-1.811126 -0.17587,-7.84e-4 -0.35504,0.09731 -0.48849,0.26697 -0.32546,0.413753 -0.66299,1.392935 -0.65855,1.910443 0.007,0.77497 1.68535,6.104501 2.16562,6.875421 0.38047,0.610716 1.04527,1.390355 2.31925,2.719847 1.43214,1.494542 1.84676,2.048951 3.10638,4.153738 1.83896,3.072843 2.60621,4.861007 3.16633,7.37952 0.23501,1.056665 0.27498,1.453124 0.24562,2.436843 -0.0331,1.110706 -0.0565,1.219727 -0.42732,1.996453 -0.48188,1.009265 -1.23978,2.046594 -2.02857,2.776477 -1.36617,1.264151 -3.76886,2.635265 -5.40887,3.086612 -0.92541,0.254683 -2.45274,0.27794 -3.32151,0.05058 z M 74.021036,64.582498 c -0.03274,-0.03383 -0.452845,-0.158321 -0.933593,-0.276641 -1.514545,-0.372752 -1.988119,-0.869606 -2.368182,-2.484588 -0.114038,-0.484591 -0.394236,-1.402412 -0.622654,-2.0396 -0.228423,-0.637188 -0.446781,-1.395735 -0.485238,-1.685655 l -0.06993,-0.527129 -1.516689,7.84e-4 c -1.692308,7.84e-4 -3.113174,0.133304 -3.921579,0.36529 -1.004329,0.288219 -1.423696,0.86621 -1.728829,2.382774 -0.278528,1.384314 -1.26608,3.093183 -2.071274,3.584149 -0.448725,0.273607 -1.354071,0.272748 -1.804207,-0.0016 -0.459981,-0.280464 -0.827443,-0.883515 -0.946057,-1.552594 -0.113643,-0.64103 0.120339,-2.204163 0.485253,-3.241801 0.552056,-1.569782 1.270036,-4.509756 2.401977,-9.835566 0.333463,-1.568955 0.768324,-3.366124 0.966354,-3.993707 0.198034,-0.627582 0.602291,-2.378069 0.898348,-3.889971 0.655513,-3.34756 0.813568,-3.989602 1.45866,-5.925231 0.277986,-0.834128 0.578073,-1.95444 0.666859,-2.489583 0.323826,-1.951884 0.387246,-2.21349 0.674583,-2.782703 0.592407,-1.173554 1.983194,-2.122293 3.117346,-2.126527 1.149403,-0.0043 2.505379,1.000169 3.24166,2.401318 0.855786,1.62856 2.228655,7.285602 3.393408,13.982839 0.60293,3.466805 1.080683,6.109668 1.502657,8.312529 0.19819,1.034612 0.478659,2.761759 0.62327,3.83811 0.144612,1.076346 0.382859,2.493813 0.52945,3.149922 0.652996,2.922751 0.712409,3.762756 0.295617,4.179547 -0.43076,0.430761 -1.107186,0.612614 -2.482917,0.667518 -0.684636,0.02733 -1.271566,0.022 -1.304295,-0.01184 z m -6.29412,-10.392922 c 0.78679,-0.19129 1.21886,-0.344621 1.21886,-0.432556 0,-0.07492 -0.112419,-0.403325 -0.249824,-0.729778 -0.358281,-0.851233 -0.545541,-1.885966 -0.732283,-4.046281 -0.0902,-1.043445 -0.231582,-2.257119 -0.314189,-2.69705 -0.244634,-1.30282 -0.913489,-4.067453 -0.984052,-4.067453 -0.07817,0 -0.670548,2.431088 -1.238542,5.082897 -0.394507,1.841852 -1.252813,6.509969 -1.252813,6.813753 0,0.08049 0.151712,0.215116 0.337133,0.299162 0.487539,0.220993 1.750522,0.133528 3.21571,-0.222694 z M 48.228969,64.314945 c -0.673567,-0.410691 -1.804265,-2.328035 -1.990169,-3.37475 -0.232131,-1.307003 -0.360193,-4.874234 -0.372398,-10.37326 -0.007,-3.137914 -0.06847,-6.708909 -0.136668,-7.935548 -0.0682,-1.226639 -0.141628,-3.537282 -0.163168,-5.134763 -0.02152,-1.597485 -0.08458,-3.019574 -0.140095,-3.160198 -0.100571,-0.254765 -0.101344,-0.254392 -0.214575,0.103731 -0.481171,1.521821 -1.07045,4.23662 -1.316417,6.064711 -0.260018,1.9325 -0.552067,2.98877 -1.149011,4.155635 -0.470072,0.918868 -0.53998,1.138265 -0.584687,1.834885 -0.06161,0.959956 -0.492071,1.923311 -1.621232,3.628228 -0.405308,0.611971 -0.827835,1.288824 -0.938957,1.504124 -0.478435,0.926983 -1.518093,1.585806 -2.628251,1.665496 -0.608077,0.04365 -0.770943,0.01388 -1.276015,-0.233225 -0.726778,-0.355579 -1.018482,-0.782047 -1.302118,-1.903669 -0.231841,-0.916801 -0.709849,-2.151305 -1.47428,-3.807454 -0.683518,-1.480855 -1.729053,-4.026114 -1.995752,-4.858486 l -0.227975,-0.711515 -0.07345,0.867116 c -0.04039,0.47691 -0.194544,1.777366 -0.342551,2.8899 -0.234938,1.766004 -0.272031,2.444167 -0.29219,5.34223 -0.01658,2.385228 -0.07021,3.653319 -0.190495,4.505772 -0.206698,1.464828 -0.211324,3.145915 -0.01251,4.544485 0.260014,1.829028 -0.05604,2.705439 -1.192217,3.30595 -0.284569,0.150406 -0.620976,0.195858 -1.555989,0.210215 -0.656109,0.01008 -1.566363,0.0513 -2.022788,0.09162 -1.906127,0.168362 -2.898455,-0.678849 -3.17056,-2.706902 -0.142608,-1.062852 0.04731,-9.089087 0.264915,-11.195929 0.186483,-1.805532 0.206306,-6.596454 0.03227,-7.800142 -0.113336,-0.783881 -0.104464,-0.941975 0.09929,-1.768838 0.458632,-1.861177 0.479591,-2.17054 0.452974,-6.685029 -0.02184,-3.701453 -7.8e-5,-4.463081 0.150881,-5.284506 0.152413,-0.829357 0.157694,-1.031005 0.03885,-1.48427 -0.195297,-0.744895 -0.165845,-1.52284 0.07551,-1.99443 0.287937,-0.562618 1.862639,-1.810895 2.98946,-2.369766 1.814663,-0.900017 3.272625,-0.840149 4.016803,0.164944 0.256482,0.346413 1.042006,2.912855 1.378738,4.504593 0.370839,1.752933 0.60524,2.416173 1.361395,3.852047 0.800387,1.519869 0.929622,1.881635 1.643987,4.602161 0.307116,1.169586 0.70603,2.546636 0.886472,3.060113 0.456213,1.29821 1.14905,2.956378 1.235276,2.956378 0.07839,0 1.298637,-3.747513 1.975948,-6.068357 0.742249,-2.543346 3.223371,-10.037994 3.540858,-10.69575 0.438719,-0.908925 1.19845,-1.620844 2.321197,-2.175119 1.486308,-0.733757 2.501376,-0.818132 3.648811,-0.303298 0.644476,0.289164 1.406014,0.967824 1.755834,1.564752 0.462874,0.789837 0.546646,1.571444 0.661127,6.168516 0.104575,4.199271 0.312817,9.057103 0.531164,12.390984 0.05978,0.912845 0.149292,4.227104 0.1989,7.365017 0.110753,7.005404 0.248495,8.311208 1.132109,10.732365 0.175341,0.480442 0.3188,1.062138 0.3188,1.292654 0,0.395247 -0.0636,0.482081 -1.116505,1.524479 -0.843106,0.834689 -1.217771,1.13347 -1.530055,1.220166 -0.636102,0.176596 -1.303828,0.141605 -1.680492,-0.08806 z m 132.079701,-0.05449 c -0.51841,-0.184676 -0.90436,-0.470257 -1.06614,-0.788888 -0.3533,-0.695801 -1.37774,-3.082256 -1.37884,-3.212032 -0.001,-0.08206 -0.16739,-0.52264 -0.37044,-0.979061 -1.19737,-2.691522 -1.95969,-4.939156 -2.18132,-6.431424 -0.21157,-1.424539 -0.35764,-1.949034 -1.19547,-4.292555 -0.83657,-2.339957 -1.12378,-3.437702 -1.12959,-4.317254 -0.002,-0.342315 -0.0904,-0.855793 -0.19586,-1.141056 -0.10546,-0.285267 -0.3508,-0.948359 -0.54521,-1.473543 -0.1944,-0.52518 -0.37962,-0.981033 -0.41159,-1.013005 -0.032,-0.03195 -0.0892,0.864524 -0.12725,1.992203 -0.038,1.127683 -0.11332,2.33041 -0.16737,2.67273 -0.0652,0.413075 -0.0581,1.145694 0.0211,2.178385 0.071,0.925984 0.12192,4.202008 0.12576,8.091144 0.007,7.239143 0.0414,6.852622 -0.68002,7.674263 -0.55072,0.627234 -1.21228,0.881454 -2.29697,0.882665 -0.78454,7.84e-4 -1.03978,-0.04809 -1.86718,-0.358206 -0.52713,-0.197567 -1.1534,-0.408507 -1.39171,-0.468755 -0.51999,-0.131458 -0.92914,-0.575846 -1.03126,-1.120065 -0.0398,-0.212269 -0.0179,-1.179498 0.0487,-2.1494 0.0666,-0.969899 0.12121,-2.720389 0.12139,-3.889971 0,-1.169587 0.0682,-2.860543 0.15121,-3.757679 0.22762,-2.460535 0.23857,-10.528277 0.0178,-13.098876 -0.38497,-4.481826 -0.46214,-7.308929 -0.22673,-8.307036 0.12858,-0.545192 0.12887,-0.71417 0.002,-1.244792 -0.17492,-0.73249 -0.19429,-1.434051 -0.0472,-1.708904 0.16907,-0.315899 0.68288,-0.522452 1.32433,-0.532375 0.32541,-0.005 1.47857,0.01498 2.56257,0.04446 2.09538,0.05701 2.78276,0.190777 3.73438,0.726755 0.6796,0.382764 1.24119,1.80341 2.0197,5.10913 0.80098,3.401154 1.26656,5.117347 4.3619,16.078558 0.5639,1.996853 1.21392,4.384277 1.44451,5.305383 0.23059,0.921106 0.46665,1.784682 0.5246,1.919053 0.0733,0.169907 0.0865,-0.419109 0.0435,-1.934073 -0.034,-1.198113 -0.006,-3.672135 0.0625,-5.49783 0.17996,-4.805448 0.15927,-7.058113 -0.11556,-12.578134 -0.19141,-3.844622 -0.0601,-6.421724 0.41775,-8.196189 l 0.1134,-0.421143 0.93984,-0.216394 c 1.12503,-0.25903 1.16321,-0.26036 1.59512,-0.0554 0.44275,0.210093 0.84138,0.946057 0.98204,1.813059 0.0599,0.369125 0.11069,1.534708 0.1129,2.59019 0.002,1.055477 0.0763,3.552838 0.16461,5.549692 0.10584,2.392756 0.17677,6.955256 0.20803,13.381508 0.0261,5.362977 0.0697,9.854989 0.097,9.982247 0.0486,0.227152 0.0614,0.224145 0.6964,-0.164261 1.14895,-0.702749 1.18097,-0.677112 0.25701,0.2058 -0.74814,0.714899 -0.90843,0.923071 -0.90805,1.179337 0.001,0.61862 -0.67437,1.340807 -1.61617,1.72841 -0.46686,0.192141 -1.71052,0.400215 -2.35229,0.393558 -0.24142,-0.0024 -0.62296,-0.07011 -0.84787,-0.15023 z m -33.3206,-0.309884 c -1.45206,-0.263492 -2.71559,-0.807927 -3.84447,-1.656522 -1.61149,-1.211376 -3.01245,-3.447602 -4.27111,-6.817568 -0.42948,-1.149909 -0.53003,-1.542314 -0.53161,-2.07465 -0.001,-0.361083 -0.0953,-1.356708 -0.20942,-2.212502 -0.29044,-2.178196 -0.47523,-8.495809 -0.30343,-10.373264 0.11811,-1.290671 0.13654,-2.294455 0.0449,-2.442803 -0.10299,-0.166637 0.17201,-1.814177 0.42653,-2.555347 0.45831,-1.334664 1.18486,-2.911385 1.71762,-3.727494 0.99415,-1.522887 2.98145,-3.340012 4.34228,-3.970442 0.99052,-0.458879 4.56923,-1.104351 6.07468,-1.095655 0.84503,0.0049 1.46099,0.319925 2.89819,1.482345 1.50341,1.215967 4.53322,4.207163 4.80179,4.740589 0.66988,1.330543 1.23991,3.53104 1.51727,5.85722 0.36308,3.045176 0.38947,3.891677 0.16326,5.238498 -0.11498,0.684636 -0.30299,2.295082 -0.41779,3.578774 -0.1148,1.283692 -0.27905,2.754102 -0.36499,3.267579 -0.55077,3.290508 -4.03165,10.650891 -5.57631,11.791183 -0.57294,0.42295 -1.54633,0.862822 -2.22892,1.007234 -0.73001,0.15444 -3.30701,0.131838 -4.23843,-0.03717 z m 3.1513,-3.637755 c 1.13979,-0.567986 1.37548,-0.992689 2.93655,-5.291728 0.49849,-1.37276 0.99975,-2.679791 1.11393,-2.904512 0.63354,-1.246901 0.94778,-2.954626 1.21512,-6.603578 0.22406,-3.058247 0.2071,-3.897734 -0.108,-5.34488 -0.146,-0.67058 -0.40111,-1.854978 -0.56691,-2.631995 -0.468,-2.193405 -0.81933,-2.967398 -1.9561,-4.309319 -0.62334,-0.735834 -2.44317,-2.343309 -2.88868,-2.551603 -0.27544,-0.12878 -1.79606,0.134775 -2.77704,0.481325 -0.53342,0.188436 -0.65206,0.279194 -0.82981,0.6348 -0.18718,0.374461 -0.20862,0.637526 -0.21986,2.69705 -0.009,1.583582 -0.0643,2.586833 -0.18183,3.277632 -0.40587,2.385507 -0.44604,5.822672 -0.0999,8.547887 0.087,0.684635 0.1961,2.528483 0.24252,4.097438 l 0.0844,2.852646 0.52408,2.566592 c 0.28824,1.411621 0.57524,2.662179 0.63777,2.779017 0.24038,0.449144 1.3413,1.627944 1.67305,1.791398 0.46529,0.229242 0.58072,0.220765 1.20068,-0.08817 z m -43.30067,3.225825 c -0.78255,-0.17727 -2.07261,-0.841468 -2.33635,-1.202888 -0.48031,-0.658195 -0.76547,-5.824044 -0.74128,-13.428544 0.004,-1.141056 0.002,-2.961565 -0.003,-4.045572 -0.005,-1.084004 0.0537,-3.307244 0.13138,-4.940528 0.11397,-2.397277 0.11781,-3.620254 0.0199,-6.34554 -0.13217,-3.678866 -0.0906,-4.271054 0.36222,-5.164716 0.61282,-1.209353 1.4627,-1.356603 4.4531,-0.771547 1.50567,0.294574 1.84876,0.484837 2.36122,1.309473 0.40653,0.654161 0.49975,1.295575 0.37544,2.583219 -0.0618,0.639603 -0.0764,2.031182 -0.0356,3.371307 0.0541,1.772959 0.0327,2.617701 -0.0959,3.786244 -0.27827,2.528338 -0.34626,4.024162 -0.24754,5.445961 0.0693,0.99728 0.0515,1.956447 -0.0682,3.682509 -0.13556,1.954742 -0.14696,3.214235 -0.0701,7.751337 0.0504,2.979545 0.0524,5.627979 0.004,5.885406 -0.16606,0.888922 -0.64719,1.56363 -1.39089,1.950559 -0.52792,0.274661 -1.81565,0.337814 -2.71839,0.13332 z"
         id="path642" />
      <path
         style="fill:#0000ff;stroke-width:0.103732"
         d="m 258.16597,65.083992 c -0.58749,-0.289736 -1.13038,-0.840675 -1.48875,-1.510796 -0.29432,-0.550374 -0.34901,-0.756598 -0.33909,-1.278606 0.007,-0.34232 0.0142,-1.644156 0.017,-2.892966 0.003,-1.248814 0.0528,-2.812586 0.11093,-3.475046 0.0727,-0.82813 0.0688,-4.072907 -0.0125,-10.384807 -0.16593,-12.879334 -0.16375,-13.466926 0.0569,-15.352426 0.14933,-1.275788 0.23924,-1.69643 0.43534,-2.036711 0.3201,-0.555467 1.15129,-1.298891 1.83084,-1.637526 0.51266,-0.255466 0.61543,-0.267604 2.26594,-0.267604 2.09217,0 2.60025,0.0852 3.68408,0.617773 0.71211,0.349926 1.01875,0.594846 2.04629,1.634437 3.32976,3.368821 5.32921,6.8513 5.94315,10.3513 0.14428,0.822562 0.18358,1.670891 0.18981,4.097442 0.008,3.171364 -0.0899,4.509019 -0.46231,6.30836 -0.76308,3.6869 -3.04641,7.758815 -6.34599,11.31697 -0.81535,0.87925 -1.77964,1.952884 -2.14286,2.385848 -1.06623,1.270957 -1.64384,1.58913 -3.77819,2.081161 -1.08748,0.250703 -1.5689,0.261046 -2.01062,0.0432 z m 5.93055,-7.768321 c 0.34232,-0.484669 0.87352,-1.313179 1.18045,-1.841127 0.64771,-1.114138 1.98394,-4.109569 2.28941,-5.132199 0.47581,-1.592894 0.71379,-4.219996 0.74967,-8.275617 0.0196,-2.218406 0.0123,-2.307902 -0.26257,-3.205697 -0.38248,-1.24928 -0.83103,-2.310536 -2.06486,-4.885446 -0.98327,-2.052024 -1.65121,-3.090228 -1.85186,-2.878429 -0.0405,0.04271 -0.12592,3.158505 -0.18992,6.924 -0.064,3.765492 -0.15802,7.476527 -0.20893,8.246742 -0.14066,2.128228 -0.16508,4.482695 -0.0721,6.950084 0.0785,2.081271 0.0697,2.285065 -0.13162,3.050774 -0.21136,0.804069 -0.29176,1.928517 -0.13789,1.928266 0.0428,-7e-5 0.35789,-0.396678 0.7002,-0.881351 z m -44.35333,7.272695 c -0.0327,-0.03383 -0.45285,-0.158322 -0.93359,-0.276642 -1.51455,-0.372751 -1.98812,-0.869606 -2.36818,-2.484588 -0.11405,-0.48459 -0.39424,-1.402411 -0.62266,-2.039599 -0.22842,-0.637189 -0.44678,-1.395735 -0.48524,-1.685656 l -0.0699,-0.527129 -1.5167,7.84e-4 c -1.6923,7.84e-4 -3.11317,0.133305 -3.92157,0.365295 -1.00433,0.288215 -1.4237,0.866206 -1.72884,2.38277 -0.27852,1.384314 -1.26607,3.093183 -2.07127,3.584148 -0.44872,0.273607 -1.35407,0.272748 -1.8042,-0.0016 -0.45999,-0.280465 -0.82745,-0.883516 -0.94606,-1.552594 -0.11364,-0.64103 0.12034,-2.204163 0.48525,-3.241798 0.55206,-1.569766 1.27004,-4.509736 2.40198,-9.835546 0.33346,-1.568955 0.76832,-3.366124 0.96635,-3.993707 0.19804,-0.627582 0.6023,-2.378069 0.89835,-3.889971 0.65551,-3.34756 0.81357,-3.989602 1.45866,-5.925234 0.27799,-0.834124 0.57808,-1.954436 0.66686,-2.489583 0.32382,-1.95188 0.38724,-2.21349 0.67458,-2.782703 0.59241,-1.17355 1.9832,-2.122293 3.11735,-2.126527 1.1494,-0.0043 2.50538,1.000173 3.24166,2.401322 0.85578,1.628556 2.22866,7.285597 3.39341,13.982834 0.60293,3.466805 1.08068,6.109672 1.50266,8.312533 0.19818,1.034608 0.47865,2.761759 0.62327,3.838106 0.1446,1.076351 0.38285,2.493813 0.52944,3.149922 0.653,2.922755 0.71241,3.762755 0.29562,4.179547 -0.43076,0.430764 -1.10718,0.612614 -2.48292,0.667518 -0.68463,0.02733 -1.27156,0.02199 -1.30429,-0.01184 z m -6.29412,-10.392923 c 0.78679,-0.191286 1.21886,-0.344621 1.21886,-0.432556 0,-0.07492 -0.11242,-0.403321 -0.24982,-0.729777 -0.35828,-0.851234 -0.54555,-1.885967 -0.73229,-4.046282 -0.0902,-1.043445 -0.23158,-2.257119 -0.31419,-2.69705 -0.24463,-1.30282 -0.91348,-4.067453 -0.98405,-4.067453 -0.0782,0 -0.67055,2.431092 -1.23854,5.082897 -0.39451,1.841856 -1.25281,6.509969 -1.25281,6.813753 0,0.08049 0.1517,0.215116 0.33713,0.299162 0.48754,0.220993 1.75052,0.133528 3.21571,-0.222694 z m 133.37422,10.170032 c -0.37085,-0.07648 -1.01895,-0.141918 -1.44023,-0.145438 -0.99317,-0.0083 -1.52109,-0.173852 -1.96279,-0.615551 -0.4395,-0.439491 -0.69296,-0.998624 -0.85046,-1.876118 -0.0661,-0.368474 -0.42492,-1.512125 -0.79726,-2.541448 -0.5906,-1.632606 -0.73572,-2.189288 -1.13689,-4.361079 -0.48415,-2.620908 -0.60803,-3.152742 -1.21763,-5.227242 -0.34481,-1.173425 -0.59304,-2.329211 -1.35794,-6.322925 -0.14583,-0.761401 -0.49624,-2.255151 -0.77868,-3.319442 -0.987,-3.719205 -1.66004,-7.073708 -1.66083,-8.277772 -0.001,-1.73117 1.02068,-3.292409 2.65202,-4.052053 0.52891,-0.246292 0.74602,-0.286341 1.54874,-0.285671 0.8355,7.84e-4 1.00443,0.03521 1.60785,0.328515 1.04658,0.508714 1.56586,1.105387 2.33601,2.684132 0.99598,2.041669 1.20515,2.744379 1.29437,4.348329 0.0622,1.11832 0.12196,1.459322 0.34997,1.997573 0.20075,0.473884 0.38586,1.355753 0.68589,3.26758 0.22602,1.440187 0.7109,4.415693 1.0775,6.61223 0.36661,2.196538 0.69899,4.225234 0.73861,4.508215 0.0534,0.381412 0.0962,0.471429 0.16525,0.34797 0.16318,-0.291603 0.69418,-2.566015 1.02476,-4.389386 0.17583,-0.969902 0.47926,-2.346951 0.67428,-3.060113 0.4699,-1.718365 0.62974,-2.618857 0.82862,-4.667968 0.35785,-3.687052 0.52097,-4.631956 1.05432,-6.107248 0.19336,-0.534868 0.46561,-1.545505 0.60498,-2.245862 0.13939,-0.700357 0.31934,-1.431142 0.3999,-1.623965 0.52819,-1.264116 2.76316,-2.114244 3.82534,-1.455065 0.23084,0.143262 0.47071,0.420825 0.60705,0.702489 0.20281,0.418933 0.22116,0.592839 0.18288,1.733609 -0.0387,1.154119 -0.0713,1.329033 -0.36332,1.948187 -0.47115,0.999087 -0.74772,1.98148 -0.87273,3.099962 -0.24686,2.208482 -0.43216,3.31125 -1.07301,6.38561 -0.36867,1.768639 -1.09399,5.386317 -1.61182,8.039275 -0.51783,2.652962 -0.98289,4.963609 -1.03347,5.134767 -0.0506,0.171158 -0.30546,0.977756 -0.56638,1.792433 -0.50937,1.590416 -0.55499,1.98548 -0.32933,2.851859 0.2051,0.787398 0.0949,1.213948 -0.66643,2.579325 -0.92709,1.662677 -1.21486,2.059661 -1.61394,2.226401 -0.42584,0.177932 -1.42325,0.171875 -2.3252,-0.01411 z m -102.63743,-0.09915 c -0.51842,-0.184676 -0.90437,-0.470256 -1.06615,-0.788888 -0.3533,-0.695801 -1.37773,-3.082256 -1.37884,-3.212032 -7.8e-4,-0.08206 -0.16739,-0.522636 -0.37044,-0.979061 -1.19737,-2.691521 -1.95968,-4.939156 -2.18132,-6.431424 -0.21157,-1.424539 -0.35764,-1.949034 -1.19547,-4.292554 -0.83656,-2.339957 -1.12378,-3.437699 -1.12959,-4.317251 -0.002,-0.342319 -0.0904,-0.855797 -0.19586,-1.14106 -0.10546,-0.285263 -0.3508,-0.948358 -0.5452,-1.473539 -0.19441,-0.525184 -0.37962,-0.981037 -0.41159,-1.013005 -0.0319,-0.03195 -0.0892,0.86452 -0.12725,1.992203 -0.038,1.127683 -0.11334,2.330407 -0.16737,2.672726 -0.0652,0.413075 -0.0581,1.145699 0.0211,2.178385 0.071,0.925984 0.12193,4.202008 0.12576,8.091145 0.007,7.239143 0.0414,6.852626 -0.68002,7.674262 -0.55072,0.627234 -1.21228,0.881454 -2.29696,0.882665 -0.78454,7.85e-4 -1.03979,-0.04809 -1.86719,-0.358205 -0.52712,-0.197568 -1.15339,-0.408508 -1.3917,-0.468756 -0.51999,-0.131457 -0.92915,-0.575846 -1.03126,-1.120065 -0.0398,-0.212269 -0.0179,-1.179497 0.0486,-2.1494 0.0666,-0.969898 0.12121,-2.720388 0.12139,-3.889971 2e-4,-1.169587 0.0682,-2.860543 0.15121,-3.757679 0.22762,-2.460535 0.23856,-10.528273 0.0178,-13.098872 -0.38498,-4.481828 -0.46214,-7.308928 -0.22674,-8.307039 0.12858,-0.545191 0.12887,-0.714169 0.002,-1.244792 -0.17492,-0.73249 -0.19429,-1.43405 -0.0472,-1.708904 0.16907,-0.315899 0.68288,-0.522448 1.32433,-0.532375 0.32541,-0.005 1.47856,0.01498 2.56257,0.04447 2.09538,0.057 2.78275,0.190772 3.73438,0.72675 0.67959,0.382765 1.24119,1.803411 2.01969,5.109134 0.80098,3.401154 1.26656,5.117347 4.3619,16.078553 0.5639,1.996853 1.21392,4.384277 1.44451,5.305383 0.23059,0.921107 0.46666,1.784683 0.5246,1.919053 0.0733,0.169908 0.0865,-0.419108 0.0435,-1.934073 -0.034,-1.198108 -0.006,-3.672134 0.0625,-5.497826 0.17996,-4.805452 0.15927,-7.058112 -0.11556,-12.578137 -0.19142,-3.844621 -0.0601,-6.421724 0.41775,-8.196189 l 0.1134,-0.421143 0.93984,-0.21639 c 1.12503,-0.259034 1.16322,-0.260359 1.59512,-0.05541 0.44275,0.210094 0.84138,0.946057 0.98204,1.813063 0.0599,0.369121 0.1107,1.534705 0.1129,2.590186 0.002,1.055477 0.0763,3.552843 0.16461,5.549695 0.10584,2.392752 0.17677,6.955252 0.20803,13.381508 0.0261,5.362974 0.0697,9.854985 0.097,9.982248 0.0486,0.227148 0.0614,0.224141 0.6964,-0.164265 1.15108,-0.704047 1.18008,-0.681088 0.25698,0.203404 -0.74768,0.716412 -0.90845,0.925631 -0.90805,1.181737 7.9e-4,0.618589 -0.67432,1.340798 -1.61614,1.728405 -0.46686,0.192141 -1.71052,0.400215 -2.35229,0.393558 -0.24141,-0.0024 -0.62296,-0.07011 -0.84787,-0.15023 z m 52.14931,0.01106 c -1.07356,-0.352125 -1.82541,-1.015314 -2.3013,-2.029923 l -0.26982,-0.575262 -0.0698,-4.564237 c -0.0384,-2.510331 -0.1035,-4.935616 -0.14468,-5.389528 -0.043,-0.47451 -0.0215,-1.444499 0.0507,-2.282116 0.0691,-0.801254 0.14021,-3.347352 0.15809,-5.657998 0.018,-2.327478 0.0868,-4.659425 0.15414,-5.228662 0.085,-0.718372 0.10838,-2.822888 0.0775,-6.995323 -0.0477,-6.449631 -0.0214,-6.863917 0.48985,-7.736357 0.3484,-0.594497 1.10855,-1.272989 1.76071,-1.571558 1.36925,-0.626858 3.44113,-0.919601 4.44435,-0.627956 1.22666,0.356595 1.60658,1.000523 1.74599,2.959228 0.0512,0.718714 0.11868,1.540151 0.15006,1.825414 0.067,0.609136 -0.20218,8.377701 -0.37796,10.907865 -0.0715,1.029449 -0.11662,3.942672 -0.10975,7.089744 0.008,3.529429 -0.0434,6.468631 -0.15068,8.661675 -0.16761,3.42727 -0.15127,6.512796 0.0355,6.699546 0.11522,0.115215 7.6871,0.05995 8.78061,-0.06409 0.54262,-0.06155 0.67228,-0.03544 1.25956,0.253679 0.36007,0.177258 0.82307,0.508694 1.0289,0.736516 0.33905,0.375296 0.37407,0.470249 0.37251,1.010387 -0.005,1.942243 -2.25832,2.847541 -6.22225,2.500478 -1.87106,-0.163823 -5.87672,-0.162019 -7.05381,0.0031 -1.44947,0.203421 -3.30593,0.240129 -3.80844,0.0753 z m 23.5695,-0.05189 c -0.6286,-0.163363 -0.96174,-0.416121 -1.20824,-0.91668 -0.23331,-0.473828 -0.24176,-0.568342 -0.19263,-2.15528 0.0666,-2.149757 0.058,-5.425327 -0.0453,-17.32335 -0.0466,-5.362973 -0.0856,-10.427721 -0.0868,-11.254988 -0.003,-2.087399 0.15701,-3.960863 0.3654,-4.278899 0.41994,-0.640905 1.68747,-0.865806 3.86468,-0.685721 0.79874,0.06607 3.29611,0.148171 5.5497,0.182453 4.50627,0.06855 4.44548,0.05963 5.01454,0.735925 0.46885,0.557188 0.49164,1.546046 0.052,2.257361 -0.30703,0.496784 -0.63867,0.67545 -1.31208,0.706877 -0.32486,0.01517 -1.22081,0.08032 -1.99103,0.144812 -1.05005,0.08792 -1.70583,0.08727 -2.62135,-0.0027 -1.39175,-0.136609 -1.90101,-0.0817 -1.99523,0.215151 -0.0352,0.110965 -0.0167,0.844549 0.0412,1.630187 0.0579,0.785638 0.12973,3.902453 0.15973,6.926258 0.0429,4.323958 0.0224,5.852206 -0.0958,7.157551 -0.0827,0.912849 -0.15174,2.04557 -0.15341,2.51716 l -0.003,0.85744 1.32258,-0.05657 c 0.72743,-0.03113 1.56061,-0.07811 1.85152,-0.104437 1.11302,-0.100739 2.16958,0.500869 2.4349,1.386451 0.17357,0.579328 -0.0415,1.784502 -0.39297,2.202215 -0.48462,0.575944 -0.80765,0.647965 -3.02372,0.674167 -1.69826,0.02007 -2.03508,0.04993 -2.17839,0.193058 -0.14459,0.1444 -0.17418,0.50675 -0.20118,2.462955 -0.0213,1.546172 0.005,2.330194 0.0805,2.405811 0.0671,0.06713 0.64215,0.117481 1.43206,0.125397 0.92044,0.0092 1.6356,0.08124 2.36308,0.237972 0.99187,0.213685 1.08375,0.216986 1.86719,0.06707 1.10802,-0.212022 2.75684,-0.209544 3.17127,0.0048 0.35432,0.183222 0.707,0.852802 0.71055,1.348978 0.004,0.493721 -0.51048,1.400043 -1.00501,1.772069 -0.24023,0.180712 -0.66034,0.38429 -0.9336,0.45239 -0.57669,0.143726 -12.3253,0.248069 -12.84101,0.114043 z m 44.58369,-0.680981 c -0.78254,-0.177266 -2.0726,-0.841467 -2.33634,-1.202888 -0.48031,-0.658194 -0.76547,-5.824044 -0.74128,-13.42854 0.004,-1.14106 0.002,-2.961568 -0.003,-4.045572 -0.005,-1.084007 0.0537,-3.307244 0.13137,-4.940532 0.11398,-2.397276 0.11781,-3.620254 0.0199,-6.345539 -0.13217,-3.678862 -0.0906,-4.271053 0.36222,-5.164716 0.61282,-1.209349 1.4627,-1.356603 4.45311,-0.771547 1.50567,0.294575 1.84874,0.484841 2.36121,1.309478 0.40653,0.65416 0.49975,1.295571 0.37544,2.583214 -0.0618,0.639604 -0.0764,2.031186 -0.0356,3.371311 0.0541,1.772955 0.0327,2.6177 -0.0959,3.786239 -0.27827,2.528339 -0.34626,4.024166 -0.24754,5.445961 0.0693,0.99728 0.0515,1.956448 -0.0682,3.682509 -0.13557,1.954742 -0.14697,3.214236 -0.0702,7.751338 0.0504,2.979545 0.0524,5.627979 0.004,5.885405 -0.16608,0.888923 -0.64719,1.563631 -1.3909,1.950559 -0.52792,0.274662 -1.81565,0.337815 -2.71839,0.13332 z"
         id="path644" />
      <path
         style="fill:#00ffff;fill-opacity:1;stroke-width:0.103732"
         d="m 376.71832,36.781335 c -0.28468,-0.157788 -0.52209,-0.538596 -0.52413,-0.840702 -0.003,-0.408002 0.41787,-1.116133 1.52641,-2.569771 0.61899,-0.811691 1.22946,-1.647665 1.35661,-1.857723 l 0.23118,-0.381926 -0.54868,0.05621 c -1.12284,0.115038 -2.01472,-0.405449 -2.47723,-1.445683 -0.20439,-0.459703 -0.24238,-0.720066 -0.2458,-1.684789 -0.004,-1.050875 0.0195,-1.189009 0.29387,-1.747778 0.39092,-0.796137 1.22843,-1.607333 2.10775,-2.041528 0.59535,-0.293967 0.84674,-0.355607 1.60014,-0.392339 0.80499,-0.03925 0.95717,-0.01513 1.53128,0.242493 1.5321,0.687564 2.16079,2.253641 1.89361,4.717015 -0.15097,1.391983 -0.34082,2.133788 -0.78968,3.08557 -1.17366,2.488681 -3.84227,5.010322 -5.29249,5.001019 -0.22821,-0.0016 -0.52649,-0.0645 -0.66284,-0.140072 z"
         id="path660" />
      <path
         id="path646"
         style="fill:#336699;fill-opacity:1;stroke-width:0.103732"
         d="m 396.84148,65.082138 c -0.80942,-0.211831 -2.11479,-0.874852 -2.91483,-1.480495 -1.41164,-1.068638 -2.0705,-2.05647 -3.15886,-4.7361 -0.32442,-0.79874 -0.71885,-1.708994 -0.8765,-2.022788 -0.60089,-1.195968 -0.64034,-2.317104 -0.14648,-4.162512 0.32402,-1.210764 0.60002,-1.710688 1.16245,-2.105564 0.3666,-0.257387 0.57125,-0.31978 1.15752,-0.352909 0.3917,-0.02215 0.87303,0.01286 1.06963,0.07773 0.47704,0.157436 1.16026,0.755097 1.47186,1.287538 0.23643,0.403995 0.25607,0.55384 0.30131,2.299343 0.0748,2.88509 0.52243,4.260155 1.7609,5.409253 0.8031,0.745153 2.00471,1.408178 2.57938,1.423245 0.35443,0.0093 0.46689,-0.0479 0.80324,-0.408484 0.72597,-0.778275 1.14621,-2.434204 0.94205,-3.712144 -0.13779,-0.862529 -0.327,-1.437231 -0.82452,-2.504403 -0.94144,-2.019354 -2.30727,-3.862429 -4.70591,-6.350248 -2.16648,-2.247023 -3.94377,-4.728474 -4.92269,-6.87304 -0.19598,-0.429338 -0.58693,-1.254354 -0.86878,-1.833368 -0.66475,-1.365609 -0.81345,-2.311878 -0.62693,-3.989316 0.23779,-2.138552 0.94989,-3.829747 2.09188,-4.968129 1.0136,-1.01041 3.27255,-2.229177 5.75699,-3.106078 1.03246,-0.364412 1.22192,-0.376927 2.31258,-0.152774 2.80472,0.576426 4.93526,2.351221 6.16559,5.136092 0.32668,0.739464 0.33922,0.817947 0.33825,2.116463 -7.9e-4,1.291815 -0.0136,1.371368 -0.30096,1.891663 -0.52196,0.945167 -1.5765,1.271452 -3.07241,0.950636 -0.63876,-0.136989 -1.15588,-0.557533 -1.38273,-1.124499 -0.0894,-0.223345 -0.21303,-0.812851 -0.27481,-1.310019 -0.0618,-0.497163 -0.17568,-1.055555 -0.25311,-1.240866 -0.32238,-0.771571 -1.61334,-1.808877 -2.25399,-1.811123 -0.17587,-7.84e-4 -0.35504,0.0973 -0.4885,0.26697 -0.32546,0.413749 -0.66299,1.392931 -0.65854,1.910443 0.007,0.774966 1.68535,6.104496 2.16562,6.875416 0.38047,0.61072 1.04528,1.390359 2.31927,2.719852 1.43214,1.494541 1.84676,2.04895 3.10639,4.153737 1.83896,3.07284 2.60621,4.861007 3.16633,7.37952 0.23501,1.056665 0.27497,1.453121 0.24562,2.436843 -0.0331,1.110703 -0.0565,1.219727 -0.42732,1.996454 -0.48188,1.009261 -1.23979,2.046594 -2.02857,2.776477 -1.36617,1.264147 -3.76887,2.635264 -5.40889,3.086612 -0.92541,0.254682 -2.45275,0.277935 -3.32153,0.05058 z m 96.60913,-0.004 c -0.58746,-0.289737 -1.13037,-0.840676 -1.48873,-1.510797 -0.29432,-0.550374 -0.34901,-0.756598 -0.33909,-1.27861 0.007,-0.342316 0.0141,-1.644152 0.017,-2.892966 0.003,-1.248814 0.0528,-2.812582 0.11094,-3.475043 0.0727,-0.828129 0.0688,-4.072906 -0.0125,-10.384811 -0.16593,-12.879329 -0.16375,-13.466922 0.0569,-15.352426 0.14932,-1.275784 0.23923,-1.696425 0.43532,-2.03671 0.32011,-0.555463 1.15128,-1.298892 1.83084,-1.637522 0.51266,-0.255471 0.61541,-0.267609 2.26595,-0.267609 2.09215,0 2.60026,0.0852 3.68407,0.617777 0.7121,0.349926 1.01873,0.594842 2.04628,1.634437 3.32977,3.368821 5.3292,6.851301 5.94317,10.351301 0.14427,0.822559 0.18356,1.670891 0.18979,4.097438 0.008,3.171364 -0.0899,4.509023 -0.46232,6.308364 -0.76306,3.6869 -3.04638,7.758811 -6.34596,11.316966 -0.81537,0.879254 -1.77964,1.952884 -2.14289,2.385852 -1.0662,1.270953 -1.64383,1.589126 -3.77816,2.081161 -1.0875,0.250699 -1.56891,0.261042 -2.01065,0.0432 z m 5.93058,-7.768318 c 0.34231,-0.484673 0.87351,-1.313179 1.18042,-1.841127 0.64772,-1.114142 1.98394,-4.109573 2.28943,-5.132203 0.47581,-1.592894 0.71379,-4.219996 0.74966,-8.275617 0.0196,-2.218406 0.0122,-2.307902 -0.26256,-3.205696 -0.38249,-1.249281 -0.83105,-2.310537 -2.06486,-4.885448 -0.98329,-2.052024 -1.6512,-3.090227 -1.85186,-2.878424 -0.0405,0.0427 -0.12593,3.158504 -0.18992,6.923996 -0.064,3.765496 -0.15803,7.476527 -0.20892,8.246741 -0.14068,2.128233 -0.1651,4.482696 -0.0721,6.950089 0.0784,2.081268 0.0697,2.28506 -0.13162,3.05077 -0.21136,0.804069 -0.29177,1.928521 -0.13789,1.928266 0.0428,-7e-5 0.35788,-0.396679 0.70022,-0.881347 z m -25.07684,7.254334 c -2.17899,-0.223635 -3.34741,-0.718877 -4.17743,-1.770646 -0.21909,-0.277626 -0.73407,-0.832791 -1.1444,-1.2337 -1.00022,-0.977253 -1.26456,-1.519826 -1.40036,-2.874249 -0.0587,-0.585636 -0.245,-1.932438 -0.41396,-2.992894 -0.34269,-2.150851 -0.38093,-3.22172 -0.1534,-4.295895 0.20348,-0.960657 0.19457,-1.625407 -0.0501,-3.734335 -0.26871,-2.316481 -0.25995,-3.298502 0.0593,-6.644144 0.16825,-1.763409 0.30065,-4.040221 0.35861,-6.166834 0.10936,-4.012259 0.18609,-4.666674 0.66551,-5.676214 0.43438,-0.914661 0.99511,-1.479647 2.08573,-2.101529 0.70017,-0.399251 0.91406,-0.470206 1.52074,-0.504484 0.59879,-0.03383 0.7885,7.84e-4 1.24971,0.227705 0.69975,0.344378 1.39019,1.020697 1.53463,1.503277 0.17768,0.593595 0.33039,5.126098 0.25567,7.58857 -0.14589,4.808294 -0.26663,10.098853 -0.32462,14.225033 -0.0778,5.53795 0.0459,7.023118 0.77668,9.318568 0.23607,0.741535 0.33141,0.908329 0.6133,1.072963 0.33297,0.194462 0.33487,0.194301 0.78144,-0.06741 0.71969,-0.421762 1.77303,-1.617562 2.1918,-2.488218 0.65393,-1.359587 0.81913,-2.272327 1.10479,-6.103897 0.0934,-1.252903 0.0924,-2.121026 -0.004,-3.78624 -0.13148,-2.263011 -0.0759,-3.795889 0.25907,-7.149008 0.26,-2.602276 0.29957,-5.172792 0.10601,-6.885343 -0.35768,-3.164672 -0.31641,-5.428553 0.11086,-6.080644 0.32101,-0.489903 1.85837,-1.080545 2.81254,-1.080545 1.13176,0 1.48726,0.735062 1.15957,2.397625 -0.16429,0.833575 -0.13085,1.517587 0.11278,2.306357 0.36806,1.191644 0.42124,1.754627 0.25466,2.696223 -0.0928,0.524678 -0.15059,1.556459 -0.15197,2.713727 -10e-4,1.026951 -0.0957,3.197558 -0.2099,4.823565 -0.11421,1.626011 -0.25379,4.706868 -0.31016,6.846353 -0.11164,4.237317 -0.20586,5.547912 -0.5294,7.365018 -0.35735,2.007062 -1.03484,4.801825 -1.26366,5.212974 -0.13055,0.234558 -0.46685,0.553009 -0.84573,0.800819 -0.38365,0.250946 -0.74198,0.591544 -0.91866,0.873228 -0.39339,0.627167 -1.02064,1.17355 -1.72067,1.498854 -0.50957,0.236793 -0.73319,0.273474 -1.7759,0.291301 -0.65611,0.01121 -1.83452,-0.04546 -2.61871,-0.125934 z m -19.03169,-0.249197 c -0.67356,-0.410691 -1.80426,-2.328031 -1.99016,-3.374745 -0.23213,-1.307008 -0.3602,-4.874235 -0.37241,-10.373265 -0.007,-3.13791 -0.0685,-6.708905 -0.13666,-7.935544 -0.0682,-1.226639 -0.14163,-3.537281 -0.16317,-5.134766 -0.0215,-1.597481 -0.0846,-3.01957 -0.14009,-3.160198 -0.10058,-0.254765 -0.10135,-0.254389 -0.21458,0.103735 -0.48117,1.521817 -1.07045,4.236619 -1.31641,6.06471 -0.26002,1.9325 -0.55208,2.988766 -1.14902,4.155635 -0.47007,0.918864 -0.53998,1.138265 -0.58469,1.834886 -0.0616,0.959955 -0.49206,1.923306 -1.62123,3.628228 -0.4053,0.611967 -0.82783,1.288823 -0.93895,1.504119 -0.47844,0.926988 -1.51809,1.58581 -2.62825,1.6655 -0.60808,0.04365 -0.77095,0.01388 -1.27602,-0.233225 -0.72678,-0.355579 -1.01848,-0.782047 -1.30212,-1.903668 -0.23184,-0.916806 -0.70985,-2.151306 -1.47428,-3.807459 -0.68351,-1.480851 -1.72905,-4.026114 -1.99575,-4.858482 l -0.22797,-0.711515 -0.0735,0.867112 c -0.0404,0.476914 -0.19454,1.77737 -0.34255,2.8899 -0.23493,1.766005 -0.27203,2.444171 -0.29219,5.34223 -0.0166,2.385228 -0.0702,3.653324 -0.19049,4.505776 -0.2067,1.464824 -0.21133,3.145916 -0.0125,4.544485 0.26001,1.829028 -0.056,2.705436 -1.19221,3.30595 -0.28457,0.150407 -0.62099,0.195854 -1.55599,0.210215 -0.65611,0.01008 -1.56637,0.0513 -2.02279,0.09162 -1.90613,0.168359 -2.89846,-0.678852 -3.17056,-2.706906 -0.14261,-1.062852 0.0473,-9.089087 0.26491,-11.195929 0.18649,-1.805527 0.20631,-6.59645 0.0323,-7.800137 -0.11334,-0.783886 -0.10447,-0.941976 0.0993,-1.768839 0.45863,-1.861177 0.47959,-2.170544 0.45297,-6.685032 -0.0218,-3.701449 -8e-5,-4.463077 0.15088,-5.284502 0.15242,-0.829361 0.1577,-1.031009 0.0389,-1.48427 -0.1953,-0.744899 -0.16585,-1.522841 0.0755,-1.994434 0.28794,-0.562615 1.86264,-1.810892 2.98946,-2.369762 1.81467,-0.900017 3.27263,-0.84015 4.01681,0.164944 0.25648,0.346409 1.042,2.912855 1.37874,4.504588 0.37083,1.752933 0.60523,2.416178 1.36139,3.852048 0.80039,1.519869 0.92962,1.881638 1.64399,4.602164 0.30711,1.169583 0.70603,2.546636 0.88647,3.060109 0.45621,1.29821 1.14905,2.956382 1.23527,2.956382 0.0784,0 1.29864,-3.747516 1.97595,-6.06836 0.74225,-2.543343 3.22337,-10.037995 3.54086,-10.69575 0.43872,-0.908922 1.19845,-1.620844 2.3212,-2.175116 1.48631,-0.733756 2.50137,-0.818131 3.64881,-0.303297 0.64447,0.289164 1.40601,0.967824 1.75583,1.564751 0.46288,0.789837 0.54665,1.571445 0.66113,6.168516 0.10457,4.199268 0.31282,9.057099 0.53116,12.390984 0.0598,0.912846 0.1493,4.227104 0.1989,7.365013 0.11076,7.005408 0.2485,8.311208 1.13211,10.732369 0.17534,0.480442 0.3188,1.062134 0.3188,1.29265 0,0.395248 -0.0636,0.482081 -1.1165,1.524479 -0.84311,0.834689 -1.21777,1.13347 -1.53006,1.220167 -0.6361,0.176595 -1.30382,0.141604 -1.68049,-0.08806 z" />
      <path
         style="fill:#00ff00;fill-opacity:1;stroke-width:0.103732"
         d="m 611.22035,65.167706 c -0.51031,-0.09966 -1.27835,-0.565504 -1.54135,-0.93486 -0.52822,-0.741829 -0.5579,-0.932524 -0.57421,-3.688123 -0.009,-1.426327 -0.0766,-3.083453 -0.15149,-3.682509 -0.10013,-0.800615 -0.1175,-1.817517 -0.0656,-3.83811 0.0388,-1.511902 0.11307,-4.429379 0.16506,-6.483285 0.052,-2.053906 0.13981,-3.991115 0.1952,-4.304904 0.16824,-0.952836 0.12605,-4.151582 -0.0923,-7.001955 -0.28197,-3.680826 -0.14968,-5.99753 0.40457,-7.083965 0.58205,-1.140887 2.77892,-1.841048 5.04064,-1.606482 1.3274,0.137664 1.76447,0.367713 2.11485,1.113169 0.48581,1.033471 0.5612,1.684432 0.48706,4.205972 -0.0376,1.283687 -0.11221,4.761325 -0.16545,7.728077 -0.0533,2.966755 -0.16678,6.28101 -0.25233,7.365017 -0.0855,1.084008 -0.15647,2.585614 -0.15765,3.336908 l -0.004,1.365993 0.67282,0.153468 c 0.48846,0.111419 0.77977,0.126082 1.06326,0.05352 0.21474,-0.05497 1.3007,-0.113278 2.41321,-0.129576 1.11255,-0.01631 2.10086,-0.06353 2.19633,-0.104951 0.67959,-0.29497 0.98709,-3.508006 0.87437,-9.135867 -0.0376,-1.882748 -0.11237,-5.710484 -0.16588,-8.506078 l -0.0974,-5.082897 0.31122,-0.641967 c 0.67352,-1.389239 2.63441,-2.232215 3.63067,-1.560816 0.59021,0.397729 0.91397,0.969424 1.04186,1.839719 0.0758,0.515838 0.12993,4.780227 0.16059,12.655382 0.0255,6.532559 0.0727,12.71762 0.10503,13.744575 0.0783,2.484384 -0.26515,6.35164 -0.66328,7.468745 -0.50611,1.420168 -1.13765,1.877937 -2.47265,1.792264 -0.90648,-0.05818 -1.57103,-0.401077 -1.98261,-1.023011 -0.21497,-0.324806 -0.28338,-0.57754 -0.32282,-1.192067 -0.0477,-0.743315 0.12585,-4.847849 0.24825,-5.870691 0.0731,-0.611034 -0.0388,-0.681765 -1.22064,-0.771477 -0.67509,-0.05125 -1.0973,-0.01737 -1.92235,0.15428 -0.5815,0.12097 -1.38825,0.219946 -1.79274,0.219946 -1.23506,0 -1.74082,0.349094 -2.03067,1.401635 -0.12621,0.458244 -0.19105,1.328516 -0.24731,3.318285 -0.0874,3.089266 -0.1295,3.263937 -0.91872,3.80694 -1.09118,0.750741 -3.02521,1.165811 -4.28533,0.919692 z m -16.45461,-1.089528 c -1.39911,-0.339015 -2.59964,-1.223264 -3.55972,-2.621907 -0.30498,-0.444299 -0.98371,-1.376677 -1.50825,-2.071945 -1.17214,-1.553625 -1.60055,-2.250885 -2.00755,-3.267289 -0.39606,-0.98911 -0.53771,-1.608369 -0.94474,-4.130258 -0.30503,-1.889695 -0.32573,-2.18659 -0.31483,-4.512366 0.006,-1.369271 0.0596,-3.119761 0.11813,-3.889976 0.20211,-2.657365 0.83811,-6.161757 1.45662,-8.026294 0.57421,-1.730899 2.10105,-4.37751 3.5859,-6.215688 0.49886,-0.617562 0.6776,-0.754861 1.44275,-1.10837 0.48035,-0.221918 1.03253,-0.461044 1.22707,-0.531387 0.25856,-0.09351 0.36932,-0.20604 0.41178,-0.41845 0.11181,-0.55891 0.33897,-0.666526 1.70973,-0.809922 1.93541,-0.20246 2.57658,-0.0406 3.92257,0.990176 2.03965,1.562007 3.4611,3.79957 4.08581,6.431753 0.39002,1.643317 0.16541,3.425234 -0.50701,4.022205 -0.55806,0.495462 -1.79568,0.390406 -2.49966,-0.212187 -0.56617,-0.484622 -0.79608,-0.966679 -0.88229,-1.849917 -0.14679,-1.504614 -0.48063,-2.268959 -1.51653,-3.472556 -1.91517,-2.225217 -2.75234,-2.071694 -3.79401,0.695777 -0.22531,0.598578 -0.72742,3.226923 -1.13489,5.940627 -0.16851,1.122124 -0.37309,5.950653 -0.39555,9.335932 -0.0169,2.517584 0.22539,7.347504 0.4095,8.168949 0.22497,1.003777 0.71065,1.858699 1.49383,2.629317 0.76464,0.752423 1.7193,1.296579 2.07604,1.183356 0.41041,-0.130266 1.10169,-1.367444 1.60157,-2.866353 0.2593,-0.777475 0.61216,-1.711069 0.78416,-2.07465 0.35967,-0.760299 0.40531,-1.448631 0.15729,-2.372651 -0.19701,-0.734007 -0.20171,-1.996876 -0.009,-2.365068 0.36227,-0.691485 1.4124,-1.362516 2.13936,-1.367028 0.50438,-0.0031 1.24326,0.392684 1.52535,0.817116 0.12887,0.193925 0.3839,0.800764 0.5668,1.348523 0.30702,0.919609 0.33282,1.103242 0.33705,2.39632 l 0.005,1.400392 -0.5561,1.296657 c -0.30581,0.713162 -0.97497,2.158547 -1.48701,3.211966 -0.85449,1.758022 -0.98811,1.970989 -1.62728,2.593314 -1.28016,1.246419 -2.9014,1.878722 -4.77447,1.86211 -0.54716,-0.0049 -1.23883,-0.06796 -1.53711,-0.140228 z m 78.03654,-0.524393 c -0.51838,-0.184676 -0.90436,-0.47026 -1.06613,-0.788892 -0.35328,-0.695801 -1.37774,-3.082256 -1.37884,-3.212032 0,-0.08206 -0.16737,-0.522636 -0.37041,-0.979061 -1.1974,-2.691517 -1.95972,-4.939152 -2.18135,-6.43142 -0.21156,-1.424543 -0.35764,-1.949033 -1.19547,-4.292558 -0.83658,-2.339953 -1.12376,-3.437698 -1.1296,-4.31725 -0.004,-0.34232 -0.0904,-0.855793 -0.19584,-1.14106 -0.10546,-0.285264 -0.35081,-0.948355 -0.5452,-1.473539 -0.19442,-0.525185 -0.37963,-0.981037 -0.41158,-1.013006 -0.0322,-0.03195 -0.0892,0.864521 -0.12726,1.992204 -0.038,1.127683 -0.11335,2.33041 -0.16738,2.672726 -0.0652,0.413078 -0.0581,1.145698 0.0212,2.178385 0.071,0.925987 0.12193,4.202008 0.12577,8.091144 0.007,7.239142 0.0414,6.852626 -0.68003,7.674263 -0.55069,0.627233 -1.21229,0.881457 -2.29696,0.882665 -0.78452,7.84e-4 -1.03979,-0.04809 -1.86719,-0.358202 -0.52713,-0.197571 -1.15336,-0.408511 -1.3917,-0.468755 -0.51999,-0.131458 -0.92914,-0.575851 -1.03127,-1.12007 -0.0398,-0.212269 -0.018,-1.179497 0.0486,-2.149396 0.0666,-0.969902 0.12123,-2.720389 0.12138,-3.889975 0,-1.169587 0.0682,-2.860539 0.15122,-3.757675 0.22763,-2.460539 0.23857,-10.528277 0.0176,-13.098875 -0.38496,-4.48183 -0.46212,-7.30893 -0.22672,-8.307037 0.12859,-0.545191 0.12887,-0.714173 0.004,-1.244791 -0.17494,-0.732494 -0.19431,-1.434055 -0.0472,-1.708909 0.16906,-0.315898 0.68289,-0.522447 1.32434,-0.53237 0.32541,-0.005 1.47854,0.01498 2.56255,0.04446 2.09536,0.057 2.78276,0.190773 3.73437,0.72675 0.6796,0.382769 1.24119,1.803411 2.0197,5.109134 0.76813,3.261668 2.04769,7.965988 4.66948,17.167748 0.34952,1.226639 0.84305,3.055032 1.09675,4.063098 0.2537,1.008065 0.50827,1.941659 0.5657,2.07465 0.072,0.166692 0.0852,-0.434921 0.0426,-1.936574 -0.0341,-1.198113 -0.006,-3.672135 0.0625,-5.497831 0.17996,-4.805447 0.15926,-7.058112 -0.11558,-12.578137 -0.1914,-3.844622 -0.0601,-6.421724 0.41778,-8.196189 l 0.11339,-0.421144 0.93984,-0.216389 c 1.12502,-0.259035 1.16321,-0.26036 1.59514,-0.05541 0.44272,0.210093 0.84136,0.946057 0.98203,1.813063 0.0599,0.369125 0.11068,1.534708 0.11292,2.590185 0.004,1.055482 0.0762,3.552843 0.16458,5.549696 0.10586,2.392752 0.17678,6.955256 0.20803,13.381508 0.0263,5.362978 0.0697,9.854989 0.097,9.982248 0.0486,0.227148 0.0613,0.224145 0.69637,-0.164266 1.15109,-0.704046 1.18011,-0.681087 0.257,0.203405 -0.7477,0.716416 -0.90844,0.925635 -0.90805,1.181737 0,0.618588 -0.67434,1.340799 -1.61615,1.728409 -0.46687,0.192137 -1.71052,0.400211 -2.35229,0.393554 -0.24143,-0.0024 -0.62294,-0.0701 -0.84786,-0.150226 z m -141.94991,-0.05289 c -0.97807,-0.230924 -1.71252,-1.226734 -1.87769,-2.545934 -0.0497,-0.396793 -0.11731,-2.917795 -0.15024,-5.602224 -0.0462,-3.766249 -0.0243,-5.412534 0.0958,-7.209417 0.24778,-3.705652 0.35995,-4.753276 0.62138,-5.803676 0.35265,-1.41718 0.40633,-2.643251 0.41566,-9.491533 0.009,-6.738301 0.0243,-6.934951 0.68387,-8.920552 0.42139,-1.268307 0.89468,-1.94262 1.60877,-2.291992 l 0.55818,-0.273125 2.20538,0.03997 c 2.43847,0.0442 2.68267,0.104484 3.08412,0.761232 0.39807,0.651299 0.42019,0.988961 0.31272,4.771703 -0.30072,10.582163 -0.36032,11.576788 -0.93888,15.663625 -0.29725,2.099691 -0.49884,4.408636 -0.38487,4.408636 0.0648,0 1.39699,-2.308984 1.76558,-3.060113 0.14,-0.285263 0.45351,-1.055477 0.6967,-1.711586 0.47554,-1.2831 2.22955,-4.946343 2.85595,-5.964626 0.36436,-0.592352 0.92153,-2.081311 2.38709,-6.379558 0.79564,-2.33348 1.44474,-3.940469 2.19227,-5.42742 0.80246,-1.596324 1.09406,-2.029147 1.59245,-2.363884 0.80393,-0.539965 1.91417,-0.550096 2.56492,-0.02341 0.70606,0.571522 0.80654,0.786888 0.80614,1.72839 l -3.1e-4,0.847822 -1.00256,1.919057 c -1.37314,2.628411 -1.77091,3.572653 -2.37548,5.639011 -1.31547,4.496297 -2.0255,6.291894 -3.882,9.817147 -2.32251,4.410318 -2.66632,5.04188 -2.96553,5.447603 -0.16897,0.229117 -0.33515,0.588879 -0.36934,0.799478 -0.0578,0.356249 -0.0376,0.394926 0.28784,0.555502 0.38898,0.191835 1.50998,1.42018 2.16996,2.377756 0.23593,0.342315 0.81509,1.019172 1.28703,1.504119 1.65597,1.701558 2.77669,3.225492 4.20253,5.714358 1.13079,1.973855 1.18929,2.75204 0.27565,3.665736 -1.00288,1.002945 -2.44602,1.326505 -3.53372,0.79228 -0.76456,-0.375496 -1.3363,-1.044814 -1.99434,-2.334567 -0.95692,-1.875663 -1.47865,-2.567203 -3.29143,-4.36276 -0.9216,-0.91285 -1.99359,-2.022428 -2.38218,-2.465734 -0.79867,-0.911101 -1.18968,-1.175742 -1.44638,-0.978932 -0.23523,0.18034 -0.2987,5.83325 -0.0797,7.096323 0.17497,1.008979 0.077,1.486669 -0.42132,2.054235 -0.3653,0.416106 -1.08834,0.673662 -1.89116,0.673662 -0.42097,0 -0.64855,0.0777 -1.19994,0.409703 -0.94204,0.567182 -1.65862,0.718321 -2.48297,0.523687 z m 43.50788,-0.112236 c -1.65971,-0.314981 -2.05977,-0.508031 -2.41952,-1.167445 -0.16345,-0.299554 -0.18493,-1.042524 -0.24829,-8.574716 -0.0423,-5.034015 -0.0306,-8.697779 0.0302,-9.404515 0.0747,-0.867751 0.059,-1.740352 -0.0628,-3.483432 -0.13424,-1.920923 -0.14404,-2.838701 -0.0562,-5.27365 0.0585,-1.621393 0.13271,-3.118248 0.1649,-3.326342 0.0322,-0.208094 0.0196,-0.402477 -0.0282,-0.431968 -0.0477,-0.02948 -0.33788,0.01153 -0.64482,0.09115 -0.78593,0.203864 -2.70044,0.45984 -3.43923,0.45984 -0.75546,0 -1.20963,-0.1762 -1.57577,-0.611344 -0.3516,-0.417846 -0.4542,-0.961289 -0.29511,-1.563019 0.24108,-0.911912 1.10401,-1.670145 2.3686,-2.081311 0.38614,-0.125545 1.06025,-0.387355 1.49798,-0.581801 1.36449,-0.606094 2.24541,-0.793099 3.76833,-0.799925 0.96745,-0.0043 1.68566,0.05739 2.54145,0.218393 0.65611,0.12344 1.91647,0.297284 2.8008,0.386317 0.88429,0.08903 1.86754,0.207996 2.18499,0.264362 0.48804,0.08666 0.67117,0.07012 1.18649,-0.107173 2.14783,-0.738952 3.24513,-0.42548 3.69498,1.055563 0.45188,1.487849 0.0903,2.435463 -1.17615,3.08192 -0.59902,0.305795 -0.81293,0.357304 -1.65535,0.398615 -0.53207,0.02607 -1.6425,-0.02478 -2.46759,-0.113051 -0.82513,-0.08827 -1.52041,-0.140302 -1.54507,-0.115618 -0.0247,0.0247 0.0395,0.617722 0.14263,1.317867 0.15726,1.067538 0.18062,1.758501 0.14471,4.281236 -0.0235,1.654534 -0.0274,4.316729 -0.008,5.915983 0.0306,2.576138 0.0106,3.043411 -0.17839,4.097437 -0.32251,1.800533 -0.44319,3.601474 -0.32647,4.872212 0.0551,0.599056 0.1026,1.906087 0.1057,2.904512 0.004,0.998429 0.0712,2.585536 0.15126,3.526908 0.15972,1.877208 0.11522,2.379214 -0.28887,3.258146 -0.33878,0.736882 -0.71151,1.142382 -1.33611,1.453623 -0.65952,0.328668 -1.49484,0.342782 -3.03109,0.05123 z m 63.37443,0.124291 c -0.62859,-0.163367 -0.96176,-0.416125 -1.20825,-0.916684 -0.23331,-0.473824 -0.24174,-0.568342 -0.19262,-2.155281 0.0667,-2.154402 0.0581,-5.446262 -0.0456,-17.323344 -0.0468,-5.362978 -0.0859,-10.427723 -0.0869,-11.254989 -0.004,-2.089156 0.15749,-3.961091 0.36575,-4.278903 0.41993,-0.640905 1.68747,-0.865807 3.86465,-0.685722 0.79875,0.06607 3.29613,0.148172 5.54974,0.182457 4.50626,0.06855 4.44545,0.05963 5.01453,0.735921 0.46882,0.557188 0.49164,1.546051 0.052,2.257366 -0.30702,0.496779 -0.63866,0.675445 -1.31207,0.706873 -0.32486,0.01517 -1.22083,0.08032 -1.99104,0.144811 -1.05005,0.08792 -1.70585,0.08727 -2.62135,-0.0027 -1.39178,-0.13661 -1.90102,-0.08169 -1.99523,0.215154 -0.0353,0.110965 -0.0169,0.844545 0.0412,1.630183 0.0578,0.785638 0.12973,3.902455 0.15973,6.926263 0.0429,4.323959 0.0223,5.852206 -0.0958,7.157551 -0.0827,0.912846 -0.15177,2.045567 -0.15342,2.517156 l -0.004,0.85744 1.32258,-0.05657 c 0.72743,-0.03113 1.56064,-0.07811 1.85154,-0.104437 1.11302,-0.10074 2.16955,0.500872 2.43489,1.386454 0.17357,0.579324 -0.0415,1.784498 -0.39296,2.202215 -0.48462,0.57594 -0.80764,0.647966 -3.02372,0.674163 -1.69825,0.02007 -2.03507,0.04993 -2.17841,0.193058 -0.14459,0.1444 -0.17419,0.50675 -0.20116,2.462955 -0.0212,1.546176 0.005,2.330198 0.0805,2.405811 0.0671,0.06713 0.64215,0.117481 1.43204,0.125397 0.92044,0.0092 1.63559,0.08124 2.3631,0.237972 0.99187,0.213685 1.08373,0.216986 1.86719,0.06707 1.108,-0.212022 2.75685,-0.209544 3.17125,0.0048 0.35435,0.183222 0.70701,0.852802 0.71057,1.348978 0.004,0.493721 -0.5105,1.400043 -1.00504,1.772069 -0.24022,0.180713 -0.66031,0.38429 -0.93358,0.452391 -0.57668,0.143725 -12.32531,0.248068 -12.84099,0.114042 z m -79.48054,-0.680983 c -0.78251,-0.177266 -2.07259,-0.841463 -2.33631,-1.202888 -0.48029,-0.658191 -0.76542,-5.82404 -0.74123,-13.42854 0.004,-1.14106 0.004,-2.961564 -0.004,-4.045572 -0.005,-1.084007 0.0537,-3.307244 0.13137,-4.940528 0.11396,-2.397276 0.1178,-3.620253 0.02,-6.345539 -0.13216,-3.678867 -0.0906,-4.271054 0.3622,-5.164716 0.6128,-1.209353 1.46267,-1.356603 4.45307,-0.771551 1.50567,0.294574 1.84876,0.484841 2.36123,1.309477 0.40652,0.65416 0.49975,1.295571 0.37543,2.583215 -0.0617,0.639607 -0.0764,2.031186 -0.0357,3.371311 0.0541,1.772959 0.0325,2.6177 -0.0959,3.78624 -0.27829,2.528342 -0.34627,4.024166 -0.24755,5.445964 0.0692,0.997276 0.0515,1.956448 -0.0682,3.682505 -0.13557,1.954742 -0.14698,3.21424 -0.0702,7.751338 0.0505,2.979548 0.0524,5.627978 0.004,5.885409 -0.16608,0.888918 -0.64718,1.563631 -1.39092,1.950559 -0.5279,0.274658 -1.81563,0.337811 -2.71839,0.133316 z"
         id="path648" />
    </g>
  </g>
</svg>
