<?xml version="1.0" encoding="UTF-8" standalone="no"?>
<!-- Created with Inkscape (http://www.inkscape.org/) -->

<svg
   xmlns:dc="http://purl.org/dc/elements/1.1/"
   xmlns:cc="http://creativecommons.org/ns#"
   xmlns:rdf="http://www.w3.org/1999/02/22-rdf-syntax-ns#"
   xmlns:svg="http://www.w3.org/2000/svg"
   xmlns="http://www.w3.org/2000/svg"
   xmlns:sodipodi="http://sodipodi.sourceforge.net/DTD/sodipodi-0.dtd"
   xmlns:inkscape="http://www.inkscape.org/namespaces/inkscape"
   width="148mm"
   height="105mm"
   viewBox="0 0 524.40944 372.04724"
   id="svg2"
   version="1.1"
   inkscape:version="0.91 r13725"
   sodipodi:docname="A6 card.svg">
  <defs
     id="defs4" />
  <sodipodi:namedview
     id="base"
     pagecolor="#ffffff"
     bordercolor="#666666"
     borderopacity="1.0"
     inkscape:pageopacity="0.0"
     inkscape:pageshadow="2"
     inkscape:zoom="1.4"
     inkscape:cx="311.36426"
     inkscape:cy="282.2295"
     inkscape:document-units="mm"
     inkscape:current-layer="layer1"
     showgrid="false"
     inkscape:window-width="1920"
     inkscape:window-height="1137"
     inkscape:window-x="-8"
     inkscape:window-y="-8"
     inkscape:window-maximized="1" />
  <metadata
     id="metadata7">
    <rdf:RDF>
      <cc:Work
         rdf:about="">
        <dc:format>image/svg+xml</dc:format>
        <dc:type
           rdf:resource="http://purl.org/dc/dcmitype/StillImage" />
        <dc:title></dc:title>
      </cc:Work>
    </rdf:RDF>
  </metadata>
  <g
     inkscape:label="Layer 1"
     inkscape:groupmode="layer"
     id="layer1"
     transform="translate(0,-680.31496)">
    <path
       style="fill:none;stroke:#ff0000"
       d="m 451.30351,809.01725 c -0.82671,-0.87551 -3.21667,-2.90358 -5.31106,-4.50767 -5.99317,-4.58905 -6.46759,-7.00396 -1.73609,-8.83674 6.1669,-2.38862 7.27645,-4.93165 6.34471,-14.54163 -0.33468,-3.44899 -0.47602,-6.40306 -0.31465,-6.56455 0.16149,-0.16275 0.77706,0.19197 1.36821,0.78119 0.75777,0.75782 1.19076,2.03893 1.46818,4.34325 0.74826,6.21526 4.48956,11.61262 8.86644,12.79107 2.69213,0.72484 3.2751,1.56863 2.96771,4.29567 -0.36597,3.24702 -2.26547,5.74706 -6.78805,8.93397 -2.1813,1.53733 -4.28015,3.26788 -4.66411,3.84626 -0.69322,1.04366 -0.70857,1.0399 -2.20125,-0.54082 z m 20.5036,-2.66447 c -6.31608,-2.45247 -6.11557,-2.21585 -4.54628,-5.36522 0.74563,-1.49601 1.32869,-3.5124 1.32869,-4.59446 l 0,-1.92876 1.87892,0.34219 c 2.08713,0.38391 5.06006,1.27901 7.47552,2.2555 2.14161,0.86548 3.17168,0 3.17168,-2.61521 0,-1.6087 0.17235,-1.94295 1.00206,-1.94295 1.99878,0 1.39336,3.02166 -1.46164,7.29523 -1.29972,1.94544 -2.65919,4.59488 -3.02108,5.88725 -0.36179,1.29238 -0.91046,2.32436 -1.21914,2.29307 -0.30838,-0.0417 -2.38257,-0.76407 -4.60873,-1.62831 z m -49.74023,-5.63438 c -0.60003,-0.42022 -1.39871,-1.5006 -1.77482,-2.40072 -0.37598,-0.90011 -1.49089,-2.69409 -2.47738,-3.98646 -2.93141,-3.83999 -2.96099,-7.33696 -0.0622,-7.33696 1.32281,0 5.72869,4.8027 7.92899,8.64311 1.41302,2.46624 2.17455,2.79256 4.47386,1.91833 0.66744,-0.25456 2.54162,-0.52288 4.16478,-0.598 2.37318,-0.10844 2.98136,0 3.10501,0.66184 0.10385,0.53874 -0.71013,1.20934 -2.50376,2.06229 -3.42929,1.63081 -11.12078,2.25092 -12.85462,1.03657 z m 5.15198,-6.78361 c -0.47564,-0.9239 -2.17254,-3.26329 -3.77097,-5.19914 -3.1537,-3.81912 -4.93436,-7.20009 -4.95167,-9.40218 -0.0167,-2.15034 1.80214,-5.22167 4.06177,-6.85873 3.00881,-2.17956 3.75057,-2.28472 5.85685,-0.83001 5.5321,3.81996 11.14127,3.73942 14.05531,-0.2003 1.35018,-1.82652 2.05395,-1.85407 4.06713,-0.15857 l 1.57372,1.32409 -0.15732,8.41109 c -0.14147,7.5648 -0.26123,8.5538 -1.19181,9.82406 -1.7209,2.35064 -4.37747,3.31878 -10.22897,3.72773 -2.89907,0.20031 -5.98612,0.52038 -6.86016,0.70649 -1.43838,0.30464 -1.67107,0.17945 -2.45385,-1.34161 z m 49.66052,0.47739 c -0.53865,-0.31298 -3.1875,-1.08999 -5.88634,-1.72763 -5.58176,-1.31907 -8.13827,-2.48418 -10.87274,-4.95459 -3.17611,-2.86935 -6.13756,-11.1081 -4.64108,-12.91125 0.30379,-0.36722 2.25955,-1.20057 4.34629,-1.8549 2.41058,-0.75614 4.53789,-1.82652 5.83348,-2.93569 1.89378,-1.6208 2.02143,-1.8912 1.78871,-3.78826 -0.1373,-1.12378 -0.43141,-2.4942 -0.65208,-3.04545 -0.31255,-0.78076 -0.008,-0.66058 1.37318,0.54584 0.97606,0.85087 2.76649,2.02933 3.97874,2.61855 2.78305,1.35288 5.88171,4.35703 8.43012,8.17323 2.08971,3.12933 2.85645,6.10008 2.41645,9.36253 -0.23577,1.74932 -4.35172,11.0914 -4.88474,11.08765 -0.13771,-0.001 -0.69125,-0.25873 -1.22999,-0.57003 z m 8.87091,-3.78324 c -1.8536,-0.92223 -1.91252,-1.20015 -0.87683,-4.13586 1.64729,-4.66875 0.62979,-9.62919 -3.06285,-14.93014 -1.20896,-1.73555 -2.19809,-3.22155 -2.19809,-3.30251 0,-0.0793 0.88677,-0.41313 1.97057,-0.73778 1.08378,-0.32549 3.22815,-1.61453 4.76524,-2.86685 l 2.79461,-2.27637 3.62724,0.86131 c 8.42971,2.00136 11.06633,5.04599 11.02561,12.73055 -0.0333,6.52615 -0.3739,12.43261 -0.73437,12.79315 -0.55797,0.55793 -11.57114,2.7354 -13.67857,2.70453 -1.10231,0 -2.737,-0.39227 -3.63256,-0.84003 z m -75.78281,-6.12471 c -0.68892,-0.22116 -2.68549,-1.12044 -4.43673,-2.00136 -1.75124,-0.8805 -3.95178,-1.72596 -4.89003,-1.87826 l -1.70593,-0.27543 0.30505,-5.57011 c 0.31339,-5.71533 0.90145,-9.08002 1.67087,-9.55533 0.23995,-0.14605 1.93264,0.43066 3.76195,1.28696 2.91451,1.36373 3.74231,1.53232 6.69032,1.36165 2.13544,-0.12519 4.21409,-0.60843 5.69105,-1.32744 l 2.32673,-1.13213 2.39142,1.61411 2.39142,1.61371 -1.21088,0.78493 c -2.41429,1.5653 -5.39343,4.62285 -6.23767,6.40179 -0.67523,1.423 -0.79504,2.55304 -0.55012,5.18787 0.26039,2.80009 0.17943,3.42019 -0.47802,3.67266 -1.06582,0.40895 -4.17742,0.30879 -5.71955,-0.18362 z m 41.58657,-12.56697 c -0.68892,-0.55292 -2.75872,-1.90122 -4.59955,-2.99663 -4.25755,-2.53301 -5.42131,-3.98938 -5.42131,-6.78362 0,-2.13157 0.0333,-2.17121 3.02885,-3.69393 3.79029,-1.92627 5.61772,-1.72471 5.38762,0.59339 -0.11517,1.16219 0.17193,1.74557 1.26584,2.57015 1.24785,0.94101 2.09534,1.06954 7.17142,1.08832 6.14716,0.0417 6.6717,0.22952 6.68768,2.64192 0.0167,2.62023 -1.52531,3.80244 -8.2753,6.34338 -1.84822,0.69563 -3.50265,1.25982 -3.67649,1.25357 -0.17402,0 -0.87979,-0.46363 -1.56876,-1.01655 z m -19.79122,-1.05869 c -0.55113,-0.30463 -2.85082,-1.75683 -5.11042,-3.22824 -4.57335,-2.97784 -4.72846,-3.27829 -4.82431,-9.35043 -0.0881,-5.57303 2.70761,-8.83798 8.26015,-9.64628 3.86148,-0.56211 5.27107,0.002 6.40463,2.56513 0.54177,1.22478 1.70145,3.22448 2.57699,4.44383 l 1.59187,2.21628 -0.81691,2.04185 c -1.07883,2.69616 -1.03135,3.75778 0.27208,6.07671 1.04301,1.85572 1.05164,1.97842 0.2049,2.91358 -2.01747,2.22964 -6.29976,3.21362 -8.55886,1.96757 z m -26.03724,-6.53116 c -1.98091,-0.55041 -4.33157,-2.67447 -11.34546,-10.25388 l -2.81076,-3.03711 1.90948,-3.99355 c 1.05915,-2.21545 2.82909,-4.91328 3.97473,-6.05877 3.64357,-3.64386 11.00532,-5.48082 11.96883,-2.98704 1.59212,4.12126 2.36346,5.49083 3.98112,7.06947 1.85085,1.8065 5.23285,3.32714 7.39938,3.32714 1.41294,0 1.47771,0.50993 0.33719,2.65569 -0.51274,0.96437 -0.96205,3.30084 -1.12738,5.86223 l -0.275,4.25895 -3.25678,1.62163 c -3.67485,1.83027 -7.65081,2.39739 -10.75539,1.53524 z m 67.62385,-0.88801 c -3.36193,-1.77644 -5.26094,-3.35676 -5.26094,-4.37788 0,-0.37557 0.32884,-1.1843 0.73116,-1.79774 0.40227,-0.61384 1.09036,-2.66487 1.52944,-4.55816 0.83155,-3.58585 3.72799,-8.54671 5.86289,-10.04189 2.69008,-1.88453 6.66816,-1.39712 9.03729,1.10709 0.711,0.75156 2.20631,3.11014 3.32287,5.2417 1.11657,2.13157 2.39743,4.43589 2.84632,5.1211 0.79905,1.21935 0.76524,1.30072 -1.61178,3.86086 -5.27454,5.68112 -6.43058,6.41807 -10.65119,6.7878 -2.44367,0.21281 -3.18216,0.0459 -5.80606,-1.34288 z m 27.75538,0.26707 c -0.1206,-0.12101 -2.24389,-0.80079 -4.71815,-1.51063 -2.47421,-0.71023 -4.82031,-1.40879 -5.21341,-1.55234 -0.51073,-0.18779 -0.0208,-0.96438 1.71035,-2.7233 2.05278,-2.08442 2.32694,-2.58059 1.78571,-3.23282 -0.5326,-0.64181 -0.48353,-0.82124 0.29336,-1.07372 2.90274,-0.94393 3.8495,-1.51855 5.48527,-3.32921 0.99397,-1.1 2.67707,-3.89216 3.74031,-6.20441 1.06323,-2.31226 2.21138,-4.20429 2.55137,-4.20429 1.30025,0 3.95478,2.34773 5.54098,4.90077 0.90913,1.46304 2.39867,3.68349 3.31023,4.93456 l 1.65743,2.27429 -1.49381,1.58615 c -0.82162,0.87257 -2.47993,2.82637 -3.68518,4.342 -2.50904,3.1552 -6.87074,6.01246 -9.17837,6.01246 -0.86185,0 -1.66582,-0.10016 -1.78659,-0.22117 z m -47.42133,-3.65053 c -2.28062,-0.28377 -2.02778,-0.98775 0.50105,-1.39671 3.10684,-0.50242 5.9179,-1.88953 7.73144,-3.81411 1.67383,-1.77687 3.85171,-5.74538 4.43426,-8.08018 0.2241,-0.89635 0.67498,-1.37792 1.29159,-1.37792 0.83438,0 0.94769,0.39643 0.94769,3.32421 0,4.14212 -0.72777,6.63673 -2.59815,8.90601 -2.09569,2.54218 -5.70712,3.25786 -12.30788,2.4387 z m -3.63254,-4.18886 c -2.78986,-1.26483 -4.32566,-2.66613 -5.56028,-5.07352 -1.02926,-2.00721 -1.28135,-4.90536 -0.42669,-4.90536 0.28962,0 0.84496,0.76199 1.23404,1.6934 1.53475,3.67307 5.5041,6.88419 9.38753,7.59444 2.11955,0.38808 2.42797,0.97022 0.75155,1.41923 -1.86632,0.50035 -3.02057,0.34219 -5.3862,-0.72819 z m -7.73215,-0.2462 c -2.43591,-2.43578 -5.29503,-7.83564 -5.29503,-9.99975 0,-1.93669 2.05145,-6.63548 3.75978,-8.61181 1.41302,-1.63457 1.72533,-1.78771 2.43774,-1.19639 1.05315,0.87382 1.03015,1.15841 -0.20906,2.58724 -0.66225,0.76367 -0.97315,1.72346 -0.87679,2.70703 0.12852,1.31574 0.37181,1.54567 1.77757,1.68129 1.86729,0.17945 2.23259,1.09543 0.43716,1.09543 -1.86141,0 -2.46858,1.15966 -2.21403,4.22932 0.15399,1.85531 0.6651,3.38848 1.60165,4.80395 1.3939,2.10612 1.43417,3.4928 0.10138,3.4928 -0.40227,0 -1.0866,-0.3547 -1.52063,-0.78911 z m 16.24989,-2.40657 c 0,-0.10429 0.33801,-0.9986 0.75155,-1.98802 0.41356,-0.98941 0.75157,-2.35982 0.75157,-3.04545 0,-1.31198 -2.41032,-5.80171 -4.09413,-7.62615 -1.27572,-1.38209 -0.42123,-1.97048 1.4489,-0.99776 2.76674,1.43927 4.74958,4.4071 4.74958,7.10869 0,1.66628 -2.39834,6.73814 -3.18607,6.73814 -0.23161,0 -0.4214,-0.0835 -0.4214,-0.18778 z m -5.95816,-1.28028 c -0.49871,-0.30879 -0.25414,-0.5212 0.88685,-0.77158 0.94935,-0.20865 2.10189,-1.03616 2.89951,-2.08191 1.39696,-1.83152 2.54983,-1.66586 1.93303,0.27542 -0.578,1.82109 -4.25855,3.47902 -5.71939,2.57599 z m 39.43568,-1.41172 c -0.41187,-0.48198 -1.40496,-2.45414 -2.20705,-4.38248 -1.76856,-4.25103 -4.39325,-7.06696 -7.05195,-7.56564 -1.6901,-0.31714 -4.48279,0.0709 -7.46874,1.03533 -0.92861,0.30044 -1.08873,0.05 -1.52903,-2.37736 -0.27041,-1.49226 -0.4052,-2.97243 -0.29962,-3.28958 0.27918,-0.8371 8.70216,-7.85024 10.61911,-8.84132 0.8959,-0.4632 2.81276,-0.96438 4.25975,-1.11377 4.08436,-0.42189 7.23468,0.86757 11.21171,4.58779 2.68503,2.51214 4.93068,4.15255 6.99369,5.10899 0.37181,0.17109 -6.18784,12.63792 -7.57649,14.39725 -1.43393,1.81693 -3.92762,3.31753 -5.51262,3.31753 -0.37931,0 -1.02692,-0.39643 -1.43867,-0.87674 z m -40.80605,-1.86324 c -0.40812,-1.0637 0.21658,-1.76935 1.5665,-1.76935 2.18999,0 1.9475,1.33244 -0.39476,2.1687 -0.55259,0.19613 -1.00152,0.0459 -1.17174,-0.4006 z m -2.84494,-0.58589 c -0.62937,-0.62929 -0.3643,-4.44549 0.38308,-5.51211 0.77221,-1.10251 3.61282,-2.51673 4.09221,-2.03725 0.15523,0.15439 -0.43812,0.92598 -1.31863,1.71259 -1.04191,0.931 -1.81166,2.26052 -2.20455,3.80786 -0.33217,1.30781 -0.76048,2.22087 -0.95215,2.02891 z m -29.65952,-2.87854 c -4.87294,-2.30348 -6.58169,-5.29052 -8.32442,-14.55122 l -1.12441,-5.9749 1.19093,-0.78911 c 0.65503,-0.434 2.66826,-1.88828 4.47391,-3.23157 4.52583,-3.36677 6.1729,-4.01944 8.33968,-3.30418 2.00935,0.66309 6.71745,4.81688 8.22577,7.25767 1.00132,1.61996 1.01446,1.81234 0.27292,3.99607 -1.23458,3.63635 -1.02681,7.10827 0.5626,9.40176 0.73783,1.06495 1.77649,2.1687 2.30809,2.45329 0.75965,0.40479 0.89995,0.85046 0.65537,2.07315 -0.1711,0.85588 -0.65132,2.07523 -1.067,2.70952 -0.72105,1.10042 -1.03799,1.15342 -6.88206,1.14884 -5.3938,-0.003 -6.42575,-0.14607 -8.63146,-1.18932 z m 44.93639,-1.19514 c -0.35595,-1.02823 -0.62702,-2.09484 -0.60203,-2.37067 0.0251,-0.27543 0.16901,-1.64458 0.31965,-3.04253 0.24036,-2.22922 0.11268,-2.73374 -1.03724,-4.1004 -0.72126,-0.85712 -2.14951,-1.82609 -3.1739,-2.15326 -2.58629,-0.82625 -2.87702,-1.2352 -1.54274,-2.16995 1.54775,-1.08373 3.84311,-1.01947 7.93248,0.22116 4.33324,1.31658 5.30512,2.25301 6.04709,5.82676 0.55746,2.68532 0.40728,7.91242 -0.24579,8.56591 -0.15816,0.15857 -0.95199,-0.20448 -1.76413,-0.80456 -1.96449,-1.4522 -2.72356,-1.37834 -4.11692,0.40061 l -1.16923,1.49393 -0.64753,-1.8695 z m -11.95859,0.15023 c 0.0943,-0.28376 0.75239,-0.84629 1.46247,-1.24689 1.0339,-0.58297 1.54981,-0.61009 2.59031,-0.13771 2.26602,1.0324 1.59754,1.90205 -1.46248,1.90205 -1.68088,0 -2.69458,-0.20447 -2.5903,-0.51912 z m -7.90523,-3.24158 c -0.49237,-0.79663 3.3336,-4.10331 6.49318,-5.61143 3.60367,-1.72053 6.78074,-1.88035 9.11207,-0.45903 1.80147,1.09833 2.87373,2.76002 2.46623,3.82205 -0.38182,0.99567 -1.45119,0.88884 -3.5586,-0.35471 -2.38098,-1.40504 -5.08826,-1.04241 -9.75187,1.30615 -3.73066,1.8791 -4.30454,2.03517 -4.76101,1.29655 z m -9.19746,-3.98438 c -2.23709,-3.9802 -0.97764,-8.65855 3.91311,-14.5358 l 2.66066,-3.19692 4.47787,0.31714 c 8.80928,0.62553 11.05652,3.56375 7.82729,10.23428 -0.883,1.82401 -1.56554,2.41323 -4.28492,3.6981 l -3.23461,1.52815 -1.12345,-1.05534 c -0.61789,-0.58047 -1.40197,-1.05578 -1.74235,-1.05578 -1.41948,0 -3.41644,1.55111 -4.77538,3.70938 -0.79782,1.26692 -1.71451,2.30349 -2.0372,2.30349 -0.32258,0 -1.07906,-0.87633 -1.68102,-1.94712 z m -39.65358,0.48365 c -1.16469,-2.17663 -3.08406,-8.18783 -2.82763,-8.85593 0.15148,-0.39643 0.86055,-0.94101 1.57535,-1.21268 0.71488,-0.27124 2.04986,-1.06619 2.96671,-1.76558 2.98394,-2.27596 9.07973,-3.92596 10.54006,-2.85308 0.44876,0.32966 0.72961,2.99078 0.93363,8.84717 l 0.0684,1.96547 -3.25678,0.81792 c -3.30768,0.83084 -7.19078,2.58725 -7.76177,3.51115 -0.50818,0.82208 -1.68238,0.5838 -2.2381,-0.45444 z m 76.6386,-6.54159 c 0,-0.28376 0.91434,-1.3412 2.03186,-2.35064 5.8339,-5.27092 6.77432,-12.64626 2.49859,-19.59514 -0.83832,-1.36248 -1.52419,-2.68991 -1.52419,-2.94988 0,-0.71651 3.04896,-3.45859 4.86025,-4.3708 2.01255,-1.01363 3.55526,-1.01363 8.45303,-8.4e-4 2.14533,0.44359 4.84493,0.70023 5.99914,0.57003 l 2.09855,-0.23786 0.33259,5.31723 c 0.40436,6.47148 -0.40604,9.88416 -2.95273,12.43052 -1.55531,1.55527 -1.86432,1.65459 -5.14229,1.65459 -4.03775,0 -5.3888,0.714 -10.39365,5.4925 -3.04849,2.91066 -6.26074,4.98297 -6.26074,4.03904 z m 31.29161,-3.05462 c -1.08935,-1.12213 -3.05158,-2.73833 -4.36057,-3.59129 -1.30898,-0.85295 -2.37994,-1.71844 -2.37994,-1.92292 0,-0.4682 2.94063,-2.96658 3.49121,-2.96658 0.22451,0 1.50358,0.91723 2.84257,2.03809 1.33895,1.12087 3.27584,2.47626 4.30418,3.01166 l 1.86976,0.97355 -1.09278,2.24925 c -0.61723,1.27068 -1.44106,2.24925 -1.89329,2.24925 -0.44025,0 -1.69182,-0.91848 -2.78114,-2.04101 z m -37.8052,0.28793 c -0.96447,-0.37139 -3.13571,-0.6923 -4.82499,-0.71317 l -3.07128,-0.0417 -0.21324,-2.94529 c -0.26039,-3.59839 -1.38981,-5.44827 -3.93809,-6.44895 -2.28914,-0.89928 -2.58171,-1.47933 -1.93252,-3.8304 1.1333,-4.10456 3.90726,-5.80004 11.61795,-7.1016 2.53914,-0.42815 5.51128,-1.21226 6.60469,-1.74139 1.09336,-0.52955 2.15025,-0.79746 2.34856,-0.5959 0.19821,0.2003 1.10613,2.17079 2.01722,4.37538 2.2583,5.46413 2.30212,9.34292 0.15357,13.54471 -0.93896,1.83612 -2.32231,3.56874 -3.67015,4.59655 -2.39768,1.82861 -2.58818,1.86241 -5.09155,0.89844 z m -32.81944,-5.96906 c -1.49085,-2.54385 -5.17477,-6.10842 -7.04999,-6.82117 -1.97349,-0.75031 -6.098,-0.57796 -7.87986,0.32967 -0.88188,0.44901 -2.79916,1.93877 -4.26059,3.31043 -2.57081,2.41282 -2.68886,2.46499 -3.63463,1.60911 -0.53761,-0.48657 -1.56505,-2.08566 -2.28322,-3.55331 -1.15634,-2.36358 -1.27455,-3.0851 -1.03382,-6.30874 0.14981,-2.0022 0.71008,-5.21833 1.24564,-7.1475 l 0.97377,-3.50699 3.94519,-0.88884 c 4.75784,-1.07163 7.78856,-0.84545 11.09115,0.82834 3.17858,1.61077 5.80953,4.54022 5.43116,6.04793 -0.51783,2.06312 0.67861,7.00353 2.73352,11.28711 1.12658,2.34856 2.39221,4.65039 2.81252,5.11526 0.74713,0.82667 0.55162,1.91081 -0.34428,1.91081 -0.24746,0 -1.03348,-0.99526 -1.74632,-2.21169 z m 3.69102,-2.38402 c -6.13832,-11.0839 -5.7128,-16.93569 1.79977,-24.74962 1.80323,-1.87577 3.28201,-3.53704 3.28623,-3.69227 0.003,-0.1544 0.20531,-0.59381 0.44672,-0.97522 0.35595,-0.56211 0.75723,-0.45445 2.12176,0.57044 0.92548,0.69481 2.85812,1.85155 4.29468,2.57098 5.16687,2.58684 6.72799,4.66124 7.39609,9.82741 0.333,2.57474 0.27082,2.69158 -2.63274,4.95209 -2.43303,1.89412 -3.52376,3.71271 -4.03984,6.73522 l -0.3568,2.0915 -4.17586,0 -4.17588,0 -1.65901,1.9179 -1.65907,1.9175 -0.64589,-1.16593 z M 458.80977,704.394 c -0.13271,-0.13354 -0.2412,-0.98484 -0.2412,-1.89371 0,-2.42285 -1.38252,-6.18314 -3.05025,-8.29717 -0.80251,-1.01737 -1.45918,-2.06981 -1.45918,-2.33938 0,-0.60175 2.80663,-2.34106 4.50943,-2.79466 0.68892,-0.18361 2.36121,-0.82876 3.71622,-1.43425 2.08954,-0.93392 2.50134,-0.98817 2.71228,-0.35471 0.13687,0.40895 1.56115,2.07899 3.1653,3.70813 3.32512,3.37719 4.93649,6.30872 4.93649,8.9807 0,1.47014 -0.19113,1.84613 -0.93843,1.84613 -0.51611,0 -1.9253,0.43316 -3.1315,0.96313 -2.09096,0.91806 -9.71193,2.12322 -10.21929,1.6162 z"
       id="path16377"
       inkscape:connector-curvature="0" />
  </g>
</svg>
