<?xml version="1.0" encoding="UTF-8" standalone="no"?>
<svg
   xmlns:dc="http://purl.org/dc/elements/1.1/"
   xmlns:cc="http://creativecommons.org/ns#"
   xmlns:rdf="http://www.w3.org/1999/02/22-rdf-syntax-ns#"
   xmlns:svg="http://www.w3.org/2000/svg"
   xmlns="http://www.w3.org/2000/svg"
   xmlns:sodipodi="http://sodipodi.sourceforge.net/DTD/sodipodi-0.dtd"
   xmlns:inkscape="http://www.inkscape.org/namespaces/inkscape"
   sodipodi:docname="Annette.svg"
   inkscape:version="1.0 (4035a4fb49, 2020-05-01)"
   id="svg1770"
   version="1.1"
   viewBox="0 0 165 121"
   height="121mm"
   width="165mm">
  <defs
     id="defs1764" />
  <sodipodi:namedview
     inkscape:window-maximized="1"
     inkscape:window-y="-8"
     inkscape:window-x="-8"
     inkscape:window-height="1137"
     inkscape:window-width="1920"
     showgrid="false"
     inkscape:document-rotation="0"
     inkscape:current-layer="layer1"
     inkscape:document-units="mm"
     inkscape:cy="245.09467"
     inkscape:cx="169.93476"
     inkscape:zoom="0.98994949"
     inkscape:pageshadow="2"
     inkscape:pageopacity="0.0"
     borderopacity="1.0"
     bordercolor="#666666"
     pagecolor="#ffffff"
     id="base" />
  <metadata
     id="metadata1767">
    <rdf:RDF>
      <cc:Work
         rdf:about="">
        <dc:format>image/svg+xml</dc:format>
        <dc:type
           rdf:resource="http://purl.org/dc/dcmitype/StillImage" />
        <dc:title></dc:title>
      </cc:Work>
    </rdf:RDF>
  </metadata>
  <g
     id="layer1"
     inkscape:groupmode="layer"
     inkscape:label="Layer 1">
    <g
       id="g2415">
      <path
         id="path865-4-4"
         style="color:#000000;font-style:normal;font-variant:normal;font-weight:normal;font-stretch:normal;font-size:medium;line-height:normal;font-family:sans-serif;font-variant-ligatures:normal;font-variant-position:normal;font-variant-caps:normal;font-variant-numeric:normal;font-variant-alternates:normal;font-variant-east-asian:normal;font-feature-settings:normal;font-variation-settings:normal;text-indent:0;text-align:start;text-decoration:none;text-decoration-line:none;text-decoration-style:solid;text-decoration-color:#000000;letter-spacing:normal;word-spacing:normal;text-transform:none;writing-mode:lr-tb;direction:ltr;text-orientation:mixed;dominant-baseline:auto;baseline-shift:baseline;text-anchor:start;white-space:normal;shape-padding:0;shape-margin:0;inline-size:0;clip-rule:nonzero;display:inline;overflow:visible;visibility:visible;isolation:auto;mix-blend-mode:normal;color-interpolation:sRGB;color-interpolation-filters:linearRGB;solid-color:#000000;solid-opacity:1;vector-effect:none;fill:none;fill-opacity:1;fill-rule:nonzero;stroke:#ff0000;stroke-width:0.0912129;stroke-linecap:butt;stroke-linejoin:miter;stroke-miterlimit:4;stroke-dasharray:none;stroke-dashoffset:0;stroke-opacity:1;color-rendering:auto;image-rendering:auto;shape-rendering:auto;text-rendering:auto;enable-background:accumulate;stop-color:#000000"
         d="M 35.335972,0.15396 31.871803,11.323 H 20.824104 l 2.113726,1.61822 6.814627,5.2179 -3.417618,11.14401 6.949858,-5.3213 C 29.976418,29.68723 22.572969,41.12952 9.9363609,54.07018 H 23.813082 c 0,0 -1.062053,8.32605 -16.169575,19.64459 h 12.694216 c 0,0 -4.00617,12.28389 -20.22383559,27.75338 H 30.73937 v 18.48624 H 41.140717 V 101.46815 H 70.607844 C 50.384031,80.15838 50.384021,73.71477 50.384021,73.71477 H 63.102384 C 48.911927,59.66916 46.932802,54.07018 46.932802,54.07018 H 60.785368 C 51.042983,45.57291 43.001522,35.29614 37.143027,23.79476 L 44.346245,29.3102 40.896796,18.15912 49.85462,11.323 H 38.800151 Z m -8e-4,8.24622 1.628114,5.24946 h 5.373954 l -4.359471,3.32677 1.639574,5.29979 c -1.492554,-1.14162 -3.000278,-2.29827 -4.282121,-3.2787 l -4.289361,3.28431 1.626994,-5.3054 -4.345091,-3.32677 h 5.379124 z" />
      <g
         aria-label="Joy"
         id="text936"
         style="font-size:16.9333px;line-height:1.25;font-family:'Always In My Heart';-inkscape-font-specification:'Always In My Heart';text-align:center;letter-spacing:0px;word-spacing:0px;text-anchor:middle;stroke-width:0.264583">
        <path
           d="m 28.89503,72.574059 c 2.777065,0.0508 2.607732,-4.131731 2.607732,-4.131731 0,-1.761066 0.08467,-3.251198 0.08467,-3.251198 0.01693,-0.491067 0.08467,-1.490133 0.118533,-1.930399 0,0 0.01693,-0.135467 -0.01693,-0.338667 -0.06773,-0.524933 -0.321733,-1.557865 -1.219199,-1.727198 0,0 -1.269999,-0.254 -1.879599,1.219199 -0.0508,0.118533 -0.06773,0.237066 -0.06773,0.3556 0.01693,0.270933 0.1016,0.761999 0.491066,0.880532 0.0508,0.01693 0.118533,-0.01693 0.118533,-0.08467 -0.01693,-0.592667 0.6096,-1.879599 1.1176,-1.981199 0.237066,-0.01693 0.135466,0.626533 -0.03387,1.371599 -0.135467,0.694266 -0.254,1.591732 -0.254,2.489199 0,0 -0.01693,1.405465 0.03387,2.946398 0,0 0.118533,3.640664 -1.0668,3.691464 -1.439332,0.06773 -1.540932,-3.386664 -1.540932,-4.470397 0,0 0.186267,-0.1524 0.186267,-0.270933 0,-0.2032 -0.186267,-0.186267 -0.186267,-0.186267 -0.508,0.03387 -0.812799,0.389467 -0.982133,0.677333 -0.1016,0.186267 -0.1524,0.4064 -0.1524,0.643466 0.06773,1.828799 0.592667,4.063998 2.641599,4.097865 z m 1.727199,-10.90506 c 0.474133,0.270933 -0.06773,0.778932 -0.06773,0.778932 0.118534,-0.389466 0.06773,-0.778932 0.06773,-0.778932 z"
           style="font-style:normal;font-variant:normal;font-weight:normal;font-stretch:normal;font-size:16.9333px;font-family:'Christmas Bell - Personal Use';-inkscape-font-specification:'Christmas Bell - Personal Use';stroke-width:0.264583"
           id="path2370" />
        <path
           d="m 39.141278,67.798861 c -0.237067,-0.06773 -0.4064,0.270934 -0.4064,0.270934 -0.3048,0.609599 -0.795866,1.151466 -1.354666,1.507065 0.03387,-0.846666 -0.08467,-1.557865 -0.08467,-1.557865 0,0 -0.372533,-2.777065 -2.218265,-2.777065 0,0 -1.303866,-0.03387 -1.727199,1.608665 -0.4064,0.389467 -0.948266,1.202266 -0.914399,2.743199 0,0 0.118533,3.115731 2.878665,2.980265 1.337732,-0.0508 1.845732,-1.151466 2.015065,-2.252132 1.049866,-0.524933 1.642532,-1.557866 1.845732,-2.015066 0,0 0.2032,-0.423333 -0.03387,-0.508 z m -4.724397,-1.998132 c -0.186267,0.220134 -0.338667,0.4572 -0.4572,0.7112 -0.135467,-0.6604 0.4572,-0.7112 0.4572,-0.7112 z m 0.846666,6.333063 c -0.795867,-0.08467 -1.032933,-1.286932 -1.1176,-2.065865 0.3556,0.287866 0.8128,0.507999 1.456266,0.575733 0.321733,0.01693 0.6096,0.01693 0.8636,-0.03387 -0.389467,1.185333 -1.202266,1.523999 -1.202266,1.523999 z m 1.371599,-2.184399 c -0.338667,0.118534 -0.677333,0.135467 -0.9652,0.06773 -0.914399,-0.2032 -1.049866,-1.625599 -1.049866,-1.625599 -0.135466,-1.896532 0.626533,-2.319865 0.626533,-2.319865 0.999066,-0.03387 1.354666,2.167465 1.354666,2.167465 0.1016,0.677333 0.1016,1.253066 0.03387,1.710265 z"
           style="font-style:normal;font-variant:normal;font-weight:normal;font-stretch:normal;font-size:16.9333px;font-family:'Christmas Bell - Personal Use';-inkscape-font-specification:'Christmas Bell - Personal Use';stroke-width:0.264583"
           id="path2372" />
        <path
           d="m 45.516145,67.849661 c -0.135467,-0.186266 -0.423333,0.03387 -0.423333,0.03387 -0.508,0.372533 -0.982133,0.762 -1.405466,1.134533 -0.01693,-1.507066 -0.135467,-2.793999 -0.254,-3.318932 -0.0508,-0.203199 -0.2032,-0.338666 -0.4064,-0.372533 -0.186266,-0.01693 -0.406399,0 -0.592666,0.1016 -0.1524,0.06773 -0.237066,0.220133 -0.220133,0.389467 0,0.118533 0.01693,0.270933 0.03387,0.457199 -0.3048,1.676399 -1.625599,5.012264 -1.794933,4.927597 -0.186266,-0.08467 -0.406399,-1.066799 -0.355599,-2.455331 0.03387,-1.049866 0.253999,-2.252132 0.372533,-2.793999 0.03387,-0.2032 -0.06773,-0.406399 -0.254,-0.491066 -0.321733,-0.1524 -0.677333,-0.118533 -0.931333,-0.06773 -0.237066,0.0508 -0.4064,0.237066 -0.4572,0.457199 -0.08467,0.5588 -0.253999,1.744133 -0.270933,3.031065 -0.01693,1.710266 0.8636,3.098798 1.896532,2.963332 0.643467,-0.06773 1.388533,-2.099732 1.862666,-3.589865 0,0.694266 0,1.456266 -0.0508,2.218265 -1.371599,1.608666 -1.964266,3.031065 -2.184399,3.657598 -0.08467,0.254 -0.0508,0.541867 0.08467,0.778933 0.423333,0.694266 1.303866,0.982133 1.625599,0.965199 0.08467,0 0.169333,-0.03387 0.254,-0.08467 1.236132,-0.8636 1.608665,-3.589865 1.642532,-6.045196 0.474133,-0.4572 1.032933,-0.931333 1.659466,-1.4224 0,0 0.338666,-0.253999 0.169333,-0.474133 z m -6.451596,-1.676399 c -0.0508,-0.660399 0.491066,-0.541866 0.491066,-0.541866 -0.270933,0.135467 -0.491066,0.541866 -0.491066,0.541866 z m 1.676399,8.703728 c 0,0 -0.08467,-1.371599 1.456266,-3.454397 -0.169334,1.794932 -0.575733,3.335864 -1.456266,3.454397 z"
           style="font-style:normal;font-variant:normal;font-weight:normal;font-stretch:normal;font-size:16.9333px;font-family:'Christmas Bell - Personal Use';-inkscape-font-specification:'Christmas Bell - Personal Use';stroke-width:0.264583"
           id="path2374" />
      </g>
      <path
         d="M 82.12393,119.84605 85.58809,108.677 h 11.04767 l -2.11372,-1.61822 -6.81461,-5.2179 3.41761,-11.144007 -6.94984,5.321301 C 87.48347,90.31277 94.8869,78.870484 107.52347,65.929823 H 93.64679 c 0,0 1.06205,-8.326052 16.16953,-19.644592 H 97.12214 c 0,0 4.00615,-12.28389 20.22378,-27.753379 H 86.72052 V 0.045612 H 76.3192 v 18.48624 H 46.85215 C 67.07591,39.841621 67.07592,46.285231 67.07592,46.285231 H 54.35759 c 14.19042,14.04561 16.16954,19.644592 16.16954,19.644592 H 56.6746 c 9.74236,8.497266 17.7838,18.77404 23.64228,30.27542 l -7.2032,-5.51544 3.44944,11.151077 -8.9578,6.83612 h 11.05444 z m 8e-4,-8.24623 -1.62811,-5.24945 h -5.37394 l 4.35946,-3.32677 -1.63957,-5.299792 c 1.49255,1.141611 3.00027,2.298262 4.28211,3.278692 l 4.28935,-3.284308 -1.62699,5.305408 4.34508,3.32677 h -5.37911 z"
         style="color:#000000;font-style:normal;font-variant:normal;font-weight:normal;font-stretch:normal;font-size:medium;line-height:normal;font-family:sans-serif;font-variant-ligatures:normal;font-variant-position:normal;font-variant-caps:normal;font-variant-numeric:normal;font-variant-alternates:normal;font-variant-east-asian:normal;font-feature-settings:normal;font-variation-settings:normal;text-indent:0;text-align:start;text-decoration:none;text-decoration-line:none;text-decoration-style:solid;text-decoration-color:#000000;letter-spacing:normal;word-spacing:normal;text-transform:none;writing-mode:lr-tb;direction:ltr;text-orientation:mixed;dominant-baseline:auto;baseline-shift:baseline;text-anchor:start;white-space:normal;shape-padding:0;shape-margin:0;inline-size:0;clip-rule:nonzero;display:inline;overflow:visible;visibility:visible;isolation:auto;mix-blend-mode:normal;color-interpolation:sRGB;color-interpolation-filters:linearRGB;solid-color:#000000;solid-opacity:1;vector-effect:none;fill:none;fill-opacity:1;fill-rule:nonzero;stroke:#ff0000;stroke-width:0.0912128;stroke-linecap:butt;stroke-linejoin:miter;stroke-miterlimit:4;stroke-dasharray:none;stroke-dashoffset:0;stroke-opacity:1;color-rendering:auto;image-rendering:auto;shape-rendering:auto;text-rendering:auto;enable-background:accumulate;stop-color:#000000"
         id="path865-4" />
      <g
         aria-label="Hope"
         transform="scale(-1)"
         id="text928"
         style="font-size:16.9333px;line-height:1.25;font-family:'Always In My Heart';-inkscape-font-specification:'Always In My Heart';text-align:center;letter-spacing:0px;word-spacing:0px;text-anchor:middle;stroke-width:0.264583">
        <path
           d="m -93.660242,-51.441929 c -0.01693,1.066798 -0.03387,2.269062 -0.08467,3.64066 0,0 -0.01693,0.491065 0.321733,0.474132 0.270932,0 0.287866,-0.592665 0.287866,-0.592665 0,0 0.0508,-1.523997 0.118533,-3.403594 0.237066,0.03387 0.507999,0.03387 0.812798,0 0.880532,-0.08467 1.676397,-0.152399 2.319862,-0.186266 0.135467,2.285995 0.575732,4.216392 1.69333,4.182525 1.64253,-0.03387 2.336796,-4.436525 2.336796,-4.436525 0,0 0.06773,-0.304799 -0.135467,-0.338666 -0.237066,-0.01693 -0.287866,0.3048 -0.287866,0.3048 -0.914398,3.776126 -1.811863,3.945459 -1.811863,3.945459 -0.355599,-0.03387 -0.423332,-1.69333 -0.372533,-3.623726 0.474133,0.06773 0.745066,0.220132 0.778932,0.524932 0,0 0.1524,0.270933 0.237066,0.01693 0.0508,-0.220133 0.237067,-1.303864 -0.982131,-1.43933 0.1016,-2.607729 0.355599,-5.38479 0.355599,-5.38479 0.0508,-0.778932 -0.541865,-0.948265 -1.303864,-0.965198 -0.152399,0 -0.270933,0.118533 -0.287866,0.270933 -0.08467,0.846665 -0.338666,3.606793 -0.253999,6.163721 -0.829732,0.1016 -1.337731,0.237066 -2.302929,0.287866 -0.220133,0.01693 -0.491066,0.01693 -0.778932,0 0.08467,-2.387595 0.169333,-5.07999 0.1524,-5.825055 0,0 -0.01693,-0.728132 -1.066798,-0.897465 -0.06773,-0.01693 -0.118533,0.06773 -0.1016,0.135466 0.118533,0.389466 0.389466,1.79493 0.355599,6.485454 -0.626532,-0.169333 -1.185331,-0.524932 -1.269997,-1.269997 0,0 0.0508,-0.321733 -0.0508,-0.338666 -0.135466,-0.03387 -0.406399,0.474132 -0.08467,1.236131 0,0 0.3556,0.728132 1.405464,1.032931 z m 4.622791,-7.010386 c -0.237066,0.220133 -0.389466,0.711198 -0.389466,0.711198 -0.08467,-0.829731 0.389466,-0.711198 0.389466,-0.711198 z"
           style="font-style:normal;font-variant:normal;font-weight:normal;font-stretch:normal;font-size:16.9333px;font-family:'Christmas Bell - Personal Use';-inkscape-font-specification:'Christmas Bell - Personal Use';stroke-width:0.264583"
           id="path2377" />
        <path
           d="m -79.849812,-52.102328 c -0.237066,-0.06773 -0.406399,0.270933 -0.406399,0.270933 -0.3048,0.609599 -0.795866,1.151465 -1.354664,1.507064 0.03387,-0.846665 -0.08467,-1.557864 -0.08467,-1.557864 0,0 -0.372533,-2.777061 -2.218262,-2.777061 0,0 -1.303864,-0.03387 -1.727197,1.608664 -0.406399,0.389466 -0.948265,1.202264 -0.914398,2.743194 0,0 0.118533,3.115727 2.878661,2.980261 1.337731,-0.0508 1.84573,-1.151464 2.015063,-2.252129 1.049864,-0.524932 1.64253,-1.557863 1.845729,-2.015063 0,0 0.2032,-0.423332 -0.03387,-0.507999 z m -4.724391,-1.998129 c -0.186266,0.220133 -0.338666,0.457199 -0.457199,0.711199 -0.135466,-0.660399 0.457199,-0.711199 0.457199,-0.711199 z m 0.846665,6.333054 c -0.795865,-0.08467 -1.032931,-1.286931 -1.117598,-2.065862 0.3556,0.287866 0.812799,0.507999 1.456264,0.575732 0.321733,0.01693 0.609599,0.01693 0.863598,-0.03387 -0.389466,1.185331 -1.202264,1.523997 -1.202264,1.523997 z m 1.371597,-2.184395 c -0.338666,0.118533 -0.677332,0.135466 -0.965198,0.06773 -0.914398,-0.2032 -1.049864,-1.625597 -1.049864,-1.625597 -0.135467,-1.89653 0.626532,-2.319862 0.626532,-2.319862 0.999064,-0.03387 1.354664,2.167462 1.354664,2.167462 0.1016,0.677332 0.1016,1.253064 0.03387,1.710264 z"
           style="font-style:normal;font-variant:normal;font-weight:normal;font-stretch:normal;font-size:16.9333px;font-family:'Christmas Bell - Personal Use';-inkscape-font-specification:'Christmas Bell - Personal Use';stroke-width:0.264583"
           id="path2379" />
        <path
           d="m -79.164542,-43.144612 c 0,0 1.38853,0.372533 1.710263,-0.440266 0,0 1.049865,-1.710263 -1.473197,-5.113856 0,-0.220133 0,-0.423333 0,-0.643466 0.406399,1.456264 1.388531,1.490131 1.388531,1.490131 1.845729,0.270933 2.319862,-2.607728 2.319862,-2.607728 0.507999,-2.573862 -0.3556,-4.114792 -1.64253,-4.080926 -0.795866,0.03387 -1.557864,1.69333 -2.031996,2.980261 0.01693,-1.151464 0.06773,-2.065863 0.08467,-2.370662 0.01693,-0.135466 -0.03387,-0.287866 -0.118533,-0.389466 -0.1016,-0.1016 -0.254,-0.2032 -0.541866,-0.220133 -0.694265,-0.03387 -0.761998,0.524932 -0.761998,0.524932 0,0 -0.897465,10.26158 1.066798,10.871179 z m 1.151464,-0.711198 c -0.558799,-0.08467 -0.795865,-1.74413 -0.880531,-3.69146 1.676396,2.726261 0.880531,3.69146 0.880531,3.69146 z m 1.117598,-9.872114 c 0,0 0.626532,0.524932 0.220133,2.98026 0,0 -0.389466,2.082796 -0.846665,2.184396 -0.558799,0.1016 -1.015998,-1.032931 -1.134531,-1.879596 0.440266,-1.371597 1.168397,-3.352794 1.761063,-3.28506 z m -3.115727,0.06773 c -0.08467,-0.728132 0.457199,-0.626532 0.457199,-0.626532 -0.254,0.220133 -0.3048,0.406399 -0.457199,0.626532 z"
           style="font-style:normal;font-variant:normal;font-weight:normal;font-stretch:normal;font-size:16.9333px;font-family:'Christmas Bell - Personal Use';-inkscape-font-specification:'Christmas Bell - Personal Use';stroke-width:0.264583"
           id="path2381" />
        <path
           d="m -71.655153,-47.327137 c 2.844794,-0.03387 3.318926,-4.436525 3.318926,-4.436525 0,0 0.06773,-0.304799 -0.135466,-0.338666 -0.237066,-0.01693 -0.287866,0.3048 -0.287866,0.3048 -0.914398,3.776126 -2.963328,3.928525 -2.963328,3.928525 -0.558798,-0.06773 -0.880531,-0.761998 -0.982131,-1.64253 0.812798,-0.253999 1.981196,-0.914398 2.218262,-2.489195 0.338666,-2.252129 -1.185331,-2.438395 -1.185331,-2.438395 -1.862663,-0.270933 -2.421462,1.84573 -2.421462,1.84573 -0.592665,1.828796 -0.660398,5.384789 2.438396,5.266256 z m -0.660399,-6.790253 c -0.254,0.08467 -0.846665,0.592665 -0.846665,0.592665 0.220133,-0.778932 0.846665,-0.592665 0.846665,-0.592665 z m -0.304799,2.743194 c 0,0 0.457199,-2.421462 0.965198,-2.438395 0,0 0.812798,0.558799 0.507999,1.930396 -0.237067,1.049865 -1.032932,1.557864 -1.591731,1.74413 0,-0.406399 0.03387,-0.829731 0.118534,-1.236131 z"
           style="font-style:normal;font-variant:normal;font-weight:normal;font-stretch:normal;font-size:16.9333px;font-family:'Christmas Bell - Personal Use';-inkscape-font-specification:'Christmas Bell - Personal Use';stroke-width:0.264583"
           id="path2383" />
      </g>
      <path
         id="path865-4-7"
         style="color:#000000;font-style:normal;font-variant:normal;font-weight:normal;font-stretch:normal;font-size:medium;line-height:normal;font-family:sans-serif;font-variant-ligatures:normal;font-variant-position:normal;font-variant-caps:normal;font-variant-numeric:normal;font-variant-alternates:normal;font-variant-east-asian:normal;font-feature-settings:normal;font-variation-settings:normal;text-indent:0;text-align:start;text-decoration:none;text-decoration-line:none;text-decoration-style:solid;text-decoration-color:#000000;letter-spacing:normal;word-spacing:normal;text-transform:none;writing-mode:lr-tb;direction:ltr;text-orientation:mixed;dominant-baseline:auto;baseline-shift:baseline;text-anchor:start;white-space:normal;shape-padding:0;shape-margin:0;inline-size:0;clip-rule:nonzero;display:inline;overflow:visible;visibility:visible;isolation:auto;mix-blend-mode:normal;color-interpolation:sRGB;color-interpolation-filters:linearRGB;solid-color:#000000;solid-opacity:1;vector-effect:none;fill:none;fill-opacity:1;fill-rule:nonzero;stroke:#ff0000;stroke-width:0.0912128;stroke-linecap:butt;stroke-linejoin:miter;stroke-miterlimit:4;stroke-dasharray:none;stroke-dashoffset:0;stroke-opacity:1;color-rendering:auto;image-rendering:auto;shape-rendering:auto;text-rendering:auto;enable-background:accumulate;stop-color:#000000"
         d="m 129.28619,0.04561 -3.46416,11.16905 h -11.04767 l 2.11372,1.61822 6.81461,5.2179 -3.41761,11.14401 6.94984,-5.3213 c -3.30827,5.7054 -10.7117,17.14769 -23.34827,30.08835 h 13.87668 c 0,0 -1.06205,8.32605 -16.16953,19.64459 h 12.69418 c 0,0 -4.00615,12.28389 -20.22378,27.75338 h 30.6254 v 18.48624 h 10.40132 v -18.48624 h 29.46705 C 144.33421,80.05004 144.3342,73.60643 144.3342,73.60643 h 12.71833 C 142.86211,59.56082 140.88299,53.96184 140.88299,53.96184 h 13.85253 C 144.99316,45.46457 136.95172,35.1878 131.09324,23.68642 l 7.2032,5.51544 -3.44944,-11.15108 8.9578,-6.83612 h -11.05444 z m -8e-4,8.24623 1.62811,5.24945 h 5.37394 l -4.35946,3.32678 1.63957,5.29978 c -1.49255,-1.14161 -3.00027,-2.29826 -4.28211,-3.27869 l -4.28935,3.28431 1.62699,-5.3054 -4.34508,-3.32678 h 5.37911 z" />
      <g
         aria-label="Faith"
         id="text928-1"
         style="font-size:16.9333px;line-height:1.25;font-family:'Always In My Heart';-inkscape-font-specification:'Always In My Heart';text-align:center;letter-spacing:0px;word-spacing:0px;text-anchor:middle;stroke-width:0.264583">
        <path
           d="m 116.28318,65.604958 c 0,0 0.1524,0.01693 0.1524,-0.118533 -0.0169,-0.08467 -0.18627,-0.118533 -0.18627,-0.118533 -0.1016,-0.745065 -0.18627,-3.014127 2.31986,-3.268127 -0.11853,0.795865 -0.28786,2.302929 -0.27093,4.030126 -0.4572,0.0508 -0.8636,0.220133 -0.762,0.660398 0.0169,0.03387 0.0508,0.0508 0.0677,0.01693 0.0677,-0.06773 0.254,-0.169333 0.7112,-0.2032 0.0508,2.048929 0.16934,4.080925 0.33867,5.07999 0.0847,0.491066 0.508,0.863598 1.016,0.880532 0.13546,0.01693 0.27093,0 0.44026,-0.01693 0.0677,-0.01693 0.11854,-0.08467 0.1016,-0.152399 -0.1016,-0.338666 -0.32173,-1.507064 -0.3048,-4.487325 0,-0.372532 0.0169,-0.761998 0.0169,-1.202264 0.96519,0.08467 1.49013,0.01693 1.43933,-0.694265 0,0 -0.0169,-0.2032 -0.11854,-0.4572 0,0 -0.0508,-0.118533 -0.1524,-0.0508 -0.0508,0.03387 -0.0169,0.203199 -0.0169,0.203199 -0.0677,0.2032 -0.254,0.491066 -1.13453,0.491066 0.0677,-1.727197 0.23707,-3.200394 0.33867,-4.030126 0.50799,0.0508 0.79586,0.135467 1.47319,0.186267 1.25307,0.1016 1.10067,-0.829732 1.016,-1.100665 0,0 -0.0169,-0.118533 -0.1016,-0.06773 -0.0508,0.01693 -0.0508,0.135466 -0.0508,0.135466 -0.3048,0.270933 -1.4224,0.287867 -2.25213,0.270933 0,-0.03387 0.0169,-0.06773 0.0169,-0.08467 0.0169,-0.06773 -0.0169,-0.1524 -0.0847,-0.2032 -0.0677,-0.0508 -0.2032,-0.118533 -0.44027,-0.135466 -0.38946,-0.0508 -0.762,0.08467 -0.98213,0.186266 -0.0677,0.0508 -0.13546,0.1016 -0.18626,0.169333 -1.3208,0 -3.8608,0.389466 -3.42053,3.268127 0,0 0.18627,0.863598 1.016,0.812798 z m 2.99719,-4.148658 c 0,0 -0.22013,0.1524 -0.4064,0.406399 0,0 -0.0847,-0.423332 0.4064,-0.406399 z"
           style="font-style:normal;font-variant:normal;font-weight:normal;font-stretch:normal;font-size:16.9333px;font-family:'Christmas Bell - Personal Use';-inkscape-font-specification:'Christmas Bell - Personal Use';stroke-width:0.264583"
           id="path2386" />
        <path
           d="m 127.39645,72.564545 c 1.64253,0.08467 2.33679,-4.436525 2.33679,-4.436525 0,0 0.0677,-0.304799 -0.1524,-0.338666 -0.22013,-0.01693 -0.27093,0.304799 -0.27093,0.304799 -0.93133,3.776126 -1.81186,3.945459 -1.81186,3.945459 -0.77893,-0.08467 -0.22013,-4.809057 -0.0677,-6.011321 0.0339,-0.287866 -0.1016,-0.575732 -0.3556,-0.694265 -0.28787,-0.1524 -0.6096,-0.1016 -0.84667,-0.03387 -0.22013,0.06773 -0.38946,0.270933 -0.42333,0.491066 0,0.118533 -0.0169,0.253999 -0.0339,0.423332 -0.23706,-0.355599 -0.57573,-0.660399 -1.0668,-0.728132 -1.86266,-0.270933 -2.38759,1.811863 -2.38759,1.811863 -0.62653,2.404529 -0.0847,5.18159 1.33773,5.266257 0.9144,0.06773 1.64253,-1.574797 2.06586,-2.793995 0.13547,1.456264 0.59267,2.743195 1.6764,2.793995 z m -3.50519,-6.654787 c -0.18627,0.0508 -0.7112,0.541865 -0.7112,0.541865 0.0339,-0.643465 0.7112,-0.541865 0.7112,-0.541865 z m -0.13547,6.028255 c 0,0 -0.38947,-0.745066 0.0169,-3.420527 0,0 0.44027,-2.387595 0.94827,-2.404529 0.44026,-0.01693 0.762,1.066798 0.88053,1.964263 -0.22013,0.795865 -1.10067,3.793059 -1.84573,3.860793 z"
           style="font-style:normal;font-variant:normal;font-weight:normal;font-stretch:normal;font-size:16.9333px;font-family:'Christmas Bell - Personal Use';-inkscape-font-specification:'Christmas Bell - Personal Use';stroke-width:0.264583"
           id="path2388" />
        <path
           d="m 133.16859,67.789354 c -0.23707,-0.01693 -0.28787,0.304799 -0.28787,0.304799 -0.93133,3.776126 -1.81186,3.945459 -1.81186,3.945459 -0.762,-0.08467 -0.23707,-4.470391 -0.0847,-5.655722 0.0339,-0.287866 -0.1016,-0.575732 -0.37253,-0.711198 -0.27093,-0.135467 -0.59267,-0.08467 -0.84667,-0.01693 -0.22013,0.06773 -0.37253,0.254 -0.40639,0.491066 -0.16934,1.388531 -0.62654,6.316121 1.60866,6.417721 1.64253,0.08467 2.33679,-4.436525 2.33679,-4.436525 0,0 0.0677,-0.304799 -0.13546,-0.338666 z m -3.6068,-1.134531 c -0.0339,-0.897465 0.4572,-0.745065 0.4572,-0.745065 -0.33866,0.287866 -0.4572,0.745065 -0.4572,0.745065 z m 0.2032,-2.878661 c -0.25399,1.100664 0.4064,1.337731 0.4064,1.337731 0.13547,0.06773 0.5588,0.08467 0.79587,-0.558799 0.23707,-0.643466 0.0847,-1.354664 -0.47413,-1.422397 -0.5588,-0.0508 -0.72814,0.643465 -0.72814,0.643465 z m 0.28787,0.08467 c 0,0 -0.1016,-0.558798 0.42333,-0.491065 0,0 -0.32173,0.220133 -0.42333,0.491065 z"
           style="font-style:normal;font-variant:normal;font-weight:normal;font-stretch:normal;font-size:16.9333px;font-family:'Christmas Bell - Personal Use';-inkscape-font-specification:'Christmas Bell - Personal Use';stroke-width:0.264583"
           id="path2390" />
        <path
           d="m 134.42218,72.564545 c 1.6256,-0.135467 2.47226,-4.368792 2.47226,-4.368792 0,0 0.1016,-0.389466 -0.16933,-0.406399 -0.23707,0 -0.3048,0.338666 -0.3048,0.338666 -0.9144,3.776126 -1.91346,3.911592 -1.91346,3.911592 -0.6096,-0.06773 -0.4572,-5.249323 -0.3048,-8.297317 0.72813,-0.06773 1.4732,-0.118533 2.21826,0 0.22013,0.03387 0.13547,-0.270932 0.13547,-0.270932 -0.0169,-0.135467 -0.1016,-0.254 -0.2032,-0.270933 -0.7112,-0.118533 -1.4224,-0.06773 -2.1336,0 0.0508,-0.677332 0.0847,-1.202265 0.1016,-1.456264 0,-0.118533 -0.0339,-0.237066 -0.11853,-0.304799 -0.254,-0.254 -0.64347,-0.338666 -0.98213,-0.237067 -0.254,0.08467 -0.4064,0.3048 -0.42334,0.558799 -0.0339,0.372533 -0.0677,0.931332 -0.1016,1.59173 -0.45719,0.01693 -0.91439,0 -1.37159,-0.06773 -0.2032,-0.03387 -0.13547,0.270933 -0.13547,0.270933 0,0.135466 0.1016,0.254 0.18627,0.270933 0.42333,0.06773 0.8636,0.06773 1.28693,0.0508 -0.16934,3.403593 -0.2032,8.856116 1.76106,8.686783 z m -1.3716,-10.600246 c -0.11853,-0.575732 0.38947,-0.541866 0.38947,-0.541866 -0.1524,0.08467 -0.38947,0.541866 -0.38947,0.541866 z"
           style="font-style:normal;font-variant:normal;font-weight:normal;font-stretch:normal;font-size:16.9333px;font-family:'Christmas Bell - Personal Use';-inkscape-font-specification:'Christmas Bell - Personal Use';stroke-width:0.264583"
           id="path2392" />
        <path
           d="m 144.05458,68.12802 c 0,0 0.0677,-0.304799 -0.13546,-0.338666 -0.23707,-0.01693 -0.28787,0.304799 -0.28787,0.304799 -0.93133,3.776126 -1.81186,3.945459 -1.81186,3.945459 -0.4572,-0.0508 -0.33867,-1.777996 -0.27094,-3.352793 0,0 0.3556,-3.28506 -1.45626,-3.301994 -1.0668,0 -1.79493,2.641595 -2.18439,4.504258 -0.0508,-0.745065 -0.0677,-1.507063 -0.0508,-2.252129 0.77893,-1.168397 1.40546,-2.455328 1.67639,-3.826925 0.13547,-0.626533 0.23707,-1.337731 0.11853,-1.981197 -0.10159,-0.626532 -0.98213,-0.728131 -1.52399,-0.626532 -0.64347,0.1016 -0.94827,1.015998 -1.13453,1.540931 -0.62654,1.862663 -0.69427,3.911592 -0.62654,5.841988 0.0339,1.185331 0.11854,2.421462 0.33867,3.53906 0.0677,0.338666 0.44027,0.507999 0.79587,0.457199 0.2032,-0.03387 0.38946,-0.135466 0.50799,-0.287866 0.0677,-0.1016 0.1016,-0.2032 0.1016,-0.321733 h 0.0169 c 0.27093,-3.115727 1.72719,-5.706522 1.72719,-5.706522 0.18627,-0.1016 0.11854,2.438395 0.11854,2.438395 -0.0847,2.235196 0.38946,3.793059 1.74413,3.860793 1.64253,0.08467 2.33679,-4.436525 2.33679,-4.436525 z m -4.87679,-6.129855 c 0.3556,0.287867 -0.44026,2.709328 -1.28693,4.368792 0.0677,-0.982132 0.2032,-1.964263 0.42333,-2.929461 0.27094,-1.100665 0.762,-1.523997 0.8636,-1.439331 z m -0.7112,-0.507999 c -0.18626,0 -0.72813,0.4572 -0.72813,0.4572 0.11854,-0.660399 0.72813,-0.4572 0.72813,-0.4572 z"
           style="font-style:normal;font-variant:normal;font-weight:normal;font-stretch:normal;font-size:16.9333px;font-family:'Christmas Bell - Personal Use';-inkscape-font-specification:'Christmas Bell - Personal Use';stroke-width:0.264583"
           id="path2394" />
      </g>
    </g>
  </g>
</svg>
