<?xml version="1.0" encoding="UTF-8" standalone="no"?>
<!-- Created with Inkscape (http://www.inkscape.org/) -->

<svg
   xmlns:dc="http://purl.org/dc/elements/1.1/"
   xmlns:cc="http://creativecommons.org/ns#"
   xmlns:rdf="http://www.w3.org/1999/02/22-rdf-syntax-ns#"
   xmlns:svg="http://www.w3.org/2000/svg"
   xmlns="http://www.w3.org/2000/svg"
   xmlns:sodipodi="http://sodipodi.sourceforge.net/DTD/sodipodi-0.dtd"
   xmlns:inkscape="http://www.inkscape.org/namespaces/inkscape"
   width="400mm"
   height="400mm"
   viewBox="0 0 400 400"
   version="1.1"
   id="svg8"
   inkscape:version="0.92.2 (5c3e80d, 2017-08-06)"
   sodipodi:docname="Bauble Tree.svg">
  <defs
     id="defs2" />
  <sodipodi:namedview
     id="base"
     pagecolor="#ffffff"
     bordercolor="#666666"
     borderopacity="1.0"
     inkscape:pageopacity="0.0"
     inkscape:pageshadow="2"
     inkscape:zoom="3.959798"
     inkscape:cx="651.67583"
     inkscape:cy="201.11888"
     inkscape:document-units="mm"
     inkscape:current-layer="layer1"
     showgrid="false"
     inkscape:window-width="1920"
     inkscape:window-height="1017"
     inkscape:window-x="-8"
     inkscape:window-y="-8"
     inkscape:window-maximized="1" />
  <metadata
     id="metadata5">
    <rdf:RDF>
      <cc:Work
         rdf:about="">
        <dc:format>image/svg+xml</dc:format>
        <dc:type
           rdf:resource="http://purl.org/dc/dcmitype/StillImage" />
        <dc:title></dc:title>
      </cc:Work>
    </rdf:RDF>
  </metadata>
  <g
     inkscape:label="Layer 1"
     inkscape:groupmode="layer"
     id="layer1"
     transform="translate(0,103)">
    <g
       id="g1346">
      <g
         style="stroke-width:0.3;stroke-miterlimit:4;stroke-dasharray:none"
         id="g1153"
         transform="translate(133.06134,-116.18989)">
        <path
           sodipodi:type="star"
           style="fill:none;stroke:#ff0000;stroke-width:0.16853738;stroke-miterlimit:4;stroke-dasharray:none"
           id="path1147"
           sodipodi:sides="4"
           sodipodi:cx="55.057522"
           sodipodi:cy="96.815125"
           sodipodi:r1="40.556335"
           sodipodi:r2="28.677658"
           sodipodi:arg1="0.78539816"
           sodipodi:arg2="1.5707963"
           inkscape:flatsided="true"
           inkscape:rounded="0.06"
           inkscape:randomized="0"
           d="m 83.735182,125.49278 c -2.43338,2.43338 -54.92194,2.43338 -57.35532,0 -2.43338,-2.43338 -2.43338,-54.921935 0,-57.355315 2.43338,-2.43338 54.921939,-2.433381 57.35532,0 2.43338,2.43338 2.43338,54.921935 0,57.355315 z"
           transform="matrix(1.7790526,0,0,1.780989,-18.799574,-99.738167)" />
        <rect
           style="fill:none;stroke:#ff0000;stroke-width:0.3;stroke-miterlimit:4;stroke-dasharray:none"
           id="rect1149"
           width="28.70241"
           height="2.9024093"
           x="64.799446"
           y="71.237297" />
      </g>
      <path
         sodipodi:nodetypes="cscsccccccscsscccccccccscsccssccccccccccsccccssscccccccccsccccscccscccccccccscccccccccccccscccscccsccccccccsccsccsccccsssccccc"
         id="path39"
         d="m 44.544997,-101.2919 c -0.319125,0.18035 -1.146096,6.148709 -1.837775,13.263265 -0.691679,7.114557 -1.406204,13.346306 -1.587582,13.848352 -0.181375,0.502045 -5.416328,3.874469 -11.632953,7.494436 -6.216624,3.619971 -11.629604,6.881117 -12.029161,7.246705 -0.461102,0.421903 4.064869,2.731748 12.390704,6.323987 l 13.117423,5.659756 2.653152,11.729415 c 1.459406,6.451138 2.814619,12.577585 3.011432,13.614182 0.23899,1.258674 0.62665,1.777354 1.166589,1.562381 0.444672,-0.177044 3.727596,-3.640016 7.29546,-7.695895 3.567859,-4.055866 6.641809,-7.436203 6.831004,-7.51153 0.413299,-0.164552 -0.566523,13.264086 -1.465721,20.088977 -2.086348,15.83533011 -11.360708,25.812213 -27.297016,29.365129 -8.407019,1.874292 -8.4659,1.902332 -8.57081,4.058185 -0.07429,1.526843 0.48575,2.359037 3.422838,5.087662 7.250156,6.735549 12.945099,8.891391 20.745486,7.853351 2.479286,-0.32995 4.665176,-0.376811 4.857703,-0.104112 0.192491,0.272712 -0.780936,1.795154 -2.163287,3.383186 -2.126042,2.442389 -3.35037,3.219521 -7.946902,5.035682 -2.988409,1.181473 -6.456717,2.272889 -7.707334,2.42564 -1.837389,0.224444 -2.27077,0.513884 -2.258356,1.507097 0.0236,1.887787 3.931405,5.242688 7.767047,6.668089 4.179308,1.553141 13.868534,2.164333 20.55053,1.296417 2.698522,-0.35051 5.227474,-0.524273 5.620182,-0.386552 1.889253,0.662459 -3.41177,7.331991 -10.135746,12.752513 -5.072486,4.089169 -15.493684,10.694132 -19.128858,12.121953 -1.647444,0.647519 -6.626123,1.972021 -11.063815,2.943255 -9.484956,2.075896 -11.173701,3.201199 -10.142655,6.758692 1.325821,4.574583 12.265484,13.271511 19.354083,15.386742 4.916098,1.46696 13.551423,2.37657 20.497426,2.15911 4.465683,-0.1398 4.554195,-0.10461 3.936604,1.55694 -1.523289,4.09819 -9.615694,10.97162 -15.901128,13.50502 -1.428942,0.57596 -5.019444,1.35981 -7.978862,1.74225 -2.959447,0.38237 -5.741055,1.02802 -6.181408,1.43432 -1.298006,1.19791 0.545976,4.60993 3.740893,6.92169 1.606912,1.16273 4.983292,2.87372 7.503233,3.80237 4.867473,1.79381 18.351315,3.30173 25.088212,2.80538 2.196185,-0.16182 4.019938,0.0468 4.052643,0.46393 0.08775,1.11913 -8.031727,7.81315 -14.053111,11.58617 -8.91648,5.58704 -25.473815,12.35291 -37.744599,15.42381 -16.6022427,4.15491 -19.0584354,5.58411 -17.2658122,10.04528 1.77451,4.41634 11.8099522,11.69782 21.5019152,15.60118 11.277787,4.54208 20.105799,4.90606 35.036445,1.44542 6.707463,-1.55467 8.341304,-1.49339 7.76268,0.28948 -0.603658,1.86004 -5.508546,7.21281 -9.699014,10.58459 -8.593307,6.91443 -19.320776,11.48581 -31.59315,13.46301 -6.713964,1.08168 -7.862416,1.72828 -7.526762,4.23708 0.439792,3.28715 4.456342,6.56262 12.05087,9.82776 8.707472,3.74359 17.168977,5.70301 25.65023,5.93949 7.642255,0.21304 13.944546,1.69648 14.641364,3.44664 0.740731,1.86046 -2.279851,4.84882 -10.577245,10.46314 -3.992428,2.70144 -8.04013,5.67014 -8.994508,6.59693 -4.003832,3.88811 -0.712667,6.01064 9.098828,5.86809 12.035997,-0.1749 14.54291,-0.61011 23.158528,-4.0265 9.523243,-3.77539 12.803897,-6.20592 23.019619,-17.05339 5.58932,-5.93499 7.01325,-7.1269 8.56927,-7.17461 2.89599,-0.0888 2.98409,2.13461 0.44938,11.32976 -1.71528,6.2225 -2.06198,8.63695 -1.41361,9.83997 0.84312,1.5645 0.94932,1.55821 5.62641,-0.31784 8.12403,-3.25788 11.85759,-6.85992 24.23261,-23.37939 5.3862,-7.19001 8.19578,-9.9058 10.00193,-9.6673 1.19705,0.1581 1.70405,1.77298 7.28445,15.12895 8.39791,20.0993 6.60804,19.10286 10.53992,17.70352 v 0 c 2.19638,-0.99405 18.97662,-7.40011 21.47294,-8.49761 3.85173,-1.60699 3.83251,-0.32667 -4.79972,-20.46951 -8.16741,-19.0582 -8.00416,-18.53815 6.72497,-14.58554 13.06246,3.50533 24.30844,3.70138 32.75004,0.57137 6.78826,-2.51705 6.2793,-5.62832 -1.99718,-12.2025 -2.96483,-2.35504 -5.50341,-4.56458 -5.64106,-4.91033 -0.52529,-1.31934 3.18715,-1.85935 13.04268,-1.89727 19.24357,-0.0741 30.97565,-4.23477 43.51704,-15.43213 6.40914,-5.7223 8.85666,-9.07083 8.07149,-11.04292 -0.81019,-2.03492 -2.79647,-2.08056 -13.76279,-0.31511 -10.7971,1.73823 -14.65372,1.62796 -15.15363,-0.43324 -0.47257,-1.94843 3.40728,-7.69565 8.7278,-12.92894 12.75951,-12.55032 21.47806,-34.94081 14.73558,-37.84323 -1.7026,-0.73293 -0.9587,-1.05913 -7.06249,3.09946 -6.91734,4.71284 -14.1155,8.08546 -21.43073,10.06212 -3.58213,26.74729 -21.30885,49.48454 -46.37455,59.48252 -38.33834,15.26406 -81.79169,-3.44121 -97.05595,-41.77947 -15.2644,-38.33842 3.44083,-81.792088 41.77927,-97.056429 11.74654,-4.670349 24.48598,-6.284127 37.02604,-4.690302 0.67265,-1.148529 1.24691,-2.260535 1.70669,-3.315978 2.88262,-6.617051 3.87562,-15.963071 2.16615,-20.394546 -1.71293,-4.440655 -3.19201,-4.285922 -12.422,1.29919 -10.69657,6.472518 -21.45787,9.423047 -35.87181,9.835748 -5.89357,0.168775 -12.3391,-1.077695 -11.83426,-2.288804 0.12601,-0.302283 2.11352,-1.976368 4.41661,-3.719665 9.4066,-7.120234 16.35876,-17.458303 15.45252,-22.97899339 -0.5314,-3.23723451 -1.66876,-3.50604871 -4.78136,-1.13049311 -3.81661,2.9128434 -10.75071,5.0019235 -15.17528,4.5724199 -2.02832,-0.1968902 -3.82711,-0.6080896 -3.99751,-0.9136133 -0.17034,-0.3055802 1.24022,-1.62066449 3.13425,-2.92265099 4.59107,-3.15597011 7.39756,-6.90749921 8.87675,-11.86468811 2.16523,-7.256079 2.08022,-13.52542 -0.20319,-14.956972 -1.32246,-0.829112 -1.55113,-0.742646 -7.92091,3.00404 -5.22223,3.071728 -7.46166,4.060775 -10.98933,4.851458 -13.78525,3.089801 -20.905118,0.613423 -35.795053,-12.449595 -5.03129,-4.413988 -8.969558,-8.096584 -8.751868,-8.183256 0.2177,-0.08668 4.796716,0.246678 10.175943,0.740315 9.447331,0.866969 11.446647,0.840274 11.05339,-0.147451 -0.101717,-0.255479 -3.294081,-5.64707 -7.094203,-11.981416 l -6.909357,-11.517152 5.671991,-13.20684 c 5.195366,-12.096903 5.530166,-13.185195 3.984977,-12.953994 -0.927787,0.138818 -7.302713,1.530887 -14.166662,3.093455 -6.863931,1.56256 -12.667516,2.631315 -12.897006,2.374917 -2.206837,-2.465442 -20.287748,-17.595034 -20.729135,-17.345584 z m 4.671175,12.830443 c 1.218091,-0.508166 12.926718,12.086955 14.210865,12.391816 1.284149,0.304864 17.404727,-5.683013 18.264432,-4.68157 0.859704,1.001439 -7.500417,16.029191 -7.393533,17.344697 0.106884,1.315504 10.783411,14.796696 10.096649,15.923786 -0.686766,1.127089 -17.562609,-2.180508 -18.7807,-1.672342 -1.218095,0.508158 -10.74016,14.828283 -12.024307,14.523422 -1.28415,-0.30486 -3.353684,-17.376528 -4.213389,-18.37797 -0.859707,-1.001441 -17.420854,-5.632486 -17.527737,-6.94799 -0.106884,-1.315506 15.489317,-8.5594 16.176082,-9.686491 0.686765,-1.127091 -0.02645,-18.309192 1.191638,-18.817358 z M 147.64881,38.941754 c 1.2656,-0.503937 2.70008,0.113562 3.20394,1.379192 0.50394,1.265597 -0.11356,2.700083 -1.37919,3.20394 -1.2656,0.503937 -2.70008,-0.113563 -3.20394,-1.379194 -0.50394,-1.265596 0.11356,-2.700081 1.37919,-3.203938 z"
         style="fill:none;stroke:#ff0000;stroke-width:0.30000001;stroke-miterlimit:4;stroke-dasharray:none"
         inkscape:connector-curvature="0" />
      <path
         inkscape:connector-curvature="0"
         id="path1137"
         d="m 197.16555,185.3734 c -30.62388,9.1711 -62.9176,-4.94523 -77.06816,-33.68831 -14.50311,-29.45915 -4.40553,-64.915473 23.66433,-83.094245 l 2.22344,-1.439978 -0.31198,-2.423838 c -0.42332,-3.288754 1.09833,-6.955857 3.83174,-9.234271 1.7245,-1.437426 2.40298,-1.753702 4.47322,-2.085128 4.51315,-0.722508 8.31789,0.903149 10.50658,4.489162 l 1.06114,1.738608 4.54564,-0.532413 c 14.69951,-1.721735 28.3077,1.016765 40.67493,8.185337 12.86076,7.454675 22.24578,18.326434 27.72157,32.113174 4.9174,12.379492 5.96171,25.701402 3.03611,38.712612 -1.28986,5.73648 -6.0722,16.65417 -9.39659,21.45163 -8.5575,12.34948 -21.2104,21.68939 -34.96197,25.80766 z m 13.97202,-11.77558 c 1.62875,-1.10195 3.07777,-2.27391 3.22001,-2.60435 0.41546,-0.96514 -1.00078,-3.9873 -2.08779,-4.45524 -0.53887,-0.23196 -1.69051,-0.29958 -2.5592,-0.15026 l -1.57948,0.27146 1.20554,-1.38648 c 2.3977,-2.75757 2.56391,-4.44928 0.55611,-5.66037 -0.84495,-0.50966 -1.01809,-0.44152 -3.71664,1.46264 -2.67591,1.88803 -2.76955,2.01603 -1.71502,2.34426 4.47,1.39133 4.86483,7.0984 0.60833,8.7931 -3.35659,1.33641 -7.1063,-1.58467 -6.21057,-4.83813 0.42767,-1.55342 0.22271,-1.81665 -1.02712,-1.31904 -1.6853,0.671 -1.41499,1.62719 1.65877,5.86759 0.27457,0.37879 0.14077,0.64571 -0.38018,0.75836 -0.44216,0.0955 -1.12986,0.5605 -1.52831,1.03302 -0.61062,0.72422 -0.57969,1.10205 0.19691,2.40507 l 0.92132,1.54588 -1.75047,0.43871 c -1.18066,0.29585 -2.13135,0.88335 -2.92046,1.80445 l -1.16998,1.36572 1.21872,-0.0921 c 2.02821,-0.15328 13.8334,-5.40156 17.05956,-7.58415 z m -19.35255,6.34329 c 0.0404,-2.11124 -0.80428,-3.15132 -2.53393,-3.1202 -1.65562,0.0298 -2.07502,-0.49729 -0.79972,-1.00505 0.48862,-0.19454 1.3635,-0.90129 1.94416,-1.57053 0.94174,-1.08543 0.96621,-1.36629 0.22647,-2.60096 -0.7686,-1.28286 -0.74495,-1.42029 0.32333,-1.87831 0.63393,-0.27178 1.48119,-0.80401 1.88279,-1.18268 0.53418,-0.50365 -0.0433,-0.48125 -2.15128,0.0834 l -2.88149,0.7719 -1.16928,2.64767 c -0.64309,1.45621 -1.25938,3.72574 -1.36953,5.04338 l -0.20027,2.39573 -1.58823,-0.54661 c -2.16935,-0.74659 -3.55723,-0.0981 -4.0433,1.88931 -0.21735,0.88868 -0.31643,1.8136 -0.22017,2.05536 0.28789,0.72307 8.58161,0.0246 11.31981,-0.95331 0.98224,-0.35082 1.23637,-0.75986 1.26064,-2.02914 z m 27.11535,-12.35408 c 2.39606,-2.22685 2.5781,-3.20122 0.3325,-1.7797 -1.75549,1.11128 -4.10746,4.40998 -2.76249,3.87449 0.1694,-0.0674 1.26288,-1.01009 2.42999,-2.09479 z m -23.98196,4.90077 c 0.27738,-2.25796 0.2487,-3.33065 -0.0737,-2.75718 -0.64444,1.14627 -1.3893,6.07566 -1.0495,6.94546 0.36112,0.92321 0.60902,-0.002 1.12322,-4.18828 z m -18.50373,9.83023 c -1.85663,-0.87518 -3.58663,-1.05056 -5.84727,-0.59282 -2.66473,0.53959 -1.84753,1.03501 2.31673,1.40448 4.57903,0.40627 5.61101,0.16901 3.53054,-0.81166 z m 28.47147,-11.827 c -0.16071,-0.40365 -0.54365,-0.50736 -0.93832,-0.25411 -1.00346,0.64384 -0.74951,1.71616 0.30683,1.29558 0.53241,-0.21197 0.79157,-0.6394 0.63149,-1.04147 z m 19.01017,-8.10497 c 3.31889,-3.75941 6.53944,-8.96335 9.15694,-14.79629 1.42686,-3.17964 2.49516,-6.03013 2.37402,-6.33441 -0.29724,-0.74656 -3.02895,-1.51651 -4.00363,-1.12845 -0.43112,0.17165 -0.91507,0.86723 -1.07545,1.54568 l -0.29157,1.23359 -1.97393,-1.08482 c -1.08565,-0.59665 -2.14591,-1.01636 -2.35611,-0.93267 -0.21021,0.0837 -0.68286,0.85063 -1.05032,1.70431 l -0.66815,1.55214 1.82761,0.78671 c 3.42062,1.47248 3.9149,5.98048 0.86726,7.90971 -3.01368,1.90775 -6.45876,0.47711 -7.23893,-3.00609 l -0.39724,-1.77362 -1.66799,2.23892 c -1.61675,2.17015 -1.64005,2.28348 -0.75827,3.69035 0.50041,0.79827 1.72245,2.1167 2.7158,2.92978 2.17679,1.78176 2.1455,1.71885 1.0683,2.14774 -0.47681,0.18983 -1.09958,0.88567 -1.38397,1.54631 -0.4287,0.9959 -0.35936,1.37313 0.4057,2.20726 0.9116,0.99393 2.12076,1.81743 2.46646,1.67979 0.098,-0.039 0.99049,-0.99116 1.98347,-2.11594 z m -8.71209,-1.91209 c -0.29884,-2.60321 -0.66953,-4.78742 -0.82372,-4.85379 -0.39768,-0.17119 -0.23482,5.27909 0.22806,7.6323 0.21321,1.08398 0.53264,2.03329 0.7099,2.10954 0.47376,0.20394 0.47462,0.24067 -0.11417,-4.88808 z m -45.22263,19.11749 c 1.87309,-2.11575 2.1404,-3.88741 0.7952,-5.27024 -0.57984,-0.59607 -1.20974,-1.02185 -1.39976,-0.94619 -0.19004,0.0757 -0.49879,1.00613 -0.68613,2.06771 l -0.34061,1.93014 -1.89353,-1.04063 c -2.3726,-1.30392 -3.29359,-0.94594 -4.38961,1.70615 -0.85236,2.06253 -1.41296,2.38633 -1.92123,1.10974 -0.71491,-1.79562 -6.31992,-3.54886 -8.58591,-2.68568 -0.93547,0.35727 5.92483,3.25734 11.06469,4.6785 4.76627,1.31782 4.83027,1.30436 7.35686,-1.54957 z m 9.31477,-4.37032 c 4.6105,-3.32735 5.95755,-5.00994 2.34759,-2.93236 -2.58025,1.48499 -7.76753,5.71592 -7.89525,6.43967 -0.0568,0.32159 0.13348,0.40446 0.43138,0.18789 0.29308,-0.21313 2.59543,-1.87593 5.11628,-3.6952 z m 24.55581,-14.9111 c 3.38521,-2.23584 8.76432,-7.02934 8.53485,-7.60569 -0.18555,-0.46604 -2.30524,0.83129 -3.98599,2.43971 -1.54717,1.48054 -1.48873,1.46708 -1.8989,0.43689 -0.45472,-1.1421 -2.71146,-2.09053 -3.41949,-1.4371 -0.30614,0.28245 -0.97917,0.81842 -1.49565,1.19092 -0.89078,0.64242 -0.98022,0.57398 -1.73825,-1.32992 -0.69659,-1.74958 -1.12792,-2.16486 -3.36087,-3.23574 -1.94188,-0.93127 -2.87682,-1.10308 -3.86404,-0.71003 -0.92686,0.36903 -1.88892,0.24538 -3.3371,-0.42891 -2.35993,-1.09879 -2.67124,-1.04668 -3.26491,0.54668 -0.85163,2.28566 -5.1836,2.74612 -6.0221,0.64011 -0.14237,-0.35759 -0.62509,-0.50437 -1.07268,-0.32616 -0.4476,0.17821 -0.94015,0.71329 -1.09455,1.18903 -0.1544,0.47575 -0.92537,1.12166 -1.71326,1.43536 -1.62871,0.64846 -3.87245,-0.3298 -4.52697,-1.97375 -0.49874,-1.25266 -2.65226,-1.69591 -4.55634,-0.93781 -3.08664,1.22893 -6.16635,-1.02403 -7.24457,-5.2998 -0.80986,-3.21159 -0.45352,-7.27412 0.87496,-9.97458 0.92739,-1.88521 1.40089,-2.36173 2.75613,-2.77386 1.22311,-0.37196 1.91258,-0.27312 2.73015,0.3913 2.2111,1.79692 1.47335,7.38848 -1.42847,10.82676 -1.08814,1.28931 -1.14571,1.60094 -0.48449,2.623 1.65127,2.55239 3.32322,2.29271 5.50533,-0.85509 1.74294,-2.51426 2.89007,-6.50865 3.24545,-11.30087 0.34041,-4.59039 1.51377,-7.78508 3.79729,-10.33885 3.45684,-3.86597 8.17305,-4.3678 9.50921,-1.01184 0.55359,1.39043 -1.22662,1.71922 -1.95692,0.36145 -0.51192,-0.95163 -0.85407,-1.06688 -2.09589,-0.70561 -3.75691,1.09293 -6.43634,8.03474 -5.4624,14.15186 0.35184,2.2098 0.95376,3.11814 1.83406,2.76765 0.83683,-0.33318 2.79621,-6.91899 3.00374,-10.09609 0.0968,-1.48128 0.50839,-3.08757 0.91474,-3.56952 0.62681,-0.74342 0.91693,-0.77635 1.91362,-0.21722 1.34236,0.75304 1.46368,1.00506 2.43686,5.06276 1.03339,4.30869 1.66701,4.27995 3.36293,-0.15246 1.40005,-3.65906 1.59425,-4.74618 1.77704,-9.94729 0.13237,-3.76603 1.26115,-6.75831 3.23413,-8.57331 1.91762,-1.76407 3.60515,-2.11482 5.10652,-1.06132 1.26808,0.88978 1.54605,3.21043 0.43742,3.65183 -0.5503,0.2191 -0.65317,0.0658 -0.55271,-0.8235 0.33134,-2.93312 -2.10893,-2.43266 -3.67657,0.75401 -2.44592,4.97198 -0.41356,13.53802 3.15136,13.28242 3.42538,-0.24559 8.31388,-10.65962 7.75045,-16.51094 -0.33619,-3.49153 0.53853,-7.24729 2.10207,-9.02552 0.71587,-0.81416 1.35412,-1.53978 1.41835,-1.6125 0.0643,-0.0726 -0.49655,-1.092271 -1.24615,-2.265714 -0.74958,-1.173427 -1.95646,-3.247052 -2.68193,-4.608032 -1.21909,-2.287096 -1.34075,-2.390812 -1.60605,-1.369204 -0.15787,0.60796 -0.0342,1.449838 0.27474,1.870864 0.93231,1.270425 0.91015,2.912873 -0.054,4.005208 -2.511,2.844798 -6.61443,0.421529 -5.24503,-3.097434 0.43284,-1.11224 0.8605,-1.449594 2.29271,-1.808553 1.55221,-0.389034 1.80737,-0.63252 2.15561,-2.056141 0.36922,-1.509612 -0.45206,-4.209607 -1.11133,-3.653574 -0.15504,0.130831 -0.81783,0.452592 -1.47283,0.715079 -0.86819,0.347814 -1.25099,0.908687 -1.41263,2.068901 -0.26521,1.903564 -1.81702,2.73406 -3.64134,1.948763 -1.60443,-0.690645 -1.83537,-0.547084 -2.36756,1.471954 -0.39657,1.504411 -0.67909,1.785362 -2.31599,2.303016 -1.60761,0.508347 -2.03057,0.432513 -3.07162,-0.550911 -1.45877,-1.377998 -1.96606,-1.247902 -2.73384,0.700999 -0.32263,0.818915 -1.0402,1.669531 -1.59464,1.890279 -1.22872,0.489209 -0.88339,1.663449 1.00549,3.41898 1.05417,0.97976 1.62011,1.12399 3.1051,0.79138 l 1.81595,-0.40675 -0.682,1.68272 c -0.59074,1.45749 -0.55118,1.90223 0.29557,3.32296 l 0.97758,1.64027 -1.88263,-0.2516 c -1.7277,-0.23088 -1.96508,-0.15654 -2.8845,0.90315 -1.41352,1.62914 -1.54093,1.60398 -1.98812,-0.39259 -0.35548,-1.58714 -0.58861,-1.84256 -2.141,-2.34482 l -1.74205,-0.56369 1.62369,-0.9677 c 1.0907,-0.65005 1.66687,-1.34997 1.75525,-2.13221 0.17244,-1.52645 -0.92893,-3.967992 -2.0481,-4.540233 -0.48786,-0.249445 -1.19561,-0.839303 -1.57279,-1.310837 -0.60685,-0.758581 -0.86928,-0.747934 -2.27954,0.09256 -1.77254,1.056422 -2.9336,0.910543 -4.2596,-0.535179 -0.70694,-0.770783 -0.98445,-0.771771 -2.19132,-0.0078 -1.08301,0.685577 -1.64902,0.759766 -2.61703,0.343073 -0.67935,-0.292438 -1.37399,-0.88037 -1.54367,-1.306535 -0.3863,-0.970246 -5.63901,-3.161753 -7.07569,-2.952076 l -1.0678,0.155848 3.35478,8.426048 c 3.21744,8.08108 3.43239,8.49446 5.24975,10.09769 1.93582,1.70769 3.06325,1.84459 5.89759,0.71612 1.4032,-0.55868 1.43962,-0.18554 0.2577,2.64026 -0.9735,2.32747 -0.9702,2.50082 0.0764,4.00582 2.02011,2.90479 1.98537,3.07218 -0.56285,2.71179 -2.86926,-0.40576 -3.50241,-0.1413 -5.35487,2.23662 l -1.50976,1.9381 -0.27913,-1.47694 c -0.15351,-0.8123 -0.39124,-2.0593 -0.52825,-2.77109 -0.20009,-1.03942 -0.66008,-1.4635 -2.33665,-2.15439 l -2.08752,-0.86023 0.19604,1.37466 c 0.1078,0.75606 0.0564,2.89905 -0.11419,4.76218 -0.75044,8.19518 -4.3318,14.55597 -10.80019,19.18208 -2.06687,1.47823 -2.59553,2.09276 -2.47149,2.87306 0.21357,1.34355 3.69068,12.08581 3.96281,12.24279 0.31498,0.18172 1.60429,-2.69146 1.74211,-3.88215 0.0646,-0.55853 -0.14745,-2.05588 -0.47131,-3.32745 l -0.58883,-2.31194 1.39526,1.20204 c 1.78488,1.5377 3.78901,2.50867 4.55147,2.2051 0.32787,-0.13054 1.05313,-0.76405 1.61166,-1.4078 1.20733,-1.39152 1.3097,-1.23695 1.1008,1.6621 -0.19182,2.66192 0.52138,3.7032 2.68244,3.91642 1.46247,0.14428 1.5497,0.23147 1.19202,1.19145 -0.53247,1.42905 -0.33139,1.68821 0.92255,1.18896 0.59222,-0.23579 1.93654,-0.11457 2.98739,0.26938 1.62546,0.5939 2.01385,0.97856 2.60227,2.57717 0.55866,1.51778 0.52396,2.21523 -0.18047,3.62754 -1.0134,2.03167 -0.9944,2.31347 0.12583,1.86746 0.45129,-0.17968 1.04207,-0.0866 1.31286,0.20677 0.27079,0.29342 1.49081,0.60467 2.71118,0.69167 2.0833,0.14852 2.23398,0.0994 2.46687,-0.80338 0.57817,-2.24128 -0.74683,-3.21937 -3.90666,-2.88379 l -1.08382,0.11509 0.56851,-2.04001 c 0.49701,-1.78346 0.4163,-2.41016 -0.6418,-4.98333 -1.18291,-2.87672 -1.15926,-3.94656 0.0545,-2.46463 0.84642,1.03345 3.92121,1.97593 5.01961,1.53861 0.50274,-0.20016 1.19618,-0.96673 1.54097,-1.7035 0.83637,-1.78725 1.22452,-1.50117 1.53549,1.13175 0.35434,3.00016 1.60177,4.23287 3.51318,3.47185 1.12297,-0.4471 1.35356,-0.38784 1.34171,0.34458 -0.0528,3.26755 0.29646,6.60411 0.74183,7.0867 0.28878,0.31292 1.02765,0.36884 1.64192,0.12427 1.03401,-0.41169 1.05324,-0.54518 0.25909,-1.7997 -0.98135,-1.55025 -0.92495,-4.12927 0.11734,-5.36548 1.32323,-1.56942 3.69346,-2.08748 5.66589,-1.23843 1.70097,0.73223 1.90035,0.97872 2.44701,3.0253 l 0.59516,2.22811 1.29495,-0.7819 c 0.71219,-0.43008 2.63206,-1.66503 4.26632,-2.74442 z m -27.85173,11.44466 c 1.3348,-1.22425 0.96428,-1.63427 -1.80599,-1.99857 -2.27667,-0.29938 -2.47291,-0.25112 -3.20161,0.78737 -1.08276,1.54308 -0.77795,1.90057 1.72113,2.01862 2.5993,0.12278 2.15261,0.23253 3.28647,-0.80742 z m 49.57751,-19.97286 c -0.35449,-0.89035 -1.426,-0.97055 -1.57644,-0.11799 -0.0697,0.39519 0.0313,0.83585 0.22456,0.97923 0.59894,0.44439 1.61419,-0.2024 1.35188,-0.86124 z m -34.34293,9.5969 c -0.25368,-0.63715 -1.26581,-0.48666 -1.57618,0.23437 -0.23592,0.54805 1.17526,1.26579 1.53509,0.78078 0.15941,-0.21473 0.17787,-0.67162 0.0411,-1.01515 z m -6.80794,3.08071 c -0.46442,-1.16647 -3.3094,-3.87642 -4.92972,-4.69575 -2.24959,-1.13753 -2.12172,-0.9279 1.58164,2.59273 2.50338,2.37987 3.77676,3.17973 3.34808,2.10302 z m -16.58588,5.56027 c -0.8392,-0.62263 -5.1637,0.39892 -8.06316,1.9047 -1.60087,0.83139 -2.84416,1.67866 -2.76287,1.88283 0.13232,0.33235 1.38824,-0.0472 9.10304,-2.7509 1.16558,-0.40842 1.94092,-0.87491 1.72299,-1.03663 z m -13.10533,2.85578 c 1.42136,-1.63821 1.39098,-3.17448 -0.0932,-4.71538 l -1.20004,-1.24589 -0.86054,1.99717 c -0.4733,1.09845 -0.90845,1.9496 -0.96701,1.89147 -2.55218,-2.5337 -3.92588,-2.5624 -5.24171,-0.10959 -0.95045,1.77173 -1.42249,1.82114 -2.06166,0.21577 -0.43206,-1.08518 -5.15215,-3.50756 -5.45659,-2.80035 -0.197,0.45765 2.88311,2.90318 7.36808,5.85006 l 3.47611,2.28399 2.02144,-1.11098 c 1.11181,-0.611 2.46862,-1.62635 3.01516,-2.25627 z m 58.6023,-23.56989 c -2.26253,-1.21376 -2.8991,-2.99873 -1.89842,-5.32336 0.7948,-1.84635 2.16945,-2.60742 4.56288,-2.52618 0.58065,0.0197 0.78774,-0.26445 0.70131,-0.96266 -0.17085,-1.3806 2.05455,-3.49033 3.70889,-3.51612 1.89703,-0.0296 1.29458,-0.83375 -1.44931,-1.93455 l -2.33076,-0.93507 0.81788,-1.60354 c 1.02918,-2.01778 0.84209,-2.4645 -1.39893,-3.34005 l -1.80642,-0.70576 1.59513,-1.62727 c 1.52336,-1.55408 1.99197,-3.03662 1.78316,-5.64138 -0.0649,-0.80969 -0.32644,-1.03835 -1.12299,-0.9812 -1.42573,0.1022 -2.56973,2.53018 -1.73652,3.68551 0.37662,0.52214 0.42353,1.43555 0.12561,2.44271 -0.43439,1.46849 -0.66304,1.65869 -2.62361,2.18238 -1.69966,0.454 -2.22897,0.79165 -2.53704,1.61852 -0.2141,0.57465 -0.21563,1.11958 -0.003,1.21094 0.21233,0.0914 0.37655,0.84033 0.36524,1.66432 -0.0273,1.97881 -1.73654,3.52219 -3.71648,3.3558 -2.03341,-0.17087 -2.67073,0.83228 -1.84551,2.90495 0.53225,1.33683 0.48789,2.00644 -0.22044,3.32682 -0.48774,0.90921 -1.26698,1.80447 -1.73159,1.98945 -0.80177,0.31922 -0.78331,0.38969 0.36252,1.3839 1.53731,1.33381 3.32919,1.47149 4.29182,0.32975 0.99715,-1.18267 0.96552,-1.19489 2.48645,0.96117 1.52256,2.1584 3.60036,3.59394 4.61635,3.18943 0.48662,-0.19374 0.22808,-0.4919 -0.99588,-1.14849 z m -4.79928,1.22732 c -1.54268,-0.72194 -6.8506,-1.21739 -7.46757,-0.69702 -0.36862,0.31092 7.5972,1.69318 8.46045,1.46809 0.23131,-0.0602 -0.21554,-0.40727 -0.99288,-0.77107 z m 28.13269,-12.98964 c 0.38518,-1.84603 0.34216,-2.14485 -0.27347,-1.89974 -1.09021,0.43406 -1.79938,2.21931 -1.33997,3.37318 0.58802,1.47691 1.09433,1.01454 1.61344,-1.47344 z m -74.46674,28.51864 c 0.28474,-1.18381 0.21663,-1.27573 -1.29522,-1.7481 -2.43999,-0.76235 -4.65502,-0.385 -5.85435,0.99732 -1.1578,1.3344 -0.90442,1.61421 2.1657,2.39163 2.74141,0.69418 4.56678,0.0932 4.98387,-1.64085 z m 4.13955,-3.57498 c 0.15893,-0.90057 -1.17566,-1.32939 -1.53554,-0.49338 -0.30103,0.6993 0.38014,1.4993 1.04965,1.23274 0.21025,-0.0837 0.42891,-0.41641 0.48589,-0.73936 z m 48.51493,-19.68017 c -0.0186,-0.32568 -0.43196,-0.42435 -0.93639,-0.22351 -0.9004,0.35849 -0.98905,0.92109 -0.19874,1.2613 0.56147,0.24169 1.1762,-0.32026 1.13513,-1.03779 z m 17.36069,-6.50406 c -1.26075,-0.034 -4.15775,1.11943 -5.41808,2.15718 -0.63477,0.52266 0.26679,0.30067 2.74392,-0.67568 2.43116,-0.95827 3.34314,-1.46352 2.67416,-1.4815 z m 5.6291,-5.37968 c 0.48737,-3.39717 0.62639,-9.5747 0.26036,-11.56914 l -0.26787,-1.45956 -1.04086,1.19966 c -1.25352,1.44476 -1.30264,2.43787 -0.18107,3.66071 0.46227,0.50402 0.79824,0.93809 0.7466,0.96464 -0.0519,0.026 -1.50183,0.68598 -3.22257,1.46562 l -3.12865,1.41741 -1.71977,3.99515 c -1.47681,3.43068 -1.58888,3.9935 -0.79329,3.98357 0.66665,-0.008 1.08286,-0.46569 1.48382,-1.63089 0.3065,-0.89061 0.64839,-1.57301 0.75973,-1.51643 0.11134,0.0566 0.79067,0.62015 1.50966,1.25233 1.10012,0.96733 3.62928,1.56048 4.86977,1.14205 0.17789,-0.0594 0.50358,-1.36718 0.72418,-2.905 z m -78.08213,26.42309 c -2.67709,-3.43648 -2.50565,-2.10983 0.26474,2.04867 2.30352,3.45773 2.51341,3.66603 1.97178,1.9569 -0.33339,-1.052 -1.33982,-2.85451 -2.23652,-4.00557 z m 40.82266,-10.05687 c 0.50459,-1.17222 -0.0461,-1.89152 -2.04655,-2.67309 -1.82128,-0.71154 -3.08343,-0.37396 -2.65213,0.70933 0.11643,0.29242 -0.0916,1.28007 -0.46238,2.19476 l -0.67406,1.66308 1.21136,0.002 c 1.71781,0.002 4.25429,-1.03752 4.62376,-1.89581 z m 21.71741,-8.76775 c -0.35194,-0.88395 -1.36706,-0.96176 -1.72418,-0.13215 -0.22765,0.52884 -0.10363,0.7366 0.50811,0.851 1.14486,0.21409 1.50318,0.002 1.21607,-0.71885 z m -69.75291,26.03612 c -0.63324,-0.25141 -10.07381,1.80405 -10.25872,2.2336 -0.12675,0.29448 2.75834,0.0212 5.87381,-0.55637 2.71548,-0.5034 5.07156,-1.40461 4.3849,-1.67726 z m 4.68789,-3.42003 c -0.0877,-1.22278 -0.61624,-1.61456 -2.6402,-1.95671 -1.57376,-0.26606 -1.6225,-0.24389 -2.14804,0.97689 l -0.53772,1.24915 1.86699,0.68216 c 2.18326,0.7977 3.55727,0.41973 3.45896,-0.95153 z m 64.75826,-30.93469 c -1.09904,-2.7469 -1.65367,-3.74972 -1.76425,-3.18929 -0.21541,1.09155 2.3727,7.59197 2.93376,7.36859 0.2582,-0.1028 -0.21463,-1.7925 -1.16951,-4.1793 z m -34.50718,13.39378 c 1.09976,-1.89701 3.57586,-2.79603 5.57494,-2.0241 0.86355,0.33345 1.69677,0.92442 1.85158,1.31326 0.48796,1.22558 1.11598,0.084 1.02306,-1.85964 -0.0491,-1.02626 0.16183,-2.28148 0.46869,-2.78939 0.75642,-1.25197 3.75324,-2.40849 5.29602,-2.04389 1.71027,0.40424 2.43822,-0.40441 1.80217,-2.00195 -0.29304,-0.736 -0.29366,-1.84704 -0.001,-2.52599 0.56953,-1.32304 2.94812,-2.53801 4.04466,-2.06598 0.47887,0.20613 0.85839,0.0523 1.37116,-0.55561 0.54222,-0.64313 0.54152,-1.0984 -0.003,-1.93632 -1.44328,-2.22079 0.56157,-5.27292 3.26316,-4.96771 0.59756,0.0675 1.08795,-0.20963 1.48206,-0.83751 0.57757,-0.92019 0.56365,-0.95025 -0.71841,-1.55136 -0.71911,-0.33711 -1.98812,-1.29328 -2.82003,-2.12479 l -1.51254,-1.51187 -1.13949,3.38889 c -2.10294,6.25416 -6.24275,10.81158 -9.76688,10.75212 -1.50173,-0.0254 -2.19521,-0.50106 -4.11997,-2.82631 -0.46177,-0.55784 -0.73418,-0.1413 -1.51186,2.31186 -1.14602,3.61498 -2.08202,5.1862 -3.71661,6.23879 -1.82436,1.17478 -3.03152,0.47511 -4.18685,-2.42667 -0.99307,-2.49425 -1.612,-2.81362 -1.74604,-0.90097 -0.15799,2.25421 -2.08011,7.71217 -3.1504,8.94578 -1.49921,1.72792 -3.13953,1.6191 -4.347,-0.28837 -0.49518,-0.78221 -1.02274,-1.36724 -1.17241,-1.30006 -0.14967,0.0671 -0.49721,0.97055 -0.77235,2.00747 -0.27513,1.03693 -1.15971,2.94918 -1.96571,4.24946 -1.24153,2.00288 -1.32989,2.38204 -0.57832,2.48129 0.59335,0.0784 1.18398,-0.2275 1.78342,-0.92359 0.49295,-0.5724 1.24601,-1.18137 1.67345,-1.35326 1.05206,-0.42318 3.66903,0.75926 4.10518,1.85473 0.44488,1.11738 1.18281,0.84685 1.68258,-0.61674 0.81539,-2.38832 3.84464,-2.91166 5.92366,-1.0234 l 1.45341,1.32006 -0.17522,-1.53065 c -0.0964,-0.84186 0.17609,-2.13669 0.6055,-2.8774 z m -46.095,20.7952 c 1.05352,-1.81729 0.59561,-2.68882 -1.79358,-3.41366 -1.74021,-0.52793 -2.09732,-0.85341 -2.75859,-2.5143 -0.55418,-1.3919 -0.60765,-2.34941 -0.19772,-3.5405 1.14049,-3.31388 6.22281,-3.85859 8.23731,-0.88288 1.03935,1.53529 0.77945,4.47091 -0.51257,5.78964 -0.57072,0.5825 -0.99119,1.17582 -0.9344,1.31847 0.0568,0.14269 0.92383,0.35425 1.92672,0.47018 1.80804,0.20901 1.82878,0.19938 2.45628,-1.14155 0.54631,-1.16738 0.42647,-2.07823 -0.87622,-6.66026 -0.82999,-2.91937 -1.55745,-5.74063 -1.61655,-6.26946 -0.0772,-0.69022 -0.43724,-0.97193 -1.27622,-0.99837 -0.73229,-0.0231 -1.39715,-0.46155 -1.78045,-1.17421 -0.54682,-1.01668 -0.47401,-1.1922 0.68621,-1.65414 1.25061,-0.49792 1.27448,-0.6128 0.65526,-3.14827 -0.35349,-1.44735 -1.5716,-4.97332 -2.70693,-7.83555 -1.81534,-4.57573 -2.28381,-5.40221 -3.88345,-6.846 -3.3145,-2.99159 -7.38218,-2.67499 -11.61624,0.90414 -4.15968,3.51624 -6.01089,10.57112 -4.05096,15.43807 0.92864,2.30539 3.37162,5.23491 4.5376,5.44067 0.28303,0.05 0.3366,-1.02093 0.11907,-2.37972 -0.54029,-3.37497 -0.0712,-5.61465 1.56693,-7.48187 2.54968,-2.9062 6.42955,-3.55226 8.50712,-1.41657 1.41713,1.45678 2.44446,5.07705 1.96093,6.9102 -0.57134,2.16601 -2.62666,4.4593 -5.20448,5.80707 l -2.29475,1.19979 1.41709,0.67218 c 2.07093,0.9823 3.69998,0.86531 4.27548,-0.30706 0.5926,-1.20723 1.24978,-1.47418 1.8986,-0.7711 0.30939,0.33526 0.20398,0.98293 -0.26993,1.65832 -1.40596,2.00372 -5.70773,1.96213 -8.05901,-0.0779 -1.13258,-0.98266 -4.8134,-1.85564 -4.93315,-1.16998 -0.22614,1.29485 6.80162,11.20387 10.7674,15.18184 1.48996,1.49454 1.69108,1.55094 3.27809,0.91908 1.05415,-0.41971 1.98607,-1.18261 2.47513,-2.02622 z m 86.67235,-35.96959 c 0.37317,-1.00157 0.18194,-1.71406 -1.33326,-4.96744 l -1.76894,-3.79817 1.28662,-0.23613 c 1.98325,-0.36397 2.83634,-1.69684 2.16511,-3.38274 -0.31305,-0.78627 -0.70794,-1.48924 -0.87738,-1.56224 -0.16949,-0.073 -1.19398,0.61734 -2.27663,1.53402 -1.08264,0.91668 -3.00841,2.17621 -4.27949,2.79892 l -2.31107,1.13223 0.72347,1.65084 c 0.99315,2.26603 3.23713,3.08713 4.90747,1.79557 1.35677,-1.04912 1.66107,-0.70181 0.8438,0.96323 -0.94561,1.92632 -0.98786,3.9729 -0.0975,4.72356 0.68661,0.57888 1.51043,0.78783 2.31068,0.58606 0.14937,-0.0376 0.46757,-0.59463 0.70718,-1.23772 z m 4.50692,-9.4743 c 0.86056,-2.21428 1.43554,-4.08156 1.27774,-4.14948 -0.42878,-0.1846 -3.89798,7.62253 -3.65659,8.22881 0.33601,0.84395 0.72428,0.17815 2.37885,-4.07933 z m -93.69525,36.43206 c -0.36991,-0.9291 -1.57593,-0.29345 -1.38095,0.72785 0.11909,0.62366 0.36586,0.72993 0.90074,0.38774 0.40519,-0.25927 0.62129,-0.76126 0.48022,-1.11557 z m 98.60961,-42.39505 c -0.24563,-1.07455 -0.48593,-2.33351 -0.53418,-2.79764 -0.16738,-1.60992 -0.88185,-0.5174 -0.97151,1.48556 -0.0562,1.25484 0.18581,2.39599 0.64222,3.02884 1.00858,1.39849 1.39825,0.62371 0.86347,-1.71676 z m -72.40769,26.50251 c 0.91799,-2.47025 0.77584,-5.13706 -0.29848,-5.59952 -0.96061,-0.4135 -1.74304,1.48573 -1.94742,4.72702 -0.0944,1.49638 -0.0891,2.92781 0.0117,3.18096 0.38307,0.96215 1.41498,-0.10406 2.23419,-2.30846 z m 61.0501,-26.38318 c 4.01852,-4.2312 6.25643,-11.75313 5.09953,-17.140308 -0.21323,-0.992708 -1.16829,-3.089775 -2.12247,-4.660113 -1.43216,-2.356979 -2.08793,-3.007143 -3.75835,-3.726203 -1.11292,-0.479077 -2.6546,-0.767457 -3.42596,-0.640826 -2.20983,0.362754 -4.40547,2.295713 -5.22468,4.599692 -1.91672,5.390511 4.50312,9.939478 6.7292,4.768162 l 0.68361,-1.588105 -1.36331,-0.377041 c -1.28369,-0.355021 -1.33754,-0.437502 -0.92194,-1.412359 0.61509,-1.442834 2.03948,-0.93176 2.81214,1.008909 0.98531,2.474736 -0.98485,5.467587 -3.98627,6.055602 l -1.51878,0.29754 0.94886,2.38321 c 1.28625,3.2306 2.49085,4.3273 4.06479,3.70065 1.45248,-0.5783 1.73019,-0.18076 0.96403,1.38002 -0.44001,0.89637 -0.37313,1.43019 0.31547,2.51797 l 0.87385,1.38043 -1.47223,-0.30017 c -1.34648,-0.27454 -1.5683,-0.19643 -2.5967,0.91429 l -1.12443,1.21449 -0.49892,-1.71028 c -0.39571,-1.35663 -0.73374,-1.75289 -1.63459,-1.91618 -1.51313,-0.27432 -1.55205,-0.56179 -0.16858,-1.24527 1.7125,-0.846 1.8074,-2.08197 0.42632,-5.55077 -0.71651,-1.79963 -1.57216,-3.291817 -2.05347,-3.581095 -0.76155,-0.457685 -0.87392,-0.406756 -1.45772,0.660675 -0.34792,0.63612 -0.48253,1.9225 -0.29913,2.85862 0.45598,2.32749 -0.52468,5.86158 -2.26691,8.16946 -1.56126,2.06816 -1.5172,2.80443 0.27745,4.63739 3.1364,3.20334 8.09469,2.14977 12.69917,-2.69837 z m 8.43974,-3.22321 c 1.90262,-2.33762 1.90867,-2.87073 0.0788,-6.94652 l -1.33481,-2.973138 -0.20538,1.680498 c -0.29175,2.38716 -2.8162,8.72655 -4.03402,10.13016 -0.7957,0.91709 -0.85654,1.21607 -0.26987,1.32621 1.50904,0.28329 4.08716,-1.15538 5.76534,-3.21721 z m -82.03035,28.37147 c 6.34383,-6.67621 7.99424,-20.40148 3.05944,-25.44318 -1.46856,-1.50037 -2.22188,-1.29052 -4.12165,1.14824 -1.83451,2.35496 -3.10936,7.15454 -3.7736,14.20691 -0.42839,4.54833 -0.40696,12.41477 0.0369,13.52952 0.18316,0.46003 3.03496,-1.58512 4.79894,-3.44149 z m -18.01332,7.62946 c 1.77241,-1.73483 2.26135,-3.95086 1.3672,-6.19664 -0.98209,-2.46666 -2.54156,-3.1887 -4.87793,-2.25849 -1.91123,0.76094 -3.39424,3.00192 -3.64088,5.50172 -0.18008,1.82525 1.15272,5.35055 2.02438,5.3546 1.25683,0.006 3.96278,-1.26144 5.12721,-2.40118 z m 78.17596,-37.00529 c 0.43471,-0.74984 0.85678,-2.03649 0.93797,-2.85928 0.15819,-1.60356 -0.67234,-4.23233 -1.2629,-3.9972 -0.65883,0.26231 -1.41132,2.79916 -1.52009,5.12463 -0.17351,3.70994 0.39107,4.2399 1.84502,1.73185 z m -65.73739,11.14065 c 1.35111,-5.81483 4.83858,-10.57501 7.97741,-10.88869 2.32249,-0.23211 3.81103,0.95448 5.53527,4.41248 1.35263,2.71274 1.59806,2.98201 2.41562,2.65033 1.94267,-0.78864 2.6929,-1.75198 2.87358,-3.69253 0.167,-1.7937 -0.18225,-2.92324 -3.41291,-11.03755 l -3.59898,-9.039386 -1.93089,-0.120063 c -1.062,-0.06604 -4.26622,-0.528462 -7.12051,-1.027604 l -5.18963,-0.907551 -2.84484,2.484201 c -2.95202,2.577796 -3.31534,3.298822 -1.51052,2.997726 2.40066,-0.400488 2.95811,-0.712365 3.76681,-2.107339 1.12081,-1.933378 2.98349,-2.633672 4.85841,-1.826554 1.96796,0.847142 2.76115,2.839347 1.91401,4.807324 -1.27628,2.964882 -5.52937,3.196233 -6.65774,0.362151 -0.42102,-1.057468 -0.66891,-1.099785 -3.34523,-0.571096 -2.68334,0.530086 -2.97971,0.686725 -4.13523,2.185484 -1.37006,1.777017 -5.27084,9.036657 -5.1228,9.533957 0.0511,0.17191 1.00797,-0.4744 2.12629,-1.43606 3.60192,-3.09768 7.8532,-5.43709 10.43903,-5.74446 4.13458,-0.49147 7.18771,1.7144 5.63879,4.07402 -0.98819,1.50542 -6.77439,3.71171 -13.79979,5.26186 -6.31317,1.39299 -5.7892,1.03339 -6.62334,4.54564 -0.3728,1.56975 -0.23118,1.62971 2.34297,0.99244 1.74134,-0.4311 2.17057,-0.72451 2.63339,-1.79955 0.54292,-1.26119 2.26789,-2.28152 3.89157,-2.30181 0.88504,-0.011 2.90368,1.56097 3.30779,2.57596 0.48521,1.21866 -0.86051,4.17225 -2.13152,4.6783 -1.58728,0.63196 -3.92353,-0.0988 -4.8927,-1.53045 -0.6698,-0.9894 -1.10683,-1.10052 -3.16105,-0.80378 -2.65183,0.38306 -2.6179,0.34074 -3.12804,3.89879 l -0.36271,2.52966 2.10191,-0.83148 c 1.30444,-0.51505 3.11303,-0.77436 4.76611,-0.68029 4.30966,0.24524 7.29526,2.94385 9.66733,8.7381 l 1.06062,2.59064 0.53515,-5.23507 c 0.29435,-2.87928 0.7968,-6.36108 1.11658,-7.73731 z m 56.42118,-22.702888 c -0.43916,-0.239424 -1.09104,-0.318833 -1.44864,-0.176457 -0.52878,0.210531 -0.50109,0.340139 0.14829,0.694185 0.43914,0.239454 1.09103,0.31886 1.44862,0.176487 0.52879,-0.210534 0.50109,-0.340142 -0.14829,-0.694207 z m -81.43455,30.686398 c 1.34909,-1.46732 2.49601,-2.73813 2.54868,-2.82404 0.0527,-0.0859 -0.89464,-0.99328 -2.10515,-2.01641 -1.21051,-1.02313 -2.50784,-2.27705 -2.88295,-2.7865 -1.02836,-1.39663 -1.25865,-0.2783 -1.06442,5.16906 0.17447,4.8929 0.32767,5.94237 0.79111,5.41907 0.14292,-0.16131 1.36363,-1.49388 2.71273,-2.96118 z m 95.09848,-39.632931 c 1.24941,-1.222913 1.24423,-2.248804 -0.009,-1.771875 -0.28577,0.108397 -2.63751,-0.08477 -5.22633,-0.429937 -2.58884,-0.345192 -4.79322,-0.593273 -4.89864,-0.5513 -0.10534,0.04194 0.44418,0.486667 1.22132,0.988213 0.77715,0.501545 2.53188,1.96308 3.89943,3.247856 l 2.48645,2.335987 0.58103,-1.241615 c 0.31957,-0.682863 1.19514,-1.842686 1.9457,-2.577329 z m -76.68016,27.289961 c 0.13927,-1.23267 0.0347,-1.55329 -0.44424,-1.36259 -0.20013,0.0797 -0.3919,0.72097 -0.42616,1.42506 -0.0732,1.50442 0.69967,1.44896 0.8704,-0.0625 z m -14.82273,-2.52305 c -0.84992,-0.98422 -2.13429,-2.96729 -2.85415,-4.40685 -0.71985,-1.43955 -1.45065,-2.5609 -1.62398,-2.49189 -0.34772,0.13844 -1.3589,4.15322 -1.16727,4.63451 0.0661,0.16599 0.42268,0.18136 0.79244,0.0341 0.36976,-0.14722 1.26447,0.33734 1.98825,1.07679 1.28354,1.31134 1.43765,1.71338 2.71879,7.09225 l 0.4916,2.06398 0.59981,-3.10675 0.59981,-3.10673 z m 62.777,-21.373127 c 0.21841,-1.071245 0.64405,-1.511821 1.9709,-2.040099 1.2889,-0.513168 1.99839,-0.496368 2.97615,0.07046 1.44784,0.839324 2.58807,0.602468 2.57385,-0.534682 -0.0211,-1.686534 2.69687,-2.830682 4.20265,-1.769052 0.24671,0.173992 0.91359,-0.01901 1.48186,-0.428865 l 1.03323,-0.745137 -2.10253,-1.344965 c -1.1564,-0.739735 -3.16452,-1.787198 -4.46248,-2.327719 l -2.35994,-0.982754 0.45834,1.151192 c 1.06483,2.674486 -0.2843,5.419724 -2.47029,5.026583 -1.72213,-0.309727 -4.91967,-3.359279 -8.11396,-7.738412 -0.96694,-1.325609 -1.51712,-1.600181 -3.49805,-1.745751 -1.29283,-0.095 -2.46778,-0.126083 -2.61096,-0.06908 -0.14318,0.05701 0.89244,0.656498 2.30139,1.33219 2.08594,1.00038 2.68632,1.541519 3.2326,2.913579 0.88456,2.221713 0.23064,4.50651 -1.4853,5.189703 -1.1914,0.474346 -1.22673,0.611023 -0.57857,2.238995 0.54644,1.372469 0.85084,1.669856 1.46074,1.427029 1.10817,-0.441214 3.17232,0.148198 4.11378,1.174665 1.03205,1.125243 1.52744,0.914627 1.8766,-0.797852 z m 28.72361,-14.286029 c -2.11439,-1.872237 -2.05677,-1.847837 -2.5133,-1.06403 -1.08344,1.8602 -5.72534,3.081118 -13.46134,3.540635 -2.52004,0.149688 -4.67988,0.311167 -4.79969,0.358866 -0.11976,0.04768 1.0747,0.726409 2.65444,1.508267 1.57971,0.781834 2.94146,1.59548 3.02611,1.808107 0.0847,0.212608 2.06859,-0.375762 4.40876,-1.307486 4.58333,-1.824824 8.97885,-2.875056 11.08618,-2.648853 1.74639,0.187473 1.64145,-0.386803 -0.40116,-2.195506 z m -36.53248,15.5978 c 0.40399,-2.228341 -1.19065,-5.078103 -4.60367,-8.227187 -1.75375,-1.618146 -3.74801,-3.660205 -4.43167,-4.537922 -1.36855,-1.757046 -1.39564,-1.75783 -6.95876,-0.204926 -2.61524,0.730037 -2.79925,0.852047 -2.48301,1.646318 0.18785,0.47181 1.25233,1.435196 2.36552,2.140857 1.8968,1.202402 2.11931,1.22616 3.54168,0.378453 2.17342,-1.295344 4.39798,-0.599892 5.29603,1.655676 0.98795,2.481389 -0.28167,4.335023 -3.21481,4.693628 -1.49693,0.182998 -3.29043,-1.462052 -3.52772,-3.235712 -0.12208,-0.912421 -0.67489,-1.554238 -2.18012,-2.531312 -1.10911,-0.71992 -2.35899,-1.794044 -2.7775,-2.386926 -0.7388,-1.046644 -0.84774,-1.043398 -3.74805,0.111345 -2.55836,1.018593 -2.94285,1.297891 -2.67878,1.945311 0.19511,0.47924 1.28311,0.827679 2.96986,0.951733 2.94358,0.216473 4.70307,1.100161 5.90411,2.965296 0.56846,0.88276 0.66455,1.535021 0.33797,2.293705 -0.43456,1.009523 -0.3637,1.091636 1.48371,1.719486 1.55314,0.527867 2.06998,0.505295 2.59139,-0.113152 1.42732,-1.692876 3.95434,-0.897819 4.50761,1.418191 0.21262,0.890118 1.21688,0.69505 1.65441,-0.321345 0.1547,-0.359365 0.86689,-0.812412 1.58268,-1.006748 0.95167,-0.258394 1.62586,-0.04688 2.50871,0.787106 1.4283,1.34923 1.59237,1.336713 1.86041,-0.141875 z m -49.76972,11.961986 c 1.30992,-2.99959 1.42961,-3.698 0.87328,-5.095328 -0.45761,-1.149334 -1.08444,-1.808597 -2.15977,-2.271491 -1.65041,-0.71044 -2.90913,-2.996193 -2.35669,-4.279563 0.17218,-0.399957 0.12797,-0.652905 -0.0983,-0.562096 -0.83415,0.334265 -2.9522,5.154188 -2.33174,5.305101 2.08335,0.506754 3.24815,3.085847 3.75444,8.313007 0.12234,1.26319 0.35256,2.24488 0.51159,2.18156 0.15904,-0.0633 0.97225,-1.67935 1.80714,-3.59119 z m 41.85273,-17.438154 c 0.24179,-1.300462 -0.65974,-1.462647 -1.01243,-0.182148 -0.16465,0.597761 -0.24084,1.25185 -0.16933,1.453532 0.2031,0.572555 0.99792,-0.282491 1.18176,-1.271384 z m -22.62834,6.723513 c -0.2,-0.50233 -0.32987,-0.468426 -0.68231,0.178126 -0.23944,0.439167 -0.26391,1.210983 -0.0544,1.715171 0.37352,0.898678 0.38688,0.895199 0.68231,-0.178122 0.16578,-0.602099 0.19024,-1.373947 0.0544,-1.715157 z m 46.7609,-17.505834 c 2.10176,-1.403695 4.30292,-2.443312 7.49868,-3.541627 l 4.52364,-1.554675 -1.28141,-0.826991 c -1.78274,-1.150523 -11.45436,-5.041127 -11.99581,-4.825551 -0.24397,0.09714 -0.32985,0.462326 -0.19082,0.811526 0.13903,0.3492 -0.0791,1.028569 -0.48476,1.509698 -0.72189,0.856187 -0.70391,0.875412 0.845,0.905034 1.94355,0.03716 3.2077,1.551993 2.94776,3.532355 -0.26495,2.018723 -2.98708,3.296392 -4.8081,2.256753 l -1.31417,-0.750269 -2.08716,1.633468 -2.08716,1.633472 2.29374,0.768365 c 1.26154,0.422596 2.48988,0.693443 2.72961,0.60187 0.23987,-0.0912 1.77465,-1.060597 3.41096,-2.153428 z m -61.00208,16.38487 c -0.52185,-2.082044 -1.07265,-7.506724 -1.02978,-10.142205 0.0146,-0.901063 -0.0281,-0.88642 -1.15938,0.397125 -0.64604,0.732943 -2.27806,2.817888 -3.62672,4.633167 l -2.45207,3.300528 1.88264,-0.595839 c 4.2881,-1.357169 7.34253,3.940599 3.69546,6.409588 -0.98875,0.669379 -1.10197,1.014404 -0.68037,2.073331 l 0.50578,1.27034 1.72765,-2.494354 c 1.63138,-2.355348 1.69473,-2.625707 1.13682,-4.851616 z m 54.41522,-17.985511 c 1.77287,-1.210407 2.24497,-1.798596 2.29669,-2.861524 0.0798,-1.640761 -0.0601,-1.838792 -0.90459,-1.280395 -0.36307,0.240025 -3.05209,1.536632 -5.97562,2.881303 l -5.31551,2.44485 3.45263,0.473712 c 1.89892,0.260541 3.62409,0.336877 3.83371,0.169669 0.20961,-0.167195 1.38532,-0.989662 2.61269,-1.827615 z m 7.14151,-4.070493 c -0.81926,-1.135995 -1.72255,-1.045919 -1.25624,0.125276 0.31733,0.797031 1.65297,1.611084 1.85882,1.132911 0.0627,-0.145667 -0.20847,-0.711761 -0.60264,-1.258161 z M 143.37204,88.91606 c 2.08555,-1.637092 2.20563,-1.862779 2.24078,-4.211624 0.0333,-2.222477 -0.0614,-2.530211 -0.90581,-2.944715 -0.51862,-0.254576 -1.11157,-0.886378 -1.31765,-1.403991 -0.55555,-1.395342 -0.98615,-0.931661 -1.31711,1.418262 -0.16221,1.151625 -0.75738,3.771522 -1.32266,5.821977 -1.12309,4.07396 -1.14733,4.49524 -0.20886,3.629134 0.34524,-0.318507 1.6193,-1.357665 2.83131,-2.309043 z m 10.46269,-3.766291 c -0.0949,-0.238399 -0.6602,-0.239304 -1.25619,-0.002 -0.59598,0.237286 -1.00596,0.626482 -0.91104,0.864882 0.0949,0.23839 0.66021,0.23931 1.25619,0.002 0.596,-0.237293 1.00595,-0.626505 0.91104,-0.864895 z m 22.95261,-9.830447 c 0.54357,-0.865994 0.48697,-0.907426 -0.92338,-0.675911 -0.82633,0.135646 -1.78993,0.01335 -2.1413,-0.271772 -0.55332,-0.448982 -0.82001,-0.357662 -1.99125,0.681769 -0.7438,0.660147 -1.30154,1.327912 -1.23942,1.483931 0.087,0.218573 3.73631,0.05163 5.45394,-0.249511 0.14421,-0.02534 0.52291,-0.461146 0.84139,-0.968552 z m -28.04652,9.817419 c 1.93822,-1.298205 1.97719,-1.385728 2.55852,-5.7463 0.32467,-2.43542 1.12755,-5.904029 1.78418,-7.708041 1.39564,-3.834363 1.48531,-3.830628 -4.68837,-0.194976 -5.97372,3.517906 -6.83033,4.285698 -6.29146,5.639156 l 0.4534,1.138789 0.62797,-1.341863 c 0.77874,-1.664082 2.83556,-2.545645 4.63358,-1.986041 1.02099,0.317793 1.51331,0.852058 2.06729,2.243471 0.87483,2.197269 0.11545,3.97129 -2.0729,4.842565 -1.20652,0.480372 -1.42588,0.819509 -1.42178,2.198071 0.003,0.896552 -0.0146,1.807315 -0.0384,2.02393 -0.0557,0.50729 0.0449,0.46058 2.38793,-1.108835 z m -17.22458,6.388213 c -0.24226,-0.179737 -0.96414,-0.114826 -1.60422,0.144226 -0.91046,0.367876 -0.9857,0.506132 -0.34629,0.632357 1.07678,0.212475 2.51293,-0.359318 1.95051,-0.776583 z M 171.92688,72.5763 c -0.61068,-1.536531 0.5026,-4.036135 2.07593,-4.662545 2.3629,-0.940776 5.15432,0.915567 4.89037,3.252192 -0.0899,0.795656 0.0187,0.986535 0.4612,0.810369 0.3183,-0.126729 0.69157,-0.486117 0.82953,-0.798656 0.45239,-1.024939 5.98219,-5.428293 7.67371,-6.11051 l 1.65402,-0.668225 -2.67775,-0.419367 c -2.58597,-0.404996 -9.64132,-0.715436 -11.88331,-0.522863 -0.79276,0.06811 -1.02169,0.271656 -0.83456,0.74167 0.4499,1.13 -1.77402,4.525469 -6.07949,9.282115 -2.37935,2.628694 -3.86199,4.597386 -3.44916,4.57992 1.80248,-0.0763 4.01257,-1.130705 5.78739,-2.761114 1.51739,-1.393916 1.84889,-1.975803 1.55178,-2.72398 z m -10.99236,4.02772 c 1.10999,-3.886248 3.38165,-8.794669 4.89767,-10.582443 l 1.17618,-1.387003 -1.97297,0.321749 -1.97297,0.321753 -1.36597,3.542815 c -0.75127,1.948558 -2.70113,5.601984 -4.333,8.118733 -1.63187,2.516759 -2.93629,4.653163 -2.89871,4.747538 0.0376,0.09436 1.31243,-0.323726 2.83301,-0.929136 l 2.76469,-1.100745 z m 17.01506,-6.955883 c -0.77292,-0.878872 -1.75977,-1.433522 -2.22268,-1.249218 -0.61476,0.244762 -0.058,1.126613 1.05684,1.673859 1.30879,0.642472 1.91132,0.422995 1.16583,-0.424669 z m -29.6038,6.760259 c -0.19979,-0.501819 -2.37795,-0.795123 -2.57119,-0.34621 -0.0934,0.216937 0.31861,0.520565 0.9156,0.674569 1.1974,0.308878 1.85721,0.178031 1.65559,-0.328359 z m 12.29695,-15.780318 c -0.38536,-0.967877 -2.13312,-2.130981 -3.56961,-2.375534 -2.79302,-0.475446 -4.93102,0.625962 -5.98988,3.085751 -1.5421,3.582353 -1.05686,3.735019 4.64991,1.462904 2.74154,-1.09153 4.95086,-2.069427 4.90958,-2.173121 z"
         style="fill:none;stroke:#ff0000;stroke-width:0.3;stroke-miterlimit:4;stroke-dasharray:none" />
      <g
         style="stroke-width:0.3;stroke-miterlimit:4;stroke-dasharray:none"
         transform="translate(-96.21703,14.432554)"
         id="g1268">
        <path
           sodipodi:type="star"
           style="fill:none;stroke:#ff0000;stroke-width:0.22471651;stroke-miterlimit:4;stroke-dasharray:none"
           id="path1147-1"
           sodipodi:sides="4"
           sodipodi:cx="55.057522"
           sodipodi:cy="96.815125"
           sodipodi:r1="40.556335"
           sodipodi:r2="28.677658"
           sodipodi:arg1="0.78539816"
           sodipodi:arg2="1.5707963"
           inkscape:flatsided="true"
           inkscape:rounded="0.06"
           inkscape:randomized="0"
           d="m 83.735182,125.49278 c -2.43338,2.43338 -54.92194,2.43338 -57.35532,0 -2.43338,-2.43338 -2.43338,-54.921935 0,-57.355315 2.43338,-2.43338 54.921939,-2.433381 57.35532,0 2.43338,2.43338 2.43338,54.921935 0,57.355315 z"
           transform="matrix(1.3342895,0,0,1.3357417,265.4351,110.48432)" />
        <rect
           style="fill:none;stroke:#ff0000;stroke-width:0.3;stroke-miterlimit:4;stroke-dasharray:none"
           id="rect1149-5"
           width="28.70241"
           height="2.9024093"
           x="324.54657"
           y="238.35312" />
      </g>
      <g
         style="stroke-width:0.3;stroke-miterlimit:4;stroke-dasharray:none"
         transform="translate(-99.958803,-55.592062)"
         id="g1272">
        <path
           sodipodi:type="star"
           style="fill:none;stroke:#ff0000;stroke-width:0.33707476;stroke-miterlimit:4;stroke-dasharray:none"
           id="path1147-1-6"
           sodipodi:sides="4"
           sodipodi:cx="55.057522"
           sodipodi:cy="96.815125"
           sodipodi:r1="40.556335"
           sodipodi:r2="28.677658"
           sodipodi:arg1="0.78539816"
           sodipodi:arg2="1.5707963"
           inkscape:flatsided="true"
           inkscape:rounded="0.06"
           inkscape:randomized="0"
           d="m 83.735182,125.49278 c -2.43338,2.43338 -54.92194,2.43338 -57.35532,0 -2.43338,-2.43338 -2.43338,-54.921935 0,-57.355315 2.43338,-2.43338 54.921939,-2.433381 57.35532,0 2.43338,2.43338 2.43338,54.921935 0,57.355315 z"
           transform="matrix(0.8895263,0,0,0.8904945,294.19896,11.938137)" />
        <rect
           style="fill:none;stroke:#ff0000;stroke-width:0.3;stroke-miterlimit:4;stroke-dasharray:none"
           id="rect1149-5-6"
           width="28.70241"
           height="2.9024093"
           x="328.82288"
           y="96.700264" />
      </g>
    </g>
  </g>
</svg>
