<?xml version="1.0" encoding="UTF-8" standalone="no"?>
<!-- Created with Inkscape (http://www.inkscape.org/) -->

<svg
   xmlns:dc="http://purl.org/dc/elements/1.1/"
   xmlns:cc="http://creativecommons.org/ns#"
   xmlns:rdf="http://www.w3.org/1999/02/22-rdf-syntax-ns#"
   xmlns:svg="http://www.w3.org/2000/svg"
   xmlns="http://www.w3.org/2000/svg"
   xmlns:sodipodi="http://sodipodi.sourceforge.net/DTD/sodipodi-0.dtd"
   xmlns:inkscape="http://www.inkscape.org/namespaces/inkscape"
   width="50mm"
   height="75mm"
   viewBox="0 0 50 75"
   version="1.1"
   id="svg8"
   inkscape:version="0.92.2 5c3e80d, 2017-08-06"
   sodipodi:docname="Christmas_Tree.svg">
  <defs
     id="defs2" />
  <sodipodi:namedview
     id="base"
     pagecolor="#ffffff"
     bordercolor="#666666"
     borderopacity="1.0"
     inkscape:pageopacity="0.0"
     inkscape:pageshadow="2"
     inkscape:zoom="1.4"
     inkscape:cx="137.47581"
     inkscape:cy="259.3692"
     inkscape:document-units="mm"
     inkscape:current-layer="layer1"
     showgrid="false"
     units="mm"
     inkscape:snap-text-baseline="false"
     inkscape:window-width="1280"
     inkscape:window-height="751"
     inkscape:window-x="0"
     inkscape:window-y="1"
     inkscape:window-maximized="1" />
  <metadata
     id="metadata5">
    <rdf:RDF>
      <cc:Work
         rdf:about="">
        <dc:format>image/svg+xml</dc:format>
        <dc:type
           rdf:resource="http://purl.org/dc/dcmitype/StillImage" />
        <dc:title></dc:title>
      </cc:Work>
    </rdf:RDF>
  </metadata>
  <g
     inkscape:label="Layer 1"
     inkscape:groupmode="layer"
     id="layer1"
     transform="translate(0,-222)">
    <g
       id="g842"
       transform="matrix(1.2499991,0,0,1.2499991,-4.2061708e-5,-74.2498)">
      <path
         sodipodi:nodetypes="ccssssscssccccsssccsssscccsccccscccccccsccccssccssscsccsccccsscc"
         inkscape:connector-curvature="0"
         d="m 18.919614,246.68668 c 0.08071,1.54153 -2.771745,5.16535 -3.319311,5.86982 0,0.0207 0.30687,0.0376 0.681933,0.0376 0.583172,0 0.681933,0.0194 0.681933,0.13381 0,0.16467 -0.629673,1.34047 -1.066886,1.99222 -0.8139,1.21327 -2.342126,2.88851 -3.287635,3.6039 -0.16667,0.1261 -0.29188,0.24043 -0.278245,0.25407 0.09625,0.0962 2.551402,0.68864 3.609867,0.871 0.165469,0.0285 0.300853,0.0976 0.300853,0.1535 0,0.1347 -0.786996,1.28251 -1.58554,2.31244 -1.440175,1.8575 -3.45755,3.86928 -5.3880036,5.37307 l -0.2733774,0.21296 0.5547614,0.27924 c 0.7527176,0.37888 1.7699386,0.72941 2.7039916,0.93178 0.42695,0.0925 0.794953,0.16818 0.817785,0.16818 0.36498,0 -2.444874,3.00682 -4.3308804,4.63446 -1.074115,0.92698 -2.7237264,2.16447 -4.0353987,3.02726 -0.5366587,0.353 -0.9764339,0.66559 -0.9772787,0.69464 -8.49e-4,0.029 0.2217761,0.27406 0.4947129,0.54447 0.575197,0.56986 1.5411759,1.09341 2.4521086,1.32901 0.3199068,0.0827 0.5816487,0.1902 0.5816487,0.2388 0,0.16449 -1.4426726,1.84001 -2.5496023,2.9611 -1.2016352,1.217 -2.5965064,2.42376 -3.86027415,3.33967 -0.44582477,0.32311 -0.80886819,0.6083 -0.80676293,0.63377 0.0020922,0.0255 0.35410324,0.32045 0.78221744,0.65555 3.04205194,2.38107 6.11617284,3.70213 9.68363254,4.1614 0.856341,0.11024 2.91471,0.1391 4.028407,0.0565 l 0.899537,-0.0667 0.02308,2.78158 0.02308,2.78158 0.189399,0.15329 c 0.181151,0.14661 0.375562,0.15329 4.46379,0.15329 4.088157,0 4.282646,-0.007 4.463794,-0.15328 h -3e-6 l 0.189398,-0.15328 0.04012,-2.75496 0.04011,-2.75496 0.481364,0.0135 c 2.555513,0.0715 3.817577,0.0386 4.914472,-0.12816 2.042453,-0.31054 3.742666,-0.86185 5.729705,-1.85793 1.424806,-0.71423 2.429928,-1.36911 3.777782,-2.46139 l 0.542615,-0.43973 -0.629788,-0.43087 c -1.101229,-0.7534 -2.660495,-2.09759 -4.027067,-3.47159 -1.384929,-1.39246 -2.705074,-2.95171 -2.591787,-3.06122 0.03637,-0.0352 0.300792,-0.12297 0.587604,-0.19515 0.848566,-0.21353 1.797841,-0.72641 2.38607,-1.28917 0.286899,-0.27448 0.508217,-0.53591 0.491819,-0.58097 -0.0164,-0.0451 -0.535377,-0.41926 -1.153285,-0.83156 -2.041504,-1.36218 -3.696682,-2.69397 -5.365563,-4.31726 -1.147394,-1.11604 -2.777235,-2.93034 -2.777235,-3.09155 0,-0.0648 0.234035,-0.15354 0.621765,-0.23574 1.161094,-0.24614 3.389606,-1.06526 3.389606,-1.24589 0,-0.0306 -0.153433,-0.17719 -0.340966,-0.32574 -2.478001,-1.96297 -4.898402,-4.54823 -6.416875,-6.85395 -0.545751,-0.8287 -0.535775,-0.86835 0.24261,-0.96438 0.480886,-0.0593 2.94898,-0.65636 3.13118,-0.75743 0.07574,-0.042 0.01871,-0.12458 -0.200569,-0.2903 -0.503042,-0.38019 -1.941065,-1.8031 -2.397386,-2.3722 -0.840346,-1.04801 -2.035552,-3.09401 -1.918275,-3.28376 0.02611,-0.0422 0.334154,-0.0768 0.68455,-0.0768 0.350397,0 0.637084,-0.0208 0.637084,-0.0462 0,-0.0254 -0.31743,-0.46791 -0.705402,-0.9833 -0.604318,-0.60797 -2.248963,-3.27398 -2.628545,-4.90089"
         style="fill:none;stroke:#ff0000;stroke-width:0.08022742"
         id="path27" />
      <path
         sodipodi:nodetypes="cccccsscsccssccssssccc"
         inkscape:connector-curvature="0"
         id="path23"
         d="m 21.332055,246.6637 c 0.851586,0.64188 2.0919,1.16778 2.132207,1.17025 0.04032,0.002 -0.02311,-0.34388 -0.140983,-0.76968 -0.117853,-0.4258 -0.37423,-1.34161 -0.569732,-2.03515 l -0.355452,-1.26099 0.816788,-0.64424 c 0.449232,-0.35434 1.210841,-0.94015 1.692457,-1.30181 0.481613,-0.36165 0.878045,-0.6926 0.880956,-0.73543 0.003,-0.0428 -0.966507,-0.0909 -2.154257,-0.10678 l -2.159554,-0.0289 -0.639207,-1.94878 c -0.351564,-1.07183 -0.669574,-1.94879 -0.706679,-1.94879 -0.03709,0 -0.127111,0.20422 -0.200008,0.45383 -0.0729,0.2496 -0.34862,1.13857 -0.612724,1.97548 l -0.480184,1.52165 h -2.020356 c -1.116153,0 -2.020355,0.0427 -2.020355,0.0955 0,0.0525 0.696757,0.65417 1.548349,1.33702 0.851592,0.68285 1.548349,1.30177 1.548349,1.37537 0,0.0736 -0.240693,0.96914 -0.534874,1.99009 -0.294179,1.02094 -0.514534,1.87659 -0.489676,1.90145 0.996774,-0.71509 1.741896,-0.85671 2.052494,-1.01707"
         style="fill:none;stroke:#ff0000;stroke-width:0.10678269" />
      <circle
         r="1.0028427"
         cy="243.36975"
         cx="20.200493"
         id="path78"
         style="fill:none;stroke:#ff0000;stroke-width:0.30700001;stroke-miterlimit:4;stroke-dasharray:none;stroke-opacity:1" />
    </g>
    <g
       id="g932"
       transform="matrix(1.2499991,0,0,1.2499991,-4.2061708e-5,-74.2498)">
      <g
         id="text93"
         style="font-style:normal;font-weight:normal;font-size:10.58333302px;line-height:125%;font-family:sans-serif;letter-spacing:0px;word-spacing:0px;fill:#000000;fill-opacity:1;stroke:none;stroke-width:0.26458332px;stroke-linecap:butt;stroke-linejoin:miter;stroke-opacity:1"
         aria-label="Prep Red">
        <path
           id="path886"
           style="font-style:normal;font-variant:normal;font-weight:500;font-stretch:normal;font-size:7.05555534px;font-family:'Always In My Heart';-inkscape-font-specification:'Always In My Heart, Medium';font-variant-ligatures:normal;font-variant-caps:normal;font-variant-numeric:normal;font-feature-settings:normal;text-align:center;writing-mode:lr-tb;text-anchor:middle;stroke-width:0.26458332px"
           d="m 58.679035,261.54132 q 0.04233,0.0635 0.02117,0.14111 -0.197556,0.889 -0.310445,2.13783 0.613834,-0.0988 1.008945,-0.27516 0.366889,-0.16228 0.613833,-0.32456 0.239889,-0.16933 0.366889,-0.39511 0.246944,-0.43744 0.02117,-0.79728 -0.211667,-0.35277 -0.719667,-0.48683 -0.479778,-0.127 -1.001889,0 z m -1.721555,0.49389 q 1.481666,-1.21356 2.822222,-0.86078 0.649111,0.16933 0.945444,0.65617 0.338667,0.55033 -0.0071,1.17828 -0.119945,0.21166 -0.345723,0.40216 -0.218722,0.18345 -0.388055,0.27517 -0.176389,0.0988 -0.430389,0.21167 -0.458611,0.20461 -1.199444,0.31044 l -0.0635,0.70556 q -0.03528,0.46566 -0.04939,0.67733 -0.0071,0.0776 -0.07056,0.13405 -0.05644,0.0494 -0.134055,0.0423 -0.07761,-0.007 -0.134056,-0.0635 -0.04939,-0.0635 -0.04233,-0.14111 l 0.0635,-0.74789 q 0.04233,-0.5715 0.0635,-0.83961 0.02822,-0.27517 0.07761,-0.73378 0.04939,-0.45861 0.112889,-0.83961 0.0635,-0.381 0.141111,-0.74789 -0.550333,0.21167 -1.121833,0.67733 -0.0635,0.0494 -0.141112,0.0423 -0.07761,-0.007 -0.127,-0.0706 -0.04939,-0.0635 -0.04233,-0.14111 0.0071,-0.0776 0.07056,-0.127 z"
           inkscape:connector-curvature="0" />
        <path
           id="path888"
           style="font-style:normal;font-variant:normal;font-weight:500;font-stretch:normal;font-size:7.05555534px;font-family:'Always In My Heart';-inkscape-font-specification:'Always In My Heart, Medium';font-variant-ligatures:normal;font-variant-caps:normal;font-variant-numeric:normal;font-feature-settings:normal;text-align:center;writing-mode:lr-tb;text-anchor:middle;stroke-width:0.26458332px"
           d="m 61.21198,263.31932 q 0.296333,0.0706 0.585611,0.0917 h 0.0071 q 0.01411,-0.007 0.0635,-0.007 0.169334,-0.0212 0.254,0.0988 0.04233,0.0564 0.04233,0.14112 0,0.0353 -0.0071,0.0917 -0.0071,0.0635 -0.03528,0.1905 l -0.07055,0.26105 q -0.04939,0.18345 -0.07056,0.27517 -0.08467,0.34572 -0.112889,0.5715 -0.04233,0.27517 0,0.39511 0.02822,0.0917 0.09172,0.14817 0.0635,0.0564 0.141112,0.0494 0.254,-0.0141 0.479777,-0.50095 0.176389,-0.37394 0.282222,-0.86783 0.0071,-0.0776 0.07056,-0.11995 0.07056,-0.0494 0.141111,-0.0282 0.07056,0.0141 0.112889,0.0847 0.04939,0.0635 0.02822,0.13405 -0.112889,0.54328 -0.303389,0.95956 -0.3175,0.69144 -0.797277,0.71967 -0.218723,0.0141 -0.381,-0.13406 -0.162278,-0.14111 -0.225778,-0.33161 -0.05645,-0.19756 -0.0071,-0.55739 0.02822,-0.24694 0.119945,-0.61383 0.02822,-0.0917 0.07056,-0.27517 l 0.0635,-0.254 0.01411,-0.0564 q -0.232833,-0.0141 -0.451555,-0.0564 l -0.02822,0.15522 q -0.02117,0.0917 -0.03528,0.13406 -0.0071,0.0282 -0.02117,0.0635 l -0.04939,0.14111 q -0.03528,0.0917 -0.07761,0.1905 -0.02822,0.0776 -0.09878,0.11289 -0.0635,0.0282 -0.134055,0 -0.07056,-0.0282 -0.105833,-0.0988 -0.02822,-0.0705 0,-0.14111 0.03528,-0.10583 0.0635,-0.1905 0.03528,-0.0917 0.04939,-0.11994 0.01411,-0.0353 0.02117,-0.0635 0.0071,-0.0282 0.02117,-0.10584 l 0.05644,-0.254 q 0,-0.0141 0.0071,-0.0282 0,-0.0353 0.0071,-0.0635 0.01411,-0.0776 0.07761,-0.11994 0.0635,-0.0423 0.141112,-0.0212 z"
           inkscape:connector-curvature="0" />
        <path
           id="path890"
           style="font-style:normal;font-variant:normal;font-weight:500;font-stretch:normal;font-size:7.05555534px;font-family:'Always In My Heart';-inkscape-font-specification:'Always In My Heart, Medium';font-variant-ligatures:normal;font-variant-caps:normal;font-variant-numeric:normal;font-feature-settings:normal;text-align:center;writing-mode:lr-tb;text-anchor:middle;stroke-width:0.26458332px"
           d="m 63.14432,264.70926 q 0.169333,0.0988 0.345722,0.0423 0.218722,-0.0776 0.381,-0.32456 0.155222,-0.23989 0.141111,-0.45155 -0.0071,-0.18345 -0.169333,-0.23284 -0.1905,-0.0706 -0.395112,0.20461 -0.232833,0.30339 -0.303388,0.762 z m -0.0071,0.40923 q 0.02117,0.20461 0.105833,0.33161 0.176389,0.26105 0.606778,0.16227 0.352778,-0.0847 0.550333,-0.45861 0.07056,-0.13405 0.127,-0.27516 0.05644,-0.14817 0.119945,-0.33867 0.0635,-0.1905 0.112889,-0.32455 0.02822,-0.0706 0.09878,-0.0988 0.07055,-0.0353 0.141111,-0.007 0.07761,0.0282 0.105833,0.0988 0.03528,0.0706 0.0071,0.14817 l -0.09878,0.29633 q -0.07056,0.19756 -0.134056,0.36689 -0.0635,0.16933 -0.141111,0.3175 -0.275167,0.52211 -0.804333,0.64205 -0.684389,0.16228 -1.001889,-0.3175 -0.254,-0.37394 -0.162278,-0.98777 0.07761,-0.5715 0.373945,-0.95956 0.162277,-0.21167 0.373944,-0.31044 0.211667,-0.10584 0.451556,-0.0282 0.402166,0.14112 0.423333,0.57856 0.02117,0.33867 -0.204611,0.68439 -0.232834,0.35983 -0.578556,0.47272 -0.239889,0.0776 -0.472722,0.007 z"
           inkscape:connector-curvature="0" />
        <path
           id="path892"
           style="font-style:normal;font-variant:normal;font-weight:500;font-stretch:normal;font-size:7.05555534px;font-family:'Always In My Heart';-inkscape-font-specification:'Always In My Heart, Medium';font-variant-ligatures:normal;font-variant-caps:normal;font-variant-numeric:normal;font-feature-settings:normal;text-align:center;writing-mode:lr-tb;text-anchor:middle;stroke-width:0.26458332px"
           d="m 65.011066,265.3866 q 0.02822,0 0.05644,0.0141 0.719667,0.254 1.016,-0.14111 0.127,-0.16934 0.162278,-0.43039 0.03528,-0.26811 -0.02822,-0.52211 -0.05645,-0.26106 -0.169334,-0.40922 -0.105833,-0.15523 -0.218722,-0.16934 -0.119944,-0.0212 -0.268111,0.127 -0.225778,0.20461 -0.437444,0.68439 -0.02822,0.0494 -0.07056,0.0847 -0.02117,0.21166 -0.02822,0.35983 z m 0.881944,0.4445 q -0.381,0.11289 -0.896055,-0.0564 -0.0071,0.30339 -0.0071,1.03011 0,0.72673 -0.01411,1.12184 0,0.0776 -0.0635,0.127 -0.05645,0.0564 -0.134056,0.0564 -0.07761,0 -0.134055,-0.0635 -0.04939,-0.0564 -0.04939,-0.13405 0.0071,-0.35278 0.01411,-1.37584 0.0071,-1.016 0.03528,-1.56633 0.0071,-0.17639 0.04233,-0.57856 0.04233,-0.40216 0.04939,-0.61383 0,-0.0776 0.05644,-0.127 0.0635,-0.0564 0.141112,-0.0564 0.07761,0 0.127,0.0564 0.05644,0.0564 0.05644,0.127 0.09172,-0.11994 0.183444,-0.20461 0.282223,-0.26811 0.585612,-0.22578 0.275166,0.0423 0.451555,0.29634 0.183445,0.24694 0.254,0.57855 0.07056,0.27517 0.03528,0.60678 -0.03528,0.33161 -0.183445,0.57855 0.225778,-0.0564 0.359834,-0.21166 0.03528,-0.0494 0.07055,-0.11289 0.04233,-0.0635 0.07056,-0.11289 0.02822,-0.0564 0.0635,-0.16933 0.04233,-0.11289 0.0635,-0.16934 0.02117,-0.0564 0.07055,-0.21872 0.05645,-0.16228 0.07761,-0.23989 0.02822,-0.0706 0.09878,-0.10583 0.07056,-0.0353 0.141111,-0.007 0.07761,0.0212 0.112889,0.0917 0.03528,0.0705 0.01411,0.14816 l -0.07055,0.21872 -0.08467,0.22578 -0.07055,0.19756 q -0.04233,0.11994 -0.07761,0.1905 -0.03528,0.0705 -0.08467,0.16227 -0.04939,0.0847 -0.105833,0.14817 -0.183445,0.21872 -0.472723,0.31045 -0.282222,0.0917 -0.726722,0.0776 z"
           inkscape:connector-curvature="0" />
        <path
           id="path894"
           style="font-style:normal;font-variant:normal;font-weight:500;font-stretch:normal;font-size:7.05555534px;font-family:'Always In My Heart';-inkscape-font-specification:'Always In My Heart, Medium';font-variant-ligatures:normal;font-variant-caps:normal;font-variant-numeric:normal;font-feature-settings:normal;text-align:center;writing-mode:lr-tb;text-anchor:middle;stroke-width:0.26458332px"
           d="m 70.394123,261.66126 q 0,0.0212 -0.0071,0.0494 -0.183445,0.8255 -0.289278,1.92617 0.515055,-0.0776 0.874889,-0.23989 0.620889,-0.29633 0.797277,-0.62794 0.1905,-0.35984 0.01411,-0.67734 -0.169334,-0.31044 -0.5715,-0.42333 -0.395111,-0.11289 -0.818445,-0.007 z m -1.474611,0.40923 q 0.508,-0.46567 1.135945,-0.70556 0.635,-0.23989 1.255888,-0.0635 0.557389,0.16228 0.811389,0.60678 0.268111,0.50094 -0.01411,1.04422 -0.232833,0.43039 -0.980722,0.78317 -0.352778,0.16228 -0.783167,0.24694 0.03528,0.0494 0.148167,0.22578 l 0.155222,0.23989 0.155222,0.22578 0.162278,0.23989 q 0.0635,0.0847 0.162278,0.19755 l 0.176389,0.21872 q 0.684389,0.76906 1.488722,0.84667 0.07761,0.007 0.127,0.0635 0.04939,0.0635 0.04233,0.14111 -0.0071,0.0847 -0.07055,0.13406 -0.05644,0.0494 -0.141111,0.0423 -0.945445,-0.0917 -1.728611,-0.97367 l -0.155223,-0.17639 q -0.07761,-0.0917 -0.162277,-0.20461 l -0.127,-0.1905 -0.155223,-0.21166 -0.127,-0.1905 -0.127,-0.21167 q -0.105833,-0.16228 -0.127,-0.1905 l -0.05644,0.73378 q -0.04233,0.47272 -0.05644,0.67733 -0.0071,0.0776 -0.07056,0.13406 -0.05644,0.0494 -0.134056,0.0423 -0.07761,-0.007 -0.134055,-0.0635 -0.04939,-0.0635 -0.04233,-0.14111 l 0.05644,-0.73378 q 0.04233,-0.53622 0.0635,-0.80433 0.02822,-0.26811 0.07056,-0.70556 0.04939,-0.43744 0.105833,-0.81139 0.0635,-0.37394 0.134055,-0.73377 -0.416277,0.19755 -0.804333,0.55033 -0.05644,0.0494 -0.134055,0.0494 -0.07761,0 -0.134056,-0.0565 -0.04939,-0.0635 -0.04939,-0.14111 0,-0.0776 0.0635,-0.13405 z"
           inkscape:connector-curvature="0" />
        <path
           id="path896"
           style="font-style:normal;font-variant:normal;font-weight:500;font-stretch:normal;font-size:7.05555534px;font-family:'Always In My Heart';-inkscape-font-specification:'Always In My Heart, Medium';font-variant-ligatures:normal;font-variant-caps:normal;font-variant-numeric:normal;font-feature-settings:normal;text-align:center;writing-mode:lr-tb;text-anchor:middle;stroke-width:0.26458332px"
           d="m 73.231559,264.70926 q 0.169333,0.0988 0.345722,0.0423 0.218722,-0.0776 0.381,-0.32456 0.155222,-0.23989 0.141111,-0.45155 -0.0071,-0.18345 -0.169333,-0.23284 -0.1905,-0.0706 -0.395111,0.20461 -0.232834,0.30339 -0.303389,0.762 z m -0.0071,0.40923 q 0.02117,0.20461 0.105834,0.33161 0.176389,0.26105 0.606777,0.16227 0.352778,-0.0847 0.550334,-0.45861 0.07055,-0.13405 0.127,-0.27516 0.05644,-0.14817 0.119944,-0.33867 0.0635,-0.1905 0.112889,-0.32455 0.02822,-0.0706 0.09878,-0.0988 0.07055,-0.0353 0.141111,-0.007 0.07761,0.0282 0.105833,0.0988 0.03528,0.0706 0.0071,0.14817 l -0.09878,0.29633 q -0.07056,0.19756 -0.134056,0.36689 -0.0635,0.16933 -0.141111,0.3175 -0.275166,0.52211 -0.804333,0.64205 -0.684389,0.16228 -1.001889,-0.3175 -0.254,-0.37394 -0.162278,-0.98777 0.07761,-0.5715 0.373945,-0.95956 0.162278,-0.21167 0.373944,-0.31044 0.211667,-0.10584 0.451556,-0.0282 0.402167,0.14112 0.423333,0.57856 0.02117,0.33867 -0.204611,0.68439 -0.232833,0.35983 -0.578555,0.47272 -0.239889,0.0776 -0.472723,0.007 z"
           inkscape:connector-curvature="0" />
        <path
           id="path898"
           style="font-style:normal;font-variant:normal;font-weight:500;font-stretch:normal;font-size:7.05555534px;font-family:'Always In My Heart';-inkscape-font-specification:'Always In My Heart, Medium';font-variant-ligatures:normal;font-variant-caps:normal;font-variant-numeric:normal;font-feature-settings:normal;text-align:center;writing-mode:lr-tb;text-anchor:middle;stroke-width:0.26458332px"
           d="m 76.105925,264.85743 q -0.03528,-0.13405 -0.0635,-0.28928 -0.07761,-0.381 -0.08467,-0.39511 -0.0071,-0.0282 -0.0071,-0.0564 -0.162278,-0.21872 -0.310444,-0.21872 -0.169334,0 -0.338667,0.27516 -0.1905,0.31045 -0.225778,0.69145 -0.04233,0.381 0.105834,0.57855 0.112889,0.15522 0.324555,0.0706 0.225778,-0.0917 0.388056,-0.3175 0.105833,-0.14817 0.211666,-0.33867 z m 0.176389,-0.79728 q 0.03528,0.0635 0.0635,0.14817 0,0.007 0.0071,0.0141 0.197555,-0.74083 0.345722,-1.76389 0,-0.0212 0,-0.0353 0,-0.0423 0.0071,-0.15522 0.0071,-0.11289 0.0071,-0.16933 0.01411,-0.1905 -0.01411,-0.28222 -0.02822,-0.14111 -0.08467,-0.14111 -0.07761,-0.007 -0.162277,0.13405 -0.197556,0.33161 -0.225778,1.15711 -0.02117,0.59267 0.05644,1.09361 z m -0.416277,-0.49389 q -0.03528,-0.40216 -0.02117,-0.79727 0.04939,-1.016 0.423333,-1.47461 0.246945,-0.30339 0.550333,-0.28223 0.169334,0.007 0.289278,0.11995 0.127,0.11289 0.1905,0.30339 0.04939,0.16227 0.03528,0.43039 0,0.0635 -0.01411,0.1905 -0.0071,0.127 -0.0071,0.18344 0,0.0353 -0.02117,0.0776 -0.3175,1.62983 -0.783167,2.58233 l 0.05644,0.1905 q 0.105833,0.29634 0.218722,0.39511 0.02822,0.0282 0.05644,0.0282 0.04233,0 0.105833,-0.0494 0.409223,-0.3175 0.592667,-1.31939 0.01411,-0.0776 0.07761,-0.11994 0.07056,-0.0494 0.148167,-0.0353 0.07761,0.0141 0.119944,0.0847 0.04939,0.0635 0.03528,0.14112 -0.211667,1.14299 -0.733778,1.54516 -0.176389,0.13406 -0.345722,0.13406 -0.169333,0 -0.310444,-0.11995 -0.155222,-0.14111 -0.275167,-0.43039 l -0.04939,0.0776 q -0.225778,0.31045 -0.557389,0.4445 -0.176389,0.0917 -0.402166,0.0494 -0.218723,-0.0423 -0.373945,-0.24694 -0.225778,-0.31045 -0.176389,-0.84667 0.04939,-0.47272 0.282223,-0.85372 0.282222,-0.4445 0.663222,-0.45155 0.112889,0 0.225778,0.0494 z"
           inkscape:connector-curvature="0" />
      </g>
      <g
         id="text27"
         style="font-style:normal;font-weight:normal;font-size:10.58333302px;line-height:125%;font-family:sans-serif;letter-spacing:0px;word-spacing:0px;fill:#000000;fill-opacity:1;stroke:none;stroke-width:0.26458332px;stroke-linecap:butt;stroke-linejoin:miter;stroke-opacity:1"
         aria-label="2017">
        <path
           id="path877"
           style="font-style:normal;font-variant:normal;font-weight:500;font-stretch:normal;font-size:10.58333302px;font-family:'Always In My Heart';-inkscape-font-specification:'Always In My Heart, Medium';font-variant-ligatures:normal;font-variant-caps:normal;font-variant-numeric:normal;font-feature-settings:normal;text-align:start;writing-mode:lr-tb;text-anchor:start;stroke-width:0.26458332px"
           d="m 60.281154,271.06176 q 0.338667,-0.381 0.889,-0.61383 0.550334,-0.23283 1.058334,-0.22225 0.613833,0.0317 0.899583,0.43392 0.306917,0.4445 0.08467,1.19591 -0.232834,0.762 -1.17475,1.73567 -0.529167,0.53975 -1.513417,1.36525 l -0.3175,0.26458 q 0.22225,-0.0106 1.449917,-0.0529 1.132416,-0.0529 1.841499,-0.0106 0.127,0.0106 0.201084,0.0953 0.08467,0.0847 0.07408,0.21167 -0.01058,0.11642 -0.09525,0.1905 -0.08467,0.0847 -0.201083,0.0741 -0.687917,-0.0423 -1.799167,0.0106 -1.42875,0.0529 -1.830916,0.0529 -0.01058,0 -0.0635,0.0106 -0.105834,0.0106 -0.148167,0.0212 -0.34925,0.0318 -0.465667,-0.23283 -0.01058,-0.0317 -0.02117,-0.0741 0,-0.0423 0,-0.0635 0,-0.0317 0,-0.0529 0.01058,-0.0212 0.02117,-0.0318 l 0.01058,-0.0106 q 0.01058,-0.0318 0.02117,-0.0529 0.01058,-0.0106 0.02117,-0.0317 0.01058,0 0.02117,-0.0106 l 0.01058,-0.0106 h 0.01058 l 0.02117,-0.0318 0.105833,-0.0847 0.296334,-0.24342 0.47625,-0.381 q 0.963083,-0.80433 1.4605,-1.31233 0.846666,-0.86784 1.037166,-1.51342 0.148167,-0.48683 0,-0.6985 -0.127,-0.16933 -0.455083,-0.1905 -0.381,-0.0106 -0.814917,0.17992 -0.433916,0.17991 -0.687916,0.46566 -0.07408,0.0847 -0.201084,0.0952 -0.116416,0.0106 -0.201083,-0.0635 -0.08467,-0.0847 -0.09525,-0.20108 -0.01058,-0.127 0.07408,-0.21167 z"
           inkscape:connector-curvature="0" />
        <path
           id="path879"
           style="font-style:normal;font-variant:normal;font-weight:500;font-stretch:normal;font-size:10.58333302px;font-family:'Always In My Heart';-inkscape-font-specification:'Always In My Heart, Medium';font-variant-ligatures:normal;font-variant-caps:normal;font-variant-numeric:normal;font-feature-settings:normal;text-align:start;writing-mode:lr-tb;text-anchor:start;stroke-width:0.26458332px"
           d="m 66.50217,270.79718 q -0.15875,0.0106 -0.254,0.0423 -0.4445,0.16934 -0.772584,0.889 -0.338666,0.74084 -0.359833,1.5875 -0.02117,0.889 0.3175,1.40759 0.338667,0.53975 1.026583,0.49741 0.719667,-0.0423 1.11125,-0.67733 0.402167,-0.635 0.370417,-1.54517 -0.02117,-0.87841 -0.423333,-1.50283 -0.391584,-0.62442 -1.016,-0.6985 z m 0.423333,-0.49742 q 0.497417,0.15875 0.85725,0.60325 0.370416,0.43392 0.53975,0.97367 0.169333,0.52917 0.1905,1.10067 0.01058,0.49741 -0.105834,0.96308 -0.105833,0.46567 -0.338666,0.87842 -0.22225,0.41275 -0.635,0.67733 -0.402167,0.26458 -0.931333,0.29633 -1.026584,0.0635 -1.55575,-0.75141 -0.423334,-0.67734 -0.402167,-1.73567 0.02117,-0.98425 0.41275,-1.82033 0.433917,-0.93134 1.100667,-1.17475 0.09525,-0.0423 0.243416,-0.0635 0.0635,-0.0317 0.137584,-0.0317 h 0.05292 q 0.137584,-0.0106 0.15875,-0.0212 0.169334,-0.0212 0.275167,0.10583 z"
           inkscape:connector-curvature="0" />
        <path
           id="path881"
           style="font-style:normal;font-variant:normal;font-weight:500;font-stretch:normal;font-size:10.58333302px;font-family:'Always In My Heart';-inkscape-font-specification:'Always In My Heart, Medium';font-variant-ligatures:normal;font-variant-caps:normal;font-variant-numeric:normal;font-feature-settings:normal;text-align:start;writing-mode:lr-tb;text-anchor:start;stroke-width:0.26458332px"
           d="m 70.67531,270.6596 q -0.127,2.96333 -0.169333,4.73075 0,0.11641 -0.08467,0.20108 -0.08467,0.0741 -0.211666,0.0741 -0.116417,0 -0.201084,-0.0847 -0.07408,-0.0847 -0.07408,-0.21167 0.04233,-1.76742 0.169333,-4.73075 0.01058,-0.11642 0.09525,-0.1905 0.08467,-0.0847 0.201084,-0.0741 0.116416,0 0.1905,0.0847 0.08467,0.0847 0.08467,0.20109 z"
           inkscape:connector-curvature="0" />
        <path
           id="path883"
           style="font-style:normal;font-variant:normal;font-weight:500;font-stretch:normal;font-size:10.58333302px;font-family:'Always In My Heart';-inkscape-font-specification:'Always In My Heart, Medium';font-variant-ligatures:normal;font-variant-caps:normal;font-variant-numeric:normal;font-feature-settings:normal;text-align:start;writing-mode:lr-tb;text-anchor:start;stroke-width:0.26458332px"
           d="m 72.697058,270.41618 h 1.2065 q 0.740833,0.0106 1.164166,0.0423 0.264584,0.0212 0.423334,0.0635 0.105833,0.0212 0.179916,0.0529 0.127,0.0635 0.1905,0.16933 0.04233,0.0847 0.03175,0.17992 l -0.02117,0.0635 q 0,0.0212 -0.02117,0.0423 0,0.0106 -0.01058,0.0317 -0.01058,0.0106 -0.03175,0.0317 l -0.08467,0.10584 -0.254,0.3175 -0.465666,0.5715 q -0.814917,1.00541 -1.3335,1.75683 -0.550334,0.80433 -0.889,1.62983 -0.04233,0.11642 -0.15875,0.15875 -0.105834,0.0423 -0.22225,0 -0.105834,-0.0423 -0.148167,-0.14816 -0.04233,-0.11642 0,-0.22225 0.370417,-0.889 0.941917,-1.73567 0.529166,-0.77258 1.36525,-1.79917 l 0.465666,-0.5715 0.09525,-0.11641 q -0.05292,0 -0.105833,-0.0106 -0.402167,-0.0317 -1.121833,-0.0423 h -1.185334 q -0.635,0.0106 -0.762,0 -0.116416,-0.0106 -0.201083,-0.0953 -0.07408,-0.0952 -0.0635,-0.21167 0.01058,-0.11641 0.09525,-0.1905 0.09525,-0.0847 0.211667,-0.0741 0.116416,0.0106 0.709083,0 z"
           inkscape:connector-curvature="0" />
      </g>
    </g>
    <g
       id="g944"
       transform="matrix(1.2499991,0,0,1.2499991,-4.2061708e-5,-74.2498)">
      <g
         id="text87"
         style="font-style:normal;font-weight:normal;font-size:10.58333302px;line-height:125%;font-family:sans-serif;letter-spacing:0px;word-spacing:0px;fill:#000000;fill-opacity:1;stroke:none;stroke-width:0.26458332px;stroke-linecap:butt;stroke-linejoin:miter;stroke-opacity:1"
         aria-label="Thank">
        <path
           id="path908"
           style="font-style:normal;font-variant:normal;font-weight:500;font-stretch:normal;font-size:10.58333302px;font-family:'Always In My Heart';-inkscape-font-specification:'Always In My Heart, Medium';font-variant-ligatures:normal;font-variant-caps:normal;font-variant-numeric:normal;font-feature-settings:normal;text-align:center;writing-mode:lr-tb;text-anchor:middle;stroke-width:0.26458332px"
           d="m 10.344949,276.09338 q -0.4021671,0.0529 -0.6985005,-0.13758 -0.2857499,-0.20108 -0.4021666,-0.53975 -0.1164167,-0.28575 -0.042333,-0.64558 0.074083,-0.37042 0.3386666,-0.62442 0.2963333,-0.26458 0.9842495,-0.4445 0.47625,-0.11642 1.3335,-0.22225 0.05292,-0.0106 1.36525,-0.13758 0.740833,-0.0741 1.037167,-0.127 0.211666,-0.0529 0.772583,-0.23284 l 0.359833,-0.127 0.127,-0.0317 q 0.03175,-0.0106 0.05292,-0.0212 h 0.0635 q 0.04233,0 0.08467,0.0106 0.09525,0.0317 0.15875,0.11642 0.105833,0.16933 0.02117,0.34925 -0.03175,0.0847 -0.116416,0.15875 -0.04233,0.0318 -0.0635,0.0529 -0.02117,0.0212 -0.03175,0.0317 -0.01058,0 -0.01058,0.0106 0,0 -0.01058,0 -0.687917,0.99483 -0.910167,1.79916 -0.105833,0.41275 -0.179916,1.32292 -0.08467,1.11125 -0.148167,1.49225 -0.07408,0.40217 -0.1905,0.74083 -0.105833,0.32809 -0.296333,0.65617 -0.1905,0.32808 -0.508,0.58208 -0.3175,0.254 -0.740834,0.40217 -0.3175,0.11642 -0.624416,0.11642 -0.306917,0.0106 -0.560917,-0.0635 -0.243417,-0.0741 -0.508,-0.23284 -0.254,-0.15875 -0.4445,-0.3175 -0.1905,-0.16933 -0.402166,-0.39158 -0.08467,-0.0847 -0.08467,-0.20108 0,-0.127 0.08467,-0.20109 0.08467,-0.0847 0.201083,-0.0847 0.127,0 0.201083,0.0847 0.529167,0.53975 0.973667,0.74084 0.455083,0.20108 0.973666,0.0212 0.624417,-0.23283 0.931334,-0.70908 0.306916,-0.48683 0.423333,-1.23825 0.0635,-0.35983 0.148167,-1.43933 0.0635,-0.94192 0.201083,-1.42875 0.201083,-0.74084 0.719667,-1.56634 -0.359834,0.11642 -0.560917,0.14817 -0.3175,0.0741 -1.090083,0.14817 -1.100667,0.10583 -1.354667,0.13758 -0.783167,0.0847 -1.259416,0.21167 -0.53975,0.127 -0.7196668,0.30691 -0.1481667,0.127 -0.1905,0.3175 -0.03175,0.1905 0.03175,0.33867 0.1164166,0.34925 0.4762498,0.29633 0.116417,-0.0106 0.211667,0.0635 0.09525,0.0635 0.105833,0.17992 0.02117,0.11642 -0.05292,0.21167 -0.0635,0.0953 -0.179916,0.11641 z"
           inkscape:connector-curvature="0" />
        <path
           id="path910"
           style="font-style:normal;font-variant:normal;font-weight:500;font-stretch:normal;font-size:10.58333302px;font-family:'Always In My Heart';-inkscape-font-specification:'Always In My Heart, Medium';font-variant-ligatures:normal;font-variant-caps:normal;font-variant-numeric:normal;font-feature-settings:normal;text-align:center;writing-mode:lr-tb;text-anchor:middle;stroke-width:0.26458332px"
           d="m 15.866141,276.24155 q 0.03175,-0.0318 0.08467,-0.11642 0.105833,-0.13758 0.264583,-0.4445 0.15875,-0.30691 0.254,-0.62441 0.116417,-0.35984 0.09525,-0.5715 -0.01058,-0.15875 -0.09525,-0.1905 -0.15875,-0.0529 -0.306917,0.28575 -0.148166,0.32808 -0.201083,0.762 -0.0635,0.42333 -0.09525,0.89958 z m -0.6985,4.03225 q 0.01058,-0.41275 0.01058,-0.47625 0.01058,-0.23283 0.02117,-0.34925 0,-2.52942 0.211667,-4.04283 0.08467,-0.58209 0.28575,-1.02659 0.15875,-0.33866 0.423333,-0.55033 0.275167,-0.21167 0.656167,-0.0635 0.455083,0.15875 0.497416,0.6985 0.03175,0.35983 -0.137583,0.87842 -0.137583,0.40216 -0.34925,0.80433 -0.211667,0.40217 -0.370417,0.60325 -0.179916,0.22225 -0.3175,0.30692 -0.0635,0.0423 -0.275166,0.127 -0.02117,0.39158 -0.03175,0.8255 l 0.116416,-0.1905 q 0.296334,-0.47625 0.60325,-0.71967 0.433917,-0.35983 0.846667,-0.254 0.4445,0.10583 0.529167,0.79375 0.03175,0.254 0.01058,1.06892 -0.01058,0.66675 0.05292,0.94191 0.0635,0.26459 0.201083,0.27517 0.34925,0.0423 0.709083,-0.56092 0.137583,-0.23283 0.3175,-0.6985 0.05292,-0.14816 0.148167,-0.47625 0.105833,-0.33866 0.169333,-0.51858 0.04233,-0.11642 0.148167,-0.15875 0.105833,-0.0529 0.211666,-0.0106 0.116417,0.0423 0.15875,0.14816 0.05292,0.10584 0.01058,0.21167 -0.05292,0.15875 -0.148167,0.48683 -0.09525,0.34925 -0.169333,0.52917 -0.1905,0.49742 -0.359834,0.78317 -0.550333,0.91016 -1.259416,0.83608 -0.53975,-0.0635 -0.687917,-0.71967 -0.08467,-0.34925 -0.07408,-1.0795 0.02117,-0.762 -0.01058,-0.99483 -0.04233,-0.3175 -0.105834,-0.30692 -0.127,-0.0317 -0.338666,0.13759 -0.232834,0.1905 -0.486834,0.59266 -0.22225,0.34925 -0.391583,0.73025 -0.169333,0.381 -0.22225,0.58209 v 0.0212 0.86784 q 0,0.11641 -0.08467,0.20108 -0.08467,0.0847 -0.201083,0.0847 -0.15875,0 -0.243417,-0.13759 -0.07408,-0.0847 -0.07408,-0.20108 z"
           inkscape:connector-curvature="0" />
        <path
           id="path912"
           style="font-style:normal;font-variant:normal;font-weight:500;font-stretch:normal;font-size:10.58333302px;font-family:'Always In My Heart';-inkscape-font-specification:'Always In My Heart, Medium';font-variant-ligatures:normal;font-variant-caps:normal;font-variant-numeric:normal;font-feature-settings:normal;text-align:center;writing-mode:lr-tb;text-anchor:middle;stroke-width:0.26458332px"
           d="m 21.592717,277.44805 q 0.01058,0 0.02117,0.0106 0.08467,0.0847 0.09525,0.21167 0.01058,0.0953 -0.03175,0.22225 0,0.0212 -0.05292,0.127 l -0.01058,0.0529 q -0.0635,0.33866 -0.0635,0.34925 -0.02117,0.17991 -0.03175,0.35983 -0.02117,0.20108 -0.02117,0.23283 0,0.42334 0.08467,0.67734 0.116417,0.28575 0.34925,0.34925 0.211667,0.0529 0.391584,-0.10584 0.1905,-0.16933 0.381,-0.58208 0.137583,-0.30692 0.28575,-0.81492 0.201083,-0.635 0.22225,-0.68791 0.04233,-0.11642 0.148166,-0.15875 0.105834,-0.0529 0.211667,-0.0106 0.116417,0.0423 0.15875,0.14817 0.05292,0.10583 0.01058,0.21167 -0.01058,0.0423 -0.201083,0.66675 -0.15875,0.52916 -0.3175,0.889 -0.232833,0.51858 -0.529167,0.77258 -0.41275,0.35983 -0.910166,0.22225 -0.529167,-0.14817 -0.73025,-0.70908 -0.03175,-0.0741 -0.05292,-0.16934 -0.08467,0.14817 -0.179917,0.26459 -0.328083,0.4445 -0.687916,0.55033 -0.497417,0.14817 -0.899584,-0.32808 -0.296333,-0.34925 -0.264583,-1.06892 0.03175,-0.61383 0.28575,-1.24883 0.275167,-0.68792 0.687917,-1.016 0.560916,-0.42334 1.164166,-0.0953 0.338667,0.20108 0.433917,0.41275 0.03175,0.0953 0.05292,0.23283 z m -0.53975,0.30692 q -0.01058,-0.0741 -0.03175,-0.26459 -0.01058,-0.0741 -0.02117,-0.0953 0.01058,-0.0212 -0.169333,-0.11641 -0.275167,-0.15875 -0.53975,0.0423 -0.296334,0.23283 -0.508,0.77258 -0.22225,0.52917 -0.243417,1.06892 -0.02117,0.49742 0.137583,0.67733 0.15875,0.17992 0.296334,0.13759 0.169333,-0.0529 0.391583,-0.34925 0.201083,-0.26459 0.370417,-0.635 0.169333,-0.35984 0.232833,-0.58209 0.01058,-0.0423 0.02117,-0.0741 v -0.0741 q 0.03175,-0.27517 0.0635,-0.4445 0,-0.0317 0.01058,-0.0529 0,-0.0106 -0.01058,-0.0106 z"
           inkscape:connector-curvature="0" />
        <path
           id="path914"
           style="font-style:normal;font-variant:normal;font-weight:500;font-stretch:normal;font-size:10.58333302px;font-family:'Always In My Heart';-inkscape-font-specification:'Always In My Heart, Medium';font-variant-ligatures:normal;font-variant-caps:normal;font-variant-numeric:normal;font-feature-settings:normal;text-align:center;writing-mode:lr-tb;text-anchor:middle;stroke-width:0.26458332px"
           d="m 24.789875,277.32105 q -0.04233,0.0212 -0.116417,0.0847 -0.201083,0.15875 -0.4445,0.56091 -0.201083,0.33867 -0.381,0.6985 -0.169333,0.37042 -0.211666,0.508 -0.02117,0.0529 -0.04233,0.15875 -0.07408,0.4445 -0.15875,0.86784 0,0.0423 -0.01058,0.0635 0,0.0423 -0.02117,0.0847 -0.02117,0.0318 -0.05292,0.0635 -0.148167,0.14817 -0.328084,0.0635 -0.116416,-0.0529 -0.148166,-0.17991 -0.01058,-0.0212 -0.01058,-0.0529 v -0.0529 -0.0529 q 0.01058,-0.0952 0.05292,-0.30692 0.0635,-0.35983 0.116417,-0.60325 0.137583,-0.93133 0.201083,-1.89442 0.01058,-0.11641 0.09525,-0.1905 0.09525,-0.0847 0.211667,-0.0741 0.116416,0.0106 0.1905,0.10583 0.08467,0.0847 0.07408,0.20109 -0.01058,0.11641 -0.01058,0.22225 0.264583,-0.42334 0.497416,-0.62442 0.455084,-0.39158 0.8255,-0.11642 0.1905,0.13759 0.264584,0.43392 0.05292,0.20108 0.0635,0.508 0,0.1905 -0.02117,0.62442 -0.01058,0.43391 -0.01058,0.51858 -0.01058,0.64558 0.09525,0.92075 0.04233,0.127 0.105833,0.17992 0.07408,0.0423 0.211667,0.0317 0.211666,-0.0212 0.3175,-0.10584 0.07408,-0.0741 0.243416,-0.33866 0.232834,-0.35984 0.4445,-0.889 l 0.0635,-0.17992 v -0.0212 l 0.01058,-0.0847 q 0.01058,-0.0106 0.01058,-0.0212 0.01058,-0.0212 0.01058,-0.0317 l 0.04233,-0.0741 0.211666,-0.508 q 0.05292,-0.10584 0.15875,-0.14817 0.105834,-0.0423 0.211667,0.0106 0.116417,0.0423 0.15875,0.14817 0.04233,0.10583 0,0.22225 l -0.127,0.28575 v 0.0212 q -0.02117,0.0741 -0.22225,0.59266 -0.232833,0.58209 -0.486833,0.99484 -0.211667,0.32808 -0.359834,0.45508 -0.243416,0.20108 -0.645583,0.24342 -0.338667,0.0317 -0.582083,-0.13759 -0.211667,-0.14816 -0.3175,-0.4445 -0.137584,-0.37041 -0.127,-1.13241 0.01058,-0.0952 0.02117,-0.508 0.01058,-0.41275 0.01058,-0.61384 -0.01058,-0.24341 -0.04233,-0.37041 -0.02117,-0.0847 -0.04233,-0.11642 z"
           inkscape:connector-curvature="0" />
        <path
           id="path916"
           style="font-style:normal;font-variant:normal;font-weight:500;font-stretch:normal;font-size:10.58333302px;font-family:'Always In My Heart';-inkscape-font-specification:'Always In My Heart, Medium';font-variant-ligatures:normal;font-variant-caps:normal;font-variant-numeric:normal;font-feature-settings:normal;text-align:center;writing-mode:lr-tb;text-anchor:middle;stroke-width:0.26458332px"
           d="m 27.868633,276.31563 q 0.03175,-0.0423 0.08467,-0.127 0.09525,-0.15875 0.232833,-0.508 0.137584,-0.35983 0.232834,-0.71966 0.105833,-0.40217 0.08467,-0.64559 -0.01058,-0.17991 -0.08467,-0.22225 -0.148167,-0.0635 -0.28575,0.32809 -0.127,0.37041 -0.179917,0.86783 -0.05292,0.48683 -0.08467,1.02658 z m -0.08467,2.032 q -0.01058,0.22225 -0.01058,0.47625 h 0.01058 q 0.529166,-0.0635 1.037166,-0.41275 0.529167,-0.35983 0.486834,-0.74083 -0.02117,-0.16933 -0.127,-0.254 -0.3175,-0.254 -0.772584,0.0953 -0.423333,0.33867 -0.624416,0.83608 z m 0.3175,0.99484 q 0.656166,0.65616 1.344083,0.49741 0.381,-0.0953 0.814917,-0.94191 0.3175,-0.64559 0.529166,-1.397 0.03175,-0.11642 0.127,-0.16934 0.105834,-0.0635 0.22225,-0.0318 0.116417,0.0318 0.169334,0.13759 0.0635,0.0952 0.03175,0.21166 -0.22225,0.81492 -0.5715,1.50284 -0.560917,1.09008 -1.195917,1.23825 -0.941917,0.22225 -1.799167,-0.5715 v 0.30691 q 0,0.11642 -0.08467,0.20109 -0.08467,0.0847 -0.201084,0.0847 -0.116416,0 -0.201083,-0.0847 -0.08467,-0.0847 -0.08467,-0.20109 0,-1.23825 0,-1.72508 0.01058,-0.48683 0.05292,-1.44992 0.05292,-0.97366 0.15875,-1.74625 0.08467,-0.58208 0.28575,-1.02658 0.15875,-0.33867 0.423333,-0.55033 0.275167,-0.21167 0.656167,-0.0635 0.455083,0.15875 0.497417,0.6985 0.03175,0.35983 -0.137584,0.87841 -0.137583,0.40217 -0.34925,0.80434 -0.211666,0.40216 -0.370416,0.60325 -0.179917,0.22225 -0.3175,0.30691 -0.0635,0.0423 -0.275167,0.127 l -0.02117,0.30692 q 0.127,-0.127 0.254,-0.22225 0.211667,-0.16933 0.433917,-0.254 0.232833,-0.0952 0.508,-0.0635 0.28575,0.0212 0.53975,0.22225 0.296333,0.23283 0.338667,0.635 0.07408,0.71967 -0.740834,1.28058 -0.47625,0.3175 -1.037166,0.45509 z"
           inkscape:connector-curvature="0" />
      </g>
      <g
         id="text846"
         style="font-style:normal;font-weight:normal;font-size:10.58333302px;line-height:125%;font-family:sans-serif;letter-spacing:0px;word-spacing:0px;fill:#000000;fill-opacity:1;stroke:none;stroke-width:0.26458332px;stroke-linecap:butt;stroke-linejoin:miter;stroke-opacity:1"
         aria-label="You">
        <path
           id="path901"
           style="font-style:normal;font-variant:normal;font-weight:500;font-stretch:normal;font-size:10.58333302px;font-family:'Always In My Heart';-inkscape-font-specification:'Always In My Heart, Medium';font-variant-ligatures:normal;font-variant-caps:normal;font-variant-numeric:normal;font-feature-settings:normal;text-align:start;writing-mode:lr-tb;text-anchor:start;stroke-width:0.26458332px"
           d="m 15.746489,281.90664 q -0.01058,0.0953 -0.05292,0.28575 l -0.127,0.48684 q -0.08467,0.30691 -0.137583,0.55033 -0.28575,1.15358 -0.41275,2.02142 -0.169334,1.16416 -0.03175,1.73566 0.0635,0.28575 0.179916,0.39159 0.105834,0.0953 0.3175,0.0635 0.740834,-0.11642 1.49225,-1.524 0.391584,-0.73025 0.9525,-2.31775 0.09525,-0.28575 0.41275,-1.5875 0.01058,-0.0635 0.05292,-0.34925 0.02117,-0.11642 0.03175,-0.14817 0.01058,-0.0317 0.01058,-0.0529 0.02117,-0.0529 0.0635,-0.0952 0.08467,-0.0953 0.211667,-0.0953 0.15875,0 0.243416,0.127 l 0.04233,0.11642 v 0.0423 0.0423 q -0.01058,0.45508 -0.09525,0.9525 -0.07408,0.49741 -0.211667,1.15358 -0.137583,0.64558 -0.179917,0.889 -0.08467,0.43392 -0.359833,2.37067 -0.01058,0.0317 -0.05292,0.33866 -0.04233,0.29634 -0.05292,0.39159 -0.01058,0.0847 -0.0635,0.33866 -0.04233,0.254 -0.08467,0.39159 -0.03175,0.14816 -0.09525,0.33866 -0.0635,0.17992 -0.137583,0.34925 -0.550333,1.18533 -1.862667,1.30175 -0.804333,0.0635 -1.42875,-0.21167 -0.105833,-0.0529 -0.148166,-0.16933 -0.04233,-0.10583 0,-0.21167 0.05292,-0.10583 0.15875,-0.14816 0.116416,-0.0423 0.22225,0 0.497416,0.22225 1.153583,0.16933 0.98425,-0.0847 1.386417,-0.96308 0.05292,-0.11642 0.09525,-0.24342 0.05292,-0.127 0.08467,-0.28575 l 0.0635,-0.254 q 0.03175,-0.11641 0.0635,-0.30691 0.03175,-0.20109 0.04233,-0.28575 0.01058,-0.0847 0.04233,-0.3175 l 0.04233,-0.30692 0.179917,-1.27 q -0.137583,0.30692 -0.275167,0.5715 -0.878416,1.66158 -1.915583,1.83092 -0.465667,0.0741 -0.783167,-0.20109 -0.254,-0.23283 -0.359833,-0.6985 -0.15875,-0.68791 0.02117,-1.94733 0.127,-0.86783 0.423333,-2.07433 l 0.137583,-0.53975 0.116417,-0.48684 0.07408,-0.26458 q 0.02117,-0.11642 0.116417,-0.17992 0.09525,-0.0741 0.211667,-0.0423 0.116416,0.0212 0.179916,0.11642 0.07408,0.0953 0.04233,0.21166 z"
           inkscape:connector-curvature="0" />
        <path
           id="path903"
           style="font-style:normal;font-variant:normal;font-weight:500;font-stretch:normal;font-size:10.58333302px;font-family:'Always In My Heart';-inkscape-font-specification:'Always In My Heart, Medium';font-variant-ligatures:normal;font-variant-caps:normal;font-variant-numeric:normal;font-feature-settings:normal;text-align:start;writing-mode:lr-tb;text-anchor:start;stroke-width:0.26458332px"
           d="m 20.404974,287.62164 -0.04233,-0.0423 q -0.338667,-0.39158 -0.550333,-0.92075 -0.201084,-0.53975 -0.1905,-1.05833 -0.169334,0.3175 -0.264584,0.64558 -0.179916,0.59267 -0.07408,1.00542 0.105833,0.37041 0.47625,0.45508 0.370417,0.0741 0.645583,-0.0847 z m 0.391584,-0.42333 q 0.232833,-0.41275 0.254,-1.03717 0.03175,-0.73025 -0.211667,-1.143 -0.08467,-0.16933 -0.1905,-0.20108 -0.08467,-0.0423 -0.211667,0.0317 -0.01058,0 -0.02117,0.0212 -0.03175,0.0635 -0.07408,0.15875 -0.232833,0.46566 -0.09525,1.0795 0.148167,0.61383 0.550334,1.09008 z m -0.04233,-2.95275 0.105834,0.0423 q 0.28575,0.10584 0.47625,0.4445 0.328083,0.5715 0.28575,1.4605 -0.03175,0.8255 -0.381,1.38642 0.15875,0.0847 0.3175,0.0952 0.381,0.0212 0.677333,-0.508 0.07408,-0.127 0.127,-0.254 0.0635,-0.127 0.09525,-0.21167 0.03175,-0.0847 0.07408,-0.23283 0.04233,-0.15875 0.0635,-0.22225 0.02117,-0.0635 0.0635,-0.254 0.04233,-0.20108 0.0635,-0.27517 0.02117,-0.11641 0.116417,-0.17991 0.105833,-0.0635 0.22225,-0.0317 0.116417,0.0212 0.179917,0.127 0.0635,0.0953 0.03175,0.21166 -0.01058,0.0635 -0.0635,0.26459 -0.04233,0.20108 -0.0635,0.27516 -0.01058,0.0741 -0.0635,0.24342 -0.04233,0.16933 -0.08467,0.27517 -0.04233,0.10583 -0.116417,0.254 -0.0635,0.14816 -0.137583,0.28575 -0.47625,0.83608 -1.217083,0.80433 -0.338667,-0.0212 -0.677334,-0.23283 -0.508,0.39158 -1.195916,0.24341 -0.719667,-0.13758 -0.92075,-0.85725 -0.148167,-0.5715 0.07408,-1.32291 0.211667,-0.6985 0.645583,-1.23825 0.486834,-0.60325 1.037167,-0.6985 0.15875,-0.0212 0.264583,0.10583 z"
           inkscape:connector-curvature="0" />
        <path
           id="path905"
           style="font-style:normal;font-variant:normal;font-weight:500;font-stretch:normal;font-size:10.58333302px;font-family:'Always In My Heart';-inkscape-font-specification:'Always In My Heart, Medium';font-variant-ligatures:normal;font-variant-caps:normal;font-variant-numeric:normal;font-feature-settings:normal;text-align:start;writing-mode:lr-tb;text-anchor:start;stroke-width:0.26458332px"
           d="m 23.490181,284.66889 q -0.22225,0.86784 -0.232834,1.778 0,0.58209 0.127,0.85725 0.09525,0.21167 0.296334,0.17992 0.359833,-0.0529 0.656166,-0.70908 0.201084,-0.45509 0.359834,-1.18534 0,-0.0317 0.116416,-0.66675 0.03175,-0.20108 0.05292,-0.26458 0,-0.0423 0.01058,-0.0635 0.02117,-0.0529 0.0635,-0.0953 0.08467,-0.0952 0.22225,-0.0952 0.15875,0.0106 0.243417,0.14817 l 0.03175,0.11641 v 0.0212 0.0212 0.0635 q -0.01058,0.10583 -0.08467,0.59266 -0.09525,0.51859 -0.127,0.84667 -0.05292,0.508 -0.02117,0.80433 0.02117,0.3175 0.105833,0.40217 0.201083,0.1905 0.381,0.0952 0.211667,-0.10583 0.4445,-0.508 0.201083,-0.34925 0.34925,-0.80433 0.15875,-0.46567 0.201083,-0.74084 0.02117,-0.11641 0.116417,-0.17991 0.09525,-0.0741 0.211667,-0.0529 0.116416,0.0106 0.179916,0.10583 0.07408,0.0952 0.0635,0.21167 -0.05292,0.32808 -0.22225,0.83608 -0.169333,0.508 -0.402166,0.91017 -0.3175,0.55033 -0.687917,0.74083 -0.529167,0.26459 -1.016,-0.1905 -0.179917,-0.16933 -0.254,-0.47625 -0.381,0.59267 -0.910167,0.68792 -0.624416,0.10583 -0.899583,-0.508 -0.179917,-0.40217 -0.179917,-1.11125 0.01058,-0.97367 0.254,-1.91558 0.03175,-0.11642 0.127,-0.16934 0.105834,-0.0635 0.22225,-0.0317 0.116417,0.0317 0.169334,0.13759 0.0635,0.0953 0.03175,0.21166 z"
           inkscape:connector-curvature="0" />
      </g>
    </g>
    <text
       xml:space="preserve"
       style="font-style:normal;font-weight:normal;font-size:13.22915649px;line-height:125%;font-family:sans-serif;letter-spacing:0px;word-spacing:0px;fill:#000000;fill-opacity:1;stroke:none;stroke-width:0.33072889px;stroke-linecap:butt;stroke-linejoin:miter;stroke-opacity:1"
       x="131.81906"
       y="280.22723"
       id="text850"><tspan
         sodipodi:role="line"
         id="tspan848"
         x="131.81906"
         y="291.93195"
         style="stroke-width:0.33072889px" /></text>
  </g>
</svg>
