<?xml version="1.0" encoding="UTF-8" standalone="no"?>
<svg
   xmlns:dc="http://purl.org/dc/elements/1.1/"
   xmlns:cc="http://creativecommons.org/ns#"
   xmlns:rdf="http://www.w3.org/1999/02/22-rdf-syntax-ns#"
   xmlns:svg="http://www.w3.org/2000/svg"
   xmlns="http://www.w3.org/2000/svg"
   xmlns:sodipodi="http://sodipodi.sourceforge.net/DTD/sodipodi-0.dtd"
   xmlns:inkscape="http://www.inkscape.org/namespaces/inkscape"
   sodipodi:docname="Faith Hope Peace Love Joy Tree Baubles.svg"
   inkscape:version="1.0 (4035a4fb49, 2020-05-01)"
   id="svg1048"
   version="1.1"
   viewBox="0 0 259 121"
   height="121mm"
   width="259mm">
  <defs
     id="defs1042" />
  <sodipodi:namedview
     inkscape:window-maximized="1"
     inkscape:window-y="-8"
     inkscape:window-x="-8"
     inkscape:window-height="1137"
     inkscape:window-width="1920"
     showgrid="false"
     inkscape:document-rotation="0"
     inkscape:current-layer="g1735"
     inkscape:document-units="mm"
     inkscape:cy="389.53172"
     inkscape:cx="341.78099"
     inkscape:zoom="0.7"
     inkscape:pageshadow="2"
     inkscape:pageopacity="0.0"
     borderopacity="1.0"
     bordercolor="#666666"
     pagecolor="#ffffff"
     id="base" />
  <metadata
     id="metadata1045">
    <rdf:RDF>
      <cc:Work
         rdf:about="">
        <dc:format>image/svg+xml</dc:format>
        <dc:type
           rdf:resource="http://purl.org/dc/dcmitype/StillImage" />
        <dc:title></dc:title>
      </cc:Work>
    </rdf:RDF>
  </metadata>
  <g
     id="layer1"
     inkscape:groupmode="layer"
     inkscape:label="Layer 1">
    <g
       id="g1735">
      <g
         id="g959"
         transform="rotate(180,35.356907,120.03412)">
        <path
           id="path865-9"
           style="color:#000000;font-style:normal;font-variant:normal;font-weight:normal;font-stretch:normal;font-size:medium;line-height:normal;font-family:sans-serif;font-variant-ligatures:normal;font-variant-position:normal;font-variant-caps:normal;font-variant-numeric:normal;font-variant-alternates:normal;font-variant-east-asian:normal;font-feature-settings:normal;font-variation-settings:normal;text-indent:0;text-align:start;text-decoration:none;text-decoration-line:none;text-decoration-style:solid;text-decoration-color:#000000;letter-spacing:normal;word-spacing:normal;text-transform:none;writing-mode:lr-tb;direction:ltr;text-orientation:mixed;dominant-baseline:auto;baseline-shift:baseline;text-anchor:start;white-space:normal;shape-padding:0;shape-margin:0;inline-size:0;clip-rule:nonzero;display:inline;overflow:visible;visibility:visible;isolation:auto;mix-blend-mode:normal;color-interpolation:sRGB;color-interpolation-filters:linearRGB;solid-color:#000000;solid-opacity:1;vector-effect:none;fill:none;fill-opacity:1;fill-rule:nonzero;stroke:#ff0000;stroke-width:0.0912128;stroke-linecap:butt;stroke-linejoin:miter;stroke-miterlimit:4;stroke-dasharray:none;stroke-dashoffset:0;stroke-opacity:1;color-rendering:auto;image-rendering:auto;shape-rendering:auto;text-rendering:auto;enable-background:accumulate;stop-color:#000000"
           d="m 35.335877,120.22221 -3.46416,11.16904 h -11.04767 l 2.11372,1.61822 6.81461,5.2179 -3.41761,11.14401 6.94984,-5.3213 c -3.30827,5.7054 -10.7117,17.14769 -23.3482718,30.08835 H 23.813017 c 0,0 -1.06205,8.32605 -16.1695298,19.64459 H 20.337667 c 0,0 -4.006156,12.28389 -20.2237798,27.75338 H 30.739287 v 18.48624 h 10.40132 V 221.5364 h 29.46705 c -20.22376,-21.30977 -20.22377,-27.75338 -20.22377,-27.75338 h 12.71833 c -14.19042,-14.04561 -16.16954,-19.64459 -16.16954,-19.64459 h 13.85253 c -9.74236,-8.49727 -17.7838,-18.77404 -23.64228,-30.27542 l 7.2032,5.51544 -3.44944,-11.15108 8.9578,-6.83612 h -11.05444 z m -8e-4,8.24622 1.62811,5.24946 h 5.37394 l -4.35946,3.32677 1.63957,5.29979 c -1.49255,-1.14162 -3.00027,-2.29827 -4.28211,-3.2787 l -4.28935,3.28431 1.62699,-5.3054 -4.34508,-3.32677 h 5.37911 z" />
        <text
           id="text932"
           y="192.39314"
           x="34.870747"
           style="font-size:16.9333px;line-height:1.25;font-family:'Always In My Heart';-inkscape-font-specification:'Always In My Heart';text-align:center;letter-spacing:0px;word-spacing:0px;text-anchor:middle;stroke-width:0.264583"
           xml:space="preserve"><tspan
             style="font-style:normal;font-variant:normal;font-weight:normal;font-stretch:normal;font-size:16.9333px;font-family:'Christmas Bell - Personal Use';-inkscape-font-specification:'Christmas Bell - Personal Use';stroke-width:0.264583"
             y="192.39314"
             x="34.870747"
             id="tspan930"
             sodipodi:role="line">Love</tspan></text>
      </g>
      <g
         id="g964"
         transform="matrix(1.0000026,0,0,1,-41.38637,-120.07534)">
        <path
           d="m 123.84102,120.22929 -3.46416,11.16904 h -11.04767 l 2.11372,1.61822 6.81461,5.2179 -3.41761,11.14401 6.94984,-5.3213 c -3.30827,5.7054 -10.7117,17.14769 -23.348275,30.08835 h 13.876685 c 0,0 -1.06205,8.32605 -16.169533,19.64459 h 12.694183 c 0,0 -4.00616,12.28389 -20.223783,27.75338 h 30.625403 v 18.48624 h 10.40132 V 221.54348 H 159.1128 C 138.88904,200.23371 138.88903,193.7901 138.88903,193.7901 h 12.71833 c -14.19042,-14.04561 -16.16954,-19.64459 -16.16954,-19.64459 h 13.85253 c -9.74236,-8.49727 -17.7838,-18.77404 -23.64228,-30.27542 l 7.2032,5.51544 -3.44944,-11.15108 8.9578,-6.83612 h -11.05444 z m -8e-4,8.24622 1.62811,5.24946 h 5.37394 l -4.35946,3.32677 1.63957,5.29979 c -1.49255,-1.14162 -3.00027,-2.29827 -4.28211,-3.2787 l -4.28935,3.28431 1.62699,-5.3054 -4.34508,-3.32677 h 5.37911 z"
           style="color:#000000;font-style:normal;font-variant:normal;font-weight:normal;font-stretch:normal;font-size:medium;line-height:normal;font-family:sans-serif;font-variant-ligatures:normal;font-variant-position:normal;font-variant-caps:normal;font-variant-numeric:normal;font-variant-alternates:normal;font-variant-east-asian:normal;font-feature-settings:normal;font-variation-settings:normal;text-indent:0;text-align:start;text-decoration:none;text-decoration-line:none;text-decoration-style:solid;text-decoration-color:#000000;letter-spacing:normal;word-spacing:normal;text-transform:none;writing-mode:lr-tb;direction:ltr;text-orientation:mixed;dominant-baseline:auto;baseline-shift:baseline;text-anchor:start;white-space:normal;shape-padding:0;shape-margin:0;inline-size:0;clip-rule:nonzero;display:inline;overflow:visible;visibility:visible;isolation:auto;mix-blend-mode:normal;color-interpolation:sRGB;color-interpolation-filters:linearRGB;solid-color:#000000;solid-opacity:1;vector-effect:none;fill:none;fill-opacity:1;fill-rule:nonzero;stroke:#ff0000;stroke-width:0.0912128;stroke-linecap:butt;stroke-linejoin:miter;stroke-miterlimit:4;stroke-dasharray:none;stroke-dashoffset:0;stroke-opacity:1;color-rendering:auto;image-rendering:auto;shape-rendering:auto;text-rendering:auto;enable-background:accumulate;stop-color:#000000"
           id="path865-4-4" />
        <text
           id="text936"
           y="192.64929"
           x="123.71136"
           style="font-size:16.9333px;line-height:1.25;font-family:'Always In My Heart';-inkscape-font-specification:'Always In My Heart';text-align:center;letter-spacing:0px;word-spacing:0px;text-anchor:middle;stroke-width:0.264583"
           xml:space="preserve"><tspan
             style="font-style:normal;font-variant:normal;font-weight:normal;font-stretch:normal;font-size:16.9333px;font-family:'Christmas Bell - Personal Use';-inkscape-font-specification:'Christmas Bell - Personal Use';stroke-width:0.264583"
             y="192.64929"
             x="123.71136"
             id="tspan934"
             sodipodi:role="line">Joy</tspan></text>
      </g>
      <path
         id="path865"
         style="color:#000000;font-style:normal;font-variant:normal;font-weight:normal;font-stretch:normal;font-size:medium;line-height:normal;font-family:sans-serif;font-variant-ligatures:normal;font-variant-position:normal;font-variant-caps:normal;font-variant-numeric:normal;font-variant-alternates:normal;font-variant-east-asian:normal;font-feature-settings:normal;font-variation-settings:normal;text-indent:0;text-align:start;text-decoration:none;text-decoration-line:none;text-decoration-style:solid;text-decoration-color:#000000;letter-spacing:normal;word-spacing:normal;text-transform:none;writing-mode:lr-tb;direction:ltr;text-orientation:mixed;dominant-baseline:auto;baseline-shift:baseline;text-anchor:start;white-space:normal;shape-padding:0;shape-margin:0;inline-size:0;clip-rule:nonzero;display:inline;overflow:visible;visibility:visible;isolation:auto;mix-blend-mode:normal;color-interpolation:sRGB;color-interpolation-filters:linearRGB;solid-color:#000000;solid-opacity:1;vector-effect:none;fill:none;fill-opacity:1;fill-rule:nonzero;stroke:#ff0000;stroke-width:0.0912129;stroke-linecap:butt;stroke-linejoin:miter;stroke-miterlimit:4;stroke-dasharray:none;stroke-dashoffset:0;stroke-opacity:1;color-rendering:auto;image-rendering:auto;shape-rendering:auto;text-rendering:auto;enable-background:accumulate;stop-color:#000000"
         d="M 176.07397,0.1539531 172.6098,11.323002 h -11.0477 l 2.11373,1.61822 6.81462,5.217898 -3.41761,11.144009 6.94985,-5.321301 c -3.30828,5.705404 -10.71172,17.14769 -23.34833,30.088351 h 13.87672 c 0,0 -1.06205,8.326052 -16.16957,19.644592 h 12.69421 c 0,0 -4.00617,12.28389 -20.22383,27.753379 h 30.62548 v 18.48624 h 10.40134 v -18.48624 h 29.46713 C 191.12203,80.158381 191.12202,73.714771 191.12202,73.714771 h 12.71836 C 189.64992,59.669161 187.6708,54.070179 187.6708,54.070179 h 13.85257 c -9.74239,-8.497266 -17.78385,-18.77404 -23.64235,-30.27542 l 7.20322,5.51544 -3.44945,-11.151079 8.95783,-6.836118 h -11.05447 z m -8e-4,8.2462257 1.62811,5.2494552 h 5.37396 l -4.35947,3.326773 1.63957,5.299787 c -1.49255,-1.141611 -3.00028,-2.298264 -4.28212,-3.278691 l -4.28936,3.284307 1.62699,-5.305403 -4.34509,-3.326773 h 5.37912 z" />
      <text
         xml:space="preserve"
         style="font-size:16.2278px;line-height:1.25;font-family:'Always In My Heart';-inkscape-font-specification:'Always In My Heart';text-align:center;letter-spacing:0px;word-spacing:0px;text-anchor:middle;stroke-width:0.264583"
         x="176.17754"
         y="73.133537"
         id="text924"><tspan
           sodipodi:role="line"
           id="tspan922"
           x="176.17754"
           y="73.133537"
           style="font-style:normal;font-variant:normal;font-weight:normal;font-stretch:normal;font-size:16.2278px;font-family:'Christmas Bell - Personal Use';-inkscape-font-specification:'Christmas Bell - Personal Use';stroke-width:0.264583">Peace</tspan></text>
      <g
         id="g954"
         transform="rotate(180,126.54197,60.003538)">
        <path
           id="path865-4"
           style="color:#000000;font-style:normal;font-variant:normal;font-weight:normal;font-stretch:normal;font-size:medium;line-height:normal;font-family:sans-serif;font-variant-ligatures:normal;font-variant-position:normal;font-variant-caps:normal;font-variant-numeric:normal;font-variant-alternates:normal;font-variant-east-asian:normal;font-feature-settings:normal;font-variation-settings:normal;text-indent:0;text-align:start;text-decoration:none;text-decoration-line:none;text-decoration-style:solid;text-decoration-color:#000000;letter-spacing:normal;word-spacing:normal;text-transform:none;writing-mode:lr-tb;direction:ltr;text-orientation:mixed;dominant-baseline:auto;baseline-shift:baseline;text-anchor:start;white-space:normal;shape-padding:0;shape-margin:0;inline-size:0;clip-rule:nonzero;display:inline;overflow:visible;visibility:visible;isolation:auto;mix-blend-mode:normal;color-interpolation:sRGB;color-interpolation-filters:linearRGB;solid-color:#000000;solid-opacity:1;vector-effect:none;fill:none;fill-opacity:1;fill-rule:nonzero;stroke:#ff0000;stroke-width:0.0912128;stroke-linecap:butt;stroke-linejoin:miter;stroke-miterlimit:4;stroke-dasharray:none;stroke-dashoffset:0;stroke-opacity:1;color-rendering:auto;image-rendering:auto;shape-rendering:auto;text-rendering:auto;enable-background:accumulate;stop-color:#000000"
           d="m 123.84101,0.1610329 -3.46416,11.1690491 h -11.04767 l 2.11372,1.61822 6.81461,5.217898 -3.41761,11.144009 6.94984,-5.321301 c -3.30827,5.705404 -10.7117,17.14769 -23.34827,30.088351 h 13.87668 c 0,0 -1.06205,8.326052 -16.169528,19.644592 H 108.8428 c 0,0 -4.00615,12.28389 -20.223778,27.753379 h 30.625398 v 18.48624 h 10.40132 v -18.48624 h 29.46705 C 138.88903,80.165461 138.88902,73.721851 138.88902,73.721851 h 12.71833 C 137.41693,59.676241 135.43781,54.077259 135.43781,54.077259 h 13.85253 c -9.74236,-8.497266 -17.7838,-18.77404 -23.64228,-30.27542 l 7.2032,5.51544 -3.44944,-11.151079 8.9578,-6.836118 h -11.05444 z m -8e-4,8.2462257 1.62811,5.2494554 h 5.37394 l -4.35946,3.326773 1.63957,5.299787 c -1.49255,-1.141611 -3.00027,-2.298264 -4.28211,-3.278691 l -4.28935,3.284307 1.62699,-5.305403 -4.34508,-3.326773 h 5.37911 z" />
        <text
           id="text928"
           y="72.679947"
           x="123.50304"
           style="font-size:16.9333px;line-height:1.25;font-family:'Always In My Heart';-inkscape-font-specification:'Always In My Heart';text-align:center;letter-spacing:0px;word-spacing:0px;text-anchor:middle;stroke-width:0.264583"
           xml:space="preserve"><tspan
             style="font-style:normal;font-variant:normal;font-weight:normal;font-stretch:normal;font-size:16.9333px;font-family:'Christmas Bell - Personal Use';-inkscape-font-specification:'Christmas Bell - Personal Use';stroke-width:0.264583"
             y="72.679947"
             x="123.50304"
             id="tspan926"
             sodipodi:role="line">Hope</tspan></text>
      </g>
      <g
         id="g1713"
         transform="rotate(180,264.60795,173.25647)">
        <path
           d="m 306.26985,226.66689 -3.46416,11.16905 h -11.04767 l 2.11372,1.61822 6.81461,5.2179 -3.41761,11.14401 6.94984,-5.3213 c -3.30827,5.7054 -10.7117,17.14769 -23.34827,30.08835 h 13.87668 c 0,0 -1.06205,8.32605 -16.16953,19.64459 h 12.69418 c 0,0 -4.00615,12.28389 -20.22378,27.75338 h 30.6254 v 18.48624 h 10.40132 v -18.48624 h 29.46705 c -20.22376,-21.30977 -20.22377,-27.75338 -20.22377,-27.75338 h 12.71833 C 319.84577,286.1821 317.86665,280.58312 317.86665,280.58312 h 13.85253 c -9.74236,-8.49727 -17.7838,-18.77404 -23.64228,-30.27542 l 7.2032,5.51544 -3.44944,-11.15108 8.9578,-6.83612 h -11.05444 z m -8e-4,8.24623 1.62811,5.24945 h 5.37394 l -4.35946,3.32678 1.63957,5.29978 c -1.49255,-1.14161 -3.00027,-2.29826 -4.28211,-3.27869 l -4.28935,3.28431 1.62699,-5.3054 -4.34508,-3.32678 h 5.37911 z"
           style="color:#000000;font-style:normal;font-variant:normal;font-weight:normal;font-stretch:normal;font-size:medium;line-height:normal;font-family:sans-serif;font-variant-ligatures:normal;font-variant-position:normal;font-variant-caps:normal;font-variant-numeric:normal;font-variant-alternates:normal;font-variant-east-asian:normal;font-feature-settings:normal;font-variation-settings:normal;text-indent:0;text-align:start;text-decoration:none;text-decoration-line:none;text-decoration-style:solid;text-decoration-color:#000000;letter-spacing:normal;word-spacing:normal;text-transform:none;writing-mode:lr-tb;direction:ltr;text-orientation:mixed;dominant-baseline:auto;baseline-shift:baseline;text-anchor:start;white-space:normal;shape-padding:0;shape-margin:0;inline-size:0;clip-rule:nonzero;display:inline;overflow:visible;visibility:visible;isolation:auto;mix-blend-mode:normal;color-interpolation:sRGB;color-interpolation-filters:linearRGB;solid-color:#000000;solid-opacity:1;vector-effect:none;fill:none;fill-opacity:1;fill-rule:nonzero;stroke:#ff0000;stroke-width:0.0912128;stroke-linecap:butt;stroke-linejoin:miter;stroke-miterlimit:4;stroke-dasharray:none;stroke-dashoffset:0;stroke-opacity:1;color-rendering:auto;image-rendering:auto;shape-rendering:auto;text-rendering:auto;enable-background:accumulate;stop-color:#000000"
           id="path865-4-7" />
        <text
           xml:space="preserve"
           style="font-size:16.9333px;line-height:1.25;font-family:'Always In My Heart';-inkscape-font-specification:'Always In My Heart';text-align:center;letter-spacing:0px;word-spacing:0px;text-anchor:middle;stroke-width:0.264583"
           x="305.93188"
           y="299.18582"
           id="text928-1"><tspan
             sodipodi:role="line"
             id="tspan926-7"
             x="305.93188"
             y="299.18582"
             style="font-style:normal;font-variant:normal;font-weight:normal;font-stretch:normal;font-size:16.9333px;font-family:'Christmas Bell - Personal Use';-inkscape-font-specification:'Christmas Bell - Personal Use';stroke-width:0.264583">Faith</tspan></text>
      </g>
      <text
         id="text1742"
         y="-7.9374995"
         x="75.595238"
         style="font-size:7.76111px;line-height:1.25;font-family:'Times New Roman';-inkscape-font-specification:'Times New Roman, ';text-align:center;letter-spacing:0px;word-spacing:0px;text-anchor:middle;stroke-width:0.264583"
         xml:space="preserve"><tspan
           style="font-style:normal;font-variant:normal;font-weight:normal;font-stretch:normal;font-size:7.76111px;font-family:'Christmas Bell - Personal Use';-inkscape-font-specification:'Christmas Bell - Personal Use';stroke-width:0.264583"
           y="-7.9374995"
           x="75.595238"
           id="tspan1740"
           sodipodi:role="line">Chirstmas Bell - Personal Use.  Downloaded from DaFont</tspan></text>
    </g>
  </g>
</svg>
