<?xml version="1.0" encoding="UTF-8" standalone="no"?>
<!-- Created with Inkscape (http://www.inkscape.org/) -->

<svg
   xmlns:dc="http://purl.org/dc/elements/1.1/"
   xmlns:cc="http://creativecommons.org/ns#"
   xmlns:rdf="http://www.w3.org/1999/02/22-rdf-syntax-ns#"
   xmlns:svg="http://www.w3.org/2000/svg"
   xmlns="http://www.w3.org/2000/svg"
   xmlns:sodipodi="http://sodipodi.sourceforge.net/DTD/sodipodi-0.dtd"
   xmlns:inkscape="http://www.inkscape.org/namespaces/inkscape"
   width="210mm"
   height="297mm"
   viewBox="0 0 210 297"
   version="1.1"
   id="svg3731"
   inkscape:version="0.92.2 (5c3e80d, 2017-08-06)"
   sodipodi:docname="Nativity 1.svg">
  <defs
     id="defs3725" />
  <sodipodi:namedview
     id="base"
     pagecolor="#ffffff"
     bordercolor="#666666"
     borderopacity="1.0"
     inkscape:pageopacity="0.0"
     inkscape:pageshadow="2"
     inkscape:zoom="3.959798"
     inkscape:cx="414.22908"
     inkscape:cy="691.87006"
     inkscape:document-units="mm"
     inkscape:current-layer="layer1"
     showgrid="false"
     inkscape:window-width="1920"
     inkscape:window-height="1017"
     inkscape:window-x="-8"
     inkscape:window-y="-8"
     inkscape:window-maximized="1" />
  <metadata
     id="metadata3728">
    <rdf:RDF>
      <cc:Work
         rdf:about="">
        <dc:format>image/svg+xml</dc:format>
        <dc:type
           rdf:resource="http://purl.org/dc/dcmitype/StillImage" />
        <dc:title></dc:title>
      </cc:Work>
    </rdf:RDF>
  </metadata>
  <g
     inkscape:label="Layer 1"
     inkscape:groupmode="layer"
     id="layer1">
    <path
       style="fill:#000000;stroke-width:0.08099739"
       d="m 86.826055,132.81757 0.05402,-1.45795 c 0.221948,-5.98979 0.393991,-10.28908 0.430092,-10.74791 0.04165,-0.52942 0.03739,-0.54477 -0.180226,-0.64885 -0.244752,-0.11707 -0.323119,-0.44019 -0.337292,-1.3907 -0.0078,-0.5238 0.0155,-0.51181 -0.634826,-0.32662 -0.14794,0.0421 -0.182245,0.0196 -0.182245,-0.11954 0,-0.0943 0.04556,-0.17376 0.101247,-0.17658 0.05569,-0.002 0.01508,-0.0396 -0.09024,-0.0818 -0.146291,-0.0586 -0.170644,-0.10179 -0.103174,-0.18309 0.06095,-0.0734 0.06231,-0.13242 0.0044,-0.19037 -0.120711,-0.12071 0.340031,-0.486 0.753388,-0.5973 0.219587,-0.0591 0.298702,-0.11195 0.230662,-0.15401 -0.07729,-0.0478 -0.0796,-0.0788 -0.0091,-0.12239 0.06657,-0.0412 0.05118,-0.0902 -0.0521,-0.16608 -0.162302,-0.11921 -0.193702,-0.0989 0.574807,-0.37187 0.174026,-0.0618 0.331789,-0.17083 0.350584,-0.24227 0.01879,-0.0714 0.257659,-0.23546 0.530808,-0.36449 0.273149,-0.12903 0.665064,-0.34942 0.870921,-0.48976 0.205856,-0.14034 0.590033,-0.36994 0.853725,-0.51023 0.923074,-0.4911 1.812163,-1.01775 1.947739,-1.15375 0.07522,-0.0755 0.530062,-0.27183 1.010755,-0.43637 0.699094,-0.2393 0.878874,-0.33244 0.898412,-0.46549 0.01667,-0.1135 0.114453,-0.18943 0.307915,-0.23906 0.15592,-0.04 0.348696,-0.14239 0.428391,-0.22753 0.0797,-0.0851 0.199058,-0.1548 0.265248,-0.1548 0.06619,0 0.151876,-0.0829 0.190412,-0.18429 0.05793,-0.15237 0.282088,-0.25095 1.293954,-0.56907 0.673137,-0.21163 1.223886,-0.40137 1.223886,-0.42164 0,-0.0203 -0.16402,-0.0144 -0.364488,0.0131 -0.202313,0.0277 -0.364488,0.0171 -0.364488,-0.024 0,-0.0406 0.610517,-0.33381 1.356706,-0.65142 1.011822,-0.43069 1.362738,-0.6164 1.380433,-0.73059 0.01818,-0.11732 0.201503,-0.20651 0.784409,-0.38163 l 0.76069,-0.22853 0.67354,0.2443 c 2.48082,0.89982 2.73898,1.00783 2.73898,1.14598 0,0.0865 0.15055,0.21478 0.39436,0.3361 1.26211,0.628 2.0061,1.05051 2.08684,1.18514 0.0505,0.0842 0.51752,0.36483 1.03786,0.62368 0.52034,0.25886 1.00754,0.53462 1.08268,0.61281 0.0751,0.0782 0.32796,0.20468 0.56184,0.28109 0.23388,0.0764 0.42523,0.16632 0.42523,0.19978 0,0.0841 0.7285,0.54852 1.10653,0.70546 0.17101,0.071 0.33988,0.17948 0.37525,0.24107 0.0354,0.0616 0.33168,0.23549 0.65843,0.38646 0.32676,0.15097 0.66242,0.34269 0.74592,0.42604 0.0835,0.0834 0.41679,0.27794 0.74067,0.43243 0.32387,0.15449 0.57307,0.32204 0.55377,0.37234 -0.0201,0.0524 0.1868,0.16978 0.485,0.27506 0.52941,0.18689 0.68702,0.30387 0.53555,0.39749 -0.16214,0.10021 0.0979,0.30001 0.71161,0.54669 0.6189,0.24877 0.75849,0.40781 0.56384,0.64235 -0.0537,0.0647 -0.22983,0.11876 -0.39143,0.12017 -0.26165,0.002 -0.2783,0.0144 -0.15208,0.11018 0.078,0.0592 0.14175,0.14423 0.14175,0.18899 0,0.0448 0.0724,0.17341 0.16083,0.28587 0.13843,0.17597 0.14457,0.21796 0.044,0.30138 -0.13223,0.10974 -0.1899,0.0834 -0.67061,-0.30579 l -0.34424,-0.27872 v 0.78258 0.78257 l -0.40881,0.25413 -0.40881,0.25413 0.0456,0.73474 c 0.0251,0.40411 0.11804,2.88523 0.20658,5.51359 0.0885,2.62837 0.18275,5.08424 0.20935,5.4575 l 0.0484,0.67865 c 0.0191,1.03357 -0.0292,1.40905 0.006,2.05933 -6.86747,0.0434 -20.052993,0.007 -28.263734,0.0482 0.01551,-0.74486 -0.01886,-0.50033 0.01347,-1.84492 z m 4.889382,-1.19258 -0.02954,-0.82808 0.233067,-0.11276 0.233065,-0.11276 -0.05303,-0.58528 c -0.04713,-0.52019 -0.03035,-0.63401 0.150971,-1.02335 0.201579,-0.43285 0.203391,-0.45546 0.152087,-1.89937 -0.06442,-1.81291 0.0018,-2.07962 0.703197,-2.83359 0.56728,-0.60979 0.611888,-0.6912 0.686754,-1.25342 0.07101,-0.53326 0.206002,-0.8184 0.495118,-1.04582 0.569964,-0.44833 1.651142,0.0466 1.651142,0.75581 0,0.37998 -0.307618,1.19048 -0.548142,1.44422 -0.116128,0.1225 -0.295445,0.22274 -0.398483,0.22274 -0.103036,0 -0.187339,0.0345 -0.187339,0.0765 0,0.0421 0.291822,0.33368 0.648494,0.64798 0.806674,0.71083 1.007275,0.74352 1.365714,0.22255 0.132027,-0.1919 0.30383,-0.40148 0.381788,-0.46574 0.07796,-0.0643 0.269617,-0.31635 0.425913,-0.56021 0.261067,-0.40733 0.292603,-0.52483 0.387825,-1.44502 0.09122,-0.88146 0.133159,-1.04762 0.34958,-1.38487 0.13526,-0.21079 0.284173,-0.49296 0.330917,-0.62705 0.17969,-0.51546 -0.269894,-0.99979 -0.679143,-0.73165 -0.16105,0.10553 -0.207997,0.22334 -0.254724,0.63922 -0.0576,0.51269 -0.264443,0.87435 -0.500063,0.87435 -0.13758,0 -0.132395,-0.1487 0.01412,-0.40499 0.06366,-0.11138 0.117048,-0.39559 0.118625,-0.6316 0.0023,-0.35219 0.03938,-0.46293 0.206515,-0.61784 0.557171,-0.51637 1.497301,-0.14741 1.497301,0.58763 0,0.12917 -0.147682,0.62802 -0.328182,1.10856 -0.412901,1.09926 -0.494242,1.77502 -0.247522,2.05631 0.222541,0.25372 0.230893,0.80048 0.01639,1.07317 -0.144174,0.18328 -0.158239,0.42842 -0.213884,3.72744 l -0.05956,3.53126 0.29488,0.10662 c 0.162184,0.0587 0.29488,0.13576 0.29488,0.17136 0,0.0356 0.254206,0.0647 0.564903,0.0647 0.533918,0 0.571313,-0.0122 0.681799,-0.22274 0.0643,-0.12251 0.2657,-0.36683 0.44757,-0.54292 0.18186,-0.17611 0.33066,-0.36327 0.33066,-0.41593 0,-0.14105 -0.42934,-0.40579 -0.46834,-0.28879 -0.0456,0.13697 -0.627813,0.11507 -0.746618,-0.0281 -0.05545,-0.0668 -0.145964,-0.1215 -0.201125,-0.1215 -0.163576,0 -0.06393,-1.5483 0.108458,-1.6852 0.07324,-0.0582 0.122853,-0.15668 0.110248,-0.21891 -0.03236,-0.15976 0.600737,-0.32727 0.754527,-0.19963 0.16666,0.13831 0.28086,0.0226 0.28086,-0.28467 0,-0.2785 0.17014,-0.52749 0.36045,-0.52749 0.0582,0 0.15176,0.11077 0.20784,0.24617 0.0887,0.21421 0.0836,0.25958 -0.0395,0.34959 -0.15007,0.10973 -0.14509,0.38272 0.008,0.43365 0.0502,0.0167 0.16672,-0.0976 0.25897,-0.25391 0.23114,-0.39175 0.54776,-0.46627 0.78908,-0.18573 0.099,0.11513 0.19463,0.25306 0.21245,0.30651 0.0376,0.11282 0.38972,0.0281 0.38972,-0.0938 0,-0.0427 -0.0855,-0.11004 -0.18998,-0.14977 -0.13861,-0.0527 -0.19185,-0.13832 -0.19693,-0.31668 -0.004,-0.13446 0.0361,-0.2791 0.0887,-0.32143 0.16073,-0.12929 0.45963,0.0453 0.58298,0.34051 0.16901,0.40449 0.34088,0.55346 0.52493,0.45497 0.17686,-0.0947 0.32451,-0.0506 0.78701,0.23477 l 0.34128,0.21058 0.003,0.79519 c 0.003,0.72061 -0.0104,0.7911 -0.13879,0.75173 -0.43455,-0.13323 -0.71203,-0.0761 -1.11371,0.2292 -0.22274,0.1693 -0.41518,0.33424 -0.42764,0.36651 -0.0125,0.0323 0.17572,0.19039 0.41817,0.35137 0.24244,0.16097 0.53944,0.42199 0.65999,0.58004 0.16166,0.21194 0.28043,0.28736 0.45256,0.28736 h 0.23338 l 0.001,-0.78973 c 6.1e-4,-0.43435 0.0288,-0.83298 0.0624,-0.88586 0.0336,-0.0529 0.23945,-0.17259 0.45741,-0.26601 0.21795,-0.0934 0.56348,-0.29145 0.76785,-0.44006 0.20436,-0.1486 0.63263,-0.40434 0.9517,-0.56829 0.31907,-0.16396 0.60071,-0.35173 0.62586,-0.41728 0.051,-0.13298 -0.22914,-0.90864 -0.38641,-1.06976 -0.082,-0.084 -0.18793,-0.0639 -0.5585,0.10576 -0.56451,0.25844 -0.69282,0.20765 -0.98523,-0.39001 -0.25691,-0.52509 -0.6933,-2.21616 -0.6933,-2.68658 0,-0.44534 0.13875,-0.83578 0.33418,-0.94037 0.20389,-0.10912 0.26707,-0.0612 0.46878,0.35547 0.19236,0.39736 0.20735,0.59666 0.0775,1.03012 -0.0856,0.2858 -0.0722,0.33726 0.20836,0.79913 0.16493,0.27151 0.34894,0.49365 0.40891,0.49365 0.11645,0 0.3648,-0.6756 0.559,-1.52074 l 0.11679,-0.50827 -0.3801,-0.19261 c -0.34493,-0.17479 -0.40051,-0.24488 -0.60077,-0.75758 -0.25341,-0.64879 -0.26512,-0.7825 -0.10263,-1.17141 0.15326,-0.36679 0.53275,-0.54733 1.14966,-0.54694 0.86134,6.1e-4 1.10962,0.27011 1.92437,2.08926 l 0.47865,1.06873 -0.14925,0.27714 c -0.14614,0.27137 -0.14564,0.2906 0.0239,0.92404 0.0952,0.35579 0.37131,1.11758 0.61352,1.69287 0.72315,1.71762 0.74923,2.20575 0.14499,2.71418 -0.1397,0.11755 -0.254,0.24929 -0.254,0.29276 0,0.12677 0.48569,0.50003 0.94158,0.72362 l 0.42078,0.20636 0.78427,-0.15504 0.78428,-0.15504 -0.0105,-4.40673 c -0.006,-2.4237 -0.0291,-4.43682 -0.0519,-4.47359 -0.0227,-0.0368 -0.46667,-0.42292 -0.98654,-0.8581 -0.51987,-0.43517 -1.32758,-1.16718 -1.79489,-1.62667 l -0.84967,-0.83543 -5.02529,-0.0268 c -2.76393,-0.0147 -6.509345,-0.0547 -8.323166,-0.0887 l -3.297857,-0.062 -0.428023,0.47715 c -1.175946,1.31094 -2.168544,2.22358 -3.121029,2.86961 -0.177375,0.12031 -0.180316,0.15799 -0.300184,3.84737 -0.06658,2.04924 -0.143434,4.18908 -0.170785,4.75521 l -0.04973,1.02933 0.675381,0.0274 c 0.37146,0.0151 1.053164,0.0348 1.514897,0.0439 l 0.839512,0.0165 z m 1.583083,0.75893 c 0.02351,-0.038 -0.08127,-0.20852 -0.232824,-0.37887 -0.235233,-0.26442 -0.294122,-0.29433 -0.402441,-0.20443 -0.06979,0.0579 -0.126885,0.22841 -0.126885,0.37888 0,0.2697 0.0051,0.27357 0.359707,0.27357 0.197839,0 0.378939,-0.0311 0.402443,-0.0691 z m 9.93726,-0.20862 c -0.14669,-0.10823 -0.50296,-0.29718 -0.79172,-0.4199 -0.52458,-0.22296 -0.52523,-0.22301 -0.80533,-0.0722 -0.15418,0.083 -0.41551,0.27046 -0.58073,0.41653 l -0.30039,0.26556 1.37244,0.003 1.37244,0.003 -0.26671,-0.19677 z m -5.342967,-3.70773 c 0.01299,-1.72427 0.0026,-3.15605 -0.0231,-3.18175 -0.06719,-0.0672 -0.217213,0.3352 -0.309154,0.82915 -0.158197,0.84991 -0.486879,1.14601 -1.153744,1.03938 -0.307112,-0.0491 -0.509745,-0.14507 -1.106915,-0.5242 -0.183647,-0.11659 -0.190225,-0.11412 -0.137602,0.0517 0.03836,0.12087 0.0044,0.22494 -0.110871,0.34027 -0.175712,0.17571 -0.241308,0.81411 -0.08365,0.81411 0.04537,0 0.273174,-0.10023 0.506234,-0.22274 0.354339,-0.18626 0.524532,-0.22275 1.039075,-0.22275 1.070273,0 1.132148,0.13974 1.067744,2.41125 -0.03732,1.31619 -0.02479,1.70042 0.05873,1.80106 0.05839,0.0704 0.133949,0.099 0.167899,0.0637 0.03395,-0.0353 0.07236,-1.47494 0.08535,-3.19921 z m 11.734007,2.80626 c 0,-0.0695 -0.037,-0.10338 -0.0823,-0.0754 -0.0453,0.028 -0.0613,0.0848 -0.0357,0.12628 0.0694,0.11234 0.11803,0.0914 0.11803,-0.0508 z m -6.88478,-0.62524 c 0.27939,-0.12442 0.2709,-0.12634 -0.58723,-0.13285 -0.4789,-0.004 -0.87072,0.0104 -0.87072,0.0313 0,0.0208 0.10023,0.0944 0.22274,0.1634 0.26567,0.14967 0.82288,0.12177 1.23521,-0.0618 z M 89.584524,120.40466 c 0.534364,-0.33082 1.331898,-0.90481 1.331898,-0.95857 0,-0.0185 -0.437386,-0.0336 -0.971969,-0.0336 h -0.971968 v 0.64798 c 0,0.35639 0.02734,0.64796 0.06074,0.64793 0.03341,-2e-5 0.281492,-0.13671 0.551291,-0.30374 z m 23.508206,-0.36084 -0.0235,-0.66462 -0.89096,0.0235 c -0.49004,0.013 -0.89921,0.0317 -0.90928,0.0417 -0.0281,0.028 1.71043,1.25711 1.78327,1.2608 0.0352,0.002 0.0534,-0.29584 0.0405,-0.66138 z m -19.503394,-2.70687 c 0,-0.11769 -1.185411,-1.39583 -1.299652,-1.40132 -0.230541,-0.0111 -2.588223,1.28329 -2.588223,1.42094 0,0.0171 0.874772,0.031 1.943938,0.031 1.069165,0 1.943937,-0.0228 1.943937,-0.0506 z m 6.258703,-2.88476 c 0.02594,-1.61445 0.03775,-2.94479 0.02623,-2.95631 -0.01152,-0.0115 -0.687891,0.28914 -1.503042,0.66813 -1.241773,0.57734 -1.745417,0.87005 -3.106038,1.80523 -0.89317,0.61389 -1.637452,1.15668 -1.653961,1.20621 -0.02594,0.0778 0.625774,0.86942 1.571183,1.90837 l 0.276395,0.30374 h 2.171029 2.171029 z m 7.760541,1.87326 c 0.50863,-0.58416 0.93419,-1.08624 0.9457,-1.11574 0.0115,-0.0295 -0.517,-0.36576 -1.17446,-0.74725 -0.65746,-0.38149 -1.97507,-1.15683 -2.928,-1.72299 -0.95294,-0.56616 -1.83682,-1.08327 -1.96419,-1.14913 l -0.23157,-0.11976 v 2.95849 2.95849 h 2.21387 2.21388 z m 4.69115,1.02409 c 0,-0.11 -2.26898,-1.41994 -2.45952,-1.41994 -0.16064,0 -1.26636,1.22666 -1.26636,1.40485 0,0.0292 0.83833,0.0531 1.86294,0.0531 1.02462,0 1.86294,-0.0171 1.86294,-0.038 z"
       id="path826"
       inkscape:connector-curvature="0"
       sodipodi:nodetypes="ccccccsccccccccccscccccccsccscscsccsscccccsccccccccccccscccccccccccccccccccccccscscssccccccsccscccscccsccssccsccscccssccccccscccccccccccccsccccccccccsccccsccccccccccccsccccccccccccccssccccccccsscccccccccccccsccccscsccscccccccccscccccscsccccscccccscssssccsccccccccssccccccccsssssss" />
    <path
       style="fill:none;fill-opacity:1;stroke:#ff0000;stroke-width:0.21208748;stroke-miterlimit:4;stroke-dasharray:none"
       d="m 101.11148,100.88464 -1.14586,1.98429 h -2.17499 l 1.08775,1.88401 -1.08775,1.88346 h 2.17499 l 1.14586,1.98429 1.14586,-1.98429 h 2.17554 l -1.08776,-1.88346 1.08776,-1.88401 h -2.17554 z"
       id="path906-7"
       inkscape:connector-curvature="0" />
  </g>
</svg>
