<?xml version="1.0" encoding="UTF-8" standalone="no"?>
<!-- Created with Inkscape (http://www.inkscape.org/) -->

<svg
   xmlns:dc="http://purl.org/dc/elements/1.1/"
   xmlns:cc="http://creativecommons.org/ns#"
   xmlns:rdf="http://www.w3.org/1999/02/22-rdf-syntax-ns#"
   xmlns:svg="http://www.w3.org/2000/svg"
   xmlns="http://www.w3.org/2000/svg"
   xmlns:sodipodi="http://sodipodi.sourceforge.net/DTD/sodipodi-0.dtd"
   xmlns:inkscape="http://www.inkscape.org/namespaces/inkscape"
   width="210mm"
   height="297mm"
   viewBox="0 0 210 297"
   version="1.1"
   id="svg4851"
   inkscape:version="0.92.2 (5c3e80d, 2017-08-06)"
   sodipodi:docname="Nativity 4.svg">
  <defs
     id="defs4845" />
  <sodipodi:namedview
     id="base"
     pagecolor="#ffffff"
     bordercolor="#666666"
     borderopacity="1.0"
     inkscape:pageopacity="0.0"
     inkscape:pageshadow="2"
     inkscape:zoom="3.959798"
     inkscape:cx="378.66803"
     inkscape:cy="730.16039"
     inkscape:document-units="mm"
     inkscape:current-layer="layer1"
     showgrid="false"
     inkscape:window-width="1920"
     inkscape:window-height="1017"
     inkscape:window-x="-8"
     inkscape:window-y="-8"
     inkscape:window-maximized="1" />
  <metadata
     id="metadata4848">
    <rdf:RDF>
      <cc:Work
         rdf:about="">
        <dc:format>image/svg+xml</dc:format>
        <dc:type
           rdf:resource="http://purl.org/dc/dcmitype/StillImage" />
        <dc:title></dc:title>
      </cc:Work>
    </rdf:RDF>
  </metadata>
  <g
     inkscape:label="Layer 1"
     inkscape:groupmode="layer"
     id="layer1">
    <path
       style="fill:none;stroke:#ff0000;stroke-width:0.17880137;stroke-miterlimit:4;stroke-dasharray:none"
       d="m 95.748596,119.10836 c 0.0238,-0.0222 -0.16069,-0.26905 -0.40409,-0.54097 -0.14466,-0.16161 -0.35874,-0.40087 -0.47573,-0.53171 -0.53441,-0.59758 -1.10244,-1.20042 -1.13112,-1.20042 -0.0892,0 -1.97911,2.03357 -2.01403,2.1671 -0.0228,0.0873 0.0247,0.1046 0.33425,0.12179 0.28299,0.0157 3.67249,7.9e-4 3.69072,-0.0158 z"
       id="path4865" />
    <path
       style="fill:none;stroke:#ff0000;stroke-width:0.17880137;stroke-miterlimit:4;stroke-dasharray:none"
       d="m 106.39149,119.12586 c 0.0607,-0.0376 0.0906,-0.22732 0.14196,-0.90214 0.0264,-0.34688 0.0756,-0.96474 0.10935,-1.37302 0.0695,-0.84082 0.16257,-2.12814 0.23143,-3.20134 0.0257,-0.39978 0.0671,-0.96349 0.0919,-1.25269 0.0249,-0.2892 0.0668,-0.83206 0.0931,-1.2063 0.0264,-0.37428 0.0704,-0.91711 0.0979,-1.20631 0.0927,-0.97342 0.0838,-1.112 -0.28207,-4.40764 -0.0255,-0.22966 -0.0747,-0.67506 -0.1094,-0.98978 -0.0347,-0.31472 -0.0841,-0.73229 -0.10983,-0.92792 -0.0258,-0.19564 -0.0804,-0.66888 -0.12139,-1.05166 -0.1027,-0.95803 -0.25941,-2.30623 -0.28763,-2.47446 -0.0315,-0.188155 -0.0175,-0.179095 -1.56921,-1.011875 -0.23816,-0.12783 -0.57919,-0.30883 -0.75781,-0.402221 -0.17862,-0.0934 -0.45699,-0.24304 -0.61861,-0.332519 -0.16162,-0.0895 -0.52351,-0.28496 -0.8042,-0.43439 -0.2807,-0.149431 -0.67042,-0.35856 -0.86607,-0.464731 -0.67857,-0.36826 -0.97335,-0.51207 -0.98403,-0.48006 -0.0174,0.0522 0.0501,0.228071 0.32633,0.851261 0.14359,0.32384 0.35546,0.80454 0.47083,1.06823 0.34283,0.783549 0.58112,1.288995 1.34158,2.845635 0.41074,0.84079 1.02175,1.86453 1.27763,2.14064 0.0742,0.0801 0.13492,0.15904 0.13492,0.17548 0,0.0683 -0.18496,0.24107 -0.41713,0.38962 -0.42649,0.27291 -0.60973,0.36332 -0.91274,0.4504 l -0.29369,0.0844 -0.0248,0.13505 c -0.0274,0.14915 -0.0165,0.35016 0.0703,1.31042 0.0323,0.35726 0.0745,0.86529 0.0938,1.12898 0.032,0.43757 0.24392,2.27013 0.3543,3.06416 0.0438,0.31545 0.17482,1.10008 0.39984,2.39512 0.0998,0.57434 0.25458,1.2991 0.47924,2.24391 0.11535,0.48513 0.5377,1.92949 0.63824,2.18266 0.12691,0.31959 0.50865,1.16035 0.6264,1.37965 0.0613,0.11429 0.13326,0.21794 0.15975,0.23036 0.1029,0.0483 0.95317,0.0841 1.01967,0.0431 z"
       id="path4863" />
    <path
       style="fill:none;stroke:#ff0000;stroke-width:0.17880137;stroke-miterlimit:4;stroke-dasharray:none"
       d="m 90.608976,118.91533 c 0.16271,-0.20111 0.15243,-0.18614 1.20356,-1.75468 0.51325,-0.7659 1.00539,-1.49692 1.09367,-1.62452 0.25024,-0.36171 0.2804,-0.41327 0.28047,-0.47943 10e-5,-0.0693 -0.22389,-0.43924 -0.62256,-1.02828 -0.14686,-0.217 -0.45868,-0.68681 -0.69295,-1.04408 -0.53528,-0.8163 -0.52393,-0.79924 -0.92341,-1.38814 -0.18324,-0.27012 -0.3398,-0.50843 -0.34791,-0.52956 -0.008,-0.0211 0.0104,-0.0503 0.0411,-0.065 0.0308,-0.0146 0.47297,-0.0338 0.98271,-0.0426 l 0.92681,-0.0161 0.0261,-0.10825 c 0.11931,-0.49499 0.2059,-0.66123 0.43364,-0.8325 0.31796,-0.23912 0.74845,-0.31299 1.08663,-0.18645 0.41035,0.15352 0.7602,0.61767 0.7602,1.00854 0,0.11281 0.15903,0.13374 1.02073,0.13438 0.82526,5.3e-4 0.92791,0.01 0.92791,0.0819 0,0.0764 -0.12349,0.29064 -0.43422,0.75297 -0.16577,0.24668 -0.42618,0.6364 -0.57866,0.86607 -0.15248,0.22966 -0.36145,0.54284 -0.46436,0.69594 -0.10291,0.15311 -0.30549,0.45932 -0.45015,0.68048 -0.14467,0.22115 -0.33391,0.5041 -0.42052,0.62875 -0.17506,0.25196 -0.19446,0.35494 -0.10425,0.55331 0.0292,0.0644 0.25395,0.42325 0.49927,0.79751 0.24531,0.37425 0.51876,0.79184 0.60765,0.92792 0.71801,1.09933 1.41,2.11877 1.4382,2.11877 0.0636,0 0.13307,-0.32226 0.26354,-1.22178 0.0272,-0.18712 0.0979,-0.63949 0.15736,-1.00525 0.10537,-0.64866 0.26236,-1.68411 0.32125,-2.11875 0.0162,-0.11909 0.065,-0.45314 0.10854,-0.74234 0.0435,-0.28921 0.0997,-0.67893 0.12477,-0.86606 0.025,-0.18714 0.0946,-0.66039 0.15447,-1.05165 0.0599,-0.39128 0.15745,-1.03155 0.2168,-1.42281 0.0594,-0.39128 0.12816,-0.82277 0.1529,-0.95886 0.0584,-0.32115 0.15264,-0.93301 0.23348,-1.51561 0.0354,-0.25518 0.0902,-0.62403 0.12171,-0.81967 0.0315,-0.19564 0.0791,-0.50185 0.10586,-0.68047 0.11243,-0.75216 0.334,-2.20871 0.39052,-2.56726 0.0335,-0.21265 0.1036,-0.66743 0.15573,-1.01062 0.0521,-0.3432 0.13657,-0.78164 0.18766,-0.97433 0.0511,-0.19268 0.10461,-0.39904 0.11893,-0.45859 0.0143,-0.0595 0.0479,-0.1848 0.0746,-0.27837 0.0267,-0.0936 0.0862,-0.312 0.13217,-0.4854 l 0.0835,-0.31528 -0.0533,-0.22601 c -0.0664,-0.28161 -0.14256,-0.519855 -0.16618,-0.519855 -0.01,0 -0.14479,0.0684 -0.29985,0.15197 -0.46186,0.248995 -0.90562,0.361615 -1.1029,0.279895 -0.10612,-0.044 -0.11115,-0.0863 -0.0286,-0.24015 0.1149,-0.214205 0.24899,-0.559945 0.27944,-0.720485 0.0507,-0.2671 0.0375,-0.3519 -0.0938,-0.60104 -0.19727,-0.37457 -0.33409,-0.7623 -0.3735,-1.05844 -0.0487,-0.36637 -0.0229,-0.73945 0.0636,-0.91812 0.0965,-0.19936 0.32478,-0.44127 0.50035,-0.53023 0.0826,-0.0418 0.15025,-0.0872 0.15025,-0.10076 0,-0.0551 -0.18794,-0.19189 -0.49489,-0.36025 -0.17863,-0.098 -0.40829,-0.22579 -0.51036,-0.28404 -0.10207,-0.0582 -0.26532,-0.1418 -0.36277,-0.18569 -0.0975,-0.0439 -0.25057,-0.12031 -0.34025,-0.16983 -1.3505,-0.73069 -2.03632,-1.41756 -3.23122,-1.67876 -1.45827,0.36861 -2.60174,1.1507 -3.61129,1.65622 -0.40916,0.20526 -0.75785,0.38374 -0.77485,0.39662 -0.017,0.0129 -0.37891,0.20121 -0.80421,0.41852 -0.42529,0.21731 -0.78719,0.40575 -0.8042,0.41875 -0.036,0.0275 -0.4806,0.25857 -1.99503,1.03678 -0.60393,0.31033 -1.2094,0.62356 -1.34549,0.69607 -0.1361,0.0725 -0.43535,0.22935 -0.66502,0.34855 -2.688617,1.39543 -3.208382,1.670735 -3.25163,1.722195 -0.05379,0.064 -0.09302,0.38036 -0.151574,1.22237 -0.01775,0.25519 -0.05236,0.70059 -0.07693,0.98979 -0.02457,0.2892 -0.06626,0.78332 -0.09266,1.09804 -0.02639,0.31472 -0.08195,0.9689 -0.123435,1.45375 -0.04149,0.48484 -0.08945,1.05551 -0.10657,1.26816 -0.01712,0.21265 -0.06562,0.75549 -0.107785,1.2063 -0.224998,2.40573 -0.230358,2.55188 -0.125349,3.41785 0.09934,0.81926 0.203726,1.74638 0.292523,2.59819 0.05143,0.49335 0.11431,1.07794 0.139735,1.2991 0.02543,0.22115 0.06778,0.59696 0.09414,0.83513 0.130285,1.17763 0.323961,2.87763 0.357257,3.13584 l 0.03742,0.29021 0.209655,-0.0176 c 0.54563,-0.0458 1.793283,-0.55229 2.581493,-1.0481 0.84429,-0.53106 1.08501,-0.73418 1.73433,-1.46339 0.64801,-0.72773 1.1632,-1.71997 1.41609,-2.72739 0.0918,-0.36583 0.26637,-1.37474 0.26637,-1.53978 0,-0.10786 -0.008,-0.11647 -0.17784,-0.19088 -0.697891,-0.30577 -1.084361,-0.5608 -1.540341,-1.01647 -0.32993,-0.3297 -0.34959,-0.35706 -0.56742,-0.78952 -0.14657,-0.29098 -0.23132,-0.49827 -0.24182,-0.59144 l -0.0162,-0.14347 0.15056,-0.0857 c 0.48148,-0.27407 1.16413,-0.74282 1.37632,-0.94504 0.612479,-0.5837 0.702909,-0.68803 0.978549,-1.12905 0.25088,-0.40141 0.40596,-0.73606 0.49022,-1.05779 0.27775,-1.06074 0.42025,-1.38056 0.85264,-1.91358 0.38019,-0.46867 0.65762,-0.67886 1.01781,-0.77114 0.37522,-0.0961 0.68107,-0.0124 0.95377,0.26111 0.18469,0.18525 0.28815,0.37352 0.40401,0.7352 0.1016,0.31717 0.12503,0.68282 0.0593,0.92451 -0.13869,0.5096 -0.54964,1.00596 -1.18002,1.42528 -0.2539,0.16889 -0.25424,0.17163 -0.0814,0.66255 0.29525,0.83877 0.29193,1.04625 -0.0393,2.4422 -0.1258,0.5303 -0.15427,0.69855 -0.14169,0.8373 0.01,0.10953 0.0975,0.3898 0.23727,0.75914 0.67029,1.7716 0.91208,2.74384 1.00717,4.04977 0.086,1.18118 0.049,2.20005 -0.10746,2.96043 -0.0515,0.25026 -0.0937,0.46948 -0.0937,0.48716 0,0.0813 0.1286,0.0189 0.23683,-0.11479 z"
       id="path3949" />
    <path
       sodipodi:type="star"
       style="fill:none;stroke:#ff0000;stroke-width:0.16042985;stroke-miterlimit:4;stroke-dasharray:none"
       id="path4827"
       sodipodi:sides="6"
       sodipodi:cx="93.876099"
       sodipodi:cy="86.642105"
       sodipodi:r1="4.477879"
       sodipodi:r2="2.2389395"
       sodipodi:arg1="0.52359878"
       sodipodi:arg2="1.0471976"
       inkscape:flatsided="false"
       inkscape:rounded="0"
       inkscape:randomized="0"
       d="m 97.754056,88.881045 -2.758488,-0.299961 -1.119469,2.5389 -1.11947,-2.5389 -2.758487,0.299961 1.639017,-2.23894 -1.639017,-2.238939 2.758487,0.299961 1.11947,-2.538901 1.119469,2.538901 2.758488,-0.299961 -1.639018,2.238939 z"
       inkscape:transform-center-x="-1.9324682e-006"
       inkscape:transform-center-y="-1.5827955e-006" />
  </g>
</svg>
