<?xml version="1.0" encoding="UTF-8" standalone="no"?>
<!-- Created with Inkscape (http://www.inkscape.org/) -->

<svg
   xmlns:dc="http://purl.org/dc/elements/1.1/"
   xmlns:cc="http://creativecommons.org/ns#"
   xmlns:rdf="http://www.w3.org/1999/02/22-rdf-syntax-ns#"
   xmlns:svg="http://www.w3.org/2000/svg"
   xmlns="http://www.w3.org/2000/svg"
   xmlns:sodipodi="http://sodipodi.sourceforge.net/DTD/sodipodi-0.dtd"
   xmlns:inkscape="http://www.inkscape.org/namespaces/inkscape"
   width="210mm"
   height="297mm"
   viewBox="0 0 210 297"
   version="1.1"
   id="svg3779"
   inkscape:version="0.92.2 (5c3e80d, 2017-08-06)"
   sodipodi:docname="Nativity 2.svg">
  <defs
     id="defs3773" />
  <sodipodi:namedview
     id="base"
     pagecolor="#ffffff"
     bordercolor="#666666"
     borderopacity="1.0"
     inkscape:pageopacity="0.0"
     inkscape:pageshadow="2"
     inkscape:zoom="1.979899"
     inkscape:cx="547.41876"
     inkscape:cy="451.29546"
     inkscape:document-units="mm"
     inkscape:current-layer="layer1"
     showgrid="false"
     inkscape:window-width="1920"
     inkscape:window-height="1017"
     inkscape:window-x="-8"
     inkscape:window-y="-8"
     inkscape:window-maximized="1" />
  <metadata
     id="metadata3776">
    <rdf:RDF>
      <cc:Work
         rdf:about="">
        <dc:format>image/svg+xml</dc:format>
        <dc:type
           rdf:resource="http://purl.org/dc/dcmitype/StillImage" />
        <dc:title></dc:title>
      </cc:Work>
    </rdf:RDF>
  </metadata>
  <g
     inkscape:label="Layer 1"
     inkscape:groupmode="layer"
     id="layer1">
    <path
       inkscape:connector-curvature="0"
       style="fill:none;stroke:#ff0000;stroke-width:0.08250441"
       d="m 91.922127,174.81251 -0.0301,-0.84348 0.2374,-0.11486 0.23741,-0.11486 -0.0541,-0.59617 c -0.048,-0.52987 -0.0309,-0.64581 0.15378,-1.04239 0.20533,-0.4409 0.20717,-0.46394 0.15491,-1.93471 -0.0656,-1.84663 0.002,-2.11831 0.71629,-2.88631 0.57783,-0.62114 0.62327,-0.70406 0.69952,-1.27674 0.0724,-0.54318 0.20984,-0.83363 0.50434,-1.06528 0.58057,-0.45667 1.68186,0.0475 1.68186,0.76987 0,0.38705 -0.31334,1.21263 -0.55834,1.47109 -0.11829,0.12479 -0.30095,0.22689 -0.4059,0.22689 -0.10495,0 -0.19083,0.0351 -0.19083,0.078 0,0.0429 0.29726,0.33989 0.66057,0.66003 0.82168,0.72406 1.02602,0.75736 1.39112,0.22669 0.13448,-0.19546 0.30948,-0.40894 0.38889,-0.4744 0.0794,-0.0654 0.27463,-0.32224 0.43384,-0.57064 0.26592,-0.4149 0.114292,-0.28401 0.211292,-1.22133 0.0929,-0.89785 0.05211,-1.06711 0.0554,-1.51087 0,0 -0.01122,-0.45202 0.0364,-0.58861 0,0 0.113031,-0.72826 0.549504,-0.12313 0.05906,0.47412 0.0515,0.25608 0.02746,0.7784 -0.05308,1.15312 -0.0023,1.32362 0.03185,2.07786 0.22668,0.25844 0.23519,0.81537 0.0167,1.09314 -0.14686,0.18669 0.0278,0.41277 -0.02888,3.77317 l 0.05067,3.72919 v 0 c 0.16521,0.0598 0.30037,0.13829 0.30037,0.17454 0,0.0362 0.25894,0.0659 0.57541,0.0659 0.543863,0 0.581953,-0.0124 0.694503,-0.22688 0.0655,-0.12479 0.27064,-0.37365 0.45589,-0.55303 0.18524,-0.17937 0.33681,-0.37002 0.33681,-0.42366 0,-0.14367 -0.43733,-0.41334 -0.47705,-0.29416 -0.0465,0.13951 -0.6395,0.11721 -0.76051,-0.0286 -0.0565,-0.0681 -0.148683,-0.12376 -0.204873,-0.12376 -0.16662,0 -0.0651,-1.57711 0.11047,-1.71656 0.0746,-0.0592 0.125153,-0.1596 0.112313,-0.22298 -0.033,-0.16274 0.61191,-0.33336 0.76856,-0.20335 0.16975,0.14089 0.28608,0.023 0.28608,-0.28996 0,-0.28368 0.17332,-0.53731 0.36716,-0.53731 0.0593,0 0.15459,0.11284 0.21172,0.25075 0.0904,0.2182 0.0852,0.26441 -0.0402,0.3561 -0.15286,0.11177 -0.1478,0.38984 0.008,0.44172 0.0512,0.017 0.16982,-0.0994 0.26379,-0.25864 0.23544,-0.39904 0.55795,-0.47495 0.80376,-0.18918 0.10087,0.11727 0.19825,0.25776 0.2164,0.31221 0.0383,0.11491 0.39697,0.0286 0.39697,-0.0955 0,-0.0434 -0.0871,-0.11209 -0.19351,-0.15255 -0.14119,-0.0537 -0.19542,-0.1409 -0.2006,-0.32258 -0.004,-0.13696 0.0367,-0.28429 0.0904,-0.32741 0.16371,-0.13169 0.46817,0.0461 0.59382,0.34685 0.17215,0.41202 0.34722,0.56376 0.5347,0.46343 0.18015,-0.0964 0.33055,-0.0515 0.80165,0.23914 l 0.34763,0.2145 0.003,0.80998 c 0.003,0.73402 -0.0106,0.80583 -0.14137,0.76572 -0.44264,-0.13571 -0.72528,-0.0775 -1.13444,0.23346 -0.22688,0.17246 -0.42289,0.34046 -0.43559,0.37333 -0.0127,0.0329 0.17899,0.19394 0.42595,0.35791 0.24695,0.16397 0.54948,0.42984 0.67227,0.59083 0.16466,0.21589 0.28565,0.29271 0.46098,0.29271 h 0.23772 l 0.002,-0.80442 c 6.8e-4,-0.44244 0.0292,-0.84849 0.0635,-0.90235 0.0343,-0.0539 0.24392,-0.1758 0.46593,-0.27096 0.222,-0.0952 0.57396,-0.29687 0.78213,-0.44825 0.20817,-0.15136 0.6444,-0.41186 0.96941,-0.57886 0.32501,-0.16701 0.61189,-0.35828 0.63751,-0.42504 0.052,-0.13546 -0.23341,-0.92555 -0.3936,-1.08966 -0.0834,-0.0855 -0.19143,-0.0651 -0.56889,0.10772 -0.57501,0.26325 -0.70572,0.21151 -1.00357,-0.39727 -0.26168,-0.53485 -0.7062,-2.25739 -0.7062,-2.73656 0,-0.45362 0.14133,-0.85133 0.3404,-0.95786 0.20769,-0.11116 0.27204,-0.0624 0.4775,0.36208 0.19594,0.40475 0.21121,0.60776 0.0789,1.04928 -0.0872,0.29112 -0.0736,0.34354 0.21224,0.814 0.168,0.27656 0.35544,0.50283 0.41651,0.50283 0.11863,0 0.3716,-0.68817 0.56941,-1.54903 l 0.11897,-0.51772 -0.38717,-0.1962 c -0.35136,-0.17804 -0.40797,-0.24943 -0.61195,-0.77168 -0.25813,-0.66086 -0.27006,-0.79706 -0.10454,-1.19319 0.1561,-0.37362 0.54266,-0.55752 1.17105,-0.55712 0.87736,6.3e-4 1.13026,0.27513 1.96017,2.12813 l 0.48756,1.08861 -0.15202,0.2823 c -0.14887,0.27642 -0.14837,0.29601 0.0244,0.94123 0.097,0.36241 0.37821,1.13838 0.62492,1.72437 0.73661,1.74958 0.76317,2.24679 0.14769,2.76467 -0.1423,0.11975 -0.25872,0.25394 -0.25872,0.29821 0,0.12913 0.49472,0.50933 0.9591,0.73708 l 0.42861,0.21021 0.79886,-0.15792 0.79887,-0.15793 -0.0107,-4.48872 c -0.006,-2.46879 -0.0297,-4.51937 -0.0528,-4.55682 -0.0231,-0.0375 -0.47535,-0.43079 -1.00489,-0.87407 -0.52956,-0.44327 -1.35229,-1.1889 -1.82829,-1.65694 l -0.86548,-0.85097 -5.11879,-0.0273 c -2.81534,-0.015 -6.630443,-0.0557 -8.478013,-0.0904 l -3.35922,-0.0631 -0.43599,0.48603 c -1.19782,1.33533 -2.20889,2.26494 -3.1791,2.923 -0.18067,0.12254 -0.18366,0.16093 -0.30576,3.91896 -0.0679,2.08736 -0.1461,4.26702 -0.17397,4.84368 l -0.0506,1.04848 0.68796,0.0279 c 0.37836,0.0154 1.07275,0.0355 1.54308,0.0447 l 0.85513,0.0168 z"
       id="path886"
       sodipodi:nodetypes="cccccccccsscssccccccccscccccsscssccscccssccccccscccccccccccccsccccccccccsccccsccccccscccccsccccccccccccccccccccc" />
    <path
       inkscape:connector-curvature="0"
       style="fill:none;stroke:#ff0000;stroke-width:0.08250441"
       d="m 93.534667,175.58557 c 0.024,-0.0387 -0.0828,-0.2124 -0.23715,-0.38593 -0.23961,-0.26933 -0.2996,-0.2998 -0.40994,-0.20823 -0.0711,0.059 -0.12924,0.23266 -0.12924,0.38593 0,0.27472 0.005,0.27866 0.3664,0.27866 0.20152,0 0.38599,-0.0317 0.40993,-0.0704 z"
       id="path884" />
    <path
       inkscape:connector-curvature="0"
       style="fill:none;stroke:#ff0000;stroke-width:0.08250441"
       d="m 103.65682,175.37306 c -0.14942,-0.11024 -0.51232,-0.30271 -0.80645,-0.42771 -0.53435,-0.2271 -0.535,-0.22716 -0.82032,-0.0735 -0.15705,0.0846 -0.42324,0.2755 -0.59153,0.42428 l -0.30598,0.2705 1.39797,0.003 1.39798,0.003 -0.27167,-0.20043 z"
       id="path882" />
    <path
       inkscape:connector-curvature="0"
       style="fill:none;stroke:#ff0000;stroke-width:0.08250441"
       d="m 98.214437,171.59635 c 0.0132,-1.75635 0.003,-3.21478 -0.0235,-3.24095 -0.0684,-0.0684 -0.22125,0.34143 -0.3149,0.84458 -0.16115,0.86572 -0.49594,1.16733 -1.17521,1.05871 -0.31283,-0.05 -0.51924,-0.14776 -1.12751,-0.53395 -0.18707,-0.11876 -0.19377,-0.11624 -0.14016,0.0527 0.039,0.12312 0.004,0.22913 -0.11294,0.3466 -0.17898,0.17898 -0.2458,0.82926 -0.0852,0.82926 0.0462,0 0.27825,-0.1021 0.51566,-0.22688 0.36093,-0.18973 0.53429,-0.2269 1.0584,-0.2269 1.09019,0 1.15321,0.14234 1.08761,2.45611 -0.038,1.34069 -0.0252,1.73206 0.0598,1.83457 0.0595,0.0717 0.13643,0.10089 0.17102,0.0649 0.0346,-0.0359 0.0737,-1.50239 0.0869,-3.25873 z"
       id="path880" />
    <path
       inkscape:connector-curvature="0"
       style="fill:none;stroke:#ff0000;stroke-width:0.08250441"
       d="m 103.15389,173.81795 c 0.2846,-0.12674 0.27594,-0.12869 -0.59816,-0.13533 -0.4878,-0.004 -0.88692,0.0106 -0.88692,0.0319 0,0.0212 0.1021,0.0961 0.22689,0.16645 0.27062,0.15245 0.83819,0.12403 1.25819,-0.063 z"
       id="path876" />
    <path
       inkscape:connector-curvature="0"
       style="fill:none;stroke:#ff0000;stroke-width:0.08250441"
       d="m 89.751567,163.38343 c 0.54431,-0.33699 1.35668,-0.92165 1.35668,-0.97642 0,-0.0189 -0.44552,-0.0342 -0.99005,-0.0342 h -0.99006 v 0.66004 c 0,0.36302 0.0279,0.66002 0.0619,0.65999 0.034,-2e-5 0.28673,-0.13925 0.56155,-0.30939 z"
       id="path874" />
    <path
       inkscape:connector-curvature="0"
       style="fill:none;stroke:#ff0000;stroke-width:0.08250441"
       d="m 113.69717,163.01587 -0.024,-0.67699 -0.90754,0.024 c -0.49915,0.0132 -0.91595,0.0323 -0.92619,0.0425 -0.0286,0.0285 1.74225,1.28051 1.81644,1.28426 0.0359,0.002 0.0545,-0.30134 0.0413,-0.67369 z"
       id="path872" />
    <path
       inkscape:connector-curvature="0"
       style="fill:none;stroke:#ff0000;stroke-width:0.08250441"
       d="m 93.830887,160.25863 c 0,-0.11987 -1.20746,-1.4218 -1.32383,-1.42739 -0.23483,-0.0113 -2.63637,1.30717 -2.63637,1.44738 0,0.0174 0.89104,0.0316 1.9801,0.0316 1.08906,0 1.9801,-0.0232 1.9801,-0.0515 z"
       id="path870" />
    <path
       inkscape:connector-curvature="0"
       style="fill:none;stroke:#ff0000;stroke-width:0.08250441"
       d="m 100.20605,157.32021 c 0.0264,-1.64449 0.0384,-2.99959 0.0267,-3.01132 -0.0118,-0.0117 -0.700693,0.29451 -1.531013,0.68055 -1.26488,0.58809 -1.77789,0.88625 -3.16383,1.83882 -0.90978,0.62532 -1.66791,1.17821 -1.68473,1.22866 -0.0264,0.0793 0.63741,0.8856 1.60042,1.94387 l 0.28153,0.30939 h 2.21143 2.211423 z"
       id="path868" />
    <path
       inkscape:connector-curvature="0"
       style="fill:none;stroke:#ff0000;stroke-width:0.08250441"
       d="m 108.11098,159.22831 c 0.51808,-0.59502 0.95157,-1.10644 0.96329,-1.1365 0.0118,-0.0301 -0.52662,-0.37256 -1.19631,-0.76115 -0.66969,-0.38858 -2.01181,-1.17835 -2.98248,-1.75505 -0.97066,-0.57669 -1.87098,-1.10342 -2.00073,-1.17051 l -0.23588,-0.12198 v 3.01353 3.01353 h 2.25506 2.25507 z"
       id="path866" />
    <path
       inkscape:connector-curvature="0"
       style="fill:none;stroke:#ff0000;stroke-width:0.08250441"
       d="m 112.88941,160.27146 c 0,-0.11204 -2.3112,-1.44636 -2.50529,-1.44636 -0.16362,0 -1.28991,1.24948 -1.28991,1.43099 0,0.0297 0.85392,0.0541 1.8976,0.0541 1.04369,0 1.8976,-0.0174 1.8976,-0.0387 z"
       id="path826-5" />
    <path
       style="fill:none;fill-opacity:1;stroke:#ff0000;stroke-width:0.21208748;stroke-miterlimit:4;stroke-dasharray:none"
       d="m 101.42602,145.53007 -1.14586,1.98429 h -2.174981 l 1.087748,1.88401 -1.087748,1.88346 h 2.174981 l 1.14586,1.98429 1.14586,-1.98429 h 2.17554 l -1.08776,-1.88346 1.08776,-1.88401 h -2.17554 z"
       id="path906-7"
       inkscape:connector-curvature="0" />
  </g>
</svg>
