<?xml version="1.0" encoding="UTF-8" standalone="no"?>
<!-- Created with Inkscape (http://www.inkscape.org/) -->

<svg
   xmlns:dc="http://purl.org/dc/elements/1.1/"
   xmlns:cc="http://creativecommons.org/ns#"
   xmlns:rdf="http://www.w3.org/1999/02/22-rdf-syntax-ns#"
   xmlns:svg="http://www.w3.org/2000/svg"
   xmlns="http://www.w3.org/2000/svg"
   xmlns:sodipodi="http://sodipodi.sourceforge.net/DTD/sodipodi-0.dtd"
   xmlns:inkscape="http://www.inkscape.org/namespaces/inkscape"
   width="210mm"
   height="297mm"
   viewBox="0 0 210 297"
   version="1.1"
   id="svg8"
   inkscape:version="0.92.3 (2405546, 2018-03-11)"
   sodipodi:docname="Nativity_Baubles.svg">
  <defs
     id="defs2" />
  <sodipodi:namedview
     id="base"
     pagecolor="#ffffff"
     bordercolor="#666666"
     borderopacity="1.0"
     inkscape:pageopacity="0.0"
     inkscape:pageshadow="2"
     inkscape:zoom="1.979899"
     inkscape:cx="260.59569"
     inkscape:cy="899.49104"
     inkscape:document-units="mm"
     inkscape:current-layer="layer1"
     showgrid="false"
     inkscape:window-width="1920"
     inkscape:window-height="1137"
     inkscape:window-x="-8"
     inkscape:window-y="-8"
     inkscape:window-maximized="1" />
  <metadata
     id="metadata5">
    <rdf:RDF>
      <cc:Work
         rdf:about="">
        <dc:format>image/svg+xml</dc:format>
        <dc:type
           rdf:resource="http://purl.org/dc/dcmitype/StillImage" />
        <dc:title></dc:title>
      </cc:Work>
    </rdf:RDF>
  </metadata>
  <g
     inkscape:label="Layer 1"
     inkscape:groupmode="layer"
     id="layer1">
    <path
       style="fill:#000000;stroke-width:0.08099739"
       d="m 16.290771,66.723612 v -1.185523 l 2.247678,0.04646 c 1.236222,0.02558 2.812634,0.104764 3.503137,0.175997 0.690503,0.07124 1.492376,0.137313 1.781942,0.14683 l 0.526483,0.01732 0.05402,-1.457954 c 0.221949,-5.989796 0.393991,-10.289085 0.430092,-10.747917 0.04165,-0.529415 0.03739,-0.544761 -0.180226,-0.648849 -0.244751,-0.117064 -0.323118,-0.440191 -0.337292,-1.390698 -0.0078,-0.523799 0.0155,-0.511805 -0.634826,-0.326616 -0.147939,0.04215 -0.182244,0.01963 -0.182244,-0.119547 0,-0.0943 0.04556,-0.173751 0.101247,-0.176577 0.05569,-0.0025 0.01508,-0.03964 -0.09024,-0.08181 -0.146291,-0.05859 -0.170644,-0.101786 -0.103174,-0.183087 0.06095,-0.07344 0.06231,-0.132422 0.0044,-0.190367 -0.120711,-0.120716 0.340031,-0.486003 0.753388,-0.597308 0.219587,-0.05909 0.298702,-0.111948 0.230662,-0.154002 -0.07729,-0.04778 -0.0796,-0.07881 -0.0091,-0.122398 0.06657,-0.04115 0.05118,-0.09021 -0.0521,-0.166073 -0.162302,-0.119209 -0.193702,-0.09889 0.574807,-0.371872 0.174026,-0.06178 0.331789,-0.170831 0.350584,-0.24227 0.01879,-0.07144 0.257659,-0.23546 0.530808,-0.364487 0.273149,-0.129033 0.665064,-0.349423 0.870921,-0.489762 0.205856,-0.140339 0.590033,-0.369939 0.853725,-0.510228 0.923074,-0.491101 1.812163,-1.017758 1.947739,-1.153757 0.07522,-0.07545 0.530062,-0.271823 1.010755,-0.436363 0.699094,-0.2393 0.878874,-0.332445 0.898412,-0.465493 0.01667,-0.113506 0.114453,-0.189428 0.307915,-0.239062 0.15592,-0.04002 0.348696,-0.14239 0.428391,-0.227531 0.0797,-0.08514 0.199058,-0.154796 0.265248,-0.154796 0.06619,0 0.151876,-0.08294 0.190412,-0.184295 0.05793,-0.152365 0.282088,-0.25095 1.293954,-0.569068 0.673137,-0.211628 1.223886,-0.40137 1.223886,-0.421637 0,-0.02026 -0.16402,-0.01439 -0.364488,0.01307 -0.202313,0.0277 -0.364488,0.01707 -0.364488,-0.02401 0,-0.04065 0.610517,-0.333814 1.356706,-0.651426 1.011822,-0.430685 1.362738,-0.616399 1.380433,-0.730586 0.01818,-0.117321 0.201502,-0.206507 0.784412,-0.381628 l 0.760686,-0.228531 0.673541,0.244302 c 2.480817,0.899817 2.738975,1.007832 2.738975,1.145978 0,0.08647 0.150555,0.214779 0.394365,0.336096 1.262114,0.627999 2.006097,1.050518 2.086842,1.185148 0.05048,0.08417 0.517516,0.364824 1.037855,0.623678 0.520341,0.258855 1.007547,0.534618 1.08268,0.612804 0.07514,0.07818 0.327963,0.204681 0.561842,0.281098 0.233878,0.07641 0.425235,0.166316 0.425235,0.199778 0,0.08407 0.728498,0.548519 1.10652,0.705454 0.171015,0.071 0.339882,0.17948 0.375259,0.24107 0.03538,0.0616 0.331672,0.235497 0.658431,0.386468 0.32676,0.150969 0.662421,0.342687 0.745916,0.426039 0.08349,0.08335 0.416791,0.277939 0.740667,0.43243 0.323872,0.154485 0.573069,0.322039 0.553768,0.372335 -0.02011,0.05241 0.186805,0.16978 0.485005,0.275057 0.529411,0.186896 0.68702,0.303879 0.535549,0.397499 -0.162145,0.100204 0.09793,0.300007 0.711614,0.546686 0.618894,0.248768 0.758487,0.407805 0.563833,0.642345 -0.05368,0.06468 -0.229823,0.118765 -0.391426,0.120179 -0.261655,0.0018 -0.278305,0.01439 -0.152078,0.110178 0.07796,0.05916 0.141746,0.144223 0.141746,0.188992 0,0.04477 0.07237,0.173407 0.160832,0.285862 0.13843,0.175978 0.144565,0.217963 0.04405,0.301384 -0.132224,0.109735 -0.189896,0.08344 -0.670613,-0.305793 l -0.344238,-0.278721 v 0.782579 0.782571 l -0.408812,0.254133 -0.408811,0.254133 0.04561,0.734739 c 0.02507,0.404109 0.118051,2.885228 0.206587,5.513585 0.08854,2.628369 0.182745,5.084244 0.209348,5.457504 l 0.04837,0.678653 1.510561,-0.04677 c 0.830809,-0.0257 2.148419,-0.08225 2.928017,-0.125594 0.779599,-0.04333 2.410685,-0.10385 3.624632,-0.134442 l 2.207179,-0.05565 v 1.173436 1.173429 l -6.82403,0.05184 c -6.224607,0.04726 -36.411196,0.211661 -38.757228,0.211055 l -0.992218,-2.5e-4 z m 12.948623,-1.991482 -0.02954,-0.828078 0.233067,-0.112762 0.233065,-0.112756 -0.05303,-0.585288 c -0.04713,-0.520185 -0.03035,-0.63401 0.150971,-1.023348 0.201579,-0.432843 0.203391,-0.455461 0.152087,-1.899364 -0.06442,-1.81291 0.0018,-2.079619 0.703197,-2.833594 0.56728,-0.60979 0.611888,-0.691203 0.686754,-1.253423 0.07101,-0.533254 0.206002,-0.818398 0.495118,-1.045816 0.569964,-0.448332 1.651142,0.04659 1.651142,0.755807 0,0.379983 -0.307618,1.190483 -0.548142,1.444221 -0.116128,0.122505 -0.295445,0.222741 -0.398483,0.222741 -0.103036,0 -0.187339,0.03446 -0.187339,0.07653 0,0.04209 0.291822,0.333683 0.648494,0.647979 0.806674,0.710833 1.007275,0.743519 1.365714,0.222547 0.132027,-0.191892 0.30383,-0.401476 0.381788,-0.465736 0.07796,-0.06426 0.269617,-0.316354 0.425913,-0.560213 0.261067,-0.407322 0.292603,-0.524824 0.387825,-1.445015 0.09122,-0.881457 0.133159,-1.047617 0.34958,-1.384876 0.13526,-0.210784 0.284173,-0.492958 0.330917,-0.62705 0.17969,-0.515456 -0.269894,-0.99979 -0.679143,-0.731643 -0.16105,0.105526 -0.207997,0.223334 -0.254724,0.639218 -0.0576,0.512693 -0.264443,0.874347 -0.500063,0.874347 -0.13758,0 -0.132395,-0.148694 0.01412,-0.40499 0.06366,-0.111374 0.117048,-0.395592 0.118625,-0.631602 0.0023,-0.352187 0.03938,-0.462928 0.206515,-0.617831 0.557171,-0.516371 1.497301,-0.147412 1.497301,0.587621 0,0.129171 -0.147682,0.628024 -0.328182,1.108569 -0.412901,1.099257 -0.494242,1.775014 -0.247522,2.056306 0.222541,0.25372 0.230893,0.800475 0.01639,1.073168 -0.144174,0.183282 -0.158239,0.428422 -0.213884,3.727439 l -0.05956,3.531257 0.29488,0.106627 c 0.162184,0.05866 0.29488,0.135762 0.29488,0.171356 0,0.03558 0.254206,0.06472 0.564903,0.06472 0.533918,0 0.571313,-0.01219 0.681801,-0.222741 0.0643,-0.12251 0.265699,-0.366825 0.447565,-0.542921 0.181866,-0.176103 0.330666,-0.363262 0.330666,-0.415928 0,-0.141046 -0.429343,-0.405791 -0.468344,-0.288789 -0.04565,0.136968 -0.627812,0.115075 -0.746617,-0.02808 -0.05545,-0.06682 -0.145964,-0.121497 -0.201125,-0.121497 -0.163576,0 -0.06393,-1.548297 0.108458,-1.685203 0.07324,-0.05816 0.122853,-0.15668 0.110248,-0.218908 -0.03236,-0.159762 0.600738,-0.327266 0.754528,-0.199634 0.166655,0.138314 0.280857,0.02258 0.280857,-0.284668 0,-0.278496 0.170142,-0.527489 0.360447,-0.527489 0.05824,0 0.151768,0.110774 0.207849,0.246167 0.08873,0.214211 0.08361,0.259585 -0.03948,0.349591 -0.150072,0.109735 -0.145099,0.382722 0.0079,0.433656 0.05018,0.0167 0.166713,-0.09755 0.258966,-0.253914 0.23114,-0.391752 0.547764,-0.466274 0.789084,-0.185727 0.09903,0.115132 0.194626,0.253057 0.212444,0.306512 0.03761,0.112812 0.389717,0.02808 0.389717,-0.09378 0,-0.04265 -0.08549,-0.110048 -0.189975,-0.14977 -0.138608,-0.05272 -0.191854,-0.138326 -0.196926,-0.316686 -0.0038,-0.134461 0.0361,-0.279096 0.08873,-0.321425 0.160722,-0.12929 0.459626,0.04528 0.582975,0.34051 0.169007,0.404491 0.340884,0.553459 0.524929,0.454962 0.176859,-0.09465 0.324515,-0.05059 0.78701,0.234772 l 0.341282,0.210584 0.0031,0.795186 c 0.0028,0.720612 -0.01035,0.791107 -0.138788,0.751729 -0.434557,-0.133223 -0.712032,-0.07612 -1.113715,0.2292 -0.222742,0.169305 -0.415176,0.334239 -0.427633,0.366513 -0.01246,0.03227 0.17572,0.190393 0.418164,0.351368 0.242445,0.160976 0.539442,0.421993 0.659991,0.580042 0.161659,0.211941 0.280426,0.287357 0.452557,0.287357 h 0.233381 l 0.0013,-0.789725 c 6.13e-4,-0.434351 0.02875,-0.832987 0.06237,-0.885866 0.03363,-0.0529 0.239456,-0.172582 0.457409,-0.266008 0.217951,-0.09343 0.563482,-0.291448 0.767849,-0.44006 0.204368,-0.1486 0.632634,-0.404339 0.951706,-0.568292 0.319072,-0.163959 0.600707,-0.35173 0.625859,-0.417272 0.05103,-0.132985 -0.229143,-0.908647 -0.386406,-1.06976 -0.08196,-0.08396 -0.187934,-0.06389 -0.558503,0.105758 -0.564508,0.258441 -0.692826,0.207644 -0.985234,-0.390014 -0.256903,-0.525087 -0.693302,-2.216162 -0.693302,-2.686576 0,-0.445337 0.138751,-0.835782 0.334182,-0.94037 0.203893,-0.109123 0.267072,-0.06122 0.468783,0.355469 0.192358,0.397355 0.207349,0.596664 0.07748,1.03012 -0.08563,0.2858 -0.07221,0.337259 0.20836,0.799125 0.164931,0.27151 0.348941,0.493651 0.408906,0.493651 0.116458,0 0.364806,-0.675601 0.559006,-1.520738 l 0.116792,-0.508266 -0.3801,-0.192611 c -0.344936,-0.17479 -0.400515,-0.244878 -0.600771,-0.757584 -0.253409,-0.648792 -0.265125,-0.782502 -0.10263,-1.171403 0.153255,-0.366794 0.532749,-0.547336 1.149659,-0.546943 0.861339,6.13e-4 1.109622,0.27011 1.924364,2.089255 l 0.478655,1.068735 -0.149248,0.27714 c -0.146141,0.271366 -0.145645,0.290602 0.02391,0.924036 0.09523,0.355795 0.371308,1.117587 0.613512,1.69287 0.723152,1.717627 0.749228,2.205757 0.144997,2.714178 -0.139703,0.117559 -0.254004,0.249299 -0.254004,0.292761 0,0.126769 0.48569,0.50003 0.941579,0.723621 l 0.420785,0.206368 0.784272,-0.155041 0.784276,-0.155041 -0.01053,-4.406729 c -0.0058,-2.423701 -0.02911,-4.436821 -0.05185,-4.473591 -0.02271,-0.03677 -0.46667,-0.422919 -0.986544,-0.8581 -0.519873,-0.435176 -1.327574,-1.167183 -1.79489,-1.626672 L 46.955407,52.67118 41.930112,52.64442 C 39.166198,52.62972 35.420781,52.58976 33.60696,52.5557 l -3.297857,-0.06197 -0.428023,0.477154 c -1.175946,1.310936 -2.168544,2.223574 -3.121029,2.869608 -0.177375,0.120304 -0.180316,0.157986 -0.300184,3.847373 -0.06658,2.049234 -0.143434,4.189079 -0.170786,4.755208 l -0.04973,1.029326 0.675382,0.02739 c 0.37146,0.01507 1.053164,0.03483 1.514897,0.04389 l 0.839512,0.01651 z m 1.583083,0.758933 c 0.02351,-0.03802 -0.08127,-0.20852 -0.232824,-0.378876 -0.235233,-0.264413 -0.294122,-0.294324 -0.402441,-0.20443 -0.06979,0.0579 -0.126885,0.228412 -0.126885,0.378882 0,0.269698 0.0051,0.273568 0.359707,0.273568 0.197839,0 0.378939,-0.03114 0.402443,-0.06914 z m 9.937259,-0.208626 c -0.146689,-0.108222 -0.502962,-0.297176 -0.791715,-0.419899 -0.524586,-0.222953 -0.525234,-0.223009 -0.805336,-0.07217 -0.15418,0.08304 -0.415507,0.270466 -0.580726,0.416528 l -0.300397,0.265564 1.372442,0.0031 1.372443,0.0031 -0.266711,-0.19677 z M 35.41677,61.574708 c 0.01299,-1.724268 0.0026,-3.156052 -0.0231,-3.181747 -0.06719,-0.06719 -0.217213,0.335196 -0.309154,0.829154 -0.158197,0.849909 -0.486879,1.146008 -1.153744,1.039375 -0.307113,-0.04909 -0.509746,-0.145067 -1.106915,-0.524199 -0.183647,-0.116589 -0.190225,-0.114119 -0.137602,0.05171 0.03836,0.120866 0.0044,0.224942 -0.110871,0.340268 -0.175712,0.175708 -0.241308,0.814114 -0.08365,0.814114 0.04537,0 0.273174,-0.100236 0.506234,-0.222741 0.354339,-0.186258 0.524531,-0.222747 1.039075,-0.222747 1.070273,0 1.132147,0.139733 1.067744,2.411244 -0.03732,1.316196 -0.02479,1.700418 0.05873,1.80106 0.05839,0.07036 0.133949,0.09904 0.167898,0.06374 0.03395,-0.03527 0.07236,-1.474944 0.08535,-3.199206 z m 11.734006,2.80626 c 0,-0.06945 -0.03705,-0.103381 -0.08232,-0.0754 -0.04528,0.02795 -0.06134,0.08481 -0.03571,0.126276 0.06944,0.112349 0.118035,0.0914 0.118035,-0.05084 z m -6.884778,-0.625236 c 0.279391,-0.124424 0.270896,-0.126337 -0.587232,-0.132853 -0.478897,-0.0038 -0.870722,0.01044 -0.870722,0.03133 0,0.02082 0.100234,0.09438 0.222743,0.163403 0.265673,0.149669 0.822879,0.121772 1.235211,-0.06185 z M 27.108481,53.511804 c 0.534364,-0.330825 1.331898,-0.904814 1.331898,-0.958575 0,-0.01851 -0.437386,-0.03358 -0.971969,-0.03358 h -0.971968 v 0.647979 c 0,0.356389 0.02734,0.647961 0.06074,0.647936 0.03341,-2.5e-5 0.281492,-0.136712 0.551291,-0.303741 z m 23.508209,-0.360841 -0.02352,-0.664627 -0.890969,0.02352 c -0.490034,0.01295 -0.899211,0.0317 -0.909276,0.04171 -0.0281,0.02795 1.710435,1.257119 1.783273,1.260802 0.03522,0.0018 0.05344,-0.295836 0.0405,-0.66138 z M 31.113293,50.444088 c 0,-0.117683 -1.185411,-1.395832 -1.299652,-1.401322 -0.230541,-0.01107 -2.588223,1.283295 -2.588223,1.420946 0,0.01707 0.874772,0.03101 1.943938,0.03101 1.069165,0 1.943937,-0.02276 1.943937,-0.05059 z m 6.258703,-2.884753 c 0.02594,-1.614451 0.03775,-2.944792 0.02623,-2.95631 -0.01152,-0.01151 -0.687891,0.289133 -1.503042,0.668121 -1.241773,0.577341 -1.745417,0.870058 -3.106038,1.805231 -0.89317,0.613893 -1.637452,1.156683 -1.653961,1.206216 -0.02594,0.07784 0.625774,0.86942 1.571183,1.908363 l 0.276395,0.303741 h 2.171029 2.171029 z m 7.760544,1.873256 c 0.508623,-0.584157 0.934189,-1.086237 0.945697,-1.115741 0.01151,-0.02952 -0.516999,-0.365757 -1.174463,-0.747247 -0.657461,-0.38149 -1.975062,-1.156833 -2.927995,-1.722992 -0.952938,-0.56616 -1.83682,-1.083268 -1.96419,-1.149135 l -0.231576,-0.119753 v 2.958487 2.958487 h 2.213877 2.213874 z m 4.691149,1.024092 c 0,-0.109998 -2.268985,-1.41994 -2.459527,-1.41994 -0.160631,0 -1.266352,1.226653 -1.266352,1.404851 0,0.0292 0.838325,0.05309 1.862941,0.05309 1.024618,0 1.862938,-0.01713 1.862938,-0.03802 z"
       id="path826"
       inkscape:connector-curvature="0" />
    <ellipse
       style="fill:none;fill-opacity:1;stroke:#0000ff;stroke-width:0.72262681;stroke-miterlimit:4;stroke-dasharray:none"
       id="path828"
       cx="38.776787"
       cy="54.726189"
       rx="19.638687"
       ry="17.138687" />
    <g
       id="g902"
       transform="translate(0,0.52916667)">
      <path
         id="path886"
         d="m 108.99498,63.179433 -0.0301,-0.843485 0.2374,-0.11486 0.23741,-0.114853 -0.0541,-0.596178 c -0.048,-0.529864 -0.0309,-0.645806 0.15378,-1.042388 0.20533,-0.440896 0.20717,-0.463936 0.15491,-1.934704 -0.0656,-1.84664 0.002,-2.118311 0.71629,-2.886315 0.57783,-0.621135 0.62327,-0.704062 0.69952,-1.276743 0.0724,-0.543176 0.20984,-0.833625 0.50434,-1.065274 0.58057,-0.456675 1.68186,0.04746 1.68186,0.769869 0,0.387053 -0.31334,1.212633 -0.55834,1.471092 -0.11829,0.124784 -0.30095,0.226885 -0.4059,0.226885 -0.10495,0 -0.19083,0.0351 -0.19083,0.07796 0,0.04287 0.29726,0.339891 0.66057,0.660036 0.82168,0.724058 1.02602,0.757352 1.39112,0.226687 0.13448,-0.195463 0.30948,-0.408946 0.38889,-0.474402 0.0794,-0.06545 0.27463,-0.322239 0.43384,-0.570636 0.26592,-0.414901 0.29804,-0.534588 0.39504,-1.4719 0.0929,-0.897858 0.13563,-1.067109 0.35608,-1.410643 0.13778,-0.214706 0.28946,-0.50213 0.33708,-0.638717 0.18303,-0.525047 -0.27492,-1.018392 -0.69178,-0.745256 -0.16405,0.10749 -0.21186,0.227489 -0.25947,0.651111 -0.0587,0.522232 -0.26936,0.890615 -0.50936,0.890615 -0.14014,0 -0.13486,-0.15146 0.0144,-0.412525 0.0649,-0.113446 0.11922,-0.402952 0.12083,-0.643354 0.003,-0.358739 0.0401,-0.471541 0.21036,-0.629326 0.56753,-0.525978 1.52516,-0.150155 1.52516,0.598554 0,0.131575 -0.15044,0.63971 -0.3343,1.129195 -0.42058,1.11971 -0.50344,1.80804 -0.25212,2.094565 0.22668,0.258441 0.23519,0.815369 0.0167,1.093135 -0.14686,0.186693 -0.16119,0.436394 -0.21787,3.796792 l -0.0607,3.596958 0.30036,0.108613 c 0.16521,0.05975 0.30037,0.138285 0.30037,0.174542 0,0.03625 0.25894,0.06593 0.57541,0.06593 0.54386,0 0.58195,-0.01243 0.6945,-0.226885 0.0655,-0.124789 0.27064,-0.373649 0.45589,-0.553023 0.18524,-0.179378 0.33681,-0.37002 0.33681,-0.423666 0,-0.14367 -0.43733,-0.413341 -0.47705,-0.294163 -0.0465,0.139518 -0.6395,0.117218 -0.76051,-0.0286 -0.0565,-0.06806 -0.14868,-0.123759 -0.20487,-0.123759 -0.16662,0 -0.0651,-1.577104 0.11047,-1.716557 0.0746,-0.05924 0.12515,-0.159595 0.11231,-0.222981 -0.033,-0.162734 0.61191,-0.333355 0.76856,-0.203348 0.16975,0.140887 0.28608,0.023 0.28608,-0.289965 0,-0.283678 0.17332,-0.537303 0.36716,-0.537303 0.0593,0 0.15459,0.112835 0.21172,0.250747 0.0904,0.218196 0.0852,0.264415 -0.0402,0.356095 -0.15286,0.111777 -0.1478,0.389843 0.008,0.441725 0.0512,0.01701 0.16982,-0.09937 0.26379,-0.258639 0.23544,-0.39904 0.55795,-0.474948 0.80376,-0.189182 0.10087,0.117274 0.19825,0.257766 0.2164,0.312215 0.0383,0.11491 0.39697,0.0286 0.39697,-0.09552 0,-0.04344 -0.0871,-0.112096 -0.19351,-0.152556 -0.14119,-0.0537 -0.19542,-0.1409 -0.2006,-0.322579 -0.004,-0.136962 0.0367,-0.284289 0.0904,-0.327405 0.16371,-0.131696 0.46817,0.04612 0.59382,0.346846 0.17215,0.412016 0.34722,0.563756 0.5347,0.463427 0.18015,-0.09641 0.33055,-0.05153 0.80165,0.23914 l 0.34763,0.214502 0.003,0.80998 c 0.003,0.73402 -0.0106,0.805827 -0.14137,0.765717 -0.44264,-0.135702 -0.72528,-0.07753 -1.13444,0.233465 -0.22688,0.172454 -0.42289,0.340458 -0.43559,0.373331 -0.0127,0.03287 0.17899,0.193935 0.42595,0.357906 0.24695,0.163971 0.54948,0.429844 0.67227,0.590834 0.16466,0.215883 0.28565,0.292704 0.46098,0.292704 h 0.23772 l 0.002,-0.804421 c 6.8e-4,-0.442432 0.0292,-0.848485 0.0635,-0.902346 0.0343,-0.05388 0.24392,-0.175794 0.46593,-0.270958 0.222,-0.09516 0.57396,-0.29687 0.78213,-0.448247 0.20817,-0.151365 0.6444,-0.411863 0.96941,-0.578866 0.32501,-0.16701 0.61189,-0.358274 0.63751,-0.425036 0.052,-0.135459 -0.23341,-0.925553 -0.3936,-1.089664 -0.0834,-0.08553 -0.19143,-0.06508 -0.56889,0.107726 -0.57501,0.26325 -0.70572,0.211508 -1.00357,-0.39727 -0.26168,-0.534857 -0.7062,-2.257396 -0.7062,-2.736562 0,-0.453623 0.14133,-0.851333 0.3404,-0.957867 0.20769,-0.111153 0.27204,-0.06236 0.4775,0.362083 0.19594,0.404749 0.21121,0.607765 0.0789,1.049286 -0.0872,0.291118 -0.0736,0.343535 0.21224,0.813993 0.168,0.276563 0.35544,0.502837 0.41651,0.502837 0.11863,0 0.3716,-0.688172 0.56941,-1.549033 l 0.11897,-0.517723 -0.38717,-0.196194 c -0.35136,-0.178043 -0.40797,-0.249435 -0.61195,-0.77168 -0.25813,-0.660863 -0.27006,-0.797061 -0.10454,-1.193198 0.1561,-0.373619 0.54266,-0.55752 1.17105,-0.557119 0.87736,6.32e-4 1.13026,0.275136 1.96017,2.128128 l 0.48756,1.088619 -0.15202,0.282296 c -0.14887,0.276416 -0.14837,0.29601 0.0244,0.941228 0.097,0.362415 0.37821,1.138381 0.62492,1.724368 0.73661,1.749585 0.76317,2.246797 0.14769,2.764678 -0.1423,0.119745 -0.25872,0.253938 -0.25872,0.298208 0,0.129129 0.49472,0.509332 0.9591,0.737083 l 0.42861,0.210208 0.79886,-0.157924 0.79887,-0.157926 -0.0107,-4.48872 c -0.006,-2.468796 -0.0297,-4.519372 -0.0528,-4.556826 -0.0231,-0.03746 -0.47535,-0.430787 -1.00489,-0.874066 -0.52956,-0.443273 -1.35229,-1.188899 -1.82829,-1.656937 l -0.86548,-0.850976 -5.11879,-0.02726 c -2.81534,-0.01497 -6.63044,-0.05567 -8.47801,-0.09037 l -3.35922,-0.06312 -0.43599,0.486032 c -1.19782,1.335327 -2.20889,2.264945 -3.1791,2.922999 -0.18067,0.122542 -0.18366,0.160926 -0.30576,3.918957 -0.0679,2.087361 -0.1461,4.267021 -0.17397,4.843683 l -0.0506,1.048477 0.68796,0.0279 c 0.37836,0.01536 1.07275,0.03548 1.54308,0.04471 l 0.85513,0.01683 z"
         style="fill:none;stroke:#ff0000;stroke-width:0.08250441"
         inkscape:connector-curvature="0" />
      <path
         id="path884"
         d="m 110.60752,63.952487 c 0.024,-0.03873 -0.0828,-0.212398 -0.23715,-0.385926 -0.23961,-0.269331 -0.2996,-0.299798 -0.40994,-0.208232 -0.0711,0.05898 -0.12924,0.232661 -0.12924,0.38593 0,0.274718 0.005,0.278659 0.3664,0.278659 0.20152,0 0.38599,-0.03172 0.40993,-0.07043 z"
         style="fill:none;stroke:#ff0000;stroke-width:0.08250441"
         inkscape:connector-curvature="0" />
      <path
         id="path882"
         d="m 120.72967,63.73998 c -0.14942,-0.110236 -0.51232,-0.302705 -0.80645,-0.427711 -0.53435,-0.227101 -0.535,-0.22716 -0.82032,-0.07351 -0.15705,0.08458 -0.42324,0.275497 -0.59153,0.424278 l -0.30598,0.270504 1.39797,0.0032 1.39798,0.0032 -0.27167,-0.200431 z"
         style="fill:none;stroke:#ff0000;stroke-width:0.08250441"
         inkscape:connector-curvature="0" />
      <path
         id="path880"
         d="m 115.28729,59.963266 c 0.0132,-1.756349 0.003,-3.214773 -0.0235,-3.240946 -0.0684,-0.06844 -0.22125,0.341432 -0.3149,0.844581 -0.16115,0.865722 -0.49594,1.16733 -1.17521,1.058713 -0.31283,-0.05001 -0.51924,-0.147766 -1.12751,-0.533952 -0.18707,-0.118759 -0.19377,-0.116242 -0.14016,0.05267 0.039,0.123114 0.004,0.229127 -0.11294,0.346598 -0.17898,0.178977 -0.2458,0.829261 -0.0852,0.829261 0.0462,0 0.27825,-0.102101 0.51566,-0.226885 0.36093,-0.189723 0.53429,-0.226891 1.0584,-0.226891 1.09019,0 1.15321,0.142333 1.08761,2.456107 -0.038,1.340685 -0.0252,1.732056 0.0598,1.834571 0.0595,0.07167 0.13643,0.100883 0.17102,0.06492 0.0346,-0.03592 0.0737,-1.502388 0.0869,-3.258731 z"
         style="fill:none;stroke:#ff0000;stroke-width:0.08250441"
         inkscape:connector-curvature="0" />
      <path
         id="path878"
         d="m 127.23962,62.82174 c 0,-0.07075 -0.0378,-0.105307 -0.0839,-0.07681 -0.0461,0.02847 -0.0625,0.08639 -0.0364,0.128624 0.0708,0.114441 0.12023,0.0931 0.12023,-0.05179 z"
         style="fill:none;stroke:#ff0000;stroke-width:0.08250441"
         inkscape:connector-curvature="0" />
      <path
         id="path876"
         d="m 120.22674,62.18487 c 0.2846,-0.126739 0.27594,-0.128688 -0.59816,-0.135326 -0.4878,-0.0038 -0.88692,0.01064 -0.88692,0.03192 0,0.02121 0.1021,0.09614 0.22689,0.166442 0.27062,0.152454 0.83819,0.124037 1.25819,-0.063 z"
         style="fill:none;stroke:#ff0000;stroke-width:0.08250441"
         inkscape:connector-curvature="0" />
      <path
         id="path874"
         d="m 106.82442,51.750345 c 0.54431,-0.33698 1.35668,-0.921649 1.35668,-0.97641 0,-0.01886 -0.44552,-0.0342 -0.99005,-0.0342 h -0.99006 v 0.660036 c 0,0.363019 0.0279,0.660016 0.0619,0.659991 0.034,-2.6e-5 0.28673,-0.139256 0.56155,-0.309393 z"
         style="fill:none;stroke:#ff0000;stroke-width:0.08250441"
         inkscape:connector-curvature="0" />
      <path
         id="path872"
         d="m 130.77002,51.38279 -0.024,-0.676993 -0.90754,0.02396 c -0.49915,0.01319 -0.91595,0.03229 -0.92619,0.04249 -0.0286,0.02847 1.74225,1.280509 1.81644,1.28426 0.0359,0.0019 0.0545,-0.301341 0.0413,-0.673686 z"
         style="fill:none;stroke:#ff0000;stroke-width:0.08250441"
         inkscape:connector-curvature="0" />
      <path
         id="path870"
         d="m 110.90374,48.625552 c 0,-0.119873 -1.20746,-1.421803 -1.32383,-1.427396 -0.23483,-0.01128 -2.63637,1.307173 -2.63637,1.447384 0,0.01739 0.89104,0.03159 1.9801,0.03159 1.08906,0 1.9801,-0.02319 1.9801,-0.05153 z"
         style="fill:none;stroke:#ff0000;stroke-width:0.08250441"
         inkscape:connector-curvature="0" />
      <path
         id="path868"
         d="m 117.2789,45.687126 c 0.0264,-1.64449 0.0384,-2.999583 0.0267,-3.011316 -0.0118,-0.01172 -0.70069,0.294513 -1.53101,0.680553 -1.26488,0.588083 -1.77789,0.886246 -3.16383,1.838819 -0.90978,0.625314 -1.66791,1.178204 -1.68473,1.228658 -0.0264,0.07929 0.63741,0.885596 1.60042,1.94387 l 0.28153,0.309392 h 2.21143 2.21142 z"
         style="fill:none;stroke:#ff0000;stroke-width:0.08250441"
         inkscape:connector-curvature="0" />
      <path
         id="path866"
         d="m 125.18383,47.595235 c 0.51808,-0.595026 0.95157,-1.106448 0.96329,-1.136501 0.0118,-0.03007 -0.52662,-0.372561 -1.19631,-0.761149 -0.66969,-0.388588 -2.01181,-1.178357 -2.98248,-1.755051 -0.97066,-0.576693 -1.87098,-1.103422 -2.00073,-1.170514 l -0.23588,-0.121982 v 3.013532 3.013532 h 2.25506 2.25507 z"
         style="fill:none;stroke:#ff0000;stroke-width:0.08250441"
         inkscape:connector-curvature="0" />
      <path
         id="path826-5"
         d="m 129.96226,48.638381 c 0,-0.112045 -2.3112,-1.446359 -2.50529,-1.446359 -0.16362,0 -1.28991,1.249475 -1.28991,1.430989 0,0.02974 0.85392,0.05408 1.8976,0.05408 1.04369,0 1.8976,-0.01745 1.8976,-0.03873 z"
         style="fill:none;stroke:#ff0000;stroke-width:0.08250441"
         inkscape:connector-curvature="0" />
    </g>
    <ellipse
       style="fill:none;fill-opacity:1;stroke:#0000ff;stroke-width:0.72262675;stroke-miterlimit:4;stroke-dasharray:none"
       id="path828-5"
       cx="118.4786"
       cy="53.971493"
       rx="19.638685"
       ry="17.138687" />
    <path
       style="fill:none;fill-opacity:1;stroke:#ff0000;stroke-width:0.12121715;stroke-miterlimit:4;stroke-dasharray:none"
       d="m 38.598861,39.089952 -0.654908,1.13411 H 36.70085 l 0.621708,1.076793 -0.621708,1.076479 h 1.243103 l 0.654908,1.13411 0.654911,-1.13411 h 1.243415 l -0.621707,-1.076479 0.621707,-1.076793 h -1.243415 z"
       id="path906"
       inkscape:connector-curvature="0" />
    <path
       style="fill:none;fill-opacity:1;stroke:#ff0000;stroke-width:0.12121715;stroke-miterlimit:4;stroke-dasharray:none"
       d="m 118.499,38.200117 -0.65491,1.13411 h -1.2431 l 0.6217,1.076793 -0.6217,1.076479 h 1.2431 l 0.65491,1.13411 0.65491,-1.13411 h 1.24341 l -0.6217,-1.076479 0.6217,-1.076793 h -1.24341 z"
       id="path906-7"
       inkscape:connector-curvature="0" />
  </g>
</svg>
