<?xml version="1.0" encoding="UTF-8" standalone="no"?>
<svg
   xmlns:dc="http://purl.org/dc/elements/1.1/"
   xmlns:cc="http://creativecommons.org/ns#"
   xmlns:rdf="http://www.w3.org/1999/02/22-rdf-syntax-ns#"
   xmlns:svg="http://www.w3.org/2000/svg"
   xmlns="http://www.w3.org/2000/svg"
   xmlns:sodipodi="http://sodipodi.sourceforge.net/DTD/sodipodi-0.dtd"
   xmlns:inkscape="http://www.inkscape.org/namespaces/inkscape"
   sodipodi:docname="Snowflake.svg"
   inkscape:version="1.0 (4035a4fb49, 2020-05-01)"
   id="svg8"
   version="1.1"
   viewBox="0 0 111 124"
   height="124mm"
   width="111mm">
  <defs
     id="defs2">
    <clipPath
       id="clipPath1082"
       clipPathUnits="userSpaceOnUse">
      <rect
         y="193.14583"
         x="15.875"
         height="164.79761"
         width="160.63989"
         id="rect1084"
         style="fill:none;fill-opacity:0.0852941;stroke:#ff0000;stroke-width:0.264999;stroke-linecap:round" />
    </clipPath>
  </defs>
  <sodipodi:namedview
     inkscape:window-maximized="1"
     inkscape:window-y="-8"
     inkscape:window-x="-8"
     inkscape:window-height="1137"
     inkscape:window-width="1920"
     showgrid="true"
     inkscape:document-rotation="0"
     inkscape:current-layer="layer1"
     inkscape:document-units="mm"
     inkscape:cy="211.77664"
     inkscape:cx="429.78357"
     inkscape:zoom="1.4"
     inkscape:pageshadow="2"
     inkscape:pageopacity="0.0"
     borderopacity="1.0"
     bordercolor="#666666"
     pagecolor="#ffffff"
     id="base">
    <inkscape:grid
       enabled="false"
       spacingy="10"
       gridanglez="30"
       gridanglex="30"
       id="grid837"
       type="axonomgrid" />
  </sodipodi:namedview>
  <metadata
     id="metadata5">
    <rdf:RDF>
      <cc:Work
         rdf:about="">
        <dc:format>image/svg+xml</dc:format>
        <dc:type
           rdf:resource="http://purl.org/dc/dcmitype/StillImage" />
        <dc:title></dc:title>
      </cc:Work>
    </rdf:RDF>
  </metadata>
  <g
     id="layer1"
     inkscape:groupmode="layer"
     inkscape:label="Layer 1">
    <g
       transform="translate(-51.689118,4.2640642)"
       id="g1366">
      <path
         id="path1313"
         style="fill:none;stroke:#ff0000;stroke-width:0.356001;stroke-miterlimit:4;stroke-dasharray:none"
         d="m 107.68829,19.265891 c 0.51691,-0.03591 1.01375,-0.3304 1.26184,-0.790411 0.38559,-0.559541 0.45093,-1.321778 0.15776,-1.936165 -0.25581,-0.64348 -0.87101,-1.1876 -1.58823,-1.19047 -0.55233,-0.03045 -1.13211,0.15868 -1.50187,0.58336 -0.50177,0.517811 -0.80608,1.298048 -0.58455,2.010045 0.20443,0.537941 0.6401,0.97442 1.15328,1.224397 0.34668,0.143539 0.73489,0.159325 1.10177,0.09924 z" />
      <path
         id="path1129"
         style="fill:none;stroke:#ff0000;stroke-width:0.356001;stroke-miterlimit:4;stroke-dasharray:none"
         d="m 108.12544,77.226021 c 7.41813,-0.93454 14.87391,-5.389328 17.56252,-12.635395 3.79199,-8.702405 0.23663,-19.928093 -8.04329,-24.658623 -4.56961,-2.809647 -10.28534,-3.53292 -15.42829,-2.041778 -5.96406,1.609905 -11.189176,6.026511 -13.348543,11.871314 -3.653999,8.772987 0.002,20.052685 8.470369,24.579708 3.249854,1.921169 7.043244,2.751706 10.787234,2.884774 z" />
      <path
         id="path1099"
         style="fill:none;stroke:#ff0000;stroke-width:0.356001;stroke-miterlimit:4;stroke-dasharray:none"
         d="m 106.16453,118.83667 c -3.69543,-0.19807 -2.24362,-5.01814 -2.34776,-7.47513 0.063,-2.70209 0.81869,-6.29672 -1.75755,-7.88865 -2.957057,-0.40734 -5.070794,2.30847 -7.286742,3.98772 -1.201546,1.13262 -2.528008,1.70814 -3.734085,1.33287 -1.410025,-0.43873 -2.655508,-2.04703 -3.344478,-3.61286 -0.725817,-2.77125 2.430623,-4.00782 3.982881,-5.291075 2.162702,-1.3205 4.017903,-3.461504 6.430721,-4.838653 1.332819,-1.060944 2.779403,-2.195359 3.910663,-3.140643 1.63675,-1.224742 1.15889,-3.961819 -1.20118,-4.084368 -7.10042,-1.13404 -13.094712,-5.428969 -18.319601,-10.113769 -2.947837,-1.616452 -4.21759,2.341355 -3.820447,4.626843 -0.565701,4.851357 -0.764391,9.756073 -1.465574,14.549613 -1.262809,2.51311 -8.293792,2.051796 -7.454351,-1.81724 -0.175464,-3.252238 1.814424,-7.421961 -0.681228,-10.07961 -2.615049,-1.01845 -4.837368,1.803046 -7.119177,2.741631 -2.491985,0.987039 -5.542526,4.807725 -7.970527,2.11815 -1.716228,-1.858975 -2.957418,-5.634985 0.400111,-6.557618 3.113237,-2.053083 6.693922,-3.613216 9.222239,-6.40278 1.417699,-3.18998 -2.847641,-3.764903 -4.817702,-4.915789 -1.631333,-1.07451 -4.881648,-1.903868 -5.155313,-2.912525 -0.174874,-0.861424 0.918302,-6.106671 3.836483,-5.865673 5.115088,1.989306 9.933744,4.411963 15.026071,6.410075 3.287967,1.832529 5.666285,-1.857613 3.937544,-4.702819 -2.079925,-6.2676 -0.587569,-12.672469 0.638737,-18.967124 -0.04882,-3.26433 -4.298798,-2.087021 -6.090886,-1.082423 -4.577238,1.771713 -8.817501,4.458083 -13.525854,5.877175 -2.657213,0.01947 -4.081432,-4.451833 -3.74405,-5.561599 0.580661,-1.654947 4.773815,-2.903865 7.124262,-4.451748 1.622727,-1.116029 4.172457,-2.828536 2.267141,-4.720885 -3.412997,-2.321337 -7.293901,-4.052952 -10.731002,-6.36161 -1.674259,-3.228521 1.043124,-6.58068 4.419945,-5.670317 3.483657,1.745548 6.639244,4.425576 10.536961,5.152832 2.995679,0.325017 3.242454,-2.786292 2.954898,-4.928054 -0.199684,-2.271997 -1.354483,-5.761445 -0.251659,-7.322263 0.6404,-0.966827 4.262307,-1.498296 5.615403,-0.801625 1.458827,0.751108 1.741027,2.703044 1.753327,5.299107 0.651289,4.808534 0.454002,9.432558 1.980399,14.005231 2.148982,3.927844 8.194203,-4.014373 10.398453,-5.294681 4.729752,-3.235547 6.798476,-2.97794 12.088487,-5.353873 2.13235,-1.295378 0.081,-3.888638 -1.4926,-4.685816 -4.164131,-3.260392 -8.468464,-6.374761 -12.684248,-9.575384 -0.554245,-2.1680692 2.160082,-5.5738876 4.587201,-4.5632301 2.852219,1.5477543 5.192716,4.3876771 8.541307,4.7511441 4.34192,-0.535508 2.62695,-6.3001458 2.98763,-9.386748 -0.62991,-4.5015258 0.36601,-5.4874718 3.24386,-5.3180831 5.03397,-0.4316927 3.63298,3.83499472 3.84778,6.0040033 0.36558,2.8310529 -0.66784,6.2794759 1.22679,8.6736608 2.33087,1.423566 4.355,-1.2400109 6.29488,-2.2922701 1.76198,-1.0960362 4.4819,-4.1249923 6.32636,-1.5759608 1.61828,1.6357364 3.60179,4.8357579 0.47581,6.1008089 -1.82862,1.461512 -4.02045,2.852975 -5.87176,4.286603 -2.45553,1.836457 -5.72879,3.50716 -7.61982,6.156492 -0.51601,2.884426 3.28377,2.385481 5.11558,3.049908 5.68736,1.456673 10.08602,5.331072 14.31606,9.324358 2.35713,1.94692 4.97239,-0.518318 4.55386,-3.120873 0.27821,-5.067651 0.79029,-10.130092 1.31729,-15.203134 1.57783,-1.742302 4.62795,-0.784877 6.50807,-0.108338 1.66637,2.231828 0.18359,5.337842 0.26774,7.919213 -0.49616,2.035381 0.80767,5.553366 3.41076,4.196331 3.3993,-1.595355 6.45873,-3.959341 9.88646,-5.454203 2.44751,-0.251237 2.92883,2.77185 4.17351,4.277049 0.55557,2.490921 -2.85358,3.032447 -4.36758,4.331661 -2.34879,1.655246 -5.69362,2.545493 -6.90628,5.325987 -0.25206,2.576838 2.86207,2.774222 4.48563,3.884018 1.91793,1.295143 6.17977,1.606542 5.45578,4.802617 -0.75431,1.758737 -1.32051,4.867728 -3.9925,3.784867 -4.8785,-2.135486 -9.67141,-4.659953 -14.63931,-6.468537 -3.08807,-1.064101 -4.83038,2.105319 -3.23259,4.554078 1.98662,6.026321 1.25125,12.481591 -0.13373,18.556582 -0.75946,3.314087 2.77917,3.290044 4.26623,2.069553 1.3514,-0.738803 3.02739,-1.276112 4.16889,-1.915773 0.76282,-0.292885 1.75093,-0.804559 2.24119,-1.041076 1.46706,-0.481636 2.7798,-1.319813 3.91661,-1.929846 1.86736,-0.527684 4.81314,-2.819528 6.15182,-0.131836 0.84766,1.828583 2.81698,4.729715 -0.10444,5.831348 -2.65944,1.632381 -6.01687,2.423372 -8.06311,4.852887 -1.00383,2.881498 2.94231,3.733165 4.67117,5.091703 2.07644,1.628477 5.01935,2.253932 6.62294,4.358121 0.22675,2.019432 -1.16992,4.648169 -2.98215,5.604409 -3.23109,-0.475269 -5.84277,-3.006496 -8.81128,-4.358839 -1.62609,-1.254826 -4.77145,-2.194513 -5.71305,0.292412 -0.43704,3.502968 0.98606,7.134791 0.53239,10.566953 -1.41974,1.679928 -6.08189,2.445544 -7.1486,-0.03967 -1.04807,-6.001825 -0.92234,-12.227618 -2.48304,-18.136894 -3.27866,-3.457524 -6.10778,1.915802 -8.62507,4.205435 -4.09372,3.244469 -9.19249,4.605627 -13.88193,6.66574 -2.27939,1.950647 0.69286,3.871298 2.28637,4.842708 3.94004,2.896302 8.14331,5.494862 11.85448,8.655638 1.60082,2.08575 -1.74615,6.01582 -2.94167,6.05393 -1.31271,0.13431 -4.54848,-2.79589 -6.99097,-3.97426 -1.55444,-1.44741 -4.92119,-1.85305 -5.43063,0.73337 -0.60125,2.29455 -0.67765,4.33133 -0.66003,7.26114 0.0146,2.43189 0.3922,5.68625 -0.67961,6.07299 -1.15665,0.446 -2.754,0.2571 -3.98397,0.25721 z"
         sodipodi:nodetypes="scccsccccccccccccccccccccccccccccccsccccccccccccccccccccccccccccccccccccccccccccccccccccccccscss" />
    </g>
  </g>
</svg>
