<?xml version="1.0" encoding="UTF-8" standalone="no"?>
<!-- Created with Inkscape (http://www.inkscape.org/) -->

<svg
   xmlns:dc="http://purl.org/dc/elements/1.1/"
   xmlns:cc="http://creativecommons.org/ns#"
   xmlns:rdf="http://www.w3.org/1999/02/22-rdf-syntax-ns#"
   xmlns:svg="http://www.w3.org/2000/svg"
   xmlns="http://www.w3.org/2000/svg"
   xmlns:sodipodi="http://sodipodi.sourceforge.net/DTD/sodipodi-0.dtd"
   xmlns:inkscape="http://www.inkscape.org/namespaces/inkscape"
   version="1.1"
   id="svg5947"
   width="793.59998"
   height="1118.72"
   viewBox="0 0 793.59998 1118.72"
   sodipodi:docname="A4 cover full layers FINAL.svg"
   inkscape:version="0.92.0 r15299">
  <metadata
     id="metadata5953">
    <rdf:RDF>
      <cc:Work
         rdf:about="">
        <dc:format>image/svg+xml</dc:format>
        <dc:type
           rdf:resource="http://purl.org/dc/dcmitype/StillImage" />
        <dc:title></dc:title>
      </cc:Work>
    </rdf:RDF>
  </metadata>
  <defs
     id="defs5951" />
  <sodipodi:namedview
     pagecolor="#ffffff"
     bordercolor="#666666"
     borderopacity="1"
     objecttolerance="10"
     gridtolerance="10"
     guidetolerance="10"
     inkscape:pageopacity="0"
     inkscape:pageshadow="2"
     inkscape:window-width="1920"
     inkscape:window-height="1028"
     id="namedview5949"
     showgrid="false"
     inkscape:zoom="1.1933439"
     inkscape:cx="556.71036"
     inkscape:cy="301.44354"
     inkscape:window-x="-8"
     inkscape:window-y="-8"
     inkscape:window-maximized="1"
     inkscape:current-layer="svg5947" />
  <path
     style="fill:none;stroke:#ff0000;stroke-width:0.31999999;stroke-opacity:1"
     d="m 404.15999,511.74048 c 0.8968,-11.76759 -5.72056,-34.22338 13.79238,-28.67299 12.23396,3.70357 -15.82587,14.0571 -11.30928,25.83304 -4.77224,12.1491 3.6968,23.87025 13.9971,29.63716 -19.89374,6.09544 -17.22302,-10.40428 -16.48,-24.97367 v -1.82345 z m 32.77757,26.53581 c 8.84886,-0.0261 20.00317,-29.93265 16.9791,-12.4377 -2.63223,8.0054 -7.27688,15.75957 -16.9791,12.4377 z m 14.17104,-0.268 c 5.99799,-26.76175 20.02228,6.13554 3e-5,10e-6 z m 16.88867,-0.14762 c -11.20388,-1.05187 18.12625,-35.35081 11.1991,-22.97485 7.53612,12.44196 17.00873,32.16326 -11.1991,22.97485 z M 490.06015,537.36 c -4.04832,-15.89193 -0.44242,-26.77024 5.12174,-39.77997 -0.86799,-13.8958 -5.06503,-27.5177 -9.06355,-40.70022 11.04066,4.77373 27.16087,10.07977 31.03353,23.18732 3.10562,19.70446 2.40349,39.69595 -4.67213,58.49088 -6.79246,-0.80771 -17.7735,1.60021 -22.41959,-1.19801 z m 26.74102,0.97734 c 2.92376,-7.39748 5.27531,-28.66036 7.32342,-31.45676 1.6362,-10.87553 11.70177,1.74679 18.11527,1.91938 24.25705,10.70376 49.10691,-4.85797 64.14726,-23.36001 20.19897,-1.72891 -6.45311,25.6824 -16.06726,30.71446 -14.97426,4.25808 -19.16989,25.59749 -36.32675,22.28376 -12.39697,0.009 -24.79837,0.2466 -37.19194,-0.10083 z m 58.23882,-1.62454 c 4.13576,-15.90574 26.28258,-15.41851 33.91999,-29.69565 10.36529,-10.58655 29.5539,4.07288 43.52,-4.93715 -9.42201,10.39808 -20.72964,24.79768 -32.77203,34.56 -13.55304,4.13166 -30.00373,0.69232 -44.66796,1.9376 z m 49.59999,1.70282 c 13.96378,-13.26943 24.01893,-34.68606 43.37888,-40.17562 1.93484,4.81655 -9.22628,14.11583 -11.69888,20.81005 -7.88655,12.11713 -14.4603,25.05922 -31.68,19.36557 z m 23.14013,-0.75312 c 9.371,-12.01979 17.3512,-25.50892 25.89987,-37.75354 -7.6353,10.7603 12.95448,41.36288 -6.9734,38.65104 -5.20511,-0.60261 -17.55106,1.2369 -18.92647,-0.8975 z m 33.1697,-1.2625 c -7.43627,-18.63764 -1.03148,-37.66035 2.71792,-56.27955 8.26637,11.16491 21.11312,19.30662 32.17229,23.71955 3.65168,10.89338 2.4601,26.81668 -6.47038,34.53863 -7.00569,-2.203 -24.58158,3.69801 -28.41983,-1.97863 z m 34.00857,1.76 c 4.25472,-10.59171 20.70407,-13.13994 19.24992,-27.09373 0.14283,-11.77042 12.8164,-19.91553 8.57148,-32.42627 19.1581,-6.72438 5.14931,28.51032 8.93312,38.69102 -9.37302,11.3077 -19.11092,27.22841 -36.75452,20.82898 z m 23.80589,-0.08 c 18.58918,-25.40834 20.97025,8.06993 0,0 z m -315.66402,-1.47542 c -1.75546,-0.8905 26.64886,-10.2964 18.3479,-29.01985 -14.4492,-12.97328 12.43243,-14.22945 10.11708,1.39183 0.44671,13.76401 -13.44944,32.32223 -28.46498,27.62802 z m 0.78172,-6.58368 c -11.00543,-12.96587 20.30529,-31.11149 7.24332,-14.61654 5.59962,11.20906 9.11639,-24.28974 6.19437,2.39268 -2.54717,5.48534 -5.30362,15.52936 -13.43769,12.22386 z m -8.1216,-1.41748 c -9.87229,-9.85016 7.12339,-31.49808 18.721,-24.99451 -12.51757,2.45136 -14.06618,19.53099 -18.72102,24.99451 z m 48.48551,-1.58576 c 5.29297,-17.91583 -0.82507,-39.6313 -19.48644,-47.64128 -8.02849,-6.05636 28.02083,-3.4926 28.73271,9.36091 5.38389,13.43322 0.8472,29.78997 -9.24627,38.28037 z M 459.13106,523.12 c -1.12186,-15.78164 -9.7419,-31.55148 -23.611,-38.80397 -25.7065,-8.00724 17.96739,-4.94283 21.12,9.29393 7.11175,6.84026 8.87495,23.55402 2.491,29.51004 z m 262.14892,-0.53334 c 6.23629,-16.28863 -13.90321,-31.83873 -2.38375,-47.3601 8.41618,-18.05189 27.48953,5.78685 18.3836,17.09344 -8.64962,8.21675 -5.33733,26.27838 -15.99985,30.26666 z m -312.54495,-6.96055 c 0.3482,-14.63602 16.59665,-35.61816 31.72045,-24.31981 -10.00259,6.47481 -27.33139,9.66368 -31.29934,24.87158 l -0.42112,-0.55177 z m 73.90496,-3.50701 c -3.86676,-10.82165 -5.23314,-25.32498 -10.29715,-35.21728 1.52766,-19.85736 -24.45139,-38.90842 -39.51709,-21.69049 -5.792,7.34752 -17.42671,-2.52305 -25.28013,4.26571 -8.42062,-4.64657 -4.84343,-25.63777 9.8849,-25.05566 13.08256,-15.33637 37.92584,-14.43145 49.18131,3.09241 17.06051,15.43325 23.86482,39.82245 24.12708,61.98541 -0.80832,3.08459 -3.40299,14.71276 -8.09892,12.6199 z m 77.52,-5.2391 c -13.29813,0.16318 -25.78548,-5.73653 -36.12322,-13.70304 -2.41076,-8.69358 -15.78524,-31.92799 6.84322,-37.53949 17.24892,-9.00274 37.52485,-2.53186 55.64662,-0.49596 -9.62878,11.6292 7.80475,24.02027 12.17738,30.6428 -9.54076,12.11355 -22.33802,22.4781 -38.544,21.09569 z m 63.99999,-7.04 c -24.75338,-11.88622 24.33845,-0.12538 31.34996,-5.76 9.39009,-0.16317 24.19275,-22.07419 23.21011,-12.16 -7.32347,16.35221 -29.6828,16.61975 -45.10111,18.24 l -6.8686,-0.0845 -2.59028,-0.23553 z m 84.78135,-3.2301 c -6.4838,-2.08151 -28.11612,-24.92248 -21.42487,-22.0527 13.87986,19.77862 18.61552,-11.65124 29.44352,-17.48138 6.71531,-9.52748 -15.41809,-14.61478 0.48,-17.07571 8.33627,-7.58936 21.72711,-0.35194 15.84,11.08429 -3.9666,15.45761 -28.50733,20.28558 -21.60002,39.43142 -0.5283,1.05945 -0.10443,6.47058 -2.73863,6.09408 z m -79.0441,-5.40054 c -22.91111,-5.44691 16.44326,-4.14018 25.3128,-8.00925 8.6309,-1.35869 16.16579,-12.78945 22.70995,-12.27571 -8.44406,18.33898 -29.60937,23.08655 -48.02275,20.28496 z M 610.07998,482.56 c -10.50124,-0.77113 -21.86375,-10.21682 -20.77295,-20.8 14.35879,15.05268 37.29938,14.60616 55.44441,7.16998 -1.22419,17.06349 -23.64496,11.35817 -34.67146,13.63002 z m 33.76,-1.89843 c 12.08428,-8.03962 -1.25184,-30.28838 16.66892,-30.74157 7.72064,-7.49527 18.42323,-6.84919 19.01107,5.44 -2.07246,4.48245 -19.60552,-7.51205 -24.76121,5.47878 -9.37965,12.74682 12.82563,10.62495 18.84121,6.36122 -9.01259,6.29686 -18.32397,14.5149 -29.75999,13.46157 z m -239.48549,-0.25373 c -7.55471,-27.75203 27.9614,-18.92659 41.21254,-10.8395 21.61882,6.75814 -26.8727,2.79 -34.34985,9.42174 -2.3734,-9e-5 -4.52302,1.21547 -6.86269,1.41776 z M 694.07998,476.96 c -12.90593,-8.3762 -5.92983,-27.91597 8.43571,-29.12 24.47155,-1.1808 -1.27408,18.42236 -4.27566,28.96 l -2.14785,0.65827 -2.01215,-0.49827 z m 46.56,-4 c -17.43872,-5.54932 -1.24601,-16.4052 -2.08,-27.05888 -7.85313,-13.87122 1.22569,-23.3853 13.05735,-32.53744 1.59263,17.88222 0.11614,39.72818 0.54265,59.11632 -3.71079,1.089 -7.69479,0.88978 -11.52,0.48 z m -277.8605,-1.77923 c -18.66339,-1.61122 -40.14423,-23.84389 -7.29565,-16.75344 4.68881,0.3864 19.38736,21.71491 7.29565,16.75344 z M 612.95998,470.72 c -8.15545,-1.61748 -17.93509,-6.9098 -21.69711,-12.94707 12.12416,-8.29942 19.54563,1.08588 30.18415,5.58707 27.75082,1.77555 19.42998,7.14849 -4.62816,7.68 z m 43.744,-3.904 c -0.83429,-8.7284 18.69569,-12.09427 16.736,-4.096 -5.59887,1.76788 -10.28566,6.39317 -16.736,4.096 z m -142.09644,-3.51674 c -1.95755,-16.119 -30.12891,-21.83431 -7.7136,-33.21926 13.5267,-11.20392 4.92061,13.63149 12.46621,20.16717 6.83304,5.08969 -1.84132,10.86573 -4.75261,13.05209 z m 118.19651,-0.5727 c -5.02332,0.35115 -26.89324,-7.26094 -15.68407,-9.60656 9.78613,-1.42824 42.62039,13.86004 15.68407,9.60656 z M 504.47999,461.2433 c -10.48486,-6.95153 -22.89465,-9.68028 -29.28,-21.2433 -13.62859,-11.47905 11.75369,-3.74984 16.16,1.9624 3.99213,4.62429 26.90301,15.63727 13.12,19.2809 z M 643.51998,456.8 c -10.73237,-10.39196 -30.13183,-3.98545 -36.16,-19.68 13.19916,0.65993 26.92472,6.77162 37.93895,14.4481 1.00096,1.44994 1.78525,8.26451 -1.77895,5.2319 z m -118.79999,-5.74522 c -7.36252,-13.80386 -3.38424,-31.22741 -11.76,-44.97478 -1.49611,-10.86879 -12.28695,-18.09206 5.12,-18.24 14.0449,-5.66494 44.8767,-10.93133 47.84,0.96 -11.98146,2.65383 -26.3831,5.48125 -35.36,13.27722 16.29614,7.28994 20.6594,30.36118 39.68,33.92278 16.62698,-0.003 33.52948,-6.89704 39.99999,12.79619 -16.29283,6.17091 -35.25318,-0.24626 -52.79503,-2.39619 -11.35886,-1.83416 -22.73058,4.51883 -32.72496,4.65478 z M 647.41717,448.8 c -10.42428,-8.22144 -26.3367,-12.45869 -36.27168,-16.49792 11.81933,-2.33176 27.61406,-11.6807 36.21449,1.79693 3.46914,5.9204 13.88349,14.99955 0.0572,14.70099 z m 35.14281,-2.20576 c -9.68494,-9.69488 -18.36294,-20.20579 -27.66835,-30.59712 -21.56688,-16.07398 11.27141,-6.12826 14.70835,7.49174 2.73807,8.41657 17.33989,16.5372 12.96,23.10538 z M 658.76427,443.68 c -5.51244,-5.72617 -14.51899,-18.86734 -16.06317,-20.64 10.47726,-0.68114 30.15043,10.16319 21.27418,20.16 -1.52905,0.937 -3.53604,1.35536 -5.21101,0.48 z m 27.63571,-2.67885 c -2.1216,-8.48854 -10.83766,-13.09073 -14.08,-21.56438 -22.12185,-15.6647 -5.56246,-26.40137 3.53018,-7.56007 8.66885,4.91074 19.38333,27.39755 10.54984,29.12445 z m 12.24,0.69043 c 4.84275,-12.8258 13.50817,-25.10028 26.63882,-30.49158 12.87762,-12.53004 21.34218,-29.1176 26.80598,-46 -1.14194,21.38513 7.60483,46.41485 -16.72476,58.18739 -7.81929,12.13719 -24.31451,12.92918 -36.72004,18.30419 z m -209.99119,-7.3239 c -22.7398,-4.96019 -38.87151,-9.29097 -20.43107,-28.68768 9.36405,-7.26569 21.78462,-10.08762 30.23433,-18.98429 4.65813,8.40885 10.11487,16.11422 11.79335,25.99063 7.8623,9.99274 -7.876,13.81257 -14.08343,19.63366 l -3.71155,3.73603 z m -84.4888,-4.74611 c 1.7375,-7.20911 17.11239,-8.88062 23.16582,-17.78157 10.47698,-2.02052 19.15056,-11.9024 30.36122,-8.24 -8.53252,4.83944 -15.6765,13.92139 -25.04682,15.14656 -11.18155,1.91253 -16.72404,13.95465 -27.92022,15.69021 z m 291.00297,3.83731 c -2.51844,-16.50944 -22.68085,-25.70789 -22.2031,-43.05888 10.8877,1.77283 24.50831,5.74427 31.03999,15.36 1.08515,9.04276 -2.85945,22.16519 -8.83689,27.69888 z M 573.5557,431.84 c -13.66674,-1.65056 -19.85569,-15.83771 -27.82573,-25.07146 16.02038,3.21881 32.86126,4.56633 48.35002,9.8715 5.25958,-0.32021 51.27662,-0.44807 34.38995,6.08 -17.04161,7.38826 -37.01294,7.26105 -54.91424,9.11996 z m 135.13763,-13.17334 c 0.84174,-11.48781 -4.87337,-23.58648 4.95141,-32.74666 7.66234,-15.01666 17.93657,-30.24927 15.54213,-47.99462 6.37493,-10.1062 18.58619,-19.21405 21.85316,-1.81984 1.74395,26.96699 -9.409,56.7041 -30.65396,74.12832 -4.47249,2.21931 -8.60124,5.23879 -11.69274,8.4328 z M 632.79998,416 c -15.48351,-3.05652 -31.54155,-2.76967 -46.58892,-5.76 -13.59106,-3.7817 -28.38516,-3.86295 -42.03677,-8.59491 17.32268,-10.70274 41.46564,-10.13997 61.22653,-8.04611 13.04051,3.78386 22.83451,13.98301 33.31916,22.08 l -2.86112,0.64 -3.05888,-0.32 z M 404.1701,401.18192 c -4.19093,-19.59701 6.64477,-3.07325 17.09444,-4.38192 25.46806,0.31009 17.58123,12.39841 -6.10893,9.76 -9.7636,2.88662 -12.78933,11.36396 -10.98551,-5.37808 z M 633.59998,404.16 c -13.67643,-4.70248 -18.27257,-32.40117 -4.47987,-35.528 13.84208,6.86535 25.7175,17.41848 37.0704,27.70592 -5.01049,3.02981 -17.25292,4.35922 -24.83289,7.50212 -3.02308,0.43333 -5.50003,6.83912 -7.75764,0.31996 z m -177.39039,-5.70518 c -11.58486,-10.10176 -22.50815,-20.6279 -21.23046,-37.58221 -4.51307,-12.73042 -10.15427,-18.5012 8.46086,-18.95907 15.58924,2.65412 29.25648,-1.01814 37.52,-15.8564 3.26774,-11.82093 15.83394,-31.0832 28.65526,-20.13715 9.18912,3.88151 13.66951,22.57938 -0.54774,12.48 -7.75117,-6.81948 -31.03396,-5.71845 -21.38752,7.68 14.3075,6.50319 45.03988,-8.38354 30.59492,18.56005 -16.35016,10.33205 -33.74914,-17.54836 -48.20787,-2.23996 -1.39262,20.40725 23.82556,6.59322 35.00189,8.15446 -2.95583,7.33559 -25.75838,11.25081 -14.82878,22.24554 14.0901,-0.60687 16.01503,-22.13981 29.63501,-24.0817 -2.22666,11.81499 -4.65862,28.48925 -16.22669,34.57271 -22.5756,-1.56368 -30.60789,-26.11036 -47.00832,-37.53101 -17.76142,-2.65466 -4.22611,16.85148 4.95607,19.36 5.62061,3.78698 22.00382,10.5077 18.11286,15.04 -11.96051,4.91472 -25.46704,-18.84581 -33.7744,-3.304 7.71093,21.96295 33.44546,1.09655 47.50547,8.96902 -10.03356,9.03478 -23.26089,15.80371 -37.23056,12.62972 z m -8.1968,-0.51936 C 432.95208,396.99904 422.84205,372.6437 406.20303,382.8 c -8.02667,-8.90519 -0.38924,-25.87637 12.31056,-12.07446 11.70433,6.83647 23.12698,18.56751 30.6007,27.59661 z m 254.18018,-1.95661 c -8.19707,-5.78633 -25.26933,-5.75598 -18.5392,-19.81885 -1.19823,-16.931 -6.70876,-35.16177 3.70528,-50.41536 4.28215,-7.26545 6.28665,-19.29981 12.11568,-23.76154 10.14875,17.43017 32.97107,33.62566 22.7643,56.7369 -6.29055,12.60613 -11.10854,26.19739 -20.04606,37.25885 z m -85.97964,-3.55219 c -10.47067,-18.05474 -41.30339,-29.26626 -31.09464,-55.01261 -4.64367,-8.26527 3.1405,-32.78239 8.34437,-13.02519 4.24681,21.64693 32.15324,32.78663 24.77686,57.23225 -1.14923,2.11774 2.37952,12.83185 -2.02659,10.80555 z m -11.89498,-4.1066 c -19.07838,3.30624 -35.38947,-3.85407 -47.52854,-17.72489 -7.17335,-9.87627 -5.86815,-23.42989 -13.22071,-32.86561 11.26289,-3.60777 24.30368,-7.8671 35.31089,-1.08954 -4.80519,16.77095 3.76213,30.41343 16.9687,40.32 1.76638,3.43909 18.29815,13.3078 8.46966,11.36004 z m 58.11367,-3.53184 c -13.65886,-6.96919 -23.49873,-21.05343 -39.73664,-23.16361 -10.92067,-17.11352 -33.8902,-35.65277 -22.57188,-58.1554 8.88792,-6.38302 0.40216,-25.42853 15.44077,-18.50919 23.86452,5.5858 43.26047,27.99411 43.95571,52.82029 -0.50451,17.28373 16.41114,33.63154 6.8,50.04793 l -3.88796,-3.04 z m 12.46399,-0.28889 c -0.33058,-19.12059 -9.55457,-36.4922 -11.67372,-55.59079 -0.52638,-10.05686 -8.65958,-21.83218 -10.08695,-27.78854 13.16799,-4.16979 27.63097,9.9667 29.90464,20.85718 -11.94526,17.54105 -5.14045,38.73793 -5.08196,58.14151 -1.19129,1.44811 0.53791,6.38249 -3.06201,4.38064 z M 511.67999,383.36 c 10.02394,-13.33082 12.65763,-30.69066 13.91755,-46.64137 10.75193,-8.14925 10.73194,2.77498 17.44246,10.49673 1.54678,19.35974 25.29364,36.18189 -9.6,30.86464 -7.6814,-0.26106 -14.62724,5.892 -21.76001,5.28 z m -87.55408,-13.89338 c -7.05455,-6.19525 -22.76732,-6.801 -19.96592,-18.77273 6.11159,-19.43304 15.82808,5.04319 19.52,15.24979 0.63087,0.4142 2.83792,4.84232 0.44592,3.52294 z m -5.35258,-26.95996 c -9.19317,0.21583 -24.84786,-10.55052 -4.53334,-11.62666 7.56019,0.30804 15.34647,4.92734 22.56,8 -5.91934,1.55357 -11.95155,2.84089 -18.02666,3.62666 z M 447.19999,336.64 c -16.11469,-3.91598 -32.3004,-10.42011 -42.56,-23.68 -6.2059,-32.37297 14.15411,-4.04786 23.87917,2.56 13.43005,8.3118 29.67098,-2.06203 30.68049,-16.63965 17.55641,-1.80044 21.84749,-21.01487 33.53723,-30.72035 3.87648,11.32261 13.50324,27.63628 -2.14413,34.8 -13.79437,7.94794 -12.36231,30.76183 -31.07177,33.68 l -6.06112,0.32 -6.25888,-0.32 z m 91.84,-3.52 c -5.49033,-1.35424 19.60321,-20.21348 -0.35917,-18.56 -7.44523,2.18699 -14.15756,23.11686 -15.25632,5.4911 4.99695,-10.18773 21.01701,-25.66768 8.09783,-37.1711 -17.69119,-5.6486 -1.94981,27.77367 -12.33737,25.7985 -1.82111,-7.84197 -19.09935,-17.82536 -5.86346,-22.45599 5.0021,-7.45722 16.07365,-28.06345 20.24634,-8.30429 -0.11731,-0.39063 4.84252,-12.09193 17.93721,-2.71829 16.73753,7.38192 20.28221,2.056 8.17492,12.95314 -4.31222,14.0827 -6.16593,27.28158 -7.70286,42.08686 -4.16861,1.27925 -8.44497,3.98992 -12.93712,2.88007 z m 187.43999,-0.53194 c -4.8917,-14.44965 -27.24987,-23.89113 -17.04,-40.88822 6.12482,-7.27838 19.66933,-23.64326 27.04,-17.34412 4.50147,11.9555 21.64722,15.71632 15.8377,31.2184 5.22195,33.29488 -4.53295,3.13258 -17.96547,20.0222 -2.77629,2.01194 -4.55629,5.87152 -7.87223,6.99174 z M 576.7557,330.72 c -15.11919,-3.00142 -23.92343,-1.20078 -18.67567,-20.32005 5.5843,-15.8896 6.87136,-31.26812 30.60429,-22.24 17.11271,-5.08578 8.69161,11.5238 4.75031,18.92635 -14.09432,6.6924 -14.9863,8.71146 -16.67893,23.6337 z m -171.63571,-3.36 c -9.91323,-20.63075 18.56758,5.22521 0,0 z m 29.6,-13.44 c -25.87777,-8.59669 1.84649,-13.27851 16.67424,-13.76 10.1229,4.01234 -8.75615,19.42765 -16.67424,13.76 z m 249.43999,-1.08576 c -7.02208,-16.10684 -24.93739,-18.79144 -38.72,-17.17885 -13.53214,-7.88797 -18.61808,-14.53073 -15.04,-30.58665 11.53432,-4.18478 34.21971,-8.12358 43.2,4.84629 5.1157,13.93707 21.44797,27.57132 13.63044,43.07597 l -1.85079,0.60898 -1.21965,-0.76576 z M 431.99999,297.6 c 11.45538,-4.69963 22.57923,-11.87549 29.28,-21.76 29.79108,-13.44237 21.26349,-67.16904 -12.79998,-67.2 -17.50407,-1.94424 -30.89687,-3.51734 -5.28,-7.04001 21.37875,0.71301 46.3314,9.23539 52.08909,32.32 7.43025,12.50696 4.84807,28.83087 -9.66375,34.8002 -8.38312,11.21529 -14.91966,27.29923 -31.70531,26.6398 -7.2217,0.13324 -14.97031,3.34672 -21.92005,2.24001 z m 261.73353,-0.52744 c -5.23496,-12.86346 -13.41373,-24.26347 -20.13354,-36.21479 13.49055,-14.47476 29.15585,0.12905 36.32,13.96506 4.7286,7.14524 -8.29298,20.13925 -13.28553,19.69141 -1.0653,0.35607 -1.53058,4.32702 -2.90093,2.55832 z M 414.5157,297.12 c -15.67858,-2.5252 -14.76265,-36.80662 0.24099,-14.54935 5.23341,7.68036 37.08993,3.04362 20.08413,9.90935 -6.4786,2.98035 -12.95538,5.94445 -20.32512,4.64 z m 88.89565,-12.17506 c -1.19769,-9.45358 -12.43862,-19.2757 -1.65136,-26.70939 11.46269,-8.10791 -14.89929,-36.58514 2.63763,-30.95366 19.35904,11.58677 18.60172,43.08509 2.93835,57.50745 l -2.84952,0.91676 -1.07525,-0.76116 z M 435.03999,284.48 c -14.96773,1.49083 -32.12931,-10.41039 -30.2896,-26.24 8.13283,12.70442 23.21364,22.35689 37.97456,21.76 16.22011,-6.73979 7.28756,6.63793 -4.30608,4.80002 l -3.37888,-0.32 z m 138.2688,-2.46073 c -3.69087,-6.89588 -0.51838,0.36932 -6.5888,-7.93888 -0.15737,-6.83673 -15.2712,-3.6653 -27.25503,-9.37211 -17.57953,-1.25999 -16.36933,-33.94409 -0.8664,-23.44457 7.56836,5.12574 24.00379,9.2706 44.32529,4.97659 15.66325,13.27807 -2.2831,-6.7837 8.53177,-1.5291 8.30424,0.83161 5.19319,-24.32436 13.82409,-15.27086 4.55455,5.22164 -13.80727,24.20468 0.48011,21.93281 0.16357,-15.7904 9.474,-8.3254 10.11345,1.50719 -6.26047,12.60456 19.10765,9.46721 9.88659,25.95572 -9.33537,3.79288 -25.12257,-2.8802 -33.58112,4.04428 -5.24828,-1.11685 -9.52325,1.14802 -18.86995,-0.86107 z m 172.99081,-3.20873 c -5.85823,-5.78461 -9.44866,-21.53833 -19.24435,-10.97054 -8.68167,8.4916 -14.18722,8.11554 -18.44532,-3.39712 0.34341,-8.14777 3.97805,-21.70994 12.4586,-23.82224 14.6676,0.16858 26.43006,7.64272 7.04707,11.69936 -12.17729,12.19384 15.25852,12.36378 16.84429,-1.06535 8.29165,-21.78414 8.56756,14.27121 5.43995,21.9947 -1.45613,0.82184 -2.09893,8.08281 -4.10024,5.56119 z M 436.49576,276.979 c -1.73196,-5.37096 9.35802,-13.25436 11.98423,-20.54328 0.59031,-30.02491 9.64555,1.10274 1.75446,12.27424 -2.69601,4.85024 -7.46103,10.14267 -13.73869,8.26904 z m 15.76218,-3.58528 c 12.42451,-17.7237 1.26933,-48.4609 -23.07773,-45.87372 -15.73484,0.25305 -18.42155,21.87092 -18.94022,31.55426 -6.73165,-17.36966 3.761,-40.79598 20.16,-49.31424 16.9631,0.96061 42.48369,3.61318 44.00848,25.32337 2.74664,14.09355 -3.35989,39.83279 -22.15053,38.31033 z M 427.03999,273.28 c -20.27802,-4.70351 -15.41288,-45.20129 5.8978,-42.10369 -13.64128,1.15347 -15.43954,25.42775 -3.81776,33.30369 10.0836,2.99508 6.45602,7.89907 -2.08004,8.8 z m 7.52,-10.08083 c 8.94824,-7.85693 3.82464,-21.1748 3.86739,-29.53535 13.4577,2.09501 8.71204,31.15495 -3.86739,29.53535 z m -4.8,-2.23917 c -14.2231,-9.97928 3.62704,-37.63464 7.52002,-14.44428 -3.81193,21.0158 -6.37224,-16.98072 -8.0001,8.84428 1.03415,2.0492 7.06263,5.33177 0.48008,5.6 z m 273.16959,-1.7052 c -17.59957,-11.13093 -23.13833,-24.3437 -15.5696,-47.61398 6.94831,-5.38468 13.03289,-23.51086 23.36,-20.56687 -5.36822,5.36056 -9.671,26.07877 1.92,16.62116 -7.91257,-16.56242 15.6598,-26.81783 12.00053,-7.05511 -9.05181,5.99827 -7.06745,30.6684 3.36,15.36 -0.58686,-22.17391 -0.21512,-11.52026 9.29456,-3.52 7.77027,-7.74434 -21.86935,-28.03837 1.71568,-17.12 8.62856,5.84755 14.283,17.98803 13.25948,28.86141 1.36815,21.31521 -1.88846,1.15135 -6.49852,-4.66403 -23.30916,-13.08952 -0.38533,21.20446 0.59614,20.32492 -14.24932,3.68812 -22.77854,-18.62265 -36.52395,-11.72227 -2.40931,9.54895 7.76223,9.63027 -1.50104,18.52235 -1.92086,1.64757 -1.59415,14.44738 -5.41328,12.57242 z m -74.97571,-0.53958 C 620.639,247.74024 619.62695,250.9017 620.33586,240.96 607.6743,235.81683 605.94648,218.68145 616.63999,236 c 20.18064,8.59387 -11.04416,-15.17344 -11.29379,-23.23416 18.32554,22.03053 18.15045,2.53887 1.61382,-6.49542 -9.94417,-21.56547 6.35742,8.49644 13.2,0.80382 -3.32345,-7.93194 -18.45605,-22.84455 -4.4064,-10.59569 17.46008,6.56969 -11.63577,-8.91507 -3.58342,-14.8109 -13.84749,-1.22027 -4.68066,-42.79476 0.62978,-24.23769 3.51591,7.16604 -1.34602,28.56857 5.51674,10.30778 10.42025,5.44516 -10.11379,20.72691 2.03853,20.59737 8.52002,-22.67805 -0.93657,15.03358 7.96468,3.66489 7.5261,-4.16041 -11.54556,18.17703 -0.28122,16.64 3.60258,-15.61605 10.53039,-7.18149 3.64125,4.08599 -2.54339,21.25117 5.6121,-7.73317 9.11992,0.82973 -2.81681,9.05928 0.64971,28.92086 3.36,11.40428 9.16096,-2.75246 0.34324,16.10295 -0.64,24 7.27497,1.74543 7.28572,-20.81988 11.84,-7.87424 8.28025,14.30617 -5.9217,18.84091 -18.67771,17.15425 l -3.26112,0.46982 -5.46726,0.005 z m 42.76611,-4.44098 c -6.67965,-5.70349 -19.55479,-22.26115 -1.6,-9.63424 9.92553,-6.17206 -13.16013,-9.72595 -16.64,-16.90957 14.426,5.21494 4.84431,-5.78295 -7.04,-13.00308 -3.39468,-4.29131 19.5706,6.95555 3.41735,-6.2125 -2.5346,-4.53137 -0.21613,-13.31839 -13.18739,-16.51485 -9.17792,-9.74959 23.06889,9.14583 3.38009,-7.36 -11.35404,-2.08552 -12.90607,-12.04823 -1.08576,-2.4 10.95173,-6.14894 -12.97502,-8.0101 -15.20777,-15.08401 18.18733,5.08313 -3.08963,-6.41979 -7.39652,-13.35748 -2.64761,-7.59761 -10.14908,-17.53883 -10.71624,-23.1274 12.3298,8.62747 26.62507,17.17339 35.03619,29.33442 0.70374,4.13703 6.21864,31.59764 8.48,15.23877 5.06835,-19.51794 -3.72899,17.34355 6.68951,12.19191 5.98904,-30.32897 -4.64345,14.4625 7.60795,8.01323 0.0915,-23.56447 4.3063,7.58259 8.74151,12.55058 11.69717,-5.16231 16.39934,1.55319 11.52105,13.87576 -3.52193,14.66522 7.52546,31.94468 -11.99997,32.39846 z M 560.02121,243.32802 c 8.41905,-12.34934 -54.31648,-1.88065 -37.37121,-13.19389 10.45563,-13.55908 -13.92824,-12.42139 -2.93253,-20.87073 25.04452,-12.97238 9.78797,-12.87491 26.52584,-23.26575 13.52795,9.21528 6.08827,2.40208 25.00882,13.69024 9.78157,3.5649 16.90442,0.8596 25.64467,-1.31957 9.7043,2.19336 -5.38238,14.81871 -9.05679,21.15166 -6.24376,14.35509 11.06853,6.67298 8.11977,-4.48 15.46739,-8.70461 -3.76166,26.69378 -12.79894,18.88004 8.4629,10.542 -15.7996,9.74977 -23.13963,9.408 z m -155.86122,-9.85601 c -4.05687,-12.4935 8.31811,-21.25486 18.24,-24.38724 -9.39258,9.76276 -16.07502,22.38166 -17.92,35.87523 l -0.23916,-2.80419 z m 94.24,-12.19828 c -14.17827,-2.67369 -13.19576,-15.52611 0.39278,-12.61305 2.11201,4.07945 7.95369,13.6978 -0.39278,12.61305 z m -94.24,-14.63244 c -4.8175,-21.06912 30.47206,-24.84925 37.27194,-9.44542 -14.24606,1.60133 -26.85062,10.20778 -37.27194,19.50716 z m 99.79126,6.23871 c -8.87753,-6.41501 10.14631,-13.58296 9.13008,-6.2226 -2.58468,2.59319 -5.91867,4.53795 -9.13008,6.2226 z m -20.7216,-6.34009 c -16.89006,-5.76126 -46.76774,-9.7752 -17.23216,-18.37991 9.29042,-9.5268 21.60086,5.32795 32.5625,-2.08 10.15474,-2.71823 23.1437,-16.94624 19.21355,3.67331 -7.76649,10.58098 -22.20838,16.07339 -34.54389,16.7866 z m 32.38769,-1.794 c -0.84267,-17.10628 18.85551,-7.14482 0.83801,0.41899 -0.77524,0.56876 -1.04038,0.40882 -0.83801,-0.41899 z m 123.9677,-3.31038 c -9.00091,-7.0853 6.88109,0.27819 0,0 z m 43.50902,-1.05576 c -1.11507,-8.60763 -23.14208,-13.45641 -15.89408,-17.33977 8.9106,9.35476 15.77815,-4.15381 2.08,-4.16 -23.72064,-9.14592 3.65989,-0.018 -0.27465,-9.27997 -24.29695,-3.72936 -6.93394,-0.6628 -6.92535,-10.56 -15.63005,5.72295 -15.54601,-3.73167 -28.83113,-11.52 -10.26871,-9.05525 -22.02895,-16.09879 -32.92887,-24.29129 15.46374,-7.73726 30.67473,4.93115 32.61927,0.67153 1.62253,23.84889 7.24019,9.77916 6.53639,-1.82024 7.84712,2.1401 2.63252,26.05173 17.03795,24.78724 3.21983,-6.84269 -15.73924,-20.29018 -4.36515,-21.60119 7.42423,4.02563 1.37989,27.74712 16.46508,27.53938 3.79409,-1.2127 13.2272,0.38906 20.09052,5.27457 4.52286,-5.6549 -19.65109,-23.60345 -3.38224,-16.64 4.67096,2.09802 7.95221,25.58274 12.27827,12.50323 -7.62792,-15.52466 6.36966,3.49799 5.99401,10.53677 11.66376,9.90038 21.10749,-11.83962 6.80599,-14.88 -10.21699,1.79263 -22.2834,-12.32969 -4.61715,-6.37714 0.0411,-12.6655 -25.35282,-0.23122 -26.74285,-11.32548 5.84508,-0.84089 32.79574,5.25605 19.36,-4.53753 -5.15891,-5.97414 -35.45269,7.7986 -25.23571,-2.08 14.06653,-1.75569 36.92545,-7.82945 8.74566,-7.84 -7.05575,0.51429 -28.08197,14.54249 -15.004,0.96 8.38417,-1.75785 32.36604,-9.80773 10.53405,-9.92 -10.73221,0.13789 -15.3611,12.25027 -24.16,13.44002 -0.6228,-2.67464 20.12823,-26.892681 25.93619,-19.20017 16.97425,3.5821 6.58567,-15.376405 20.94782,-19.811225 7.59133,-7.003297 35.91531,-32.86366 17.90088,-11.228775 -9.96436,10.984902 -10.84276,27.189187 -19.01276,38.19949 -5.12064,14.71873 20.81593,8.96093 11.33772,-3.31949 -5.54271,-9.117785 4.04939,-22.059431 9.19853,-30.919376 9.77449,-12.881822 0.35504,18.725736 -0.86834,26.119376 -13.72022,9.19882 14.27247,20.10434 11.67968,4.59572 -8.77524,-5.47756 -7.14185,-23.237973 -1.93875,-25.731275 -1.31534,15.189877 12.84442,24.299365 13.12784,38.753215 16.73224,-2.25954 15.53249,39.56468 4.33091,30.22234 -10.80648,-5.39924 -6.13025,-27.10879 -21.68,-25.53744 -8.69044,13.07933 12.80147,21.14496 20.43673,28.89744 19.18888,8.447 -24.65242,0.31129 -10.00691,15.36 17.0646,-9.3601 25.86908,11.1646 8.57603,12.57873 -3.4325,5.99366 19.22232,16.14417 2.21504,15.26072 -8.36921,-8.9908 -25.62688,-4.00302 -28.02189,-17.96864 -20.30119,-18.12175 6.62366,18.68612 -11.26368,6.01171 -15.8167,-15.76958 -26.98127,4.98319 -3.13796,4.44078 -6.84968,3.46148 -13.56058,8.02581 -19.94309,11.73674 z m -105.81407,-4.86138 c -8.73307,-4.35051 -21.19471,-6.10491 -26.84798,-14.23597 3.72927,-7.81873 6.38519,-19.80349 16.09012,-19.84242 4.86093,9.20287 19.35773,12.11435 24.03786,18.13717 0.87556,9.22479 17.16597,-2.90535 -1.36884,11.54283 -3.69632,1.93218 -7.5365,4.95053 -11.91116,4.39839 z m -173.12,-16.42879 c -1.71921,-25.46723 2.95819,3.57452 12.54886,5.20584 -8.49799,3.01896 -16.44574,12.48195 -12.54886,-5.20584 z m 39.68,11.90657 c -8.36329,-6.85957 -31.50518,-3.60698 -20.48006,-20.91617 10.17835,-7.87752 18.38995,7.51455 30.04083,5.28 13.77374,6.416 7.13204,14.60856 -6.09418,15.31295 l -3.46666,0.32322 z m 81.424,-3.45155 c -7.84703,-8.29327 -3.47431,-21.71485 9.47882,-16.02462 8.02691,-1.50144 21.52443,-7.32086 13.09716,5.31424 -6.3845,4.93152 -14.6616,9.15806 -22.57598,10.71038 z M 607.19998,186.24 c -13.42889,-11.84392 4.30787,-2.53289 0,0 z m -123.67999,-2.72 c -5.67383,-5.22645 -31.76584,-2.38587 -18.84083,-8.16 11.10897,-1.69211 17.46759,-16.22983 29.08083,-11.36 8.93333,3.34256 31.99191,-16.23865 26.88,2.4 -7.40208,10.73475 -24.23417,17.59013 -37.12,17.12 z m -70.4,-6.24 c -13.70768,-13.98841 17.29867,-3.39828 0,0 z m 180.48,-2.4 c -9.62381,-4.08075 -22.6547,-7.87686 -25.6,-18.34191 10.67696,-2.63744 18.20944,-12.43224 27.71423,-2.29809 12.37887,-1.80911 6.79025,22.11118 -2.11423,20.64 z m -135.84,-3.75523 c -8.68481,-0.0361 -29.79254,-2.86338 -17.93888,-14.64477 10.34368,-8.32197 24.70406,-1.71625 35.55984,-9.60796 11.40801,2.93198 23.16753,-1.01219 6.06913,13.44796 -6.66743,6.64793 -13.76151,10.51814 -23.69009,10.80477 z m 69.92,-3.42545 c -10.11086,-14.03969 5.24875,-17.25395 16.15203,-20.81932 11.66697,-1.278 25.94577,-30.4149 28.64797,-16.28082 3.62697,11.56695 -7.73233,23.31674 -15.86845,30.52082 -9.40213,2.81879 -18.8375,7.65419 -28.93155,6.57932 z m -116.16,-2.25932 c -14.76595,-7.4748 -7.07443,-21.54869 5.12,-7.6739 29.42419,0.31549 9.81131,8.86097 -5.12,7.6739 z m 79.25334,-5.33333 c 3.15291,-10.62595 5.71563,-20.00605 17.04663,-24.10667 13.93748,-24.71358 28.70897,13.18151 9.14003,17.92 -8.18036,3.49979 -17.20582,6.49729 -26.18666,6.18667 z m -68.81536,-4.51415 c -16.50421,-4.9208 -20.45771,-21.21108 -17.59673,-36.25846 7.5721,9.94015 21.3496,14.22259 31.47097,22.10594 9.83559,5.35414 10.49637,12.13014 -0.47222,14.4 -4.70936,0.68385 -8.62168,1.00097 -13.40202,-0.24748 z M 601.27998,152.8 c -17.66318,-3.50615 -7.32418,-11.14157 -3.68,-23.2 4.98448,5.62475 12.86857,19.89502 3.68,23.2 z m -29.43999,-2.25528 c 5.20091,-7.26838 8.88852,-15.33138 4.8,-23.94554 -1.50277,-11.35104 18.34348,-13.0894 15.2,1.60654 3.1571,10.20995 -13.34653,20.84288 -20,22.339 z M 452.79999,149.6 c -15.48112,-0.8993 -7.847,-10.5209 3.87917,-9.76 11.43494,-3.15706 40.42849,-6.48853 16.46886,5.28 -6.17566,3.38307 -13.25965,5.21019 -20.34803,4.48 z m 223.8574,-1.96663 c -10.64851,-7.00896 -7.61359,-23.4704 -1.45743,-5.99913 0.39252,1.58741 6.99341,10.05168 1.45743,5.99913 z m -9.40585,-0.59396 c -11.17402,-5.5645 -5.94632,-30.69456 -1.97156,-8.79941 -0.3244,2.19883 5.36257,9.82035 1.97156,8.79941 z m -187.45535,-1.93177 c 6.48102,-6.98988 16.36063,-21.07828 27.20956,-25.74764 10.4402,-10.43831 12.48058,5.19346 3.03619,9.92305 -7.94627,8.59013 -15.41047,8.88234 -25.06019,14.80992 z m 50.91647,1.10927 c -3.91829,-13.3131 14.34994,-8.22098 19.0472,-18.50678 4.07377,-8.07555 6.30034,-16.68556 11.35069,-24.34242 3.84435,-28.644468 22.36127,-16.024053 12.96931,4.45196 -6.71558,18.87565 -23.4963,32.29442 -41.61763,39.0603 l -1.7497,-0.66309 z M 439.19999,140.16 c -9.1812,-5.88734 -25.422,-13.45931 -24.49888,-25.6 12.40044,3.12906 21.33151,13.05329 33.85888,15.68153 14.44456,9.57395 0.2079,9.67337 -9.36,9.91847 z m 18.28458,-7.61458 c -2.64385,-7.00687 -31.18329,-7.96203 -17.27885,-13.66542 7.67421,-6.09415 16.10045,4.18127 23.68,-3.2 15.94247,-5.9728 9.36312,10.62379 -1.48573,15.57319 -2.69214,1.40412 -1.86446,1.28901 -4.91542,1.29223 z m 7.04876,2.28125 c 7.94461,-11.64645 22.23945,-23.72249 36.44554,-25.06667 3.58483,15.16396 -21.59575,29.24947 -36.44554,25.06667 z M 530.03688,132.88 c -3.18984,-9.05681 -15.99795,-11.36263 -11.95689,-22.79505 3.98079,-13.794352 16.40681,-29.385274 31.87526,-25.604946 11.71615,7.796334 5.91638,21.191396 0.33181,30.642776 -1.54843,10.03074 -9.75782,18.49941 -20.25018,17.75722 z M 411.24989,122.42727 c -8.72271,-2.45449 -11.68597,-30.097144 -4.2099,-18.94151 0.33755,5.47108 10.84624,21.74311 6.13763,20.73966 z m 186.08344,-2.0006 c -2.26534,-15.74692 14.98682,-5.50943 23.78665,-10.18667 20.83309,-7.04714 31.4918,-44.410939 8.39127,-54.24 -18.157,-4.614546 -30.58127,27.656564 -9.37008,31.68 10.26144,0.471427 20.23517,-15.178118 8.01888,-20.32 -21.10303,0.376322 8.48523,14.037501 -8,12.16 -15.27127,-6.858933 7.46548,-27.130012 13.93707,-12.623987 10.831,18.239404 -10.33703,47.216947 -29.87648,37.341397 7.51585,-12.209818 -2.3761,-23.664914 -7.42055,-34.317427 2.52637,-15.594379 -6.53907,-31.472878 -22.48,-33.924119 -9.5997,-13.090832 4.20292,-22.248195 15.16132,-19.356938 36.1874,-0.09289 68.15495,-0.197403 75.51084,0.285008 18.83914,-2.520679 35.66473,8.340849 49.7391,19.537736 -11.67774,-3.976501 -25.77508,-5.341251 -34.41137,-14.22167 -16.57804,-2.283776 -4.15075,21.429061 6.56,9.76 12.78129,2.760475 25.79386,7.780814 36.46227,14.748672 -19.03311,6.589984 -5.37752,5.269895 -30.43041,2.317196 -8.27635,4.739106 -14.67042,1.867086 -25.0719,8.85413 -6.52952,6.530057 -19.48324,-5.744901 -20.31926,9.457488 8.09627,19.49978 16.13517,-9.357349 28.90592,-9.243344 12.31719,-5.190676 29.43011,-5.732573 38.27379,-3.734144 -9.83762,4.918727 -9.48195,6.76762 -18.84935,10.014358 -9.11631,6.673298 -9.50794,8.623442 -23.88456,10.465644 -9.5363,12.052749 16.58758,17.13323 12.96454,2.234675 8.54528,-4.976359 19.38383,-11.722944 29.76172,-15.610118 -7.66731,8.787911 -22.37046,21.462263 -32.19604,28.671443 -11.30751,4.118882 -23.54998,7.974982 -28.93139,20.41339 -16.1054,18.36964 -12.9159,2.47689 -1.95399,-9.58165 -5.49633,-12.830777 -21.71474,19.68952 -19.00218,16.39395 -3.3035,-5.37367 -2.01361,-9.50722 -15.46471,-0.60166 -6.90889,-0.12904 -13.96225,-0.64488 -19.8111,3.62664 z m -167.20028,-1.86098 c -10.21985,-3.42129 -19.76731,-8.39119 -23.01306,-19.367712 0.92195,-6.602531 17.3884,1.331022 22.8,5.442022 11.38533,1.37988 21.95886,12.76035 4.25888,13.75447 L 431.51999,118.72 Z M 575.03999,116.8 c 3.25205,-5.33837 5.3505,-24.962293 10.88,-12.46465 4.41363,7.57273 -6.26867,11.54764 -10.88,12.46465 z m -122.88,-0.48 c -7.11704,-8.83634 20.68524,-10.2039 26.0305,-9.8705 5.2646,8.42224 -15.54247,3.04227 -21.5505,9.8705 l -2.24,0.48 z m 53.22051,-0.0396 c 5.67153,-18.959766 28.41497,-32.701461 19.09946,-54.74439 8.67082,-6.65423 11.56614,13.038535 6.4,19.424 -2.98195,10.563806 -12.01803,17.898475 -15.36,28.38673 -3.11761,2.13212 -5.53655,7.70864 -10.13946,6.93366 z m -27.62051,-1.73165 c 9.5754,-6.42988 6.90762,-20.27096 16.64,-26.569015 14.22393,-9.480532 12.98147,1.808831 14.72,14.516665 -1.78203,10.37512 -11.16035,1.11768 -17.42749,6.60335 -4.18561,1.20567 -10.25971,8.29091 -13.93251,5.449 z m 113.92,-0.95878 c 4.48434,-16.200784 -19.55737,-17.323767 -5.91847,-28.887778 6.44287,-17.840969 20.50754,-0.03876 16.31842,12.142086 -2.02962,5.666982 -4.69799,16.042752 -10.39995,16.745692 z m -145.7104,-3.77516 c -2.2033,-6.40739 -19.89866,-22.079772 -7.23072,-22.1348 9.38355,4.456167 27.65155,17.47644 8.95787,22.72072 z M 743.48657,109.2 c -6.28823,-11.623363 -14.61279,-24.692125 -11.17671,-38.16 2.33962,10.594019 10.38439,18.733267 17.30889,25.749824 6.07712,8.001276 4.76808,13.769976 -6.13218,12.410176 z m -279.66258,-3.9008 c -8.75669,-3.55635 8.5135,-9.143371 13.43446,-11.550714 13.91021,-9.080953 12.18822,-7.395703 6.58156,7.117544 0.31912,6.6241 -14.99466,1.83423 -20.01602,4.43317 z m -26.064,-0.25037 c -12.93605,-1.95718 -23.73573,-25.287474 -10.88,-14.278494 3.54034,3.594404 12.35182,7.158355 10.88,14.278494 z m 19.6,-5.330017 c -8.40412,-11.196071 15.92957,-0.450178 0,0 z m 53.89334,-2.012147 c -4.92884,-11.359425 -1.7991,-27.349996 10.10057,-33.022933 8.27082,10.125612 -2.5873,25.83984 -10.10057,33.022933 z M 416.31999,95.84 c -17.58939,1.173665 -16.21801,-17.973799 -1.65259,-4.541013 0.69055,1.045062 7.43843,6.327655 1.65259,4.541013 z m 34.97899,-4.071694 c -14.06483,-2.940029 -7.67494,-24.49817 4.87426,-14.029733 -1.86086,9.025071 9.36292,15.011614 -4.87426,14.029733 z m 12.30101,-0.630156 c -13.18137,-11.165824 8.5835,-25.105583 18.55248,-15.29815 13.23483,8.735167 -10.70332,20.949073 -17.65212,16.228891 -0.30003,-0.310308 -0.60028,-0.620566 -0.90036,-0.930741 z m -33.2,-0.07469 c -10.5305,-8.087329 -17.91948,-10.093232 -14.4,-27.112688 -1.56132,-8.366189 21.15705,-24.462782 12.48001,-10.933706 0.82563,8.44513 -3.32961,17.077784 2.4462,24.571574 3.23859,3.64584 2.77898,10.927466 -0.52621,13.47482 z m -14.08,-1.62346 c -22.44525,-7.930401 -13.62954,-49.766491 9.93425,-46.88 4.19434,4.586115 -12.26646,9.683006 -12.30122,18.751539 -0.0783,9.057837 -3.36082,20.284323 4.28679,28.113181 l -1.92,0.0153 z m 143.12,-0.625258 c -10.90071,-13.896162 6.50097,-37.599063 -11.28,-49.112486 3.85665,-5.122335 23.12743,3.59251 23.84,14.813466 6.86664,12.744284 0.40086,27.421409 -10.83572,34.924278 z m -67.16164,-9.519711 c -4.65185,-20.225693 26.27557,-3.303981 6.60164,4.483385 -5.69784,2.444945 -7.97404,3.765082 -6.60164,-4.483385 z m 85.96164,5.814927 c -2.78074,-9.746109 4.86038,-20.799091 -1.6,-30.830777 -3.9393,-6.6108 -6.67405,-18.234471 4.36428,-11.239181 13.2785,6.583926 16.92896,28.412259 2.83572,36.524278 -1.80367,0.738869 -2.97014,7.566712 -5.6,5.54568 z m 164.6678,-0.975353 c -5.96615,-2.605007 -10.05324,-26.574275 -4.41361,-20.360659 4.47637,8.975237 21.52201,19.961571 4.41351,20.360659 z M 437.51838,82.661471 C 427.77551,73.84542 429.02939,60.92244 441.43999,55.68 c 12.80857,-2.845697 -1.49106,10.283279 -0.61923,16.413526 -2.45237,2.567602 2.66561,16.198401 -3.30238,10.567945 z m 95.81495,0.0052 c 5.77753,-12.055523 -3.11329,-24.876912 4.58666,-36.736624 10.78542,-9.895157 19.4776,12.61601 13.92101,20.805168 4.79654,21.726935 -8.20166,5.437964 -18.50767,15.931456 z m -45.41334,-4.612303 c -4.9732,-8.667139 -13.75016,-9.596231 -21.90568,-8.233359 8.17914,-5.970171 31.59487,-6.7276 21.90568,8.233359 z M 458.35797,75.297016 C 442.98568,70.903527 458.6385,40.757125 463.68001,62.4 c 3.10029,1.228072 -3.26655,15.020894 -5.32204,12.897016 z m 49.56973,1.897589 C 505.31452,62.882073 487.51089,72.950429 489.28837,56.904326 495.0813,42.159572 473.14975,42.599635 471.35999,37.373888 c 13.91767,-9.311757 32.33175,7.606151 33.44,23.106112 2.53003,4.827417 6.52238,12.870309 3.12771,16.714605 z m -64.83437,-4.767939 c 2.12806,-17.540081 12.78065,-7.191303 0,0 z m 307.54665,-1.607252 c -5.05,-7.017008 6.81115,-6.065944 0,0 z M 511.03999,69.180438 c 0.50331,-10.913146 7.35045,-22.552871 1.12,-34.300438 -8.89311,-11.263803 6.40082,-14.184981 12.4,-3.682954 6.45069,7.004048 10.64779,18.687499 7.51673,27.042954 -6.66171,-4.451154 -16.2588,8.554801 -21.03673,10.940438 z M 468.37333,65.066666 C 454.83847,51.596834 491.6384,63.432252 486.3676,65.28 480.19662,63.544388 474.61063,63.822907 468.37333,65.066666 Z M 744.59358,62.88553 c -14.75944,-10.946709 14.67543,-0.0081 0,0 z M 507.83999,60.514237 C 508.72289,47.703321 494.71851,42.22739 493.07128,31.36 c -14.65059,-12.650301 5.94083,-20.865172 12.20871,-5.451489 5.96045,9.334748 11.46263,27.678019 2.56,34.605726 z m -77.84,-0.824487 c -0.10134,-16.345074 24.21502,-30.857834 36.88,-20.16975 -5.29805,3.05254 -18.80168,6.689212 -25.12,13.6 -4.68965,0.211091 -7.86207,7.665209 -11.76,6.56975 z m 54.16,-0.32975 c -15.49774,-0.480377 -24.21206,-11.264482 -4.77323,-5.512523 2.68253,1.30347 12.29545,4.851168 4.77323,5.512523 z m -35.12874,-5.922291 c 5.0145,-11.582795 27.13472,-15.447088 36.40874,-5.304375 2.40631,10.785582 -16.5976,-5.024254 -23.04,4.986666 -4.21788,-1.810959 -9.80918,1.489004 -13.36874,0.317709 z M 747.07969,53.18424 c -14.43485,-5.612894 18.27539,-3.032818 0,0 z M 404.15999,48.378067 C 401.48533,23.279851 454.32747,32.498468 418.12428,40.48 c -6.20534,-0.20892 -15.38576,18.291998 -13.96429,7.898067 z m 338.68246,-2.440509 c 9.00575,-19.789916 14.51618,5.059477 0,0 z M 431.99999,42.88 c -5.88415,-5.202611 10.50752,-18.33281 16.02027,-21.76 9.53979,-2.173934 40.12434,6.621372 19.13896,13.978778 -14.51225,-6.151531 -23.56428,3.546779 -35.15923,7.781222 z m 101.97334,0.106666 C 532.06464,35.097235 518.19489,18.043634 527.05813,16.96 c 10.73361,-0.65054 22.09326,22.271725 6.9152,26.026666 z m 194.23625,-1.971863 c -17.47709,-8.663004 -25.83591,-37.8919972 -8.60723,-16.64147 0.81206,4.080538 14.66876,15.51158 8.60723,16.64147 z M 404.15999,31.151247 C 398.0132,13.737211 436.34123,12.690244 433.08655,19.52 c -5.82923,4.332502 -32.16797,22.781229 -28.92656,11.631247 z m 162.3632,7.748222 c -9.89323,-6.39247 -23.23827,-2.237011 -25.4032,-17.161013 5.69233,-14.1364725 32.9924,1.210414 28.01767,16.924727 0.45763,1.487029 -2.33872,0.235665 -2.61447,0.236286 z M 745.72997,36.43146 c 5.44235,-15.451065 13.22208,-3.966727 0,0 z m -14.28999,-0.903763 c -4.41213,-8.271718 -19.47861,-22.671644 0.72,-18.567693 -1.27917,4.55819 4.52577,19.1856 -0.72,18.567693 z M 487.73304,33.125686 C 476.17846,32.794508 473.53096,17.674926 460.47999,19.84 c -2.3495,-4.469734 23.74265,-5.875266 25.37169,6.548193 1.78077,1.556631 7.09682,8.623549 1.88136,6.737493 z M 426.63999,28.90807 c 0.94494,-12.051022 36.08923,-15.200068 21.56429,-9.86807 -9.51697,0.804447 -10.81953,14.165617 -21.56429,9.86807 z m 318.53334,-0.0014 c 3.12128,-17.019042 14.46057,-11.679382 0,0 z m -4.8,-0.96 c 0.12418,-19.1300862 11.03171,-9.115239 0,0 z M 519.13279,23.648205 c -17.3331,-1.182362 -21.1832,-8.915578 0.98048,-5.903485 1.2352,1.491717 5.42222,10.639393 -0.98048,5.903485 z M 705.27998,25.12 c -16.09508,-6.313526 -9.09689,-14.015672 1.48429,0.32001 l -0.66784,0.449135 z m 30.74611,-3.477771 c -2.93963,-12.3526831 5.30464,1.171538 0,0 z"
     id="path6506"
     inkscape:connector-curvature="0"
     sodipodi:nodetypes="ccccccccccccccccccccccccccccccccccccccccccccccccccccccccccccccccccccccccccccccccccccccccccccccccccccccccccccccccccccccccccccccccccccccccccccccccccccccccccccccccccccccccccccccccccccccccccccccccccccccccccccccccccccccccccccccccccccccccccccccccccccccccccccccccccccccccccccccccccccccccccccccccccccccccccccccccccccccccccccccccccccccccccccccccccccccccccccccccccccccccccccccccccccccccccccccccccccccsccccccccccccccccccccccccccccccccccccccccccccccccccccccccccccccccccccccccccccccccccccccccccccccccccccccccccccccccccccccccccccccccccccccccccccccccccccccccccccccccccccccccccccccccccccccccccccccccccccccccccccccccccccccccccccccccccccccccccccccccccccccccccccccccccccccccccccccccccccccccccccccccccccccccccccccccccccccccccccccccccccccccccccccccccccccccccccccccccccccccccccccccccccscccccccccccccccccccccccccccccccccccccccccccccccccccccccccccccccccccccccccccccccccccccccccccccccccccccccccccccccccccc" />
  <path
     style="fill:none;stroke:#fffe00;stroke-width:0.99889386px;stroke-linecap:butt;stroke-linejoin:miter;stroke-opacity:1"
     d="M 386.0126,-0.02015748 V 1118.72"
     id="path6500"
     inkscape:connector-curvature="0" />
  <path
     style="fill:none;stroke:#fffe00;stroke-width:0.98607361px;stroke-linecap:butt;stroke-linejoin:miter;stroke-opacity:1"
     d="M 771.52441,-0.02015748 V 1118.72"
     id="path6502"
     inkscape:connector-curvature="0" />
  <path
     style="fill:#ff0000;stroke:#ff0000;stroke-width:0.91230506px;stroke-linecap:butt;stroke-linejoin:miter;stroke-opacity:1"
     d="M 0,558.84989 H 793.70079"
     id="path6504"
     inkscape:connector-curvature="0" />
  <path
     style="fill:none;stroke:#ff0000;stroke-width:0.31999999;stroke-opacity:1"
     d="m 404.17098,1071.1023 c 0.9,-11.7676 -5.72,-34.2234 13.79,-28.673 12.24,3.7036 -15.82,14.0571 -11.3,25.8331 -4.78,12.1491 3.69,23.8702 13.99,29.6371 -19.89,6.0955 -17.22,-10.4042 -16.48,-24.9736 v -1.8235 z m 32.78,26.5358 c 8.85,-0.026 20,-29.9326 16.98,-12.4377 -2.63,8.0054 -7.28,15.7596 -16.98,12.4377 z m 14.17,-0.268 c 6,-26.7617 20.02,6.1356 0,0 z m 16.89,-0.1476 c -11.2,-1.0519 18.13,-35.3508 11.2,-22.9748 7.53,12.4419 17.01,32.1632 -11.2,22.9748 z m 22.06,-0.5007 c -4.05,-15.8919 -0.44,-26.7702 5.12,-39.7799 -0.86,-13.8958 -5.06,-27.5177 -9.06,-40.7002 11.04,4.7737 27.16,10.0797 31.03,23.1873 3.11,19.7044 2.41,39.6959 -4.67,58.4909 -6.79,-0.8078 -17.77,1.6002 -22.42,-1.1981 z m 26.74,0.9774 c 2.93,-7.3975 5.28,-28.6604 7.33,-31.4568 1.63,-10.8755 11.7,1.7468 18.11,1.9194 24.26,10.7038 49.11,-4.858 64.15,-23.36 20.2,-1.7289 -6.45,25.6824 -16.07,30.7145 -14.97,4.258 -19.17,25.5974 -36.32,22.2837 -12.4,0.01 -24.8,0.2466 -37.2,-0.1008 z m 58.24,-1.6246 c 4.14,-15.9057 26.28,-15.4185 33.92,-29.6956 10.37,-10.5866 29.56,4.0729 43.52,-4.9372 -9.42,10.3981 -20.73,24.7977 -32.77,34.56 -13.55,4.1317 -30,0.6924 -44.67,1.9376 z m 49.6,1.7029 c 13.97,-13.2695 24.02,-34.6861 43.38,-40.1757 1.94,4.8166 -9.23,14.1159 -11.7,20.8101 -7.88,12.1171 -14.46,25.0592 -31.68,19.3656 z m 23.14,-0.7532 c 9.37,-12.0197 17.35,-25.5089 25.9,-37.7535 -7.63,10.7603 12.96,41.3629 -6.97,38.651 -5.21,-0.6026 -17.55,1.2369 -18.93,-0.8975 z m 33.17,-1.2625 c -7.43,-18.6376 -1.03,-37.6603 2.72,-56.2795 8.27,11.1649 21.11,19.3066 32.17,23.7195 3.65,10.8934 2.46,26.8167 -6.47,34.5387 -7,-2.203 -24.58,3.698 -28.42,-1.9787 z m 34.01,1.76 c 4.26,-10.5917 20.7,-13.1399 19.25,-27.0937 0.14,-11.7704 12.82,-19.9155 8.57,-32.4263 19.16,-6.7243 5.15,28.5104 8.94,38.6911 -9.38,11.3077 -19.12,27.2284 -36.76,20.8289 z m 23.81,-0.08 c 18.59,-25.4083 20.97,8.07 0,0 z m -315.67,-1.4754 c -1.75,-0.8905 26.65,-10.2964 18.35,-29.0198 -14.45,-12.9733 12.43,-14.2295 10.12,1.3918 0.44,13.764 -13.45,32.3222 -28.47,27.628 z m 0.78,-6.5837 c -11,-12.9658 20.31,-31.1114 7.25,-14.6165 5.6,11.2091 9.11,-24.2897 6.19,2.3927 -2.55,5.4853 -5.3,15.5293 -13.44,12.2238 z m -8.12,-1.4174 c -9.87,-9.8502 7.13,-31.4981 18.72,-24.9945 -12.51,2.4513 -14.06,19.5309 -18.72,24.9945 z m 48.49,-1.5858 c 5.29,-17.9158 -0.83,-39.6313 -19.49,-47.6413 -8.03,-6.0563 28.02,-3.4926 28.73,9.3609 5.39,13.4333 0.85,29.79 -9.24,38.2804 z m -5.12,-3.8977 c -1.12,-15.7816 -9.74,-31.5514 -23.61,-38.8039 -25.7,-8.0073 17.97,-4.9429 21.12,9.2939 7.11,6.8403 8.88,23.554 2.49,29.51 z m 262.15,-0.5333 c 6.24,-16.2886 -13.9,-31.8387 -2.38,-47.3601 8.41,-18.0519 27.49,5.7869 18.38,17.0934 -8.65,8.2168 -5.34,26.2784 -16,30.2667 z m -312.54,-6.9605 c 0.35,-14.6361 16.59,-35.6182 31.72,-24.3199 -10,6.4749 -27.33,9.6637 -31.3,24.8716 z m 73.9,-3.5071 c -3.86,-10.8216 -5.23,-25.3249 -10.29,-35.2172 1.52,-19.8574 -24.46,-38.90846 -39.52,-21.6905 -5.79,7.3475 -17.43,-2.5231 -25.28,4.2657 -8.42,-4.6466 -4.85,-25.63779 9.88,-25.05568 13.09,-15.33637 37.93,-14.43145 49.18,3.09241 17.06,15.43327 23.87,39.82247 24.13,61.98537 -0.81,3.0846 -3.4,14.7128 -8.1,12.6199 z m 77.52,-5.2391 c -13.3,0.1632 -25.78,-5.7365 -36.12,-13.703 -2.41,-8.6936 -15.79,-31.928 6.84,-37.5395 17.25,-9.0027 37.53,-2.5318 55.65,-0.4959 -9.63,11.6292 7.8,24.0202 12.18,30.6428 -9.54,12.1135 -22.34,22.4781 -38.55,21.0956 z m 64,-7.04 c -24.75,-11.8862 24.34,-0.1253 31.35,-5.76 9.39,-0.1631 24.19,-22.0741 23.21,-12.16 -7.32,16.3523 -29.68,16.6198 -45.1,18.24 l -6.87,-0.084 -2.59,-0.2355 z m 84.78,-3.2301 c -6.48,-2.0815 -28.11,-24.9224 -21.42,-22.0527 13.88,19.7787 18.61,-11.6512 29.44,-17.4813 6.72,-9.5275 -15.42,-14.6148 0.48,-17.07575 8.34,-7.58936 21.73,-0.35194 15.84,11.08425 -3.96,15.4577 -28.51,20.2856 -21.6,39.4315 -0.53,1.0594 -0.1,6.4705 -2.74,6.094 z m -79.04,-5.4005 c -22.91,-5.4469 16.44,-4.1402 25.31,-8.0092 8.63,-1.3587 16.17,-12.7895 22.71,-12.2758 -8.44,18.339 -29.61,23.0866 -48.02,20.285 z m -19.82,-8.6494 c -10.5,-0.7711 -21.86,-10.2168 -20.77,-20.8 14.36,15.0527 37.3,14.6062 55.44,7.17 -1.22,17.0635 -23.64,11.3582 -34.67,13.63 z m 33.76,-1.8984 c 12.09,-8.0396 -1.25,-30.2884 16.67,-30.7416 7.72,-7.4952 18.42,-6.8491 19.01,5.44 -2.07,4.4825 -19.6,-7.512 -24.76,5.4788 -9.38,12.7468 12.83,10.625 18.84,6.3612 -9.01,6.2969 -18.32,14.5149 -29.76,13.4616 z m -239.48,-0.2537 c -7.56,-27.752 27.96,-18.9266 41.21,-10.8395 21.62,6.7581 -26.87,2.79 -34.35,9.4217 -2.37,-10e-5 -4.52,1.2155 -6.86,1.4178 z m 289.72,-3.4479 c -12.9,-8.3762 -5.93,-27.9159 8.44,-29.12 24.47,-1.1808 -1.28,18.4224 -4.28,28.96 l -2.15,0.6583 z m 46.56,-4 c -17.44,-5.5493 -1.24,-16.4052 -2.08,-27.0588 -7.85,-13.87126 1.23,-23.38534 13.06,-32.53748 1.59,17.88222 0.12,39.72818 0.54,59.11628 -3.71,1.089 -7.69,0.8898 -11.52,0.48 z m -277.86,-1.7792 c -18.66,-1.6112 -40.14,-23.8439 -7.29,-16.7534 4.68,0.3864 19.38,21.7149 7.29,16.7534 z m 150.18,-0.4608 c -8.15,-1.6174 -17.93,-6.9098 -21.69,-12.947 12.12,-8.2994 19.54,1.0859 30.18,5.587 27.75,1.7756 19.43,7.1485 -4.63,7.68 z m 43.75,-3.904 c -0.84,-8.7284 18.69,-12.0942 16.73,-4.096 -5.6,1.7679 -10.28,6.3932 -16.73,4.096 z m -142.1,-3.5167 c -1.96,-16.119 -30.13,-21.8343 -7.71,-33.21926 13.52,-11.20392 4.92,13.63146 12.46,20.16716 6.84,5.0897 -1.84,10.8657 -4.75,13.0521 z m 118.2,-0.5727 c -5.03,0.3512 -26.9,-7.2609 -15.69,-9.6066 9.79,-1.4282 42.62,13.8601 15.69,9.6066 z m -128.33,-1.4833 c -10.48,-6.9515 -22.89,-9.6802 -29.28,-21.24326 -13.63,-11.47905 11.76,-3.74984 16.16,1.96236 3.99,4.6243 26.91,15.6373 13.12,19.2809 z m 139.04,-4.4433 c -10.73,-10.3919 -30.13,-3.9854 -36.16,-19.67996 13.2,0.65993 26.93,6.77166 37.94,14.44806 1,1.45 1.79,8.2646 -1.78,5.2319 z m -118.8,-5.7452 c -7.36,-13.80384 -3.38,-31.22739 -11.76,-44.97476 -1.49,-10.86879 -12.28,-18.09206 5.12,-18.24 14.05,-5.66494 44.88,-10.93133 47.84,0.96 -11.98,2.65383 -26.38,5.48125 -35.36,13.27722 16.3,7.28994 20.66,30.36118 39.68,33.92278 16.63,-0.003 33.53,-6.89704 40,12.79616 -16.29,6.1709 -35.25,-0.2462 -52.79,-2.3962 -11.36,-1.8341 -22.73,4.5189 -32.73,4.6548 z m 122.7,-2.2548 c -10.42,-8.2214 -26.34,-12.45865 -36.27,-16.49788 11.82,-2.33176 27.61,-11.6807 36.21,1.79693 3.47,5.9204 13.89,14.99955 0.1,14.70095 z m 35.14,-2.2057 c -9.68,-9.6949 -18.36,-20.20581 -27.67,-30.59714 -21.56,-16.07398 11.28,-6.12826 14.71,7.49174 2.74,8.41657 17.34,16.5372 12.96,23.1054 z m -23.79,-2.9143 c -5.52,-5.72613 -14.52,-18.8673 -16.07,-20.63996 10.48,-0.68114 30.15,10.16319 21.28,20.15996 -1.53,0.937 -3.54,1.3554 -5.21,0.48 z m 27.63,-2.6788 c -2.12,-8.48855 -10.84,-13.09074 -14.08,-21.56439 -22.12,-15.6647 -5.56,-26.40137 3.53,-7.56007 8.67,4.91074 19.39,27.39755 10.55,29.12446 z m 12.24,0.6904 c 4.84,-12.82578 13.51,-25.10026 26.64,-30.49156 12.88,-12.53004 21.34,-29.1176 26.81,-46 -1.14,21.38513 7.6,46.41485 -16.73,58.18739 -7.82,12.13719 -24.31,12.92918 -36.72,18.30417 z m -209.99,-7.32388 c -22.74,-4.96019 -38.87,-9.29097 -20.43,-28.68768 9.36,-7.26569 21.78,-10.08762 30.23,-18.98429 4.66,8.40885 10.12,16.11422 11.8,25.99063 7.86,9.99274 -7.88,13.81257 -14.09,19.63366 l -3.71,3.73603 z m -84.49,-4.74611 c 1.74,-7.20911 17.11,-8.88062 23.17,-17.78157 10.48,-2.02052 19.15,-11.9024 30.36,-8.24 -8.53,4.83944 -15.68,13.92139 -25.05,15.14656 -11.18,1.91253 -16.72,13.95465 -27.92,15.69021 z m 291.01,3.83731 c -2.52,-16.50944 -22.69,-25.70789 -22.21,-43.05888 10.89,1.77283 24.51,5.74427 31.04,15.36 1.09,9.04276 -2.86,22.16519 -8.83,27.69888 z m -121.61,-1.61888 c -13.67,-1.65056 -19.86,-15.83771 -27.83,-25.07146 16.02,3.21881 32.86,4.56633 48.35,9.8715 5.26,-0.32021 51.28,-0.44807 34.39,6.08 -17.04,7.38826 -37.01,7.26105 -54.91,9.11996 z m 135.14,-13.17334 c 0.84,-11.48781 -4.88,-23.58648 4.95,-32.74666 7.66,-15.01666 17.93,-30.24927 15.54,-47.99462 6.37,-10.1062 18.59,-19.21405 21.85,-1.81984 1.75,26.96699 -9.41,56.7041 -30.65,74.12832 -4.47,2.21931 -8.6,5.23879 -11.69,8.4328 z m -75.9,-2.66666 c -15.48,-3.05652 -31.54,-2.76967 -46.59,-5.76 -13.59,-3.7817 -28.38,-3.86295 -42.03,-8.59491 17.32,-10.70274 41.46,-10.13997 61.22,-8.04611 13.04,3.78386 22.84,13.98301 33.32,22.08 l -2.86,0.64 -3.06,-0.32 z m -228.63,-14.81808 c -4.19,-19.59701 6.65,-3.07325 17.1,-4.38192 25.46,0.31009 17.58,12.39841 -6.11,9.76 -9.77,2.88662 -12.79,11.36396 -10.99,-5.37808 z m 229.43,2.97808 c -13.67,-4.70248 -18.27,-32.40117 -4.48,-35.528 13.84,6.86535 25.72,17.41848 37.07,27.70592 -5.01,3.02981 -17.25,4.35922 -24.83,7.50212 -3.02,0.43333 -5.5,6.83912 -7.76,0.31996 z m -177.39,-5.70518 c -11.58,-10.10176 -22.51,-20.6279 -21.23,-37.58221 -4.51,-12.73042 -10.15,-18.5012 8.46,-18.95907 15.59,2.65412 29.26,-1.01814 37.52,-15.8564 3.27,-11.82093 15.84,-31.0832 28.66,-20.13715 9.19,3.88151 13.67,22.57938 -0.55,12.48 -7.75,-6.81948 -31.03,-5.71845 -21.39,7.68 14.31,6.50319 45.04,-8.38354 30.6,18.56005 -16.35,10.33205 -33.75,-17.54836 -48.21,-2.23996 -1.39,20.40725 23.82,6.59322 35,8.15446 -2.95,7.33559 -25.76,11.25081 -14.83,22.24554 14.09,-0.60687 16.02,-22.13981 29.64,-24.0817 -2.23,11.81499 -4.66,28.48925 -16.23,34.57271 -22.57,-1.56368 -30.61,-26.11036 -47.01,-37.53101 -17.76,-2.65466 -4.22,16.85148 4.96,19.36 5.62,3.78698 22,10.5077 18.11,15.04 -11.96,4.91472 -25.47,-18.84581 -33.77,-3.304 7.71,21.96295 33.44,1.09655 47.5,8.96902 -10.03,9.03478 -23.26,15.80371 -37.23,12.62972 z m -8.19,-0.51936 c -15.07,-0.93642 -25.18,-25.29176 -41.81,-15.13546 -8.03,-8.90519 -0.39,-25.87637 12.31,-12.07446 11.7,6.83647 23.12,18.56751 30.6,27.59661 z m 254.18,-1.95661 c -8.2,-5.78633 -25.27,-5.75598 -18.54,-19.81885 -1.2,-16.931 -6.71,-35.16177 3.7,-50.41536 4.28,-7.26545 6.29,-19.29981 12.12,-23.76154 10.15,17.43017 32.97,33.62566 22.76,56.7369 -6.29,12.60613 -11.11,26.19739 -20.04,37.25885 z m -85.98,-3.55219 c -10.48,-18.05474 -41.31,-29.26626 -31.1,-55.01261 -4.64,-8.26527 3.14,-32.78239 8.35,-13.02519 4.24,21.64693 32.15,32.78663 24.77,57.23225 -1.15,2.11774 2.38,12.83185 -2.02,10.80555 z m -11.9,-4.1066 c -19.08,3.30624 -35.39,-3.85407 -47.53,-17.72489 -7.17,-9.87627 -5.87,-23.42989 -13.22,-32.86561 11.26,-3.60777 24.3,-7.8671 35.31,-1.08954 -4.8,16.77095 3.76,30.41343 16.97,40.32 1.77,3.43909 18.3,13.3078 8.47,11.36004 z m 58.11,-3.53184 c -13.65,-6.96919 -23.49,-21.05343 -39.73,-23.16361 -10.92,-17.11352 -33.89,-35.65277 -22.57,-58.1554 8.88,-6.38302 0.4,-25.42853 15.44,-18.50919 23.86,5.5858 43.26,27.99411 43.95,52.82029 -0.5,17.28373 16.41,33.63154 6.8,50.04793 l -3.89,-3.04 z m 12.47,-0.28889 c -0.33,-19.12059 -9.56,-36.4922 -11.68,-55.59079 -0.52,-10.05686 -8.66,-21.83218 -10.08,-27.78854 13.17,-4.16979 27.63,9.9667 29.9,20.85718 -11.94,17.54105 -5.14,38.73793 -5.08,58.14151 -1.19,1.44811 0.54,6.38249 -3.06,4.38064 z m -163.22,-1.13933 c 10.03,-13.33082 12.66,-30.69066 13.92,-46.64137 10.75,-8.14925 10.73,2.77498 17.44,10.49673 1.55,19.35974 25.3,36.18189 -9.6,30.86464 -7.68,-0.26106 -14.63,5.892 -21.76,5.28 z m -87.55,-13.89338 c -7.06,-6.19525 -22.77,-6.801 -19.97,-18.77273 6.11,-19.43304 15.83,5.04319 19.52,15.24979 0.63,0.4142 2.84,4.84232 0.45,3.52294 z m -5.35,-26.95996 c -9.2,0.21583 -24.85,-10.55052 -4.54,-11.62666 7.56,0.30804 15.35,4.92734 22.56,8 -5.92,1.55357 -11.95,2.84089 -18.02,3.62666 z m 28.42,-5.86666 c -16.11,-3.91598 -32.3,-10.42011 -42.56,-23.68 -6.2,-32.37297 14.16,-4.04786 23.88,2.56 13.43,8.3118 29.67,-2.06203 30.68,-16.63965 17.56,-1.80044 21.85,-21.01487 33.54,-30.72035 3.88,11.32261 13.5,27.63628 -2.15,34.8 -13.79,7.94794 -12.36,30.76183 -31.07,33.68 l -6.06,0.32 z m 91.84,-3.52 c -5.49,-1.35424 19.61,-20.21348 -0.36,-18.56 -7.44,2.18699 -14.15,23.11686 -15.25,5.4911 4.99,-10.18773 21.01,-25.66768 8.09,-37.1711 -17.69,-5.6486 -1.95,27.77367 -12.33,25.7985 -1.82,-7.84197 -19.1,-17.82536 -5.87,-22.45599 5.01,-7.45722 16.08,-28.06345 20.25,-8.30429 -0.12,-0.39063 4.84,-12.09193 17.94,-2.71829 16.73,7.38192 20.28,2.056 8.17,12.95314 -4.31,14.0827 -6.16,27.28158 -7.7,42.08686 -4.17,1.27925 -8.45,3.98992 -12.94,2.88007 z m 187.44,-0.53194 c -4.89,-14.44965 -27.25,-23.89113 -17.04,-40.88822 6.13,-7.27838 19.67,-23.64326 27.04,-17.34412 4.5,11.9555 21.65,15.71632 15.84,31.2184 5.22,33.29488 -4.53,3.13258 -17.97,20.0222 -2.77,2.01194 -4.55,5.87152 -7.87,6.99174 z m -149.72,-1.86806 c -15.12,-3.00142 -23.93,-1.20078 -18.68,-20.32005 5.59,-15.8896 6.87,-31.26812 30.61,-22.24 17.11,-5.08578 8.69,11.5238 4.75,18.92635 -14.1,6.6924 -14.99,8.71146 -16.68,23.6337 z m -171.64,-3.36 c -9.91,-20.63075 18.57,5.22521 0,0 z m 29.6,-13.44 c -25.88,-8.59669 1.85,-13.27851 16.68,-13.76 10.12,4.01234 -8.76,19.42765 -16.68,13.76 z m 249.44,-1.08576 c -7.02,-16.10684 -24.94,-18.79144 -38.72,-17.17885 -13.53,-7.88797 -18.62,-14.53073 -15.04,-30.58665 11.54,-4.18478 34.22,-8.12358 43.2,4.84629 5.12,13.93707 21.45,27.57132 13.63,43.07597 l -1.85,0.60898 -1.22,-0.76576 z m -252.16,-15.23424 c 11.46,-4.69963 22.58,-11.87549 29.28,-21.76 29.79,-13.44237 21.27,-67.16904 -12.8,-67.2 -17.5,-1.94424 -30.89,-3.51734 -5.28,-7.04001 21.38,0.71301 46.33,9.23539 52.09,32.32 7.43,12.50696 4.85,28.83087 -9.66,34.8002 -8.39,11.21529 -14.92,27.29923 -31.71,26.6398 -7.22,0.13324 -14.97,3.34672 -21.92,2.24001 z m 261.74,-0.52744 c -5.24,-12.86346 -13.42,-24.26347 -20.14,-36.21479 13.49,-14.47476 29.16,0.12905 36.32,13.96506 4.73,7.14524 -8.29,20.13925 -13.28,19.69141 -1.07,0.35607 -1.53,4.32702 -2.9,2.55832 z m -279.22,0.0474 c -15.68,-2.5252 -15.18748,-35.02591 0.24,-14.54935 5.23,7.68036 37.09,3.04362 20.08,9.90935 -6.48,2.98035 -12.95,5.94445 -20.32,4.64 z m 88.89,-12.17502 c -1.19,-9.45358 -12.44,-19.2757 -1.65,-26.70939 11.46,-8.10791 -14.9,-36.58514 2.64,-30.95366 19.36,11.58677 18.6,43.08509 2.94,57.50745 l -2.85,0.91676 z m -68.37,-0.46494 c -14.97,1.49083 -32.13,-10.41039 -30.29,-26.24 8.14,12.70442 23.22,22.35689 37.98,21.76 16.22,-6.73979 7.28,6.63793 -4.31,4.80002 l -3.38,-0.32 z m 138.27,-2.46073 c -3.69,-6.89588 -0.52,0.36932 -6.59,-7.93888 -0.16,-6.83673 -15.27,-3.6653 -27.25,-9.37211 -17.58,-1.25999 -16.37,-33.94409 -0.87,-23.44457 7.57,5.12574 24,9.2706 44.33,4.97659 15.66,13.27807 -2.29,-6.7837 8.53,-1.5291 8.3,0.83161 5.19,-24.32436 13.82,-15.27086 4.56,5.22164 -13.81,24.20468 0.48,21.93281 0.17,-15.7904 9.48,-8.3254 10.12,1.50719 -6.26,12.60456 19.1,9.46721 9.88,25.95572 -9.33,3.79288 -25.12,-2.8802 -33.58,4.04428 -5.25,-1.11685 -9.52,1.14802 -18.87,-0.86107 z m 172.99,-3.20873 c -5.86,-5.78461 -9.45,-21.53833 -19.24,-10.97054 -8.68,8.4916 -14.19,8.11554 -18.45,-3.39712 0.35,-8.14777 3.98,-21.70994 12.46,-23.82224 14.67,0.16858 26.43,7.64272 7.05,11.69936 -12.18,12.19384 15.26,12.36378 16.84,-1.06535 8.29,-21.78414 8.57,14.27121 5.44,21.9947 -1.45,0.82184 -2.1,8.08281 -4.1,5.56119 z m -309.8,-1.83154 c -1.73,-5.37096 9.36,-13.25436 11.98,-20.54328 0.59,-30.02491 9.65,1.10274 1.76,12.27424 -2.7,4.85024 -7.46,10.14267 -13.74,8.26904 z m 15.76,-3.58528 c 12.42,-17.7237 1.27,-48.4609 -23.08,-45.87372 -15.73,0.25305 -18.42,21.87092 -18.94,31.55426 -6.73,-17.36966 3.76,-40.79598 20.16,-49.31424 16.97,0.96061 42.49,3.61318 44.01,25.32337 2.75,14.09355 -3.36,39.83279 -22.15,38.31033 z m -25.22,-0.11372 c -20.28,-4.70351 -15.41,-45.20129 5.9,-42.10369 -13.64,1.15347 -15.44,25.42775 -3.82,33.30369 10.09,2.99508 6.46,7.89907 -2.08,8.8 z m 7.52,-10.08083 c 8.95,-7.85693 3.83,-21.1748 3.87,-29.53535 13.46,2.09501 8.71,31.15495 -3.87,29.53535 z m -4.8,-2.23917 c -14.22,-9.97928 3.63,-37.63464 7.52,-14.44428 -3.81,21.0158 -6.37,-16.98072 -8,8.84428 1.04,2.0492 7.06,5.33177 0.48,5.6 z m 273.17,-1.7052 c -17.6,-11.13093 -23.14,-24.3437 -15.57,-47.61398 6.95,-5.38468 13.04,-23.51086 23.36,-20.56687 -5.37,5.36056 -9.67,26.07877 1.92,16.62116 -7.91,-16.56242 15.66,-26.81783 12,-7.05511 -9.05,5.99827 -7.06,30.6684 3.36,15.36 -0.58,-22.17391 -0.21,-11.52026 9.3,-3.52 7.77,-7.74434 -21.87,-28.03837 1.71,-17.12 8.63,5.84755 14.29,17.98803 13.26,28.86141 1.37,21.31521 -1.89,1.15135 -6.5,-4.66403 -23.31,-13.08952 -0.38,21.20446 0.6,20.32492 -14.25,3.68812 -22.78,-18.62265 -36.52,-11.72227 -2.41,9.54895 7.76,9.63027 -1.5,18.52235 -1.93,1.64757 -1.6,14.44738 -5.42,12.57242 z m -74.97,-0.53958 c -7.32,-10.97498 -8.33,-7.81352 -7.62,-17.75522 -12.66,-5.14317 -14.39,-22.27855 -3.7,-4.96 20.18,8.59387 -11.04,-15.17344 -11.29,-23.23416 18.32,22.03053 18.15,2.53887 1.61,-6.49542 -9.94,-21.56547 6.36,8.49644 13.2,0.80382 -3.32,-7.93194 -18.45,-22.84455 -4.4,-10.59569 17.46,6.56969 -11.64,-8.91507 -3.59,-14.8109 -13.85,-1.22027 -4.68,-42.79476 0.63,-24.23769 3.52,7.16604 -1.34,28.56857 5.52,10.30778 10.42,5.44516 -10.11,20.72691 2.04,20.59737 8.52,-22.67805 -0.94,15.03358 7.96,3.66489 7.53,-4.16041 -11.54,18.17703 -0.28,16.64 3.6,-15.61605 10.53,-7.18149 3.64,4.08599 -2.54,21.25117 5.61,-7.73317 9.12,0.82973 -2.81,9.05928 0.65,28.92086 3.36,11.40428 9.16,-2.75246 0.35,16.10295 -0.64,24 7.28,1.74543 7.29,-20.81988 11.84,-7.87424 8.28,14.30617 -5.92,18.84091 -18.68,17.15425 l -3.26,0.46982 -5.46,0.005 z m 42.76,-4.44098 c -6.68,-5.70349 -19.55,-22.26115 -1.6,-9.63424 9.93,-6.17206 -13.16,-9.72595 -16.64,-16.90957 14.43,5.21494 4.85,-5.78295 -7.04,-13.00308 -3.39,-4.29131 19.57,6.95555 3.42,-6.2125 -2.54,-4.53137 -0.22,-13.31839 -13.19,-16.51485 -9.18,-9.74959 23.07,9.14583 3.38,-7.36 -11.35,-2.08552 -12.9,-12.04823 -1.08,-2.4 10.95,-6.14894 -12.98,-8.0101 -15.21,-15.08401 18.19,5.08313 -3.09,-6.41979 -7.4,-13.35748 -2.65,-7.59761 -10.15,-17.53883 -10.71,-23.1274 12.33,8.62747 26.62,17.17339 35.03,29.33442 0.71,4.13703 6.22,31.59764 8.48,15.23877 5.07,-19.51794 -3.73,17.34355 6.69,12.19191 5.99,-30.32897 -4.64,14.4625 7.61,8.01323 0.1,-23.56447 4.31,7.58259 8.74,12.55058 11.7,-5.16231 16.4,1.55319 11.52,13.87576 -3.52,14.66522 7.53,31.94468 -12,32.39846 z m -110.7,-10.94622 c 8.42,-12.34934 -54.31,-1.88065 -37.37,-13.19389 10.46,-13.55908 -13.93,-12.42139 -2.93,-20.87073 25.04,-12.97238 9.79,-12.87491 26.53,-23.26575 13.52,9.21528 6.08,2.40208 25,13.69024 9.79,3.5649 16.91,0.8596 25.65,-1.31957 9.7,2.19336 -5.38,14.81871 -9.06,21.15166 -6.24,14.35509 11.07,6.67298 8.12,-4.48 15.47,-8.70461 -3.76,26.69378 -12.8,18.88004 8.47,10.542 -15.8,9.74977 -23.14,9.408 z m -155.86,-9.85601 c -4.05,-12.4935 8.32,-21.25486 18.24,-24.38724 -9.39,9.76276 -16.07,22.38166 -17.92,35.87523 l -0.24,-2.80419 z m 94.24,-12.19828 c -14.18,-2.67369 -13.19,-15.52611 0.39,-12.61305 2.12,4.07945 7.96,13.6978 -0.39,12.61305 z m -94.24,-14.63244 c -4.82,-21.06912 30.47,-24.84925 37.27,-9.44542 -14.24,1.60133 -26.85,10.20778 -37.27,19.50716 z m 99.79,6.23871 c -8.87,-6.41501 10.15,-13.58296 9.13,-6.2226 -2.58,2.59319 -5.92,4.53795 -9.13,6.2226 z m -20.72,-6.34009 c -16.89,-5.76126 -46.77,-9.7752 -17.23,-18.37991 9.29,-9.5268 21.6,5.32795 32.56,-2.08 10.16,-2.71823 23.15,-16.94624 19.22,3.67331 -7.77,10.58098 -22.21,16.07339 -34.55,16.7866 z m 32.39,-1.794 c -0.84,-17.10628 18.86,-7.14482 0.84,0.41899 -0.78,0.56876 -1.04,0.40882 -0.84,-0.41899 z m 123.97,-3.31038 c -9,-7.0853 6.88,0.27819 0,0 z m 43.51,-1.05576 c -1.12,-8.60763 -23.15,-13.45641 -15.9,-17.33977 8.91,9.35476 15.78,-4.15381 2.08,-4.16 -23.72,-9.14592 3.66,-0.018 -0.27,-9.27997 -24.3,-3.72936 -6.94,-0.6628 -6.93,-10.56 -15.63,5.72295 -15.54,-3.73167 -28.83,-11.52 -10.27,-9.05525 -22.03,-16.09879 -32.93,-24.29129 15.47,-7.73726 30.68,4.93115 32.62,0.67153 1.62,23.84889 7.24,9.77916 6.54,-1.82024 7.84,2.1401 2.63,26.05173 17.04,24.78724 3.22,-6.84269 -15.74,-20.29018 -4.37,-21.60119 7.42,4.02563 1.38,27.74712 16.47,27.53938 3.79,-1.2127 13.22,0.38906 20.09,5.27457 4.52,-5.6549 -19.65,-23.60345 -3.39,-16.64 4.67,2.09802 7.96,25.58274 12.28,12.50323 -7.63,-15.52466 6.37,3.49799 6,10.53677 11.66,9.90038 21.1,-11.83962 6.8,-14.88 -10.21,1.79263 -22.28,-12.32969 -4.61,-6.37714 0,-12.6655 -25.36,-0.23122 -26.75,-11.32548 5.85,-0.84089 32.8,5.25605 19.36,-4.53753 -5.16,-5.97414 -35.45,7.7986 -25.23,-2.08 14.06,-1.75569 36.92,-7.82945 8.74,-7.84 -7.05,0.51429 -28.08,14.54249 -15,0.96 8.38,-1.75785 32.36,-9.80773 10.53,-9.92 -10.73,0.13789 -15.36,12.25027 -24.16,13.44002 -0.62,-2.67464 20.13,-26.89268 25.94,-19.20017 16.97,3.5821 6.58,-15.37641 20.95,-19.81123 7.59,-7.00329 35.91,-32.86366 17.9,-11.22877 -9.97,10.9849 -10.85,27.18919 -19.02,38.19949 -5.12,14.71873 20.82,8.96093 11.34,-3.31949 -5.54,-9.11779 4.05,-22.05943 9.2,-30.91938 9.78,-12.88182 0.36,18.72574 -0.87,26.11938 -13.72,9.19882 14.27,20.10434 11.68,4.59572 -8.77,-5.47756 -7.14,-23.23797 -1.94,-25.73128 -1.31,15.18988 12.85,24.29937 13.13,38.75322 16.73,-2.25954 15.53,39.56468 4.33,30.22234 -10.8,-5.39924 -6.13,-27.10879 -21.68,-25.53744 -8.69,13.07933 12.8,21.14496 20.44,28.89744 19.19,8.447 -24.65,0.31129 -10.01,15.36 17.07,-9.3601 25.87,11.1646 8.58,12.57873 -3.43,5.99366 19.22,16.14417 2.21,15.26072 -8.37,-8.9908 -25.62,-4.00302 -28.02,-17.96864 -20.3,-18.12175 6.62,18.68612 -11.26,6.01171 -15.82,-15.76958 -26.98,4.98319 -3.14,4.44078 -6.85,3.46148 -13.56,8.02581 -19.94,11.73674 z m -105.82,-4.86138 c -8.73,-4.35051 -21.19,-6.10491 -26.85,-14.23597 3.73,-7.81873 6.39,-19.80349 16.09,-19.84242 4.87,9.20287 19.36,12.11435 24.04,18.13717 0.88,9.22479 17.17,-2.90535 -1.37,11.54283 -3.69,1.93218 -7.53,4.95053 -11.91,4.39839 z m -173.12,-16.42879 c -1.72,-25.46723 2.96,3.57452 12.55,5.20584 -8.5,3.01896 -16.44,12.48195 -12.55,-5.20584 z m 39.68,11.90657 c -8.36,-6.85957 -31.5,-3.60698 -20.48,-20.91617 10.18,-7.87752 18.39,7.51455 30.04,5.28 13.78,6.416 7.14,14.60856 -6.09,15.31295 z m 81.43,-3.45155 c -7.85,-8.29327 -3.48,-21.71485 9.48,-16.02462 8.02,-1.50144 21.52,-7.32086 13.09,5.31424 -6.38,4.93152 -14.66,9.15806 -22.57,10.71038 z m 81.93,-1.30462 c -13.43,-11.84392 4.31,-2.53289 0,0 z m -123.68,-2.72 c -5.67,-5.22645 -31.76,-2.38587 -18.84,-8.16 11.11,-1.69211 17.47,-16.22983 29.08,-11.36 8.94,3.34256 31.99,-16.23865 26.88,2.4 -7.4,10.73475 -24.23,17.59013 -37.12,17.12 z m -70.4,-6.24 c -13.71,-13.98841 17.3,-3.39828 0,0 z m 180.48,-2.4 c -9.62,-4.08075 -22.65,-7.87686 -25.6,-18.34191 10.68,-2.63744 18.21,-12.43224 27.72,-2.29809 12.38,-1.80911 6.79,22.11118 -2.12,20.64 z m -135.84,-3.75523 c -8.68,-0.0361 -29.79,-2.86338 -17.94,-14.64477 10.35,-8.32197 24.71,-1.71625 35.56,-9.60796 11.41,2.93198 23.17,-1.01219 6.07,13.44796 -6.67,6.64793 -13.76,10.51814 -23.69,10.80477 z m 69.92,-3.42545 c -10.11,-14.03969 5.25,-17.25395 16.15,-20.81932 11.67,-1.278 25.95,-30.4149 28.65,-16.28082 3.63,11.56695 -7.73,23.31674 -15.87,30.52082 -9.4,2.81879 -18.83,7.65419 -28.93,6.57932 z m -116.16,-2.25932 c -14.76,-7.4748 -7.07,-21.54869 5.12,-7.6739 29.43,0.31549 9.81,8.86097 -5.12,7.6739 z m 79.26,-5.33333 c 3.15,-10.62595 5.71,-20.00605 17.04,-24.10667 13.94,-24.71358 28.71,13.18151 9.14,17.92 -8.18,3.49979 -17.2,6.49729 -26.18,6.18667 z m -68.82,-4.51415 c -16.5,-4.9208 -20.46,-21.21108 -17.6,-36.25846 7.58,9.94015 21.35,14.22259 31.47,22.10594 9.84,5.35414 10.5,12.13014 -0.47,14.4 -4.71,0.68385 -8.62,1.00097 -13.4,-0.24748 z m 179.32,-2.79252 c -17.66,-3.50615 -7.32,-11.14157 -3.68,-23.2 4.99,5.62475 12.87,19.89502 3.68,23.2 z m -29.44,-2.25528 c 5.2,-7.26838 8.89,-15.33138 4.8,-23.94554 -1.5,-11.35104 18.35,-13.0894 15.2,1.60654 3.16,10.20995 -13.34,20.84288 -20,22.339 z m -119.04,-0.94472 c -15.48,-0.8993 -7.84,-10.5209 3.88,-9.76 11.44,-3.15706 40.43,-6.48853 16.47,5.28 -6.18,3.38307 -13.26,5.21019 -20.35,4.48 z m 223.86,-1.96663 c -10.65,-7.00896 -7.61,-23.4704 -1.46,-5.99913 0.39,1.58741 7,10.05168 1.46,5.99913 z m -9.41,-0.59396 c -11.17,-5.5645 -5.94,-30.69456 -1.97,-8.79941 -0.32,2.19883 5.36,9.82035 1.97,8.79941 z m -187.45,-1.93177 c 6.48,-6.98988 16.36,-21.07828 27.21,-25.74764 10.44,-10.43831 12.48,5.19346 3.03,9.92305 -7.94,8.59013 -15.41,8.88234 -25.06,14.80992 z m 50.91,1.10927 c -3.91,-13.3131 14.35,-8.22098 19.05,-18.50678 4.08,-8.07555 6.3,-16.68556 11.35,-24.34242 3.85,-28.64447 22.36,-16.02405 12.97,4.45196 -6.71,18.87565 -23.49,32.29442 -41.62,39.0603 l -1.75,-0.66309 z m -91.51,-6.05691 c -9.18,-5.88734 -25.42,-13.45931 -24.5,-25.6 12.4,3.12906 21.33,13.05329 33.86,15.68153 14.45,9.57395 0.21,9.67337 -9.36,9.91847 z m 18.29,-7.61458 c -2.65,-7.00687 -31.19,-7.96203 -17.28,-13.66542 7.67,-6.09415 16.1,4.18127 23.68,-3.2 15.94,-5.9728 9.36,10.62379 -1.49,15.57319 -2.69,1.40412 -1.86,1.28901 -4.91,1.29223 z m 7.05,2.28125 c 7.94,-11.64645 22.23,-23.72249 36.44,-25.06667 3.59,15.16396 -21.59,29.24947 -36.44,25.06667 z m 65.5,-1.94667 c -3.19,-9.05681 -16,-11.36263 -11.96,-22.79505 3.98,-13.79435 16.41,-29.38527 31.88,-25.60495 11.71,7.79634 5.91,21.1914 0.33,30.64278 -1.55,10.03074 -9.76,18.49941 -20.25,17.75722 z m -118.79,-10.45273 c -8.72,-2.45449 -11.68,-30.09714 -4.21,-18.94151 0.34,5.47108 10.85,21.74311 6.14,20.73966 z m 186.09,-2.0006 c -2.27,-15.74692 14.98,-5.50943 23.78,-10.18667 20.84,-7.04714 31.49,-44.41094 8.39,-54.24 -18.15,-4.61455 -30.58,27.65656 -9.37,31.68 10.26,0.47143 20.24,-15.17812 8.02,-20.32 -21.1,0.37632 8.49,14.0375 -8,12.16 -15.27,-6.85893 7.47,-27.13001 13.94,-12.62399 10.83,18.23941 -10.34,47.21695 -29.88,37.3414 7.52,-12.20982 -2.37,-23.66491 -7.42,-34.31743 2.53,-15.59438 -6.54,-31.47288 -22.48,-33.92412 -9.6,-13.09083 4.21,-22.24819 15.16,-19.35693 36.19,-0.0929 68.16,-0.19741 75.51,0.285 18.84,-2.52068 35.67,8.34085 49.74,19.53774 -11.67,-3.9765 -25.77,-5.34125 -34.41,-14.22167 -16.58,-2.28378 -4.15,21.42906 6.56,9.76 12.78,2.76047 25.8,7.78081 36.46,14.74867 -19.03,6.58999 -5.37,5.2699 -30.43,2.3172 -8.27,4.7391 -14.67,1.86708 -25.07,8.85413 -6.53,6.53005 -19.48,-5.7449 -20.32,9.45749 8.1,19.49978 16.14,-9.35735 28.91,-9.24335 12.32,-5.19067 29.43,-5.73257 38.27,-3.73414 -9.84,4.91872 -9.48,6.76762 -18.85,10.01436 -9.11,6.67329 -9.5,8.62344 -23.88,10.46564 -9.54,12.05275 16.59,17.13323 12.96,2.23467 8.55,-4.97635 19.39,-11.72294 29.76,-15.61011 -7.66,8.78791 -22.37,21.46226 -32.19,28.67144 -11.31,4.11888 -23.55,7.97498 -28.93,20.41339 -16.11,18.36964 -12.92,2.47689 -1.96,-9.58165 -5.49,-12.83078 -21.71,19.68952 -19,16.39395 -3.3,-5.37367 -2.01,-9.50722 -15.46,-0.60166 -6.91,-0.12904 -13.97,-0.64488 -19.81,3.62664 z m -167.2,-1.86098 c -10.22,-3.42129 -19.77,-8.39119 -23.02,-19.36771 0.92,-6.60253 17.39,1.33102 22.8,5.44202 11.39,1.37988 21.96,12.76035 4.26,13.75447 l -2.66,0.32553 z m 144.9,-1.76569 c 3.25,-5.33837 5.35,-24.96229 10.88,-12.46465 4.42,7.57273 -6.27,11.54764 -10.88,12.46465 z m -122.88,-0.48 c -7.11,-8.83634 20.69,-10.2039 26.03,-9.8705 5.27,8.42224 -15.54,3.04227 -21.55,9.8705 l -2.24,0.48 z m 53.22,-0.0396 c 5.67,-18.95977 28.42,-32.70146 19.1,-54.74439 8.67,-6.65423 11.57,13.03853 6.4,19.424 -2.98,10.56381 -12.02,17.89847 -15.36,28.38673 -3.12,2.13212 -5.53,7.70864 -10.14,6.93366 z m -27.62,-1.73165 c 9.58,-6.42988 6.91,-20.27096 16.64,-26.56902 14.23,-9.48053 12.98,1.80884 14.72,14.51667 -1.78,10.37512 -11.16,1.11768 -17.43,6.60335 -4.18,1.20567 -10.25,8.29091 -13.93,5.449 z m 113.92,-0.95878 c 4.49,-16.20078 -19.56,-17.32377 -5.92,-28.88778 6.45,-17.84097 20.51,-0.0388 16.32,12.14209 -2.03,5.66698 -4.7,16.04275 -10.4,16.74569 z m -145.71,-3.77516 c -2.2,-6.40739 -19.9,-22.07977 -7.23,-22.1348 9.38,4.45617 27.65,17.47644 8.96,22.72072 z m 297.52,-0.61481 c -6.29,-11.62336 -14.61,-24.69213 -11.18,-38.16 2.34,10.59402 10.39,18.73327 17.31,25.74982 6.08,8.00128 4.77,13.76998 -6.13,12.41018 z m -279.66,-3.9008 c -8.76,-3.55635 8.51,-9.14337 13.43,-11.55071 13.91,-9.08096 12.19,-7.39571 6.58,7.11754 0.32,6.6241 -14.99,1.83423 -20.01,4.43317 z m -26.07,-0.25037 c -12.93,-1.95718 -23.73,-25.28747 -10.88,-14.27849 3.54,3.5944 12.35,7.15835 10.88,14.27849 z m 19.6,-5.33002 c -8.4,-11.19607 15.93,-0.45018 0,0 z m 53.9,-2.01214 c -4.93,-11.35943 -1.8,-27.35 10.1,-33.02294 8.27,10.12561 -2.59,25.83984 -10.1,33.02294 z m -94.94,-1.86667 c -17.59,1.17366 -16.22,-17.9738 -1.65,-4.54101 0.69,1.04506 7.44,6.32765 1.65,4.54101 z m 34.98,-4.07169 c -14.06,-2.94003 -7.67,-24.49817 4.88,-14.02974 -1.87,9.02507 9.36,15.01162 -4.88,14.02974 z m 12.3,-0.63016 c -13.18,-11.16582 8.59,-25.10558 18.55,-15.29815 13.24,8.73517 -10.7,20.94907 -17.65,16.22889 -0.3,-0.31031 -0.6,-0.62057 -0.9,-0.93074 z m -33.2,-0.0747 c -10.53,-8.08733 -17.92,-10.09323 -14.4,-27.11269 -1.56,-8.36619 21.16,-24.46278 12.48,-10.9337 0.83,8.44513 -3.33,17.07778 2.45,24.57157 3.24,3.64584 2.78,10.92747 -0.53,13.47482 z m -14.08,-1.62346 c -22.44,-7.9304 -13.63,-49.76649 9.94,-46.88 4.19,4.58611 -12.27,9.68301 -12.3,18.75154 -0.1,9.05784 -3.37,20.28432 4.28,28.11318 l -1.92,0.0153 z m 143.12,-0.62526 c -10.9,-13.89616 6.5,-37.59906 -11.28,-49.11248 3.86,-5.12234 23.13,3.59251 23.84,14.81346 6.87,12.74429 0.4,27.42141 -10.83,34.92428 z m -67.16,-9.51971 c -4.65,-20.22569 26.28,-3.30398 6.6,4.48339 -5.7,2.44494 -7.97,3.76508 -6.6,-4.48339 z m 85.96,5.81493 c -2.78,-9.74611 4.86,-20.79909 -1.6,-30.83078 -3.94,-6.6108 -6.67,-18.23447 4.37,-11.23918 13.27,6.58393 16.93,28.41226 2.83,36.52428 -1.8,0.73887 -2.97,7.56671 -5.6,5.54568 z m 164.67,-0.97536 c -5.97,-2.605 -10.05,-26.57427 -4.41,-20.36065 4.47,8.97523 21.52,19.96157 4.41,20.36065 z m -305.39,-1.47313 c -9.74,-8.81605 -8.49,-21.73903 3.92,-26.98147 12.81,-2.8457 -1.49,10.28328 -0.62,16.41353 -2.45,2.5676 2.67,16.1984 -3.3,10.56794 z m 95.82,0.005 c 5.77,-12.05552 -3.12,-24.87691 4.58,-36.73662 10.79,-9.89516 19.48,12.61601 13.92,20.80516 4.8,21.72694 -8.2,5.43797 -18.5,15.93146 z m -45.42,-4.6123 c -4.97,-8.66714 -13.75,-9.59623 -21.9,-8.23336 8.18,-5.97017 31.59,-6.7276 21.9,8.23336 z m -29.56,-2.75735 c -15.37,-4.39349 0.28,-34.5399 5.32,-12.89702 3.1,1.22807 -3.26,15.02089 -5.32,12.89702 z m 49.57,1.89758 c -2.61,-14.31253 -20.42,-4.24417 -18.64,-20.29027 5.79,-14.74476 -16.14,-14.3047 -17.93,-19.53044 13.92,-9.31176 32.33,7.60615 33.44,23.10611 2.53,4.82742 6.52,12.87031 3.13,16.7146 z m -64.83,-4.76793 c 2.12,-17.54009 12.78,-7.19131 0,0 z m 307.54,-1.60726 c -5.05,-7.017 6.81,-6.06594 0,0 z m -239.6,-1.63897 c 0.51,-10.91315 7.35,-22.55287 1.12,-34.30044 -8.89,-11.2638 6.4,-14.18498 12.4,-3.68295 6.45,7.00404 10.65,18.68749 7.52,27.04295 -6.66,-4.45115 -16.26,8.5548 -21.04,10.94044 z m -42.66,-4.11377 c -13.54,-13.46984 23.26,-1.63442 17.99,0.21333 -6.17,-1.73561 -11.76,-1.45709 -17.99,-0.21333 z m 276.22,-2.18114 c -14.76,-10.94671 14.67,-0.008 0,0 z m -236.76,-2.37129 c 0.89,-12.81092 -13.12,-18.28685 -14.77,-29.15424 -14.65,-12.6503 5.94,-20.86517 12.21,-5.45149 5.96,9.33475 11.46,27.67802 2.56,34.60573 z m -77.84,-0.82449 c -0.1,-16.34507 24.22,-30.85783 36.88,-20.16975 -5.3,3.05254 -18.8,6.68921 -25.12,13.6 -4.69,0.21109 -7.86,7.66521 -11.76,6.56975 z m 54.16,-0.32975 c -15.5,-0.48038 -24.21,-11.26448 -4.77,-5.51252 2.68,1.30347 12.29,4.85116 4.77,5.51252 z m -35.13,-5.92229 c 5.02,-11.5828 27.14,-15.44709 36.41,-5.30438 2.41,10.78559 -16.6,-5.02425 -23.04,4.98667 -4.22,-1.81096 -9.81,1.489 -13.37,0.31771 z m 298.05,-0.25347 c -14.43,-5.61289 18.28,-3.03282 0,0 z m -342.92,-4.80617 c -2.67,-25.09822 50.17,-15.8796 13.97,-7.89807 -6.21,-0.20892 -15.39,18.292 -13.97,7.89807 z m 338.68,-2.44051 c 9.01,-19.78992 14.52,5.05947 0,0 z m -310.84,-3.05756 c -5.88,-5.20261 10.51,-18.33281 16.02,-21.76 9.54,-2.17393 40.13,6.62137 19.14,13.97878 -14.51,-6.15153 -23.56,3.54678 -35.16,7.78122 z m 101.98,0.10667 c -1.91,-7.88944 -15.78,-24.94304 -6.92,-26.02667 10.73,-0.65054 22.09,22.27172 6.92,26.02667 z m 194.23,-1.97187 c -17.48,-8.663 -25.83,-37.89199 -8.61,-16.64147 0.82,4.08054 14.67,15.51158 8.61,16.64147 z m -324.05,-9.86334 c -6.14,-17.41404 32.18,-18.46101 28.93,-11.63125 -5.83,4.3325 -32.17,22.78123 -28.93,11.63125 z m 162.37,7.74822 c -9.9,-6.39247 -23.24,-2.23701 -25.41,-17.16101 5.69,-14.13648 32.99,1.21041 28.02,16.92472 0.46,1.48703 -2.34,0.23567 -2.61,0.23629 z m 179.2,-2.46801 c 5.44,-15.45107 13.22,-3.96673 0,0 z m -14.29,-0.90376 c -4.41,-8.27172 -19.48,-22.67165 0.72,-18.5677 -1.28,4.55819 4.53,19.1856 -0.72,18.5677 z m -243.7,-2.40201 c -11.56,-0.33118 -14.21,-15.45076 -27.26,-13.28569 -2.35,-4.46973 23.74,-5.87527 25.37,6.54819 1.78,1.55663 7.1,8.62355 1.89,6.7375 z m -61.1,-4.21762 c 0.95,-12.05102 36.09,-15.20007 21.57,-9.86807 -9.52,0.80445 -10.82,14.16562 -21.57,9.86807 z m 318.54,-10e-4 c 3.12,-17.01904 14.46,-11.67938 0,0 z m -4.8,-0.96 c 0.12,-19.13009 11.03,-9.11524 0,0 z m -221.24,-4.29847 c -17.34,-1.18236 -21.19,-8.91557 0.98,-5.90348 1.23,1.49172 5.42,10.63939 -0.98,5.90348 z m 186.14,1.4718 c -16.09,-6.31353 -9.09,-14.01567 1.49,0.32001 l -0.67,0.44913 z m 30.75,-3.47777 c -2.94,-12.35268 5.3,1.17154 0,0 z"
     id="path6506-1"
     inkscape:connector-curvature="0"
     sodipodi:nodetypes="ccccccccccccccccccccccccccccccccccccccccccccccccccccccccccccccccccccccccccccccccccccccccccccccccccccccccccccccccccccccccccccccccccccccccccccccccccccccccccccccccccccccccccccccccccccccccccccccccccccccccccccccccccccccccccccccccccccccccccccccccccccccccccccccccccccccccccccccccccccccccccccccccccccccccccccccccccccccccccccccccccccccccccccccccccccccccccccccccccccccccccccccccccccccccccccccccccccccscccccccccccccccccccccccccccccccccccccccccccccccccccccccccccccccccccccccccccccccccccccccccccccccccccccccccccccccccccccccccccccccccccccccccccccccccccccccccccccccccccccccccccccccccccccccccccccccccccccccccccccccccccccccccccccccccccccccccccccccccccccccccccccccccccccccccccccccccccccccccccccccccccccccccccccccccccccccccccccccccccccccccccccccccccccccccccccccccccccccccccccccccccccccccccccccccccccccccccccccccccccccccccccccccccccccccccccccccccccccccccccccccccccccccccccccccccccccccccccccc" />
</svg>
