<?xml version="1.0" encoding="UTF-8" standalone="no"?>
<!-- Created with Inkscape (http://www.inkscape.org/) -->

<svg
   xmlns:dc="http://purl.org/dc/elements/1.1/"
   xmlns:cc="http://creativecommons.org/ns#"
   xmlns:rdf="http://www.w3.org/1999/02/22-rdf-syntax-ns#"
   xmlns:svg="http://www.w3.org/2000/svg"
   xmlns="http://www.w3.org/2000/svg"
   xmlns:sodipodi="http://sodipodi.sourceforge.net/DTD/sodipodi-0.dtd"
   xmlns:inkscape="http://www.inkscape.org/namespaces/inkscape"
   width="29mm"
   height="45.099998mm"
   viewBox="0 0 29 45.099998"
   version="1.1"
   id="svg9840"
   inkscape:version="0.92.3 (2405546, 2018-03-11)"
   sodipodi:docname="Leanne Earing.svg">
  <defs
     id="defs9834" />
  <sodipodi:namedview
     id="base"
     pagecolor="#ffffff"
     bordercolor="#666666"
     borderopacity="1.0"
     inkscape:pageopacity="0.0"
     inkscape:pageshadow="2"
     inkscape:zoom="3.959798"
     inkscape:cx="56.610081"
     inkscape:cy="93.416518"
     inkscape:document-units="mm"
     inkscape:current-layer="layer1"
     showgrid="false"
     inkscape:window-width="1920"
     inkscape:window-height="1137"
     inkscape:window-x="-8"
     inkscape:window-y="-8"
     inkscape:window-maximized="1" />
  <metadata
     id="metadata9837">
    <rdf:RDF>
      <cc:Work
         rdf:about="">
        <dc:format>image/svg+xml</dc:format>
        <dc:type
           rdf:resource="http://purl.org/dc/dcmitype/StillImage" />
        <dc:title></dc:title>
      </cc:Work>
    </rdf:RDF>
  </metadata>
  <g
     inkscape:label="Layer 1"
     inkscape:groupmode="layer"
     id="layer1"
     transform="translate(0,-251.9)">
    <path
       style="fill:none;stroke:#ff0000;stroke-width:0.13680381"
       d="m 14.546678,252.05918 c -0.60156,0.005 -1.33966,0.4213 -1.5586,0.84961 -0.34071,0.66654 -0.38756,1.18458 -0.16601,1.8125 0.34419,0.97554 0.29607,1.09471 -0.91407,2.27148 -1.54717,1.50451 -4.2413304,4.57713 -5.0859304,5.80078 -2.02622,2.9356 -2.61252,3.85898 -3.21875,5.0586 -0.3654,0.72307 -0.79078,1.56036 -0.94532,1.86133 -0.90341,1.75937 -1.80992003,4.52283 -2.30859003,7.04492 -0.33314,1.68464 -0.3627,2.10635 -0.3457,4.81055 0.0169,2.6915 0.0519,3.10217 0.37695,4.44726 0.4553,1.88394 0.96673003,3.354 1.45703003,4.1875 1.97821,3.36289 5.19145,5.51127 9.8261704,6.56836 1.78546,0.40722 4.74403,0.25523 6.77149,-0.34766 2.98703,-0.88823 5.08847,-2.32713 6.8418,-4.68554 0.84225,-1.13292 1.13107,-1.66009 1.75976,-3.21485 0.80155,-1.98226 1.19078,-5.33271 0.90625,-7.79883 -0.0738,-0.63955 -0.19147,-1.68465 -0.25977,-2.32421 -0.27919,-2.61454 -1.49456,-6.338 -2.91992,-8.94532 -0.28335,-0.51831 -0.51653,-1.0121 -0.51953,-1.0957 -0.01,-0.35589 -2.06524,-4.1586 -2.99609,-5.54297 -0.4562,-0.67847 -0.83008,-1.26408 -0.83008,-1.30078 0,-0.0366 -0.14057,-0.21682 -0.3125,-0.40234 -0.17193,-0.18551 -0.40097,-0.51318 -0.50977,-0.72657 -0.24114,-0.47291 -0.94055,-1.38386 -1.77148,-2.30859 -0.34117,-0.37968 -0.82017,-0.93493 -1.06445,-1.23242 -0.24428,-0.2975 -0.52618,-0.63323 -0.62696,-0.7461 -0.34942,-0.39129 -0.37258,-0.53609 -0.16406,-1.03515 0.2657,-0.63513 0.24651,-1.52157 0.0801,-1.94922 -0.27668,-0.6552 -0.62181,-0.95734 -1.50195,-1.05664 z m 0.53906,0.96484 c 0.37999,0.32336 0.32984,0.59065 0.17383,1.17578 -0.30089,0.50937 -0.94479,0.54634 -1.38282,0.0801 -0.32787,-0.34901 -0.39351,-0.94239 -0.12695,-1.15234 0.34569,-0.27229 0.92302,-0.31704 1.33594,-0.10352 z m -0.63672,3.625 c 0.34622,0 1.5174,1.17351 1.73828,1.74219 0.18529,0.47703 0.0193,0.7473 -0.4043,0.6543 -0.25883,-0.0568 -0.49416,0.0198 -0.83007,0.26758 -0.25786,0.19024 -0.47257,0.34284 -0.47657,0.33984 -0.004,-0.003 -0.22297,-0.19287 -0.48632,-0.42188 -0.26335,-0.229 -0.61782,-0.47206 -0.78711,-0.53906 -0.1693,-0.067 -0.3086,-0.18321 -0.3086,-0.25781 0,-0.0746 0.27665,-0.44689 0.61524,-0.82813 0.33859,-0.38123 0.61718,-0.75347 0.61718,-0.82617 0,-0.0727 0.14416,-0.13086 0.32227,-0.13086 z m -1.37305,3.00977 c 0.2137,0 0.50196,0.48178 0.50196,0.83984 0,0.39204 -0.0227,0.40999 -0.51172,0.36719 -0.42819,-0.0375 -0.51838,1.5e-4 -0.54688,0.22852 -0.0499,0.39917 0.37917,0.8708 0.88282,0.9707 0.38876,0.0771 0.44699,0.0469 0.52539,-0.26563 0.0486,-0.19371 0.18302,-0.43124 0.29882,-0.52734 0.17667,-0.14662 0.2465,-0.11886 0.43164,0.16406 0.40333,0.61632 0.66266,0.80396 0.9961,0.72266 0.49154,-0.11987 0.79687,-0.4526 0.79687,-0.8711 0,-0.36101 -0.0291,-0.38006 -0.58008,-0.35546 -0.52006,0.0232 -0.587,-0.01 -0.6289,-0.30664 -0.0555,-0.39276 0.42289,-0.82313 0.91992,-0.82813 0.50881,-0.005 1.24805,0.86019 1.24805,1.46094 0,0.51911 -0.14511,0.68572 -2.02344,2.33203 -0.89548,0.78486 -1.33384,0.90102 -1.52344,0.40234 -0.11875,-0.31234 -1.57629,-1.73632 -1.77734,-1.73632 -0.15705,-10e-6 -0.42188,-0.6517 -0.42188,-1.03907 0,-0.54293 0.35795,-1.09335 0.86914,-1.33593 0.25922,-0.12301 0.50327,-0.22266 0.54297,-0.22266 z m -2.68945,2.11133 c 0.16792,-0.0794 0.32908,0.0213 0.51758,0.28515 0.15474,0.2166 0.5151,0.62947 0.80273,0.91797 0.28763,0.28849 0.49895,0.59971 0.46875,0.69141 -0.0334,0.10115 -0.39184,0.18213 -0.91211,0.20703 -0.93282,0.0447 -1.25628,0.23613 -1.5058604,0.89258 -0.22111,0.58156 -0.17994,0.85334 0.20313,1.30859 0.2963204,0.35212 0.4173604,0.40299 0.7871104,0.33399 0.60569,-0.11303 0.66468,-0.20107 0.43359,-0.64649 -0.27234,-0.525 -0.25459,-0.73158 0.0742,-0.83594 0.67761,-0.21506 1.77539,0.37999 1.77539,0.96289 0,0.51585 -0.7022,1.20739 -1.42383,1.40039 -0.8192,0.21912 -1.33244,0.18889 -2.3378904,-0.13476 -1.21649,-0.39159 -1.71003,-0.63045 -1.70703,-0.82422 0.002,-0.14694 0.564,-1.0888 0.91992,-1.54102 0.35475,-0.45072 1.04929,-1.59801 1.34571,-2.2246 0.2150704,-0.45461 0.3906704,-0.71359 0.5585904,-0.79297 z m 8.1875,0.21289 c 0.10201,0 0.3866,0.41595 0.63086,0.92383 0.24426,0.50788 0.53003,1.02707 0.63672,1.15429 0.19109,0.22789 0.6237,0.9942 1.35547,2.40235 0.44577,0.85779 0.39128,0.94654 -0.73242,1.21093 -0.76271,0.1795 -2.43126,0.23337 -2.96485,0.0957 -0.31001,-0.08 -1.21069,-0.68273 -1.35156,-0.9043 -0.0569,-0.0895 -0.10447,-0.38381 -0.10547,-0.6543 -0.002,-0.58474 0.31499,-0.92234 0.93164,-0.99414 0.6613,-0.077 0.91406,0.1889 0.91406,0.96289 0,0.61281 0.0243,0.66016 0.3418,0.66016 0.26119,0 0.40271,-0.12411 0.59961,-0.52734 0.22733,-0.46549 0.23847,-0.61397 0.0957,-1.25196 -0.18632,-0.83255 -0.52523,-1.06266 -1.48828,-1.00586 -0.31176,0.0184 -0.60108,3.9e-4 -0.64258,-0.041 -0.14469,-0.14471 0.0762,-0.46055 0.54883,-0.78321 0.26192,-0.17882 0.6029,-0.53133 0.75977,-0.78515 0.15686,-0.25382 0.36869,-0.46289 0.4707,-0.46289 z m -12.0214804,6.05078 c 0.16793,-0.0687 0.33153,-0.0283 0.40234,0.15625 0.0725,0.18898 0.50159,0.34557 2.07617,0.76367 0.93811,0.24909 2.1719004,-0.0288 3.2070304,-0.72461 0.51444,-0.3458 0.71145,-0.18176 0.4336,0.36328 -0.21932,0.43021 -0.94705,1.17619 -2.1211,2.17774 -0.7228104,0.61661 -1.1276304,0.65762 -1.4121104,0.14062 -0.48391,-0.8794 -0.93826,-1.2445 -1.67187,-1.34179 -0.523,-0.0694 -0.81688,-0.0355 -1.14649,0.1289 -0.56126,0.27947 -0.79839,0.27913 -0.90625,-0.002 -0.0549,-0.14297 0.0298,-0.31151 0.23829,-0.46875 0.17858,-0.13471 0.39451,-0.44854 0.47851,-0.69922 0.0829,-0.24744 0.25394,-0.42542 0.42188,-0.49414 z m 7.6308504,0.28516 c 0.0817,0.0272 0.24217,0.28922 0.35743,0.58398 0.35948,0.91929 0.97345,1.7385 1.88672,2.51953 0.4839,0.41383 1.10883,0.95284 1.39062,1.19727 0.82769,0.71795 1.04697,2.0581 0.4707,2.88086 -0.11747,0.1677 -0.45309,0.42669 -0.74609,0.57617 -0.68453,0.34923 -1.23552,0.34493 -1.69141,-0.0137 -0.46068,-0.36237 -0.80553,-1.02304 -0.70312,-1.34571 0.2406,-0.75807 1.28683,-0.84744 1.58203,-0.13476 0.17525,0.42309 0.38664,0.49813 0.65234,0.23242 0.39523,-0.39522 0.0112,-1.53922 -0.64648,-1.92774 -0.78884,-0.46598 -1.74676,-0.15983 -2.19141,0.69922 -0.23213,0.44847 -0.70628,0.34445 -0.96875,-0.21289 -0.3311,-0.70303 -0.72166,-0.90339 -1.54882,-0.79492 -0.38851,0.051 -0.83428,0.17666 -0.99219,0.2793 -0.38892,0.25282 -0.68378,1.30446 -0.47461,1.69531 0.22467,0.41979 0.62959,0.36407 0.82812,-0.11523 0.35571,-0.85874 1.36914,-0.57272 1.36914,0.38671 0,0.66327 -0.33965,0.98678 -1.13281,1.07618 -0.74924,0.0845 -1.6423104,-0.33763 -1.9414104,-0.91602 -0.23445,-0.45343 -0.27143,-1.19839 -0.082,-1.67187 0.18044,-0.45111 1.0784504,-1.36747 1.7207104,-1.75586 1.10901,-0.67064 2.12617,-1.54955 2.20117,-1.90235 0.13397,-0.63022 0.50824,-1.38643 0.66015,-1.33593 z m 1.57618,0.18554 c 0.14721,-0.14722 0.32295,-0.0763 1.30859,0.52735 0.46748,0.28627 0.71732,0.33589 1.71875,0.33789 1.18652,0.002 2.37697,-0.25322 2.97656,-0.63672 0.43795,-0.2801 0.62741,-0.16992 0.82227,0.48047 0.0916,0.30565 0.22648,0.59472 0.30078,0.64062 0.0743,0.0459 0.22835,0.30465 0.3418,0.57617 0.24178,0.57864 0.0798,0.89394 -0.31641,0.61524 -1.04599,-0.7358 -1.35535,-0.85373 -1.99805,-0.76563 -0.77082,0.10565 -1.2287,0.43687 -1.5957,1.15625 -0.14991,0.29385 -0.36138,0.53516 -0.4707,0.53516 -0.20612,0 -0.93908,-0.62815 -2.22266,-1.90625 -0.80041,-0.79695 -1.09533,-1.33046 -0.86523,-1.56055 z m -8.8496104,2.10352 c 0.88951,-0.007 1.19726,0.30888 1.19726,1.22851 0,0.62194 -0.0414,0.7092 -0.42968,0.94532 -0.54002,0.3284 -0.77473,0.23989 -0.82813,-0.31055 -0.0318,-0.32777 -0.10929,-0.43164 -0.31641,-0.43164 -0.24081,0 -0.27343,0.0902 -0.27343,0.75976 0,0.54162 -0.0678,0.83052 -0.23828,1.00196 -0.25237,0.25386 -0.29501,0.46968 -0.15821,0.82617 0.12589,0.32809 0.54229,0.25873 0.79883,-0.13281 0.17517,-0.26737 0.29922,-0.32766 0.5293,-0.25586 0.3878,0.12097 0.5,0.30544 0.5,0.81054 0,0.22574 -0.0443,0.47876 -0.0996,0.56446 -0.12487,0.19354 -0.98652,0.43712 -1.26367,0.35742 -0.74707,-0.21496 -1.11116,-0.49659 -1.36719,-1.0586 -0.54633,-1.19928 -0.1715,-3.03831 0.78711,-3.86132 0.41748,-0.35841 0.63214,-0.43936 1.16211,-0.44336 z m 14.1191404,0.58594 c 0.82972,-0.10282 1.98067,0.70008 2.40039,1.90234 0.331,0.94807 0.3384,1.23384 0.0527,2.07226 -0.16852,0.49455 -0.35539,0.73189 -0.7832,1.00196 -1.2489,0.7884 -2.31034,0.49151 -2.33594,-0.6543 -0.013,-0.58156 0.004,-0.60618 0.41992,-0.64648 0.3248,-0.0315 0.51432,0.0491 0.76758,0.32226 0.41705,0.44973 0.83643,0.40584 0.89453,-0.0937 0.0295,-0.25373 -0.0617,-0.44051 -0.30859,-0.63476 -0.35924,-0.28258 -0.45471,-0.63376 -0.21289,-0.78321 0.1513,-0.0935 0.18449,-0.74573 0.0547,-1.08398 -0.13683,-0.35658 -0.72016,-0.2702 -0.81836,0.12109 -0.0834,0.33238 -0.48865,0.57236 -0.72266,0.42774 -0.24665,-0.15245 -0.30901,-1.19587 -0.0918,-1.52735 0.16639,-0.25393 0.40703,-0.38955 0.6836,-0.42382 z m -17.8906304,2.82421 c 0.11212,-0.12632 0.23367,-0.12053 0.37891,0 0.11601,0.0963 0.21094,0.27699 0.21094,0.40235 0,0.12537 0.12295,0.47045 0.27343,0.76562 0.38149,0.74825 0.35653,0.79998 -0.33593,0.70508 -0.34518,-0.0473 -0.64471,-0.0247 -0.69141,0.0508 -0.0453,0.0734 -0.17834,0.13281 -0.29492,0.13281 -0.15429,0 -0.1879,-0.0846 -0.125,-0.30859 0.0476,-0.1693 0.16406,-0.59992 0.25976,-0.95703 0.10918,-0.40718 0.21211,-0.66469 0.32422,-0.79102 z m 21.7480504,0.82422 c 0.23273,0 0.33824,0.10014 0.40234,0.37696 0.0479,0.20691 0.17861,0.66885 0.29102,1.02539 0.11244,0.35654 0.1686,0.73979 0.125,0.85351 -0.10002,0.26064 -0.18244,0.2531 -0.76953,-0.0742 -0.26218,-0.14616 -0.5859,-0.26562 -0.71875,-0.26562 -0.26652,0 -0.33126,-0.50878 -0.11914,-0.92578 0.0665,-0.13065 0.20017,-0.40637 0.29687,-0.61328 0.11744,-0.25121 0.28099,-0.37696 0.49219,-0.37696 z m -11.01367,0.87696 c 0.66578,-0.11464 0.5521,0.57154 0.9149,0.95191 l 0.52325,0.28972 c 0.0636,0.0265 0.32865,0.16877 0.37435,0.28766 0.0609,0.15862 -0.0635,0.27397 -0.46485,0.43164 -0.30093,0.11821 -0.54878,0.25188 -0.55078,0.29688 -0.002,0.045 -0.10828,0.21641 -0.23828,0.38281 -0.22575,0.28896 -0.25095,0.29199 -0.5332,0.0684 -0.16254,-0.12878 -0.3162,-0.3517 -0.3418,-0.49609 -0.0256,-0.1444 -0.23131,-0.3652 -0.45703,-0.49024 -0.58443,-0.32376 -0.60191,-0.64325 -0.043,-0.78711 0.3571,-0.0919 0.46335,-0.19773 0.49805,-0.49414 0.0375,-0.32057 0.13688,-0.46856 0.31839,-0.44144 z m -5.8144604,1.23828 c 0.5877,0.006 0.66949,0.0435 0.70899,0.32226 0.0246,0.17344 -0.0369,0.41096 -0.13672,0.5293 -0.0998,0.11835 -0.27386,0.49555 -0.38672,0.83789 -0.28811,0.87369 -0.50102,0.87441 -0.60937,0 -0.0494,-0.39876 -0.15728,-0.85922 -0.23828,-1.02344 -0.24527,-0.4971 -0.0697,-0.67301 0.6621,-0.66601 z m -3.65429,0.21093 c 1.55005,4.3e-4 2.26562,0.75697 2.26562,2.39454 0,1.07561 -0.30265,1.67886 -1.0332,2.05664 -0.2179,0.11269 -0.75102,0.2393 -1.18555,0.2832 -0.68439,0.0691 -0.83183,0.0411 -1.09961,-0.21289 -0.24759,-0.23488 -0.28049,-0.34664 -0.16601,-0.56055 0.11155,-0.20846 0.28766,-0.26758 0.80469,-0.26758 0.36526,0 0.72478,-0.0756 0.80078,-0.16992 0.18459,-0.22908 -0.009,-0.70492 -0.39649,-0.97656 l -0.31054,-0.2168 0.30859,-0.28906 c 0.22109,-0.20595 0.29758,-0.40977 0.26758,-0.71875 -0.0409,-0.42148 -0.0586,-0.43359 -0.72266,-0.43359 -0.56391,0 -0.68922,-0.0446 -0.73242,-0.26368 -0.0789,-0.3995 0.35267,-0.62527 1.19922,-0.625 z m 19.4414004,0.32618 c 0.25384,-0.0241 0.46287,0.0485 0.64258,0.21679 0.57184,0.53564 0.27632,1.17399 -0.38086,0.82227 -0.23662,-0.1266 -0.33714,-0.12184 -0.47851,0.0234 -0.26229,0.26955 -0.088,0.91443 0.30273,1.11914 l 0.33203,0.17578 -0.29492,0.37304 c -0.16221,0.20624 -0.30365,0.57326 -0.31445,0.81446 -0.0194,0.43657 -0.017,0.43945 0.64648,0.43945 0.80219,0 1.05213,0.25267 0.79883,0.80859 -0.1458,0.32002 -0.23276,0.35357 -0.94922,0.35157 -0.63502,-0.001 -0.87566,-0.0691 -1.22656,-0.34571 -0.60019,-0.47308 -0.86328,-1.06464 -0.86328,-1.94336 0,-1.18733 0.34315,-2.15912 0.8789,-2.49023 0.35464,-0.21917 0.65242,-0.34108 0.90625,-0.36523 z m -3.19531,0.0859 c 0.90956,0.246 0.90122,0.23292 0.60352,0.79493 -0.14655,0.27666 -0.29985,0.6576 -0.33985,0.8457 -0.04,0.18811 -0.16268,0.46475 -0.27343,0.61523 -0.16455,0.22356 -0.21418,0.23604 -0.26758,0.0684 -0.82327,-2.58395 -0.81926,-2.6208 0.27734,-2.32422 z m -3.73633,0.68946 c 0.31303,-0.054 0.63299,0.0367 1.00196,0.26172 1.581,0.96399 1.29547,3.59697 -0.48828,4.51171 -0.27359,0.1403 -0.65174,0.37789 -0.83985,0.5293 -1.27287,1.02454 -1.78486,1.54953 -2.13281,2.17969 -0.21796,0.39476 -0.42724,0.7178 -0.46484,0.7168 -0.19681,-0.005 -0.95694,-0.94488 -0.96094,-1.18946 -0.002,-0.098 -0.52826,-0.68451 -2.43164,-2.70703 -0.9521304,-1.01173 -1.1230504,-1.33453 -1.1230504,-2.12305 0,-1.3666 0.5424504,-1.92747 1.9492204,-2.01757 1.21803,-0.078 1.58401,0.14021 1.70117,1.01367 0.13828,1.031 -0.76539,1.45942 -1.28906,0.61133 -0.31709,-0.51354 -0.55826,-0.68137 -0.86328,-0.60157 -0.22325,0.0584 -0.26563,0.19105 -0.26563,0.80469 0,0.71058 0.0175,0.74746 0.57032,1.11328 0.44375,0.29366 0.7333,0.37891 1.29687,0.37891 0.67222,0 0.75675,-0.0385 1.14844,-0.51367 0.52487,-0.63674 0.7914,-0.64353 1.20703,-0.0332 0.59231,0.86976 1.88915,0.96295 2.54492,0.1836 0.45006,-0.53486 0.55337,-0.98221 0.34375,-1.48828 -0.3269,-0.78921 -1.23047,-0.62869 -1.23047,0.21875 0,0.16452 -0.0946,0.37801 -0.21094,0.47461 -0.17533,0.14549 -0.27543,0.12828 -0.58203,-0.0996 -0.60181,-0.4473 -0.55774,-0.91491 0.15039,-1.62305 0.34884,-0.34883 0.65573,-0.54755 0.96875,-0.60156 z m -14.8203104,0.43359 c 0.23865,-0.0453 1.15625,0.52836 1.15625,0.72266 0,0.0692 -0.20918,0.26716 -0.46484,0.43945 -0.25567,0.1723 -0.58132,0.3125 -0.72461,0.3125 -0.22818,0 -0.25495,-0.0886 -0.21875,-0.7168 0.0298,-0.51653 0.0991,-0.72881 0.25195,-0.75781 z m 23.4785204,0.62305 c 0.29449,-0.26634 0.29591,-0.26667 0.45117,0.0234 0.0859,0.16044 0.13823,0.55093 0.11523,0.86719 -0.0556,0.76465 -0.36282,0.81327 -0.91406,0.14453 -0.3843,-0.46622 -0.40285,-0.52861 -0.1875,-0.64257 0.13093,-0.0693 0.37229,-0.2453 0.53516,-0.39258 z m -17.7988304,2.14062 c 0.20344,0.14833 0.29992,0.47642 0.41406,1.40235 0.29057,2.35727 -0.32246,3.57566 -2.13281,4.24218 -0.78665,0.28961 -1.8201,0.13479 -2.1543,-0.32226 -0.23529,-0.32182 -0.21582,-1.2051 0.0312,-1.41016 0.19975,-0.1658 0.91938,-0.13695 1.5293,0.0625 0.21898,0.0716 0.33531,0.0261 0.44336,-0.17578 0.33254,-0.62135 -0.55235,-1.66797 -1.41016,-1.66797 -0.56674,0 -1.2234,0.36259 -1.49609,0.82422 -0.13606,0.23032 -0.3578,0.4082 -0.50781,0.4082 -0.24358,0 -0.26563,-0.10432 -0.26563,-1.23242 0,-1.17483 0.0135,-1.23047 0.29883,-1.23047 0.16445,0 0.43926,0.13132 0.61133,0.29297 0.24422,0.22944 0.53638,0.30828 1.33203,0.35938 1.30914,0.084 2.05925,-0.23892 2.64453,-1.13867 0.36513,-0.56131 0.41745,-0.59245 0.66211,-0.41407 z m 12.5449204,0.39453 c 0.18914,-0.25524 0.48402,-0.0606 0.64453,0.42578 0.16788,0.50867 0.68828,1.03923 1.3457,1.3711 0.59453,0.30012 2.09328,0.22969 2.47657,-0.11719 0.14467,-0.13095 0.40653,-0.21826 0.58203,-0.19336 0.29957,0.0424 0.31687,0.0979 0.29297,0.92383 -0.0471,1.62403 -0.27344,1.88617 -0.91211,1.04883 -0.63876,-0.83746 -2.19337,-1.15364 -2.69531,-0.54883 -0.19941,0.24022 -0.19942,1.13652 0,1.33594 0.0892,0.0892 0.32161,0.0621 0.68359,-0.0801 0.5191,-0.20393 0.56832,-0.20191 0.89453,0.0547 0.64944,0.51085 0.33373,1.43163 -0.62305,1.81445 -0.67775,0.2712 -1.00751,0.261 -1.70312,-0.0488 -1.07414,-0.47843 -1.75995,-1.64161 -1.75195,-2.96875 0.004,-0.57846 0.54745,-2.72317 0.76562,-3.01758 z m -10.4921904,2.5586 c 0.1815104,-0.0108 0.4996604,0.18154 0.8867204,0.58008 1.24112,1.27794 2.09803,3.06642 1.79102,3.74023 l -0.15821,0.3457 -0.52148,-0.29297 c -1.00262,-0.56349 -1.71692,-0.13256 -1.8886704,1.13868 -0.0908,0.67188 0.1160004,1.32817 0.4179704,1.32617 0.0813,-5.1e-4 0.29365,-0.21568 0.47265,-0.47852 0.37031,-0.54376 0.77203,-0.61687 1.22657,-0.22265 0.1857,0.16105 0.29492,0.41638 0.29492,0.68945 0,0.54531 -0.56553,1.66526 -0.96094,1.9043 -0.16473,0.0996 -0.55329,0.20181 -0.86523,0.22851 -1.6595304,0.14189 -2.5943204,-1.32586 -1.8847704,-2.96289 0.28667,-0.66141 0.89362,-2.0171 1.18359,-2.64453 0.2157804,-0.46683 0.17835,-2.08701 -0.0625,-2.71484 -0.15812,-0.41218 -0.11314,-0.62591 0.0684,-0.63672 z m 7.7812504,0.27344 c 0.33029,0 0.34044,0.17584 0.0664,1.16406 -0.36485,1.31579 -0.33626,1.83179 0.22461,3.92187 0.67453,2.51362 0.57369,3.1644 -0.58985,3.78711 -0.16004,0.0857 -0.60192,0.1543 -0.98046,0.1543 -0.57345,0 -0.76664,-0.0693 -1.16602,-0.41992 -0.32516,-0.2855 -0.5073,-0.58291 -0.5625,-0.92383 -0.0448,-0.27641 -0.13432,-0.63437 -0.19922,-0.79492 -0.16012,-0.3964 0.18359,-0.8711 0.63086,-0.8711 0.48716,0 0.87305,0.24019 0.87305,0.54297 0,0.40828 0.38131,0.71556 0.68555,0.55274 0.71774,-0.38413 0.51869,-2.58492 -0.27149,-3.00782 -0.23864,-0.12772 -0.38132,-0.10519 -0.77148,0.125 -0.54415,0.32106 -0.86748,0.36137 -0.88868,0.11133 -0.0753,-0.88874 0.27261,-1.58378 1.45899,-2.92187 1.18622,-1.33794 1.27361,-1.41992 1.49023,-1.41992 z m -9.3222604,2.7539 c 0.15419,-0.0312 0.23242,0.0757 0.23242,0.32031 0,0.39145 -0.37223,1.41174 -0.625,1.71289 -0.21201,0.25259 -0.7369,1.78894 -0.86328,2.5293 -0.0548,0.3209 -0.17644,0.56028 -0.29492,0.58008 -0.27029,0.045 -2.15585,-2.06404 -2.63868,-2.95117 -0.33031,-0.60687 -0.35457,-0.71817 -0.16992,-0.78907 0.11839,-0.0454 0.36786,0.0156 0.55274,0.13672 0.18831,0.12335 0.61706,0.22071 0.97656,0.22071 0.70079,0 1.18784,-0.28453 2.14453,-1.25391 0.30158,-0.30557 0.53136,-0.47468 0.68555,-0.50586 z m 10.8496104,0.7461 c 0.10764,-0.28078 0.32617,-0.28093 0.32617,0 0,0.33375 0.90978,1.32281 1.4668,1.59374 0.62353,0.30325 1.65415,0.3124 2.07226,0.0195 0.21674,-0.1518 0.36013,-0.17698 0.45703,-0.0801 0.22019,0.22019 -0.4055,0.93651 -1.88476,2.15625 -0.72522,0.59799 -1.39774,1.132 -1.49414,1.1875 -0.29318,0.16861 -0.46994,-0.21429 -0.46094,-0.99805 0.0101,-0.90561 -0.12896,-1.71501 -0.37891,-2.20898 -0.19318,-0.38168 -0.24931,-1.28998 -0.10351,-1.66992 z m -5.86524,4.54296 0.30274,0.32227 c 0.42188,0.4472 1.15088,1.05277 1.06268,1.28266 -0.0407,0.10605 -0.61028,0.19022 -0.74432,0.17632 -0.13404,-0.0139 -0.56647,-0.0486 -0.96094,-0.0762 -0.53797,-0.0377 -0.7524,-0.11652 -0.85938,-0.3164 -0.10294,-0.1924 -0.098,-0.26758 0.0156,-0.26758 0.0866,0 0.38776,-0.25186 0.66992,-0.56055 z"
       id="path10407"
       inkscape:connector-curvature="0"
       sodipodi:nodetypes="ccccccccccccscccccccscccccccccccccccscccsccscsssscccccccscccscccsssccccccccccscccccccsscccccccssccccccscccccscccccccccccccccccccccccccsccccccccccccsccccscccsccssccccsccccccccccccccccccccccccscccscccccccccsccccccsccsscccccccccccccccsccccscccccsccccccccccscccsccccccccccccccccccsccccscscccssccccccscsccccccccccccccccscssscccccccccccccsccccccccccccccccsccccccsscccscccsscccccsccsccccccscccsccccccccccccsccsc" />
  </g>
</svg>
