<?xml version="1.0" encoding="UTF-8" standalone="no"?>
<!-- Created with Inkscape (http://www.inkscape.org/) -->

<svg
   xmlns:dc="http://purl.org/dc/elements/1.1/"
   xmlns:cc="http://creativecommons.org/ns#"
   xmlns:rdf="http://www.w3.org/1999/02/22-rdf-syntax-ns#"
   xmlns:svg="http://www.w3.org/2000/svg"
   xmlns="http://www.w3.org/2000/svg"
   xmlns:sodipodi="http://sodipodi.sourceforge.net/DTD/sodipodi-0.dtd"
   xmlns:inkscape="http://www.inkscape.org/namespaces/inkscape"
   width="10mm"
   height="10mm"
   viewBox="0 0 35.433071 35.433071"
   id="svg10964"
   version="1.1"
   inkscape:version="0.91 r13725"
   sodipodi:docname="Aperture Science.svg">
  <defs
     id="defs10966" />
  <sodipodi:namedview
     id="base"
     pagecolor="#ffffff"
     bordercolor="#666666"
     borderopacity="1.0"
     inkscape:pageopacity="0.0"
     inkscape:pageshadow="2"
     inkscape:zoom="11.2"
     inkscape:cx="16.132077"
     inkscape:cy="12.547105"
     inkscape:document-units="px"
     inkscape:current-layer="layer1"
     showgrid="false"
     inkscape:window-width="1920"
     inkscape:window-height="1137"
     inkscape:window-x="-8"
     inkscape:window-y="-8"
     inkscape:window-maximized="1" />
  <metadata
     id="metadata10969">
    <rdf:RDF>
      <cc:Work
         rdf:about="">
        <dc:format>image/svg+xml</dc:format>
        <dc:type
           rdf:resource="http://purl.org/dc/dcmitype/StillImage" />
        <dc:title></dc:title>
      </cc:Work>
    </rdf:RDF>
  </metadata>
  <g
     inkscape:label="Layer 1"
     inkscape:groupmode="layer"
     id="layer1"
     transform="translate(0,-1016.9291)">
    <g
       id="g11527"
       transform="translate(-6.2007881,0)">
      <path
         inkscape:connector-curvature="0"
         id="path11523"
         d="m 22.581912,1049.6502 c -1.02833,-0.089 -2.23827,-0.3376 -3.31949,-0.6821 -0.27468,-0.088 -0.50384,-0.1629 -0.50924,-0.1675 -0.009,-0.01 -0.99293,-3.5914 -1.64425,-5.9882 -0.143559,-0.5283 -0.249059,-0.9725 -0.234459,-0.9871 0.0147,-0.015 2.782409,1.5341 6.150649,3.4416 3.36825,1.9074 6.106001,3.4844 6.083891,3.5044 -0.072,0.065 -1.01957,0.3571 -1.670941,0.5149 -1.54666,0.3749 -3.25246,0.5027 -4.85616,0.364 z m -5.23139,-1.4409 c -2.310809,-1.1548 -4.282689,-2.825 -5.701189,-4.8287 -0.39377,-0.5563 -0.976601,-1.5231 -1.231811,-2.0434 l -0.16842,-0.3434 1.797811,-3.1459 c 0.98879,-1.7303 1.81269,-3.1293 1.83086,-3.109 0.0182,0.02 0.28589,0.955 0.59491,2.077 0.30901,1.122 0.91407,3.3111 1.34458,4.8647 1.662529,5.9993 1.822679,6.5855 1.808969,6.6219 -0.007,0.021 -0.13184,-0.021 -0.27571,-0.093 z m 9.74577,-1.7064 c -1.71789,-0.9833 -3.10682,-1.8024 -3.08652,-1.8202 0.0203,-0.018 1.57888,-0.458 3.46349,-0.9783 1.884611,-0.5204 4.919161,-1.3593 6.743451,-1.8642 1.82431,-0.505 3.33713,-0.9181 3.36184,-0.9181 0.051,0 -0.22039,0.5557 -0.57469,1.1769 -1.32448,2.3223 -3.31129,4.3089 -5.63322,5.6326 -0.51152,0.2916 -1.05516,0.5671 -1.11018,0.5626 -0.0224,0 -1.44627,-0.8079 -3.164171,-1.7913 z m 4.002821,-4.8676 c 0.0184,-0.048 0.78353,-1.4107 1.70035,-3.0286 0.91682,-1.6178 2.46398,-4.3481 3.43815,-6.0671 0.97416,-1.7191 1.78721,-3.1079 1.80677,-3.0862 0.0645,0.072 0.35723,1.0221 0.51429,1.67 0.65036,2.683 0.53897,5.5465 -0.31807,8.1772 -0.089,0.2733 -0.1652,0.5014 -0.16923,0.507 -0.007,0.011 -6.57566,1.8098 -6.85319,1.8775 -0.12863,0.031 -0.14724,0.024 -0.11907,-0.05 z m -21.3250907,-1.7986 c -0.0129,-0.022 -0.095,-0.2639 -0.18257,-0.5386 -0.97754,-3.0653 -0.97758,-6.2392 -1.2e-4,-9.3059 0.0876,-0.2746 0.16244,-0.5032 0.16642,-0.5079 0.0158,-0.019 6.9269707,-1.9007 6.9803107,-1.9007 0.0315,0 -0.16104,0.3825 -0.42782,0.85 -0.82925,1.4531 -5.918301,10.4403 -6.279341,11.0893 -0.2016497,0.3624 -0.2169297,0.3811 -0.2569097,0.3138 z m 24.1712207,-5.2796 c -0.0139,-0.023 -0.12427,-0.4075 -0.24509,-0.8535 -0.12084,-0.4459 -0.95926,-3.477 -1.86314,-6.7358 -0.9039,-3.2588 -1.64344,-5.9484 -1.64344,-5.9768 0,-0.1063 1.32472,0.6218 2.20983,1.2146 1.49527,1.0014 2.97337,2.4908 4.0134,4.0442 0.34972,0.5223 0.83458,1.3569 1.05012,1.8076 l 0.11403,0.2385 -1.78931,3.1354 c -0.98411,1.7245 -1.79643,3.1429 -1.80514,3.152 -0.009,0.01 -0.0273,0 -0.0412,-0.026 z m -23.528381,-6.6032 c 1.470881,-2.9251 3.946241,-5.4004 6.80485,-6.8046 l 0.34202,-0.168 3.14838,1.7963 c 1.73162,0.9879 3.13144,1.812 3.11071,1.8313 -0.0207,0.019 -0.2731,0.098 -0.56082,0.1751 -0.51181,0.1369 -2.06684,0.5671 -9.350819,2.587 -1.97796,0.5485 -3.620221,0.9972 -3.649471,0.9972 -0.0292,0 0.0405,-0.1864 0.15515,-0.4143 z m 19.488981,-1.042 c -3.041341,-1.731 -10.856271,-6.1523 -11.057301,-6.2558 -0.0968,-0.05 -0.15566,-0.1098 -0.13079,-0.1333 0.0249,-0.023 0.26999,-0.114 0.54467,-0.2011 3.05986,-0.9713 6.11688,-0.9801 9.211131,-0.026 l 0.60793,0.1873 0.1673,0.6082 c 0.50092,1.8211 1.67536,6.1208 1.70563,6.2443 0.0195,0.079 0.015,0.1435 -0.01,0.1432 -0.0247,-4e-4 -0.49218,-0.2553 -1.03887,-0.5664 z"
         style="fill:#000000" />
      <ellipse
         ry="17.227201"
         rx="17.2272"
         cy="1034.6456"
         cx="23.917322"
         id="path11525"
         style="opacity:1;fill:none;fill-opacity:1;stroke:#ff0000;stroke-width:0.97866893;stroke-linejoin:miter;stroke-miterlimit:4;stroke-dasharray:none;stroke-opacity:1" />
    </g>
  </g>
</svg>
