<?xml version="1.0" encoding="UTF-8" standalone="no"?>
<svg
   xmlns:dc="http://purl.org/dc/elements/1.1/"
   xmlns:cc="http://creativecommons.org/ns#"
   xmlns:rdf="http://www.w3.org/1999/02/22-rdf-syntax-ns#"
   xmlns:svg="http://www.w3.org/2000/svg"
   xmlns="http://www.w3.org/2000/svg"
   xmlns:sodipodi="http://sodipodi.sourceforge.net/DTD/sodipodi-0.dtd"
   xmlns:inkscape="http://www.inkscape.org/namespaces/inkscape"
   width="10mm"
   height="10mm"
   viewBox="0 0 19.456301 19.455364"
   id="svg6008"
   version="1.1"
   inkscape:version="0.91 r13725"
   sodipodi:docname="arduino.svg">
  <metadata
     id="metadata6058">
    <rdf:RDF>
      <cc:Work
         rdf:about="">
        <dc:format>image/svg+xml</dc:format>
        <dc:type
           rdf:resource="http://purl.org/dc/dcmitype/StillImage" />
        <dc:title></dc:title>
      </cc:Work>
    </rdf:RDF>
  </metadata>
  <defs
     id="defs6056" />
  <sodipodi:namedview
     pagecolor="#ffffff"
     bordercolor="#666666"
     borderopacity="1"
     objecttolerance="10"
     gridtolerance="10"
     guidetolerance="10"
     inkscape:pageopacity="0"
     inkscape:pageshadow="2"
     inkscape:window-width="1920"
     inkscape:window-height="1137"
     id="namedview6054"
     showgrid="false"
     units="mm"
     inkscape:zoom="16"
     inkscape:cx="6.7117499"
     inkscape:cy="18.428171"
     inkscape:window-x="-8"
     inkscape:window-y="-8"
     inkscape:window-maximized="1"
     inkscape:current-layer="svg6008" />
  <linearGradient
     id="a"
     gradientUnits="userSpaceOnUse"
     x1="-16.299999"
     y1="16.070999"
     x2="1354.901"
     y2="16.070999"
     gradientTransform="matrix(1,0,0,-1,16.8,702.696)">
    <stop
       offset=".117"
       stop-color="#fff"
       stop-opacity="0"
       id="stop6013" />
    <stop
       offset=".252"
       stop-color="#c0d1d3"
       stop-opacity=".153"
       id="stop6015" />
    <stop
       offset=".387"
       stop-color="#91b3b7"
       stop-opacity=".306"
       id="stop6017" />
    <stop
       offset=".52"
       stop-color="#6d9fa3"
       stop-opacity=".457"
       id="stop6019" />
    <stop
       offset=".65"
       stop-color="#4d9195"
       stop-opacity=".604"
       id="stop6021" />
    <stop
       offset=".776"
       stop-color="#30888b"
       stop-opacity=".746"
       id="stop6023" />
    <stop
       offset=".895"
       stop-color="#148386"
       stop-opacity=".881"
       id="stop6025" />
    <stop
       offset="1"
       stop-color="#008184"
       id="stop6027" />
  </linearGradient>
  <linearGradient
     id="b"
     gradientUnits="userSpaceOnUse"
     x1="-16.799999"
     y1="16.070999"
     x2="1355.401"
     y2="16.070999"
     gradientTransform="matrix(1,0,0,-1,16.8,702.696)">
    <stop
       offset="0"
       stop-color="#fff"
       stop-opacity="0"
       id="stop6030" />
    <stop
       offset=".153"
       stop-color="#c0d1d3"
       stop-opacity=".153"
       id="stop6032" />
    <stop
       offset=".306"
       stop-color="#91b3b7"
       stop-opacity=".306"
       id="stop6034" />
    <stop
       offset=".457"
       stop-color="#6d9fa3"
       stop-opacity=".457"
       id="stop6036" />
    <stop
       offset=".604"
       stop-color="#4d9195"
       stop-opacity=".604"
       id="stop6038" />
    <stop
       offset=".746"
       stop-color="#30888b"
       stop-opacity=".746"
       id="stop6040" />
    <stop
       offset=".881"
       stop-color="#148386"
       stop-opacity=".881"
       id="stop6042" />
    <stop
       offset="1"
       stop-color="#008184"
       id="stop6044" />
  </linearGradient>
  <path
     style="fill:none;stroke:#ff0000;stroke-width:0.01419488"
     d="m 9.5079223,19.448471 c -0.574763,-0.021 -0.9417931,-0.05599 -1.4029798,-0.13278 C 6.6159267,19.068129 5.1590337,18.449124 3.9466679,17.548763 2.5820855,16.535419 1.5056251,15.191026 0.83112337,13.657862 0.38774435,12.650017 0.12937033,11.640172 0.03838463,10.559539 0.01318862,10.260285 0.00715062,10.10011 0.00709762,9.729467 0.00704082,9.2933341 0.02010062,9.0356738 0.06162663,8.6538325 0.26966324,6.740827 1.0589076,4.9110086 2.3090878,3.4431346 2.4908089,3.2298674 2.5917759,3.1215841 2.8512016,2.861924 3.36273,2.3499029 3.7951637,1.9955574 4.3893978,1.601718 4.4845308,1.538728 4.5237521,1.514731 4.7299973,1.3902506 c 0.06859,-0.040994 0.1299704,-0.077988 0.1364008,-0.082987 0.00643,0 0.018707,-0.010998 0.02728,-0.014998 0.00858,0 0.069954,-0.036994 0.1364007,-0.073989 C 5.3049909,1.0654006 5.7521474,0.85263328 6.0628278,0.72685264 6.49325,0.55257947 6.9591196,0.40110278 7.3956581,0.29351934 7.5387004,0.25852473 7.7862935,0.20353319 7.8516263,0.19303481 c 0.032152,-0.009998 0.062287,-0.012998 0.066969,-0.0159975 0.00469,0 0.010181,-0.009998 0.012222,0 0.00204,0 0.029777,0 0.061638,-0.009998 0.031861,-0.009998 0.068449,-0.012998 0.081311,-0.0149977 0.01286,0 0.033905,-0.009998 0.046766,-0.009998 0.01286,0 0.032151,-0.009998 0.042869,-0.009998 0.010718,0 0.031762,-0.009998 0.046766,-0.009998 0.032623,-0.009998 0.06226,-0.009998 0.1080639,-0.0149977 0.01871,0 0.07307,-0.0099985 0.120812,-0.01599754 0.04774,-0.0099985 0.102578,-0.01399785 0.12187,-0.01599754 0.07129,-0.0099985 0.09817,-0.0099985 0.128605,-0.01399784 0.03709,0 0.08799,-0.0099985 0.1675791,-0.01599754 0.09159,-0.0099985 0.113863,-0.0099985 0.226036,-0.01499769 0.05787,0 0.110081,-0.0099985 0.116018,-0.0099985 0.02255,-0.0099985 0.374028,-0.0149977 0.632237,-0.012998 0.2729467,0 0.4494507,0.00999846 0.7092837,0.02999538 1.497094,0.1188817 2.963458,0.59840789 4.26941,1.39608516 1.285837,0.7853791 2.400432,1.8984078 3.206796,3.2023071 0.254382,0.4113366 0.534786,0.9666512 0.726113,1.4380786 0.356366,0.8780648 0.584149,1.8102214 0.667561,2.7319795 0.04694,0.5186202 0.05144,1.1805183 0.01145,1.68744 -0.117911,1.49517 -0.569224,2.913952 -1.338942,4.209052 -0.858847,1.445078 -2.132587,2.685687 -3.600336,3.50656 -1.21562,0.679796 -2.56943,1.092332 -3.953749,1.204715 -0.286725,0.023 -0.8041897,0.03899 -1.0210557,0.031 z"
     id="path6638"
     inkscape:connector-curvature="0" />
  <path
     style="fill:#000000;stroke:#000000;stroke-width:0.01419488"
     d="m 7.1891089,9.7372658 0,-0.3546455 -1.0873091,0 -1.0873089,0 0,0.3546455 0,0.3546452 1.0873089,0 1.0873091,0 0,-0.3546452 z"
     id="path6632"
     inkscape:connector-curvature="0" />
  <path
     id="path6630"
     style="fill:#000000;stroke:#000000;stroke-width:0.01419488"
     d="m 13.241404,11.964822 c -0.08343,-0.01 -0.231077,-0.02699 -0.339053,-0.04899 -0.804952,-0.164575 -1.564963,-0.749385 -2.187583,-1.683441 -0.0787,-0.118082 -0.198377,-0.3170507 -0.25788,-0.4287335 -0.03127,-0.058991 -0.03805,-0.077988 -0.03266,-0.090986 0.0037,-0.01 0.03623,-0.068989 0.07223,-0.1325795 0.36065,-0.6338025 0.808897,-1.1622212 1.289039,-1.5196661 0.426335,-0.3172512 0.880627,-0.5028226 1.369382,-0.5593139 0.127209,-0.014998 0.385841,-0.016997 0.523009,0 0.727123,0.06699 1.390032,0.4593293 1.777413,1.052238 0.201446,0.3083525 0.312078,0.6249038 0.347373,0.993747 0.01821,0.1902707 0.0019,0.45363 -0.04001,0.6462 -0.136316,0.626204 -0.569743,1.183618 -1.165037,1.49817 -0.28125,0.148677 -0.575973,0.237963 -0.898213,0.272158 -0.09672,0.01 -0.348341,0.014 -0.458,0.01 z m -7.4357887,10e-5 C 5.4770706,11.934927 5.2076968,11.860139 4.9170618,11.716861 4.7551576,11.636873 4.6036814,11.541888 4.4766823,11.440003 4.3800283,11.362015 4.2041268,11.188642 4.1357697,11.102955 3.8529015,10.74871 3.6953013,10.370568 3.6499344,9.937335 3.6360774,9.8049553 3.6444544,9.5042016 3.6653684,9.3831203 3.7163884,9.0877657 3.8352463,8.7882118 3.9995925,8.5407499 4.3911068,7.9514406 5.0532481,7.5618006 5.7744374,7.4964107 c 0.1158995,-0.010998 0.3706534,-0.010998 0.4774135,-4e-4 0.3690519,0.035995 0.7530687,0.1583757 1.0738994,0.3429473 0.2709089,0.1559759 0.4880945,0.3225503 0.7314764,0.5610136 0.3592755,0.3521458 0.6682855,0.7649823 0.9316106,1.2447084 l 0.04762,0.086987 -0.05346,0.095985 c -0.1622441,0.292654 -0.3367871,0.553314 -0.5396181,0.805775 -0.6512927,0.810576 -1.40815,1.264406 -2.2160559,1.328696 -0.093394,0.01 -0.3503976,0.01 -0.4217105,0 z m 0.6118549,1.225612 c 0.652588,-0.07299 1.2360637,-0.287456 1.7965929,-0.660998 0.5227681,-0.348347 1.0107142,-0.833772 1.4294222,-1.421882 l 0.08426,-0.118381 0.07102,0.102784 c 0.10128,0.146577 0.2765437,0.369743 0.4099277,0.522119 0.780485,0.891263 1.673623,1.410283 2.678068,1.556261 0.236137,0.034 0.366688,0.04199 0.629178,0.03699 0.353932,-0.01 0.644168,-0.04899 0.959476,-0.139278 0.232864,-0.06699 0.409581,-0.135879 0.632728,-0.247762 0.350197,-0.175473 0.628774,-0.373843 0.902988,-0.643001 0.572576,-0.561914 0.909477,-1.23421 1.015747,-2.027088 0.01562,-0.116582 0.01775,-0.1652744 0.01775,-0.4052374 0,-0.2922551 -0.0072,-0.3866405 -0.04681,-0.6135056 C 16.836537,8.2079012 16.292986,7.3886273 15.486171,6.8532097 14.983449,6.519561 14.409265,6.3190919 13.787008,6.260101 c -0.159192,-0.014998 -0.517269,-0.016997 -0.65862,0 -0.120515,0.010998 -0.292305,0.035994 -0.420894,0.059991 -0.644245,0.1211814 -1.281038,0.4271343 -1.839461,0.883664 -0.385643,0.3153515 -0.822805,0.7945777 -1.0983287,1.2039147 -0.02265,0.033995 -0.04396,0.057991 -0.04735,0.054992 -0.0034,0 -0.0492,-0.06599 -0.101768,-0.1390786 C 8.9132603,7.3431343 8.0502816,6.6861354 7.103047,6.4070784 6.876548,6.3400887 6.6160968,6.2897964 6.3684651,6.2645003 6.198641,6.2475029 5.8476669,6.2475029 5.659912,6.2651002 5.0406883,6.3230913 4.4512261,6.5294595 3.9544581,6.8622083 3.4414111,7.2058554 3.0255813,7.676283 2.7545063,8.2194994 2.4291598,8.871499 2.3264668,9.5837894 2.450695,10.326675 c 0.073694,0.440732 0.2603442,0.90676 0.5191496,1.2962 0.2525405,0.380042 0.6102248,0.732487 1.0086885,0.993947 0.2651832,0.174073 0.5858357,0.32795 0.8790862,0.421935 0.2476217,0.07899 0.5874963,0.145478 0.8622543,0.167674 0.1312325,0.011 0.5650335,0 0.6975926,-0.011 z"
     inkscape:connector-curvature="0" />
  <path
     style="fill:#000000;stroke:#000000;stroke-width:0.01419488"
     d="m 13.687707,10.456355 0.002,-0.364344 0.364308,0 0.364307,0 0,-0.3507459 0,-0.350746 -0.364307,0 -0.364308,0 -0.002,-0.3643439 -0.002,-0.3642439 -0.352693,0 -0.352693,0 0,0.3664436 0,0.3664436 -0.366334,0 -0.366334,0 0,0.3546454 0,0.3546451 0.366334,0 0.366334,0 0,0.366344 0,0.366443 0.352693,0 0.352693,0 0.002,-0.364344 z"
     id="path6628"
     inkscape:connector-curvature="0" />
</svg>
