<?xml version="1.0" encoding="UTF-8" standalone="no"?>
<!-- Created with Inkscape (http://www.inkscape.org/) -->

<svg
   xmlns:dc="http://purl.org/dc/elements/1.1/"
   xmlns:cc="http://creativecommons.org/ns#"
   xmlns:rdf="http://www.w3.org/1999/02/22-rdf-syntax-ns#"
   xmlns:svg="http://www.w3.org/2000/svg"
   xmlns="http://www.w3.org/2000/svg"
   xmlns:sodipodi="http://sodipodi.sourceforge.net/DTD/sodipodi-0.dtd"
   xmlns:inkscape="http://www.inkscape.org/namespaces/inkscape"
   width="15mm"
   height="15mm"
   viewBox="0 0 53.149606 53.149606"
   id="svg6643"
   version="1.1"
   inkscape:version="0.91 r13725"
   sodipodi:docname="Batman.svg">
  <defs
     id="defs6645" />
  <sodipodi:namedview
     id="base"
     pagecolor="#ffffff"
     bordercolor="#666666"
     borderopacity="1.0"
     inkscape:pageopacity="0.0"
     inkscape:pageshadow="2"
     inkscape:zoom="15.839192"
     inkscape:cx="17.260245"
     inkscape:cy="26.780231"
     inkscape:document-units="px"
     inkscape:current-layer="layer1"
     showgrid="false"
     inkscape:window-width="1920"
     inkscape:window-height="1137"
     inkscape:window-x="-8"
     inkscape:window-y="-8"
     inkscape:window-maximized="1" />
  <metadata
     id="metadata6648">
    <rdf:RDF>
      <cc:Work
         rdf:about="">
        <dc:format>image/svg+xml</dc:format>
        <dc:type
           rdf:resource="http://purl.org/dc/dcmitype/StillImage" />
        <dc:title></dc:title>
      </cc:Work>
    </rdf:RDF>
  </metadata>
  <g
     inkscape:label="Layer 1"
     inkscape:groupmode="layer"
     id="layer1"
     transform="translate(0,-999.21256)">
    <g
       id="g7221"
       transform="matrix(0.06175942,0,0,0.06175837,2.9981923,1001.396)">
      <path
         id="path7217"
         d="m 427.21428,528.44919 c 51.64537,-5.46282 93.61404,-16.15689 133.87035,-34.1116 25.33776,-11.3009 51.60088,-28.52342 65.70443,-43.0869 17.73165,-18.30989 26.78125,-33.17089 31.01993,-50.94008 1.82397,-7.64637 2.05076,-10.95645 1.63593,-23.87699 -0.64705,-20.15353 -3.76996,-29.45762 -16.04913,-47.81517 -30.30279,-45.30317 -102.09745,-80.47626 -192.18151,-94.1521 -41.89998,-6.36092 -98.31277,-7.17289 -140.67408,-2.02477 -83.90654,10.19705 -154.46556,39.1526 -192.83309,79.13357 -22.507061,23.45353 -31.962839,45.71921 -30.704332,72.30001 1.047892,22.13241 8.594695,39.21443 26.946642,60.99312 20.14896,23.91126 65.41668,50.13728 111.26486,64.46173 34.70385,10.84259 64.59563,16.52857 108,20.54361 14.99254,1.38686 76.18929,0.45951 94,-1.42443 z"
         style="fill:none;stroke:#ff0000"
         inkscape:connector-curvature="0" />
      <path
         id="path7213"
         d="m 370.43822,496.75164 c -1.34205,-2.37491 -6.15362,-11.27616 -10.69238,-19.78056 -15.33681,-28.73697 -26.43252,-44.65852 -35.79303,-51.3604 -3.2594,-2.33364 -5.61911,-3.1493 -10.03506,-3.46872 -5.3187,-0.38472 -6.12014,-0.15331 -10.17195,2.9371 -2.41909,1.84511 -6.22831,6.13585 -8.46493,9.53499 -2.23663,3.39914 -4.41977,6.2116 -4.85143,6.24991 -0.43166,0.0383 -4.25666,-2.78097 -8.5,-6.26508 -28.31005,-23.24476 -51.91088,-30.75971 -69.06525,-21.99169 -5.02256,2.56716 -6.02866,3.63105 -9.06088,9.58142 -3.12566,6.13372 -3.39929,7.38584 -3.27129,14.96931 0.30675,18.17409 9.21291,36.68432 26.77986,55.65825 3.62432,3.9146 6.42255,7.11745 6.21829,7.11745 -1.28324,0 -18.26896,-5.97864 -28.81589,-10.14262 -33.12273,-13.07704 -62.38289,-31.79223 -77.90886,-49.83156 -19.07131,-22.15859 -27.434437,-41.15011 -27.533937,-62.52582 -0.05579,-11.98467 1.691477,-19.14906 7.414467,-30.40192 16.63439,-32.70746 59.88112,-63.4817 116.52833,-82.92121 13.90592,-4.77206 46.7195,-14.2907 47.29171,-13.71849 0.21391,0.2139 -2.18438,3.4223 -5.32953,7.12978 -12.71086,14.98345 -17.7459,25.53074 -17.86234,37.41761 -0.0612,6.25121 0.38596,8.44492 2.67548,13.12454 6.23316,12.74011 21.26306,21.7641 39.76354,23.87412 10.10682,1.15271 20.79906,-0.24575 25.74351,-3.36705 9.71318,-6.13166 19.11267,-21.2256 21.64634,-34.76026 0.75954,-4.05742 1.90052,-13.90212 2.53551,-21.87712 1.57594,-19.79279 2.72561,-30.02316 3.45603,-30.75358 1.06243,-1.06244 2.94195,1.52653 7.57975,10.44082 l 4.5,8.64942 17.32133,0.0817 c 14.21615,0.067 17.55812,-0.18723 18.64224,-1.41833 0.7265,-0.825 3.01362,-5.22693 5.08249,-9.78206 2.06887,-4.55513 4.23032,-8.12581 4.80324,-7.93484 1.78113,0.59371 2.59538,5.49516 4.65439,28.01756 2.65144,29.00274 4.21003,34.76097 12.85419,47.49006 8.27109,12.17972 14.61693,15.42871 30.0124,15.36595 17.17317,-0.07 28.64016,-4.10568 39.04967,-13.74304 17.23661,-15.95806 14.13098,-35.94222 -10.06949,-64.79534 -2.58452,-3.0814 -2.85318,-3.76201 -1.30311,-3.30115 1.07396,0.3193 6.22765,1.76901 11.45265,3.22157 65.58869,18.23379 111.20234,42.44764 136.97532,72.71287 22.23177,26.10678 27.48116,50.94309 16.60623,78.56868 -14.58687,37.05501 -51.25606,66.90651 -108.08155,87.98658 -8.8,3.26447 -17.17032,6.2101 -18.60071,6.54586 -2.55519,0.59978 -2.5403,0.54642 0.85067,-3.04906 28.10753,-29.80266 37.62287,-62.2379 23.09891,-78.73799 -5.23195,-5.94381 -11.00289,-8.09606 -21.34887,-7.96196 -16.40425,0.21261 -35.89837,9.74551 -56.39079,27.5759 -2.41493,2.10122 -4.73052,3.82041 -5.14575,3.82041 -0.41523,0 -2.17669,-2.21555 -3.91434,-4.92345 -3.8952,-6.07014 -11.04639,-12.78678 -14.55042,-13.66623 -1.44072,-0.3616 -4.39219,-0.41969 -6.5588,-0.12908 -12.57579,1.68676 -22.68551,14.49333 -47.78874,60.53678 l -9.98712,18.31803 -2.4401,-4.31803 z"
         style="fill:#000000;stroke:#000000"
         inkscape:connector-curvature="0" />
    </g>
  </g>
</svg>
