<?xml version="1.0" encoding="UTF-8" standalone="no"?>
<!-- Created with Inkscape (http://www.inkscape.org/) -->

<svg
   xmlns:dc="http://purl.org/dc/elements/1.1/"
   xmlns:cc="http://creativecommons.org/ns#"
   xmlns:rdf="http://www.w3.org/1999/02/22-rdf-syntax-ns#"
   xmlns:svg="http://www.w3.org/2000/svg"
   xmlns="http://www.w3.org/2000/svg"
   xmlns:sodipodi="http://sodipodi.sourceforge.net/DTD/sodipodi-0.dtd"
   xmlns:inkscape="http://www.inkscape.org/namespaces/inkscape"
   width="10mm"
   height="10mm"
   viewBox="0 0 35.433071 35.433071"
   id="svg2"
   version="1.1"
   inkscape:version="0.91 r13725"
   sodipodi:docname="Borderlands.svg">
  <defs
     id="defs4" />
  <sodipodi:namedview
     id="base"
     pagecolor="#ffffff"
     bordercolor="#666666"
     borderopacity="1.0"
     inkscape:pageopacity="0.0"
     inkscape:pageshadow="2"
     inkscape:zoom="15.839192"
     inkscape:cx="12.822141"
     inkscape:cy="22.023773"
     inkscape:document-units="mm"
     inkscape:current-layer="layer1"
     showgrid="false"
     inkscape:window-width="1920"
     inkscape:window-height="1137"
     inkscape:window-x="-8"
     inkscape:window-y="-8"
     inkscape:window-maximized="1" />
  <metadata
     id="metadata7">
    <rdf:RDF>
      <cc:Work
         rdf:about="">
        <dc:format>image/svg+xml</dc:format>
        <dc:type
           rdf:resource="http://purl.org/dc/dcmitype/StillImage" />
        <dc:title></dc:title>
      </cc:Work>
    </rdf:RDF>
  </metadata>
  <g
     inkscape:label="Layer 1"
     inkscape:groupmode="layer"
     id="layer1"
     transform="translate(0,-1016.9291)">
    <path
       id="path4191"
       style="fill:#000000;stroke:#000000;stroke-width:0.0409904"
       d="m 6.673952,1041.3321 c 6.364702,-17.4799 7.474656,-20.5158 7.571469,-20.7081 0.266392,-0.5295 0.750903,-0.9777 1.386048,-1.2819 0.665408,-0.3187 1.005751,-0.388 1.906288,-0.388 0.664193,0 0.804264,0.012 1.127379,0.096 1.0072,0.263 1.817716,0.8259 2.207744,1.5333 0.07762,0.1406 0.704246,1.7404 1.392624,3.5551 0.688379,1.8146 2.578792,6.7944 4.200911,11.066 1.622119,4.2717 3.213633,8.463 3.536698,9.3139 0.323056,0.8509 0.597563,1.5459 0.610028,1.5445 0.01254,0 0.133339,-0.1338 0.268637,-0.2939 2.04582,-2.4217 3.369805,-5.2206 3.911566,-8.2693 0.200724,-1.1297 0.226154,-1.4682 0.226242,-3.0125 8.9e-5,-1.598 -0.04782,-2.1636 -0.285031,-3.3647 -0.687487,-3.4811 -2.411555,-6.6467 -4.964269,-9.1153 -2.73612,-2.6459 -6.086943,-4.2537 -9.925735,-4.7629 -0.602109,-0.08 -0.870726,-0.091 -2.163302,-0.091 -1.169087,0 -1.586614,0.015 -2.008787,0.071 -2.03308,0.2716 -3.74924,0.7679 -5.42226,1.5681 -3.1128393,1.4888 -5.649236,3.7929 -7.460171,6.7766 -0.343469,0.566 -1.0233904,1.9466 -1.2534641,2.5453 -1.29171346,3.3617 -1.54319029,6.8538 -0.74370939,10.3279 0.60833269,2.6435 1.89677289,5.1824 3.70996189,7.3103 0.2671469,0.3136 0.3883529,0.4287 0.4096973,0.3893 0.01666,-0.03 0.80932,-2.1952 1.7614353,-4.8101 z m 11.909197,10.4707 c 2.41671,-0.1291 4.594114,-0.6926 6.723245,-1.74 1.067352,-0.5249 1.397385,-0.7216 1.380804,-0.8228 -0.0069,-0.044 -1.551304,-5.9078 -3.431417,-13.031 -2.375305,-8.9995 -3.453379,-13.0201 -3.533063,-13.1766 -0.15382,-0.3022 -0.700727,-0.8465 -1.01659,-1.0119 -0.738465,-0.3865 -1.560986,-0.3639 -2.215457,0.061 -0.276937,0.1798 -0.70105,0.6161 -0.856487,0.8813 -0.07536,0.1286 -0.776599,2.7489 -2.525617,9.4378 -3.4847672,13.3269 -4.3776123,16.75 -4.3923025,16.8392 -0.01519,0.092 0.2818665,0.2798 1.1348547,0.7179 2.0733088,1.0647 4.4921838,1.7156 6.8462328,1.8424 0.90337,0.049 1.031887,0.049 1.885797,0 z"
       inkscape:connector-curvature="0" />
    <circle
       style="opacity:1;fill:none;fill-opacity:1;stroke:#ff0000;stroke-width:1.0505408;stroke-linejoin:miter;stroke-miterlimit:4;stroke-dasharray:none;stroke-opacity:1"
       id="path4202"
       cx="17.716536"
       cy="1034.6456"
       r="17.191265" />
  </g>
</svg>
