<?xml version="1.0" encoding="UTF-8" standalone="no"?>
<!-- Created with Inkscape (http://www.inkscape.org/) -->

<svg
   xmlns:dc="http://purl.org/dc/elements/1.1/"
   xmlns:cc="http://creativecommons.org/ns#"
   xmlns:rdf="http://www.w3.org/1999/02/22-rdf-syntax-ns#"
   xmlns:svg="http://www.w3.org/2000/svg"
   xmlns="http://www.w3.org/2000/svg"
   xmlns:sodipodi="http://sodipodi.sourceforge.net/DTD/sodipodi-0.dtd"
   xmlns:inkscape="http://www.inkscape.org/namespaces/inkscape"
   width="10mm"
   height="10mm"
   viewBox="0 0 35.433071 35.433071"
   id="svg16952"
   version="1.1"
   inkscape:version="0.91 r13725"
   sodipodi:docname="Bucks.svg">
  <defs
     id="defs16954" />
  <sodipodi:namedview
     id="base"
     pagecolor="#ffffff"
     bordercolor="#666666"
     borderopacity="1.0"
     inkscape:pageopacity="0.0"
     inkscape:pageshadow="2"
     inkscape:zoom="11.2"
     inkscape:cx="17.922266"
     inkscape:cy="-4.4639536"
     inkscape:document-units="px"
     inkscape:current-layer="layer1"
     showgrid="false"
     inkscape:window-width="1920"
     inkscape:window-height="1137"
     inkscape:window-x="-8"
     inkscape:window-y="-8"
     inkscape:window-maximized="1" />
  <metadata
     id="metadata16957">
    <rdf:RDF>
      <cc:Work
         rdf:about="">
        <dc:format>image/svg+xml</dc:format>
        <dc:type
           rdf:resource="http://purl.org/dc/dcmitype/StillImage" />
        <dc:title></dc:title>
      </cc:Work>
    </rdf:RDF>
  </metadata>
  <g
     inkscape:label="Layer 1"
     inkscape:groupmode="layer"
     id="layer1"
     transform="translate(0,-1016.9291)">
    <g
       id="g17515"
       transform="translate(-99.505105,781.35804)">
      <path
         inkscape:connector-curvature="0"
         id="path17511"
         d="m 114.35181,268.32577 c -1.11861,-0.92741 -2.19966,-1.82499 -2.40233,-1.99463 l -0.3685,-0.30844 0.75808,-2.68781 c 0.41695,-1.47829 0.81899,-2.90372 0.89342,-3.16762 l 0.13533,-0.47981 0.29839,0.3256 c 0.16411,0.17907 0.31603,0.32559 0.3376,0.32559 0.0216,0 -0.3012,-0.54251 -0.71727,-1.20557 l -0.7565,-1.20556 0.14328,-0.45452 c 0.0788,-0.24999 0.14327,-0.48078 0.14327,-0.51287 0,-0.0321 -0.24785,-0.059 -0.55078,-0.0599 -0.97799,-0.003 -2.20339,-0.16973 -2.57438,-0.35089 -0.41623,-0.20324 -0.68783,-0.57172 -0.93067,-1.26267 -0.23968,-0.68191 -0.40253,-1.80492 -0.27957,-1.92787 0.0667,-0.0666 0.40776,0.0381 1.17091,0.35952 0.59228,0.24946 1.0894,0.44104 1.10471,0.42573 0.0153,-0.0153 -0.2782,-0.28345 -0.65226,-0.59585 -3.20436,-2.67618 -4.52428,-4.45261 -4.99244,-6.71911 -0.59603,-2.88553 1.00599,-6.34039 3.53707,-7.62795 0.51415,-0.26154 0.51997,-0.2418 0.0548,0.1858 -0.93242,0.85703 -1.84632,2.39577 -2.21668,3.73224 l -0.1723,0.62178 0.67317,-0.65184 c 0.37024,-0.35851 0.70437,-0.67888 0.7425,-0.71193 0.0381,-0.0331 0.27606,-0.41484 0.52875,-0.84842 0.54401,-0.93347 1.68131,-2.14323 2.52235,-2.68306 0.61219,-0.39294 1.50068,-0.83749 1.55843,-0.77975 0.0197,0.0197 -0.17234,0.1815 -0.42681,0.35949 -0.57878,0.40483 -1.04039,0.83456 -1.62443,1.51227 -0.42875,0.49752 -1.08544,1.49271 -1.08544,1.64497 0,0.038 0.10906,0.0273 0.24235,-0.0237 0.33611,-0.12867 1.78104,-0.42937 2.0489,-0.4264 0.13902,0.002 -0.0462,0.11161 -0.50199,0.29829 -0.84067,0.34432 -2.19393,1.13903 -2.31051,1.35688 -0.0442,0.0827 -0.14663,0.40572 -0.22752,0.71789 -0.78677,3.03625 0.18063,6.43501 2.45259,8.61666 0.52615,0.50524 0.76759,0.68152 0.63123,0.46088 -0.11999,-0.19415 -0.20086,-1.58351 -0.12931,-2.22154 0.19163,-1.70872 1.03123,-3.06542 2.39213,-3.8654 0.32351,-0.19016 0.62025,-0.34575 0.65943,-0.34575 0.0392,0 -0.12946,0.17556 -0.37475,0.39014 -0.2453,0.21457 -0.59199,0.60213 -0.77044,0.86123 -0.30693,0.44565 -0.73185,1.39238 -0.62493,1.39238 0.0273,0 0.17599,-0.0964 0.3305,-0.21427 0.3116,-0.23767 0.61703,-0.36851 1.12849,-0.48343 0.41578,-0.0934 0.43729,-0.0139 0.057,0.21078 -0.15639,0.0924 -0.47895,0.36568 -0.71682,0.60733 -0.92869,0.94347 -1.06802,1.99251 -0.43604,3.28318 0.12993,0.26536 0.35871,0.62415 0.50839,0.7973 l 0.27214,0.31482 0.31728,-0.35119 c 0.47926,-0.53048 1.0013,-1.46491 1.39257,-2.49262 0.32341,-0.84946 0.35156,-0.89398 0.35408,-0.55985 0.008,1.03088 -0.44092,2.62168 -1.00933,3.57849 l -0.29977,0.50461 0.54576,0.25511 c 0.73126,0.34182 1.26934,0.46157 2.08203,0.46336 0.79545,0.002 1.33722,-0.11682 2.10833,-0.46141 l 0.56022,-0.25035 -0.19,-0.28765 c -0.33256,-0.50349 -0.72315,-1.4125 -0.89423,-2.08114 -0.19372,-0.75708 -0.32429,-2.26033 -0.15806,-1.81964 0.60837,1.61281 1.21629,2.75013 1.73418,3.24437 l 0.25999,0.24812 0.26455,-0.32094 c 0.36561,-0.44355 0.7147,-1.18531 0.83147,-1.76674 0.19788,-0.98531 -0.27799,-2.01614 -1.25093,-2.70974 -0.28502,-0.20319 -0.52037,-0.39497 -0.52298,-0.42617 -0.014,-0.16665 1.0638,0.22173 1.6031,0.5777 l 0.24191,0.15967 -0.13127,-0.37206 c -0.2092,-0.59292 -0.70839,-1.34792 -1.18755,-1.79613 -0.24355,-0.22781 -0.44282,-0.43242 -0.44282,-0.4547 0,-0.14976 1.01938,0.55107 1.54326,1.061 0.69276,0.67432 1.07259,1.34332 1.33153,2.34523 0.16308,0.63099 0.19028,2.31271 0.0451,2.78782 -0.08,0.26165 -0.0738,0.27884 0.0725,0.20059 0.34655,-0.18547 1.5687,-1.60579 1.93972,-2.25425 0.90243,-1.57726 1.25497,-2.8827 1.25997,-4.66564 0.003,-1.11653 -0.19982,-2.37057 -0.46333,-2.86295 -0.14403,-0.26912 -1.7766,-1.20076 -2.68841,-1.53417 -0.72848,-0.26637 0.76623,-0.0593 1.74047,0.24111 0.23023,0.071 0.41859,0.10089 0.41859,0.0664 0,-0.10001 -0.58903,-1.05061 -0.84147,-1.358 -0.48769,-0.59385 -1.40849,-1.48102 -1.85969,-1.79177 -0.25926,-0.17856 -0.45338,-0.34265 -0.43139,-0.36465 0.0669,-0.0669 1.28827,0.58713 1.86553,0.99905 0.76795,0.548 1.69435,1.58853 2.20039,2.47148 0.23791,0.41511 0.55154,0.85985 0.69694,0.98831 0.14541,0.12845 0.48964,0.46151 0.76496,0.74014 l 0.50059,0.50659 -0.16497,-0.59532 c -0.35841,-1.29335 -1.11882,-2.63083 -2.05759,-3.61908 -0.95656,-1.00697 0.38976,-0.19659 1.4417,0.86779 2.00326,2.02696 2.64376,5.07479 1.6106,7.66408 -0.67663,1.69576 -1.93084,3.1992 -4.39821,5.27219 -0.49846,0.41879 -0.89515,0.77256 -0.88154,0.78617 0.0136,0.0136 0.5085,-0.17493 1.09977,-0.41896 0.59127,-0.24404 1.11657,-0.41803 1.16733,-0.38666 0.13728,0.0849 0.005,1.12171 -0.23357,1.8312 -0.41104,1.22221 -0.79189,1.50601 -2.20548,1.64346 -0.48047,0.0467 -1.1016,0.086 -1.3803,0.0872 -0.27869,10e-4 -0.50672,0.0285 -0.50672,0.0606 0,0.0321 0.0645,0.26288 0.14328,0.51287 l 0.14327,0.45452 -0.75649,1.20556 c -0.41607,0.66306 -0.7371,1.20557 -0.71339,1.20557 0.0237,0 0.16613,-0.14013 0.3165,-0.3114 0.15038,-0.17127 0.28914,-0.29567 0.30836,-0.27645 0.0192,0.0192 0.4101,1.376 0.86861,3.01506 0.45852,1.63906 0.85468,3.04631 0.88036,3.12723 0.0332,0.10447 -0.15179,0.30994 -0.63799,0.70879 -1.10967,0.9103 -3.75603,3.0941 -3.92382,3.23798 -0.31457,0.26972 -0.34353,0.4375 0.86967,-5.03804 0.17026,-0.76842 0.29205,-1.41465 0.27065,-1.43605 -0.0214,-0.0214 -0.5093,0.53804 -1.08422,1.24319 -0.57493,0.70516 -1.07148,1.27207 -1.10346,1.2598 -0.032,-0.0123 -0.52375,-0.58841 -1.09283,-1.2803 -0.56907,-0.6919 -1.05221,-1.24047 -1.07364,-1.21904 -0.0214,0.0214 0.28318,1.49488 0.67692,3.27434 0.39373,1.77945 0.70438,3.26525 0.69034,3.30178 -0.014,0.0365 -0.94077,-0.69237 -2.05938,-1.61977 z m 3.61411,-5.38744 0.23525,-0.30844 -0.97834,0 -0.97834,0 0.23525,0.30844 c 0.22089,0.2896 0.26627,0.30844 0.74309,0.30844 0.47682,0 0.5222,-0.0188 0.74309,-0.30844 z m -1.52673,-1.07953 c -0.0467,-0.0848 -0.18685,-0.2908 -0.31154,-0.45774 -0.23274,-0.31162 -0.28205,-0.57422 -0.14765,-0.78636 0.0617,-0.0973 0.13057,-0.0804 0.35853,0.0881 0.39835,0.29451 1.32892,0.30007 1.73509,0.0104 0.15289,-0.10906 0.29845,-0.19828 0.32347,-0.19828 0.025,0 0.0722,0.12165 0.10486,0.27034 0.0489,0.2225 0.003,0.35118 -0.26109,0.72703 l -0.32047,0.45669 0.33419,0.0288 c 0.28381,0.0245 0.36866,-0.0124 0.56293,-0.24475 0.43598,-0.52147 0.46992,-0.64509 0.34225,-1.24672 -0.0859,-0.40477 -0.18217,-0.60411 -0.37421,-0.77491 -0.33268,-0.29586 -0.4824,-0.58752 -0.774,-1.50776 -0.196,-0.61854 -0.2662,-0.74445 -0.40288,-0.7226 -0.091,0.0145 -0.26467,0.0264 -0.38584,0.0264 -0.12117,0 -0.2948,-0.0119 -0.38584,-0.0264 -0.13668,-0.0219 -0.20689,0.10406 -0.40288,0.7226 -0.29812,0.94082 -0.4703,1.27013 -0.78619,1.50368 -0.20305,0.15012 -0.27153,0.29833 -0.36383,0.7875 l -0.11369,0.60257 0.32872,0.44781 c 0.29896,0.40727 0.36023,0.44781 0.67682,0.44781 0.30508,0 0.33761,-0.019 0.26325,-0.15422 z m -0.91034,-4.65358 c 0.10772,-0.0754 0.19586,-0.17655 0.19586,-0.22466 0,-0.12232 -1.2929,-0.72397 -1.40581,-0.65419 -0.1781,0.11008 -0.0931,0.50003 0.16528,0.75844 0.2947,0.2947 0.72501,0.3443 1.04467,0.12041 z m 4.43263,-0.12041 c 0.2584,-0.25841 0.34338,-0.64836 0.16528,-0.75844 -0.11291,-0.0698 -1.40581,0.53187 -1.40581,0.65419 0,0.15845 0.38635,0.36184 0.68733,0.36184 0.20922,0 0.37088,-0.0753 0.5532,-0.25759 z m -8.33458,-1.22466 c -0.65836,-0.36653 -1.08338,-0.65009 -1.71844,-1.14651 -0.31504,-0.24626 -0.58577,-0.41065 -0.6016,-0.3653 -0.064,0.18334 0.27088,1.07691 0.49954,1.33282 0.28113,0.31464 0.62168,0.40312 1.60019,0.41576 l 0.66093,0.009 -0.44062,-0.24531 z m 12.82975,-0.0213 c 0.29865,-0.21265 0.55605,-0.70648 0.6587,-1.26371 l 0.0633,-0.3438 -0.73934,0.56303 c -0.40664,0.30966 -1.03676,0.73588 -1.40028,0.94715 l -0.66094,0.38412 0.89976,-0.0441 c 0.74827,-0.0366 0.94672,-0.0775 1.17876,-0.24273 z m -17.16846,-7.52928 c -0.14189,-0.76209 -0.20251,-3.49019 -0.0889,-4.00189 0.0641,-0.28899 0.0604,-0.29489 -0.0972,-0.15228 -0.0902,0.0816 -0.27837,0.35569 -0.41824,0.60908 -0.22581,0.40911 -0.25379,0.54463 -0.24981,1.20978 0.003,0.52758 0.063,0.92866 0.20251,1.35648 0.18209,0.55854 0.71939,1.75875 0.76386,1.70631 0.0105,-0.0124 -0.04,-0.33973 -0.11219,-0.72748 z m 20.30791,-0.39656 c 0.49743,-1.21224 0.57189,-2.37046 0.19816,-3.0823 -0.20252,-0.38574 -0.6577,-0.92186 -0.56291,-0.66301 0.14109,0.38529 0.14235,2.47061 0.002,3.53974 -0.0773,0.58973 -0.16468,1.14491 -0.19409,1.23374 -0.12491,0.37729 0.30827,-0.42275 0.55669,-1.02817 z"
         style="fill:#000000" />
      <ellipse
         ry="17.602995"
         rx="17.602997"
         cy="253.2876"
         cx="117.22164"
         id="path17513"
         style="opacity:1;fill:none;fill-opacity:1;stroke:#ff0000;stroke-width:0.22707997;stroke-linejoin:miter;stroke-miterlimit:4;stroke-dasharray:none;stroke-opacity:1" />
    </g>
  </g>
</svg>
