<?xml version="1.0" encoding="UTF-8" standalone="no"?>
<!-- Created with Inkscape (http://www.inkscape.org/) -->

<svg
   xmlns:dc="http://purl.org/dc/elements/1.1/"
   xmlns:cc="http://creativecommons.org/ns#"
   xmlns:rdf="http://www.w3.org/1999/02/22-rdf-syntax-ns#"
   xmlns:svg="http://www.w3.org/2000/svg"
   xmlns="http://www.w3.org/2000/svg"
   xmlns:sodipodi="http://sodipodi.sourceforge.net/DTD/sodipodi-0.dtd"
   xmlns:inkscape="http://www.inkscape.org/namespaces/inkscape"
   width="10mm"
   height="10mm"
   viewBox="0 0 35.433071 35.433071"
   id="svg12099"
   version="1.1"
   inkscape:version="0.91 r13725"
   sodipodi:docname="Empire.svg">
  <defs
     id="defs12101" />
  <sodipodi:namedview
     id="base"
     pagecolor="#ffffff"
     bordercolor="#666666"
     borderopacity="1.0"
     inkscape:pageopacity="0.0"
     inkscape:pageshadow="2"
     inkscape:zoom="11.2"
     inkscape:cx="27.099024"
     inkscape:cy="12.301093"
     inkscape:document-units="px"
     inkscape:current-layer="layer1"
     showgrid="false"
     inkscape:window-width="1920"
     inkscape:window-height="1137"
     inkscape:window-x="-8"
     inkscape:window-y="-8"
     inkscape:window-maximized="1" />
  <metadata
     id="metadata12104">
    <rdf:RDF>
      <cc:Work
         rdf:about="">
        <dc:format>image/svg+xml</dc:format>
        <dc:type
           rdf:resource="http://purl.org/dc/dcmitype/StillImage" />
        <dc:title></dc:title>
      </cc:Work>
    </rdf:RDF>
  </metadata>
  <g
     inkscape:label="Layer 1"
     inkscape:groupmode="layer"
     id="layer1"
     transform="translate(0,-1016.9291)">
    <path
       style="fill:#000000"
       d="m 16.708169,1051.9917 c -0.76947,-0.04 -1.70425,-0.1604 -2.5028,-0.3217 -3.73452,-0.754 -7.1426098,-2.7441 -9.6402898,-5.6294 -1.78544,-2.0624 -3.07417,-4.5449 -3.70921997,-7.1448 -0.37422,-1.5322 -0.52119,-2.8474 -0.49921,-4.4674 0.0101,-0.7468 0.0212,-0.9524 0.0819,-1.5296 0.27735,-2.6324 1.12045997,-5.0925 2.51693997,-7.3442 0.24582,-0.3964 0.70717,-1.0646 0.93948,-1.3607 0.62101,-0.7917 0.99388,-1.2124 1.63853,-1.8484 0.61553,-0.6073 1.11956,-1.041 1.80535,-1.5536 0.0812,-0.061 0.17513,-0.1313 0.2086,-0.1568 0.10065,-0.077 0.68998,-0.4736 0.90389,-0.6088 2.1822298,-1.3803 4.7111398,-2.2689 7.2659398,-2.5533 1.141,-0.127 2.39806,-0.1427 3.50259,-0.044 2.66111,0.2384 5.15619,1.0482 7.43976,2.4147 1.80679,1.0812 3.42853,2.5133 4.74753,4.1924 0.13271,0.1689 0.26475,0.3403 0.29343,0.3809 0.36905,0.5221 0.47013,0.6676 0.56691,0.8158 1.52,2.3281 2.43522,4.9013 2.7265,7.6658 0.0609,0.5772 0.0718,0.7828 0.0819,1.5296 0.012,0.8827 -0.0158,1.5048 -0.10006,2.2424 -0.31555,2.7618 -1.26776,5.3599 -2.80646,7.6576 -1.65145,2.4661 -3.96526,4.5067 -6.60978,5.8295 -2.18933,1.0951 -4.51785,1.7072 -6.98296,1.8357 -0.38151,0.02 -1.4742,0.019 -1.86863,-0 z m 0.29549,-2.6798 0,-0.926 -0.36937,-0.04 c -0.58341,-0.062 -1.377,-0.1907 -2.11438,-0.3415 -0.11844,-0.024 -0.23381,-0.044 -0.25639,-0.044 -0.0226,0 -0.0411,-0.01 -0.0411,-0.022 0,-0.012 0.11027,-0.4077 0.24505,-0.8796 0.13478,-0.4719 0.23843,-0.8637 0.23032,-0.8706 -0.008,-0.01 -0.16336,-0.054 -0.345,-0.1051 -1.82403,-0.5108 -3.53673,-1.4758 -4.8111998,-2.7107 l -0.15265,-0.1479 -0.58621,0.586 c -0.32241,0.3223 -0.59339,0.586 -0.60218,0.586 -0.0248,0 -0.5157,-0.4913 -0.69479,-0.6953 -0.26231,-0.2988 -0.49194,-0.5979 -0.80075,-1.043 -0.10282,-0.1481 -0.19539,-0.2669 -0.20572,-0.2639 -0.0104,0 -0.39197,0.2293 -0.84808,0.503 l -0.82929,0.4976 0.10518,0.1575 c 0.50472,0.7558 1.06185,1.4249 1.81132,2.1752 0.79567,0.7966 1.49455,1.3689 2.39478,1.9611 2.1599798,1.4209 4.6729198,2.2905 7.2620498,2.5128 0.1195,0.01 0.24465,0.021 0.27812,0.024 0.0334,0 0.12145,0.01 0.19555,0.01 l 0.13471,0 0,-0.926 z m 1.92947,0.8997 c 1.89433,-0.1727 3.73185,-0.6741 5.43208,-1.4825 0.45733,-0.2174 1.01107,-0.5139 1.34715,-0.7214 0.88688,-0.5474 1.50202,-0.998 2.23367,-1.636 0.30669,-0.2674 1.00434,-0.956 1.26609,-1.2497 0.46646,-0.5232 0.94939,-1.1415 1.29299,-1.6552 l 0.10504,-0.1571 -0.59286,-0.3296 c -0.32607,-0.1814 -0.66883,-0.371 -0.76169,-0.4214 l -0.16883,-0.092 -0.15319,0.2024 c -0.27544,0.364 -0.59927,0.7766 -0.77628,0.9892 -0.29976,0.36 -0.6464,0.7388 -0.67615,0.7388 -0.008,0 -0.0744,-0.057 -0.14825,-0.1271 -0.0739,-0.07 -0.26339,-0.2478 -0.42114,-0.3955 -0.15775,-0.1477 -0.39831,-0.373 -0.53459,-0.5008 l -0.24778,-0.2323 -0.15008,0.1368 c -0.79781,0.7271 -1.58163,1.3063 -2.41371,1.7836 -0.3068,0.176 -1.00455,0.5163 -1.30369,0.6357 -0.3209,0.1282 -0.76176,0.28 -0.99415,0.3425 -0.0958,0.026 -0.1826,0.052 -0.19269,0.058 -0.0205,0.013 -0.0316,-0.038 0.22453,1.0346 0.0955,0.4004 0.16738,0.7337 0.15955,0.7407 -0.0153,0.014 -0.32899,0.094 -0.64,0.1637 -0.62126,0.1395 -1.49883,0.2741 -2.16848,0.3328 l -0.13471,0.012 0,0.9279 0,0.9279 0.0652,0 c 0.0359,0 0.19425,-0.012 0.35199,-0.026 z m 0.84654,-5.4362 c -0.005,-0.031 -0.077,-0.428 -0.15932,-0.8821 -0.22755,-1.2564 -0.37299,-2.062 -0.68091,-3.7721 -0.0336,-0.1864 -0.0651,-0.3625 -0.0701,-0.3914 l -0.009,-0.052 0.15717,-0.032 c 0.91354,-0.1846 1.81462,-0.7253 2.47127,-1.4827 l 0.0778,-0.09 0.37372,0.2947 c 0.5371,0.4236 0.68975,0.5436 1.14726,0.9017 0.22467,0.1758 0.71747,0.562 1.09511,0.8582 0.37763,0.2961 0.86652,0.6791 1.08641,0.8511 0.21989,0.172 0.44207,0.3468 0.49373,0.3886 0.0516,0.042 0.10106,0.074 0.10979,0.071 0.009,-0 0.19761,-0.3375 0.41975,-0.7437 0.55753,-1.0192 1.02855,-1.8793 1.37778,-2.5158 0.0801,-0.1459 0.1455,-0.2684 0.1455,-0.2722 0,-0 -0.045,-0.023 -0.1,-0.042 -0.38499,-0.1335 -3.23248,-1.1144 -3.56778,-1.2291 -0.37332,-0.1276 -1.1701,-0.4024 -1.34716,-0.4645 -0.14493,-0.051 -0.14,-0.023 -0.0728,-0.4085 0.0813,-0.4669 0.10354,-0.7505 0.0934,-1.1952 -0.0119,-0.5173 -0.0826,-0.9651 -0.20445,-1.2934 -0.0192,-0.052 -0.0286,-0.1 -0.0211,-0.1062 0.008,-0.01 1.14606,-0.4647 2.52993,-1.0176 1.38388,-0.5529 2.51613,-1.0109 2.51613,-1.0178 0,-0.012 -0.10019,-0.1842 -1.06513,-1.8319 -0.22955,-0.392 -0.53397,-0.9122 -0.6765,-1.156 -0.14252,-0.2438 -0.26507,-0.4492 -0.27234,-0.4565 -0.007,-0.01 -0.94281,0.7835 -2.079,1.7573 l -2.0658,1.7704 -0.2048,-0.2039 c -0.64903,-0.6461 -1.40781,-1.0749 -2.22553,-1.2577 -0.1111,-0.025 -0.21866,-0.045 -0.23901,-0.045 -0.0204,0 -0.037,-0.01 -0.037,-0.011 0,-0.011 0.24611,-1.2864 0.36525,-1.893 0.12068,-0.6144 0.64295,-3.3235 0.64295,-3.335 0,-0.01 -0.91129,-0.011 -2.02508,-0.011 -1.71586,0 -2.02508,0 -2.02508,0.024 0,0.013 0.0587,0.3868 0.13052,0.83 0.0717,0.4433 0.17326,1.0719 0.22549,1.3969 0.0522,0.3251 0.14942,0.9274 0.21595,1.3385 0.21363,1.3198 0.26487,1.646 0.25923,1.6502 -0.003,0 -0.0837,0.026 -0.17934,0.053 -0.96319,0.2689 -1.80782,0.7591 -2.3521,1.3652 l -0.16807,0.1871 -0.11522,-0.098 c -0.0634,-0.054 -0.19643,-0.1657 -0.29567,-0.2485 -0.19072,-0.1592 -1.02563,-0.8571 -2.17943,-1.8218 -0.38242,-0.3198 -0.88468,-0.7401 -1.11614,-0.9341 -0.2314598,-0.194 -0.4244298,-0.3527 -0.4288098,-0.3527 -0.0105,0 -0.0274,0.029 -0.35606,0.604 -0.15428,0.2701 -0.40454,0.7081 -0.55613,0.9734 -0.1516,0.2653 -0.40295,0.7053 -0.55859,0.9778 -0.15563,0.2725 -0.34526,0.6038 -0.4214,0.7362 -0.0761,0.1324 -0.13179,0.2467 -0.12368,0.2539 0.012,0.011 2.5621298,0.9487 4.5950698,1.6901 0.23423,0.085 0.43228,0.1616 0.44011,0.1694 0.008,0.01 -0.002,0.103 -0.0217,0.2118 -0.0846,0.4657 -0.10809,0.6842 -0.11774,1.093 -0.0149,0.633 0.042,1.0823 0.20471,1.6149 0.0187,0.061 0.0306,0.1148 0.0264,0.119 -0.004,0 -0.20183,0.08 -0.43917,0.169 -1.19229,0.4458 -4.3661898,1.6285 -4.4599498,1.6618 -0.0359,0.013 -0.0652,0.03 -0.0652,0.038 0,0.015 0.0473,0.098 0.33362,0.5866 0.37794,0.6452 0.77543,1.3246 1.19489,2.0424 0.25139,0.4303 0.46636,0.7921 0.47771,0.8042 0.0164,0.017 0.4426898,-0.3296 2.0424798,-1.6626 l 2.02188,-1.6847 0.24657,0.2199 c 0.43357,0.3867 0.7649,0.6154 1.20084,0.8288 0.2943,0.1441 0.68949,0.2822 0.97343,0.3403 0.10516,0.022 0.19396,0.041 0.19732,0.044 0.003,0 -0.0259,0.1986 -0.0651,0.4358 -0.085,0.5149 -0.30925,1.8828 -0.44553,2.7172 -0.0539,0.3298 -0.14816,0.9047 -0.20951,1.2776 -0.0614,0.3729 -0.1116,0.6877 -0.11163,0.6996 -6e-5,0.017 0.41696,0.022 2.02729,0.022 l 2.02735,0 -0.01,-0.057 z m -14.9222898,-3.231 c 0.47095,-0.2689 0.86463,-0.4955 0.87485,-0.5036 0.0125,-0.01 -0.0358,-0.1223 -0.14497,-0.3389 -0.34471,-0.6833 -0.60342,-1.3587 -0.82339,-2.1496 -0.0779,-0.2801 -0.10066,-0.3853 -0.0855,-0.3947 0.0114,-0.01 0.35056,-0.1044 0.75369,-0.2165 0.40312,-0.112 0.73539,-0.2061 0.73836,-0.209 0.003,-0 -0.014,-0.09 -0.0377,-0.1944 -0.1208,-0.5292 -0.20428,-1.0978 -0.25745,-1.7534 -0.0299,-0.3684 -0.0296,-1.8344 4.5e-4,-2.1902 0.0569,-0.6748 0.14478,-1.246 0.26287,-1.7085 0.0197,-0.077 0.0358,-0.1438 0.0358,-0.1486 0,-0.01 -0.3344,-0.1198 -0.74311,-0.2557 -0.40871,-0.1358 -0.74951,-0.2527 -0.75733,-0.2598 -0.008,-0.01 0.0458,-0.2192 0.11904,-0.4713 0.25129,-0.8642 0.37073,-1.2013 0.58404,-1.648 0.0658,-0.1378 0.11761,-0.2519 0.11518,-0.2537 -0.0398,-0.028 -1.75388,-0.9994 -1.76367,-0.9993 -0.008,0 -0.0678,0.1154 -0.13392,0.2564 -0.86038,1.8359 -1.33716,3.7235 -1.45438,5.7579 -0.0261,0.4518 -0.0112,1.6643 0.0257,2.0859 0.15861,1.819 0.57564,3.443 1.29671,5.0497 0.19569,0.436 0.49735,1.0342 0.52155,1.0342 0.01,0 0.40239,-0.22 0.87333,-0.4889 z m 26.8738698,-0.1455 c 0.37119,-0.8037 0.6451,-1.5337 0.87283,-2.3264 0.98586,-3.4314 0.8027,-6.9462 -0.53712,-10.3082 -0.18115,-0.4545 -0.34615,-0.8273 -0.36644,-0.8278 -0.01,-3e-4 -0.2365,0.1153 -0.5041,0.2569 -0.26761,0.1415 -0.61953,0.3265 -0.78206,0.411 -0.16253,0.085 -0.29867,0.1563 -0.30252,0.1596 -0.004,0 0.0541,0.137 0.12885,0.2973 0.28371,0.6085 0.48738,1.137 0.65149,1.6907 0.0496,0.1673 0.10119,0.3388 0.11467,0.381 0.0134,0.042 0.0212,0.08 0.0171,0.084 -0.004,0 -0.38145,0.1321 -0.83866,0.2845 -1.00863,0.3361 -0.93201,0.3067 -0.91976,0.3524 0.0469,0.1747 0.13906,0.6048 0.17361,0.81 0.0992,0.5886 0.13193,0.9974 0.1443,1.7991 0.0187,1.2141 -0.0746,2.1886 -0.29065,3.0348 -0.0199,0.078 -0.0329,0.1448 -0.0289,0.1487 0.004,0 0.39968,0.1194 0.87939,0.2566 0.47971,0.1371 0.87518,0.2523 0.87883,0.2559 0.01,0.01 -0.0953,0.3858 -0.19922,0.7133 -0.16783,0.5292 -0.41823,1.1719 -0.74221,1.9049 -0.0829,0.1876 -0.14347,0.3439 -0.13451,0.3472 0.009,0 0.35263,0.1932 0.76373,0.4222 l 0.74746,0.4162 0.0767,-0.1517 c 0.0422,-0.083 0.13094,-0.269 0.19719,-0.4125 z M 6.3133492,1027.3497 c 0.11467,-0.1703 0.49531,-0.6826 0.67173,-0.904 0.31175,-0.3913 0.5432,-0.6489 0.90214,-1.0041 0.18355,-0.1816 0.34747,-0.3576 0.36426,-0.3911 0.0168,-0.033 0.0338,-0.064 0.0377,-0.069 0.004,-0 0.27258,0.2574 0.59698,0.5817 l 0.58984,0.5897 0.16998,-0.1657 c 0.6774698,-0.6602 1.5493998,-1.2995 2.4210398,-1.7751 0.74972,-0.4091 1.61544,-0.7601 2.39623,-0.9715 0.0799,-0.022 0.14879,-0.049 0.1532,-0.06 0.004,-0.012 -0.0824,-0.364 -0.19301,-0.7834 -0.11055,-0.4193 -0.201,-0.775 -0.20099,-0.7903 0,-0.021 0.0555,-0.044 0.21295,-0.091 0.75276,-0.2224 1.27442,-0.3172 2.2467,-0.4083 l 0.31289,-0.029 0.005,-0.9715 0.005,-0.9714 -0.23916,0.012 c -1.01228,0.051 -2.30313,0.2788 -3.37376,0.5943 -0.87077,0.2566 -1.90468,0.6668 -2.60166,1.032 -0.46313,0.2428 -0.55049,0.2898 -0.70399,0.379 -1.9138498,1.1116 -3.4991698,2.5252 -4.7994798,4.2798 -0.10982,0.1482 -0.22602,0.3085 -0.25822,0.3563 -0.16413,0.2436 -0.33257,0.4978 -0.39093,0.5899 -0.0785,0.124 -0.10726,0.093 0.28599,0.3073 0.15774,0.086 0.51756,0.284 0.7996,0.4402 0.28204,0.1563 0.52061,0.2849 0.53017,0.2859 0.01,9e-4 0.0369,-0.027 0.0609,-0.063 z m 23.4712998,-0.1848 c 0.72929,-0.4208 1.13357,-0.6572 1.14854,-0.6714 0.0158,-0.015 -0.3557,-0.5751 -0.60725,-0.9157 -1.00224,-1.3571 -2.24979,-2.5779 -3.61408,-3.5364 -2.10614,-1.4798 -4.53084,-2.4165 -7.05734,-2.7263 -0.28237,-0.035 -0.83561,-0.084 -1.02557,-0.091 l -0.1043,-0 -0.005,0.9299 -0.005,0.9299 0.42676,0.04 c 0.94949,0.088 1.54367,0.1969 2.14173,0.3923 0.13306,0.043 0.27453,0.079 0.31439,0.079 0.0399,0 0.0725,0 0.0725,0.01 0,0.01 -0.0902,0.3695 -0.20044,0.8102 -0.11023,0.4406 -0.20214,0.8158 -0.20424,0.8337 -0.003,0.028 0.0474,0.05 0.32923,0.1452 1.08328,0.3664 2.0084,0.8193 2.90774,1.4237 0.57147,0.384 1.00974,0.7331 1.49226,1.1888 l 0.24832,0.2345 0.0906,-0.085 c 0.0499,-0.047 0.32921,-0.3086 0.6208,-0.582 0.29159,-0.2734 0.55524,-0.518 0.58588,-0.5437 l 0.0557,-0.047 0.0399,0.078 c 0.0262,0.051 0.13258,0.1639 0.30932,0.3284 0.14819,0.138 0.33592,0.3244 0.41719,0.4143 0.0812,0.09 0.16592,0.183 0.18813,0.207 0.24316,0.2619 0.68427,0.8763 0.88959,1.2389 0.0592,0.1046 0.10402,0.1658 0.11773,0.1607 0.0122,-0 0.20383,-0.113 0.42588,-0.2412 z"
       id="path12658"
       inkscape:connector-curvature="0" />
    <ellipse
       style="opacity:1;fill:none;fill-opacity:1;stroke:#ff0000;stroke-width:1.69633198;stroke-linejoin:miter;stroke-miterlimit:4;stroke-dasharray:none;stroke-opacity:1"
       id="path12660"
       cx="17.716536"
       cy="1034.6864"
       rx="16.86837"
       ry="16.827621" />
  </g>
</svg>
