<?xml version="1.0" encoding="UTF-8" standalone="no"?>
<!-- Created with Inkscape (http://www.inkscape.org/) -->

<svg
   xmlns:dc="http://purl.org/dc/elements/1.1/"
   xmlns:cc="http://creativecommons.org/ns#"
   xmlns:rdf="http://www.w3.org/1999/02/22-rdf-syntax-ns#"
   xmlns:svg="http://www.w3.org/2000/svg"
   xmlns="http://www.w3.org/2000/svg"
   xmlns:sodipodi="http://sodipodi.sourceforge.net/DTD/sodipodi-0.dtd"
   xmlns:inkscape="http://www.inkscape.org/namespaces/inkscape"
   width="10mm"
   height="10mm"
   viewBox="0 0 35.433071 35.433071"
   id="svg7225"
   version="1.1"
   inkscape:version="0.91 r13725"
   sodipodi:docname="Lens.svg">
  <defs
     id="defs7227" />
  <sodipodi:namedview
     id="base"
     pagecolor="#ffffff"
     bordercolor="#666666"
     borderopacity="1.0"
     inkscape:pageopacity="0.0"
     inkscape:pageshadow="2"
     inkscape:zoom="15.839192"
     inkscape:cx="9.4537335"
     inkscape:cy="33.152056"
     inkscape:document-units="px"
     inkscape:current-layer="layer1"
     showgrid="false"
     inkscape:window-width="1920"
     inkscape:window-height="1137"
     inkscape:window-x="-8"
     inkscape:window-y="-8"
     inkscape:window-maximized="1" />
  <metadata
     id="metadata7230">
    <rdf:RDF>
      <cc:Work
         rdf:about="">
        <dc:format>image/svg+xml</dc:format>
        <dc:type
           rdf:resource="http://purl.org/dc/dcmitype/StillImage" />
        <dc:title></dc:title>
      </cc:Work>
    </rdf:RDF>
  </metadata>
  <g
     inkscape:label="Layer 1"
     inkscape:groupmode="layer"
     id="layer1"
     transform="translate(0,-1016.9291)">
    <g
       id="g10901"
       transform="matrix(0.07620145,0,0,0.07620145,-10.913137,1009.6345)">
      <path
         id="path10685"
         d="m 171.71429,556.71936 0,-3.5 -14,0 -14,0 0,-208 0,-208 14,0 14,0 0,-3.5 0,-3.5 20.75,0.006 c 11.4125,0.003 22.38809,0.46057 24.39019,1.01668 4.83893,1.34407 10.82904,6.92217 16.62097,15.47774 6.47847,9.5697 8.57413,10.49648 23.73921,10.49845 6.79682,8.8e-4 15.03553,-0.64135 19,-1.48109 5.5629,-1.17831 15.62048,-1.47725 48.99963,-1.45641 23.1,0.0144 46.725,0.48993 52.5,1.05668 5.775,0.56674 17.025,1.40094 25,1.85376 7.975,0.45282 16.3,1.30294 18.5,1.88916 10.46274,2.78795 18.66697,3.30062 44,2.74949 14.30001,-0.3111 29.84201,-0.83098 34.53771,-1.15529 7.9467,-0.54884 9.3123,-0.33722 19.7272,3.05704 6.1543,2.00568 12.8117,4.74755 14.7944,6.09304 1.9827,1.34549 7.0555,3.38191 11.2728,4.52537 8.6754,2.35219 13.2336,4.79487 15.553,8.33475 1.2957,1.97747 2.5714,2.48607 6.8534,2.73239 l 5.2615,0.30266 0.2711,19.75 0.2712,19.75 7.9788,0 7.9789,0 0,9 0,9 9,0 9,0 0,103 0,103 -9,0 -9,0 0,7.25 0,7.25 -7.9805,-0.32546 -7.9805,-0.32546 -0.2718,19.32546 -0.2712,19.32544 -5.2514,0.3023 c -4.6248,0.2663 -5.4278,0.6435 -6.73,3.1617 -2.0886,4.039 -5.8273,6.6931 -11.9252,8.4658 -4.832,1.4048 -5.3636,1.86 -6.4651,5.5365 -1.515,5.0565 -4.4122,8.3431 -10.1283,11.4895 -10.7612,5.9235 -8.2828,5.6561 -49.4767,5.3379 l -38.02331,-0.2937 -6.7083,-3.25 c -7.27422,-3.5242 -14.18789,-4.2368 -20.7983,-2.144 -7.74932,2.4535 -33.631,3.2946 -102.9934,3.347 -55.23179,0.042 -71.99777,0.3381 -73.68775,1.3024 -1.20326,0.6866 -4.67841,4.9916 -7.72256,9.5667 -6.47491,9.7312 -7.63704,10.8927 -13.60767,13.601 -4.06029,1.8417 -6.52856,2.0351 -26.23202,2.055 l -21.75,0.022 0,-3.5 z"
         style="fill:none;stroke:#ff0000"
         inkscape:connector-curvature="0" />
      <path
         id="path10683"
         d="m 213.21429,547.65446 c 1.99268,-0.5356 1.99907,-1.2757 1.74587,-202.22469 -0.24046,-190.83448 -0.34808,-201.72434 -2,-202.37849 -0.96023,-0.38024 -7.93337,-0.72298 -15.49587,-0.76163 l -13.75,-0.0703 0,203 0,203.00001 13.75,-0.014 c 7.5625,-0.01 14.65,-0.2556 15.75,-0.5512 z"
         style="fill:#000000;stroke:#000000"
         inkscape:connector-curvature="0" />
      <path
         d="m 192.70372,346.73209 c 2.58633,-3.11633 -1.80144,-7.12929 -4.66459,-4.26614 -1.2012,1.2012 -1.28244,1.96411 -0.38728,3.63675 1.3256,2.4769 3.31308,2.72451 5.05187,0.62939 z m -6.33444,1.65853 c -3.47956,-3.84487 -0.98573,-9.17126 4.29399,-9.17126 3.32387,0 5.30102,2.05136 5.30102,5.5 0,1.37161 -0.56135,3.17023 -1.24745,3.99692 -1.71625,2.06796 -6.34478,1.88739 -8.34756,-0.32566 z"
         style="fill:#ffffff;stroke:#000000"
         id="path10679"
         inkscape:connector-curvature="0" />
      <path
         id="path10677"
         d="m 230.59945,528.33416 c 6.88214,-6.8821 8.9157,-7.5331 24.11484,-7.72 l 13.5,-0.1659 0,-175.34041 0,-175.34037 -11.5,-0.10287 c -17.39234,-0.15558 -25.91178,-3.94131 -32.16265,-14.29189 -1.21348,-2.00935 -3.02331,-4.72655 -4.02184,-6.03822 -1.75592,-2.30658 -1.81551,4.13958 -1.81551,196.40504 l 0,198.78992 3.93834,-6.0934 c 2.16608,-3.3514 5.74215,-7.8972 7.94682,-10.1019 z"
         style="fill:#000000;stroke:#000000"
         inkscape:connector-curvature="0" />
      <path
         id="path10675"
         d="m 180.71429,507.21936 0,-33 -6,0 -6,0 0,-128 0,-128 6,0 6,0 0,-34 0,-34 -12.5,0 -12.5,0 0,195 0,195 12.5,0 12.5,0 0,-33 z"
         style="fill:#000000;stroke:#000000"
         inkscape:connector-curvature="0" />
      <path
         id="path10673"
         d="m 520.1325,523.61236 c 1.3536,-0.5194 1.5818,-2.9782 1.5818,-17.0454 0,-16.1199 -0.048,-16.4861 -2.4546,-18.8931 l -2.4545,-2.4545 -31.2955,0.004 c -29.43461,0.004 -31.48865,0.12156 -34.54541,1.9853 l -3.25,1.9816 0,16.9313 c 0,12.6094 0.31908,17.0601 1.25,17.4358 1.80239,0.7273 69.28041,0.7797 71.16821,0.055 z"
         style="fill:#000000;stroke:#000000"
         inkscape:connector-curvature="0" />
      <path
         id="path10661"
         d="m 381.46429,521.57146 5.25,-0.6306 0,-4.3607 0,-4.3607 -57.5,0 -57.5,0 0,4.4266 c 0,3.375 0.41576,4.5354 1.75,4.884 2.7248,0.7121 102.09925,0.7501 108,0.041 z"
         style="fill:#000000;stroke:#000000"
         inkscape:connector-curvature="0" />
      <path
         id="path10659"
         d="m 409.46708,344.46946 0.2528,-175.25 -10.0028,0 -10.00279,0 0,175.5726 0,175.5726 9.75,-0.3226 9.75,-0.3226 0.25279,-175.25 z"
         style="fill:#000000;stroke:#000000"
         inkscape:connector-curvature="0" />
      <path
         id="path10657"
         d="m 443.73815,504.96946 c 0.0275,-17.5707 0.78116,-21.89327 4.49269,-25.76727 4.14084,-4.32211 8.98807,-4.98273 36.56026,-4.98273 27.5577,0 31.262,0.54366 35.8787,5.26573 4.005,4.09634 5.0445,9.47147 5.0445,26.08347 0,14.0464 0.059,14.4482 2.0317,13.9323 2.7185,-0.7109 3.5249,-2.5023 4.8534,-10.7815 1.1938,-7.4401 3.1149,-31.97871 3.1149,-39.78751 0,-4.11684 -0.29,-4.74717 -2.4314,-5.28462 -1.4393,-0.36125 -6.2335,0.54314 -11.75,2.21653 -9.2045,2.79216 -9.7172,2.83307 -41.8661,3.34119 -35.18403,0.55608 -35.98791,0.68467 -39.16213,6.26441 -1.91314,3.36296 -2.47907,42.6983 -0.63116,43.8696 3.55993,2.2563 3.84026,1.214 3.86464,-14.3696 z"
         style="fill:#000000;stroke:#000000"
         inkscape:connector-curvature="0" />
      <path
         id="path10655"
         d="m 427.33929,517.21946 8.375,0 0.0165,-19.75 c 0.0155,-18.57989 0.14881,-19.98368 2.25056,-23.69427 1.22876,-2.16936 3.80885,-4.86936 5.73355,-6 3.29041,-1.93294 5.33617,-2.07455 34.2494,-2.37086 l 30.75,-0.31513 0,-145.82788 c 0,-132.05347 -0.1494,-145.88522 -1.5818,-146.43487 -0.87,-0.33385 -2.67,-0.60699 -4,-0.60699 l -2.4182,0 0,15.6 0,15.6 -3.4,3.4 -3.4,3.4 -29.05296,0 c -20.39509,0 -29.83432,-0.35602 -31.67499,-1.19469 -4.67052,-2.12803 -5.47206,-5.29662 -5.47206,-21.63182 l 0,-14.92583 -5.25,-0.54051 c -2.8875,-0.29728 -6.15,-0.82606 -7.25,-1.17507 -1.99477,-0.63291 -2,-0.17942 -2,173.49169 l 0,174.12623 2.875,-0.575 c 1.58125,-0.3163 6.64375,-0.575 11.25,-0.575 z"
         style="fill:#000000;stroke:#000000"
         inkscape:connector-curvature="0" />
      <path
         id="path10653"
         d="m 429.36928,457.39072 c -1.51907,-1.67855 -1.65499,-10.94652 -1.65499,-112.84501 0,-106.28077 0.078,-111.08687 1.82874,-112.67126 1.62393,-1.46964 5.52635,-1.65499 34.84501,-1.65499 30.71566,0 33.13156,0.12743 34.67126,1.82874 1.5191,1.67855 1.655,10.94652 1.655,112.84501 0,106.28077 -0.078,111.08687 -1.8287,112.67126 -1.624,1.46964 -5.5264,1.65499 -34.84506,1.65499 -30.71564,0 -33.1316,-0.12743 -34.67126,-1.82874 z"
         style="fill:none;stroke:#000000"
         inkscape:connector-curvature="0" />
      <path
         id="path10651"
         d="m 475.7143,401.96946 0,-54.25 -4.5,0 -4.50001,0 0,24.06144 c 0,30.28508 1.03266,28.43856 -15.9041,28.43856 -10.45003,0 -12.13279,-0.24117 -14.46104,-2.07258 l -2.63486,-2.07258 0,-51.23886 c 0,-50.18292 0.042,-51.28396 2.03896,-53.42742 1.88614,-2.02453 2.96996,-2.18856 14.46104,-2.18856 17.63114,0 16.5,-1.94957 16.5,28.43856 l 0,24.06144 4.50001,0 4.5,0 0,-54.25 0,-54.25 -21.30001,0 c -15.23333,0 -21.64178,0.34178 -22.5,1.2 -1.74164,1.74164 -1.74164,218.85836 0,220.6 0.85822,0.85822 7.26667,1.2 22.5,1.2 l 21.30001,0 0,-54.25 z"
         style="fill:none;stroke:#000000"
         inkscape:connector-curvature="0" />
      <path
         id="path10649"
         d="m 496.5143,455.01946 c 1.7416,-1.74164 1.7416,-218.85836 0,-220.6 -0.7282,-0.72821 -4.2667,-1.2 -9,-1.2 l -7.8,0 0,111.5 0,111.5 7.8,0 c 4.7333,0 8.2718,-0.47179 9,-1.2 z"
         style="fill:none;stroke:#000000"
         inkscape:connector-curvature="0" />
      <path
         id="path10647"
         d="m 463.1073,394.63767 c 1.14938,-2.99524 0.68894,-100.24953 -0.47803,-100.97076 -1.56972,-0.97013 -24.25878,-0.50904 -24.88658,0.50575 -0.29062,0.46978 -0.40776,23.62249 -0.26032,51.45047 l 0.26808,50.59633 12.37493,0 c 10.36183,0 12.47367,-0.25732 12.98192,-1.58179 z"
         style="fill:none;stroke:#000000"
         inkscape:connector-curvature="0" />
      <path
         id="path10645"
         d="m 472.9833,344.56352 c -0.677,-0.27392 -2.027,-0.29059 -2.99998,-0.0371 -0.97297,0.25354 -0.41903,0.47766 1.23098,0.49804 1.65,0.0204 2.4461,-0.18706 1.769,-0.46099 z"
         style="fill:none;stroke:#000000"
         inkscape:connector-curvature="0" />
      <path
         id="path10643"
         d="m 386.71429,503.71946 0,-4.5 -57.5,0 -57.5,0 0,4.5 0,4.5 57.5,0 57.5,0 0,-4.5 z"
         style="fill:#000000;stroke:#000000"
         inkscape:connector-curvature="0" />
      <path
         id="path10641"
         d="m 544.258,502.20436 c 3.2213,-1.1082 6.2098,-2.5707 6.6413,-3.25 0.4314,-0.6792 0.7461,-35.4349 0.6992,-77.2349 -0.052,-46.80777 -0.4272,-74.54711 -0.9758,-72.2175 -1.8241,7.74655 -6.6841,13.62537 -14.6584,17.73119 l -4.25,2.18824 0,45.27404 0,45.27403 2.8109,0.56217 c 4.6509,0.9302 5.2433,3.76611 4.1584,19.90719 -0.5279,7.85434 -1.2292,16.41814 -1.5584,19.03064 -0.342,2.7139 -0.1968,4.75 0.3387,4.75 0.5155,0 3.5729,-0.9068 6.7941,-2.0151 z"
         style="fill:#000000;stroke:#000000"
         inkscape:connector-curvature="0" />
      <path
         id="path10639"
         d="m 386.71429,490.71946 0,-4.5 -57.5,0 -57.5,0 0,4.5 0,4.5 57.5,0 57.5,0 0,-4.5 z"
         style="fill:#000000;stroke:#000000"
         inkscape:connector-curvature="0" />
      <path
         id="path10637"
         d="m 560.7143,344.21946 0,-146 -3,0 -3,0 0,146 0,146 3,0 3,0 0,-146 z"
         style="fill:#000000;stroke:#000000"
         inkscape:connector-curvature="0" />
      <path
         id="path10635"
         d="m 482.8942,481.40311 c 17.5452,-0.18701 31.1441,0.0879 33.2611,0.67245 4.4895,1.2396 3.782,-0.44713 -1.031,-2.45813 -2.5891,-1.0818 -9.5388,-1.39797 -30.7287,-1.39797 -28.29107,0 -32.2429,0.46709 -34.49765,4.07752 -1.20637,1.93171 -1.15135,1.97119 1.02061,0.73214 1.71275,-0.97709 9.83264,-1.38999 31.97564,-1.62601 z"
         style="fill:#000000;stroke:#000000"
         inkscape:connector-curvature="0" />
      <path
         id="path10633"
         d="m 386.71429,478.21946 0,-5 -57.5,0 -57.5,0 0,5 0,5 57.5,0 57.5,0 0,-5 z"
         style="fill:#000000;stroke:#000000"
         inkscape:connector-curvature="0" />
      <path
         id="path10631"
         d="m 180.71429,346.21946 0,-125 -4.5,0 -4.5,0 0,125 0,125 4.5,0 4.5,0 0,-125 z"
         style="fill:#000000;stroke:#000000"
         inkscape:connector-curvature="0" />
      <path
         id="path10629"
         d="m 386.71429,465.71946 0,-4.5 -57.5,0 -57.5,0 0,4.5 0,4.5 57.5,0 57.5,0 0,-4.5 z"
         style="fill:#000000;stroke:#000000"
         inkscape:connector-curvature="0" />
      <path
         id="path10627"
         d="m 521.8091,462.12206 6.9052,-2.0974 0,-46.82505 0,-46.82505 3.6659,-1.20984 c 4.5844,-1.51302 12.191,-8.40216 13.9817,-12.66314 0.7438,-1.76984 1.3524,-5.27179 1.3524,-7.78212 0,-8.82825 -4.1853,-14.41352 -14.25,-19.01677 l -5.75,-2.62984 0,-71.84517 0,-71.84516 -6.75,-2.22785 c -3.7125,-1.22532 -7.3125,-2.43516 -8,-2.68852 -0.9964,-0.3672 -1.25,28.98171 -1.25,144.64632 0,132.14952 0.1424,145.10699 1.5948,145.10699 0.8771,0 4.7021,-0.94383 8.5,-2.0974 z"
         style="fill:#000000;stroke:#000000"
         inkscape:connector-curvature="0" />
      <path
         d="m 535.2597,348.76491 c 1.35,-1.35 2.4546,-3.17045 2.4546,-4.04545 0,-2.05875 -4.4413,-6.5 -6.5,-6.5 -1.8116,0 -6.5,4.34238 -6.5,6.02029 0,2.12879 2.1457,5.09854 4.3154,5.97273 3.2323,1.30233 3.5552,1.22731 6.23,-1.44757 z m -10.6223,2.53147 c -2.1641,-2.1641 -2.9231,-3.87179 -2.9231,-6.57692 0,-5.08077 4.4192,-9.5 9.5,-9.5 2.7051,0 4.4128,0.75897 6.5769,2.92308 3.976,3.976 3.984,8.72967 0.022,12.97116 -3.9608,4.2401 -9.0478,4.31063 -13.1757,0.18268 z"
         style="fill:#ffffff;stroke:#000000"
         id="path10623"
         inkscape:connector-curvature="0" />
      <path
         id="path10621"
         d="m 386.71429,452.71946 0,-4.5 -57.5,0 -57.5,0 0,4.5 0,4.5 57.5,0 57.5,0 0,-4.5 z"
         style="fill:#000000;stroke:#000000"
         inkscape:connector-curvature="0" />
      <path
         id="path10619"
         d="m 577.7143,344.71946 0,-106.5 -7,0 -7,0 0,106.5 0,106.5 7,0 7,0 0,-106.5 z"
         style="fill:#000000;stroke:#000000"
         inkscape:connector-curvature="0" />
      <path
         id="path10617"
         d="m 386.71429,439.71946 0,-4.5 -57.5,0 -57.5,0 0,4.5 0,4.5 57.5,0 57.5,0 0,-4.5 z"
         style="fill:#000000;stroke:#000000"
         inkscape:connector-curvature="0" />
      <path
         id="path10615"
         d="m 595.7143,346.71946 0,-90.5 -7.5,0 -7.5,0 0,90.5 0,90.5 7.5,0 7.5,0 0,-90.5 z"
         style="fill:#000000;stroke:#000000"
         inkscape:connector-curvature="0" />
      <path
         d="m 588.7143,390.77848 c 0,-1.95514 -1.9384,-3.02065 -3.2,-1.75902 -0.5642,0.56415 -0.7234,1.51494 -0.3539,2.11287 0.9803,1.58602 3.5539,1.32977 3.5539,-0.35385 z m -5,3.44098 c -3.629,-3.62899 -1.8314,-9 3.0121,-9 5.9579,0 7.4034,7.10173 2.0307,9.97708 -2.555,1.36742 -2.7327,1.33299 -5.0428,-0.97708 z"
         style="fill:#ffffff;stroke:#000000"
         id="path10611"
         inkscape:connector-curvature="0" />
      <path
         d="m 588.7143,377.77848 c 0,-0.79254 -0.4892,-1.74333 -1.0871,-2.11287 -1.4121,-0.87268 -3.3394,1.0547 -2.4668,2.46672 0.9803,1.58602 3.5539,1.32977 3.5539,-0.35385 z m -3,4.69082 c -3.8065,-1.21784 -5.1365,-5.97051 -2.4286,-8.67841 3.8566,-3.85659 10.9926,0.63763 8.4767,5.33859 -1.3363,2.49709 -4.0311,3.98514 -6.0481,3.33982 z"
         style="fill:#ffffff;stroke:#000000"
         id="path10607"
         inkscape:connector-curvature="0" />
      <path
         d="m 588.2681,365.13233 c 1.0306,-1.66742 -1.2872,-3.57951 -2.6667,-2.2 -1.1539,1.15392 -0.4317,3.28713 1.1129,3.28713 0.4851,0 1.1843,-0.48921 1.5538,-1.08713 z m -5.7358,1.58713 c -1.7448,-3.82959 0.28,-7.5 4.1375,-7.5 2.0948,0 3.492,0.7534 4.6365,2.5 1.5174,2.31587 1.5174,2.68413 0,5 -1.1445,1.7466 -2.5417,2.5 -4.6365,2.5 -2.2279,0 -3.2911,-0.64245 -4.1375,-2.5 z"
         style="fill:#ffffff;stroke:#000000"
         id="path10603"
         inkscape:connector-curvature="0" />
      <path
         d="m 588.2681,352.13233 c 1.0306,-1.66742 -1.2872,-3.57951 -2.6667,-2.2 -1.1539,1.15392 -0.4317,3.28713 1.1129,3.28713 0.4851,0 1.1843,-0.48921 1.5538,-1.08713 z m -5.7358,1.58713 c -1.7448,-3.82959 0.28,-7.5 4.1375,-7.5 2.0948,0 3.492,0.7534 4.6365,2.5 1.5174,2.31587 1.5174,2.68413 0,5 -1.1445,1.7466 -2.5417,2.5 -4.6365,2.5 -2.2279,0 -3.2911,-0.64245 -4.1375,-2.5 z"
         style="fill:#ffffff;stroke:#000000"
         id="path10599"
         inkscape:connector-curvature="0" />
      <path
         d="m 588.2681,339.13233 c 1.0306,-1.66742 -1.2872,-3.57951 -2.6667,-2.2 -1.1539,1.15392 -0.4317,3.28713 1.1129,3.28713 0.4851,0 1.1843,-0.48921 1.5538,-1.08713 z m -5.3538,2.88713 c -0.66,-0.66 -1.2,-2.37 -1.2,-3.8 0,-3.35483 1.7034,-5 5.1769,-5 1.8586,0 3.3187,0.82677 4.4151,2.5 1.5174,2.31587 1.5174,2.68413 0,5 -1.7848,2.72392 -6.2728,3.41916 -8.392,1.3 z"
         style="fill:#ffffff;stroke:#000000"
         id="path10595"
         inkscape:connector-curvature="0" />
      <path
         d="m 588.5376,324.88659 c 0.1871,-0.96457 -0.3148,-1.66713 -1.191,-1.66713 -1.8577,0 -2.9789,1.63015 -2.0997,3.05279 0.9046,1.46356 2.9012,0.62281 3.2907,-1.38566 z m -5.2519,3.76144 c -2.3556,-2.35559 -1.9472,-6.13621 0.8615,-7.97659 2.8037,-1.83704 5.7703,-0.80939 7.6152,2.638 2.5159,4.70096 -4.6201,9.19518 -8.4767,5.33859 z"
         style="fill:#ffffff;stroke:#000000"
         id="path10591"
         inkscape:connector-curvature="0" />
      <path
         d="m 588.5376,311.88659 c 0.1871,-0.96457 -0.3148,-1.66713 -1.191,-1.66713 -1.8577,0 -2.9789,1.63015 -2.0997,3.05279 0.9046,1.46356 2.9012,0.62281 3.2907,-1.38566 z m -5.2519,3.76144 c -2.3556,-2.35559 -1.9472,-6.13621 0.8615,-7.97659 2.8037,-1.83704 5.7703,-0.80939 7.6152,2.638 2.5159,4.70096 -4.6201,9.19518 -8.4767,5.33859 z"
         style="fill:#ffffff;stroke:#000000"
         id="path10587"
         inkscape:connector-curvature="0" />
      <path
         d="m 588.5376,298.88659 c 0.1871,-0.96457 -0.3148,-1.66713 -1.191,-1.66713 -1.8577,0 -2.9789,1.63015 -2.0997,3.05279 0.9046,1.46356 2.9012,0.62281 3.2907,-1.38566 z m -5.2519,3.76144 c -2.3556,-2.35559 -1.9472,-6.13621 0.8615,-7.97659 2.8037,-1.83704 5.7703,-0.80939 7.6152,2.638 2.5159,4.70096 -4.6201,9.19518 -8.4767,5.33859 z"
         style="fill:#ffffff;stroke:#000000"
         id="path10583"
         inkscape:connector-curvature="0" />
      <path
         id="path10581"
         d="m 386.71429,426.71946 0,-4.5 -57.5,0 -57.5,0 0,4.5 0,4.5 57.5,0 57.5,0 0,-4.5 z"
         style="fill:#000000;stroke:#000000"
         inkscape:connector-curvature="0" />
      <path
         id="path10579"
         d="m 386.71429,414.21946 0,-5 -57.5,0 -57.5,0 0,5 0,5 57.5,0 57.5,0 0,-5 z"
         style="fill:#000000;stroke:#000000"
         inkscape:connector-curvature="0" />
      <path
         id="path10577"
         d="m 386.51908,401.46946 -0.30479,-4.75 -57.25,-0.25819 -57.25,-0.25819 0,5.00819 0,5.00819 57.55479,0 57.55479,0 -0.30479,-4.75 z"
         style="fill:#000000;stroke:#000000"
         inkscape:connector-curvature="0" />
      <path
         id="path10575"
         d="m 386.71429,388.71946 0,-4.5 -57.5,0 -57.5,0 0,4.5 0,4.5 57.5,0 57.5,0 0,-4.5 z"
         style="fill:#000000;stroke:#000000"
         inkscape:connector-curvature="0" />
      <path
         id="path10573"
         d="m 386.71429,375.71946 0,-4.5 -57.5,0 -57.5,0 0,4.5 0,4.5 57.5,0 57.5,0 0,-4.5 z"
         style="fill:#000000;stroke:#000000"
         inkscape:connector-curvature="0" />
      <path
         id="path10571"
         d="m 386.71429,362.61247 0,-4.39301 -57.5,0 -57.5,0 0,4.49167 0,4.49168 56.25,0.25832 c 30.9375,0.14208 56.8125,0.0977 57.5,-0.0987 0.75613,-0.21594 1.25,-2.09265 1.25,-4.75 z"
         style="fill:#000000;stroke:#000000"
         inkscape:connector-curvature="0" />
      <path
         id="path10569"
         d="m 386.71429,350.21946 0,-5 -57.5,0 -57.5,0 0,5 0,5 57.5,0 57.5,0 0,-5 z"
         style="fill:#000000;stroke:#000000"
         inkscape:connector-curvature="0" />
      <path
         id="path10567"
         d="m 551.7143,266.34078 0,-76.87868 -2.75,-1.0919 c -1.5125,-0.60055 -6.0125,-1.97647 -10,-3.05761 l -7.25,-1.96571 0,68.88949 0,68.8895 4.3008,1.90245 c 8.5531,3.78345 14.6992,11.1671 14.6992,17.65902 0,1.39267 0.225,2.53212 0.5,2.53212 0.275,0 0.5,-34.59541 0.5,-76.87868 z"
         style="fill:#000000;stroke:#000000"
         inkscape:connector-curvature="0" />
      <path
         id="path10565"
         d="m 386.71429,337.71946 0,-4.5 -57.5,0 -57.5,0 0,4.5 0,4.5 57.5,0 57.5,0 0,-4.5 z"
         style="fill:#000000;stroke:#000000"
         inkscape:connector-curvature="0" />
      <path
         id="path10563"
         d="m 386.71429,324.71946 0,-4.5 -57.5,0 -57.5,0 0,4.5 0,4.5 57.5,0 57.5,0 0,-4.5 z"
         style="fill:#000000;stroke:#000000"
         inkscape:connector-curvature="0" />
      <path
         id="path10561"
         d="m 386.71429,311.71946 0,-4.5 -57.5,0 -57.5,0 0,4.5 0,4.5 57.5,0 57.5,0 0,-4.5 z"
         style="fill:#000000;stroke:#000000"
         inkscape:connector-curvature="0" />
      <path
         id="path10559"
         d="m 386.71429,298.71946 0,-4.5 -57.5,0 -57.5,0 0,4.5 0,4.5 57.5,0 57.5,0 0,-4.5 z"
         style="fill:#000000;stroke:#000000"
         inkscape:connector-curvature="0" />
      <path
         id="path10557"
         d="m 386.71429,286.21946 0,-5 -57.5,0 -57.5,0 0,5 0,5 57.5,0 57.5,0 0,-5 z"
         style="fill:#000000;stroke:#000000"
         inkscape:connector-curvature="0" />
      <path
         id="path10555"
         d="m 386.71429,273.71946 c 0,-2.475 -0.3375,-4.50045 -0.75,-4.50099 -0.4125,-5.5e-4 -26.28758,-0.11305 -57.50017,-0.25 l -56.75017,-0.24901 1.7e-4,4.75 1.7e-4,4.75 57.5,0 57.5,0 0,-4.5 z"
         style="fill:#000000;stroke:#000000"
         inkscape:connector-curvature="0" />
      <path
         id="path10553"
         d="m 386.71429,260.71946 0,-4.5 -57.5,0 -57.5,0 0,4.5 0,4.5 57.5,0 57.5,0 0,-4.5 z"
         style="fill:#000000;stroke:#000000"
         inkscape:connector-curvature="0" />
      <path
         id="path10551"
         d="m 386.71429,247.71946 0,-4.5 -57.5,0 -57.5,0 0,4.5 0,4.5 57.5,0 57.5,0 0,-4.5 z"
         style="fill:#000000;stroke:#000000"
         inkscape:connector-curvature="0" />
      <path
         id="path10549"
         d="m 386.51908,234.96946 0.30479,-4.75 -57.55479,0 -57.55479,0 0,5.00819 0,5.00819 57.25,-0.25819 57.25,-0.25819 0.30479,-4.75 z"
         style="fill:#000000;stroke:#000000"
         inkscape:connector-curvature="0" />
      <path
         id="path10547"
         d="m 386.71429,222.21946 0,-5 -57.5,0 -57.5,0 0,5 0,5 57.5,0 57.5,0 0,-5 z"
         style="fill:#000000;stroke:#000000"
         inkscape:connector-curvature="0" />
      <path
         id="path10545"
         d="m 386.71429,209.71946 c 0,-2.475 -0.3375,-4.50375 -0.75,-4.50834 -0.4125,-0.005 -26.2875,-0.11709 -57.5,-0.25 l -56.75001,-0.24166 1e-5,4.75 0,4.75 57.5,0 57.5,0 0,-4.5 z"
         style="fill:#000000;stroke:#000000"
         inkscape:connector-curvature="0" />
      <path
         id="path10543"
         d="m 494.8535,205.31006 c 2.2706,-1.83647 2.3731,-2.50624 2.6817,-17.53685 l 0.321,-15.62746 -2.821,0.78686 c -1.5515,0.43277 -16.6585,0.78685 -33.57116,0.78685 l -30.75024,0 2.4e-4,14.29775 c 2.5e-4,14.17669 0.0226,14.31851 2.64627,16.75 l 2.64603,2.45225 28.24319,0 c 26.30557,0 28.40517,-0.131 30.60397,-1.9094 z"
         style="fill:#000000;stroke:#000000"
         inkscape:connector-curvature="0" />
      <path
         id="path10541"
         d="m 386.71429,196.71946 0,-4.5 -57.5,0 -57.5,0 0,4.5 0,4.5 57.5,0 57.5,0 0,-4.5 z"
         style="fill:#000000;stroke:#000000"
         inkscape:connector-curvature="0" />
      <path
         id="path10539"
         d="m 386.71429,183.71946 0,-4.5 -57.5,0 -57.5,0 0,4.5 0,4.5 57.5,0 57.5,0 0,-4.5 z"
         style="fill:#000000;stroke:#000000"
         inkscape:connector-curvature="0" />
      <path
         id="path10535"
         d="m 386.71429,171.8503 c 0,-3.11639 -0.28134,-3.41566 -3.75,-3.98899 -6.58984,-1.08924 -103.43122,-0.71923 -107.5,0.41073 -3.25162,0.90302 -3.75,1.43388 -3.75,3.99442 l 0,2.953 57.5,0 57.5,0 0,-3.36916 z"
         style="fill:#000000;stroke:#000000"
         inkscape:connector-curvature="0" />
      <path
         d="m 472.13924,513.57634 0,-3.539 -8.73876,0.289 c -7.50325,0.248 -8.78764,0.5446 -9.08457,2.0973 -0.78437,4.1017 0.38398,4.6916 9.29194,4.6916 l 8.53139,0 0,-3.5389 z m 7,0.039 c 0,-2.8334 -0.381,-3.5 -2,-3.5 -1.6191,0 -2,0.6666 -2,3.5 0,2.8333 0.3809,3.5 2,3.5 1.619,0 2,-0.6667 2,-3.5 z m 20.5,0 0,-3 -8.6521,-0.2875 -8.6521,-0.2875 0.1013,3.5735 0.1013,3.5735 8.5508,-0.286 8.5508,-0.286 0,-3 z m 12.5,0 c 0,-3.4815 -0.024,-3.5 -4.5,-3.5 -4.4762,0 -4.5,0.019 -4.5,3.5 0,3.4814 0.024,3.5 4.5,3.5 4.4762,0 4.5,-0.018 4.5,-3.5 z m -57.9704,5.14942 c -3.14962,-3.1496 -3.20824,-7.4887 -0.1401,-10.3711 2.26458,-2.1275 2.92884,-2.1743 30.82566,-2.1743 28.5095,0 28.5114,1e-4 30.6856,2.3144 2.8843,3.0702 2.7717,7.1791 -0.2803,10.231 l -2.4545,2.4546 -28.0909,0 -28.09092,0 -2.45454,-2.4546 z"
         style="fill:#ffffff;stroke:#000000"
         id="path10700"
         inkscape:connector-curvature="0" />
    </g>
  </g>
</svg>
