<?xml version="1.0" encoding="UTF-8" standalone="no"?>
<!-- Created with Inkscape (http://www.inkscape.org/) -->

<svg
   xmlns:dc="http://purl.org/dc/elements/1.1/"
   xmlns:cc="http://creativecommons.org/ns#"
   xmlns:rdf="http://www.w3.org/1999/02/22-rdf-syntax-ns#"
   xmlns:svg="http://www.w3.org/2000/svg"
   xmlns="http://www.w3.org/2000/svg"
   xmlns:sodipodi="http://sodipodi.sourceforge.net/DTD/sodipodi-0.dtd"
   xmlns:inkscape="http://www.inkscape.org/namespaces/inkscape"
   width="10mm"
   height="10mm"
   viewBox="0 0 35.433071 35.433071"
   id="svg4767"
   version="1.1"
   inkscape:version="0.91 r13725"
   sodipodi:docname="MasterBall.svg">
  <defs
     id="defs4769" />
  <sodipodi:namedview
     id="base"
     pagecolor="#ffffff"
     bordercolor="#666666"
     borderopacity="1.0"
     inkscape:pageopacity="0.0"
     inkscape:pageshadow="2"
     inkscape:zoom="7.9195959"
     inkscape:cx="3.2261749"
     inkscape:cy="22.902825"
     inkscape:document-units="px"
     inkscape:current-layer="layer1"
     showgrid="false"
     inkscape:window-width="1920"
     inkscape:window-height="1137"
     inkscape:window-x="-8"
     inkscape:window-y="-8"
     inkscape:window-maximized="1" />
  <metadata
     id="metadata4772">
    <rdf:RDF>
      <cc:Work
         rdf:about="">
        <dc:format>image/svg+xml</dc:format>
        <dc:type
           rdf:resource="http://purl.org/dc/dcmitype/StillImage" />
        <dc:title></dc:title>
      </cc:Work>
    </rdf:RDF>
  </metadata>
  <g
     inkscape:label="Layer 1"
     inkscape:groupmode="layer"
     id="layer1"
     transform="translate(0,-1016.9291)">
    <path
       style="fill:none;stroke:#000000;stroke-width:0.17930567"
       d="m 22.007845,1051.8183 c 5.225582,-1.4194 9.112595,-4.5442 11.431884,-9.1902 0.660001,-1.3224 1.45926,-3.6214 1.310789,-3.7708 -0.0496,-0.05 -0.279932,0.1032 -0.511141,0.345 -1.985886,2.0437 -8.015193,4.274 -12.320898,4.5575 -1.808502,0.1209 -1.84383,0.1316 -2.127482,0.6576 -0.529603,0.9855 -1.250303,1.6794 -2.363263,2.2751 -1.075859,0.5755 -1.146126,0.588 -2.842619,0.5058 -1.558016,-0.075 -1.849676,-0.1458 -2.795385,-0.6818 -1.14648,-0.6487 -1.8796183,-1.4077 -2.5769674,-2.6671 -0.4033144,-0.7291 -0.5895223,-0.8653 -1.8917722,-1.3878 -2.0951303,-0.8404 -5.0462852,-2.7204 -6.1474803,-3.9162 -0.63278765,-0.6875 -0.72534233,-0.5865 -0.44626092,0.4866 0.64487082,2.4793 1.78330752,4.63 3.58241882,6.7675 2.8059445,3.3339 6.045393,5.2911 10.271655,6.2055 1.534487,0.3344 5.927008,0.2241 7.426522,-0.1849 z"
       id="path5384"
       inkscape:connector-curvature="0" />
    <path
       style="fill:none;stroke:#000000;stroke-width:0.17930567"
       d="m 16.907699,1045.1123 c 0.544839,-0.3954 1.252677,-1.7356 1.252677,-2.3726 0,-0.256 -0.206228,-0.8809 -0.458734,-1.3895 -1.247504,-2.5131 -4.838639,-3.1185 -6.35307,-1.0709 -0.640336,0.8657 -0.714039,2.7062 -0.148825,3.7159 0.773285,1.381 2.671223,2.113 4.352125,1.6773 0.499625,-0.1316 1.109699,-0.3816 1.355791,-0.5602 z"
       id="path5380"
       inkscape:connector-curvature="0" />
    <path
       style="fill:none;stroke:#000000;stroke-width:0.17930567"
       d="m 13.776041,1044.911 c -0.703266,-0.1707 -1.235172,-0.515 -1.516947,-0.9819 -0.160872,-0.2668 -0.06449,-0.2241 0.327415,0.1458 0.437473,0.4129 0.764461,0.5413 1.541325,0.606 1.57917,0.1316 2.349691,-0.5761 2.129926,-1.9561 -0.283474,-1.7787 -2.555954,-2.66 -4.001147,-1.5521 -0.159454,0.1209 -0.06272,0 0.215088,-0.2739 0.678887,-0.6643 1.818883,-0.6828 2.824016,-0.046 0.745717,0.4727 1.12848,1.0535 1.337933,2.0298 0.16973,0.792 -0.527761,1.7413 -1.474001,2.0055 -0.367208,0.1032 -0.707909,0.1779 -0.757127,0.1707 -0.04925,0 -0.330958,-0.075 -0.626339,-0.1493 z"
       id="path5378"
       inkscape:connector-curvature="0" />
    <path
       style="fill:none;stroke:#000000;stroke-width:0.17930567"
       d="m 11.759611,1042.3834 c 0,-0.3486 0.03685,-0.4873 0.08186,-0.3166 0.045,0.1743 0.045,0.4563 0,0.6292 -0.045,0.1743 -0.08186,0.036 -0.08186,-0.3165 z"
       id="path5376"
       inkscape:connector-curvature="0" />
    <path
       style="fill:none;stroke:#000000;stroke-width:0.17930567"
       d="m 25.300799,1041.1947 c 3.103523,-0.4755 6.7555,-2.0165 8.977414,-3.7877 0.666628,-0.5317 0.882954,-0.8344 0.976679,-1.3686 0.06626,-0.3774 0.0783,-0.7281 0.02834,-0.7793 -0.05103,-0.05 -0.441796,0.1067 -0.867788,0.3557 -2.734793,1.5788 -8.29392,0.8276 -10.616964,-1.434 -1.498557,-1.4593 -2.769624,-3.4716 -3.505633,-5.5508 -0.58814,-1.6617 -0.555505,-4.7186 0.07051,-6.6356 0.399098,-1.2217 1.388568,-3.1444 1.618076,-3.1444 0.03862,0 -0.234575,0.5862 -0.607629,1.3025 -1.528534,2.9377 -1.63955,7.1338 -0.257608,9.7362 1.16076,2.1858 2.90222,4.2789 4.060855,4.8807 1.514254,0.7856 2.874191,1.0552 5.33178,1.0545 2.282755,-3e-4 2.477645,-0.036 3.537345,-0.5182 1.348457,-0.622 1.369009,-0.6782 1.252075,-3.3962 -0.073,-1.6951 -0.190636,-2.3267 -0.752804,-4.0296 -1.110054,-3.3638 -2.975001,-6.0804 -5.260556,-7.6624 -2.352491,-1.6285 -5.518591,-2.5184 -6.548705,-1.8409 -0.663898,0.4371 -0.803581,0.345 -0.212252,-0.1422 l 0.515217,-0.4233 -1.320499,-0.3165 c -3.001188,-0.7184 -7.111402,-0.5207 -9.826918,0.4734 l -1.008251,0.3695 0.247333,0.9297 c 0.409692,1.5411 0.0071,3.4705 -1.3450555,6.4545 -0.6470323,1.4277 -2.3207767,4.0606 -3.2184365,5.0632 -0.7127632,0.7956 -1.8104149,1.6706 -3.0852387,2.458 -0.954603,0.5897 -2.51279566,0.881 -2.91603923,0.5449 -0.13358773,-0.1138 -0.296586,-0.1494 -0.36104119,-0.085 -0.19843269,0.1992 -0.13110732,1.1154 0.12720952,1.7363 0.6879236,1.6528 5.2295164,4.4031 8.212633,4.9729 0.6584423,0.1245 0.6804115,0.1138 1.0031836,-0.6199 0.4424341,-1.0044 1.356465,-2.0205 2.211284,-2.4584 0.735761,-0.3766 2.54901,-0.4826 4.145933,-0.2418 1.418545,0.2134 3.429625,2.177 3.833542,3.7426 0.110201,0.4275 0.271782,0.5893 0.67088,0.6733 0.688348,0.1458 2.791487,0 4.892216,-0.313 z"
       id="path5372"
       inkscape:connector-curvature="0" />
    <path
       style="fill:none;stroke:#000000;stroke-width:0.17930567"
       d="m 13.563364,1035.5116 c -0.185677,-0.3236 -0.64923,-1.2914 -1.03022,-2.156 -0.380991,-0.8646 -0.715669,-1.5723 -0.743697,-1.5723 -0.02834,0 -0.31076,0.6871 -0.628501,1.5265 -0.704259,1.8615 -0.881076,1.9152 -0.238119,0.071 0.255128,-0.7309 0.507563,-1.4703 0.560962,-1.6432 0.0535,-0.1742 0.166188,-0.3165 0.250522,-0.3165 0.08433,0 0.602633,0.9304 1.151335,2.0675 l 0.99769,2.0678 0.908043,-1.7531 c 0.499448,-0.9645 1.0535,-1.9394 1.231239,-2.166 l 0.323162,-0.4129 0.449379,0.7722 c 0.246978,0.4246 0.700503,1.3116 1.007471,1.9714 0.71939,1.5468 0.861482,1.6602 1.529031,1.2203 0.290561,-0.1921 0.52854,-0.4233 0.52854,-0.5154 0,-0.2241 -3.017099,-6.4606 -3.131694,-6.4741 -0.144927,0 -2.348628,3.3589 -2.452238,3.7565 -0.09816,0.3763 -0.410969,0.5093 -0.410969,0.1743 0,-0.2276 -1.252606,-2.1166 -2.089212,-3.153 -0.614646,-0.7614 -0.708511,-0.9695 -0.437048,-0.9695 0.08681,0 0.692388,0.8084 1.345551,1.7965 0.653162,0.9883 1.219439,1.7964 1.258346,1.7964 0.03898,0 0.661419,-0.8479 1.383395,-1.8846 0.722011,-1.0368 1.363268,-1.8858 1.425101,-1.8865 0.06165,-10e-4 0.863679,1.5144 1.782032,3.3671 0.918318,1.853 1.744471,3.4207 1.835963,3.4844 0.218276,0.1529 -1.308415,1.2594 -1.644086,1.1932 -0.142091,-0.036 -0.673821,-0.86 -1.181382,-1.8476 -0.507599,-0.9884 -1.014063,-1.9587 -1.125575,-2.1564 -0.179298,-0.3201 -0.330603,-0.092 -1.306183,1.9316 -0.606956,1.2597 -1.127806,2.2908 -1.157536,2.2908 -0.02835,0 -0.205874,-0.2632 -0.391515,-0.584 z"
       id="path5368"
       inkscape:connector-curvature="0" />
    <path
       style="fill:none;stroke:#000000;stroke-width:0.17930567"
       d="m 8.5064131,1035.4779 c -0.2278432,-0.2775 0.1148075,-1.3654 1.2685872,-4.1769 2.3434187,-5.7098 0.7827457,-1.2868 -0.1973696,1.2174 -0.6148578,1.571 -1.0702964,2.6472 -0.8220428,2.7944 0.3712817,0.2205 0.5748524,0.3237 0.7485518,0.3977 0.068389,0.036 0.3454856,0.1565 0.3886092,0.075 0.8702331,-1.6681 0.4134131,-0.1601 0.1505961,0.1422 -0.068743,0.078 -0.2260714,0.1245 -0.2260714,0.1245 -0.3921526,-0.036 -1.1382241,-0.3603 -1.311144,-0.5698 z"
       id="path5366"
       inkscape:connector-curvature="0"
       sodipodi:nodetypes="sssssssss" />
    <path
       style="fill:none;stroke:#000000;stroke-width:0.17930567"
       d="m 2.6864531,1033.4229 c 0.8306534,-0.3788 2.5637859,-1.7538 3.3754819,-2.6778 0.3057989,-0.3486 0.7061369,-0.8024 0.8895454,-1.0097 0.1835502,-0.2099 0.7360081,-0.9731 1.227944,-1.7015 2.1243286,-3.1451 3.2801636,-7.0969 2.6263986,-8.9794 -0.227489,-0.6558 -0.217922,-0.654 -1.6411803,-0.2845 -2.5057443,0.6519 -4.2488691,1.9184 -6.0835212,4.4194 -1.9545266,2.6646 -2.49787775,3.9749 -2.82699255,6.817 -0.21225211,1.8345 -0.0868143,2.9171 0.40937373,3.5281 0.26115159,0.3237 1.18421802,0.2703 2.02295042,-0.1138 z"
       id="path5360"
       inkscape:connector-curvature="0" />
    <path
       style="opacity:1;fill:none;fill-opacity:1;stroke:#ff0000;stroke-width:0.15013483;stroke-linejoin:miter;stroke-miterlimit:4;stroke-dasharray:none;stroke-opacity:1"
       d="m 35.343336,1034.6232 c 0,9.743 -7.71198,17.6639 -17.50389,17.6639 -9.7919794,0 -17.72992488,-7.8982 -17.72992488,-17.6411 0,-4.3188 0.23634752,-7.9665 3.15865868,-11.8232 1.9037845,-2.5121 4.3547472,-3.9536 7.4648252,-4.3491 0.06272,0 0.04004,-0.071 0.415929,-0.2383 1.561665,-0.6938 4.889913,-1.2313 6.690512,-1.2313 1.704112,0 3.458151,0.3273 5.006032,0.742 0.719,0.192 0.469648,0.2134 1.07058,0.3378 0.554371,0.1138 1.455929,0.2028 2.346963,0.5364 2.066464,0.7767 4.1319,2.0799 5.245071,3.5768 3.560804,4.7887 3.835244,7.8605 3.835244,12.4261 z"
       id="path5388"
       inkscape:connector-curvature="0"
       sodipodi:nodetypes="ssssssssssss" />
  </g>
</svg>
