<?xml version="1.0" encoding="UTF-8" standalone="no"?>
<!-- Created with Inkscape (http://www.inkscape.org/) -->

<svg
   xmlns:dc="http://purl.org/dc/elements/1.1/"
   xmlns:cc="http://creativecommons.org/ns#"
   xmlns:rdf="http://www.w3.org/1999/02/22-rdf-syntax-ns#"
   xmlns:svg="http://www.w3.org/2000/svg"
   xmlns="http://www.w3.org/2000/svg"
   xmlns:sodipodi="http://sodipodi.sourceforge.net/DTD/sodipodi-0.dtd"
   xmlns:inkscape="http://www.inkscape.org/namespaces/inkscape"
   width="10mm"
   height="10mm"
   viewBox="0 0 35.433071 35.433071"
   id="svg16385"
   version="1.1"
   inkscape:version="0.91 r13725"
   sodipodi:docname="Moustache.svg">
  <defs
     id="defs16387" />
  <sodipodi:namedview
     id="base"
     pagecolor="#ffffff"
     bordercolor="#666666"
     borderopacity="1.0"
     inkscape:pageopacity="0.0"
     inkscape:pageshadow="2"
     inkscape:zoom="11.2"
     inkscape:cx="-3.5530215"
     inkscape:cy="29.071832"
     inkscape:document-units="px"
     inkscape:current-layer="layer1"
     showgrid="false"
     inkscape:window-width="1920"
     inkscape:window-height="1137"
     inkscape:window-x="-8"
     inkscape:window-y="-8"
     inkscape:window-maximized="1" />
  <metadata
     id="metadata16390">
    <rdf:RDF>
      <cc:Work
         rdf:about="">
        <dc:format>image/svg+xml</dc:format>
        <dc:type
           rdf:resource="http://purl.org/dc/dcmitype/StillImage" />
        <dc:title></dc:title>
      </cc:Work>
    </rdf:RDF>
  </metadata>
  <g
     inkscape:label="Layer 1"
     inkscape:groupmode="layer"
     id="layer1"
     transform="translate(0,-1016.9291)">
    <g
       id="g16948"
       transform="translate(-357.28346,679.34197)">
      <path
         inkscape:connector-curvature="0"
         id="path16944"
         d="m 365.59087,369.37483 c -0.70068,-0.084 -1.79873,-0.36537 -2.4105,-0.61759 -0.78963,-0.32555 -1.15591,-0.59346 -1.66458,-1.21756 -0.41062,-0.50379 -0.6423,-1.19882 -0.67952,-2.03849 -0.0209,-0.47244 -0.016,-0.51376 0.10677,-0.89325 0.13212,-0.4084 0.40098,-0.86973 0.66719,-1.14484 0.0741,-0.0766 0.30628,-0.22217 0.51593,-0.32353 0.32356,-0.15643 0.43017,-0.18746 0.70521,-0.20528 0.33817,-0.0219 0.77426,0.0467 1.04642,0.16472 0.14105,0.0611 0.13661,0.0621 -0.18741,0.0402 -0.65656,-0.0444 -1.0229,0.16553 -1.32398,0.75872 l -0.16041,0.31603 0,0.51979 c 0,0.46116 0.0109,0.54184 0.0963,0.71539 0.13364,0.27135 0.41257,0.50694 0.67466,0.56981 0.50609,0.12141 1.09169,-0.0387 2.2011,-0.60179 0.66621,-0.33816 1.1252,-0.59523 2.91017,-1.62994 1.1433,-0.66275 1.83612,-0.97739 2.60157,-1.18148 0.38795,-0.10344 0.49827,-0.11507 1.07226,-0.113 1.07585,0.004 1.62302,0.16554 2.6454,0.78153 0.51919,0.31282 0.47858,0.31199 0.90915,0.0185 0.33916,-0.23119 0.61564,-0.36251 1.18114,-0.56103 0.66015,-0.23176 1.02539,-0.28268 1.80477,-0.25162 1.6389,0.0653 2.24119,0.31923 4.94001,2.08264 1.09437,0.71506 1.57972,0.98953 2.1407,1.21056 0.67665,0.26662 1.17934,0.2679 1.72524,0.004 0.54335,-0.26226 0.69766,-0.54713 0.65944,-1.21738 -0.0183,-0.32077 -0.0408,-0.40663 -0.17701,-0.67497 -0.27438,-0.54057 -0.76181,-0.88154 -1.26021,-0.88154 -0.22564,0 -0.4401,0.0728 -0.52849,0.17937 -0.0312,0.0376 -0.0764,0.0683 -0.1006,0.0683 -0.107,0 0.22651,-0.26709 0.50605,-0.40527 0.29076,-0.14372 0.32898,-0.1519 0.70174,-0.15026 0.38333,0.002 0.40394,0.007 0.7451,0.1827 0.27142,0.13998 0.42566,0.25762 0.68111,0.51948 0.53688,0.55036 0.72264,0.92786 0.8112,1.64849 0.0886,0.72091 -0.0437,1.32912 -0.42657,1.96125 -0.45779,0.75582 -0.74297,1.02642 -1.54045,1.46177 -0.44946,0.24536 -0.64322,0.32212 -1.30029,0.51516 -1.02653,0.30157 -1.69181,0.36532 -3.12389,0.29935 -1.48869,-0.0686 -2.53125,-0.2459 -3.93302,-0.66892 -1.4928,-0.45049 -2.35398,-0.88671 -3.46006,-1.75264 -0.20254,-0.15857 -0.38171,-0.26751 -0.43996,-0.26751 -0.0591,0 -0.23563,0.10933 -0.44262,0.27409 -1.00517,0.8001 -1.57472,1.09728 -3.10828,1.62184 -1.21397,0.41525 -2.53604,0.69842 -3.95777,0.84773 -0.54015,0.0567 -1.49366,0.0756 -1.82304,0.0361 z"
         style="fill:#000000" />
      <ellipse
         ry="7.0634036"
         rx="17.693325"
         cy="365.93362"
         cx="375"
         id="path16946"
         style="opacity:1;fill:none;fill-opacity:1;stroke:#ff0000;stroke-width:0.04642146;stroke-linejoin:miter;stroke-miterlimit:4;stroke-dasharray:none;stroke-opacity:1" />
    </g>
  </g>
</svg>
