<?xml version="1.0" encoding="UTF-8" standalone="no"?>
<!-- Created with Inkscape (http://www.inkscape.org/) -->

<svg
   xmlns:dc="http://purl.org/dc/elements/1.1/"
   xmlns:cc="http://creativecommons.org/ns#"
   xmlns:rdf="http://www.w3.org/1999/02/22-rdf-syntax-ns#"
   xmlns:svg="http://www.w3.org/2000/svg"
   xmlns="http://www.w3.org/2000/svg"
   xmlns:sodipodi="http://sodipodi.sourceforge.net/DTD/sodipodi-0.dtd"
   xmlns:inkscape="http://www.inkscape.org/namespaces/inkscape"
   width="10mm"
   height="10mm"
   viewBox="0 0 35.433071 35.433071"
   id="svg4204"
   version="1.1"
   inkscape:version="0.91 r13725"
   sodipodi:docname="Poleball.svg">
  <defs
     id="defs4206" />
  <sodipodi:namedview
     id="base"
     pagecolor="#ffffff"
     bordercolor="#666666"
     borderopacity="1.0"
     inkscape:pageopacity="0.0"
     inkscape:pageshadow="2"
     inkscape:zoom="11.313708"
     inkscape:cx="48.759345"
     inkscape:cy="20.001109"
     inkscape:document-units="mm"
     inkscape:current-layer="layer1"
     showgrid="false"
     inkscape:window-width="1920"
     inkscape:window-height="1137"
     inkscape:window-x="-8"
     inkscape:window-y="-8"
     inkscape:window-maximized="1" />
  <metadata
     id="metadata4209">
    <rdf:RDF>
      <cc:Work
         rdf:about="">
        <dc:format>image/svg+xml</dc:format>
        <dc:type
           rdf:resource="http://purl.org/dc/dcmitype/StillImage" />
        <dc:title></dc:title>
      </cc:Work>
    </rdf:RDF>
  </metadata>
  <g
     inkscape:label="Layer 1"
     inkscape:groupmode="layer"
     id="layer1"
     transform="translate(0,-1016.9291)">
    <path
       style="fill:#000000"
       d="m 16.232369,1052.3211 c -8.4565895,-0.7922 -15.1727895,-7.3241 -16.14590952,-15.7026 -0.14192,-1.222 -0.10435,-3.4655 0.0777,-4.6383 0.55625,-3.584 2.20721002,-6.915 4.72510002,-9.5335 3.45049,-3.5884 7.9420295,-5.5176 12.8459795,-5.5176 6.79043,0 12.92673,3.841 15.92776,9.9698 0.83398,1.7032 1.36776,3.4654 1.64748,5.4388 0.14694,1.0367 0.1655,3.3126 0.0356,4.3616 -0.48379,3.9058 -2.16046,7.41 -4.9007,10.2424 -2.79924,2.8934 -6.23233,4.6638 -10.16759,5.2432 -1.08902,0.1604 -3.0741,0.2272 -4.04537,0.1362 z m 3.13376,-2.1479 c 3.59543,-0.3913 6.97922,-2.0215 9.56759,-4.6095 1.8852,-1.8849 3.19902,-4.1463 3.92643,-6.7584 0.45041,-1.6174 0.51256,-2.1504 0.2661,-2.2822 -0.0911,-0.049 -1.63914,-0.074 -4.52841,-0.074 -3.91886,0 -4.40763,0.012 -4.55441,0.115 -0.0904,0.063 -0.2716,0.3501 -0.40259,0.6373 -0.63919,1.4013 -1.73683,2.5123 -3.18782,3.2265 -1.86597,0.9185 -4.56558,0.7437 -6.33456,-0.4101 -0.99922,-0.6517 -1.71573,-1.4741 -2.34505,-2.6915 -0.18691,-0.3616 -0.41051,-0.7069 -0.49689,-0.7673 -0.13714,-0.096 -0.71212,-0.1099 -4.5335795,-0.1099 -3.8257,0 -4.38786,0.014 -4.46666,0.1085 -0.27236,0.3279 0.52455,3.1539 1.37784,4.8861 1.55948,3.1658 4.18946,5.7546 7.3898395,7.2741 1.69961,0.807 3.28478,1.2399 5.43889,1.4852 0.50716,0.058 2.24382,0.04 2.88328,-0.03 z m -0.40915,-11.9279 c 1.25235,-0.3984 2.26725,-1.48 2.60083,-2.7718 0.14137,-0.5475 0.14524,-1.58 0.008,-2.0958 -0.25236,-0.9475 -0.8362,-1.7645 -1.62565,-2.2749 -0.67788,-0.4383 -1.2428,-0.6074 -2.15262,-0.6444 -0.68286,-0.028 -0.83905,-0.01 -1.36881,0.1549 -0.33329,0.1038 -0.79148,0.3153 -1.03508,0.4779 -1.97085,1.3149 -2.32006,4.2776 -0.71187,6.0393 0.59348,0.6501 1.41546,1.1108 2.27637,1.2756 0.40324,0.077 1.54901,-0.014 2.00896,-0.1608 z m -1.97318,-0.8961 c -0.79004,-0.1959 -1.49075,-0.6962 -1.87554,-1.3389 -0.71828,-1.2 -0.55168,-2.7322 0.40051,-3.6836 0.88339,-0.8826 2.40562,-1.1237 3.55304,-0.5628 1.10027,0.5378 1.75261,1.8609 1.54293,3.1294 -0.29379,1.7774 -1.91706,2.8784 -3.62094,2.4559 z m 1.586,-0.6246 c 0.5188,-0.194 1.03522,-0.6701 1.28906,-1.1884 0.27647,-0.5646 0.31454,-1.3858 0.0919,-1.983 -0.21739,-0.5831 -0.80411,-1.1728 -1.37735,-1.3844 -1.20198,-0.4436 -2.57753,0.04 -3.09026,1.0875 -0.70957,1.4491 -0.0297,3.099 1.46485,3.5549 0.37809,0.1153 1.19885,0.072 1.62179,-0.087 z m -7.02354,-4.9232 c 0.10545,-0.098 0.26561,-0.3235 0.35591,-0.5005 0.39591,-0.7758 1.34236,-1.8341 2.07458,-2.3197 0.56717,-0.3762 1.34857,-0.7298 2.00514,-0.9075 0.86889,-0.2351 2.45831,-0.2213 3.40878,0.03 1.74601,0.461 2.98123,1.4279 3.9762,3.1125 0.2567,0.4347 0.45458,0.6891 0.57004,0.7329 0.10322,0.039 1.97426,0.067 4.4939,0.067 4.06274,0 4.3265,-0.01 4.47736,-0.1297 l 0.1603,-0.1297 -0.22818,-0.8765 c -0.73721,-2.8321 -1.86182,-4.9211 -3.75864,-6.9818 -3.44747,-3.7452 -8.90027,-5.5871 -13.96071,-4.7157 -4.71009,0.811 -9.0250195,3.9693 -11.3017595,8.2722 -0.6553,1.2385 -1.28072,3.0308 -1.37697,3.9462 -0.038,0.3613 -0.0251,0.4358 0.0902,0.5199 0.1113,0.081 0.8837,0.095 4.47834,0.079 l 4.3438295,-0.02 0.19172,-0.1787 z"
       id="path4763"
       inkscape:connector-curvature="0" />
    <ellipse
       style="opacity:1;fill:none;fill-opacity:1;stroke:#ff0000;stroke-width:0.97549558;stroke-linejoin:miter;stroke-miterlimit:4;stroke-dasharray:none;stroke-opacity:1"
       id="path4765"
       cx="17.716536"
       cy="1034.6456"
       rx="17.228786"
       ry="17.228788" />
  </g>
</svg>
