<?xml version="1.0" encoding="UTF-8" standalone="no"?>
<!-- Created with Inkscape (http://www.inkscape.org/) -->

<svg
   xmlns:dc="http://purl.org/dc/elements/1.1/"
   xmlns:cc="http://creativecommons.org/ns#"
   xmlns:rdf="http://www.w3.org/1999/02/22-rdf-syntax-ns#"
   xmlns:svg="http://www.w3.org/2000/svg"
   xmlns="http://www.w3.org/2000/svg"
   xmlns:sodipodi="http://sodipodi.sourceforge.net/DTD/sodipodi-0.dtd"
   xmlns:inkscape="http://www.inkscape.org/namespaces/inkscape"
   width="10mm"
   height="10mm"
   viewBox="0 0 35.433071 35.433071"
   id="svg5391"
   version="1.1"
   inkscape:version="0.91 r13725"
   sodipodi:docname="Raspberry Pi.svg">
  <defs
     id="defs5393" />
  <sodipodi:namedview
     id="base"
     pagecolor="#ffffff"
     bordercolor="#666666"
     borderopacity="1.0"
     inkscape:pageopacity="0.0"
     inkscape:pageshadow="2"
     inkscape:zoom="11.2"
     inkscape:cx="10.087891"
     inkscape:cy="25.403792"
     inkscape:document-units="px"
     inkscape:current-layer="layer1"
     showgrid="false"
     inkscape:window-width="1920"
     inkscape:window-height="1137"
     inkscape:window-x="-8"
     inkscape:window-y="-8"
     inkscape:window-maximized="1" />
  <metadata
     id="metadata5396">
    <rdf:RDF>
      <cc:Work
         rdf:about="">
        <dc:format>image/svg+xml</dc:format>
        <dc:type
           rdf:resource="http://purl.org/dc/dcmitype/StillImage" />
        <dc:title></dc:title>
      </cc:Work>
    </rdf:RDF>
  </metadata>
  <g
     inkscape:label="Layer 1"
     inkscape:groupmode="layer"
     id="layer1"
     transform="translate(0,-1016.9291)">
    <g
       id="g5992"
       transform="matrix(0.03988996,0,0,0.03988996,4.7371155,1009.854)">
      <path
         id="path5989"
         d="m 311,1065.9633 c -31.43903,-2.8 -60.76337,-15.9545 -86.65525,-38.8721 -8.12299,-7.1899 -10.43369,-8.6239 -20.49403,-12.7183 C 176.7699,1003.3513 153.76189,989.70649 130,970.57596 c -2.475,-1.9926 -5.1387,-3.62729 -5.91934,-3.63262 -2.99197,-0.0205 -19.96837,-9.38924 -28.391396,-15.66838 -30.57884,-22.79572 -52.68775,-57.50194 -59.20485,-92.93882 -0.90048,-4.89638 -3.585826,-14.75251 -5.967426,-21.90251 -7.07231,-21.23234 -10.870143,-35.14319 -12.07577,-44.23165 -0.528404,-3.9833 -1.71893,-6.27829 -6.074477,-11.70984 C 7.0867763,773.90782 -2.1613077,758.96539 -5.3085317,751.93363 -11.800635,737.4285 -14.53975,727.52839 -16.631205,711.00956 c -1.702221,-13.44457 -1.70375,-14.69522 -0.03409,-27.88263 5.232317,-41.32614 24.3921033,-75.75447 54.860289,-98.57878 2.03225,-1.52239 5.0487,-4.87755 6.70323,-7.45591 2.73489,-4.26195 3.06175,-5.68611 3.59722,-15.67327 3.12415,-58.26922 24.28872,-94.83747 70.254556,-121.38615 3.9875,-2.30307 7.25,-4.5324 7.25,-4.95405 0,-0.42165 -2.72307,-1.58232 -6.05126,-2.57927 -9.88913,-2.96226 -15.31964,-6.16197 -18.88571,-11.12763 -1.795686,-2.50046 -3.589016,-5.75947 -3.985166,-7.24226 -0.74621,-2.79309 -1.70026,-3.43325 -11.31332,-7.59124 -10.42141,-4.50762 -15.18613,-9.38539 -19.15037,-19.60474 -1.10934,-2.85973 -4.58113,-7.41604 -9.5247,-12.5 -9.51251,-9.78267 -12.08947,-14.0899 -12.08947,-20.20682 0,-4.21152 -0.41915,-4.99438 -5.0526,-9.43689 -2.9125,-2.79248 -6.142636,-7.22536 -7.626106,-10.46568 -2.20294,-4.81186 -2.50329,-6.6029 -2.08578,-12.43813 l 0.48774,-6.81682 -3.94802,-3.81783 c -7.624285,-7.37286 -10.848246,-17.94974 -7.379148,-24.20883 1.199438,-2.16408 0.911348,-3.20209 -3.035435,-10.93691 -5.447683,-10.67625 -5.85962,-16.64733 -1.678465,-24.32948 l 2.682181,-4.92806 -1.79626,-4.99523 c -2.686949,-7.47215 -1.870093,-16.58836 1.98463,-22.14874 4.370137,-6.30386 10.790277,-9.17875 21.447263,-9.60393 8.45657,-0.33739 8.52299,-0.36087 13,-4.59651 2.475,-2.34157 6.075,-4.95968 8,-5.81803 4.2675,-1.90287 15.87283,-3.75211 23.5472,-3.75211 4.56668,0 6.23367,-0.47927 8.60391,-2.4737 3.99056,-3.35783 10.069036,-4.98602 17.812576,-4.77129 5.73506,0.15903 7.02879,-0.18342 11.47669,-3.03789 6.74607,-4.32932 17.59478,-5.06613 26.54468,-1.80284 l 5.84797,2.13228 5.33348,-3.23772 c 7.05561,-4.28314 13.90956,-4.21405 25.12632,0.25328 6.67793,2.65964 8.23725,2.94875 10.89922,2.02078 7.4162,-2.5853 15.11559,-0.91619 25.30795,5.48637 3.06545,1.92563 4.97009,2.41757 8.15211,2.10558 5.33344,-0.52293 13.3262,0.74649 17.66564,2.80569 1.87115,0.88792 6.27763,4.51596 9.79217,8.06231 6.25643,6.31305 6.50093,6.44801 11.68974,6.45253 5.75655,0.005 9.21992,1.43666 16.20034,6.69669 14.70376,11.07987 27.68321,28.49924 35.62246,47.80793 1.35688,3.3 2.91189,6.9 3.45558,8 0.5437,1.1 1.58572,4.025 2.31562,6.5 0.7299,2.475 1.88505,4.5 2.56701,4.5 0.68195,0 2.02483,-2.025 2.98417,-4.5 8.41966,-21.72178 26.04835,-48.92817 38.32198,-59.14238 9.88387,-8.22545 13.02111,-9.85703 18.96331,-9.86224 5.15217,-0.005 5.41259,-0.14863 11.65995,-6.45253 3.51454,-3.54635 7.92102,-7.17439 9.79217,-8.06231 4.33944,-2.0592 12.3322,-3.32862 17.66564,-2.80569 3.18202,0.31199 5.08666,-0.17995 8.15211,-2.10558 10.33503,-6.49218 17.17656,-7.94488 25.57141,-5.42973 3.26069,0.97693 4.41884,0.85118 8.11602,-0.88126 8.66927,-4.06228 14.12203,-5.43599 18.7994,-4.73609 4.67082,0.69892 9.32364,2.67761 12.18341,5.1812 1.47485,1.29117 2.37722,1.20444 7.71397,-0.74144 5.0487,-1.84085 7.57258,-2.13653 15.32976,-1.79595 7.85359,0.34481 10.34379,0.90298 16.14317,3.61845 6.47576,3.03217 7.31004,3.17786 15,2.61939 9.20351,-0.6684 14.03443,0.73592 17.44439,5.07098 1.70636,2.16928 2.78468,2.52518 7.65084,2.52518 14.76897,0 25.9322,3.5766 32.4938,10.41071 3.29615,3.43305 3.74379,3.58929 10.28324,3.58929 18.51081,0 28.25305,15.25751 21.12204,33.07966 -1.33575,3.33838 -1.28444,4.18234 0.59315,9.75589 2.30512,6.84263 2.6979,16.59072 0.84082,20.8674 -0.66802,1.53838 -2.21137,4.42548 -3.42967,6.41577 -1.78819,2.9213 -2.20031,5.04582 -2.13839,11.02339 0.0836,8.06681 -1.6076,13.11584 -7.43483,22.19679 -2.64026,4.11449 -3.083,5.69398 -2.89545,10.32977 0.36602,9.04711 -3.37404,17.0352 -10.47742,22.37781 -2.66547,2.00477 -3.44651,3.48897 -4.27028,8.11476 -1.85491,10.41599 -8.56488,19.89096 -18.69934,26.40483 -3.78843,2.43499 -5.37896,4.21743 -6.32937,7.09309 -3.02454,9.15133 -9.66495,15.36143 -21.59191,20.19273 -3.79016,1.5353 -7.19151,3.4342 -7.55854,4.21978 -4.97527,10.64873 -7.3723,13.59241 -13.60336,16.70567 -2.12127,1.05987 -6.66936,2.75371 -10.10686,3.7641 -3.4375,1.01039 -6.25,2.13901 -6.25,2.50806 0,0.36904 4.3875,3.49264 9.75,6.94133 26.33433,16.93594 41.75774,32.97032 52.71482,54.80304 8.26093,16.46047 13.76522,40.06664 14.945,64.09443 0.52078,10.60626 0.77603,11.72623 3.71706,16.30942 1.83526,2.86 5.50653,6.52274 8.7655,8.74511 25.24472,17.21501 44.91264,47.98946 52.7622,82.55717 2.86295,12.60775 2.58585,38.83284 -0.54944,52 -5.26779,22.12299 -16.90741,43.99281 -32.74261,61.52048 -3.20831,3.55122 -4.97656,7.8328 -13.12967,31.79172 -5.18211,15.22829 -10.5334,32.6378 -11.89175,38.6878 -3.5618,15.86399 -9.02177,32.48821 -14.09748,42.9232 -10.7223,22.04368 -28.71581,43.10891 -49.47794,57.92446 -7.37564,5.26314 -23.06507,13.6513 -25.54016,13.65473 -0.94904,10e-4 -5.89251,3.35818 -10.98548,7.45972 -20.04599,16.14367 -42.89736,29.34446 -69.34795,40.06086 -8.47219,3.4325 -12.5455,5.7134 -15.8921,8.8991 -32.91905,31.3361 -74.79252,46.4559 -118,42.6076 z"
         style="fill:none;stroke:#ff0000"
         inkscape:connector-curvature="0" />
      <path
         id="path5987"
         d="m 344.5,1038.8168 c 12.87347,-2.147 33.88948,-10.8365 47.34799,-19.577 17.61823,-11.442 33.40993,-27.12905 35.43966,-35.20486 2.66412,-10.59988 -11.78154,-22.25435 -37.78765,-30.48633 -15.82255,-5.00846 -24.04369,-6.00101 -50,-6.03654 -19.5169,-0.0267 -27.41256,0.36222 -36,1.77335 -34.01262,5.5891 -58.4348,14.45257 -69.03796,25.05574 -6.74242,6.74241 -7.51422,9.923 -4.1,16.89593 3.04573,6.22032 13.48864,17.25041 23.13796,24.43881 16.29098,12.1363 39.55754,22.1521 56.08711,24.1444 8.68394,1.0467 25.52181,0.5627 34.91289,-1.0035 z"
         style="fill:#000000;stroke:none"
         inkscape:connector-curvature="0" />
      <path
         id="path5985"
         d="m 190.4691,948.02896 c 7.80668,-2.74383 10.15333,-4.4305 13.49487,-9.69956 11.28206,-17.78996 8.37819,-52.4479 -7.00445,-83.59875 -12.14995,-24.60444 -38.40762,-50.85603 -64.25472,-64.23983 -12.12599,-6.27893 -20.39087,-8.75049 -31.12762,-9.30854 -25.832096,-1.34265 -39.665856,15.34799 -39.682376,47.87739 -0.0154,30.27486 12.99217,63.70994 32.82478,84.37396 11.619116,12.10621 22.808606,20.70381 34.893866,26.81118 7.10344,3.58978 22.01831,8.55208 29.02758,9.65771 9.10784,1.43666 25.08594,0.49611 31.82807,-1.87356 z"
         style="fill:#000000;stroke:none"
         inkscape:connector-curvature="0" />
      <path
         id="path5983"
         d="m 499.16203,949.52234 c 27.14685,-5.22106 53.49358,-23.34104 74.07754,-50.94688 14.26817,-19.13551 21.06379,-41.32011 21.02647,-68.64183 -0.0308,-22.52424 -3.77743,-39.7114 -12.61619,-57.8746 -5.49228,-11.28635 -20.02986,-15.88355 -35.42403,-11.20211 -16.3661,4.97701 -31.34778,15.22267 -51.2908,35.07671 -25.28274,25.16993 -37.72414,43.72074 -47.32388,70.56247 -11.56014,32.32321 -10.37049,62.68532 2.91239,74.32941 4.53883,3.97886 12.44795,7.67483 19.188,8.96666 7.39905,1.41813 21.338,1.29042 29.4505,-0.26983 z"
         style="fill:#000000;stroke:none"
         inkscape:connector-curvature="0" />
      <path
         id="path5981"
         d="m 346.75765,912.92921 c 34.24595,-4.44806 65.93853,-28.4412 77.92738,-58.99558 4.99844,-12.73885 5.75767,-16.93722 5.78687,-32 0.029,-14.94731 -0.97188,-20.99139 -5.39464,-32.57788 C 414.11393,760.63462 385.99138,738.08544 352,730.76108 c -13.31318,-2.86868 -34.04941,-2.87053 -46.5,-0.004 -37.6367,8.66477 -65.53187,34.54527 -74.56176,69.17669 -3.17311,12.16949 -3.14751,30.21742 0.0594,41.90753 7.36644,26.85251 26.5882,48.96524 53.50232,61.54913 19.76296,9.2403 40.31407,12.38908 62.25765,9.53892 z"
         style="fill:#000000;stroke:none"
         inkscape:connector-curvature="0" />
      <path
         id="path5979"
         d="m 52.000004,771.90706 c 10.59027,-7.53135 20.64018,-31.07037 26.88631,-62.97343 4.25928,-21.75491 5.47881,-33.95662 5.54711,-55.5 0.0544,-17.16024 -0.27483,-22.45731 -1.80062,-28.97019 -3.7277,-15.9118 -9.02757,-23.033 -17.1328,-23.02057 -7.91311,0.0121 -29.0415,17.29242 -39.726056,32.49076 C 12.353719,653.02335 5.9178043,676.36 7.3190813,700.85105 c 1.063536,18.58813 5.8336427,35.00503 14.6466267,50.40815 4.58964,8.02165 15.939606,21.27686 19.450986,22.71611 2.6957,1.10491 7.41942,0.18177 10.58331,-2.06825 z"
         style="fill:#000000;stroke:none"
         inkscape:connector-curvature="0" />
      <path
         id="path5977"
         d="m 603.53968,770.93363 c 1.95193,0 8.35124,-6.36857 14.21064,-14.14239 12.53801,-16.63447 21.25527,-44.13618 21.24649,-67.0296 -0.011,-28.73751 -11.56528,-55.91513 -31.94508,-75.1404 -8.5808,-8.09469 -21.5684,-16.68132 -25.23663,-16.68495 -9.61097,-0.01 -15.87253,7.7573 -19.95684,24.75442 -3.17856,13.22773 -2.92077,43.68835 0.55637,65.74292 4.75427,30.15508 11.20904,52.6288 19.24554,67.00765 5.50025,9.84102 14.52585,17.32692 19.17162,15.90109 0.73248,-0.22481 1.95103,-0.40874 2.70789,-0.40874 z"
         style="fill:#000000;stroke:none"
         inkscape:connector-curvature="0" />
      <path
         id="path5975"
         d="m 219,746.88389 c 25.25275,-8.56622 35.35767,-14.37383 49.5019,-28.45026 12.22485,-12.16625 19.17505,-22.1377 26.07468,-37.40933 8.53772,-18.89738 11.39094,-31.75767 11.48242,-51.75459 0.0331,-7.24016 -0.45206,-16.01516 -1.0782,-19.5 -5.70069,-31.7282 -24.85086,-54.78989 -53.63462,-64.5898 -7.12166,-2.42469 -9.23129,-2.67241 -22.84618,-2.68266 -12.50134,-0.009 -16.27509,0.35571 -22.65466,2.19192 -21.96104,6.32097 -43.66979,20.06817 -58.91941,37.31109 -8.70954,9.84796 -11.02237,13.10786 -15.20651,21.43337 -9.78547,19.4709 -13.70669,34.28172 -14.46194,54.62409 -0.42221,11.3721 -0.15385,15.33916 1.62353,24 7.27294,35.43971 29.79351,58.77415 63.61899,65.91812 5.5051,1.16269 32.20849,0.36382 36.5,-1.09195 z"
         style="fill:#000000;stroke:none"
         inkscape:connector-curvature="0" />
      <path
         id="path5973"
         d="m 473.4398,742.83239 c 18.7191,-3.40159 29.37292,-8.62184 40.5602,-19.87404 16.30244,-16.39706 23.68474,-34.34518 24.68898,-60.02472 1.88434,-48.18513 -24.95589,-94.7826 -66.18898,-114.91105 -16.30007,-7.95708 -28.38688,-10.49401 -46.5,-9.75999 -14.0056,0.56757 -21.1429,2.36252 -32.5,8.17337 -42.85495,21.92671 -58.41676,81.62348 -33.88792,129.99767 12.77201,25.18813 33.34398,45.79538 56.85465,56.95216 17.87665,8.4832 41.09191,12.33248 56.97307,9.4466 z"
         style="fill:#000000;stroke:none"
         inkscape:connector-curvature="0" />
      <path
         id="path5971"
         d="m 569.33314,572.11801 c 2.6008,-2.87385 2.9857,-7.26408 1.74451,-19.89822 -1.92773,-19.62254 -4.34089,-29.49388 -10.43397,-42.68155 -12.24815,-26.50953 -33.33871,-45.00151 -62.14368,-54.48696 -13.22504,-4.35499 -23.05214,-5.62423 -42.5,-5.48919 -20.9794,0.14567 -28.29288,1.41877 -28.80551,5.01436 -2.19325,15.38351 81.01087,93.18293 122.01331,114.08766 11.03137,5.62425 17.20271,6.68337 20.12534,3.4539 z"
         style="fill:#000000;stroke:none"
         inkscape:connector-curvature="0" />
      <path
         id="path5969"
         d="m 86.488014,569.44779 c 13.22466,-2.97304 45.968856,-26.20323 81.011986,-57.47353 11.33157,-10.11158 36.4825,-36.08401 41.69689,-43.05882 8.97319,-12.00261 11.37652,-17.53563 8.55311,-19.69129 -2.48083,-1.8941 -14.7641,-3.29033 -28.8653,-3.28111 -34.05428,0.0223 -61.86611,10.82183 -83.46861,32.41148 -10.948066,10.94156 -16.527246,19.66386 -23.717476,37.07911 -3.20173,7.7548 -5.76724,20.13247 -6.63261,32 -1.11539,15.29609 -0.42622,20.51061 2.934,22.19961 1.375,0.69114 3.175,1.08329 4,0.87145 0.825,-0.21184 2.84461,-0.68745 4.48801,-1.0569 z"
         style="fill:#000000;stroke:none"
         inkscape:connector-curvature="0" />
      <path
         id="path5967"
         d="m 348.33105,536.90487 c 26.77527,-2.53906 48.42988,-10.73447 60.68537,-22.96702 8.85988,-8.84328 11.47781,-14.3286 11.48106,-24.05608 0.002,-6.71931 -0.41262,-8.39185 -3.76311,-15.17109 -12.65095,-25.59747 -53.6152,-47.18602 -89.23437,-47.02737 -36.22016,0.16133 -75.78708,20.87036 -89.3217,46.75032 -3.70985,7.09371 -3.70388,16.92922 0.0146,24 8.46577,16.09805 27.20585,28.33542 54.30714,35.46282 14.36987,3.77916 35.62535,4.92449 55.83105,3.00842 z"
         style="fill:#000000;stroke:none"
         inkscape:connector-curvature="0" />
      <path
         id="path5965"
         d="m 198.84122,422.97192 c 29.99802,-6.3719 50.13977,-19.95528 60.21936,-40.61132 5.80565,-11.89748 5.75473,-12.08963 -6.31058,-23.81507 -27.64181,-26.86314 -74.6171,-58.52524 -131.48308,-88.6217 -4.52819,-2.39655 -8.09481,-4.49564 -7.92581,-4.66464 0.30956,-0.30956 8.15238,2.426 25.65889,8.94976 22.56105,8.40733 59.02399,25.80823 77,36.74606 0.825,0.50199 3.975,2.35586 7,4.11972 13.6621,7.96629 34.7626,22.85379 47.60781,33.5898 2.8093,2.348 5.77703,4.2691 6.59497,4.2691 2.70316,0 13.21528,-7.54898 18.20007,-13.06987 9.16857,-10.15463 12.41563,-21.93625 10.55607,-38.30165 -2.27854,-20.05268 -15.62989,-46.18057 -34.43039,-67.37848 C 267.0935,229.18305 266,228.91108 266,232.80863 c 0,4.80689 -1.17931,9.125 -2.49211,9.125 -0.68317,0 -2.43402,-1.80109 -3.8908,-4.00243 -3.12146,-4.71685 -22.44342,-24.99757 -23.81582,-24.99757 -0.5623,0 -0.66683,2.22788 -0.25804,5.49973 0.52099,4.16984 0.31455,6.06839 -0.85374,7.85142 l -1.54089,2.3517 -11.60688,-11.35143 c -6.38378,-6.24328 -11.98694,-11.35142 -12.45146,-11.35142 -0.46452,0 -0.60876,2.09227 -0.32052,4.64949 0.37916,3.36393 0.0252,5.57588 -1.28031,8 -0.9924,1.84278 -2.09608,3.35051 -2.45262,3.35051 -0.35654,0 -2.19818,-1.16393 -4.09253,-2.58652 -11.65223,-8.75037 -29.11195,-18.4057 -29.76205,-16.4586 -0.17478,0.52347 0.83772,2.65223 2.25,4.73058 4.21337,6.20053 2.51103,13.16331 -2.21948,9.07793 -3.29266,-2.84364 -13.96992,-8.54661 -19.8168,-10.58462 -6.01648,-2.09713 -17.4249,-4.48315 -18.11862,-3.78943 -0.47969,0.47969 6.95591,7.59013 7.94962,7.60199 0.39982,0.005 1.4443,1.1035 2.32107,2.44161 1.22221,1.86533 1.34231,2.90346 0.5148,4.44969 -1.02805,1.92093 -1.3046,1.94695 -5.82108,0.54765 -8.37705,-2.5954 -31.51667,-8.48868 -31.88481,-8.12054 -0.19589,0.19589 1.38424,1.75478 3.5114,3.4642 4.07195,3.27231 5.44363,6.10327 4.04988,8.35841 -0.69328,1.12173 -2.00047,1.03302 -7.62744,-0.51763 -10.881866,-2.99878 -38.290766,-3.49249 -38.290766,-0.68973 0,0.45891 2.05176,3.47602 4.55946,6.70469 l 4.55945,5.87032 -20.1358,0.27095 c -11.0747,0.14902 -19.98895,0.60105 -19.80946,1.0045 0.17949,0.40345 2.86522,5.90653 5.96828,12.22905 3.10306,6.32253 5.92413,12.733 6.26905,14.2455 l 0.62712,2.75 -8.01905,0 c -8.700486,0 -8.959206,0.21651 -6.48619,5.42801 2.00484,4.22487 7.52812,9.54521 16.52416,15.917 4.00296,2.83524 7.44611,5.66019 7.65144,6.27767 0.7522,2.26202 -9.3331,3.20575 -15.46506,1.44713 -2.46301,-0.70639 -3.2434,-0.61966 -3.2434,0.36045 0,1.99212 4.5823,8.33399 11.87235,16.43126 3.64521,4.04884 8.13203,9.22384 9.97072,11.5 l 3.34307,4.13848 -7.77034,0.5 -7.77033,0.5 13.27501,10.75501 c 7.30126,5.91526 14.01853,11.17473 14.92727,11.68772 2.95632,1.66887 -0.38929,3.43329 -7.35053,3.87655 -3.57347,0.22754 -6.49722,0.735 -6.49722,1.1277 0,1.73491 15.26694,11.44885 30.22115,19.22888 4.27837,2.22586 7.778846,4.42647 7.778846,4.89026 0,0.86569 -3.876406,1.71496 -9.922986,2.17401 -4.8978,0.37184 -4.86075,2.23486 0.1076,5.41055 7.001616,4.47531 10.240006,5.94485 24.127066,10.94852 7.25358,2.61355 13.41332,4.93619 13.68832,5.16143 0.97304,0.79695 -5.26261,5.34189 -8.11053,5.91148 -1.58921,0.31784 -2.88947,0.93557 -2.88947,1.37274 0,1.90379 20.45128,5.09876 37.75,5.89744 0.6875,0.0317 1.25,0.87927 1.25,1.8834 0,1.99888 -3.09905,5.19951 -6.9777,7.20639 -2.36552,1.22397 -2.38816,1.32005 -0.5,2.12241 3.94746,1.67744 36.26285,0.23222 47.31892,-2.1162 z"
         style="fill:#000000;stroke:none"
         inkscape:connector-curvature="0" />
      <path
         id="path5961"
         d="m 502,424.34604 c 0,-0.32318 -2.1375,-2.52893 -4.75,-4.90168 -2.6125,-2.37275 -4.43325,-4.63759 -4.0461,-5.03298 1.3822,-1.41163 12.40777,-3.44691 18.7961,-3.46968 8.69198,-0.031 17.88118,-1.59956 23.51283,-4.01357 4.59209,-1.9684 5.24955,-3.9945 1.29619,-3.9945 -2.69327,0 -9.20253,-4.02207 -8.13222,-5.02489 0.45276,-0.42421 5.0982,-2.21923 10.3232,-3.98894 10.3461,-3.50423 24.61233,-10.20468 27,-12.68116 1.3503,-1.40053 1.11907,-1.49857 -2.31705,-0.98239 -3.72476,0.55954 -8.68295,-0.8388 -8.68295,-2.44881 0,-0.44283 6.1875,-3.94903 13.75,-7.79155 14.49926,-7.36711 26.72588,-15.50326 25.7268,-17.11979 -0.32716,-0.52936 -2.78898,-0.96247 -5.47072,-0.96247 -2.68173,0 -6.09568,-0.46377 -7.58655,-1.0306 l -2.71067,-1.03059 2.39557,-2.574 c 1.31756,-1.41569 7.90807,-7.30126 14.64557,-13.07903 6.7375,-5.77777 12.25,-10.95449 12.25,-11.50381 0,-0.54933 -1.0125,-0.74652 -2.25,-0.43819 -5.44806,1.35739 -10.36458,1.64701 -11.75,0.69215 -1.22822,-0.84651 0.23563,-2.72297 8.07924,-10.35651 9.02539,-8.78367 14.71245,-15.79316 16.26727,-20.04994 0.57649,-1.57832 0.32942,-1.76354 -1.58165,-1.18568 -4.15044,1.255 -15.23663,1.67952 -16.76486,0.64197 -1.22343,-0.83061 0.0784,-2.48229 7.06055,-8.95804 5.75764,-5.34004 9.60485,-9.89895 11.75,-13.92367 4.77936,-8.96699 4.65372,-9.20406 -4.87794,-9.20406 -7.89153,0 -8.05326,-0.049 -7.41933,-2.25 1.43614,-4.98617 4.98024,-11.64495 10.09553,-18.96788 2.96516,-4.24484 5.39119,-8.18234 5.39119,-8.75 0,-0.67458 -6.82724,-1.03212 -19.70821,-1.03212 l -19.70821,0 4.32488,-4.40672 c 2.37868,-2.4237 4.04591,-4.85809 3.70496,-5.40977 -0.34095,-0.55167 -3.73808,-1.56028 -7.54916,-2.24136 -7.77149,-1.38884 -17.55646,-0.29898 -28.39096,3.16222 -7.21497,2.3049 -8.5614,2.35082 -9.34123,0.31861 -0.39897,-1.0397 1.04696,-3.25437 4.24379,-6.5 2.66693,-2.70764 4.41272,-4.92298 3.87954,-4.92298 -1.50557,0 -27.60965,6.72661 -30.7705,7.92907 -7.97902,3.03541 -8.66574,0.0457 -1.6849,-7.33555 6.10932,-6.45971 6.36824,-7.79391 1.25,-6.44123 -13.21634,3.49288 -32.14435,11.24972 -33.73617,13.82533 -0.34753,0.56231 -1.49673,1.02238 -2.55379,1.02238 -3.45089,0 -3.42751,-4.20199 0.0577,-10.37752 1.74522,-3.09236 2.79267,-5.61676 2.32767,-5.60977 -2.10944,0.0317 -17.34559,8.60013 -25.12995,14.13245 l -8.59788,6.1105 -2.80882,-3.1436 c -3.01909,-3.37896 -3.39706,-5.43465 -1.78083,-9.68565 0.56539,-1.48708 0.81709,-2.91467 0.55933,-3.17243 -0.25776,-0.25776 -3.08285,1.02539 -6.27798,2.85144 -5.70066,3.258 -15.33446,11.95904 -18.70565,16.89458 l -1.70761,2.5 -2.05687,-2.49522 c -1.72214,-2.08916 -1.95637,-3.35037 -1.43927,-7.75 0.33967,-2.89013 0.25735,-5.25478 -0.18294,-5.25478 -1.07368,0 -7.11313,6.43582 -17.12599,18.25 -4.54488,5.3625 -8.62002,9.75 -9.05586,9.75 -0.87231,0 -2.60803,-3.96769 -3.60906,-8.25 -0.35357,-1.5125 -0.97273,-2.75 -1.37593,-2.75 -0.4032,0 -3.41068,2.8125 -6.6833,6.25 -26.93299,28.28992 -40.39003,65.19482 -32.45356,89.00136 3.70997,11.12856 13.45783,22.31554 23.38677,26.83947 2.43202,1.10811 3.0792,0.99687 5.47888,-0.94165 35.40913,-28.60444 67.6111,-46.88041 129.72111,-73.62222 1.65,-0.71042 8.4,-3.42345 15,-6.02896 6.6,-2.60551 12.3375,-4.93501 12.75,-5.17666 0.4125,-0.24166 0.75,-0.23218 0.75,0.0211 0,0.25324 -7.9875,4.84485 -17.75,10.20357 -55.31847,30.36482 -97.2358,59.51944 -122.70525,85.34478 l -7.95524,8.06641 1.86891,5.27142 c 9.87485,27.85277 35.74196,43.81609 79.04158,48.77877 7.62811,0.87428 32.5,1.18426 32.5,0.40506 z"
         style="fill:#000000;stroke:none"
         inkscape:connector-curvature="0" />
    </g>
  </g>
</svg>
