<?xml version="1.0" encoding="UTF-8" standalone="no"?>
<!-- Created with Inkscape (http://www.inkscape.org/) -->

<svg
   xmlns:dc="http://purl.org/dc/elements/1.1/"
   xmlns:cc="http://creativecommons.org/ns#"
   xmlns:rdf="http://www.w3.org/1999/02/22-rdf-syntax-ns#"
   xmlns:svg="http://www.w3.org/2000/svg"
   xmlns="http://www.w3.org/2000/svg"
   xmlns:sodipodi="http://sodipodi.sourceforge.net/DTD/sodipodi-0.dtd"
   xmlns:inkscape="http://www.inkscape.org/namespaces/inkscape"
   width="10mm"
   height="10mm"
   viewBox="0 0 35.433071 35.433071"
   id="svg11531"
   version="1.1"
   inkscape:version="0.91 r13725"
   sodipodi:docname="Rebel.svg">
  <defs
     id="defs11533" />
  <sodipodi:namedview
     id="base"
     pagecolor="#ffffff"
     bordercolor="#666666"
     borderopacity="1.0"
     inkscape:pageopacity="0.0"
     inkscape:pageshadow="2"
     inkscape:zoom="11.2"
     inkscape:cx="12.150982"
     inkscape:cy="40.826855"
     inkscape:document-units="px"
     inkscape:current-layer="layer1"
     showgrid="false"
     inkscape:window-width="1920"
     inkscape:window-height="1137"
     inkscape:window-x="-8"
     inkscape:window-y="-8"
     inkscape:window-maximized="1" />
  <metadata
     id="metadata11536">
    <rdf:RDF>
      <cc:Work
         rdf:about="">
        <dc:format>image/svg+xml</dc:format>
        <dc:type
           rdf:resource="http://purl.org/dc/dcmitype/StillImage" />
        <dc:title></dc:title>
      </cc:Work>
    </rdf:RDF>
  </metadata>
  <g
     inkscape:label="Layer 1"
     inkscape:groupmode="layer"
     id="layer1"
     transform="translate(0,-1016.9291)">
    <g
       id="g12095"
       transform="matrix(0.17919108,0,0,0.17919108,-71.522836,958.22195)">
      <path
         inkscape:connector-curvature="0"
         id="path12090"
         d="m 491.5951,524.75069 c -21.57298,-1.06659 -41.69664,-9.22129 -58.1,-23.54382 -2.18838,-1.91077 -6.89149,-6.61438 -8.79597,-8.79689 -5.84331,-6.69635 -10.5287,-13.74165 -14.36481,-21.6 -8.1364,-16.66758 -11.36372,-35.42023 -9.23316,-53.65 2.17416,-18.60278 9.68415,-35.99248 21.78753,-50.45 4.37002,-5.22 9.75584,-10.46385 15.19647,-14.79589 3.32547,-2.64787 8.15056,-6.05411 8.57591,-6.05411 0.43283,0 0.27975,0.31376 -0.71693,1.46946 -3.95051,4.58084 -8.46661,11.45718 -11.8089,17.98054 -10.34521,20.19145 -11.56948,39.29669 -3.54708,55.35363 2.42147,4.84661 5.54505,9.27416 9.56721,13.56114 4.34857,4.63487 11.22331,8.50323 17.10853,9.62682 5.84617,1.11615 11.25525,-0.25938 15.94738,-4.05541 1.48556,-1.20185 3.48264,-3.34452 4.20327,-4.50968 2.8306,-4.57672 4.81944,-10.38708 5.57133,-16.2765 0.41331,-3.23733 0.46016,-7.79076 0.11268,-10.95 -0.77849,-7.07789 -2.87408,-13.80202 -6.607,-21.2 -0.95711,-1.8968 -1.78824,-3.23094 -2.90568,-4.66421 -2.63855,-3.38431 -6.33872,-6.51792 -10.54778,-8.93273 -1.21624,-0.69778 -3.81616,-2.00445 -4.27351,-2.14779 -0.12677,-0.0397 -0.21677,-0.11154 -0.2,-0.15958 0.0619,-0.17719 11.19486,-12.39569 11.29442,-12.39569 0.19501,0 2.04148,0.99579 3.19402,1.7225 4.91958,3.10196 9.20151,7.14276 12.73033,12.01345 0.54354,0.75023 1.00569,1.36405 1.02701,1.36405 0.0213,0 0.0116,-0.43875 -0.0216,-0.975 -0.46143,-7.45402 -3.17579,-15.17992 -7.6854,-21.875 -0.44455,-0.66 -0.82145,-1.22826 -0.83755,-1.26281 -0.0316,-0.0679 17.34351,-19.81737 17.47886,-19.86741 0.045,-0.0166 3.89524,4.30338 8.55618,9.6 4.66094,5.29662 8.5596,9.72521 8.66369,9.84131 0.18748,0.2091 0.18461,0.21808 -0.30673,0.96004 -0.62879,0.94951 -2.03684,3.42638 -2.68826,4.72887 -3.10709,6.21253 -4.97852,12.64071 -5.35677,18.4 -0.0444,0.67647 -0.0405,0.69164 0.11816,0.45132 0.0903,-0.13678 0.5514,-0.76961 1.02473,-1.4063 2.53693,-3.41254 6.18473,-7.02297 9.93579,-9.83401 1.87948,-1.40848 5.70899,-3.86101 6.02879,-3.86101 0.10111,0 11.17469,12.39406 11.11022,12.43506 -0.0195,0.0124 -0.30539,0.12795 -0.63539,0.25682 -0.91447,0.35712 -3.47513,1.69074 -4.63384,2.41337 -4.69628,2.92882 -9.26948,7.5928 -12.18468,12.42654 -2.07984,3.44862 -4.21691,9.29619 -5.37847,14.7169 -1.88978,8.81909 -1.92089,17.24646 -0.0905,24.50131 1.35687,5.3779 4.26815,10.8333 7.26089,13.60608 3.14639,2.91512 6.72914,4.6991 10.6339,5.295 1.18316,0.18056 3.82829,0.20717 5.09266,0.0512 5.22481,-0.64436 10.70481,-3.32819 16.35,-8.00741 2.94926,-2.4446 7.07074,-7.71198 9.89403,-12.64491 6.47103,-11.30633 8.80292,-23.83226 6.79504,-36.5 -1.99529,-12.58828 -8.2739,-25.41679 -18.64691,-38.09952 -0.71995,-0.88026 -1.61048,-1.92857 -1.97896,-2.32957 -0.67162,-0.73091 -0.74056,-0.92175 -0.3323,-0.91993 0.4724,0.002 1.33471,0.55737 4.2475,2.7351 10.47791,7.83371 16.85863,13.73132 22.68121,20.96392 11.14346,13.84202 17.55493,30.85069 19.43194,51.55 0.46653,5.14484 0.48371,6.45172 0.15379,11.7 -0.85258,13.56251 -3.92714,26.44037 -9.07241,38 -10.64124,23.90718 -29.6934,41.25308 -54.07293,49.23032 -10.08675,3.30049 -21.01316,4.95926 -32.3,4.90357 -1.5675,-0.008 -3.57,-0.0497 -4.45,-0.0932 z"
         style="fill:#000000;stroke:#000000;stroke-width:1;stroke-miterlimit:4;stroke-dasharray:none" />
      <path
         sodipodi:nodetypes="sssssss"
         inkscape:connector-curvature="0"
         id="path12092"
         d="m 591.90064,427.50283 c -0.66724,54.38213 -37.17923,96.99799 -95.31688,96.99798 -53.33941,-10e-6 -96.57954,-43.87974 -96.57954,-98.00813 0,-31.95298 17.34098,-58.0617 40.15471,-76.96372 15.7072,-13.01399 34.57265,-21.04441 56.42483,-21.04441 27.61866,0 39.30234,9.01373 54.47481,20.52311 25.58814,19.41038 41.20567,48.86095 40.84207,78.49517 z"
         style="opacity:1;fill:none;fill-opacity:1;stroke:#ff0000;stroke-width:1.72276855;stroke-linejoin:miter;stroke-miterlimit:4;stroke-dasharray:none;stroke-opacity:1" />
    </g>
  </g>
</svg>
