<?xml version="1.0" encoding="UTF-8" standalone="no"?>
<!-- Created with Inkscape (http://www.inkscape.org/) -->

<svg
   xmlns:dc="http://purl.org/dc/elements/1.1/"
   xmlns:cc="http://creativecommons.org/ns#"
   xmlns:rdf="http://www.w3.org/1999/02/22-rdf-syntax-ns#"
   xmlns:svg="http://www.w3.org/2000/svg"
   xmlns="http://www.w3.org/2000/svg"
   xmlns:sodipodi="http://sodipodi.sourceforge.net/DTD/sodipodi-0.dtd"
   xmlns:inkscape="http://www.inkscape.org/namespaces/inkscape"
   width="10mm"
   height="10mm"
   viewBox="0 0 35.433071 35.433071"
   id="svg4248"
   version="1.1"
   inkscape:version="0.91 r13725"
   sodipodi:docname="Steam.svg">
  <defs
     id="defs4250" />
  <sodipodi:namedview
     id="base"
     pagecolor="#ffffff"
     bordercolor="#666666"
     borderopacity="1.0"
     inkscape:pageopacity="0.0"
     inkscape:pageshadow="2"
     inkscape:zoom="7.9195959"
     inkscape:cx="10.993846"
     inkscape:cy="17.748131"
     inkscape:document-units="px"
     inkscape:current-layer="layer1"
     showgrid="false"
     inkscape:window-width="1920"
     inkscape:window-height="1137"
     inkscape:window-x="-8"
     inkscape:window-y="-8"
     inkscape:window-maximized="1" />
  <metadata
     id="metadata4253">
    <rdf:RDF>
      <cc:Work
         rdf:about="">
        <dc:format>image/svg+xml</dc:format>
        <dc:type
           rdf:resource="http://purl.org/dc/dcmitype/StillImage" />
        <dc:title></dc:title>
      </cc:Work>
    </rdf:RDF>
  </metadata>
  <g
     inkscape:label="Layer 1"
     inkscape:groupmode="layer"
     id="layer1"
     transform="translate(0,-1016.9291)">
    <path
       id="path4819"
       style="fill:#000000"
       d="m 24.739136,1033.0204 c 1.79591,-0.4678 2.86136,-2.2301 2.40576,-3.9792 -0.24995,-0.9597 -0.89713,-1.7305 -1.81988,-2.1676 -0.48483,-0.2297 -0.54936,-0.2406 -1.41018,-0.2389 -0.77941,10e-4 -0.95324,0.025 -1.27799,0.1744 -0.91228,0.4191 -1.633819,1.2233 -1.890877,2.1075 -0.165065,0.5678 -0.147391,1.4449 0.0399,1.9813 0.565882,1.6202 2.302327,2.5525 3.953237,2.1225 z m -1.94104,1.1237 c -1.509705,-0.3654 -2.882209,-1.751 -3.240616,-3.2715 -0.580341,-2.462 1.054619,-4.9236 3.570106,-5.3753 2.29688,-0.4123 4.56605,1.0227 5.14101,3.2514 0.15084,0.5846 0.15306,1.5914 0.005,2.1722 -0.39384,1.5426 -1.67814,2.8175 -3.24828,3.2243 -0.5582,0.1447 -1.62721,0.1441 -2.22701,-10e-4 z m -10.723388,10.5182 c -0.326325,-0.052 -1.07813,-0.34 -1.390638,-0.533 -0.416674,-0.2573 -0.9039312,-0.7398 -1.1788062,-1.1674 -0.127268,-0.1979 -0.218587,-0.3718 -0.202933,-0.3863 0.01561,-0.014 0.599913,0.2049 1.2983592,0.4875 1.465772,0.593 1.867905,0.6699 2.582107,0.4936 0.870002,-0.2147 1.515212,-0.7427 1.89014,-1.547 0.165249,-0.3544 0.19375,-0.5182 0.190331,-1.0934 -0.0041,-0.7385 -0.116319,-1.0825 -0.540044,-1.6597 -0.321947,-0.4385 -0.75854,-0.6992 -2.062746,-1.2314 -0.632272,-0.2581 -1.17752,-0.4955 -1.211664,-0.5276 -0.09653,-0.091 0.382959,-0.2279 0.963821,-0.2758 2.385305,-0.1968 4.402265,1.9352 4.040684,4.2711 -0.317283,2.0498 -2.316845,3.4971 -4.378611,3.1694 z m 4.247404,7.2166 c -1.6854,-0.2097 -3.256257,-0.5719 -4.510523,-1.0402 -4.2868342,-1.6005 -7.8145572,-4.8008 -9.7774442,-8.87 -0.521268,-1.0806 -1.14697803,-2.7074 -1.07070003,-2.7837 0.02,-0.02 1.55433503,0.5833 3.40959703,1.3407 l 3.373208,1.377 0.202893,0.5787 c 0.484319,1.3812 1.400648,2.3874 2.7087832,2.9744 0.730846,0.3279 1.216787,0.4222 2.130953,0.4135 0.672803,-0.01 0.939309,-0.044 1.429914,-0.2043 1.712788,-0.5576 3.017811,-1.9868 3.381372,-3.7029 0.06051,-0.2858 0.112003,-0.6888 0.114339,-0.8955 l 0.0041,-0.3759 2.996995,-2.1049 2.996967,-2.1049 0.66487,-0.056 c 0.80267,-0.068 1.67488,-0.2853 2.32195,-0.5787 1.90293,-0.8628 3.34119,-2.6641 3.76552,-4.716 0.18457,-0.8924 0.11191,-2.3393 -0.15976,-3.1814 -0.57767,-1.7907 -1.73532,-3.1503 -3.38387,-3.9744 -0.91899,-0.4593 -1.57164,-0.6195 -2.712,-0.6656 -1.16942,-0.047 -1.9339,0.078 -2.83691,0.4663 -0.85365,0.3666 -1.351846,0.6864 -1.982393,1.2722 -1.25196,1.1633 -1.982673,2.6425 -2.101778,4.2546 l -0.04725,0.639 -2.102309,3.0177 -2.102308,3.0177 -0.574872,0.052 c -0.819409,0.074 -1.437292,0.2427 -2.068328,0.5655 l -0.5492492,0.2808 -4.72957,-1.9305 c -4.55601403,-1.8598 -4.73044703,-1.9382 -4.75387603,-2.1379 -0.03592,-0.3061 0.190505,-1.6885 0.439685,-2.6846 1.14480403,-4.5765 4.19270903,-8.5712 8.36687603,-10.9659 2.6155672,-1.5005 5.2624612,-2.2314 8.3730612,-2.3121 1.701604,-0.044 2.731069,0.037 4.134761,0.3236 3.37451,0.6904 6.34613,2.2664 8.84576,4.6912 2.70619,2.6252 4.42538,5.8602 5.09455,9.5862 0.15433,0.8594 0.17551,1.2131 0.17551,2.9319 0,1.7188 -0.0212,2.0724 -0.17551,2.9318 -0.87506,4.8726 -3.67508,9.0857 -7.83224,11.7851 -2.27303,1.4759 -5.05224,2.464 -7.755584,2.7574 -0.676313,0.073 -3.189428,0.093 -3.70536,0.029 z"
       inkscape:connector-curvature="0" />
    <circle
       style="opacity:1;fill:none;fill-opacity:1;stroke:#ff0000;stroke-width:0.5;stroke-linejoin:miter;stroke-miterlimit:4;stroke-dasharray:none;stroke-opacity:1"
       id="path4828"
       cx="17.904819"
       cy="1034.4574"
       r="17.654819" />
  </g>
</svg>
