<?xml version="1.0" encoding="UTF-8" standalone="no"?>
<!-- Created with Inkscape (http://www.inkscape.org/) -->

<svg
   xmlns:dc="http://purl.org/dc/elements/1.1/"
   xmlns:cc="http://creativecommons.org/ns#"
   xmlns:rdf="http://www.w3.org/1999/02/22-rdf-syntax-ns#"
   xmlns:svg="http://www.w3.org/2000/svg"
   xmlns="http://www.w3.org/2000/svg"
   xmlns:sodipodi="http://sodipodi.sourceforge.net/DTD/sodipodi-0.dtd"
   xmlns:inkscape="http://www.inkscape.org/namespaces/inkscape"
   width="10mm"
   height="10mm"
   viewBox="0 0 35.433071 35.433071"
   id="svg15818"
   version="1.1"
   inkscape:version="0.91 r13725"
   sodipodi:docname="Succulent 1.svg">
  <defs
     id="defs15820" />
  <sodipodi:namedview
     id="base"
     pagecolor="#ffffff"
     bordercolor="#666666"
     borderopacity="1.0"
     inkscape:pageopacity="0.0"
     inkscape:pageshadow="2"
     inkscape:zoom="5.6"
     inkscape:cx="-13.710544"
     inkscape:cy="2.119206"
     inkscape:document-units="px"
     inkscape:current-layer="layer1"
     showgrid="false"
     inkscape:window-width="1920"
     inkscape:window-height="1137"
     inkscape:window-x="-8"
     inkscape:window-y="-8"
     inkscape:window-maximized="1" />
  <metadata
     id="metadata15823">
    <rdf:RDF>
      <cc:Work
         rdf:about="">
        <dc:format>image/svg+xml</dc:format>
        <dc:type
           rdf:resource="http://purl.org/dc/dcmitype/StillImage" />
        <dc:title></dc:title>
      </cc:Work>
    </rdf:RDF>
  </metadata>
  <g
     inkscape:label="Layer 1"
     inkscape:groupmode="layer"
     id="layer1"
     transform="translate(0,-1016.9291)">
    <g
       id="g16381"
       transform="translate(-78.79697,604.58137)">
      <path
         inkscape:connector-curvature="0"
         id="path16377"
         d="m 95.769364,444.54917 c -0.198113,-0.2098 -0.770836,-0.69589 -1.272722,-1.08021 -1.436181,-1.09975 -1.549873,-1.67845 -0.416029,-2.11765 1.477803,-0.5724 1.743701,-1.18183 1.520421,-3.48465 -0.08016,-0.82656 -0.114075,-1.53447 -0.0754,-1.57314 0.03867,-0.0387 0.186204,0.0456 0.327862,0.18724 0.181589,0.1816 0.285354,0.48854 0.35183,1.04072 0.179312,1.48942 1.075859,2.78286 2.124726,3.06527 0.645124,0.17372 0.784832,0.37592 0.711169,1.02935 -0.08766,0.7781 -0.542896,1.37721 -1.626658,2.14096 -0.522727,0.36837 -1.025684,0.78312 -1.117694,0.92166 -0.16612,0.25016 -0.169799,0.24926 -0.527495,-0.12955 z m 4.913396,-0.63854 c -1.513565,-0.58769 -1.465508,-0.53099 -1.089446,-1.28566 0.178675,-0.35855 0.318395,-0.84175 0.318395,-1.10109 l 0,-0.46213 0.450261,0.0824 c 0.50015,0.0916 1.21257,0.30647 1.7914,0.54043 0.51321,0.20743 0.76005,0.004 0.76005,-0.62665 0,-0.38554 0.0413,-0.46558 0.24013,-0.46558 0.47898,0 0.3339,0.72406 -0.35026,1.74818 -0.31146,0.46621 -0.63724,1.10106 -0.72396,1.41079 -0.0867,0.30972 -0.21818,0.55701 -0.29215,0.54952 -0.0739,-0.007 -0.57095,-0.18308 -1.10442,-0.39022 z m -11.919553,-1.35019 c -0.143791,-0.10073 -0.33518,-0.35961 -0.425303,-0.5753 -0.09013,-0.2157 -0.357279,-0.64557 -0.593674,-0.95527 -0.702473,-0.92029 -0.709562,-1.75826 -0.01488,-1.75826 0.31699,0 1.372797,1.15089 1.900072,2.07117 0.338605,0.591 0.521095,0.66925 1.072093,0.45976 0.159949,-0.0609 0.609068,-0.12532 0.998034,-0.14333 0.568703,-0.0264 0.714441,0.005 0.744071,0.15859 0.02491,0.12914 -0.170175,0.28981 -0.599991,0.49422 -0.821783,0.39078 -2.664941,0.53943 -3.080427,0.24842 z m 1.2346,-1.62566 c -0.113973,-0.22135 -0.520619,-0.78199 -0.903661,-1.24586 -0.755732,-0.9152 -1.182446,-1.72544 -1.186594,-2.25313 -0.0042,-0.51522 0.431856,-1.25129 0.973351,-1.64354 0.721019,-0.52231 0.898766,-0.5475 1.403508,-0.19895 1.325684,0.91545 2.669846,0.89615 3.368162,-0.0483 0.323551,-0.43763 0.492196,-0.44426 0.974625,-0.0384 l 0.377119,0.31732 -0.03774,2.01565 c -0.03392,1.81274 -0.06265,2.04972 -0.285602,2.35419 -0.412383,0.56322 -1.048999,0.79522 -2.451223,0.89325 -0.69472,0.0485 -1.434497,0.12474 -1.64394,0.16927 -0.344691,0.0732 -0.40045,0.0427 -0.588032,-0.3215 z m 11.900453,0.11447 c -0.12908,-0.0749 -0.76384,-0.2612 -1.41058,-0.41404 -1.337588,-0.31612 -1.950216,-0.59528 -2.605503,-1.18728 -0.761103,-0.68762 -1.470775,-2.66187 -1.112169,-3.09397 0.07276,-0.0877 0.541469,-0.28775 1.041536,-0.44458 0.577657,-0.18116 1.087436,-0.43769 1.397909,-0.70344 0.453816,-0.38845 0.484406,-0.45322 0.428636,-0.90786 -0.0329,-0.26927 -0.103383,-0.59763 -0.156264,-0.72971 -0.07491,-0.18716 -0.0021,-0.15832 0.329064,0.13072 0.233901,0.20398 0.662951,0.48638 0.953451,0.62756 0.66692,0.32414 1.40947,1.04405 2.02016,1.95855 0.50077,0.74991 0.68451,1.46183 0.57907,2.24364 -0.0565,0.41917 -1.04283,2.6579 -1.17056,2.65699 -0.033,-2.6e-4 -0.16565,-0.0617 -0.29475,-0.13658 z m 2.12579,-0.9066 c -0.44419,-0.22106 -0.45831,-0.28767 -0.21012,-0.99111 0.39475,-1.11886 0.15092,-2.30747 -0.73397,-3.57779 -0.28971,-0.41589 -0.52674,-0.77204 -0.52674,-0.79144 0,-0.0193 0.2125,-0.0989 0.47222,-0.17676 0.25971,-0.0779 0.77358,-0.38697 1.14192,-0.68701 l 0.66969,-0.54553 0.86922,0.2064 c 2.02006,0.47966 2.65189,1.2092 2.64213,3.0507 -0.008,1.56389 -0.0896,2.97927 -0.17598,3.06571 -0.13371,0.13372 -2.77286,0.65552 -3.27788,0.6481 -0.26415,-0.004 -0.65588,-0.0944 -0.87049,-0.20127 z m -18.160293,-1.46774 c -0.165091,-0.0527 -0.643535,-0.26849 -1.063202,-0.47955 -0.419659,-0.21107 -0.946986,-0.41361 -1.17183,-0.4501 l -0.408796,-0.0663 0.0731,-1.33486 c 0.07505,-1.36961 0.216022,-2.17585 0.400399,-2.28981 0.05746,-0.0355 0.463136,0.10328 0.901502,0.30842 0.698418,0.32682 0.896786,0.3672 1.603236,0.32627 0.511736,-0.0297 1.009858,-0.1458 1.363779,-0.31802 l 0.557577,-0.27132 0.573071,0.38676 0.573063,0.38675 -0.290165,0.18812 c -0.578554,0.37506 -1.292458,1.10773 -1.49477,1.53407 -0.161809,0.34099 -0.190522,0.61176 -0.131831,1.24323 0.06239,0.67093 0.04301,0.8196 -0.114551,0.88006 -0.255411,0.098 -1.001061,0.0743 -1.370614,-0.0437 z m 9.96564,-3.01145 c -0.165091,-0.13249 -0.661087,-0.45565 -1.102216,-0.71812 -1.020261,-0.60706 -1.299139,-0.95602 -1.299139,-1.62559 0,-0.51087 0.0076,-0.52036 0.725822,-0.88525 0.908285,-0.46155 1.34621,-0.4133 1.291063,0.14226 -0.02763,0.27845 0.04123,0.41828 0.30334,0.6159 0.299031,0.22544 0.502124,0.25626 1.718535,0.26081 1.473074,0.005 1.598778,0.0551 1.602603,0.63309 0.0042,0.62784 -0.365511,0.9112 -1.983053,1.52005 -0.442898,0.16669 -0.839361,0.30188 -0.881027,0.30043 -0.04165,-0.002 -0.210828,-0.11109 -0.375928,-0.24358 z m -4.742684,-0.25374 c -0.13207,-0.0729 -0.683161,-0.42095 -1.224647,-0.77354 -1.095935,-0.71362 -1.133105,-0.78566 -1.156079,-2.24077 -0.02108,-1.33553 0.648838,-2.11787 1.979434,-2.31158 0.925346,-0.1347 1.263135,6.1e-4 1.534779,0.61468 0.129833,0.29352 0.407733,0.77272 0.617542,1.06487 l 0.38147,0.53119 -0.195759,0.48925 c -0.258537,0.64615 -0.247156,0.90054 0.06519,1.45621 0.249937,0.44471 0.252002,0.47405 0.04913,0.69824 -0.483459,0.53422 -1.509652,0.7701 -2.051011,0.47145 z m -6.23946,-1.5651 c -0.474704,-0.13186 -1.038,-0.64094 -2.718788,-2.45717 l -0.673555,-0.72784 0.457576,-0.957 c 0.253811,-0.53086 0.677958,-1.1774 0.952493,-1.45193 0.87313,-0.87314 2.637266,-1.31336 2.868162,-0.71572 0.381529,0.98752 0.566365,1.31575 0.954023,1.69409 0.443527,0.4329 1.253971,0.79731 1.773154,0.79731 0.338596,0 0.354109,0.1222 0.08075,0.63634 -0.122865,0.23109 -0.23054,0.79103 -0.270157,1.40482 l -0.06588,1.02058 -0.780441,0.38864 c -0.880635,0.43854 -1.833409,0.57452 -2.577385,0.36788 z m 16.205107,-0.21281 c -0.80564,-0.42569 -1.260711,-0.8044 -1.260711,-1.04913 0,-0.0899 0.0788,-0.28373 0.17521,-0.4308 0.0964,-0.14709 0.261291,-0.6386 0.366511,-1.09227 0.19927,-0.85924 0.89336,-2.04809 1.40496,-2.40643 0.64464,-0.45152 1.59793,-0.33473 2.16566,0.26534 0.17038,0.18007 0.52871,0.74532 0.79628,1.2561 0.26757,0.51077 0.57451,1.06302 0.68208,1.22719 0.19148,0.29224 0.18338,0.31168 -0.38624,0.92522 -1.26397,1.36142 -1.541,1.53797 -2.55241,1.62663 -0.58559,0.0513 -0.76256,0.0106 -1.39134,-0.32185 z m 6.65119,0.0641 c -0.0289,-0.0289 -0.53772,-0.19185 -1.13064,-0.36203 -0.59291,-0.17018 -1.15512,-0.33758 -1.24932,-0.372 -0.12239,-0.0447 -0.005,-0.23102 0.40986,-0.6526 0.49192,-0.49941 0.55762,-0.61836 0.42792,-0.77464 -0.12763,-0.1538 -0.11587,-0.19678 0.0703,-0.25734 0.6956,-0.22616 0.92248,-0.36385 1.31447,-0.79774 0.23819,-0.26364 0.64152,-0.9327 0.89631,-1.48683 0.25479,-0.5541 0.52993,-1.00747 0.6114,-1.00747 0.31159,0 0.94771,0.5626 1.32782,1.17436 0.21786,0.3506 0.57481,0.88272 0.79325,1.18251 l 0.39718,0.54504 -0.35797,0.38008 c -0.19689,0.20904 -0.59428,0.67726 -0.8831,1.04045 -0.60126,0.75612 -1.64648,1.44081 -2.19947,1.44081 -0.20653,0 -0.39919,-0.0236 -0.42813,-0.0526 z m -11.36386,-0.87476 c -0.546519,-0.0678 -0.485932,-0.23675 0.120067,-0.33476 0.744513,-0.12041 1.418144,-0.45273 1.852734,-0.91401 0.401104,-0.42574 0.923004,-1.37672 1.062606,-1.93622 0.05366,-0.21479 0.161755,-0.33019 0.309512,-0.33019 0.19995,0 0.2271,0.0953 0.2271,0.79653 0,0.99261 -0.1744,1.59045 -0.62261,2.13421 -0.502202,0.60925 -1.367628,0.78074 -2.949409,0.58444 z m -0.870495,-1.00383 c -0.668542,-0.30309 -1.036574,-0.63892 -1.332433,-1.21583 -0.246656,-0.48097 -0.307063,-1.17545 -0.102255,-1.17545 0.06944,0 0.20248,0.18258 0.295723,0.40575 0.367777,0.88022 1.318978,1.64974 2.249592,1.81993 0.507913,0.0929 0.581826,0.23248 0.180101,0.34013 -0.44724,0.11987 -0.723848,0.0824 -1.290732,-0.17453 z m -1.852899,-0.0589 c -0.583731,-0.58372 -1.268872,-1.87766 -1.268872,-2.39634 0,-0.46408 0.491593,-1.59001 0.900976,-2.06361 0.338613,-0.39171 0.413454,-0.42845 0.584172,-0.28677 0.252366,0.20944 0.246859,0.27763 -0.05007,0.62 -0.158699,0.18299 -0.2332,0.41299 -0.210114,0.64873 0.03085,0.31533 0.08907,0.37037 0.425975,0.40285 0.44747,0.0431 0.535009,0.26254 0.104752,0.26254 -0.44606,0 -0.591559,0.27795 -0.530556,1.01354 0.03689,0.44453 0.15938,0.81199 0.383807,1.15112 0.334032,0.50475 0.343688,0.83705 0.02431,0.83705 -0.09641,0 -0.26039,-0.0851 -0.364393,-0.18911 z m 3.894059,-0.57667 c 0,-0.025 0.081,-0.23935 0.180101,-0.47642 0.09906,-0.23707 0.180101,-0.56548 0.180101,-0.72978 0,-0.31441 -0.577593,-1.3903 -0.981102,-1.82751 -0.305703,-0.33124 -0.100938,-0.47224 0.347216,-0.23911 0.663007,0.3449 1.138173,1.05609 1.138173,1.70352 0,0.39923 -0.574733,1.61467 -0.763504,1.61467 -0.0555,0 -0.10098,-0.0204 -0.10098,-0.0454 z m -1.427783,-0.30679 c -0.119515,-0.0738 -0.06086,-0.1249 0.212519,-0.18495 0.227496,-0.0499 0.503688,-0.24826 0.694831,-0.49886 0.334754,-0.43888 0.611031,-0.3992 0.46322,0.0665 -0.138512,0.4364 -1.020499,0.83364 -1.37057,0.61728 z m 9.450208,-0.33831 c -0.0987,-0.11556 -0.33668,-0.58814 -0.52889,-1.05018 -0.42381,-1.01873 -1.05278,-1.69352 -1.6899,-1.81304 -0.40501,-0.076 -1.07424,0.0168 -1.78978,0.24813 -0.22253,0.0719 -0.2609,0.0123 -0.36641,-0.56977 -0.0648,-0.35758 -0.0971,-0.71227 -0.0718,-0.78823 0.0669,-0.2006 2.08535,-1.8812 2.54472,-2.11875 0.21469,-0.11102 0.67404,-0.23113 1.02079,-0.26692 0.97876,-0.10105 1.73369,0.20792 2.68673,1.09947 0.64343,0.60194 1.18157,0.99505 1.67594,1.2243 0.0891,0.0413 -1.48283,3.02844 -1.8156,3.45011 -0.34362,0.43537 -0.9412,0.795 -1.32102,0.795 -0.0909,0 -0.24609,-0.0946 -0.34476,-0.21012 z m -9.778597,-0.44652 c -0.0978,-0.25489 0.05194,-0.42397 0.375383,-0.42397 0.524802,0 0.466689,0.31923 -0.09459,0.51963 -0.132419,0.0473 -0.24,0.0106 -0.28079,-0.0956 z m -0.681749,-0.14036 c -0.15082,-0.15081 -0.08726,-1.0653 0.09181,-1.32096 0.18505,-0.26421 0.865753,-0.60309 0.980636,-0.48821 0.03723,0.0372 -0.104986,0.22189 -0.315988,0.41042 -0.24968,0.22309 -0.434143,0.54171 -0.528294,0.91252 -0.07956,0.31336 -0.182243,0.53216 -0.228168,0.48623 z m -7.107491,-0.68984 c -1.167733,-0.55205 -1.577209,-1.26782 -1.994836,-3.48699 l -0.269452,-1.4318 0.285397,-0.18911 c 0.156965,-0.10401 0.639412,-0.45247 1.072109,-0.77437 1.084546,-0.80684 1.47925,-0.96322 1.998493,-0.79185 0.481502,0.1589 1.609737,1.15436 1.971181,1.73918 0.239956,0.38827 0.243101,0.4343 0.06545,0.95763 -0.295842,0.8714 -0.24606,1.70343 0.134823,2.25305 0.176813,0.25514 0.425711,0.51966 0.553106,0.58785 0.182039,0.0974 0.215657,0.20379 0.15705,0.49684 -0.04097,0.20507 -0.156081,0.49726 -0.255698,0.64929 -0.172784,0.26371 -0.248738,0.27638 -1.649186,0.27527 -1.292551,-8.5e-4 -1.539843,-0.0351 -2.06841,-0.28499 z m 10.768372,-0.28636 c -0.08532,-0.24644 -0.150259,-0.50209 -0.144266,-0.56812 0.0064,-0.0661 0.04048,-0.39416 0.07661,-0.72915 0.05759,-0.53416 0.02699,-0.65503 -0.248562,-0.98255 -0.172834,-0.2054 -0.515098,-0.43763 -0.760581,-0.51606 -0.619769,-0.19798 -0.689433,-0.29597 -0.369698,-0.51992 0.370897,-0.25978 0.920947,-0.24437 1.900911,0.0533 1.038401,0.31541 1.271301,0.53982 1.449101,1.39626 0.13359,0.64349 0.0976,1.89614 -0.0589,2.05265 -0.0379,0.0379 -0.22813,-0.0489 -0.42275,-0.19273 -0.470761,-0.34806 -0.652661,-0.33028 -0.986563,0.0964 l -0.280192,0.35801 -0.155167,-0.44806 z m -2.865703,0.0365 c 0.02261,-0.0684 0.180298,-0.20287 0.350454,-0.29881 0.24776,-0.13971 0.371398,-0.1462 0.62073,-0.0325 0.543025,0.24741 0.38283,0.45575 -0.350454,0.45575 -0.402804,0 -0.645727,-0.0487 -0.62073,-0.12436 z m -1.894378,-0.77682 c -0.117994,-0.19093 0.798843,-0.9833 1.555994,-1.34476 0.863569,-0.41226 1.62491,-0.4506 2.183582,-0.10994 0.431699,0.26321 0.688648,0.66141 0.591002,0.91586 -0.09154,0.23857 -0.347764,0.21306 -0.852769,-0.0849 -0.570573,-0.33665 -1.219334,-0.24974 -2.336901,0.31306 -0.894006,0.45021 -1.031524,0.48765 -1.140908,0.31067 z m -2.204041,-0.95479 c -0.536098,-0.95386 -0.234288,-2.07497 0.93772,-3.48329 l 0.637586,-0.76613 1.073061,0.0762 c 2.11102,0.14985 2.64954,0.85396 1.875704,2.4525 -0.211602,0.43709 -0.375163,0.57825 -1.026823,0.88615 l -0.775128,0.36624 -0.269222,-0.25293 c -0.148074,-0.1391 -0.335962,-0.25293 -0.417534,-0.25293 -0.340162,0 -0.818698,0.37168 -1.14435,0.88883 -0.191185,0.3036 -0.410862,0.55199 -0.488184,0.55199 -0.07735,0 -0.258588,-0.20997 -0.40283,-0.4666 z m -9.502436,0.11582 c -0.279099,-0.52151 -0.739047,-1.96202 -0.677594,-2.12216 0.03629,-0.0947 0.206213,-0.22545 0.377509,-0.29057 0.171304,-0.0651 0.491219,-0.25553 0.710929,-0.42311 0.71506,-0.54541 2.175831,-0.94084 2.525783,-0.68373 0.10754,0.079 0.174832,0.7167 0.223723,2.12012 l 0.01641,0.47104 -0.78044,0.19597 c -0.792637,0.19905 -1.723167,0.61997 -1.859996,0.84137 -0.121785,0.19704 -0.403161,0.13989 -0.536327,-0.10893 z m 18.365373,-1.56754 c 0,-0.0679 0.21911,-0.32142 0.48691,-0.56336 1.39801,-1.26301 1.62337,-3.03043 0.59875,-4.69566 -0.20089,-0.32647 -0.36525,-0.64457 -0.36525,-0.70686 0,-0.17173 0.73064,-0.82879 1.16469,-1.04742 0.48228,-0.24292 0.85197,-0.24296 2.02565,-2.4e-4 0.5141,0.10631 1.16102,0.1678 1.43761,0.13662 l 0.50289,-0.0567 0.0797,1.27418 c 0.0969,1.55079 -0.0973,2.36859 -0.70758,2.97881 -0.37271,0.37273 -0.44676,0.39655 -1.23228,0.39655 -0.96759,0 -1.29135,0.17108 -2.49069,1.31616 -0.73053,0.6975 -1.5003,1.1941 -1.5003,0.9679 z m 7.4986,-0.73197 c -0.26105,-0.26898 -0.73127,-0.65629 -1.04495,-0.86069 -0.31368,-0.2044 -0.57032,-0.41177 -0.57032,-0.4608 0,-0.11212 0.70468,-0.71087 0.83662,-0.71087 0.0538,0 0.36031,0.21978 0.68118,0.48841 0.32086,0.26862 0.78501,0.5934 1.03144,0.72173 l 0.44806,0.23331 -0.26187,0.53899 c -0.14791,0.30445 -0.34533,0.53898 -0.4537,0.53898 -0.1055,0 -0.40542,-0.22007 -0.66646,-0.48906 z m -9.059487,0.0688 c -0.231125,-0.089 -0.751434,-0.16594 -1.15624,-0.17096 l -0.735995,-0.01 -0.05109,-0.70574 c -0.06239,-0.86234 -0.333048,-1.30561 -0.943705,-1.54548 -0.548567,-0.21549 -0.618673,-0.35445 -0.463101,-0.9179 0.271576,-0.98357 0.936318,-1.3899 2.784077,-1.70176 0.608473,-0.10264 1.3207,-0.29051 1.582721,-0.41735 0.26201,-0.12685 0.51528,-0.19107 0.5628,-0.14272 0.0475,0.0483 0.26507,0.52017 0.4834,1.04848 0.54117,1.30934 0.55167,2.23885 0.0368,3.24577 -0.22501,0.44 -0.55651,0.85517 -0.8795,1.10152 -0.574571,0.43824 -0.620221,0.44631 -1.220123,0.21529 z m -7.864726,-1.43042 c -0.357254,-0.60962 -1.240057,-1.46379 -1.689423,-1.63462 -0.472927,-0.17981 -1.461305,-0.13852 -1.8883,0.0788 -0.211339,0.1076 -0.670785,0.46458 -1.020993,0.79328 -0.616063,0.57822 -0.64435,0.59075 -0.870988,0.38563 -0.128831,-0.11659 -0.375044,-0.49977 -0.547139,-0.85151 -0.277109,-0.56639 -0.305439,-0.7393 -0.247743,-1.51182 0.03587,-0.47975 0.170158,-1.2505 0.298496,-1.71275 l 0.233352,-0.84048 0.945413,-0.21295 c 1.14015,-0.25679 1.866422,-0.20257 2.657835,0.19847 0.761707,0.38599 1.392177,1.08806 1.301501,1.44932 -0.124087,0.49444 0.162618,1.67832 0.655052,2.70484 0.26997,0.56279 0.57326,1.11438 0.673981,1.22579 0.179039,0.19805 0.132189,0.45783 -0.08253,0.45783 -0.05933,0 -0.247665,-0.23847 -0.418477,-0.52992 z m 0.884503,-0.57137 c -1.470962,-2.65606 -1.368989,-4.05832 0.431287,-5.93087 0.43212,-0.44947 0.786493,-0.84762 0.787503,-0.88478 8.5e-4,-0.0372 0.04922,-0.14235 0.107047,-0.23371 0.08532,-0.13472 0.181461,-0.10888 0.508456,0.13666 0.221776,0.16652 0.684903,0.44379 1.029161,0.61615 1.238161,0.6199 1.612261,1.11698 1.772363,2.35498 0.07981,0.61704 0.06494,0.64501 -0.630896,1.18671 -0.583041,0.4539 -0.844426,0.88968 -0.96809,1.61404 l -0.08554,0.50112 -1.000687,0 -1.000696,0 -0.397559,0.4596 -0.397568,0.45958 -0.154781,-0.27948 z m 5.477107,-3.68368 c -0.03179,-0.0318 -0.0578,-0.23599 -0.0578,-0.45381 0,-0.58054 -0.331296,-1.4817 -0.730946,-1.98828 -0.192316,-0.24377 -0.349672,-0.49601 -0.349672,-0.56054 0,-0.14425 0.672569,-0.56107 1.080618,-0.6697 0.16509,-0.044 0.565834,-0.19866 0.890542,-0.34377 0.500733,-0.22381 0.599408,-0.23673 0.649962,-0.0851 0.03283,0.0983 0.374106,0.49821 0.758518,0.88863 0.796821,0.80928 1.182961,1.51175 1.182961,2.15209 0,0.35231 -0.0458,0.44237 -0.22488,0.44237 -0.12368,0 -0.46137,0.10381 -0.75042,0.2308 -0.50107,0.22004 -2.32733,0.50886 -2.44891,0.38729 z"
         style="fill:#000000" />
      <ellipse
         ry="17.52832"
         rx="17.528318"
         cy="430.0643"
         cx="96.513504"
         id="path16379"
         style="opacity:1;fill:none;fill-opacity:1;stroke:#ff0000;stroke-width:0.37643206;stroke-linejoin:miter;stroke-miterlimit:4;stroke-dasharray:none;stroke-opacity:1" />
    </g>
  </g>
</svg>
