<?xml version="1.0" encoding="UTF-8" standalone="no"?>
<!-- Created with Inkscape (http://www.inkscape.org/) -->

<svg
   xmlns:dc="http://purl.org/dc/elements/1.1/"
   xmlns:cc="http://creativecommons.org/ns#"
   xmlns:rdf="http://www.w3.org/1999/02/22-rdf-syntax-ns#"
   xmlns:svg="http://www.w3.org/2000/svg"
   xmlns="http://www.w3.org/2000/svg"
   xmlns:sodipodi="http://sodipodi.sourceforge.net/DTD/sodipodi-0.dtd"
   xmlns:inkscape="http://www.inkscape.org/namespaces/inkscape"
   width="10mm"
   height="10mm"
   viewBox="0 0 35.433071 35.433071"
   id="svg12662"
   version="1.1"
   inkscape:version="0.91 r13725"
   sodipodi:docname="Xbox.svg">
  <defs
     id="defs12664" />
  <sodipodi:namedview
     id="base"
     pagecolor="#ffffff"
     bordercolor="#666666"
     borderopacity="1.0"
     inkscape:pageopacity="0.0"
     inkscape:pageshadow="2"
     inkscape:zoom="11.2"
     inkscape:cx="21.10487"
     inkscape:cy="26.397328"
     inkscape:document-units="px"
     inkscape:current-layer="layer1"
     showgrid="false"
     inkscape:window-width="1920"
     inkscape:window-height="1137"
     inkscape:window-x="-8"
     inkscape:window-y="-8"
     inkscape:window-maximized="1" />
  <metadata
     id="metadata12667">
    <rdf:RDF>
      <cc:Work
         rdf:about="">
        <dc:format>image/svg+xml</dc:format>
        <dc:type
           rdf:resource="http://purl.org/dc/dcmitype/StillImage" />
        <dc:title></dc:title>
      </cc:Work>
    </rdf:RDF>
  </metadata>
  <g
     inkscape:label="Layer 1"
     inkscape:groupmode="layer"
     id="layer1"
     transform="translate(0,-1016.9291)">
    <g
       id="g13225"
       transform="translate(-305.08641,568.06025)">
      <path
         inkscape:connector-curvature="0"
         id="path13221"
         d="m 321.60131,480.72372 c -0.76637,-0.0668 -1.7868,-0.24887 -2.48931,-0.44403 -2.65773,-0.73833 -4.90753,-2.11283 -6.76695,-4.13424 -3.99159,-4.33934 -4.85843,-10.77706 -2.15723,-16.0212 0.87211,-1.69312 2.23099,-3.40314 2.99577,-3.76989 0.61329,-0.29409 1.07316,-0.28957 2.02804,0.0199 1.32286,0.42876 2.88991,1.4743 4.3639,2.91161 l 0.60664,0.59153 -0.35159,0.36366 c -1.42152,1.47031 -3.3138,3.85999 -4.57617,5.77904 -0.42001,0.6385 -0.5135,0.79021 -0.93706,1.52088 -1.13182,1.95243 -1.94119,4.44585 -2.10612,6.48831 -0.0443,0.5479 5.7e-4,1.48633 0.0874,1.83058 0.0622,0.24665 0.1054,0.22207 0.15223,-0.0867 0.0431,-0.28435 0.29541,-1.00908 0.51879,-1.49033 0.55613,-1.19825 1.80841,-3.07486 3.1816,-4.76783 1.2025,-1.48252 2.0851,-2.43349 4.83653,-5.21124 l 1.82049,-1.8379 1.59586,1.60525 c 1.91616,1.92743 3.08511,3.1835 4.52501,4.86228 1.90387,2.2197 2.58105,3.13186 3.27322,4.40909 0.46791,0.86343 0.93376,1.98633 1.05317,2.53871 0.0184,0.085 0.0449,0.143 0.059,0.1289 0.14427,-0.14427 0.25168,-2.29158 0.15425,-3.0836 -0.10595,-0.86111 -0.40376,-1.93806 -0.79543,-2.8764 -0.25007,-0.59908 -0.97046,-1.98648 -1.45642,-2.8049 -1.2902,-2.17285 -2.65123,-3.92929 -4.98419,-6.43222 l -0.84674,-0.90842 0.59584,-0.53 c 0.3277,-0.2915 0.64462,-0.5632 0.70425,-0.60378 0.0596,-0.0406 0.25381,-0.19042 0.4315,-0.33298 1.40469,-1.1271 3.72612,-2.37443 4.40526,-2.36699 0.36721,0.004 0.81793,0.14037 1.11222,0.33647 0.27101,0.18059 0.89823,0.85539 1.39558,1.50144 1.38575,1.80009 2.31674,3.87137 2.71082,6.03107 0.20465,1.12164 0.23526,1.46568 0.23526,2.6439 0,1.17821 -0.0306,1.52226 -0.23526,2.64389 -0.9667,5.29798 -5.04737,9.68539 -10.29137,11.06496 -1.55999,0.4104 -3.30657,0.56569 -4.84886,0.43114 z m 0.69793,-23.45241 c -1.68707,-1.26514 -3.39357,-2.2243 -4.71512,-2.65023 -0.77759,-0.2506 -1.55742,-0.283 -2.11375,-0.0878 -0.13475,0.0473 -0.23516,0.07 -0.22314,0.0506 0.0351,-0.0568 0.70794,-0.44383 1.21261,-0.69753 1.6638,-0.83636 3.34209,-1.29598 5.27873,-1.4456 2.39203,-0.18482 4.83462,0.25849 7.05147,1.27981 0.46979,0.21644 1.41088,0.74099 1.5875,0.88486 l 0.13407,0.10921 -0.27894,-0.11173 c -1.07023,-0.42867 -2.8786,0.0848 -5.14168,1.45999 -0.47915,0.29116 -1.42136,0.92804 -1.85279,1.25239 -0.19654,0.14775 -0.37828,0.28074 -0.40387,0.29553 -0.0256,0.0148 -0.26639,-0.13798 -0.53509,-0.33948 z"
         style="fill:#000000" />
      <circle
         r="16.40778"
         cy="466.58539"
         cx="322.80295"
         id="path13223"
         style="opacity:1;fill:none;fill-opacity:1;stroke:#ff0000;stroke-width:2.61751103;stroke-linejoin:miter;stroke-miterlimit:4;stroke-dasharray:none;stroke-opacity:1" />
    </g>
  </g>
</svg>
