  0
SECTION
  2
HEADER
  9
$ACADVER
  1
AC1014
  9
$HANDSEED
  5
FFFF
  9
$MEASUREMENT
 70
     1
  0
ENDSEC
  0
SECTION
  2
TABLES
  0
TABLE
  2
VPORT
  5
8
330
0
100
AcDbSymbolTable
 70
     4
  0
VPORT
  5
2E
330
8
100
AcDbSymbolTableRecord
100
AcDbViewportTableRecord
  2
*ACTIVE
 70
     0
 10
0.0
 20
0.0
 11
1.0
 21
1.0
 12
210.0
 22
148.5
 13
0.0
 23
0.0
 14
10.0
 24
10.0
 15
10.0
 25
10.0
 16
0.0
 26
0.0
 36
1.0
 17
0.0
 27
0.0
 37
0.0
 40
341.0
 41
1.24
 42
50.0
 43
0.0
 44
0.0
 50
0.0
 51
0.0
 71
     0
 72
   100
 73
     1
 74
     3
 75
     0
 76
     0
 77
     0
 78
     0
  0
ENDTAB
  0
TABLE
  2
LTYPE
  5
5
330
0
100
AcDbSymbolTable
 70
     1
  0
LTYPE
  5
14
330
5
100
AcDbSymbolTableRecord
100
AcDbLinetypeTableRecord
  2
BYBLOCK
 70
     0
  3

 72
    65
 73
     0
 40
0.0
  0
LTYPE
  5
15
330
5
100
AcDbSymbolTableRecord
100
AcDbLinetypeTableRecord
  2
BYLAYER
 70
     0
  3

 72
    65
 73
     0
 40
0.0
  0
LTYPE
  5
16
330
5
100
AcDbSymbolTableRecord
100
AcDbLinetypeTableRecord
  2
CONTINUOUS
 70
     0
  3
Solid line
 72
    65
 73
     0
 40
0.0
  0
ENDTAB
  0
TABLE
  2
LAYER
  5
2
100
AcDbSymbolTable
 70
1
  0
LAYER
  5
50
100
AcDbSymbolTableRecord
100
AcDbLayerTableRecord
  2
0
 70
0
  6
CONTINUOUS
  0
ENDTAB
  0
TABLE
  2
STYLE
  5
3
330
0
100
AcDbSymbolTable
 70
     1
  0
STYLE
  5
11
330
3
100
AcDbSymbolTableRecord
100
AcDbTextStyleTableRecord
  2
STANDARD
 70
     0
 40
0.0
 41
1.0
 50
0.0
 71
     0
 42
2.5
  3
txt
  4

  0
ENDTAB
  0
TABLE
  2
VIEW
  5
6
330
0
100
AcDbSymbolTable
 70
     0
  0
ENDTAB
  0
TABLE
  2
UCS
  5
7
330
0
100
AcDbSymbolTable
 70
     0
  0
ENDTAB
  0
TABLE
  2
APPID
  5
9
330
0
100
AcDbSymbolTable
 70
     2
  0
APPID
  5
12
330
9
100
AcDbSymbolTableRecord
100
AcDbRegAppTableRecord
  2
ACAD
 70
     0
  0
ENDTAB
  0
TABLE
  2
DIMSTYLE
  5
A
330
0
100
AcDbSymbolTable
 70
     1
  0
DIMSTYLE
105
27
330
A
100
AcDbSymbolTableRecord
100
AcDbDimStyleTableRecord
  2
ISO-25
 70
     0
  3

  4

  5

  6

  7

 40
1.0
 41
2.5
 42
0.625
 43
3.75
 44
1.25
 45
0.0
 46
0.0
 47
0.0
 48
0.0
140
2.5
141
2.5
142
0.0
143
0.03937007874016
144
1.0
145
0.0
146
1.0
147
0.625
 71
     0
 72
     0
 73
     0
 74
     0
 75
     0
 76
     0
 77
     1
 78
     8
170
     0
171
     3
172
     1
173
     0
174
     0
175
     0
176
     0
177
     0
178
     0
270
     2
271
     2
272
     2
273
     2
274
     3
340
11
275
     0
280
     0
281
     0
282
     0
283
     0
284
     8
285
     0
286
     0
287
     3
288
     0
  0
ENDTAB
  0
TABLE
  2
BLOCK_RECORD
  5
1
330
0
100
AcDbSymbolTable
 70
     1
  0
BLOCK_RECORD
  5
1F
330
1
100
AcDbSymbolTableRecord
100
AcDbBlockTableRecord
  2
*MODEL_SPACE
  0
BLOCK_RECORD
  5
1B
330
1
100
AcDbSymbolTableRecord
100
AcDbBlockTableRecord
  2
*PAPER_SPACE
  0
ENDTAB
  0
ENDSEC
  0
SECTION
  2
BLOCKS
  0
BLOCK
  5
20
330
1F
100
AcDbEntity
  8
0
100
AcDbBlockBegin
  2
*MODEL_SPACE
 70
     0
 10
0.0
 20
0.0
 30
0.0
  3
*MODEL_SPACE
  1

  0
ENDBLK
  5
21
330
1F
100
AcDbEntity
  8
0
100
AcDbBlockEnd
  0
BLOCK
  5
1C
330
1B
100
AcDbEntity
 67
     1
  8
0
100
AcDbBlockBegin
  2
*PAPER_SPACE
  1

  0
ENDBLK
  5
1D
330
1B
100
AcDbEntity
 67
     1
  8
0
100
AcDbBlockEnd
  0
ENDSEC
  0
SECTION
  2
ENTITIES
  0
SPLINE
  5
100
100
AcDbEntity
  8
0
 62
7
100
AcDbSpline
 70
8
 71
3
 72
8
 73
4
 74
0
 40
0
 40
0
 40
0
 40
0
 40
1
 40
1
 40
1
 40
1
 10
52.593151
 20
143.659449
 30
0.0
 10
60.550382
 20
135.275520
 30
0.0
 10
69.622539
 20
129.475959
 30
0.0
 10
79.809622
 20
126.260765
 30
0.0
  0
LINE
  5
101
100
AcDbEntity
  8
0
 62
7
100
AcDbLine
 10
79.809622
 20
126.260765
 30
0.0
 11
120.110269
 21
126.260765
 31
0.0
  0
SPLINE
  5
102
100
AcDbEntity
  8
0
 62
7
100
AcDbSpline
 70
8
 71
3
 72
8
 73
4
 74
0
 40
0
 40
0
 40
0
 40
0
 40
1
 40
1
 40
1
 40
1
 10
120.110269
 20
126.260765
 30
0.0
 10
123.707474
 20
127.347234
 30
0.0
 10
127.291850
 20
128.728806
 30
0.0
 10
130.863397
 20
130.405482
 30
0.0
  0
SPLINE
  5
103
100
AcDbEntity
  8
0
 62
7
100
AcDbSpline
 70
8
 71
3
 72
8
 73
4
 74
0
 40
0
 40
0
 40
0
 40
0
 40
1
 40
1
 40
1
 40
1
 10
130.863397
 20
130.405482
 30
0.0
 10
141.009538
 20
135.237658
 30
0.0
 10
149.188572
 20
142.831077
 30
0.0
 10
155.400497
 20
153.185739
 30
0.0
  0
SPLINE
  5
104
100
AcDbEntity
  8
0
 62
7
100
AcDbSpline
 70
8
 71
3
 72
8
 73
4
 74
0
 40
0
 40
0
 40
0
 40
0
 40
1
 40
1
 40
1
 40
1
 10
155.400497
 20
153.185739
 30
0.0
 10
161.612421
 20
163.609432
 30
0.0
 10
164.718384
 20
173.342815
 30
0.0
 10
164.718384
 20
182.385887
 30
0.0
  0
LINE
  5
105
100
AcDbEntity
  8
0
 62
7
100
AcDbLine
 10
164.718384
 20
182.385887
 30
0.0
 11
164.718384
 21
199.988815
 31
0.0
  0
LINE
  5
106
100
AcDbEntity
  8
0
 62
7
100
AcDbLine
 10
164.718384
 20
199.988815
 30
0.0
 11
101.977947
 21
199.988815
 31
0.0
  0
LINE
  5
107
100
AcDbEntity
  8
0
 62
7
100
AcDbLine
 10
101.977947
 20
199.988815
 30
0.0
 11
101.977947
 21
173.480878
 31
0.0
  0
LINE
  5
108
100
AcDbEntity
  8
0
 62
7
100
AcDbLine
 10
101.977947
 20
173.480878
 30
0.0
 11
134.176423
 21
173.480878
 31
0.0
  0
SPLINE
  5
109
100
AcDbEntity
  8
0
 62
7
100
AcDbSpline
 70
8
 71
3
 72
8
 73
4
 74
0
 40
0
 40
0
 40
0
 40
0
 40
1
 40
1
 40
1
 40
1
 10
134.176423
 20
173.480878
 30
0.0
 10
130.794376
 20
165.128117
 30
0.0
 10
126.307985
 20
159.433053
 30
0.0
 10
120.717252
 20
156.395686
 30
0.0
  0
SPLINE
  5
10a
100
AcDbEntity
  8
0
 62
7
100
AcDbSpline
 70
8
 71
3
 72
8
 73
4
 74
0
 40
0
 40
0
 40
0
 40
0
 40
1
 40
1
 40
1
 40
1
 10
120.717252
 20
156.395686
 30
0.0
 10
115.195543
 20
153.358319
 30
0.0
 10
109.432259
 20
151.839635
 30
0.0
 10
103.427398
 20
151.839635
 30
0.0
  0
SPLINE
  5
10b
100
AcDbEntity
  8
0
 62
7
100
AcDbSpline
 70
8
 71
3
 72
8
 73
4
 74
0
 40
0
 40
0
 40
0
 40
0
 40
1
 40
1
 40
1
 40
1
 10
103.427398
 20
151.839635
 30
0.0
 10
92.383976
 20
151.839635
 30
0.0
 10
82.928046
 20
155.877953
 30
0.0
 10
75.059609
 20
163.954588
 30
0.0
  0
SPLINE
  5
10c
100
AcDbEntity
  8
0
 62
7
100
AcDbSpline
 70
8
 71
3
 72
8
 73
4
 74
0
 40
0
 40
0
 40
0
 40
0
 40
1
 40
1
 40
1
 40
1
 10
75.059609
 20
163.954588
 30
0.0
 10
67.260194
 20
172.100257
 30
0.0
 10
63.360486
 20
182.006217
 30
0.0
 10
63.360486
 20
193.672469
 30
0.0
  0
SPLINE
  5
10d
100
AcDbEntity
  8
0
 62
7
100
AcDbSpline
 70
8
 71
3
 72
8
 73
4
 74
0
 40
0
 40
0
 40
0
 40
0
 40
1
 40
1
 40
1
 40
1
 10
63.360486
 20
193.672469
 30
0.0
 10
63.360486
 20
204.648412
 30
0.0
 10
67.260194
 20
214.174702
 30
0.0
 10
75.059609
 20
222.251339
 30
0.0
  0
SPLINE
  5
10e
100
AcDbEntity
  8
0
 62
7
100
AcDbSpline
 70
8
 71
3
 72
8
 73
4
 74
0
 40
0
 40
0
 40
0
 40
0
 40
1
 40
1
 40
1
 40
1
 10
75.059609
 20
222.251339
 30
0.0
 10
82.928046
 20
230.327976
 30
0.0
 10
92.176912
 20
234.366295
 30
0.0
 10
102.806205
 20
234.366295
 30
0.0
  0
SPLINE
  5
10f
100
AcDbEntity
  8
0
 62
7
100
AcDbSpline
 70
8
 71
3
 72
8
 73
4
 74
0
 40
0
 40
0
 40
0
 40
0
 40
1
 40
1
 40
1
 40
1
 10
102.806205
 20
234.366295
 30
0.0
 10
109.363236
 20
234.366295
 30
0.0
 10
115.644183
 20
232.606001
 30
0.0
 10
121.649043
 20
229.085415
 30
0.0
  0
SPLINE
  5
110
100
AcDbEntity
  8
0
 62
7
100
AcDbSpline
 70
8
 71
3
 72
8
 73
4
 74
0
 40
0
 40
0
 40
0
 40
0
 40
1
 40
1
 40
1
 40
1
 10
121.649043
 20
229.085415
 30
0.0
 10
127.653903
 20
225.633860
 30
0.0
 10
132.692464
 20
220.387499
 30
0.0
 10
136.764725
 20
213.346330
 30
0.0
  0
LINE
  5
111
100
AcDbEntity
  8
0
 62
7
100
AcDbLine
 10
136.764725
 20
213.346330
 30
0.0
 11
156.228754
 21
231.570536
 31
0.0
  0
SPLINE
  5
112
100
AcDbEntity
  8
0
 62
7
100
AcDbSpline
 70
8
 71
3
 72
8
 73
4
 74
0
 40
0
 40
0
 40
0
 40
0
 40
1
 40
1
 40
1
 40
1
 10
156.228754
 20
231.570536
 30
0.0
 10
143.390777
 20
252.486953
 30
0.0
 10
125.031090
 20
262.945161
 30
0.0
 10
101.149693
 20
262.945161
 30
0.0
  0
SPLINE
  5
113
100
AcDbEntity
  8
0
 62
7
100
AcDbSpline
 70
8
 71
3
 72
8
 73
4
 74
0
 40
0
 40
0
 40
0
 40
0
 40
1
 40
1
 40
1
 40
1
 10
101.149693
 20
262.945161
 30
0.0
 10
82.444898
 20
262.945161
 30
0.0
 10
66.431938
 20
256.214631
 30
0.0
 10
53.110811
 20
242.753570
 30
0.0
  0
SPLINE
  5
114
100
AcDbEntity
  8
0
 62
7
100
AcDbSpline
 70
8
 71
3
 72
8
 73
4
 74
0
 40
0
 40
0
 40
0
 40
0
 40
1
 40
1
 40
1
 40
1
 10
53.110811
 20
242.753570
 30
0.0
 10
39.858707
 20
229.292510
 30
0.0
 10
33.232655
 20
213.070205
 30
0.0
 10
33.232655
 20
194.086657
 30
0.0
  0
SPLINE
  5
115
100
AcDbEntity
  8
0
 62
7
100
AcDbSpline
 70
8
 71
3
 72
8
 73
4
 74
0
 40
0
 40
0
 40
0
 40
0
 40
1
 40
1
 40
1
 40
1
 10
33.232655
 20
194.086657
 30
0.0
 10
33.232655
 20
174.067643
 30
0.0
 10
39.686154
 20
157.258574
 30
0.0
 10
52.593151
 20
143.659449
 30
0.0
  0
SPLINE
  5
116
100
AcDbEntity
  8
0
 62
7
100
AcDbSpline
 70
8
 71
3
 72
8
 73
4
 74
0
 40
0
 40
0
 40
0
 40
0
 40
1
 40
1
 40
1
 40
1
 10
102.806205
 20
234.609072
 30
0.0
 10
104.472740
 20
234.609072
 30
0.0
 10
106.130834
 20
234.496139
 30
0.0
 10
109.429890
 20
234.036616
 30
0.0
  0
SPLINE
  5
117
100
AcDbEntity
  8
0
 62
7
100
AcDbSpline
 70
8
 71
3
 72
8
 73
4
 74
0
 40
0
 40
0
 40
0
 40
0
 40
1
 40
1
 40
1
 40
1
 10
109.429890
 20
234.036616
 30
0.0
 10
109.429890
 20
234.036616
 30
0.0
 10
111.057484
 20
233.691615
 30
0.0
 10
113.458875
 20
233.006871
 30
0.0
  0
SPLINE
  5
118
100
AcDbEntity
  8
0
 62
7
100
AcDbSpline
 70
8
 71
3
 72
8
 73
4
 74
0
 40
0
 40
0
 40
0
 40
0
 40
1
 40
1
 40
1
 40
1
 10
113.458875
 20
233.006871
 30
0.0
 10
113.458875
 20
233.006871
 30
0.0
 10
114.251784
 20
232.750933
 30
0.0
 10
115.812211
 20
232.189542
 30
0.0
  0
SPLINE
  5
119
100
AcDbEntity
  8
0
 62
7
100
AcDbSpline
 70
8
 71
3
 72
8
 73
4
 74
0
 40
0
 40
0
 40
0
 40
0
 40
1
 40
1
 40
1
 40
1
 10
115.812211
 20
232.189542
 30
0.0
 10
115.812211
 20
232.189542
 30
0.0
 10
116.581385
 20
231.883634
 30
0.0
 10
118.857442
 20
230.893986
 30
0.0
  0
SPLINE
  5
11a
100
AcDbEntity
  8
0
 62
7
100
AcDbSpline
 70
8
 71
3
 72
8
 73
4
 74
0
 40
0
 40
0
 40
0
 40
0
 40
1
 40
1
 40
1
 40
1
 10
118.857442
 20
230.893986
 30
0.0
 10
118.857442
 20
230.893986
 30
0.0
 10
120.332887
 20
230.138414
 30
0.0
 10
121.770355
 20
229.295717
 30
0.0
  0
SPLINE
  5
11b
100
AcDbEntity
  8
0
 62
7
100
AcDbSpline
 70
8
 71
3
 72
8
 73
4
 74
0
 40
0
 40
0
 40
0
 40
0
 40
1
 40
1
 40
1
 40
1
 10
121.770355
 20
229.295717
 30
0.0
 10
121.770548
 20
229.295604
 30
0.0
 10
121.770740
 20
229.295491
 30
0.0
 10
121.770932
 20
229.295378
 30
0.0
  0
SPLINE
  5
11c
100
AcDbEntity
  8
0
 62
7
100
AcDbSpline
 70
8
 71
3
 72
8
 73
4
 74
0
 40
0
 40
0
 40
0
 40
0
 40
1
 40
1
 40
1
 40
1
 10
74.885340
 20
222.420369
 30
0.0
 10
76.719950
 20
224.303497
 30
0.0
 10
78.686978
 20
226.029384
 30
0.0
 10
80.816946
 20
227.562393
 30
0.0
  0
SPLINE
  5
11d
100
AcDbEntity
  8
0
 62
7
100
AcDbSpline
 70
8
 71
3
 72
8
 73
4
 74
0
 40
0
 40
0
 40
0
 40
0
 40
1
 40
1
 40
1
 40
1
 10
80.816946
 20
227.562393
 30
0.0
 10
81.349461
 20
227.945662
 30
0.0
 10
81.892750
 20
228.317070
 30
0.0
 10
82.441871
 20
228.672619
 30
0.0
  0
SPLINE
  5
11e
100
AcDbEntity
  8
0
 62
7
100
AcDbSpline
 70
8
 71
3
 72
8
 73
4
 74
0
 40
0
 40
0
 40
0
 40
0
 40
1
 40
1
 40
1
 40
1
 10
82.441871
 20
228.672619
 30
0.0
 10
82.990991
 20
229.028168
 30
0.0
 10
83.547070
 20
229.368709
 30
0.0
 10
84.110208
 20
229.693991
 30
0.0
  0
SPLINE
  5
11f
100
AcDbEntity
  8
0
 62
7
100
AcDbSpline
 70
8
 71
3
 72
8
 73
4
 74
0
 40
0
 40
0
 40
0
 40
0
 40
1
 40
1
 40
1
 40
1
 10
84.110208
 20
229.693991
 30
0.0
 10
85.236483
 20
230.344555
 30
0.0
 10
86.391013
 20
230.934106
 30
0.0
 10
87.574833
 20
231.460626
 30
0.0
  0
SPLINE
  5
120
100
AcDbEntity
  8
0
 62
7
100
AcDbSpline
 70
8
 71
3
 72
8
 73
4
 74
0
 40
0
 40
0
 40
0
 40
0
 40
1
 40
1
 40
1
 40
1
 10
87.574833
 20
231.460626
 30
0.0
 10
88.758653
 20
231.987146
 30
0.0
 10
89.971767
 20
232.450637
 30
0.0
 10
91.215279
 20
232.848909
 30
0.0
  0
SPLINE
  5
121
100
AcDbEntity
  8
0
 62
7
100
AcDbSpline
 70
8
 71
3
 72
8
 73
4
 74
0
 40
0
 40
0
 40
0
 40
0
 40
1
 40
1
 40
1
 40
1
 10
91.215279
 20
232.848909
 30
0.0
 10
91.837035
 20
233.048045
 30
0.0
 10
92.467503
 20
233.231160
 30
0.0
 10
93.103276
 20
233.397047
 30
0.0
  0
SPLINE
  5
122
100
AcDbEntity
  8
0
 62
7
100
AcDbSpline
 70
8
 71
3
 72
8
 73
4
 74
0
 40
0
 40
0
 40
0
 40
0
 40
1
 40
1
 40
1
 40
1
 10
93.103276
 20
233.397047
 30
0.0
 10
93.739048
 20
233.562934
 30
0.0
 10
94.377146
 20
233.710889
 30
0.0
 10
95.017499
 20
233.841484
 30
0.0
  0
SPLINE
  5
123
100
AcDbEntity
  8
0
 62
7
100
AcDbSpline
 70
8
 71
3
 72
8
 73
4
 74
0
 40
0
 40
0
 40
0
 40
0
 40
1
 40
1
 40
1
 40
1
 10
95.017499
 20
233.841484
 30
0.0
 10
97.578914
 20
234.363865
 30
0.0
 10
100.176317
 20
234.609072
 30
0.0
 10
102.806205
 20
234.609072
 30
0.0
  0
SPLINE
  5
124
100
AcDbEntity
  8
0
 62
7
100
AcDbSpline
 70
8
 71
3
 72
8
 73
4
 74
0
 40
0
 40
0
 40
0
 40
0
 40
1
 40
1
 40
1
 40
1
 10
63.117709
 20
193.672469
 30
0.0
 10
63.117709
 20
196.346806
 30
0.0
 10
63.347283
 20
198.997581
 30
0.0
 10
63.842486
 20
201.621535
 30
0.0
  0
SPLINE
  5
125
100
AcDbEntity
  8
0
 62
7
100
AcDbSpline
 70
8
 71
3
 72
8
 73
4
 74
0
 40
0
 40
0
 40
0
 40
0
 40
1
 40
1
 40
1
 40
1
 10
63.842486
 20
201.621535
 30
0.0
 10
63.966287
 20
202.277523
 30
0.0
 10
64.106803
 20
202.931637
 30
0.0
 10
64.262954
 20
203.578028
 30
0.0
  0
SPLINE
  5
126
100
AcDbEntity
  8
0
 62
7
100
AcDbSpline
 70
8
 71
3
 72
8
 73
4
 74
0
 40
0
 40
0
 40
0
 40
0
 40
1
 40
1
 40
1
 40
1
 10
64.262954
 20
203.578028
 30
0.0
 10
64.419104
 20
204.224419
 30
0.0
 10
64.591159
 20
204.864624
 30
0.0
 10
64.779074
 20
205.498650
 30
0.0
  0
SPLINE
  5
127
100
AcDbEntity
  8
0
 62
7
100
AcDbSpline
 70
8
 71
3
 72
8
 73
4
 74
0
 40
0
 40
0
 40
0
 40
0
 40
1
 40
1
 40
1
 40
1
 10
64.779074
 20
205.498650
 30
0.0
 10
65.154905
 20
206.766700
 30
0.0
 10
65.594184
 20
208.010057
 30
0.0
 10
66.096652
 20
209.228911
 30
0.0
  0
SPLINE
  5
128
100
AcDbEntity
  8
0
 62
7
100
AcDbSpline
 70
8
 71
3
 72
8
 73
4
 74
0
 40
0
 40
0
 40
0
 40
0
 40
1
 40
1
 40
1
 40
1
 10
66.096652
 20
209.228911
 30
0.0
 10
66.599120
 20
210.447765
 30
0.0
 10
67.164794
 20
211.642149
 30
0.0
 10
67.793408
 20
212.812139
 30
0.0
  0
SPLINE
  5
129
100
AcDbEntity
  8
0
 62
7
100
AcDbSpline
 70
8
 71
3
 72
8
 73
4
 74
0
 40
0
 40
0
 40
0
 40
0
 40
1
 40
1
 40
1
 40
1
 10
67.793408
 20
212.812139
 30
0.0
 10
68.422022
 20
213.982128
 30
0.0
 10
69.116094
 20
215.130483
 30
0.0
 10
69.858236
 20
216.234768
 30
0.0
  0
SPLINE
  5
12a
100
AcDbEntity
  8
0
 62
7
100
AcDbSpline
 70
8
 71
3
 72
8
 73
4
 74
0
 40
0
 40
0
 40
0
 40
0
 40
1
 40
1
 40
1
 40
1
 10
69.858236
 20
216.234768
 30
0.0
 10
71.342458
 20
218.443243
 30
0.0
 10
73.028298
 20
220.497294
 30
0.0
 10
74.885340
 20
222.420369
 30
0.0
  0
SPLINE
  5
12b
100
AcDbEntity
  8
0
 62
7
100
AcDbSpline
 70
8
 71
3
 72
8
 73
4
 74
0
 40
0
 40
0
 40
0
 40
0
 40
1
 40
1
 40
1
 40
1
 10
74.884980
 20
163.785928
 30
0.0
 10
72.973381
 20
165.782449
 30
0.0
 10
71.252548
 20
167.927085
 30
0.0
 10
69.750357
 20
170.242049
 30
0.0
  0
SPLINE
  5
12c
100
AcDbEntity
  8
0
 62
7
100
AcDbSpline
 70
8
 71
3
 72
8
 73
4
 74
0
 40
0
 40
0
 40
0
 40
0
 40
1
 40
1
 40
1
 40
1
 10
69.750357
 20
170.242049
 30
0.0
 10
69.374778
 20
170.820837
 30
0.0
 10
69.012968
 20
171.410386
 30
0.0
 10
68.668409
 20
172.005300
 30
0.0
  0
SPLINE
  5
12d
100
AcDbEntity
  8
0
 62
7
100
AcDbSpline
 70
8
 71
3
 72
8
 73
4
 74
0
 40
0
 40
0
 40
0
 40
0
 40
1
 40
1
 40
1
 40
1
 10
68.668409
 20
172.005300
 30
0.0
 10
68.323850
 20
172.600212
 30
0.0
 10
67.995631
 20
173.201849
 30
0.0
 10
67.683670
 20
173.810160
 30
0.0
  0
SPLINE
  5
12e
100
AcDbEntity
  8
0
 62
7
100
AcDbSpline
 70
8
 71
3
 72
8
 73
4
 74
0
 40
0
 40
0
 40
0
 40
0
 40
1
 40
1
 40
1
 40
1
 10
67.683670
 20
173.810160
 30
0.0
 10
67.059748
 20
175.026784
 30
0.0
 10
66.500841
 20
176.270136
 30
0.0
 10
66.006252
 20
177.540019
 30
0.0
  0
SPLINE
  5
12f
100
AcDbEntity
  8
0
 62
7
100
AcDbSpline
 70
8
 71
3
 72
8
 73
4
 74
0
 40
0
 40
0
 40
0
 40
0
 40
1
 40
1
 40
1
 40
1
 10
66.006252
 20
177.540019
 30
0.0
 10
65.511662
 20
178.809903
 30
0.0
 10
65.081381
 20
180.106350
 30
0.0
 10
64.714792
 20
181.429083
 30
0.0
  0
SPLINE
  5
130
100
AcDbEntity
  8
0
 62
7
100
AcDbSpline
 70
8
 71
3
 72
8
 73
4
 74
0
 40
0
 40
0
 40
0
 40
0
 40
1
 40
1
 40
1
 40
1
 10
64.714792
 20
181.429083
 30
0.0
 10
64.348204
 20
182.751816
 30
0.0
 10
64.045088
 20
184.105033
 30
0.0
 10
63.808249
 20
185.460124
 30
0.0
  0
SPLINE
  5
131
100
AcDbEntity
  8
0
 62
7
100
AcDbSpline
 70
8
 71
3
 72
8
 73
4
 74
0
 40
0
 40
0
 40
0
 40
0
 40
1
 40
1
 40
1
 40
1
 10
63.808249
 20
185.460124
 30
0.0
 10
63.334572
 20
188.170307
 30
0.0
 10
63.117709
 20
190.909207
 30
0.0
 10
63.117709
 20
193.672469
 30
0.0
  0
SPLINE
  5
132
100
AcDbEntity
  8
0
 62
7
100
AcDbSpline
 70
8
 71
3
 72
8
 73
4
 74
0
 40
0
 40
0
 40
0
 40
0
 40
1
 40
1
 40
1
 40
1
 10
103.427398
 20
151.596858
 30
0.0
 10
100.748485
 20
151.596858
 30
0.0
 10
98.094622
 20
151.832319
 30
0.0
 10
95.469663
 20
152.344098
 30
0.0
  0
SPLINE
  5
133
100
AcDbEntity
  8
0
 62
7
100
AcDbSpline
 70
8
 71
3
 72
8
 73
4
 74
0
 40
0
 40
0
 40
0
 40
0
 40
1
 40
1
 40
1
 40
1
 10
95.469663
 20
152.344098
 30
0.0
 10
94.813423
 20
152.472043
 30
0.0
 10
94.159043
 20
152.617424
 30
0.0
 10
93.512880
 20
152.779066
 30
0.0
  0
SPLINE
  5
134
100
AcDbEntity
  8
0
 62
7
100
AcDbSpline
 70
8
 71
3
 72
8
 73
4
 74
0
 40
0
 40
0
 40
0
 40
0
 40
1
 40
1
 40
1
 40
1
 10
93.512880
 20
152.779066
 30
0.0
 10
92.866717
 20
152.940708
 30
0.0
 10
92.227137
 20
153.118904
 30
0.0
 10
91.594146
 20
153.313637
 30
0.0
  0
SPLINE
  5
135
100
AcDbEntity
  8
0
 62
7
100
AcDbSpline
 70
8
 71
3
 72
8
 73
4
 74
0
 40
0
 40
0
 40
0
 40
0
 40
1
 40
1
 40
1
 40
1
 10
91.594146
 20
153.313637
 30
0.0
 10
90.328163
 20
153.703102
 30
0.0
 10
89.088507
 20
154.158721
 30
0.0
 10
87.875055
 20
154.680448
 30
0.0
  0
SPLINE
  5
136
100
AcDbEntity
  8
0
 62
7
100
AcDbSpline
 70
8
 71
3
 72
8
 73
4
 74
0
 40
0
 40
0
 40
0
 40
0
 40
1
 40
1
 40
1
 40
1
 10
87.875055
 20
154.680448
 30
0.0
 10
86.661602
 20
155.202175
 30
0.0
 10
85.474337
 20
155.790020
 30
0.0
 10
84.313211
 20
156.443961
 30
0.0
  0
SPLINE
  5
137
100
AcDbEntity
  8
0
 62
7
100
AcDbSpline
 70
8
 71
3
 72
8
 73
4
 74
0
 40
0
 40
0
 40
0
 40
0
 40
1
 40
1
 40
1
 40
1
 10
84.313211
 20
156.443961
 30
0.0
 10
83.732649
 20
156.770932
 30
0.0
 10
83.157154
 20
157.115402
 30
0.0
 10
82.592959
 20
157.473282
 30
0.0
  0
SPLINE
  5
138
100
AcDbEntity
  8
0
 62
7
100
AcDbSpline
 70
8
 71
3
 72
8
 73
4
 74
0
 40
0
 40
0
 40
0
 40
0
 40
1
 40
1
 40
1
 40
1
 10
82.592959
 20
157.473282
 30
0.0
 10
82.028764
 20
157.831163
 30
0.0
 10
81.475394
 20
158.202597
 30
0.0
 10
80.932366
 20
158.586975
 30
0.0
  0
SPLINE
  5
139
100
AcDbEntity
  8
0
 62
7
100
AcDbSpline
 70
8
 71
3
 72
8
 73
4
 74
0
 40
0
 40
0
 40
0
 40
0
 40
1
 40
1
 40
1
 40
1
 10
80.932366
 20
158.586975
 30
0.0
 10
78.760436
 20
160.124357
 30
0.0
 10
76.753441
 20
161.868081
 30
0.0
 10
74.884980
 20
163.785928
 30
0.0
  0
SPLINE
  5
13a
100
AcDbEntity
  8
0
 62
7
100
AcDbSpline
 70
8
 71
3
 72
8
 73
4
 74
0
 40
0
 40
0
 40
0
 40
0
 40
1
 40
1
 40
1
 40
1
 10
120.833707
 20
156.182662
 30
0.0
 10
120.833589
 20
156.182597
 30
0.0
 10
120.833471
 20
156.182532
 30
0.0
 10
120.833352
 20
156.182467
 30
0.0
  0
SPLINE
  5
13b
100
AcDbEntity
  8
0
 62
7
100
AcDbSpline
 70
8
 71
3
 72
8
 73
4
 74
0
 40
0
 40
0
 40
0
 40
0
 40
1
 40
1
 40
1
 40
1
 10
120.833352
 20
156.182467
 30
0.0
 10
119.500024
 20
155.449077
 30
0.0
 10
118.131044
 20
154.791666
 30
0.0
 10
116.722526
 20
154.218225
 30
0.0
  0
SPLINE
  5
13c
100
AcDbEntity
  8
0
 62
7
100
AcDbSpline
 70
8
 71
3
 72
8
 73
4
 74
0
 40
0
 40
0
 40
0
 40
0
 40
1
 40
1
 40
1
 40
1
 10
116.722526
 20
154.218225
 30
0.0
 10
115.314008
 20
153.644784
 30
0.0
 10
113.874864
 20
153.159169
 30
0.0
 10
112.406219
 20
152.767955
 30
0.0
  0
SPLINE
  5
13d
100
AcDbEntity
  8
0
 62
7
100
AcDbSpline
 70
8
 71
3
 72
8
 73
4
 74
0
 40
0
 40
0
 40
0
 40
0
 40
1
 40
1
 40
1
 40
1
 10
112.406219
 20
152.767955
 30
0.0
 10
111.671896
 20
152.572348
 30
0.0
 10
110.931510
 20
152.400769
 30
0.0
 10
110.189342
 20
152.254211
 30
0.0
  0
SPLINE
  5
13e
100
AcDbEntity
  8
0
 62
7
100
AcDbSpline
 70
8
 71
3
 72
8
 73
4
 74
0
 40
0
 40
0
 40
0
 40
0
 40
1
 40
1
 40
1
 40
1
 10
110.189342
 20
152.254211
 30
0.0
 10
109.447173
 20
152.107653
 30
0.0
 10
108.701943
 20
151.985766
 30
0.0
 10
107.953668
 20
151.888384
 30
0.0
  0
SPLINE
  5
13f
100
AcDbEntity
  8
0
 62
7
100
AcDbSpline
 70
8
 71
3
 72
8
 73
4
 74
0
 40
0
 40
0
 40
0
 40
0
 40
1
 40
1
 40
1
 40
1
 10
107.953668
 20
151.888384
 30
0.0
 10
106.457118
 20
151.693619
 30
0.0
 10
104.948366
 20
151.596858
 30
0.0
 10
103.427398
 20
151.596858
 30
0.0
  0
SPLINE
  5
140
100
AcDbEntity
  8
0
 62
7
100
AcDbSpline
 70
8
 71
3
 72
8
 73
4
 74
0
 40
0
 40
0
 40
0
 40
0
 40
1
 40
1
 40
1
 40
1
 10
134.536678
 20
173.723655
 30
0.0
 10
134.384893
 20
173.348682
 30
0.0
 10
134.233090
 20
172.974694
 30
0.0
 10
133.889749
 20
172.160555
 30
0.0
  0
SPLINE
  5
141
100
AcDbEntity
  8
0
 62
7
100
AcDbSpline
 70
8
 71
3
 72
8
 73
4
 74
0
 40
0
 40
0
 40
0
 40
0
 40
1
 40
1
 40
1
 40
1
 10
133.889749
 20
172.160555
 30
0.0
 10
133.889749
 20
172.160555
 30
0.0
 10
133.697496
 20
171.720058
 30
0.0
 10
133.103606
 20
170.407466
 30
0.0
  0
SPLINE
  5
142
100
AcDbEntity
  8
0
 62
7
100
AcDbSpline
 70
8
 71
3
 72
8
 73
4
 74
0
 40
0
 40
0
 40
0
 40
0
 40
1
 40
1
 40
1
 40
1
 10
133.103606
 20
170.407466
 30
0.0
 10
133.103606
 20
170.407466
 30
0.0
 10
132.684614
 20
169.543565
 30
0.0
 10
131.792846
 20
167.841746
 30
0.0
  0
SPLINE
  5
143
100
AcDbEntity
  8
0
 62
7
100
AcDbSpline
 70
8
 71
3
 72
8
 73
4
 74
0
 40
0
 40
0
 40
0
 40
0
 40
1
 40
1
 40
1
 40
1
 10
131.792846
 20
167.841746
 30
0.0
 10
131.792846
 20
167.841746
 30
0.0
 10
131.319275
 20
167.002631
 30
0.0
 10
130.315266
 20
165.365720
 30
0.0
  0
SPLINE
  5
144
100
AcDbEntity
  8
0
 62
7
100
AcDbSpline
 70
8
 71
3
 72
8
 73
4
 74
0
 40
0
 40
0
 40
0
 40
0
 40
1
 40
1
 40
1
 40
1
 10
130.315266
 20
165.365720
 30
0.0
 10
130.315266
 20
165.365720
 30
0.0
 10
129.784470
 20
164.567002
 30
0.0
 10
128.655739
 20
163.015660
 30
0.0
  0
SPLINE
  5
145
100
AcDbEntity
  8
0
 62
7
100
AcDbSpline
 70
8
 71
3
 72
8
 73
4
 74
0
 40
0
 40
0
 40
0
 40
0
 40
1
 40
1
 40
1
 40
1
 10
128.655739
 20
163.015660
 30
0.0
 10
128.655739
 20
163.015660
 30
0.0
 10
128.055235
 20
162.260441
 30
0.0
 10
126.795525
 20
160.826855
 30
0.0
  0
SPLINE
  5
146
100
AcDbEntity
  8
0
 62
7
100
AcDbSpline
 70
8
 71
3
 72
8
 73
4
 74
0
 40
0
 40
0
 40
0
 40
0
 40
1
 40
1
 40
1
 40
1
 10
126.795525
 20
160.826855
 30
0.0
 10
126.795525
 20
160.826855
 30
0.0
 10
126.135094
 20
160.146292
 30
0.0
 10
124.051941
 20
158.224933
 30
0.0
  0
SPLINE
  5
147
100
AcDbEntity
  8
0
 62
7
100
AcDbSpline
 70
8
 71
3
 72
8
 73
4
 74
0
 40
0
 40
0
 40
0
 40
0
 40
1
 40
1
 40
1
 40
1
 10
124.051941
 20
158.224933
 30
0.0
 10
124.051941
 20
158.224933
 30
0.0
 10
122.528602
 20
157.103582
 30
0.0
 10
120.834064
 20
156.182856
 30
0.0
  0
SPLINE
  5
148
100
AcDbEntity
  8
0
 62
7
100
AcDbSpline
 70
8
 71
3
 72
8
 73
4
 74
0
 40
0
 40
0
 40
0
 40
0
 40
1
 40
1
 40
1
 40
1
 10
120.834064
 20
156.182856
 30
0.0
 10
120.833945
 20
156.182791
 30
0.0
 10
120.833826
 20
156.182727
 30
0.0
 10
120.833707
 20
156.182662
 30
0.0
  0
LINE
  5
149
100
AcDbEntity
  8
0
 62
7
100
AcDbLine
 10
102.220724
 20
173.723655
 30
0.0
 11
134.536678
 21
173.723655
 31
0.0
  0
LINE
  5
14a
100
AcDbEntity
  8
0
 62
7
100
AcDbLine
 10
102.220724
 20
199.746038
 30
0.0
 11
102.220724
 21
173.723655
 31
0.0
  0
LINE
  5
14b
100
AcDbEntity
  8
0
 62
7
100
AcDbLine
 10
164.475607
 20
199.746038
 30
0.0
 11
102.220724
 21
199.746038
 31
0.0
  0
LINE
  5
14c
100
AcDbEntity
  8
0
 62
7
100
AcDbLine
 10
164.475607
 20
182.385887
 30
0.0
 11
164.475607
 21
199.746038
 31
0.0
  0
SPLINE
  5
14d
100
AcDbEntity
  8
0
 62
7
100
AcDbSpline
 70
8
 71
3
 72
8
 73
4
 74
0
 40
0
 40
0
 40
0
 40
0
 40
1
 40
1
 40
1
 40
1
 10
155.192127
 20
153.310329
 30
0.0
 10
155.192167
 20
153.310395
 30
0.0
 10
155.192206
 20
153.310462
 30
0.0
 10
155.192246
 20
153.310528
 30
0.0
  0
SPLINE
  5
14e
100
AcDbEntity
  8
0
 62
7
100
AcDbSpline
 70
8
 71
3
 72
8
 73
4
 74
0
 40
0
 40
0
 40
0
 40
0
 40
1
 40
1
 40
1
 40
1
 10
155.192246
 20
153.310528
 30
0.0
 10
156.511916
 20
155.524984
 30
0.0
 10
157.739807
 20
157.788335
 30
0.0
 10
158.851278
 20
160.113607
 30
0.0
  0
SPLINE
  5
14f
100
AcDbEntity
  8
0
 62
7
100
AcDbSpline
 70
8
 71
3
 72
8
 73
4
 74
0
 40
0
 40
0
 40
0
 40
0
 40
1
 40
1
 40
1
 40
1
 10
158.851278
 20
160.113607
 30
0.0
 10
159.407013
 20
161.276243
 30
0.0
 10
159.933607
 20
162.454949
 30
0.0
 10
160.424551
 20
163.645537
 30
0.0
  0
SPLINE
  5
150
100
AcDbEntity
  8
0
 62
7
100
AcDbSpline
 70
8
 71
3
 72
8
 73
4
 74
0
 40
0
 40
0
 40
0
 40
0
 40
1
 40
1
 40
1
 40
1
 10
160.424551
 20
163.645537
 30
0.0
 10
160.915496
 20
164.836125
 30
0.0
 10
161.371454
 20
166.039872
 30
0.0
 10
161.787896
 20
167.258485
 30
0.0
  0
SPLINE
  5
151
100
AcDbEntity
  8
0
 62
7
100
AcDbSpline
 70
8
 71
3
 72
8
 73
4
 74
0
 40
0
 40
0
 40
0
 40
0
 40
1
 40
1
 40
1
 40
1
 10
161.787896
 20
167.258485
 30
0.0
 10
162.204338
 20
168.477099
 30
0.0
 10
162.582017
 20
169.713487
 30
0.0
 10
162.912711
 20
170.959407
 30
0.0
  0
SPLINE
  5
152
100
AcDbEntity
  8
0
 62
7
100
AcDbSpline
 70
8
 71
3
 72
8
 73
4
 74
0
 40
0
 40
0
 40
0
 40
0
 40
1
 40
1
 40
1
 40
1
 10
162.912711
 20
170.959407
 30
0.0
 10
163.243405
 20
172.205326
 30
0.0
 10
163.526710
 20
173.458428
 30
0.0
 10
163.757937
 20
174.719367
 30
0.0
  0
SPLINE
  5
153
100
AcDbEntity
  8
0
 62
7
100
AcDbSpline
 70
8
 71
3
 72
8
 73
4
 74
0
 40
0
 40
0
 40
0
 40
0
 40
1
 40
1
 40
1
 40
1
 10
163.757937
 20
174.719367
 30
0.0
 10
164.220391
 20
177.241243
 30
0.0
 10
164.475607
 20
179.794535
 30
0.0
 10
164.475607
 20
182.385887
 30
0.0
  0
SPLINE
  5
154
100
AcDbEntity
  8
0
 62
7
100
AcDbSpline
 70
8
 71
3
 72
8
 73
4
 74
0
 40
0
 40
0
 40
0
 40
0
 40
1
 40
1
 40
1
 40
1
 10
130.759617
 20
130.624960
 30
0.0
 10
130.759749
 20
130.625023
 30
0.0
 10
130.759881
 20
130.625086
 30
0.0
 10
130.760013
 20
130.625149
 30
0.0
  0
SPLINE
  5
155
100
AcDbEntity
  8
0
 62
7
100
AcDbSpline
 70
8
 71
3
 72
8
 73
4
 74
0
 40
0
 40
0
 40
0
 40
0
 40
1
 40
1
 40
1
 40
1
 10
130.760013
 20
130.625149
 30
0.0
 10
133.316012
 20
131.842524
 30
0.0
 10
135.764773
 20
133.244490
 30
0.0
 10
139.269677
 20
135.636357
 30
0.0
  0
SPLINE
  5
156
100
AcDbEntity
  8
0
 62
7
100
AcDbSpline
 70
8
 71
3
 72
8
 73
4
 74
0
 40
0
 40
0
 40
0
 40
0
 40
1
 40
1
 40
1
 40
1
 10
139.269677
 20
135.636357
 30
0.0
 10
139.269677
 20
135.636357
 30
0.0
 10
140.406609
 20
136.479788
 30
0.0
 10
142.605899
 20
138.248573
 30
0.0
  0
SPLINE
  5
157
100
AcDbEntity
  8
0
 62
7
100
AcDbSpline
 70
8
 71
3
 72
8
 73
4
 74
0
 40
0
 40
0
 40
0
 40
0
 40
1
 40
1
 40
1
 40
1
 10
142.605899
 20
138.248573
 30
0.0
 10
142.605899
 20
138.248573
 30
0.0
 10
143.670190
 20
139.175216
 30
0.0
 10
145.214562
 20
140.627426
 30
0.0
  0
SPLINE
  5
158
100
AcDbEntity
  8
0
 62
7
100
AcDbSpline
 70
8
 71
3
 72
8
 73
4
 74
0
 40
0
 40
0
 40
0
 40
0
 40
1
 40
1
 40
1
 40
1
 10
145.214562
 20
140.627426
 30
0.0
 10
145.214562
 20
140.627426
 30
0.0
 10
145.721310
 20
141.122536
 30
0.0
 10
146.713330
 20
142.128890
 30
0.0
  0
SPLINE
  5
159
100
AcDbEntity
  8
0
 62
7
100
AcDbSpline
 70
8
 71
3
 72
8
 73
4
 74
0
 40
0
 40
0
 40
0
 40
0
 40
1
 40
1
 40
1
 40
1
 10
146.713330
 20
142.128890
 30
0.0
 10
146.713330
 20
142.128890
 30
0.0
 10
147.198788
 20
142.640251
 30
0.0
 10
148.624544
 20
144.198098
 30
0.0
  0
SPLINE
  5
15a
100
AcDbEntity
  8
0
 62
7
100
AcDbSpline
 70
8
 71
3
 72
8
 73
4
 74
0
 40
0
 40
0
 40
0
 40
0
 40
1
 40
1
 40
1
 40
1
 10
148.624544
 20
144.198098
 30
0.0
 10
148.624544
 20
144.198098
 30
0.0
 10
149.534235
 20
145.268338
 30
0.0
 10
152.148351
 20
148.568115
 30
0.0
  0
SPLINE
  5
15b
100
AcDbEntity
  8
0
 62
7
100
AcDbSpline
 70
8
 71
3
 72
8
 73
4
 74
0
 40
0
 40
0
 40
0
 40
0
 40
1
 40
1
 40
1
 40
1
 10
152.148351
 20
148.568115
 30
0.0
 10
152.148351
 20
148.568115
 30
0.0
 10
153.738068
 20
150.886603
 30
0.0
 10
155.192008
 20
153.310131
 30
0.0
  0
SPLINE
  5
15c
100
AcDbEntity
  8
0
 62
7
100
AcDbSpline
 70
8
 71
3
 72
8
 73
4
 74
0
 40
0
 40
0
 40
0
 40
0
 40
1
 40
1
 40
1
 40
1
 10
155.192008
 20
153.310131
 30
0.0
 10
155.192048
 20
153.310197
 30
0.0
 10
155.192088
 20
153.310263
 30
0.0
 10
155.192127
 20
153.310329
 30
0.0
  0
SPLINE
  5
15d
100
AcDbEntity
  8
0
 62
7
100
AcDbSpline
 70
8
 71
3
 72
8
 73
4
 74
0
 40
0
 40
0
 40
0
 40
0
 40
1
 40
1
 40
1
 40
1
 10
120.074388
 20
126.503542
 30
0.0
 10
120.081818
 20
126.505792
 30
0.0
 10
120.089248
 20
126.508043
 30
0.0
 10
120.096678
 20
126.510293
 30
0.0
  0
SPLINE
  5
15e
100
AcDbEntity
  8
0
 62
7
100
AcDbSpline
 70
8
 71
3
 72
8
 73
4
 74
0
 40
0
 40
0
 40
0
 40
0
 40
1
 40
1
 40
1
 40
1
 10
120.096678
 20
126.510293
 30
0.0
 10
123.753246
 20
127.617890
 30
0.0
 10
127.302600
 20
129.002106
 30
0.0
 10
130.759218
 20
130.624773
 30
0.0
  0
SPLINE
  5
15f
100
AcDbEntity
  8
0
 62
7
100
AcDbSpline
 70
8
 71
3
 72
8
 73
4
 74
0
 40
0
 40
0
 40
0
 40
0
 40
1
 40
1
 40
1
 40
1
 10
130.759218
 20
130.624773
 30
0.0
 10
130.759351
 20
130.624835
 30
0.0
 10
130.759484
 20
130.624898
 30
0.0
 10
130.759617
 20
130.624960
 30
0.0
  0
LINE
  5
160
100
AcDbEntity
  8
0
 62
7
100
AcDbLine
 10
79.847046
 20
126.503542
 30
0.0
 11
120.074388
 21
126.503542
 31
0.0
  0
SPLINE
  5
161
100
AcDbEntity
  8
0
 62
7
100
AcDbSpline
 70
8
 71
3
 72
8
 73
4
 74
0
 40
0
 40
0
 40
0
 40
0
 40
1
 40
1
 40
1
 40
1
 10
52.769243
 20
143.826578
 30
0.0
 10
54.640069
 20
141.855431
 30
0.0
 10
56.604166
 20
139.994132
 30
0.0
 10
59.705613
 20
137.385382
 30
0.0
  0
SPLINE
  5
162
100
AcDbEntity
  8
0
 62
7
100
AcDbSpline
 70
8
 71
3
 72
8
 73
4
 74
0
 40
0
 40
0
 40
0
 40
0
 40
1
 40
1
 40
1
 40
1
 10
59.705613
 20
137.385382
 30
0.0
 10
59.705613
 20
137.385382
 30
0.0
 10
60.765342
 20
136.546360
 30
0.0
 10
62.939566
 20
134.932934
 30
0.0
  0
SPLINE
  5
163
100
AcDbEntity
  8
0
 62
7
100
AcDbSpline
 70
8
 71
3
 72
8
 73
4
 74
0
 40
0
 40
0
 40
0
 40
0
 40
1
 40
1
 40
1
 40
1
 10
62.939566
 20
134.932934
 30
0.0
 10
62.939566
 20
134.932934
 30
0.0
 10
64.056046
 20
134.157258
 30
0.0
 10
69.760933
 20
130.464383
 30
0.0
  0
SPLINE
  5
164
100
AcDbEntity
  8
0
 62
7
100
AcDbSpline
 70
8
 71
3
 72
8
 73
4
 74
0
 40
0
 40
0
 40
0
 40
0
 40
1
 40
1
 40
1
 40
1
 10
69.760933
 20
130.464383
 30
0.0
 10
69.760933
 20
130.464383
 30
0.0
 10
74.633700
 20
128.154761
 30
0.0
 10
79.823877
 20
126.510880
 30
0.0
  0
SPLINE
  5
165
100
AcDbEntity
  8
0
 62
7
100
AcDbSpline
 70
8
 71
3
 72
8
 73
4
 74
0
 40
0
 40
0
 40
0
 40
0
 40
1
 40
1
 40
1
 40
1
 10
79.823877
 20
126.510880
 30
0.0
 10
79.831600
 20
126.508434
 30
0.0
 10
79.839323
 20
126.505988
 30
0.0
 10
79.847046
 20
126.503542
 30
0.0
  0
SPLINE
  5
166
100
AcDbEntity
  8
0
 62
7
100
AcDbSpline
 70
8
 71
3
 72
8
 73
4
 74
0
 40
0
 40
0
 40
0
 40
0
 40
1
 40
1
 40
1
 40
1
 10
33.475432
 20
194.086657
 30
0.0
 10
33.475432
 20
189.461790
 30
0.0
 10
33.818823
 20
184.866485
 30
0.0
 10
34.580605
 20
180.307517
 30
0.0
  0
SPLINE
  5
167
100
AcDbEntity
  8
0
 62
7
100
AcDbSpline
 70
8
 71
3
 72
8
 73
4
 74
0
 40
0
 40
0
 40
0
 40
0
 40
1
 40
1
 40
1
 40
1
 10
34.580605
 20
180.307517
 30
0.0
 10
34.771051
 20
179.167775
 30
0.0
 10
34.988065
 20
178.029528
 30
0.0
 10
35.230548
 20
176.902946
 30
0.0
  0
SPLINE
  5
168
100
AcDbEntity
  8
0
 62
7
100
AcDbSpline
 70
8
 71
3
 72
8
 73
4
 74
0
 40
0
 40
0
 40
0
 40
0
 40
1
 40
1
 40
1
 40
1
 10
35.230548
 20
176.902946
 30
0.0
 10
35.473032
 20
175.776364
 30
0.0
 10
35.741303
 20
174.659227
 30
0.0
 10
36.035794
 20
173.551680
 30
0.0
  0
SPLINE
  5
169
100
AcDbEntity
  8
0
 62
7
100
AcDbSpline
 70
8
 71
3
 72
8
 73
4
 74
0
 40
0
 40
0
 40
0
 40
0
 40
1
 40
1
 40
1
 40
1
 10
36.035794
 20
173.551680
 30
0.0
 10
36.624775
 20
171.336586
 30
0.0
 10
37.318622
 20
169.159868
 30
0.0
 10
38.120871
 20
167.022905
 30
0.0
  0
SPLINE
  5
16a
100
AcDbEntity
  8
0
 62
7
100
AcDbSpline
 70
8
 71
3
 72
8
 73
4
 74
0
 40
0
 40
0
 40
0
 40
0
 40
1
 40
1
 40
1
 40
1
 10
38.120871
 20
167.022905
 30
0.0
 10
38.923121
 20
164.885942
 30
0.0
 10
39.833775
 20
162.788731
 30
0.0
 10
40.856530
 20
160.732722
 30
0.0
  0
SPLINE
  5
16b
100
AcDbEntity
  8
0
 62
7
100
AcDbSpline
 70
8
 71
3
 72
8
 73
4
 74
0
 40
0
 40
0
 40
0
 40
0
 40
1
 40
1
 40
1
 40
1
 10
40.856530
 20
160.732722
 30
0.0
 10
41.367907
 20
159.704717
 30
0.0
 10
41.907309
 20
158.687021
 30
0.0
 10
42.475224
 20
157.679799
 30
0.0
  0
SPLINE
  5
16c
100
AcDbEntity
  8
0
 62
7
100
AcDbSpline
 70
8
 71
3
 72
8
 73
4
 74
0
 40
0
 40
0
 40
0
 40
0
 40
1
 40
1
 40
1
 40
1
 10
42.475224
 20
157.679799
 30
0.0
 10
43.043138
 20
156.672578
 30
0.0
 10
43.639038
 20
155.677130
 30
0.0
 10
44.257232
 20
154.702001
 30
0.0
  0
SPLINE
  5
16d
100
AcDbEntity
  8
0
 62
7
100
AcDbSpline
 70
8
 71
3
 72
8
 73
4
 74
0
 40
0
 40
0
 40
0
 40
0
 40
1
 40
1
 40
1
 40
1
 10
44.257232
 20
154.702001
 30
0.0
 10
46.730012
 20
150.801486
 30
0.0
 10
49.580620
 20
147.186188
 30
0.0
 10
52.769243
 20
143.826578
 30
0.0
  0
SPLINE
  5
16e
100
AcDbEntity
  8
0
 62
7
100
AcDbSpline
 70
8
 71
3
 72
8
 73
4
 74
0
 40
0
 40
0
 40
0
 40
0
 40
1
 40
1
 40
1
 40
1
 10
53.283596
 20
242.583024
 30
0.0
 10
53.283548
 20
242.582976
 30
0.0
 10
53.283501
 20
242.582927
 30
0.0
 10
53.283453
 20
242.582878
 30
0.0
  0
SPLINE
  5
16f
100
AcDbEntity
  8
0
 62
7
100
AcDbSpline
 70
8
 71
3
 72
8
 73
4
 74
0
 40
0
 40
0
 40
0
 40
0
 40
1
 40
1
 40
1
 40
1
 10
53.283453
 20
242.582878
 30
0.0
 10
50.119570
 20
239.369067
 30
0.0
 10
47.251000
 20
235.914654
 30
0.0
 10
44.731210
 20
232.176665
 30
0.0
  0
SPLINE
  5
170
100
AcDbEntity
  8
0
 62
7
100
AcDbSpline
 70
8
 71
3
 72
8
 73
4
 74
0
 40
0
 40
0
 40
0
 40
0
 40
1
 40
1
 40
1
 40
1
 10
44.731210
 20
232.176665
 30
0.0
 10
44.101263
 20
231.242168
 30
0.0
 10
43.493781
 20
230.290480
 30
0.0
 10
42.914160
 20
229.329295
 30
0.0
  0
SPLINE
  5
171
100
AcDbEntity
  8
0
 62
7
100
AcDbSpline
 70
8
 71
3
 72
8
 73
4
 74
0
 40
0
 40
0
 40
0
 40
0
 40
1
 40
1
 40
1
 40
1
 10
42.914160
 20
229.329295
 30
0.0
 10
42.334538
 20
228.368110
 30
0.0
 10
41.781364
 20
227.395389
 30
0.0
 10
41.254701
 20
226.411092
 30
0.0
  0
SPLINE
  5
172
100
AcDbEntity
  8
0
 62
7
100
AcDbSpline
 70
8
 71
3
 72
8
 73
4
 74
0
 40
0
 40
0
 40
0
 40
0
 40
1
 40
1
 40
1
 40
1
 10
41.254701
 20
226.411092
 30
0.0
 10
40.201374
 20
224.442496
 30
0.0
 10
39.254111
 20
222.427616
 30
0.0
 10
38.413496
 20
220.366293
 30
0.0
  0
SPLINE
  5
173
100
AcDbEntity
  8
0
 62
7
100
AcDbSpline
 70
8
 71
3
 72
8
 73
4
 74
0
 40
0
 40
0
 40
0
 40
0
 40
1
 40
1
 40
1
 40
1
 10
38.413496
 20
220.366293
 30
0.0
 10
37.572881
 20
218.304970
 30
0.0
 10
36.838918
 20
216.197219
 30
0.0
 10
36.212137
 20
214.042859
 30
0.0
  0
SPLINE
  5
174
100
AcDbEntity
  8
0
 62
7
100
AcDbSpline
 70
8
 71
3
 72
8
 73
4
 74
0
 40
0
 40
0
 40
0
 40
0
 40
1
 40
1
 40
1
 40
1
 10
36.212137
 20
214.042859
 30
0.0
 10
35.898747
 20
212.965680
 30
0.0
 10
35.611634
 20
211.874581
 30
0.0
 10
35.352647
 20
210.777328
 30
0.0
  0
SPLINE
  5
175
100
AcDbEntity
  8
0
 62
7
100
AcDbSpline
 70
8
 71
3
 72
8
 73
4
 74
0
 40
0
 40
0
 40
0
 40
0
 40
1
 40
1
 40
1
 40
1
 10
35.352647
 20
210.777328
 30
0.0
 10
35.093660
 20
209.680075
 30
0.0
 10
34.863322
 20
208.579504
 30
0.0
 10
34.660444
 20
207.475760
 30
0.0
  0
SPLINE
  5
176
100
AcDbEntity
  8
0
 62
7
100
AcDbSpline
 70
8
 71
3
 72
8
 73
4
 74
0
 40
0
 40
0
 40
0
 40
0
 40
1
 40
1
 40
1
 40
1
 10
34.660444
 20
207.475760
 30
0.0
 10
33.848933
 20
203.060784
 30
0.0
 10
33.475432
 20
198.595096
 30
0.0
 10
33.475432
 20
194.086657
 30
0.0
  0
SPLINE
  5
177
100
AcDbEntity
  8
0
 62
7
100
AcDbSpline
 70
8
 71
3
 72
8
 73
4
 74
0
 40
0
 40
0
 40
0
 40
0
 40
1
 40
1
 40
1
 40
1
 10
101.149693
 20
262.702384
 30
0.0
 10
96.674724
 20
262.702384
 30
0.0
 10
92.237125
 20
262.317462
 30
0.0
 10
86.745893
 20
261.268105
 30
0.0
  0
SPLINE
  5
178
100
AcDbEntity
  8
0
 62
7
100
AcDbSpline
 70
8
 71
3
 72
8
 73
4
 74
0
 40
0
 40
0
 40
0
 40
0
 40
1
 40
1
 40
1
 40
1
 10
86.745893
 20
261.268105
 30
0.0
 10
86.745893
 20
261.268105
 30
0.0
 10
85.650853
 20
261.029624
 30
0.0
 10
83.487215
 20
260.498941
 30
0.0
  0
SPLINE
  5
179
100
AcDbEntity
  8
0
 62
7
100
AcDbSpline
 70
8
 71
3
 72
8
 73
4
 74
0
 40
0
 40
0
 40
0
 40
0
 40
1
 40
1
 40
1
 40
1
 10
83.487215
 20
260.498941
 30
0.0
 10
83.487215
 20
260.498941
 30
0.0
 10
82.416064
 20
260.206292
 30
0.0
 10
79.234611
 20
259.246297
 30
0.0
  0
SPLINE
  5
17a
100
AcDbEntity
  8
0
 62
7
100
AcDbSpline
 70
8
 71
3
 72
8
 73
4
 74
0
 40
0
 40
0
 40
0
 40
0
 40
1
 40
1
 40
1
 40
1
 10
79.234611
 20
259.246297
 30
0.0
 10
79.234611
 20
259.246297
 30
0.0
 10
77.156348
 20
258.496908
 30
0.0
 10
73.085627
 20
256.778851
 30
0.0
  0
SPLINE
  5
17b
100
AcDbEntity
  8
0
 62
7
100
AcDbSpline
 70
8
 71
3
 72
8
 73
4
 74
0
 40
0
 40
0
 40
0
 40
0
 40
1
 40
1
 40
1
 40
1
 10
73.085627
 20
256.778851
 30
0.0
 10
73.085627
 20
256.778851
 30
0.0
 10
71.093187
 20
255.810192
 30
0.0
 10
68.169097
 20
254.192418
 30
0.0
  0
SPLINE
  5
17c
100
AcDbEntity
  8
0
 62
7
100
AcDbSpline
 70
8
 71
3
 72
8
 73
4
 74
0
 40
0
 40
0
 40
0
 40
0
 40
1
 40
1
 40
1
 40
1
 10
68.169097
 20
254.192418
 30
0.0
 10
68.169097
 20
254.192418
 30
0.0
 10
67.202767
 20
253.624152
 30
0.0
 10
65.305608
 20
252.441543
 30
0.0
  0
SPLINE
  5
17d
100
AcDbEntity
  8
0
 62
7
100
AcDbSpline
 70
8
 71
3
 72
8
 73
4
 74
0
 40
0
 40
0
 40
0
 40
0
 40
1
 40
1
 40
1
 40
1
 10
65.305608
 20
252.441543
 30
0.0
 10
65.305608
 20
252.441543
 30
0.0
 10
64.375048
 20
251.827603
 30
0.0
 10
59.808392
 20
248.649689
 30
0.0
  0
SPLINE
  5
17e
100
AcDbEntity
  8
0
 62
7
100
AcDbSpline
 70
8
 71
3
 72
8
 73
4
 74
0
 40
0
 40
0
 40
0
 40
0
 40
1
 40
1
 40
1
 40
1
 10
59.808392
 20
248.649689
 30
0.0
 10
59.808392
 20
248.649689
 30
0.0
 10
56.429753
 20
245.762189
 30
0.0
 10
53.283741
 20
242.583170
 30
0.0
  0
SPLINE
  5
17f
100
AcDbEntity
  8
0
 62
7
100
AcDbSpline
 70
8
 71
3
 72
8
 73
4
 74
0
 40
0
 40
0
 40
0
 40
0
 40
1
 40
1
 40
1
 40
1
 10
53.283741
 20
242.583170
 30
0.0
 10
53.283693
 20
242.583122
 30
0.0
 10
53.283644
 20
242.583073
 30
0.0
 10
53.283596
 20
242.583024
 30
0.0
  0
SPLINE
  5
180
100
AcDbEntity
  8
0
 62
7
100
AcDbSpline
 70
8
 71
3
 72
8
 73
4
 74
0
 40
0
 40
0
 40
0
 40
0
 40
1
 40
1
 40
1
 40
1
 10
155.918126
 20
231.612277
 30
0.0
 10
155.895537
 20
231.648776
 30
0.0
 10
155.872948
 20
231.685275
 30
0.0
 10
155.850360
 20
231.721774
 30
0.0
  0
SPLINE
  5
181
100
AcDbEntity
  8
0
 62
7
100
AcDbSpline
 70
8
 71
3
 72
8
 73
4
 74
0
 40
0
 40
0
 40
0
 40
0
 40
1
 40
1
 40
1
 40
1
 10
155.850360
 20
231.721774
 30
0.0
 10
154.396489
 20
234.070948
 30
0.0
 10
152.842369
 20
236.335359
 30
0.0
 10
151.174171
 20
238.503153
 30
0.0
  0
SPLINE
  5
182
100
AcDbEntity
  8
0
 62
7
100
AcDbSpline
 70
8
 71
3
 72
8
 73
4
 74
0
 40
0
 40
0
 40
0
 40
0
 40
1
 40
1
 40
1
 40
1
 10
151.174171
 20
238.503153
 30
0.0
 10
149.505973
 20
240.670946
 30
0.0
 10
147.723716
 20
242.742251
 30
0.0
 10
145.810114
 20
244.702209
 30
0.0
  0
SPLINE
  5
183
100
AcDbEntity
  8
0
 62
7
100
AcDbSpline
 70
8
 71
3
 72
8
 73
4
 74
0
 40
0
 40
0
 40
0
 40
0
 40
1
 40
1
 40
1
 40
1
 10
145.810114
 20
244.702209
 30
0.0
 10
144.853313
 20
245.682187
 30
0.0
 10
143.863616
 20
246.634279
 30
0.0
 10
142.838402
 20
247.556289
 30
0.0
  0
SPLINE
  5
184
100
AcDbEntity
  8
0
 62
7
100
AcDbSpline
 70
8
 71
3
 72
8
 73
4
 74
0
 40
0
 40
0
 40
0
 40
0
 40
1
 40
1
 40
1
 40
1
 10
142.838402
 20
247.556289
 30
0.0
 10
141.813188
 20
248.478299
 30
0.0
 10
140.748365
 20
249.373154
 30
0.0
 10
139.660651
 20
250.223787
 30
0.0
  0
SPLINE
  5
185
100
AcDbEntity
  8
0
 62
7
100
AcDbSpline
 70
8
 71
3
 72
8
 73
4
 74
0
 40
0
 40
0
 40
0
 40
0
 40
1
 40
1
 40
1
 40
1
 10
139.660651
 20
250.223787
 30
0.0
 10
137.485222
 20
251.925052
 30
0.0
 10
135.211588
 20
253.457340
 30
0.0
 10
132.838075
 20
254.817571
 30
0.0
  0
SPLINE
  5
186
100
AcDbEntity
  8
0
 62
7
100
AcDbSpline
 70
8
 71
3
 72
8
 73
4
 74
0
 40
0
 40
0
 40
0
 40
0
 40
1
 40
1
 40
1
 40
1
 10
132.838075
 20
254.817571
 30
0.0
 10
130.464561
 20
256.177802
 30
0.0
 10
127.991227
 20
257.365938
 30
0.0
 10
125.416494
 20
258.378913
 30
0.0
  0
SPLINE
  5
187
100
AcDbEntity
  8
0
 62
7
100
AcDbSpline
 70
8
 71
3
 72
8
 73
4
 74
0
 40
0
 40
0
 40
0
 40
0
 40
1
 40
1
 40
1
 40
1
 10
125.416494
 20
258.378913
 30
0.0
 10
124.772810
 20
258.632157
 30
0.0
 10
124.121665
 20
258.874818
 30
0.0
 10
123.468787
 20
259.104916
 30
0.0
  0
SPLINE
  5
188
100
AcDbEntity
  8
0
 62
7
100
AcDbSpline
 70
8
 71
3
 72
8
 73
4
 74
0
 40
0
 40
0
 40
0
 40
0
 40
1
 40
1
 40
1
 40
1
 10
123.468787
 20
259.104916
 30
0.0
 10
122.815909
 20
259.335015
 30
0.0
 10
122.160596
 20
259.552878
 30
0.0
 10
121.502912
 20
259.758879
 30
0.0
  0
SPLINE
  5
189
100
AcDbEntity
  8
0
 62
7
100
AcDbSpline
 70
8
 71
3
 72
8
 73
4
 74
0
 40
0
 40
0
 40
0
 40
0
 40
1
 40
1
 40
1
 40
1
 10
121.502912
 20
259.758879
 30
0.0
 10
120.187543
 20
260.170883
 30
0.0
 10
118.862703
 20
260.535457
 30
0.0
 10
117.528980
 20
260.855354
 30
0.0
  0
SPLINE
  5
18a
100
AcDbEntity
  8
0
 62
7
100
AcDbSpline
 70
8
 71
3
 72
8
 73
4
 74
0
 40
0
 40
0
 40
0
 40
0
 40
1
 40
1
 40
1
 40
1
 10
117.528980
 20
260.855354
 30
0.0
 10
114.861534
 20
261.495149
 30
0.0
 10
112.158569
 20
261.956465
 30
0.0
 10
109.423993
 20
262.258466
 30
0.0
  0
SPLINE
  5
18b
100
AcDbEntity
  8
0
 62
7
100
AcDbSpline
 70
8
 71
3
 72
8
 73
4
 74
0
 40
0
 40
0
 40
0
 40
0
 40
1
 40
1
 40
1
 40
1
 10
109.423993
 20
262.258466
 30
0.0
 10
106.689416
 20
262.560467
 30
0.0
 10
103.917581
 20
262.702384
 30
0.0
 10
101.149693
 20
262.702384
 30
0.0
  0
LINE
  5
18c
100
AcDbEntity
  8
0
 62
7
100
AcDbLine
 10
136.821525
 20
213.732094
 30
0.0
 11
155.918126
 21
231.612277
 31
0.0
  0
SPLINE
  5
18d
100
AcDbEntity
  8
0
 62
7
100
AcDbSpline
 70
8
 71
3
 72
8
 73
4
 74
0
 40
0
 40
0
 40
0
 40
0
 40
1
 40
1
 40
1
 40
1
 10
121.770932
 20
229.295378
 30
0.0
 10
121.771126
 20
229.295267
 30
0.0
 10
121.771319
 20
229.295156
 30
0.0
 10
121.771513
 20
229.295045
 30
0.0
  0
SPLINE
  5
18e
100
AcDbEntity
  8
0
 62
7
100
AcDbSpline
 70
8
 71
3
 72
8
 73
4
 74
0
 40
0
 40
0
 40
0
 40
0
 40
1
 40
1
 40
1
 40
1
 10
121.771513
 20
229.295045
 30
0.0
 10
123.343174
 20
228.391563
 30
0.0
 10
124.835542
 20
227.373823
 30
0.0
 10
126.961213
 20
225.684106
 30
0.0
  0
SPLINE
  5
18f
100
AcDbEntity
  8
0
 62
7
100
AcDbSpline
 70
8
 71
3
 72
8
 73
4
 74
0
 40
0
 40
0
 40
0
 40
0
 40
1
 40
1
 40
1
 40
1
 10
126.961213
 20
225.684106
 30
0.0
 10
126.961213
 20
225.684106
 30
0.0
 10
127.650298
 20
225.094006
 30
0.0
 10
128.982047
 20
223.870676
 30
0.0
  0
SPLINE
  5
190
100
AcDbEntity
  8
0
 62
7
100
AcDbSpline
 70
8
 71
3
 72
8
 73
4
 74
0
 40
0
 40
0
 40
0
 40
0
 40
1
 40
1
 40
1
 40
1
 10
128.982047
 20
223.870676
 30
0.0
 10
128.982047
 20
223.870676
 30
0.0
 10
129.626114
 20
223.236360
 30
0.0
 10
130.873006
 20
221.924949
 30
0.0
  0
SPLINE
  5
191
100
AcDbEntity
  8
0
 62
7
100
AcDbSpline
 70
8
 71
3
 72
8
 73
4
 74
0
 40
0
 40
0
 40
0
 40
0
 40
1
 40
1
 40
1
 40
1
 10
130.873006
 20
221.924949
 30
0.0
 10
130.873006
 20
221.924949
 30
0.0
 10
131.476715
 20
221.246697
 30
0.0
 10
132.637603
 20
219.859016
 30
0.0
  0
SPLINE
  5
192
100
AcDbEntity
  8
0
 62
7
100
AcDbSpline
 70
8
 71
3
 72
8
 73
4
 74
0
 40
0
 40
0
 40
0
 40
0
 40
1
 40
1
 40
1
 40
1
 10
132.637603
 20
219.859016
 30
0.0
 10
132.637603
 20
219.859016
 30
0.0
 10
133.195615
 20
219.148847
 30
0.0
 10
134.807740
 20
216.973238
 30
0.0
  0
SPLINE
  5
193
100
AcDbEntity
  8
0
 62
7
100
AcDbSpline
 70
8
 71
3
 72
8
 73
4
 74
0
 40
0
 40
0
 40
0
 40
0
 40
1
 40
1
 40
1
 40
1
 10
134.807740
 20
216.973238
 30
0.0
 10
134.807740
 20
216.973238
 30
0.0
 10
135.800089
 20
215.462876
 30
0.0
 10
136.721838
 20
213.901009
 30
0.0
  0
SPLINE
  5
194
100
AcDbEntity
  8
0
 62
7
100
AcDbSpline
 70
8
 71
3
 72
8
 73
4
 74
0
 40
0
 40
0
 40
0
 40
0
 40
1
 40
1
 40
1
 40
1
 10
136.721838
 20
213.901009
 30
0.0
 10
136.755067
 20
213.844704
 30
0.0
 10
136.788296
 20
213.788399
 30
0.0
 10
136.821525
 20
213.732094
 30
0.0
  0
ENDSEC
  0
SECTION
  2
OBJECTS
  0
DICTIONARY
  5
C
330
0
100
AcDbDictionary
  3
ACAD_GROUP
350
D
  3
ACAD_MLINESTYLE
350
17
  0
DICTIONARY
  5
D
330
C
100
AcDbDictionary
  0
DICTIONARY
  5
1A
330
C
100
AcDbDictionary
  0
DICTIONARY
  5
17
330
C
100
AcDbDictionary
  3
STANDARD
350
18
  0
DICTIONARY
  5
19
330
C
100
AcDbDictionary
  0
ENDSEC
  0
EOF
