<?xml version="1.0" encoding="UTF-8" standalone="no"?>
<svg
   xmlns:dc="http://purl.org/dc/elements/1.1/"
   xmlns:cc="http://creativecommons.org/ns#"
   xmlns:rdf="http://www.w3.org/1999/02/22-rdf-syntax-ns#"
   xmlns:svg="http://www.w3.org/2000/svg"
   xmlns="http://www.w3.org/2000/svg"
   xmlns:sodipodi="http://sodipodi.sourceforge.net/DTD/sodipodi-0.dtd"
   xmlns:inkscape="http://www.inkscape.org/namespaces/inkscape"
   width="744.094488189"
   height="1052.36220472"
   id="svg2"
   version="1.1"
   inkscape:version="0.91 r13725"
   sodipodi:docname="G_front.svg">
  <metadata
     id="metadata121">
    <rdf:RDF>
      <cc:Work
         rdf:about="">
        <dc:format>image/svg+xml</dc:format>
        <dc:type
           rdf:resource="http://purl.org/dc/dcmitype/StillImage" />
        <dc:title></dc:title>
      </cc:Work>
    </rdf:RDF>
  </metadata>
  <sodipodi:namedview
     pagecolor="#ffffff"
     bordercolor="#666666"
     borderopacity="1"
     objecttolerance="10"
     gridtolerance="10"
     guidetolerance="10"
     inkscape:pageopacity="0"
     inkscape:pageshadow="2"
     inkscape:window-width="1920"
     inkscape:window-height="1137"
     id="namedview119"
     showgrid="false"
     inkscape:zoom="2.5371828"
     inkscape:cx="334.54792"
     inkscape:cy="555.88793"
     inkscape:window-x="-8"
     inkscape:window-y="-8"
     inkscape:window-maximized="1"
     inkscape:current-layer="g21" />
  <desc
     id="desc4">F:\Git\DIY-Projects\GRUE\Lights 3D parts\Front\G_front.DXF - scale = 1.000000, origin = (0.000000, 0.000000), auto = False</desc>
  <defs
     id="defs6">
    <marker
       refY="0.0"
       refX="0.0"
       style="overflow:visible"
       id="DistanceX"
       orient="auto">
      <path
         style="stroke:#000000; stroke-width:0.5"
         d="M 3,-3 L -3,3 M 0,-5 L  0,5"
         id="path9" />
    </marker>
    <pattern
       height="8"
       width="8"
       patternUnits="userSpaceOnUse"
       y="0"
       x="0"
       id="Hatch">
      <path
         linecap="square"
         stroke="#000000"
         stroke-width="0.25"
         d="M8 4 l-4,4"
         id="path12" />
      <path
         linecap="square"
         stroke="#000000"
         stroke-width="0.25"
         d="M6 2 l-4,4"
         id="path14" />
      <path
         linecap="square"
         stroke="#000000"
         stroke-width="0.25"
         d="M4 0 l-4,4"
         id="path16" />
    </pattern>
    <symbol
       id="*Model_Space" />
    <symbol
       id="*Paper_Space" />
    <symbol
       id="*Paper_Space0" />
  </defs>
  <g
     inkscape:label="0"
     inkscape:groupmode="layer"
     id="g21">
    <path
       style="stroke:#000000;stroke-width:0.9;fill:none;stroke-linecap: round"
       d="M 186.353685,543.332661 C 214.548599,573.039495 246.694037,593.589122 282.789998,604.981541"
       id="path23" />
    <path
       style="stroke:#000000;stroke-width:0.9;fill:none;stroke-linecap: round"
       d="M 282.789998,604.981541 425.587567,604.981541"
       id="path25" />
    <path
       style="stroke:#000000;stroke-width:0.9;fill:none;stroke-linecap: round"
       d="M 425.587567,604.981541 C 438.333568,601.131849 451.034113,596.236514 463.689202,590.295536"
       id="path27" />
    <path
       style="stroke:#000000;stroke-width:0.9;fill:none;stroke-linecap: round"
       d="M 463.689202,590.295536 C 499.640095,573.173653 528.620924,546.267837 550.631682,509.578090"
       id="path29" />
    <path
       style="stroke:#000000;stroke-width:0.9;fill:none;stroke-linecap: round"
       d="M 550.631682,509.578090 C 572.642437,472.643745 583.647817,438.155380 583.647817,406.112999"
       id="path31" />
    <path
       style="stroke:#000000;stroke-width:0.9;fill:none;stroke-linecap: round"
       d="M 583.647817,406.112999 583.647817,343.740419"
       id="path33" />
    <path
       style="stroke:#000000;stroke-width:0.9;fill:none;stroke-linecap: round"
       d="M 583.647817,343.740419 361.339182,343.740419"
       id="path35" />
    <path
       style="stroke:#000000;stroke-width:0.9;fill:none;stroke-linecap: round"
       d="M 361.339182,343.740419 361.339182,437.666180"
       id="path37" />
    <path
       style="stroke:#000000;stroke-width:0.9;fill:none;stroke-linecap: round"
       d="M 361.339182,437.666180 475.428270,437.666180"
       id="path39" />
    <path
       style="stroke:#000000;stroke-width:0.9;fill:none;stroke-linecap: round"
       d="M 475.428270,437.666180 C 463.444639,467.262578 447.547978,487.441938 427.738294,498.204262"
       id="path41" />
    <path
       style="stroke:#000000;stroke-width:0.9;fill:none;stroke-linecap: round"
       d="M 427.738294,498.204262 C 408.173184,508.966586 387.752099,514.347750 366.475032,514.347750"
       id="path43" />
    <path
       style="stroke:#000000;stroke-width:0.9;fill:none;stroke-linecap: round"
       d="M 366.475032,514.347750 C 327.344797,514.347750 293.839533,500.038749 265.959244,471.420751"
       id="path45" />
    <path
       style="stroke:#000000;stroke-width:0.9;fill:none;stroke-linecap: round"
       d="M 265.959244,471.420751 C 238.323522,442.558144 224.505659,407.458286 224.505659,366.121173"
       id="path47" />
    <path
       style="stroke:#000000;stroke-width:0.9;fill:none;stroke-linecap: round"
       d="M 224.505659,366.121173 C 224.505659,327.230036 238.323522,293.475465 265.959244,264.857460"
       id="path49" />
    <path
       style="stroke:#000000;stroke-width:0.9;fill:none;stroke-linecap: round"
       d="M 265.959244,264.857460 C 293.839533,236.239455 326.611106,221.930451 364.273955,221.930451"
       id="path51" />
    <path
       style="stroke:#000000;stroke-width:0.9;fill:none;stroke-linecap: round"
       d="M 364.273955,221.930451 C 387.507529,221.930451 409.762853,228.167713 431.039916,240.642230"
       id="path53" />
    <path
       style="stroke:#000000;stroke-width:0.9;fill:none;stroke-linecap: round"
       d="M 431.039916,240.642230 C 452.316979,252.872150 470.170148,271.461618 484.599419,296.410642"
       id="path55" />
    <path
       style="stroke:#000000;stroke-width:0.9;fill:none;stroke-linecap: round"
       d="M 484.599419,296.410642 553.566451,231.836683"
       id="path57" />
    <path
       style="stroke:#000000;stroke-width:0.9;fill:none;stroke-linecap: round"
       d="M 553.566451,231.836683 C 508.077556,157.723395 443.023547,120.666752 358.404424,120.666752"
       id="path59" />
    <path
       style="stroke:#000000;stroke-width:0.9;fill:none;stroke-linecap: round"
       d="M 358.404424,120.666752 C 292.127591,120.666752 235.388757,144.515087 188.187913,192.211760"
       id="path61" />
    <path
       style="stroke:#000000;stroke-width:0.9;fill:none;stroke-linecap: round"
       d="M 188.187913,192.211760 C 141.231639,239.908429 117.753502,297.389037 117.753502,364.653578"
       id="path63" />
    <path
       style="stroke:#000000;stroke-width:0.9;fill:none;stroke-linecap: round"
       d="M 117.753502,364.653578 C 117.753502,435.587092 140.620231,495.146785 186.353685,543.332661"
       id="path65" />
    <path
       style="stroke:#000000;stroke-width:0.9;fill:none;stroke-linecap: round"
       d="M 364.273955,221.070219 C 370.179001,221.070219 376.054135,221.470374 387.743704,223.098605 C 387.743704,223.098605 393.510769,224.321049 402.019637,226.747309 C 402.019637,226.747309 404.829156,227.654174 410.358228,229.643355 C 410.358228,229.643355 413.083649,230.727280 421.148416,234.233909 C 421.148416,234.233909 426.376372,236.911132 431.469763,239.897067 C 431.470445,239.897467 431.471127,239.897867 431.471808,239.898266"
       id="path67" />
    <path
       style="stroke:#000000;stroke-width:0.9;fill:none;stroke-linecap: round"
       d="M 265.341757,264.258534 C 271.842341,257.586035 278.812126,251.470685 286.359258,246.038765 C 288.246123,244.680725 290.171161,243.364713 292.116864,242.104894 C 294.062568,240.845074 296.032924,239.638431 298.028295,238.485857 C 302.019036,236.180709 306.109889,234.091750 310.304527,232.226128 C 314.499164,230.360507 318.797601,228.718214 323.203745,227.307014 C 325.406817,226.601414 327.640759,225.952584 329.893496,225.364794 C 332.146233,224.777004 334.407210,224.252757 336.676179,223.790018 C 345.752056,221.939062 354.955453,221.070219 364.273955,221.070219"
       id="path69" />
    <path
       style="stroke:#000000;stroke-width:0.9;fill:none;stroke-linecap: round"
       d="M 223.645427,366.121173 C 223.645427,356.645174 224.458877,347.252665 226.213533,337.955192 C 226.652197,335.630823 227.150089,333.313096 227.703379,331.022736 C 228.256669,328.732375 228.866310,326.463929 229.532152,324.217382 C 230.863836,319.724290 232.420337,315.318697 234.200736,310.999921 C 235.981135,306.681146 237.985491,302.449077 240.212862,298.303445 C 242.440234,294.157813 244.899544,290.088841 247.529184,286.176020 C 252.788236,278.350715 258.761685,271.072582 265.341757,264.258534"
       id="path71" />
    <path
       style="stroke:#000000;stroke-width:0.9;fill:none;stroke-linecap: round"
       d="M 265.340481,472.018367 C 258.567097,464.944078 252.469659,457.344975 247.146933,449.142347 C 245.816142,447.091522 244.534138,445.002568 243.313260,442.894608 C 242.092383,440.786649 240.929401,438.654867 239.824027,436.499432 C 237.613279,432.188560 235.632902,427.782984 233.880419,423.283397 C 232.127937,418.783810 230.603317,414.190098 229.304382,409.503248 C 228.005446,404.816399 226.931413,400.021537 226.092221,395.220033 C 224.413838,385.617024 223.645427,375.912257 223.645427,366.121173"
       id="path73" />
    <path
       style="stroke:#000000;stroke-width:0.9;fill:none;stroke-linecap: round"
       d="M 366.475032,515.207982 C 356.982820,515.207982 347.579370,514.373672 338.278332,512.560281 C 335.953072,512.106933 333.634405,511.591805 331.344852,511.019058 C 329.055298,510.446312 326.789067,509.814908 324.546185,509.124910 C 320.060421,507.744914 315.667939,506.130517 311.368304,504.281878 C 307.068670,502.433238 302.861823,500.350323 298.747599,498.033208 C 296.690487,496.874651 294.651332,495.654086 292.652216,494.386007 C 290.653101,493.117927 288.692341,491.801822 286.768225,490.439853 C 279.072412,484.992437 271.961010,478.813885 265.340481,472.018367"
       id="path75" />
    <path
       style="stroke:#000000;stroke-width:0.9;fill:none;stroke-linecap: round"
       d="M 428.150932,498.959070 C 428.150513,498.959301 428.150094,498.959531 428.149674,498.959762 C 423.425282,501.558388 418.574565,503.887798 413.583753,505.919676 C 408.592942,507.951554 403.493613,509.672236 398.289751,511.058427 C 395.687820,511.751522 393.064405,512.359481 390.434675,512.878780 C 387.804945,513.398080 385.164366,513.829963 382.512998,514.175019 C 377.210261,514.865131 371.864288,515.207982 366.475032,515.207982"
       id="path77" />
    <path
       style="stroke:#000000;stroke-width:0.9;fill:none;stroke-linecap: round"
       d="M 476.704764,436.805948 C 476.166942,438.134590 475.629059,439.459747 474.412497,442.344490 C 474.412497,442.344490 473.731286,443.905305 471.626951,448.556222 C 471.626951,448.556222 470.142333,451.617288 466.982524,457.647355 C 466.982524,457.647355 465.304519,460.620599 461.747007,466.420677 C 461.747007,466.420677 459.866231,469.250782 455.866790,474.747662 C 455.866790,474.747662 453.739021,477.423635 449.275483,482.503271 C 449.275483,482.503271 446.935371,484.914715 439.554120,491.722677 C 439.554120,491.722677 434.156465,495.695971 428.152194,498.958384 C 428.151774,498.958613 428.151353,498.958841 428.150932,498.959070"
       id="path79" />
    <path
       style="stroke:#000000;stroke-width:0.9;fill:none;stroke-linecap: round"
       d="M 362.199415,436.805948 476.704764,436.805948"
       id="path81" />
    <path
       style="stroke:#000000;stroke-width:0.9;fill:none;stroke-linecap: round"
       d="M 362.199415,344.600652 362.199415,436.805948"
       id="path83" />
    <path
       style="stroke:#000000;stroke-width:0.9;fill:none;stroke-linecap: round"
       d="M 582.787585,344.600652 362.199415,344.600652"
       id="path85" />
    <path
       style="stroke:#000000;stroke-width:0.9;fill:none;stroke-linecap: round"
       d="M 582.787585,406.112999 582.787585,344.600652"
       id="path87" />
    <path
       style="stroke:#000000;stroke-width:0.9;fill:none;stroke-linecap: round"
       d="M 549.893364,509.136629 C 549.893504,509.136395 549.893644,509.136160 549.893784,509.135926 C 554.569782,501.289426 558.920577,493.269679 562.858858,485.030526 C 564.827999,480.910949 566.693884,476.734432 568.433450,472.515814 C 570.173016,468.297196 571.788617,464.031951 573.264199,459.714029 C 574.739782,455.396107 576.078014,451.015202 577.249764,446.600527 C 578.421514,442.185852 579.425352,437.745726 580.244659,433.277835 C 581.883275,424.342053 582.787585,415.294956 582.787585,406.112999"
       id="path89" />
    <path
       style="stroke:#000000;stroke-width:0.9;fill:none;stroke-linecap: round"
       d="M 463.321476,589.517858 C 463.321945,589.517635 463.322413,589.517412 463.322882,589.517189 C 472.379569,585.203654 481.056283,580.236058 493.475233,571.760938 C 493.475233,571.760938 497.503734,568.772404 505.296493,562.505056 C 505.296493,562.505056 509.067601,559.221674 514.539788,554.076049 C 514.539788,554.076049 516.335352,552.321722 519.850381,548.755900 C 519.850381,548.755900 521.570509,546.943993 526.622399,541.424062 C 526.622399,541.424062 529.845713,537.631874 539.108332,525.939750 C 539.108332,525.939750 544.741187,517.724635 549.892943,509.137332 C 549.893083,509.137098 549.893224,509.136864 549.893364,509.136629"
       id="path91" />
    <path
       style="stroke:#000000;stroke-width:0.9;fill:none;stroke-linecap: round"
       d="M 425.460431,604.121309 C 425.486757,604.113335 425.513083,604.105360 425.539409,604.097386 C 438.495752,600.172830 451.072206,595.268127 463.320065,589.518521 C 463.320535,589.518300 463.321006,589.518079 463.321476,589.517858"
       id="path93" />
    <path
       style="stroke:#000000;stroke-width:0.9;fill:none;stroke-linecap: round"
       d="M 282.922605,604.121309 425.460431,604.121309"
       id="path95" />
    <path
       style="stroke:#000000;stroke-width:0.9;fill:none;stroke-linecap: round"
       d="M 186.977631,542.740470 C 193.606544,549.724851 200.565944,556.320003 211.555321,565.563606 C 211.555321,565.563606 215.310266,568.536519 223.014211,574.253385 C 223.014211,574.253385 226.970241,577.001842 247.184410,590.086832 C 247.184410,590.086832 264.450119,598.270531 282.840509,604.095307 C 282.867875,604.103974 282.895240,604.112642 282.922605,604.121309"
       id="path97" />
    <path
       style="stroke:#000000;stroke-width:0.9;fill:none;stroke-linecap: round"
       d="M 118.613734,364.653578 C 118.613734,381.040903 119.830474,397.323480 122.529704,413.477303 C 123.204511,417.515759 123.973459,421.548917 124.832652,425.540744 C 125.691845,429.532570 126.642412,433.490927 127.685883,437.415307 C 129.772826,445.264067 132.231338,452.976845 135.073954,460.548761 C 137.916571,468.120677 141.143298,475.551742 144.767232,482.836813 C 146.579199,486.479348 148.490464,490.085360 150.502761,493.654255 C 152.515057,497.223150 154.626511,500.750326 156.816965,504.205507 C 165.578782,518.026231 175.679363,530.836340 186.977631,542.740470"
       id="path99" />
    <path
       style="stroke:#000000;stroke-width:0.9;fill:none;stroke-linecap: round"
       d="M 188.800145,192.816055 C 188.799975,192.816228 188.799805,192.816401 188.799635,192.816574 C 177.589028,204.204094 167.424803,216.444139 158.496415,229.688982 C 156.264318,233.000192 154.111824,236.372314 152.058047,239.778089 C 150.004270,243.183863 148.044202,246.630510 146.178073,250.118179 C 142.445814,257.093518 139.089371,264.232857 136.110814,271.536757 C 133.132257,278.840657 130.531600,286.309067 128.310722,293.942625 C 127.200283,297.759403 126.182954,301.625499 125.265284,305.513404 C 124.347613,309.401308 123.531456,313.300969 122.812598,317.211873 C 119.937165,332.855490 118.613734,348.678795 118.613734,364.653578"
       id="path101" />
    <path
       style="stroke:#000000;stroke-width:0.9;fill:none;stroke-linecap: round"
       d="M 358.404424,121.526985 C 342.548235,121.526985 326.824460,122.890884 307.367338,126.609075 C 307.367338,126.609075 303.487274,127.454087 295.820842,129.334462 C 295.820842,129.334462 292.025423,130.371406 280.752560,133.772964 C 280.752560,133.772964 273.388635,136.428278 258.964819,142.515883 C 258.964819,142.515883 251.904993,145.948140 241.544046,151.680407 C 241.544046,151.680407 238.120042,153.693949 231.397823,157.884295 C 231.397823,157.884295 228.100563,160.059673 211.919500,171.320001 C 211.919500,171.320001 199.947944,181.551298 188.800656,192.815539 C 188.800486,192.815711 188.800315,192.815883 188.800145,192.816055"
       id="path103" />
    <path
       style="stroke:#000000;stroke-width:0.9;fill:none;stroke-linecap: round"
       d="M 552.465800,231.688782 C 552.385761,231.559455 552.305722,231.430128 552.225684,231.300801 C 547.074175,222.976957 541.567448,214.953451 535.656511,207.272294 C 529.745574,199.591136 523.430490,192.251865 516.650010,185.307134 C 513.259770,181.834769 509.752969,178.461217 506.120321,175.194253 C 502.487674,171.927288 498.714680,168.756541 494.860574,165.742488 C 487.152361,159.714382 479.096177,154.285014 470.686091,149.465299 C 462.276005,144.645583 453.512222,140.435654 444.389151,136.846372 C 442.108383,135.949051 439.801176,135.089229 437.487828,134.273918 C 435.174481,133.458608 432.852506,132.686654 430.522128,131.956727 C 425.861373,130.496871 421.167059,129.205075 416.441268,128.071580 C 406.989687,125.804589 397.412254,124.170006 387.722809,123.099923 C 378.033363,122.029840 368.211901,121.526985 358.404424,121.526985"
       id="path105" />
    <path
       style="stroke:#000000;stroke-width:0.9;fill:none;stroke-linecap: round"
       d="M 484.800678,295.043760 552.465800,231.688782"
       id="path107" />
    <path
       style="stroke:#000000;stroke-width:0.9;fill:none;stroke-linecap: round"
       d="M 431.471808,239.898266 C 431.472493,239.898660 431.473178,239.899054 431.473864,239.899448 C 437.042741,243.100760 442.330662,246.706925 449.862567,252.694114 C 449.862567,252.694114 452.304207,254.785018 457.023002,259.119653 C 457.023002,259.119653 459.305130,261.367230 463.723249,266.013961 C 463.723249,266.013961 465.862377,268.417217 469.975759,273.334196 C 469.975759,273.334196 471.952965,275.850542 477.665220,283.559394 C 477.665220,283.559394 481.181417,288.911071 484.447459,294.445245 C 484.565198,294.644750 484.682938,294.844255 484.800678,295.043760"
       id="path109" />
  </g>
</svg>
