  0
SECTION
  2
HEADER
  9
$ACADVER
  1
AC1014
  9
$HANDSEED
  5
FFFF
  9
$MEASUREMENT
 70
     1
  0
ENDSEC
  0
SECTION
  2
TABLES
  0
TABLE
  2
VPORT
  5
8
330
0
100
AcDbSymbolTable
 70
     4
  0
VPORT
  5
2E
330
8
100
AcDbSymbolTableRecord
100
AcDbViewportTableRecord
  2
*ACTIVE
 70
     0
 10
0.0
 20
0.0
 11
1.0
 21
1.0
 12
210.0
 22
148.5
 13
0.0
 23
0.0
 14
10.0
 24
10.0
 15
10.0
 25
10.0
 16
0.0
 26
0.0
 36
1.0
 17
0.0
 27
0.0
 37
0.0
 40
341.0
 41
1.24
 42
50.0
 43
0.0
 44
0.0
 50
0.0
 51
0.0
 71
     0
 72
   100
 73
     1
 74
     3
 75
     0
 76
     0
 77
     0
 78
     0
  0
ENDTAB
  0
TABLE
  2
LTYPE
  5
5
330
0
100
AcDbSymbolTable
 70
     1
  0
LTYPE
  5
14
330
5
100
AcDbSymbolTableRecord
100
AcDbLinetypeTableRecord
  2
BYBLOCK
 70
     0
  3

 72
    65
 73
     0
 40
0.0
  0
LTYPE
  5
15
330
5
100
AcDbSymbolTableRecord
100
AcDbLinetypeTableRecord
  2
BYLAYER
 70
     0
  3

 72
    65
 73
     0
 40
0.0
  0
LTYPE
  5
16
330
5
100
AcDbSymbolTableRecord
100
AcDbLinetypeTableRecord
  2
CONTINUOUS
 70
     0
  3
Solid line
 72
    65
 73
     0
 40
0.0
  0
ENDTAB
  0
TABLE
  2
LAYER
  5
2
100
AcDbSymbolTable
 70
1
  0
LAYER
  5
50
100
AcDbSymbolTableRecord
100
AcDbLayerTableRecord
  2
0
 70
0
  6
CONTINUOUS
  0
ENDTAB
  0
TABLE
  2
STYLE
  5
3
330
0
100
AcDbSymbolTable
 70
     1
  0
STYLE
  5
11
330
3
100
AcDbSymbolTableRecord
100
AcDbTextStyleTableRecord
  2
STANDARD
 70
     0
 40
0.0
 41
1.0
 50
0.0
 71
     0
 42
2.5
  3
txt
  4

  0
ENDTAB
  0
TABLE
  2
VIEW
  5
6
330
0
100
AcDbSymbolTable
 70
     0
  0
ENDTAB
  0
TABLE
  2
UCS
  5
7
330
0
100
AcDbSymbolTable
 70
     0
  0
ENDTAB
  0
TABLE
  2
APPID
  5
9
330
0
100
AcDbSymbolTable
 70
     2
  0
APPID
  5
12
330
9
100
AcDbSymbolTableRecord
100
AcDbRegAppTableRecord
  2
ACAD
 70
     0
  0
ENDTAB
  0
TABLE
  2
DIMSTYLE
  5
A
330
0
100
AcDbSymbolTable
 70
     1
  0
DIMSTYLE
105
27
330
A
100
AcDbSymbolTableRecord
100
AcDbDimStyleTableRecord
  2
ISO-25
 70
     0
  3

  4

  5

  6

  7

 40
1.0
 41
2.5
 42
0.625
 43
3.75
 44
1.25
 45
0.0
 46
0.0
 47
0.0
 48
0.0
140
2.5
141
2.5
142
0.0
143
0.03937007874016
144
1.0
145
0.0
146
1.0
147
0.625
 71
     0
 72
     0
 73
     0
 74
     0
 75
     0
 76
     0
 77
     1
 78
     8
170
     0
171
     3
172
     1
173
     0
174
     0
175
     0
176
     0
177
     0
178
     0
270
     2
271
     2
272
     2
273
     2
274
     3
340
11
275
     0
280
     0
281
     0
282
     0
283
     0
284
     8
285
     0
286
     0
287
     3
288
     0
  0
ENDTAB
  0
TABLE
  2
BLOCK_RECORD
  5
1
330
0
100
AcDbSymbolTable
 70
     1
  0
BLOCK_RECORD
  5
1F
330
1
100
AcDbSymbolTableRecord
100
AcDbBlockTableRecord
  2
*MODEL_SPACE
  0
BLOCK_RECORD
  5
1B
330
1
100
AcDbSymbolTableRecord
100
AcDbBlockTableRecord
  2
*PAPER_SPACE
  0
ENDTAB
  0
ENDSEC
  0
SECTION
  2
BLOCKS
  0
BLOCK
  5
20
330
1F
100
AcDbEntity
  8
0
100
AcDbBlockBegin
  2
*MODEL_SPACE
 70
     0
 10
0.0
 20
0.0
 30
0.0
  3
*MODEL_SPACE
  1

  0
ENDBLK
  5
21
330
1F
100
AcDbEntity
  8
0
100
AcDbBlockEnd
  0
BLOCK
  5
1C
330
1B
100
AcDbEntity
 67
     1
  8
0
100
AcDbBlockBegin
  2
*PAPER_SPACE
  1

  0
ENDBLK
  5
1D
330
1B
100
AcDbEntity
 67
     1
  8
0
100
AcDbBlockEnd
  0
ENDSEC
  0
SECTION
  2
ENTITIES
  0
LINE
  5
100
100
AcDbEntity
  8
0
 62
7
100
AcDbLine
 10
116.416947
 20
117.647539
 30
0.0
 11
150.787289
 21
117.647539
 31
0.0
  0
LINE
  5
101
100
AcDbEntity
  8
0
 62
7
100
AcDbLine
 10
150.787289
 20
117.647539
 30
0.0
 11
113.862672
 21
172.682321
 31
0.0
  0
SPLINE
  5
102
100
AcDbEntity
  8
0
 62
7
100
AcDbSpline
 70
8
 71
3
 72
8
 73
4
 74
0
 40
0
 40
0
 40
0
 40
0
 40
1
 40
1
 40
1
 40
1
 10
113.862672
 20
172.682321
 30
0.0
 10
123.835741
 20
177.067642
 30
0.0
 10
130.661281
 20
183.115142
 30
0.0
 10
134.339292
 20
190.824820
 30
0.0
  0
SPLINE
  5
103
100
AcDbEntity
  8
0
 62
7
100
AcDbSpline
 70
8
 71
3
 72
8
 73
4
 74
0
 40
0
 40
0
 40
0
 40
0
 40
1
 40
1
 40
1
 40
1
 10
134.339292
 20
190.824820
 30
0.0
 10
138.088035
 20
198.534498
 30
0.0
 10
139.962407
 20
205.961253
 30
0.0
 10
139.962407
 20
213.105085
 30
0.0
  0
SPLINE
  5
104
100
AcDbEntity
  8
0
 62
7
100
AcDbSpline
 70
8
 71
3
 72
8
 73
4
 74
0
 40
0
 40
0
 40
0
 40
0
 40
1
 40
1
 40
1
 40
1
 10
139.962407
 20
213.105085
 30
0.0
 10
139.962407
 20
225.624467
 30
0.0
 10
135.895374
 20
235.562170
 30
0.0
 10
127.761309
 20
242.918192
 30
0.0
  0
SPLINE
  5
105
100
AcDbEntity
  8
0
 62
7
100
AcDbSpline
 70
8
 71
3
 72
8
 73
4
 74
0
 40
0
 40
0
 40
0
 40
0
 40
1
 40
1
 40
1
 40
1
 10
127.761309
 20
242.918192
 30
0.0
 10
119.697976
 20
250.274215
 30
0.0
 10
108.699308
 20
253.952227
 30
0.0
 10
94.765305
 20
253.952227
 30
0.0
  0
LINE
  5
106
100
AcDbEntity
  8
0
 62
7
100
AcDbLine
 10
94.765305
 20
253.952227
 30
0.0
 11
48.931621
 21
253.952227
 31
0.0
  0
LINE
  5
107
100
AcDbEntity
  8
0
 62
7
100
AcDbLine
 10
48.931621
 20
253.952227
 30
0.0
 11
48.931621
 21
117.647539
 31
0.0
  0
LINE
  5
108
100
AcDbEntity
  8
0
 62
7
100
AcDbLine
 10
48.931621
 20
117.647539
 30
0.0
 11
78.956925
 21
117.647539
 31
0.0
  0
LINE
  5
109
100
AcDbEntity
  8
0
 62
7
100
AcDbLine
 10
78.956925
 20
117.647539
 30
0.0
 11
78.956925
 21
168.544556
 31
0.0
  0
LINE
  5
10a
100
AcDbEntity
  8
0
 62
7
100
AcDbLine
 10
78.956925
 20
168.544556
 30
0.0
 11
82.352018
 21
168.544556
 31
0.0
  0
LINE
  5
10b
100
AcDbEntity
  8
0
 62
7
100
AcDbLine
 10
82.352018
 20
168.544556
 30
0.0
 11
116.416947
 21
117.647539
 31
0.0
  0
LINE
  5
10c
100
AcDbEntity
  8
0
 62
7
100
AcDbLine
 10
49.174398
 20
253.709450
 30
0.0
 11
94.765305
 21
253.709450
 31
0.0
  0
SPLINE
  5
10d
100
AcDbEntity
  8
0
 62
7
100
AcDbSpline
 70
8
 71
3
 72
8
 73
4
 74
0
 40
0
 40
0
 40
0
 40
0
 40
1
 40
1
 40
1
 40
1
 10
94.765305
 20
253.709450
 30
0.0
 10
97.727493
 20
253.709450
 30
0.0
 10
100.677980
 20
253.544519
 30
0.0
 10
103.613038
 20
253.163402
 30
0.0
  0
SPLINE
  5
10e
100
AcDbEntity
  8
0
 62
7
100
AcDbSpline
 70
8
 71
3
 72
8
 73
4
 74
0
 40
0
 40
0
 40
0
 40
0
 40
1
 40
1
 40
1
 40
1
 10
103.613038
 20
253.163402
 30
0.0
 10
105.080567
 20
252.972843
 30
0.0
 10
106.546472
 20
252.726993
 30
0.0
 10
107.988079
 20
252.422704
 30
0.0
  0
SPLINE
  5
10f
100
AcDbEntity
  8
0
 62
7
100
AcDbSpline
 70
8
 71
3
 72
8
 73
4
 74
0
 40
0
 40
0
 40
0
 40
0
 40
1
 40
1
 40
1
 40
1
 10
107.988079
 20
252.422704
 30
0.0
 10
109.429685
 20
252.118415
 30
0.0
 10
110.851443
 20
251.755311
 30
0.0
 10
112.251205
 20
251.327188
 30
0.0
  0
SPLINE
  5
110
100
AcDbEntity
  8
0
 62
7
100
AcDbSpline
 70
8
 71
3
 72
8
 73
4
 74
0
 40
0
 40
0
 40
0
 40
0
 40
1
 40
1
 40
1
 40
1
 10
112.251205
 20
251.327188
 30
0.0
 10
115.050729
 20
250.470944
 30
0.0
 10
117.763005
 20
249.356055
 30
0.0
 10
120.365409
 20
247.918049
 30
0.0
  0
SPLINE
  5
111
100
AcDbEntity
  8
0
 62
7
100
AcDbSpline
 70
8
 71
3
 72
8
 73
4
 74
0
 40
0
 40
0
 40
0
 40
0
 40
1
 40
1
 40
1
 40
1
 10
120.365409
 20
247.918049
 30
0.0
 10
121.016010
 20
247.558548
 30
0.0
 10
121.659325
 20
247.178754
 30
0.0
 10
122.288006
 20
246.782410
 30
0.0
  0
SPLINE
  5
112
100
AcDbEntity
  8
0
 62
7
100
AcDbSpline
 70
8
 71
3
 72
8
 73
4
 74
0
 40
0
 40
0
 40
0
 40
0
 40
1
 40
1
 40
1
 40
1
 10
122.288006
 20
246.782410
 30
0.0
 10
122.916688
 20
246.386065
 30
0.0
 10
123.532585
 20
245.972192
 30
0.0
 10
124.135614
 20
245.540639
 30
0.0
  0
SPLINE
  5
113
100
AcDbEntity
  8
0
 62
7
100
AcDbSpline
 70
8
 71
3
 72
8
 73
4
 74
0
 40
0
 40
0
 40
0
 40
0
 40
1
 40
1
 40
1
 40
1
 10
124.135614
 20
245.540639
 30
0.0
 10
125.341579
 20
244.677600
 30
0.0
 10
126.496013
 20
243.743854
 30
0.0
 10
127.598077
 20
242.738481
 30
0.0
  0
SPLINE
  5
114
100
AcDbEntity
  8
0
 62
7
100
AcDbSpline
 70
8
 71
3
 72
8
 73
4
 74
0
 40
0
 40
0
 40
0
 40
0
 40
1
 40
1
 40
1
 40
1
 10
127.598077
 20
242.738481
 30
0.0
 10
129.655009
 20
240.878266
 30
0.0
 10
131.486241
 20
238.820068
 30
0.0
 10
133.065409
 20
236.541939
 30
0.0
  0
SPLINE
  5
115
100
AcDbEntity
  8
0
 62
7
100
AcDbSpline
 70
8
 71
3
 72
8
 73
4
 74
0
 40
0
 40
0
 40
0
 40
0
 40
1
 40
1
 40
1
 40
1
 10
133.065409
 20
236.541939
 30
0.0
 10
133.460217
 20
235.972383
 30
0.0
 10
133.838180
 20
235.390396
 30
0.0
 10
134.196176
 20
234.801318
 30
0.0
  0
SPLINE
  5
116
100
AcDbEntity
  8
0
 62
7
100
AcDbSpline
 70
8
 71
3
 72
8
 73
4
 74
0
 40
0
 40
0
 40
0
 40
0
 40
1
 40
1
 40
1
 40
1
 10
134.196176
 20
234.801318
 30
0.0
 10
134.554173
 20
234.212239
 30
0.0
 10
134.893224
 20
233.614633
 30
0.0
 10
135.213812
 20
233.008704
 30
0.0
  0
SPLINE
  5
117
100
AcDbEntity
  8
0
 62
7
100
AcDbSpline
 70
8
 71
3
 72
8
 73
4
 74
0
 40
0
 40
0
 40
0
 40
0
 40
1
 40
1
 40
1
 40
1
 10
135.213812
 20
233.008704
 30
0.0
 10
135.854987
 20
231.796846
 30
0.0
 10
136.422306
 20
230.551733
 30
0.0
 10
136.919339
 20
229.275108
 30
0.0
  0
SPLINE
  5
118
100
AcDbEntity
  8
0
 62
7
100
AcDbSpline
 70
8
 71
3
 72
8
 73
4
 74
0
 40
0
 40
0
 40
0
 40
0
 40
1
 40
1
 40
1
 40
1
 10
136.919339
 20
229.275108
 30
0.0
 10
137.416372
 20
227.998482
 30
0.0
 10
137.843157
 20
226.690209
 30
0.0
 10
138.202943
 20
225.352271
 30
0.0
  0
SPLINE
  5
119
100
AcDbEntity
  8
0
 62
7
100
AcDbSpline
 70
8
 71
3
 72
8
 73
4
 74
0
 40
0
 40
0
 40
0
 40
0
 40
1
 40
1
 40
1
 40
1
 10
138.202943
 20
225.352271
 30
0.0
 10
138.562728
 20
224.014333
 30
0.0
 10
138.850067
 20
222.667645
 30
0.0
 10
139.074247
 20
221.313484
 30
0.0
  0
SPLINE
  5
11a
100
AcDbEntity
  8
0
 62
7
100
AcDbSpline
 70
8
 71
3
 72
8
 73
4
 74
0
 40
0
 40
0
 40
0
 40
0
 40
1
 40
1
 40
1
 40
1
 10
139.074247
 20
221.313484
 30
0.0
 10
139.522605
 20
218.605160
 30
0.0
 10
139.719630
 20
215.866715
 30
0.0
 10
139.719630
 20
213.105085
 30
0.0
  0
SPLINE
  5
11b
100
AcDbEntity
  8
0
 62
7
100
AcDbSpline
 70
8
 71
3
 72
8
 73
4
 74
0
 40
0
 40
0
 40
0
 40
0
 40
1
 40
1
 40
1
 40
1
 10
139.719630
 20
213.105085
 30
0.0
 10
139.719630
 20
211.176442
 30
0.0
 10
139.582363
 20
209.258911
 30
0.0
 10
139.320501
 20
207.351605
 30
0.0
  0
SPLINE
  5
11c
100
AcDbEntity
  8
0
 62
7
100
AcDbSpline
 70
8
 71
3
 72
8
 73
4
 74
0
 40
0
 40
0
 40
0
 40
0
 40
1
 40
1
 40
1
 40
1
 10
139.320501
 20
207.351605
 30
0.0
 10
139.189570
 20
206.397952
 30
0.0
 10
139.027424
 20
205.447381
 30
0.0
 10
138.836931
 20
204.504881
 30
0.0
  0
SPLINE
  5
11d
100
AcDbEntity
  8
0
 62
7
100
AcDbSpline
 70
8
 71
3
 72
8
 73
4
 74
0
 40
0
 40
0
 40
0
 40
0
 40
1
 40
1
 40
1
 40
1
 10
138.836931
 20
204.504881
 30
0.0
 10
138.646438
 20
203.562380
 30
0.0
 10
138.427423
 20
202.626506
 30
0.0
 10
138.181823
 20
201.696793
 30
0.0
  0
SPLINE
  5
11e
100
AcDbEntity
  8
0
 62
7
100
AcDbSpline
 70
8
 71
3
 72
8
 73
4
 74
0
 40
0
 40
0
 40
0
 40
0
 40
1
 40
1
 40
1
 40
1
 10
138.181823
 20
201.696793
 30
0.0
 10
137.936224
 20
200.767081
 30
0.0
 10
137.663645
 20
199.842447
 30
0.0
 10
137.367685
 20
198.927879
 30
0.0
  0
SPLINE
  5
11f
100
AcDbEntity
  8
0
 62
7
100
AcDbSpline
 70
8
 71
3
 72
8
 73
4
 74
0
 40
0
 40
0
 40
0
 40
0
 40
1
 40
1
 40
1
 40
1
 10
137.367685
 20
198.927879
 30
0.0
 10
137.071725
 20
198.013310
 30
0.0
 10
136.752272
 20
197.108110
 30
0.0
 10
136.411288
 20
196.211507
 30
0.0
  0
SPLINE
  5
120
100
AcDbEntity
  8
0
 62
7
100
AcDbSpline
 70
8
 71
3
 72
8
 73
4
 74
0
 40
0
 40
0
 40
0
 40
0
 40
1
 40
1
 40
1
 40
1
 10
136.411288
 20
196.211507
 30
0.0
 10
135.729388
 20
194.418483
 30
0.0
 10
134.961518
 20
192.659719
 30
0.0
 10
134.120562
 20
190.930169
 30
0.0
  0
SPLINE
  5
121
100
AcDbEntity
  8
0
 62
7
100
AcDbSpline
 70
8
 71
3
 72
8
 73
4
 74
0
 40
0
 40
0
 40
0
 40
0
 40
1
 40
1
 40
1
 40
1
 10
134.120562
 20
190.930169
 30
0.0
 10
133.097283
 20
188.785325
 30
0.0
 10
131.839366
 20
186.792337
 30
0.0
 10
130.361105
 20
184.942759
 30
0.0
  0
SPLINE
  5
122
100
AcDbEntity
  8
0
 62
7
100
AcDbSpline
 70
8
 71
3
 72
8
 73
4
 74
0
 40
0
 40
0
 40
0
 40
0
 40
1
 40
1
 40
1
 40
1
 10
130.361105
 20
184.942759
 30
0.0
 10
129.991509
 20
184.480327
 30
0.0
 10
129.607375
 20
184.026098
 30
0.0
 10
129.213756
 20
183.585053
 30
0.0
  0
SPLINE
  5
123
100
AcDbEntity
  8
0
 62
7
100
AcDbSpline
 70
8
 71
3
 72
8
 73
4
 74
0
 40
0
 40
0
 40
0
 40
0
 40
1
 40
1
 40
1
 40
1
 10
129.213756
 20
183.585053
 30
0.0
 10
128.820138
 20
183.144008
 30
0.0
 10
128.416319
 20
182.715145
 30
0.0
 10
128.002901
 20
182.297725
 30
0.0
  0
SPLINE
  5
124
100
AcDbEntity
  8
0
 62
7
100
AcDbSpline
 70
8
 71
3
 72
8
 73
4
 74
0
 40
0
 40
0
 40
0
 40
0
 40
1
 40
1
 40
1
 40
1
 10
128.002901
 20
182.297725
 30
0.0
 10
127.176066
 20
181.462883
 30
0.0
 10
126.310886
 20
180.673756
 30
0.0
 10
125.411655
 20
179.925367
 30
0.0
  0
SPLINE
  5
125
100
AcDbEntity
  8
0
 62
7
100
AcDbSpline
 70
8
 71
3
 72
8
 73
4
 74
0
 40
0
 40
0
 40
0
 40
0
 40
1
 40
1
 40
1
 40
1
 10
125.411655
 20
179.925367
 30
0.0
 10
124.512424
 20
179.176977
 30
0.0
 10
123.579107
 20
178.469317
 30
0.0
 10
122.615230
 20
177.798213
 30
0.0
  0
SPLINE
  5
126
100
AcDbEntity
  8
0
 62
7
100
AcDbSpline
 70
8
 71
3
 72
8
 73
4
 74
0
 40
0
 40
0
 40
0
 40
0
 40
1
 40
1
 40
1
 40
1
 10
122.615230
 20
177.798213
 30
0.0
 10
121.651352
 20
177.127109
 30
0.0
 10
120.654125
 20
176.491010
 30
0.0
 10
119.637182
 20
175.892460
 30
0.0
  0
SPLINE
  5
127
100
AcDbEntity
  8
0
 62
7
100
AcDbSpline
 70
8
 71
3
 72
8
 73
4
 74
0
 40
0
 40
0
 40
0
 40
0
 40
1
 40
1
 40
1
 40
1
 10
119.637182
 20
175.892460
 30
0.0
 10
118.620239
 20
175.293910
 30
0.0
 10
117.584199
 20
174.732884
 30
0.0
 10
116.531553
 20
174.204496
 30
0.0
  0
SPLINE
  5
128
100
AcDbEntity
  8
0
 62
7
100
AcDbSpline
 70
8
 71
3
 72
8
 73
4
 74
0
 40
0
 40
0
 40
0
 40
0
 40
1
 40
1
 40
1
 40
1
 10
116.531553
 20
174.204496
 30
0.0
 10
116.005230
 20
173.940302
 30
0.0
 10
115.474949
 20
173.684380
 30
0.0
 10
114.940351
 20
173.435927
 30
0.0
  0
SPLINE
  5
129
100
AcDbEntity
  8
0
 62
7
100
AcDbSpline
 70
8
 71
3
 72
8
 73
4
 74
0
 40
0
 40
0
 40
0
 40
0
 40
1
 40
1
 40
1
 40
1
 10
114.940351
 20
173.435927
 30
0.0
 10
114.462606
 20
173.213897
 30
0.0
 10
113.980943
 20
172.999918
 30
0.0
 10
113.499488
 20
172.787886
 30
0.0
  0
LINE
  5
12a
100
AcDbEntity
  8
0
 62
7
100
AcDbLine
 10
113.499488
 20
172.787886
 30
0.0
 11
150.332045
 21
117.890316
 31
0.0
  0
LINE
  5
12b
100
AcDbEntity
  8
0
 62
7
100
AcDbLine
 10
150.332045
 20
117.890316
 30
0.0
 11
116.546594
 21
117.890316
 31
0.0
  0
LINE
  5
12c
100
AcDbEntity
  8
0
 62
7
100
AcDbLine
 10
116.546594
 20
117.890316
 30
0.0
 11
82.481665
 21
168.787333
 31
0.0
  0
LINE
  5
12d
100
AcDbEntity
  8
0
 62
7
100
AcDbLine
 10
82.481665
 20
168.787333
 30
0.0
 11
78.714148
 21
168.787333
 31
0.0
  0
LINE
  5
12e
100
AcDbEntity
  8
0
 62
7
100
AcDbLine
 10
78.714148
 20
168.787333
 30
0.0
 11
78.714148
 21
117.890316
 31
0.0
  0
LINE
  5
12f
100
AcDbEntity
  8
0
 62
7
100
AcDbLine
 10
78.714148
 20
117.890316
 30
0.0
 11
49.174398
 21
117.890316
 31
0.0
  0
LINE
  5
130
100
AcDbEntity
  8
0
 62
7
100
AcDbLine
 10
49.174398
 20
117.890316
 30
0.0
 11
49.174398
 21
253.709450
 31
0.0
  0
LINE
  5
131
100
AcDbEntity
  8
0
 62
7
100
AcDbLine
 10
85.640983
 20
192.597877
 30
0.0
 11
78.926344
 21
192.597877
 31
0.0
  0
SPLINE
  5
132
100
AcDbEntity
  8
0
 62
7
100
AcDbSpline
 70
8
 71
3
 72
8
 73
4
 74
0
 40
0
 40
0
 40
0
 40
0
 40
1
 40
1
 40
1
 40
1
 10
109.331104
 20
212.044119
 30
0.0
 10
109.331104
 20
210.572180
 30
0.0
 10
109.229989
 20
209.116730
 30
0.0
 10
108.873004
 20
206.966098
 30
0.0
  0
SPLINE
  5
133
100
AcDbEntity
  8
0
 62
7
100
AcDbSpline
 70
8
 71
3
 72
8
 73
4
 74
0
 40
0
 40
0
 40
0
 40
0
 40
1
 40
1
 40
1
 40
1
 10
108.873004
 20
206.966098
 30
0.0
 10
108.873004
 20
206.966098
 30
0.0
 10
108.719560
 20
206.254785
 30
0.0
 10
108.330450
 20
204.845318
 30
0.0
  0
SPLINE
  5
134
100
AcDbEntity
  8
0
 62
7
100
AcDbSpline
 70
8
 71
3
 72
8
 73
4
 74
0
 40
0
 40
0
 40
0
 40
0
 40
1
 40
1
 40
1
 40
1
 10
108.330450
 20
204.845318
 30
0.0
 10
108.330450
 20
204.845318
 30
0.0
 10
108.092868
 20
204.143836
 30
0.0
 10
107.535325
 20
202.794261
 30
0.0
  0
SPLINE
  5
135
100
AcDbEntity
  8
0
 62
7
100
AcDbSpline
 70
8
 71
3
 72
8
 73
4
 74
0
 40
0
 40
0
 40
0
 40
0
 40
1
 40
1
 40
1
 40
1
 10
107.535325
 20
202.794261
 30
0.0
 10
107.535325
 20
202.794261
 30
0.0
 10
107.214560
 20
202.141889
 30
0.0
 10
106.665135
 20
201.199743
 30
0.0
  0
SPLINE
  5
136
100
AcDbEntity
  8
0
 62
7
100
AcDbSpline
 70
8
 71
3
 72
8
 73
4
 74
0
 40
0
 40
0
 40
0
 40
0
 40
1
 40
1
 40
1
 40
1
 10
106.665135
 20
201.199743
 30
0.0
 10
106.665135
 20
201.199743
 30
0.0
 10
106.470592
 20
200.891745
 30
0.0
 10
106.057732
 20
200.288408
 30
0.0
  0
SPLINE
  5
137
100
AcDbEntity
  8
0
 62
7
100
AcDbSpline
 70
8
 71
3
 72
8
 73
4
 74
0
 40
0
 40
0
 40
0
 40
0
 40
1
 40
1
 40
1
 40
1
 10
106.057732
 20
200.288408
 30
0.0
 10
106.057732
 20
200.288408
 30
0.0
 10
105.838394
 20
199.991821
 30
0.0
 10
104.692359
 20
198.557588
 30
0.0
  0
SPLINE
  5
138
100
AcDbEntity
  8
0
 62
7
100
AcDbSpline
 70
8
 71
3
 72
8
 73
4
 74
0
 40
0
 40
0
 40
0
 40
0
 40
1
 40
1
 40
1
 40
1
 10
104.692359
 20
198.557588
 30
0.0
 10
104.692359
 20
198.557588
 30
0.0
 10
103.626434
 20
197.572580
 30
0.0
 10
102.127260
 20
196.520548
 30
0.0
  0
SPLINE
  5
139
100
AcDbEntity
  8
0
 62
7
100
AcDbSpline
 70
8
 71
3
 72
8
 73
4
 74
0
 40
0
 40
0
 40
0
 40
0
 40
1
 40
1
 40
1
 40
1
 10
102.127260
 20
196.520548
 30
0.0
 10
102.127260
 20
196.520548
 30
0.0
 10
101.817999
 20
196.318539
 30
0.0
 10
101.191516
 20
195.936847
 30
0.0
  0
SPLINE
  5
13a
100
AcDbEntity
  8
0
 62
7
100
AcDbSpline
 70
8
 71
3
 72
8
 73
4
 74
0
 40
0
 40
0
 40
0
 40
0
 40
1
 40
1
 40
1
 40
1
 10
101.191516
 20
195.936847
 30
0.0
 10
101.191516
 20
195.936847
 30
0.0
 10
100.873616
 20
195.756593
 30
0.0
 10
99.907135
 20
195.244959
 30
0.0
  0
SPLINE
  5
13b
100
AcDbEntity
  8
0
 62
7
100
AcDbSpline
 70
8
 71
3
 72
8
 73
4
 74
0
 40
0
 40
0
 40
0
 40
0
 40
1
 40
1
 40
1
 40
1
 10
99.907135
 20
195.244959
 30
0.0
 10
99.907135
 20
195.244959
 30
0.0
 10
99.245851
 20
194.942625
 30
0.0
 10
97.894151
 20
194.403817
 30
0.0
  0
SPLINE
  5
13c
100
AcDbEntity
  8
0
 62
7
100
AcDbSpline
 70
8
 71
3
 72
8
 73
4
 74
0
 40
0
 40
0
 40
0
 40
0
 40
1
 40
1
 40
1
 40
1
 10
97.894151
 20
194.403817
 30
0.0
 10
97.894151
 20
194.403817
 30
0.0
 10
97.203794
 20
194.167407
 30
0.0
 10
95.797922
 20
193.751621
 30
0.0
  0
SPLINE
  5
13d
100
AcDbEntity
  8
0
 62
7
100
AcDbSpline
 70
8
 71
3
 72
8
 73
4
 74
0
 40
0
 40
0
 40
0
 40
0
 40
1
 40
1
 40
1
 40
1
 10
95.797922
 20
193.751621
 30
0.0
 10
95.797922
 20
193.751621
 30
0.0
 10
95.081837
 20
193.572382
 30
0.0
 10
92.932185
 20
193.114972
 30
0.0
  0
SPLINE
  5
13e
100
AcDbEntity
  8
0
 62
7
100
AcDbSpline
 70
8
 71
3
 72
8
 73
4
 74
0
 40
0
 40
0
 40
0
 40
0
 40
1
 40
1
 40
1
 40
1
 10
92.932185
 20
193.114972
 30
0.0
 10
92.932185
 20
193.114972
 30
0.0
 10
91.486361
 20
192.912526
 30
0.0
 10
88.576171
 20
192.653689
 30
0.0
  0
SPLINE
  5
13f
100
AcDbEntity
  8
0
 62
7
100
AcDbSpline
 70
8
 71
3
 72
8
 73
4
 74
0
 40
0
 40
0
 40
0
 40
0
 40
1
 40
1
 40
1
 40
1
 10
88.576171
 20
192.653689
 30
0.0
 10
88.576171
 20
192.653689
 30
0.0
 10
87.112124
 20
192.597877
 30
0.0
 10
85.641006
 20
192.597877
 30
0.0
  0
SPLINE
  5
140
100
AcDbEntity
  8
0
 62
7
100
AcDbSpline
 70
8
 71
3
 72
8
 73
4
 74
0
 40
0
 40
0
 40
0
 40
0
 40
1
 40
1
 40
1
 40
1
 10
85.641006
 20
192.597877
 30
0.0
 10
85.640998
 20
192.597877
 30
0.0
 10
85.640991
 20
192.597877
 30
0.0
 10
85.640983
 20
192.597877
 30
0.0
  0
SPLINE
  5
141
100
AcDbEntity
  8
0
 62
7
100
AcDbSpline
 70
8
 71
3
 72
8
 73
4
 74
0
 40
0
 40
0
 40
0
 40
0
 40
1
 40
1
 40
1
 40
1
 10
103.081218
 20
224.651027
 30
0.0
 10
103.081618
 20
224.650730
 30
0.0
 10
103.082018
 20
224.650433
 30
0.0
 10
103.082418
 20
224.650137
 30
0.0
  0
SPLINE
  5
142
100
AcDbEntity
  8
0
 62
7
100
AcDbSpline
 70
8
 71
3
 72
8
 73
4
 74
0
 40
0
 40
0
 40
0
 40
0
 40
1
 40
1
 40
1
 40
1
 10
103.082418
 20
224.650137
 30
0.0
 10
104.071147
 20
223.916800
 30
0.0
 10
104.971977
 20
223.099350
 30
0.0
 10
105.767425
 20
222.179679
 30
0.0
  0
SPLINE
  5
143
100
AcDbEntity
  8
0
 62
7
100
AcDbSpline
 70
8
 71
3
 72
8
 73
4
 74
0
 40
0
 40
0
 40
0
 40
0
 40
1
 40
1
 40
1
 40
1
 10
105.767425
 20
222.179679
 30
0.0
 10
105.966287
 20
221.949761
 30
0.0
 10
106.158526
 20
221.713429
 30
0.0
 10
106.343791
 20
221.470340
 30
0.0
  0
SPLINE
  5
144
100
AcDbEntity
  8
0
 62
7
100
AcDbSpline
 70
8
 71
3
 72
8
 73
4
 74
0
 40
0
 40
0
 40
0
 40
0
 40
1
 40
1
 40
1
 40
1
 10
106.343791
 20
221.470340
 30
0.0
 10
106.529057
 20
221.227252
 30
0.0
 10
106.708023
 20
220.976367
 30
0.0
 10
106.877870
 20
220.721062
 30
0.0
  0
SPLINE
  5
145
100
AcDbEntity
  8
0
 62
7
100
AcDbSpline
 70
8
 71
3
 72
8
 73
4
 74
0
 40
0
 40
0
 40
0
 40
0
 40
1
 40
1
 40
1
 40
1
 10
106.877870
 20
220.721062
 30
0.0
 10
107.217563
 20
220.210451
 30
0.0
 10
107.520378
 20
219.683452
 30
0.0
 10
107.787384
 20
219.140455
 30
0.0
  0
SPLINE
  5
146
100
AcDbEntity
  8
0
 62
7
100
AcDbSpline
 70
8
 71
3
 72
8
 73
4
 74
0
 40
0
 40
0
 40
0
 40
0
 40
1
 40
1
 40
1
 40
1
 10
107.787384
 20
219.140455
 30
0.0
 10
108.054391
 20
218.597458
 30
0.0
 10
108.285602
 20
218.038440
 30
0.0
 10
108.481984
 20
217.463659
 30
0.0
  0
SPLINE
  5
147
100
AcDbEntity
  8
0
 62
7
100
AcDbSpline
 70
8
 71
3
 72
8
 73
4
 74
0
 40
0
 40
0
 40
0
 40
0
 40
1
 40
1
 40
1
 40
1
 10
108.481984
 20
217.463659
 30
0.0
 10
108.580175
 20
217.176269
 30
0.0
 10
108.669659
 20
216.884924
 30
0.0
 10
108.750533
 20
216.589697
 30
0.0
  0
SPLINE
  5
148
100
AcDbEntity
  8
0
 62
7
100
AcDbSpline
 70
8
 71
3
 72
8
 73
4
 74
0
 40
0
 40
0
 40
0
 40
0
 40
1
 40
1
 40
1
 40
1
 10
108.750533
 20
216.589697
 30
0.0
 10
108.831406
 20
216.294470
 30
0.0
 10
108.903768
 20
215.994682
 30
0.0
 10
108.966972
 20
215.694569
 30
0.0
  0
SPLINE
  5
149
100
AcDbEntity
  8
0
 62
7
100
AcDbSpline
 70
8
 71
3
 72
8
 73
4
 74
0
 40
0
 40
0
 40
0
 40
0
 40
1
 40
1
 40
1
 40
1
 10
108.966972
 20
215.694569
 30
0.0
 10
109.219786
 20
214.494115
 30
0.0
 10
109.331104
 20
213.276230
 30
0.0
 10
109.331104
 20
212.044119
 30
0.0
  0
SPLINE
  5
14a
100
AcDbEntity
  8
0
 62
7
100
AcDbSpline
 70
8
 71
3
 72
8
 73
4
 74
0
 40
0
 40
0
 40
0
 40
0
 40
1
 40
1
 40
1
 40
1
 10
86.065339
 20
229.368430
 30
0.0
 10
86.065357
 20
229.368430
 30
0.0
 10
86.065374
 20
229.368430
 30
0.0
 10
86.065391
 20
229.368430
 30
0.0
  0
SPLINE
  5
14b
100
AcDbEntity
  8
0
 62
7
100
AcDbSpline
 70
8
 71
3
 72
8
 73
4
 74
0
 40
0
 40
0
 40
0
 40
0
 40
1
 40
1
 40
1
 40
1
 10
86.065391
 20
229.368430
 30
0.0
 10
87.573651
 20
229.368430
 30
0.0
 10
89.077087
 20
229.301538
 30
0.0
 10
91.322866
 20
229.068336
 30
0.0
  0
SPLINE
  5
14c
100
AcDbEntity
  8
0
 62
7
100
AcDbSpline
 70
8
 71
3
 72
8
 73
4
 74
0
 40
0
 40
0
 40
0
 40
0
 40
1
 40
1
 40
1
 40
1
 10
91.322866
 20
229.068336
 30
0.0
 10
91.322866
 20
229.068336
 30
0.0
 10
92.070466
 20
228.968134
 30
0.0
 10
93.552494
 20
228.717266
 30
0.0
  0
SPLINE
  5
14d
100
AcDbEntity
  8
0
 62
7
100
AcDbSpline
 70
8
 71
3
 72
8
 73
4
 74
0
 40
0
 40
0
 40
0
 40
0
 40
1
 40
1
 40
1
 40
1
 10
93.552494
 20
228.717266
 30
0.0
 10
93.552494
 20
228.717266
 30
0.0
 10
94.287928
 20
228.566552
 30
0.0
 10
95.745840
 20
228.206605
 30
0.0
  0
SPLINE
  5
14e
100
AcDbEntity
  8
0
 62
7
100
AcDbSpline
 70
8
 71
3
 72
8
 73
4
 74
0
 40
0
 40
0
 40
0
 40
0
 40
1
 40
1
 40
1
 40
1
 10
95.745840
 20
228.206605
 30
0.0
 10
95.745840
 20
228.206605
 30
0.0
 10
96.471041
 20
227.996349
 30
0.0
 10
97.887944
 20
227.513839
 30
0.0
  0
SPLINE
  5
14f
100
AcDbEntity
  8
0
 62
7
100
AcDbSpline
 70
8
 71
3
 72
8
 73
4
 74
0
 40
0
 40
0
 40
0
 40
0
 40
1
 40
1
 40
1
 40
1
 10
97.887944
 20
227.513839
 30
0.0
 10
97.887944
 20
227.513839
 30
0.0
 10
98.580541
 20
227.241629
 30
0.0
 10
100.605878
 20
226.322105
 30
0.0
  0
SPLINE
  5
150
100
AcDbEntity
  8
0
 62
7
100
AcDbSpline
 70
8
 71
3
 72
8
 73
4
 74
0
 40
0
 40
0
 40
0
 40
0
 40
1
 40
1
 40
1
 40
1
 10
100.605878
 20
226.322105
 30
0.0
 10
100.605878
 20
226.322105
 30
0.0
 10
101.886327
 20
225.572989
 30
0.0
 10
103.080035
 20
224.651940
 30
0.0
  0
SPLINE
  5
151
100
AcDbEntity
  8
0
 62
7
100
AcDbSpline
 70
8
 71
3
 72
8
 73
4
 74
0
 40
0
 40
0
 40
0
 40
0
 40
1
 40
1
 40
1
 40
1
 10
103.080035
 20
224.651940
 30
0.0
 10
103.080429
 20
224.651635
 30
0.0
 10
103.080824
 20
224.651331
 30
0.0
 10
103.081218
 20
224.651027
 30
0.0
  0
LINE
  5
152
100
AcDbEntity
  8
0
 62
7
100
AcDbLine
 10
78.926344
 20
229.368430
 30
0.0
 11
86.065339
 21
229.368430
 31
0.0
  0
LINE
  5
153
100
AcDbEntity
  8
0
 62
7
100
AcDbLine
 10
78.926344
 20
192.597877
 30
0.0
 11
78.926344
 21
229.368430
 31
0.0
  0
SPLINE
  5
154
100
AcDbEntity
  8
0
 62
7
100
AcDbSpline
 70
8
 71
3
 72
8
 73
4
 74
0
 40
0
 40
0
 40
0
 40
0
 40
1
 40
1
 40
1
 40
1
 10
109.088327
 20
212.044119
 30
0.0
 10
109.088327
 20
217.278211
 30
0.0
 10
107.037130
 20
221.415973
 30
0.0
 10
102.934736
 20
224.457406
 30
0.0
  0
SPLINE
  5
155
100
AcDbEntity
  8
0
 62
7
100
AcDbSpline
 70
8
 71
3
 72
8
 73
4
 74
0
 40
0
 40
0
 40
0
 40
0
 40
1
 40
1
 40
1
 40
1
 10
85.641006
 20
192.840654
 30
0.0
 10
101.272553
 20
192.840654
 30
0.0
 10
109.088327
 20
199.241809
 30
0.0
 10
109.088327
 20
212.044119
 30
0.0
  0
LINE
  5
156
100
AcDbEntity
  8
0
 62
7
100
AcDbLine
 10
79.169121
 20
192.840654
 30
0.0
 11
85.641006
 21
192.840654
 31
0.0
  0
LINE
  5
157
100
AcDbEntity
  8
0
 62
7
100
AcDbLine
 10
79.169121
 20
229.125653
 30
0.0
 11
79.169121
 21
192.840654
 31
0.0
  0
LINE
  5
158
100
AcDbEntity
  8
0
 62
7
100
AcDbLine
 10
86.065391
 20
229.125653
 30
0.0
 11
79.169121
 21
229.125653
 31
0.0
  0
SPLINE
  5
159
100
AcDbEntity
  8
0
 62
7
100
AcDbSpline
 70
8
 71
3
 72
8
 73
4
 74
0
 40
0
 40
0
 40
0
 40
0
 40
1
 40
1
 40
1
 40
1
 10
102.934736
 20
224.457406
 30
0.0
 10
98.903069
 20
227.569571
 30
0.0
 10
93.279954
 20
229.125653
 30
0.0
 10
86.065391
 20
229.125653
 30
0.0
  0
ENDSEC
  0
SECTION
  2
OBJECTS
  0
DICTIONARY
  5
C
330
0
100
AcDbDictionary
  3
ACAD_GROUP
350
D
  3
ACAD_MLINESTYLE
350
17
  0
DICTIONARY
  5
D
330
C
100
AcDbDictionary
  0
DICTIONARY
  5
1A
330
C
100
AcDbDictionary
  0
DICTIONARY
  5
17
330
C
100
AcDbDictionary
  3
STANDARD
350
18
  0
DICTIONARY
  5
19
330
C
100
AcDbDictionary
  0
ENDSEC
  0
EOF
