  0
SECTION
  2
HEADER
  9
$ACADVER
  1
AC1014
  9
$HANDSEED
  5
FFFF
  9
$MEASUREMENT
 70
     1
  0
ENDSEC
  0
SECTION
  2
TABLES
  0
TABLE
  2
VPORT
  5
8
330
0
100
AcDbSymbolTable
 70
     4
  0
VPORT
  5
2E
330
8
100
AcDbSymbolTableRecord
100
AcDbViewportTableRecord
  2
*ACTIVE
 70
     0
 10
0.0
 20
0.0
 11
1.0
 21
1.0
 12
210.0
 22
148.5
 13
0.0
 23
0.0
 14
10.0
 24
10.0
 15
10.0
 25
10.0
 16
0.0
 26
0.0
 36
1.0
 17
0.0
 27
0.0
 37
0.0
 40
341.0
 41
1.24
 42
50.0
 43
0.0
 44
0.0
 50
0.0
 51
0.0
 71
     0
 72
   100
 73
     1
 74
     3
 75
     0
 76
     0
 77
     0
 78
     0
  0
ENDTAB
  0
TABLE
  2
LTYPE
  5
5
330
0
100
AcDbSymbolTable
 70
     1
  0
LTYPE
  5
14
330
5
100
AcDbSymbolTableRecord
100
AcDbLinetypeTableRecord
  2
BYBLOCK
 70
     0
  3

 72
    65
 73
     0
 40
0.0
  0
LTYPE
  5
15
330
5
100
AcDbSymbolTableRecord
100
AcDbLinetypeTableRecord
  2
BYLAYER
 70
     0
  3

 72
    65
 73
     0
 40
0.0
  0
LTYPE
  5
16
330
5
100
AcDbSymbolTableRecord
100
AcDbLinetypeTableRecord
  2
CONTINUOUS
 70
     0
  3
Solid line
 72
    65
 73
     0
 40
0.0
  0
ENDTAB
  0
TABLE
  2
LAYER
  5
2
100
AcDbSymbolTable
 70
1
  0
LAYER
  5
50
100
AcDbSymbolTableRecord
100
AcDbLayerTableRecord
  2
0
 70
0
  6
CONTINUOUS
  0
ENDTAB
  0
TABLE
  2
STYLE
  5
3
330
0
100
AcDbSymbolTable
 70
     1
  0
STYLE
  5
11
330
3
100
AcDbSymbolTableRecord
100
AcDbTextStyleTableRecord
  2
STANDARD
 70
     0
 40
0.0
 41
1.0
 50
0.0
 71
     0
 42
2.5
  3
txt
  4

  0
ENDTAB
  0
TABLE
  2
VIEW
  5
6
330
0
100
AcDbSymbolTable
 70
     0
  0
ENDTAB
  0
TABLE
  2
UCS
  5
7
330
0
100
AcDbSymbolTable
 70
     0
  0
ENDTAB
  0
TABLE
  2
APPID
  5
9
330
0
100
AcDbSymbolTable
 70
     2
  0
APPID
  5
12
330
9
100
AcDbSymbolTableRecord
100
AcDbRegAppTableRecord
  2
ACAD
 70
     0
  0
ENDTAB
  0
TABLE
  2
DIMSTYLE
  5
A
330
0
100
AcDbSymbolTable
 70
     1
  0
DIMSTYLE
105
27
330
A
100
AcDbSymbolTableRecord
100
AcDbDimStyleTableRecord
  2
ISO-25
 70
     0
  3

  4

  5

  6

  7

 40
1.0
 41
2.5
 42
0.625
 43
3.75
 44
1.25
 45
0.0
 46
0.0
 47
0.0
 48
0.0
140
2.5
141
2.5
142
0.0
143
0.03937007874016
144
1.0
145
0.0
146
1.0
147
0.625
 71
     0
 72
     0
 73
     0
 74
     0
 75
     0
 76
     0
 77
     1
 78
     8
170
     0
171
     3
172
     1
173
     0
174
     0
175
     0
176
     0
177
     0
178
     0
270
     2
271
     2
272
     2
273
     2
274
     3
340
11
275
     0
280
     0
281
     0
282
     0
283
     0
284
     8
285
     0
286
     0
287
     3
288
     0
  0
ENDTAB
  0
TABLE
  2
BLOCK_RECORD
  5
1
330
0
100
AcDbSymbolTable
 70
     1
  0
BLOCK_RECORD
  5
1F
330
1
100
AcDbSymbolTableRecord
100
AcDbBlockTableRecord
  2
*MODEL_SPACE
  0
BLOCK_RECORD
  5
1B
330
1
100
AcDbSymbolTableRecord
100
AcDbBlockTableRecord
  2
*PAPER_SPACE
  0
ENDTAB
  0
ENDSEC
  0
SECTION
  2
BLOCKS
  0
BLOCK
  5
20
330
1F
100
AcDbEntity
  8
0
100
AcDbBlockBegin
  2
*MODEL_SPACE
 70
     0
 10
0.0
 20
0.0
 30
0.0
  3
*MODEL_SPACE
  1

  0
ENDBLK
  5
21
330
1F
100
AcDbEntity
  8
0
100
AcDbBlockEnd
  0
BLOCK
  5
1C
330
1B
100
AcDbEntity
 67
     1
  8
0
100
AcDbBlockBegin
  2
*PAPER_SPACE
  1

  0
ENDBLK
  5
1D
330
1B
100
AcDbEntity
 67
     1
  8
0
100
AcDbBlockEnd
  0
ENDSEC
  0
SECTION
  2
ENTITIES
  0
SPLINE
  5
100
100
AcDbEntity
  8
0
 62
7
100
AcDbSpline
 70
8
 71
3
 72
8
 73
4
 74
0
 40
0
 40
0
 40
0
 40
0
 40
1
 40
1
 40
1
 40
1
 10
64.442223
 20
117.860604
 30
0.0
 10
69.351832
 20
111.969075
 30
0.0
 10
75.864265
 20
107.735641
 30
0.0
 10
83.979522
 20
105.160301
 30
0.0
  0
LINE
  5
101
100
AcDbEntity
  8
0
 62
7
100
AcDbLine
 10
83.979522
 20
105.160301
 30
0.0
 11
125.300482
 21
105.160301
 31
0.0
  0
SPLINE
  5
102
100
AcDbEntity
  8
0
 62
7
100
AcDbSpline
 70
8
 71
3
 72
8
 73
4
 74
0
 40
0
 40
0
 40
0
 40
0
 40
1
 40
1
 40
1
 40
1
 10
125.300482
 20
105.160301
 30
0.0
 10
128.291781
 20
106.148902
 30
0.0
 10
131.172368
 20
107.381835
 30
0.0
 10
133.942241
 20
108.859101
 30
0.0
  0
SPLINE
  5
103
100
AcDbEntity
  8
0
 62
7
100
AcDbSpline
 70
8
 71
3
 72
8
 73
4
 74
0
 40
0
 40
0
 40
0
 40
0
 40
1
 40
1
 40
1
 40
1
 10
133.942241
 20
108.859101
 30
0.0
 10
142.385519
 20
113.324964
 30
0.0
 10
148.630751
 20
119.744644
 30
0.0
 10
152.677937
 20
128.118141
 30
0.0
  0
SPLINE
  5
104
100
AcDbEntity
  8
0
 62
7
100
AcDbSpline
 70
8
 71
3
 72
8
 73
4
 74
0
 40
0
 40
0
 40
0
 40
0
 40
1
 40
1
 40
1
 40
1
 10
152.677937
 20
128.118141
 30
0.0
 10
156.725128
 20
136.561414
 30
0.0
 10
158.748724
 20
144.690684
 30
0.0
 10
158.748724
 20
152.505950
 30
0.0
  0
LINE
  5
105
100
AcDbEntity
  8
0
 62
7
100
AcDbLine
 10
158.748724
 20
152.505950
 30
0.0
 11
158.748724
 21
241.474343
 31
0.0
  0
LINE
  5
106
100
AcDbEntity
  8
0
 62
7
100
AcDbLine
 10
158.748724
 20
241.474343
 30
0.0
 11
129.650827
 21
241.474343
 31
0.0
  0
LINE
  5
107
100
AcDbEntity
  8
0
 62
7
100
AcDbLine
 10
129.650827
 20
241.474343
 30
0.0
 11
129.650827
 21
158.890740
 31
0.0
  0
SPLINE
  5
108
100
AcDbEntity
  8
0
 62
7
100
AcDbSpline
 70
8
 71
3
 72
8
 73
4
 74
0
 40
0
 40
0
 40
0
 40
0
 40
1
 40
1
 40
1
 40
1
 10
129.650827
 20
158.890740
 30
0.0
 10
129.650827
 20
150.168346
 30
0.0
 10
127.417894
 20
143.399770
 30
0.0
 10
122.952027
 20
138.585012
 30
0.0
  0
SPLINE
  5
109
100
AcDbEntity
  8
0
 62
7
100
AcDbSpline
 70
8
 71
3
 72
8
 73
4
 74
0
 40
0
 40
0
 40
0
 40
0
 40
1
 40
1
 40
1
 40
1
 10
122.952027
 20
138.585012
 30
0.0
 10
118.486164
 20
133.840029
 30
0.0
 10
112.206042
 20
131.467538
 30
0.0
 10
104.111661
 20
131.467538
 30
0.0
  0
SPLINE
  5
10a
100
AcDbEntity
  8
0
 62
7
100
AcDbSpline
 70
8
 71
3
 72
8
 73
4
 74
0
 40
0
 40
0
 40
0
 40
0
 40
1
 40
1
 40
1
 40
1
 10
104.111661
 20
131.467538
 30
0.0
 10
97.063971
 20
131.467538
 30
0.0
 10
91.376973
 20
133.840029
 30
0.0
 10
87.050667
 20
138.585012
 30
0.0
  0
SPLINE
  5
10b
100
AcDbEntity
  8
0
 62
7
100
AcDbSpline
 70
8
 71
3
 72
8
 73
4
 74
0
 40
0
 40
0
 40
0
 40
0
 40
1
 40
1
 40
1
 40
1
 10
87.050667
 20
138.585012
 30
0.0
 10
82.724360
 20
143.329990
 30
0.0
 10
80.561207
 20
149.610112
 30
0.0
 10
80.561207
 20
157.425378
 30
0.0
  0
LINE
  5
10c
100
AcDbEntity
  8
0
 62
7
100
AcDbLine
 10
80.561207
 20
157.425378
 30
0.0
 11
80.561207
 21
241.474343
 31
0.0
  0
LINE
  5
10d
100
AcDbEntity
  8
0
 62
7
100
AcDbLine
 10
80.561207
 20
241.474343
 30
0.0
 11
51.358640
 21
241.474343
 31
0.0
  0
LINE
  5
10e
100
AcDbEntity
  8
0
 62
7
100
AcDbLine
 10
51.358640
 20
241.474343
 30
0.0
 11
51.358640
 21
151.040588
 31
0.0
  0
SPLINE
  5
10f
100
AcDbEntity
  8
0
 62
7
100
AcDbSpline
 70
8
 71
3
 72
8
 73
4
 74
0
 40
0
 40
0
 40
0
 40
0
 40
1
 40
1
 40
1
 40
1
 10
51.358640
 20
151.040588
 30
0.0
 10
51.358640
 20
139.457252
 30
0.0
 10
55.719834
 20
128.397257
 30
0.0
 10
64.442223
 20
117.860604
 30
0.0
  0
SPLINE
  5
110
100
AcDbEntity
  8
0
 62
7
100
AcDbSpline
 70
8
 71
3
 72
8
 73
4
 74
0
 40
0
 40
0
 40
0
 40
0
 40
1
 40
1
 40
1
 40
1
 10
86.871266
 20
138.421440
 30
0.0
 10
85.708124
 20
139.697143
 30
0.0
 10
84.700660
 20
141.081562
 30
0.0
 10
83.847885
 20
142.574758
 30
0.0
  0
SPLINE
  5
111
100
AcDbEntity
  8
0
 62
7
100
AcDbSpline
 70
8
 71
3
 72
8
 73
4
 74
0
 40
0
 40
0
 40
0
 40
0
 40
1
 40
1
 40
1
 40
1
 10
83.847885
 20
142.574758
 30
0.0
 10
83.634691
 20
142.948057
 30
0.0
 10
83.430657
 20
143.329231
 30
0.0
 10
83.237888
 20
143.713907
 30
0.0
  0
SPLINE
  5
112
100
AcDbEntity
  8
0
 62
7
100
AcDbSpline
 70
8
 71
3
 72
8
 73
4
 74
0
 40
0
 40
0
 40
0
 40
0
 40
1
 40
1
 40
1
 40
1
 10
83.237888
 20
143.713907
 30
0.0
 10
83.045120
 20
144.098583
 30
0.0
 10
82.863435
 20
144.486926
 30
0.0
 10
82.692324
 20
144.878756
 30
0.0
  0
SPLINE
  5
113
100
AcDbEntity
  8
0
 62
7
100
AcDbSpline
 70
8
 71
3
 72
8
 73
4
 74
0
 40
0
 40
0
 40
0
 40
0
 40
1
 40
1
 40
1
 40
1
 10
82.692324
 20
144.878756
 30
0.0
 10
82.350104
 20
145.662414
 30
0.0
 10
82.050143
 20
146.460016
 30
0.0
 10
81.788767
 20
147.270448
 30
0.0
  0
SPLINE
  5
114
100
AcDbEntity
  8
0
 62
7
100
AcDbSpline
 70
8
 71
3
 72
8
 73
4
 74
0
 40
0
 40
0
 40
0
 40
0
 40
1
 40
1
 40
1
 40
1
 10
81.788767
 20
147.270448
 30
0.0
 10
81.527390
 20
148.080879
 30
0.0
 10
81.304613
 20
148.904129
 30
0.0
 10
81.117300
 20
149.739177
 30
0.0
  0
SPLINE
  5
115
100
AcDbEntity
  8
0
 62
7
100
AcDbSpline
 70
8
 71
3
 72
8
 73
4
 74
0
 40
0
 40
0
 40
0
 40
0
 40
1
 40
1
 40
1
 40
1
 10
81.117300
 20
149.739177
 30
0.0
 10
80.929987
 20
150.574226
 30
0.0
 10
80.777821
 20
151.423809
 30
0.0
 10
80.659343
 20
152.276693
 30
0.0
  0
SPLINE
  5
116
100
AcDbEntity
  8
0
 62
7
100
AcDbSpline
 70
8
 71
3
 72
8
 73
4
 74
0
 40
0
 40
0
 40
0
 40
0
 40
1
 40
1
 40
1
 40
1
 10
80.659343
 20
152.276693
 30
0.0
 10
80.422386
 20
153.982459
 30
0.0
 10
80.318430
 20
155.699468
 30
0.0
 10
80.318430
 20
157.425378
 30
0.0
  0
SPLINE
  5
117
100
AcDbEntity
  8
0
 62
7
100
AcDbSpline
 70
8
 71
3
 72
8
 73
4
 74
0
 40
0
 40
0
 40
0
 40
0
 40
1
 40
1
 40
1
 40
1
 10
104.111661
 20
131.224761
 30
0.0
 10
102.493373
 20
131.224761
 30
0.0
 10
100.887231
 20
131.347862
 30
0.0
 10
99.296051
 20
131.626797
 30
0.0
  0
SPLINE
  5
118
100
AcDbEntity
  8
0
 62
7
100
AcDbSpline
 70
8
 71
3
 72
8
 73
4
 74
0
 40
0
 40
0
 40
0
 40
0
 40
1
 40
1
 40
1
 40
1
 10
99.296051
 20
131.626797
 30
0.0
 10
98.500461
 20
131.766265
 30
0.0
 10
97.714270
 20
131.944208
 30
0.0
 10
96.945131
 20
132.161422
 30
0.0
  0
SPLINE
  5
119
100
AcDbEntity
  8
0
 62
7
100
AcDbSpline
 70
8
 71
3
 72
8
 73
4
 74
0
 40
0
 40
0
 40
0
 40
0
 40
1
 40
1
 40
1
 40
1
 10
96.945131
 20
132.161422
 30
0.0
 10
96.175991
 20
132.378636
 30
0.0
 10
95.421713
 20
132.635489
 30
0.0
 10
94.683049
 20
132.934174
 30
0.0
  0
SPLINE
  5
11a
100
AcDbEntity
  8
0
 62
7
100
AcDbSpline
 70
8
 71
3
 72
8
 73
4
 74
0
 40
0
 40
0
 40
0
 40
0
 40
1
 40
1
 40
1
 40
1
 10
94.683049
 20
132.934174
 30
0.0
 10
93.944386
 20
133.232859
 30
0.0
 10
93.221310
 20
133.573386
 30
0.0
 10
92.514683
 20
133.958200
 30
0.0
  0
SPLINE
  5
11b
100
AcDbEntity
  8
0
 62
7
100
AcDbSpline
 70
8
 71
3
 72
8
 73
4
 74
0
 40
0
 40
0
 40
0
 40
0
 40
1
 40
1
 40
1
 40
1
 10
92.514683
 20
133.958200
 30
0.0
 10
92.161370
 20
134.150608
 30
0.0
 10
91.811120
 20
134.354795
 30
0.0
 10
91.468992
 20
134.567870
 30
0.0
  0
SPLINE
  5
11c
100
AcDbEntity
  8
0
 62
7
100
AcDbSpline
 70
8
 71
3
 72
8
 73
4
 74
0
 40
0
 40
0
 40
0
 40
0
 40
1
 40
1
 40
1
 40
1
 10
91.468992
 20
134.567870
 30
0.0
 10
91.126863
 20
134.780945
 30
0.0
 10
90.792188
 20
135.003191
 30
0.0
 10
90.464774
 20
135.234343
 30
0.0
  0
SPLINE
  5
11d
100
AcDbEntity
  8
0
 62
7
100
AcDbSpline
 70
8
 71
3
 72
8
 73
4
 74
0
 40
0
 40
0
 40
0
 40
0
 40
1
 40
1
 40
1
 40
1
 10
90.464774
 20
135.234343
 30
0.0
 10
89.155120
 20
136.158954
 30
0.0
 10
87.961334
 20
137.225881
 30
0.0
 10
86.871266
 20
138.421440
 30
0.0
  0
SPLINE
  5
11e
100
AcDbEntity
  8
0
 62
7
100
AcDbSpline
 70
8
 71
3
 72
8
 73
4
 74
0
 40
0
 40
0
 40
0
 40
0
 40
1
 40
1
 40
1
 40
1
 10
123.129423
 20
138.419265
 30
0.0
 10
121.925371
 20
137.140026
 30
0.0
 10
120.583606
 20
136.023777
 30
0.0
 10
119.104404
 20
135.078673
 30
0.0
  0
SPLINE
  5
11f
100
AcDbEntity
  8
0
 62
7
100
AcDbSpline
 70
8
 71
3
 72
8
 73
4
 74
0
 40
0
 40
0
 40
0
 40
0
 40
1
 40
1
 40
1
 40
1
 10
119.104404
 20
135.078673
 30
0.0
 10
117.625041
 20
134.133466
 30
0.0
 10
116.058841
 20
133.390061
 30
0.0
 10
114.418669
 20
132.816246
 30
0.0
  0
SPLINE
  5
120
100
AcDbEntity
  8
0
 62
7
100
AcDbSpline
 70
8
 71
3
 72
8
 73
4
 74
0
 40
0
 40
0
 40
0
 40
0
 40
1
 40
1
 40
1
 40
1
 10
114.418669
 20
132.816246
 30
0.0
 10
113.598583
 20
132.529339
 30
0.0
 10
112.757274
 20
132.284388
 30
0.0
 10
111.904907
 20
132.080234
 30
0.0
  0
SPLINE
  5
121
100
AcDbEntity
  8
0
 62
7
100
AcDbSpline
 70
8
 71
3
 72
8
 73
4
 74
0
 40
0
 40
0
 40
0
 40
0
 40
1
 40
1
 40
1
 40
1
 10
111.904907
 20
132.080234
 30
0.0
 10
111.052541
 20
131.876079
 30
0.0
 10
110.195023
 20
131.713745
 30
0.0
 10
109.332987
 20
131.587349
 30
0.0
  0
SPLINE
  5
122
100
AcDbEntity
  8
0
 62
7
100
AcDbSpline
 70
8
 71
3
 72
8
 73
4
 74
0
 40
0
 40
0
 40
0
 40
0
 40
1
 40
1
 40
1
 40
1
 10
109.332987
 20
131.587349
 30
0.0
 10
107.608915
 20
131.334559
 30
0.0
 10
105.867220
 20
131.224761
 30
0.0
 10
104.111661
 20
131.224761
 30
0.0
  0
SPLINE
  5
123
100
AcDbEntity
  8
0
 62
7
100
AcDbSpline
 70
8
 71
3
 72
8
 73
4
 74
0
 40
0
 40
0
 40
0
 40
0
 40
1
 40
1
 40
1
 40
1
 10
129.893604
 20
158.890740
 30
0.0
 10
129.893604
 20
157.038815
 30
0.0
 10
129.794601
 20
155.195040
 30
0.0
 10
129.564303
 20
153.361972
 30
0.0
  0
SPLINE
  5
124
100
AcDbEntity
  8
0
 62
7
100
AcDbSpline
 70
8
 71
3
 72
8
 73
4
 74
0
 40
0
 40
0
 40
0
 40
0
 40
1
 40
1
 40
1
 40
1
 10
129.564303
 20
153.361972
 30
0.0
 10
129.449154
 20
152.445438
 30
0.0
 10
129.300416
 20
151.530181
 30
0.0
 10
129.115798
 20
150.630140
 30
0.0
  0
SPLINE
  5
125
100
AcDbEntity
  8
0
 62
7
100
AcDbSpline
 70
8
 71
3
 72
8
 73
4
 74
0
 40
0
 40
0
 40
0
 40
0
 40
1
 40
1
 40
1
 40
1
 10
129.115798
 20
150.630140
 30
0.0
 10
128.931180
 20
149.730099
 30
0.0
 10
128.710470
 20
148.842567
 30
0.0
 10
128.449399
 20
147.968942
 30
0.0
  0
SPLINE
  5
126
100
AcDbEntity
  8
0
 62
7
100
AcDbSpline
 70
8
 71
3
 72
8
 73
4
 74
0
 40
0
 40
0
 40
0
 40
0
 40
1
 40
1
 40
1
 40
1
 10
128.449399
 20
147.968942
 30
0.0
 10
127.927258
 20
146.221692
 30
0.0
 10
127.245074
 20
144.529962
 30
0.0
 10
126.356461
 20
142.908901
 30
0.0
  0
SPLINE
  5
127
100
AcDbEntity
  8
0
 62
7
100
AcDbSpline
 70
8
 71
3
 72
8
 73
4
 74
0
 40
0
 40
0
 40
0
 40
0
 40
1
 40
1
 40
1
 40
1
 10
126.356461
 20
142.908901
 30
0.0
 10
126.134307
 20
142.503636
 30
0.0
 10
125.898959
 20
142.102730
 30
0.0
 10
125.652979
 20
141.711464
 30
0.0
  0
SPLINE
  5
128
100
AcDbEntity
  8
0
 62
7
100
AcDbSpline
 70
8
 71
3
 72
8
 73
4
 74
0
 40
0
 40
0
 40
0
 40
0
 40
1
 40
1
 40
1
 40
1
 10
125.652979
 20
141.711464
 30
0.0
 10
125.406998
 20
141.320198
 30
0.0
 10
125.149704
 20
140.937274
 30
0.0
 10
124.880938
 20
140.562837
 30
0.0
  0
SPLINE
  5
129
100
AcDbEntity
  8
0
 62
7
100
AcDbSpline
 70
8
 71
3
 72
8
 73
4
 74
0
 40
0
 40
0
 40
0
 40
0
 40
1
 40
1
 40
1
 40
1
 10
124.880938
 20
140.562837
 30
0.0
 10
124.343517
 20
139.814116
 30
0.0
 10
123.760158
 20
139.099311
 30
0.0
 10
123.129423
 20
138.419265
 30
0.0
  0
LINE
  5
12a
100
AcDbEntity
  8
0
 62
7
100
AcDbLine
 10
129.893604
 20
241.231566
 30
0.0
 11
129.893604
 21
158.890740
 31
0.0
  0
LINE
  5
12b
100
AcDbEntity
  8
0
 62
7
100
AcDbLine
 10
158.505947
 20
241.231566
 30
0.0
 11
129.893604
 21
241.231566
 31
0.0
  0
LINE
  5
12c
100
AcDbEntity
  8
0
 62
7
100
AcDbLine
 10
158.505947
 20
152.505950
 30
0.0
 11
158.505947
 21
241.231566
 31
0.0
  0
SPLINE
  5
12d
100
AcDbEntity
  8
0
 62
7
100
AcDbSpline
 70
8
 71
3
 72
8
 73
4
 74
0
 40
0
 40
0
 40
0
 40
0
 40
1
 40
1
 40
1
 40
1
 10
152.459182
 20
128.223436
 30
0.0
 10
152.459219
 20
128.223513
 30
0.0
 10
152.459256
 20
128.223590
 30
0.0
 10
152.459293
 20
128.223667
 30
0.0
  0
SPLINE
  5
12e
100
AcDbEntity
  8
0
 62
7
100
AcDbSpline
 70
8
 71
3
 72
8
 73
4
 74
0
 40
0
 40
0
 40
0
 40
0
 40
1
 40
1
 40
1
 40
1
 10
152.459293
 20
128.223667
 30
0.0
 10
154.277396
 20
132.016686
 30
0.0
 10
155.791954
 20
135.966087
 30
0.0
 10
156.851535
 20
140.040730
 30
0.0
  0
SPLINE
  5
12f
100
AcDbEntity
  8
0
 62
7
100
AcDbSpline
 70
8
 71
3
 72
8
 73
4
 74
0
 40
0
 40
0
 40
0
 40
0
 40
1
 40
1
 40
1
 40
1
 10
156.851535
 20
140.040730
 30
0.0
 10
157.116431
 20
141.059390
 30
0.0
 10
157.353231
 20
142.087875
 30
0.0
 10
157.558196
 20
143.118941
 30
0.0
  0
SPLINE
  5
130
100
AcDbEntity
  8
0
 62
7
100
AcDbSpline
 70
8
 71
3
 72
8
 73
4
 74
0
 40
0
 40
0
 40
0
 40
0
 40
1
 40
1
 40
1
 40
1
 10
157.558196
 20
143.118941
 30
0.0
 10
157.763160
 20
144.150008
 30
0.0
 10
157.936678
 20
145.184849
 30
0.0
 10
158.077029
 20
146.223666
 30
0.0
  0
SPLINE
  5
131
100
AcDbEntity
  8
0
 62
7
100
AcDbSpline
 70
8
 71
3
 72
8
 73
4
 74
0
 40
0
 40
0
 40
0
 40
0
 40
1
 40
1
 40
1
 40
1
 10
158.077029
 20
146.223666
 30
0.0
 10
158.357731
 20
148.301298
 30
0.0
 10
158.505947
 20
150.394839
 30
0.0
 10
158.505947
 20
152.505950
 30
0.0
  0
SPLINE
  5
132
100
AcDbEntity
  8
0
 62
7
100
AcDbSpline
 70
8
 71
3
 72
8
 73
4
 74
0
 40
0
 40
0
 40
0
 40
0
 40
1
 40
1
 40
1
 40
1
 10
133.828361
 20
109.073512
 30
0.0
 10
135.839802
 20
110.137428
 30
0.0
 10
137.767626
 20
111.334367
 30
0.0
 10
140.516200
 20
113.356937
 30
0.0
  0
SPLINE
  5
133
100
AcDbEntity
  8
0
 62
7
100
AcDbSpline
 70
8
 71
3
 72
8
 73
4
 74
0
 40
0
 40
0
 40
0
 40
0
 40
1
 40
1
 40
1
 40
1
 10
140.516200
 20
113.356937
 30
0.0
 10
140.516200
 20
113.356937
 30
0.0
 10
141.405819
 20
114.067296
 30
0.0
 10
143.120392
 20
115.555246
 30
0.0
  0
SPLINE
  5
134
100
AcDbEntity
  8
0
 62
7
100
AcDbSpline
 70
8
 71
3
 72
8
 73
4
 74
0
 40
0
 40
0
 40
0
 40
0
 40
1
 40
1
 40
1
 40
1
 10
143.120392
 20
115.555246
 30
0.0
 10
143.120392
 20
115.555246
 30
0.0
 10
143.946779
 20
116.333867
 30
0.0
 10
145.138651
 20
117.555307
 30
0.0
  0
SPLINE
  5
135
100
AcDbEntity
  8
0
 62
7
100
AcDbSpline
 70
8
 71
3
 72
8
 73
4
 74
0
 40
0
 40
0
 40
0
 40
0
 40
1
 40
1
 40
1
 40
1
 10
145.138651
 20
117.555307
 30
0.0
 10
145.138651
 20
117.555307
 30
0.0
 10
145.528064
 20
117.971529
 30
0.0
 10
146.285763
 20
118.816218
 30
0.0
  0
SPLINE
  5
136
100
AcDbEntity
  8
0
 62
7
100
AcDbSpline
 70
8
 71
3
 72
8
 73
4
 74
0
 40
0
 40
0
 40
0
 40
0
 40
1
 40
1
 40
1
 40
1
 10
146.285763
 20
118.816218
 30
0.0
 10
146.285763
 20
118.816218
 30
0.0
 10
146.654711
 20
119.245339
 30
0.0
 10
147.732337
 20
120.552733
 30
0.0
  0
SPLINE
  5
137
100
AcDbEntity
  8
0
 62
7
100
AcDbSpline
 70
8
 71
3
 72
8
 73
4
 74
0
 40
0
 40
0
 40
0
 40
0
 40
1
 40
1
 40
1
 40
1
 10
147.732337
 20
120.552733
 30
0.0
 10
147.732337
 20
120.552733
 30
0.0
 10
148.411789
 20
121.451020
 30
0.0
 10
150.336778
 20
124.223360
 30
0.0
  0
SPLINE
  5
138
100
AcDbEntity
  8
0
 62
7
100
AcDbSpline
 70
8
 71
3
 72
8
 73
4
 74
0
 40
0
 40
0
 40
0
 40
0
 40
1
 40
1
 40
1
 40
1
 10
150.336778
 20
124.223360
 30
0.0
 10
150.336778
 20
124.223360
 30
0.0
 10
151.469007
 20
126.174869
 30
0.0
 10
152.459070
 20
128.223204
 30
0.0
  0
SPLINE
  5
139
100
AcDbEntity
  8
0
 62
7
100
AcDbSpline
 70
8
 71
3
 72
8
 73
4
 74
0
 40
0
 40
0
 40
0
 40
0
 40
1
 40
1
 40
1
 40
1
 10
152.459070
 20
128.223204
 30
0.0
 10
152.459107
 20
128.223281
 30
0.0
 10
152.459145
 20
128.223358
 30
0.0
 10
152.459182
 20
128.223436
 30
0.0
  0
SPLINE
  5
13a
100
AcDbEntity
  8
0
 62
7
100
AcDbSpline
 70
8
 71
3
 72
8
 73
4
 74
0
 40
0
 40
0
 40
0
 40
0
 40
1
 40
1
 40
1
 40
1
 10
125.261378
 20
105.403078
 30
0.0
 10
125.269415
 20
105.405744
 30
0.0
 10
125.277451
 20
105.408410
 30
0.0
 10
125.285487
 20
105.411076
 30
0.0
  0
SPLINE
  5
13b
100
AcDbEntity
  8
0
 62
7
100
AcDbSpline
 70
8
 71
3
 72
8
 73
4
 74
0
 40
0
 40
0
 40
0
 40
0
 40
1
 40
1
 40
1
 40
1
 10
125.285487
 20
105.411076
 30
0.0
 10
128.236612
 20
106.390199
 30
0.0
 10
131.084700
 20
107.610243
 30
0.0
 10
133.828361
 20
109.073512
 30
0.0
  0
LINE
  5
13c
100
AcDbEntity
  8
0
 62
7
100
AcDbLine
 10
84.017146
 20
105.403078
 30
0.0
 11
125.261378
 21
105.403078
 31
0.0
  0
SPLINE
  5
13d
100
AcDbEntity
  8
0
 62
7
100
AcDbSpline
 70
8
 71
3
 72
8
 73
4
 74
0
 40
0
 40
0
 40
0
 40
0
 40
1
 40
1
 40
1
 40
1
 10
64.628983
 20
118.015721
 30
0.0
 10
64.629038
 20
118.015655
 30
0.0
 10
64.629093
 20
118.015589
 30
0.0
 10
64.629149
 20
118.015523
 30
0.0
  0
SPLINE
  5
13e
100
AcDbEntity
  8
0
 62
7
100
AcDbSpline
 70
8
 71
3
 72
8
 73
4
 74
0
 40
0
 40
0
 40
0
 40
0
 40
1
 40
1
 40
1
 40
1
 10
64.629149
 20
118.015523
 30
0.0
 10
65.888668
 20
116.504153
 30
0.0
 10
67.250484
 20
115.107246
 30
0.0
 10
69.443514
 20
113.180716
 30
0.0
  0
SPLINE
  5
13f
100
AcDbEntity
  8
0
 62
7
100
AcDbSpline
 70
8
 71
3
 72
8
 73
4
 74
0
 40
0
 40
0
 40
0
 40
0
 40
1
 40
1
 40
1
 40
1
 10
69.443514
 20
113.180716
 30
0.0
 10
69.443514
 20
113.180716
 30
0.0
 10
70.199563
 20
112.566685
 30
0.0
 10
71.761259
 20
111.394363
 30
0.0
  0
SPLINE
  5
140
100
AcDbEntity
  8
0
 62
7
100
AcDbSpline
 70
8
 71
3
 72
8
 73
4
 74
0
 40
0
 40
0
 40
0
 40
0
 40
1
 40
1
 40
1
 40
1
 10
71.761259
 20
111.394363
 30
0.0
 10
71.761259
 20
111.394363
 30
0.0
 10
72.569190
 20
110.834645
 30
0.0
 10
76.704072
 20
108.191354
 30
0.0
  0
SPLINE
  5
141
100
AcDbEntity
  8
0
 62
7
100
AcDbSpline
 70
8
 71
3
 72
8
 73
4
 74
0
 40
0
 40
0
 40
0
 40
0
 40
1
 40
1
 40
1
 40
1
 10
76.704072
 20
108.191354
 30
0.0
 10
76.704072
 20
108.191354
 30
0.0
 10
80.256624
 20
106.601367
 30
0.0
 10
83.993856
 20
105.410499
 30
0.0
  0
SPLINE
  5
142
100
AcDbEntity
  8
0
 62
7
100
AcDbSpline
 70
8
 71
3
 72
8
 73
4
 74
0
 40
0
 40
0
 40
0
 40
0
 40
1
 40
1
 40
1
 40
1
 10
83.993856
 20
105.410499
 30
0.0
 10
84.001619
 20
105.408025
 30
0.0
 10
84.009382
 20
105.405552
 30
0.0
 10
84.017146
 20
105.403078
 30
0.0
  0
SPLINE
  5
143
100
AcDbEntity
  8
0
 62
7
100
AcDbSpline
 70
8
 71
3
 72
8
 73
4
 74
0
 40
0
 40
0
 40
0
 40
0
 40
1
 40
1
 40
1
 40
1
 10
51.601417
 20
151.040588
 30
0.0
 10
51.601417
 20
147.998078
 30
0.0
 10
51.903940
 20
144.990434
 30
0.0
 10
52.661120
 20
141.275126
 30
0.0
  0
SPLINE
  5
144
100
AcDbEntity
  8
0
 62
7
100
AcDbSpline
 70
8
 71
3
 72
8
 73
4
 74
0
 40
0
 40
0
 40
0
 40
0
 40
1
 40
1
 40
1
 40
1
 10
52.661120
 20
141.275126
 30
0.0
 10
52.661120
 20
141.275126
 30
0.0
 10
52.831969
 20
140.532635
 30
0.0
 10
53.208465
 20
139.063551
 30
0.0
  0
SPLINE
  5
145
100
AcDbEntity
  8
0
 62
7
100
AcDbSpline
 70
8
 71
3
 72
8
 73
4
 74
0
 40
0
 40
0
 40
0
 40
0
 40
1
 40
1
 40
1
 40
1
 10
53.208465
 20
139.063551
 30
0.0
 10
53.208465
 20
139.063551
 30
0.0
 10
53.414122
 20
138.336396
 30
0.0
 10
54.081210
 20
136.176154
 30
0.0
  0
SPLINE
  5
146
100
AcDbEntity
  8
0
 62
7
100
AcDbSpline
 70
8
 71
3
 72
8
 73
4
 74
0
 40
0
 40
0
 40
0
 40
0
 40
1
 40
1
 40
1
 40
1
 10
54.081210
 20
136.176154
 30
0.0
 10
54.081210
 20
136.176154
 30
0.0
 10
54.592712
 20
134.764291
 30
0.0
 10
55.738963
 20
131.992953
 30
0.0
  0
SPLINE
  5
147
100
AcDbEntity
  8
0
 62
7
100
AcDbSpline
 70
8
 71
3
 72
8
 73
4
 74
0
 40
0
 40
0
 40
0
 40
0
 40
1
 40
1
 40
1
 40
1
 10
55.738963
 20
131.992953
 30
0.0
 10
55.738963
 20
131.992953
 30
0.0
 10
56.373725
 20
130.633466
 30
0.0
 10
57.757449
 20
127.963097
 30
0.0
  0
SPLINE
  5
148
100
AcDbEntity
  8
0
 62
7
100
AcDbSpline
 70
8
 71
3
 72
8
 73
4
 74
0
 40
0
 40
0
 40
0
 40
0
 40
1
 40
1
 40
1
 40
1
 10
57.757449
 20
127.963097
 30
0.0
 10
57.757449
 20
127.963097
 30
0.0
 10
58.507222
 20
126.650931
 30
0.0
 10
60.910745
 20
122.790416
 30
0.0
  0
SPLINE
  5
149
100
AcDbEntity
  8
0
 62
7
100
AcDbSpline
 70
8
 71
3
 72
8
 73
4
 74
0
 40
0
 40
0
 40
0
 40
0
 40
1
 40
1
 40
1
 40
1
 10
60.910745
 20
122.790416
 30
0.0
 10
60.910745
 20
122.790416
 30
0.0
 10
62.696684
 20
120.349982
 30
0.0
 10
64.628818
 20
118.015921
 30
0.0
  0
SPLINE
  5
14a
100
AcDbEntity
  8
0
 62
7
100
AcDbSpline
 70
8
 71
3
 72
8
 73
4
 74
0
 40
0
 40
0
 40
0
 40
0
 40
1
 40
1
 40
1
 40
1
 10
64.628818
 20
118.015921
 30
0.0
 10
64.628873
 20
118.015854
 30
0.0
 10
64.628928
 20
118.015788
 30
0.0
 10
64.628983
 20
118.015721
 30
0.0
  0
LINE
  5
14b
100
AcDbEntity
  8
0
 62
7
100
AcDbLine
 10
51.601417
 20
241.231566
 30
0.0
 11
51.601417
 21
151.040588
 31
0.0
  0
LINE
  5
14c
100
AcDbEntity
  8
0
 62
7
100
AcDbLine
 10
80.318430
 20
241.231566
 30
0.0
 11
51.601417
 21
241.231566
 31
0.0
  0
LINE
  5
14d
100
AcDbEntity
  8
0
 62
7
100
AcDbLine
 10
80.318430
 20
157.425378
 30
0.0
 11
80.318430
 21
241.231566
 31
0.0
  0
ENDSEC
  0
SECTION
  2
OBJECTS
  0
DICTIONARY
  5
C
330
0
100
AcDbDictionary
  3
ACAD_GROUP
350
D
  3
ACAD_MLINESTYLE
350
17
  0
DICTIONARY
  5
D
330
C
100
AcDbDictionary
  0
DICTIONARY
  5
1A
330
C
100
AcDbDictionary
  0
DICTIONARY
  5
17
330
C
100
AcDbDictionary
  3
STANDARD
350
18
  0
DICTIONARY
  5
19
330
C
100
AcDbDictionary
  0
ENDSEC
  0
EOF
