<?xml version="1.0" encoding="UTF-8" standalone="no"?>
<svg
   xmlns:dc="http://purl.org/dc/elements/1.1/"
   xmlns:cc="http://creativecommons.org/ns#"
   xmlns:rdf="http://www.w3.org/1999/02/22-rdf-syntax-ns#"
   xmlns:svg="http://www.w3.org/2000/svg"
   xmlns="http://www.w3.org/2000/svg"
   xmlns:sodipodi="http://sodipodi.sourceforge.net/DTD/sodipodi-0.dtd"
   xmlns:inkscape="http://www.inkscape.org/namespaces/inkscape"
   sodipodi:docname="Additional Tags Reverse.svg"
   inkscape:version="1.0 (4035a4fb49, 2020-05-01)"
   id="svg1983"
   version="1.1"
   viewBox="0 0 40 70"
   height="70mm"
   width="40mm">
  <defs
     id="defs1977" />
  <sodipodi:namedview
     inkscape:window-maximized="0"
     inkscape:window-y="77"
     inkscape:window-x="194"
     inkscape:window-height="967"
     inkscape:window-width="1274"
     showgrid="false"
     inkscape:document-rotation="0"
     inkscape:current-layer="layer1"
     inkscape:document-units="mm"
     inkscape:cy="313.94079"
     inkscape:cx="341.63183"
     inkscape:zoom="0.98994949"
     inkscape:pageshadow="2"
     inkscape:pageopacity="0.0"
     borderopacity="1.0"
     bordercolor="#666666"
     pagecolor="#ffffff"
     id="base" />
  <metadata
     id="metadata1980">
    <rdf:RDF>
      <cc:Work
         rdf:about="">
        <dc:format>image/svg+xml</dc:format>
        <dc:type
           rdf:resource="http://purl.org/dc/dcmitype/StillImage" />
        <dc:title></dc:title>
      </cc:Work>
    </rdf:RDF>
  </metadata>
  <g
     id="layer1"
     inkscape:groupmode="layer"
     inkscape:label="Layer 1">
    <g
       transform="translate(-64.666666,-85.682932)"
       id="g2631">
      <path
         d="m 94.593047,120.19643 -19.852752,0 -9.926376,-17.19299 9.926377,-17.192988 19.852753,10e-7 9.926371,17.192987 z"
         sodipodi:type="star"
         style="fill:none;stroke:#ff0000;stroke-width:0.25504;stroke-miterlimit:4;stroke-dasharray:none"
         id="path835"
         sodipodi:sides="6"
         sodipodi:cx="84.666672"
         sodipodi:cy="103.00344"
         sodipodi:r1="19.852753"
         sodipodi:r2="17.192989"
         sodipodi:arg1="1.0471976"
         sodipodi:arg2="1.5707963"
         inkscape:flatsided="true"
         inkscape:rounded="0"
         inkscape:randomized="0"
         inkscape:transform-center-x="3.5619047e-06"
         inkscape:transform-center-y="-1.4190476e-06" />
      <path
         style="fill:none;stroke:#ff0000;stroke-width:0.255039;stroke-miterlimit:4;stroke-dasharray:none"
         d="m 104.51942,137.38942 -9.926379,17.19299 H 74.740289 l -9.926376,-17.19299 9.926377,-17.19299"
         id="path1266"
         inkscape:connector-curvature="0" />
      <g
         aria-label="J&amp;l"
         id="text97"
         style="font-style:normal;font-variant:normal;font-weight:normal;font-stretch:normal;font-size:16.9333px;line-height:1.25;font-family:'Moon Flower Bold';-inkscape-font-specification:'Moon Flower Bold, ';letter-spacing:0px;word-spacing:0px;stroke-width:0.264583"
         transform="matrix(0.79999999,0,0,0.79999999,66.377155,85.255307)">
        <path
           inkscape:connector-curvature="0"
           d="m 17.95576,16.340475 q 0.239778,0 0.487825,0.148828 0,0.107487 -0.03307,0.512629 0.09922,1.223696 0.09922,5.820822 v 0.23151 q 0,0.32246 0.06615,2.116663 -0.132291,2.447391 -1.198891,2.447391 H 17.21163 q -1.066599,-0.264583 -1.066599,-0.644921 -0.165365,-0.08268 -0.198438,-1.694984 0.223242,-0.206705 0.413411,-0.206705 0.330729,0.09922 0.330729,0.396874 0,1.38906 0.355533,1.38906 0.173632,0.09922 0.264583,0.09922 h 0.03307 q 0.37207,0 0.487825,-1.728057 v -0.157096 q -0.06615,-1.736325 -0.06615,-2.08359 v -0.396874 q 0,-1.827275 -0.03307,-4.721149 -0.06614,-0.446484 -0.06614,-0.967381 v -0.23151 q 0,-0.115755 0.289387,-0.330729 z"
           style="font-style:normal;font-variant:normal;font-weight:normal;font-stretch:normal;font-size:16.9333px;font-family:'Moon Flower Bold';-inkscape-font-specification:'Moon Flower Bold, ';stroke-width:0.264583"
           id="path1541" />
        <path
           inkscape:connector-curvature="0"
           d="m 22.635569,18.010654 q 1.083135,0.148828 1.083135,0.959113 v 0.09922 q 0,0.429948 -1.058331,1.926494 v -0.04134 q 0.454752,0.934308 1.364255,2.116663 h -0.272851 q 0.173633,-1.62057 0.653189,-1.62057 h 0.09922 q 0.173632,0 0.355533,0.289387 l -0.223242,0.479557 q -0.223242,1.223695 -0.223242,1.438669 1.231964,1.628838 1.422133,1.959566 v 0.06615 q 0,0.132291 -0.272851,0.297655 -0.388606,0 -0.768944,-0.636652 -0.148828,-0.148828 -0.603579,-0.777212 -0.388606,1.347719 -1.504815,1.347719 -1.000454,0 -1.579229,-0.859894 -0.214973,-0.479557 -0.214973,-0.892967 0,-1.52962 0.934308,-3.166726 -0.934308,-1.355987 -0.934308,-1.827275 v -0.09922 q 0,-0.744139 1.223695,-0.983917 0.173633,-0.07441 0.520898,-0.07441 z m -1.000454,1.091404 q 0,0.421679 0.735871,1.355987 H 22.16428 q 0.810285,-1.198891 0.810285,-1.38906 v -0.0248 q -0.04961,-0.37207 -0.314192,-0.37207 -1.025258,0.09922 -1.025258,0.429947 z m 0.603579,2.629292 q -0.603579,1.240232 -0.603579,2.463927 0,0.917772 1.066599,1.058332 0.628384,0 0.92604,-1.521351 -0.686262,-0.83509 -1.38906,-2.000908 z"
           style="font-style:normal;font-variant:normal;font-weight:normal;font-stretch:normal;font-size:16.9333px;font-family:'Moon Flower Bold';-inkscape-font-specification:'Moon Flower Bold, ';stroke-width:0.264583"
           id="path1543" />
        <path
           inkscape:connector-curvature="0"
           d="m 27.476017,16.241258 h 0.03307 c 0.121267,0 0.234266,0.08544 0.338997,0.256315 0,0.248047 0.01102,0.37207 0.03307,0.37207 l -0.06615,-0.132292 c 0.15434,2.425343 0.137016,3.635256 0.137016,5.283386 0.06615,0.534678 0.09922,1.276061 0.09922,2.22415 v 2.711974 h 1.579228 c 0.126779,0 0.228754,0.07717 0.305924,0.23151 v 0.132291 c 0,0.198437 -0.256314,0.297656 -0.768943,0.297656 h -1.521352 c -0.115755,0 -0.228753,-0.08544 -0.338996,-0.256315 v -0.239778 c 0,-0.264583 0.0055,-0.396874 0.01654,-0.396874 l -0.01654,-0.223242 v -2.422587 c -0.08819,-2.899387 -0.08189,-4.484126 -0.170089,-6.407863 l -0.09922,-1.116209 c 0.06615,-0.209461 0.212219,-0.314192 0.438216,-0.314192 z"
           style="font-style:normal;font-variant:normal;font-weight:normal;font-stretch:normal;font-size:16.9333px;font-family:'Moon Flower Bold';-inkscape-font-specification:'Moon Flower Bold, ';stroke-width:0.264583"
           id="path1545"
           sodipodi:nodetypes="csccccscscssscscccccsc" />
      </g>
      <g
         transform="matrix(0.79999999,0,0,0.79999999,66.636642,119.51758)"
         style="font-style:normal;font-variant:normal;font-weight:normal;font-stretch:normal;font-size:16.9333px;line-height:1.25;font-family:'Moon Flower Bold';-inkscape-font-specification:'Moon Flower Bold, ';letter-spacing:0px;word-spacing:0px;stroke-width:0.264583"
         id="text97-81"
         aria-label="J&amp;l">
        <path
           inkscape:connector-curvature="0"
           id="path1541-47"
           style="font-style:normal;font-variant:normal;font-weight:normal;font-stretch:normal;font-size:16.9333px;font-family:'Moon Flower Bold';-inkscape-font-specification:'Moon Flower Bold, ';stroke-width:0.264583"
           d="m 17.95576,16.340475 q 0.239778,0 0.487825,0.148828 0,0.107487 -0.03307,0.512629 0.09922,1.223696 0.09922,5.820822 v 0.23151 q 0,0.32246 0.06615,2.116663 -0.132291,2.447391 -1.198891,2.447391 H 17.21163 q -1.066599,-0.264583 -1.066599,-0.644921 -0.165365,-0.08268 -0.198438,-1.694984 0.223242,-0.206705 0.413411,-0.206705 0.330729,0.09922 0.330729,0.396874 0,1.38906 0.355533,1.38906 0.173632,0.09922 0.264583,0.09922 h 0.03307 q 0.37207,0 0.487825,-1.728057 v -0.157096 q -0.06615,-1.736325 -0.06615,-2.08359 v -0.396874 q 0,-1.827275 -0.03307,-4.721149 -0.06614,-0.446484 -0.06614,-0.967381 v -0.23151 q 0,-0.115755 0.289387,-0.330729 z" />
        <path
           inkscape:connector-curvature="0"
           id="path1543-3"
           style="font-style:normal;font-variant:normal;font-weight:normal;font-stretch:normal;font-size:16.9333px;font-family:'Moon Flower Bold';-inkscape-font-specification:'Moon Flower Bold, ';stroke-width:0.264583"
           d="m 22.635569,18.010654 q 1.083135,0.148828 1.083135,0.959113 v 0.09922 q 0,0.429948 -1.058331,1.926494 v -0.04134 q 0.454752,0.934308 1.364255,2.116663 h -0.272851 q 0.173633,-1.62057 0.653189,-1.62057 h 0.09922 q 0.173632,0 0.355533,0.289387 l -0.223242,0.479557 q -0.223242,1.223695 -0.223242,1.438669 1.231964,1.628838 1.422133,1.959566 v 0.06615 q 0,0.132291 -0.272851,0.297655 -0.388606,0 -0.768944,-0.636652 -0.148828,-0.148828 -0.603579,-0.777212 -0.388606,1.347719 -1.504815,1.347719 -1.000454,0 -1.579229,-0.859894 -0.214973,-0.479557 -0.214973,-0.892967 0,-1.52962 0.934308,-3.166726 -0.934308,-1.355987 -0.934308,-1.827275 v -0.09922 q 0,-0.744139 1.223695,-0.983917 0.173633,-0.07441 0.520898,-0.07441 z m -1.000454,1.091404 q 0,0.421679 0.735871,1.355987 H 22.16428 q 0.810285,-1.198891 0.810285,-1.38906 v -0.0248 q -0.04961,-0.37207 -0.314192,-0.37207 -1.025258,0.09922 -1.025258,0.429947 z m 0.603579,2.629292 q -0.603579,1.240232 -0.603579,2.463927 0,0.917772 1.066599,1.058332 0.628384,0 0.92604,-1.521351 -0.686262,-0.83509 -1.38906,-2.000908 z" />
        <path
           inkscape:connector-curvature="0"
           sodipodi:nodetypes="csccccscscssscscccccsc"
           id="path1545-2"
           style="font-style:normal;font-variant:normal;font-weight:normal;font-stretch:normal;font-size:16.9333px;font-family:'Moon Flower Bold';-inkscape-font-specification:'Moon Flower Bold, ';stroke-width:0.264583"
           d="m 27.476017,16.241258 h 0.03307 c 0.121267,0 0.234266,0.08544 0.338997,0.256315 0,0.248047 0.01102,0.37207 0.03307,0.37207 l -0.06615,-0.132292 c 0.15434,2.425343 0.137016,3.635256 0.137016,5.283386 0.06615,0.534678 0.09922,1.276061 0.09922,2.22415 v 2.711974 h 1.579228 c 0.126779,0 0.228754,0.07717 0.305924,0.23151 v 0.132291 c 0,0.198437 -0.256314,0.297656 -0.768943,0.297656 h -1.521352 c -0.115755,0 -0.228753,-0.08544 -0.338996,-0.256315 v -0.239778 c 0,-0.264583 0.0055,-0.396874 0.01654,-0.396874 l -0.01654,-0.223242 v -2.422587 c -0.08819,-2.899387 -0.08189,-4.484126 -0.170089,-6.407863 l -0.09922,-1.116209 c 0.06615,-0.209461 0.212219,-0.314192 0.438216,-0.314192 z" />
      </g>
      <g
         transform="translate(64.66663,-156.16718)"
         aria-label="3.10.20"
         id="text1715-8-9"
         style="font-size:7.05556px;line-height:1.25;font-family:'Brain Flower';-inkscape-font-specification:'Brain Flower';letter-spacing:0px;word-spacing:0px;stroke-width:0.264583">
        <path
           d="m 13.547104,267.91924 h 0.0689 q 0.09991,0 0.09991,-0.0413 l -0.08268,0.0413 q 0.757922,0 0.957737,0.46509 0.02067,0.031 0.03445,0.16881 -0.103353,0.93362 -0.354845,1.22989 -0.03101,0.0586 -0.03101,0.0241 0.327285,0 0.589112,0.7407 0.09991,0.29283 0.09991,0.5271 0,1.14721 -0.575331,1.55029 -0.199816,0.19637 -0.444418,0.22393 -0.02756,0.0172 -0.08613,0.0172 h -0.01378 q -0.07235,0 -0.141249,-0.1068 v -0.0448 q 0,-0.0999 0.368626,-0.19637 0.430637,-0.37207 0.430637,-0.51676 0.151584,-0.38241 0.151584,-0.91295 v -0.0138 q 0,-0.39963 -0.289388,-0.87506 -0.127469,-0.13091 -0.261828,-0.13091 -0.02756,0.0138 -0.08613,0.0138 -0.117133,-0.0517 -0.134359,-0.11713 v -0.0689 q 0.33073,-0.41685 0.440973,-1.08865 0.02756,-0.22737 0.02756,-0.25493 0,-0.19638 -0.354846,-0.33418 -0.137803,-0.0241 -0.220486,-0.0241 -0.0034,0 -0.223931,0.0172 l -0.08268,-0.11024 v -0.0586 q 0,-0.0551 0.113689,-0.12402 z"
           style="font-style:normal;font-variant:normal;font-weight:normal;font-stretch:normal;font-size:7.05556px;font-family:'Moon Flower Bold';-inkscape-font-specification:'Moon Flower Bold, ';stroke-width:0.264583"
           id="path8607"
           inkscape:connector-curvature="0" />
        <path
           d="m 15.88288,272.46332 h 0.07579 q 0.07235,0 0.141249,0.1068 v 0.093 q -0.124023,0.15847 -0.244602,0.15847 -0.117133,-0.0517 -0.134359,-0.11713 v -0.062 q 0.07924,-0.14125 0.16192,-0.17915 z"
           style="font-style:normal;font-variant:normal;font-weight:normal;font-stretch:normal;font-size:7.05556px;font-family:'Moon Flower Bold';-inkscape-font-specification:'Moon Flower Bold, ';stroke-width:0.264583"
           id="path8609"
           inkscape:connector-curvature="0" />
        <path
           d="m 17.47107,267.82622 h 0.07579 q 0.368626,0 0.471978,2.40812 0.110244,1.43316 0.110244,2.12563 v 0.45475 q -0.06201,0.12402 -0.282498,0.12402 0,-0.0517 -0.04479,-0.0723 l 0.01723,-0.20671 v -0.32728 q -0.148139,-3.81373 -0.341065,-4.21336 l 0.01034,0.0517 q -0.106798,0.0655 -0.206705,0.30661 l -0.124024,0.0241 h -0.02412 q -0.07235,0 -0.144694,-0.11369 0.04823,-0.23082 0.482314,-0.56155 z"
           style="font-style:normal;font-variant:normal;font-weight:normal;font-stretch:normal;font-size:7.05556px;font-family:'Moon Flower Bold';-inkscape-font-specification:'Moon Flower Bold, ';stroke-width:0.264583"
           id="path8611"
           inkscape:connector-curvature="0" />
        <path
           d="m 19.76206,268.21552 q 0.33762,0 0.647678,0.42719 0.213596,0.47198 0.213596,1.15755 0.0379,0.17915 0.0689,1.31947 -0.01378,0.31695 -0.01378,0.73725 0,0.66835 -0.499539,0.89917 l -0.16192,0.0172 h -0.03101 q -0.227376,0 -0.5271,-0.34451 -0.440972,-0.596 -0.440972,-3.00757 0,-0.4203 0.3514,-1.10243 0.234267,-0.0861 0.392741,-0.10335 z m -0.434082,1.21612 v 0.18948 q 0,1.50895 0.258382,2.43912 0.186035,0.38241 0.413412,0.45131 h 0.02756 q 0.268717,0 0.341064,-0.60978 v -0.0103 q 0,-0.3514 0.01378,-0.74758 0,-1.61231 -0.217042,-2.31511 -0.199815,-0.33762 -0.458197,-0.33762 0,-0.0138 0.06546,-0.0138 -0.251492,0.0999 -0.251492,0.21704 -0.192925,0.47198 -0.192925,0.73726 z"
           style="font-style:normal;font-variant:normal;font-weight:normal;font-stretch:normal;font-size:7.05556px;font-family:'Moon Flower Bold';-inkscape-font-specification:'Moon Flower Bold, ';stroke-width:0.264583"
           id="path8613"
           inkscape:connector-curvature="0" />
        <path
           d="m 21.753327,272.46332 h 0.07579 q 0.07235,0 0.141249,0.1068 v 0.093 q -0.124023,0.15847 -0.244602,0.15847 -0.117133,-0.0517 -0.134359,-0.11713 v -0.062 q 0.07924,-0.14125 0.16192,-0.17915 z"
           style="font-style:normal;font-variant:normal;font-weight:normal;font-stretch:normal;font-size:7.05556px;font-family:'Moon Flower Bold';-inkscape-font-specification:'Moon Flower Bold, ';stroke-width:0.264583"
           id="path8615"
           inkscape:connector-curvature="0" />
        <path
           d="m 23.813495,267.99158 q 0.499539,0 0.70969,0.53744 l 0.01378,0.1068 q 0,0.4892 -0.389296,1.34703 -0.299723,0.97152 -0.492649,1.94648 -0.04134,0.24116 -0.158474,0.70625 h -0.09991 q 0.675239,-0.0965 0.819933,-0.0965 h 0.05512 q 0.07235,0 0.141249,0.1068 v 0.0586 q 0,0.0586 -0.103353,0.11024 h -0.09302 q -0.199816,0 -0.964627,0.13436 l -0.08613,-0.11713 v -0.0586 q 0,-0.0723 0.261828,-1.26435 0.344509,-1.55719 0.664903,-2.20142 0.134359,-0.41686 0.134359,-0.65457 0,-0.24804 -0.316949,-0.37207 -0.02756,0 -0.08957,-0.0103 -0.564996,0.12402 -0.564996,0.24115 -0.07924,0.0827 -0.137804,0.24116 l -0.07579,0.0379 q -0.158475,0 -0.206706,-0.11369 v -0.0792 q 0.19637,-0.38585 0.496094,-0.49265 0.327284,-0.0999 0.482314,-0.11369 z"
           style="font-style:normal;font-variant:normal;font-weight:normal;font-stretch:normal;font-size:7.05556px;font-family:'Moon Flower Bold';-inkscape-font-specification:'Moon Flower Bold, ';stroke-width:0.264583"
           id="path8617"
           inkscape:connector-curvature="0" />
        <path
           d="m 25.963236,268.21552 q 0.33762,0 0.647679,0.42719 0.213596,0.47198 0.213596,1.15755 0.0379,0.17915 0.0689,1.31947 -0.01378,0.31695 -0.01378,0.73725 0,0.66835 -0.499539,0.89917 l -0.16192,0.0172 h -0.03101 q -0.227377,0 -0.5271,-0.34451 -0.440973,-0.596 -0.440973,-3.00757 0,-0.4203 0.3514,-1.10243 0.234267,-0.0861 0.392741,-0.10335 z m -0.434082,1.21612 v 0.18948 q 0,1.50895 0.258382,2.43912 0.186036,0.38241 0.413412,0.45131 h 0.02756 q 0.268717,0 0.341064,-0.60978 v -0.0103 q 0,-0.3514 0.01378,-0.74758 0,-1.61231 -0.217041,-2.31511 -0.199816,-0.33762 -0.458198,-0.33762 0,-0.0138 0.06546,-0.0138 -0.251493,0.0999 -0.251493,0.21704 -0.192925,0.47198 -0.192925,0.73726 z"
           style="font-style:normal;font-variant:normal;font-weight:normal;font-stretch:normal;font-size:7.05556px;font-family:'Moon Flower Bold';-inkscape-font-specification:'Moon Flower Bold, ';stroke-width:0.264583"
           id="path8619"
           inkscape:connector-curvature="0" />
      </g>
      <g
         transform="translate(64.66663,-156.16718)"
         aria-label="3.10.20"
         id="text1715-8-9-9"
         style="font-size:7.05556px;line-height:1.25;font-family:'Brain Flower';-inkscape-font-specification:'Brain Flower';letter-spacing:0px;word-spacing:0px;stroke-width:0.264583">
        <path
           d="m 13.754577,302.40599 h 0.0689 q 0.09991,0 0.09991,-0.0413 l -0.08268,0.0413 q 0.757921,0 0.957737,0.46509 0.02067,0.031 0.03445,0.16881 -0.103353,0.93362 -0.354845,1.2299 -0.03101,0.0586 -0.03101,0.0241 0.327284,0 0.589112,0.74069 0.09991,0.29284 0.09991,0.5271 0,1.14722 -0.575332,1.5503 -0.199815,0.19637 -0.444417,0.22393 -0.02756,0.0172 -0.08613,0.0172 h -0.01378 q -0.07235,0 -0.141249,-0.1068 v -0.0448 q 0,-0.0999 0.368625,-0.19637 0.430638,-0.37207 0.430638,-0.51677 0.151584,-0.3824 0.151584,-0.91295 v -0.0138 q 0,-0.39963 -0.289388,-0.87505 -0.127469,-0.13092 -0.261828,-0.13092 -0.02756,0.0138 -0.08613,0.0138 -0.117134,-0.0517 -0.134359,-0.11713 v -0.0689 q 0.330729,-0.41686 0.440972,-1.08865 0.02756,-0.22738 0.02756,-0.25494 0,-0.19637 -0.354845,-0.33417 -0.137804,-0.0241 -0.220486,-0.0241 -0.0034,0 -0.223931,0.0172 l -0.08268,-0.11025 v -0.0586 q 0,-0.0551 0.113688,-0.12403 z"
           style="font-style:normal;font-variant:normal;font-weight:normal;font-stretch:normal;font-size:7.05556px;font-family:'Moon Flower Bold';-inkscape-font-specification:'Moon Flower Bold, ';stroke-width:0.264583"
           id="path8787"
           inkscape:connector-curvature="0" />
        <path
           d="m 16.090354,306.95008 h 0.07579 q 0.07235,0 0.141249,0.10679 v 0.093 q -0.124024,0.15848 -0.244602,0.15848 -0.117133,-0.0517 -0.134359,-0.11714 v -0.062 q 0.07924,-0.14125 0.16192,-0.17914 z"
           style="font-style:normal;font-variant:normal;font-weight:normal;font-stretch:normal;font-size:7.05556px;font-family:'Moon Flower Bold';-inkscape-font-specification:'Moon Flower Bold, ';stroke-width:0.264583"
           id="path8789"
           inkscape:connector-curvature="0" />
        <path
           d="m 17.678544,302.31297 h 0.07579 q 0.368625,0 0.471978,2.40813 0.110243,1.43316 0.110243,2.12562 v 0.45476 q -0.06201,0.12402 -0.282498,0.12402 0,-0.0517 -0.04479,-0.0723 l 0.01723,-0.2067 v -0.32729 q -0.14814,-3.81372 -0.341065,-4.21335 l 0.01033,0.0517 q -0.106798,0.0655 -0.206706,0.30662 l -0.124023,0.0241 h -0.02412 q -0.07235,0 -0.144694,-0.11368 0.04823,-0.23083 0.482314,-0.56156 z"
           style="font-style:normal;font-variant:normal;font-weight:normal;font-stretch:normal;font-size:7.05556px;font-family:'Moon Flower Bold';-inkscape-font-specification:'Moon Flower Bold, ';stroke-width:0.264583"
           id="path8791"
           inkscape:connector-curvature="0" />
        <path
           d="m 19.969534,302.70227 q 0.337619,0 0.647678,0.42719 0.213596,0.47198 0.213596,1.15756 0.0379,0.17914 0.0689,1.31947 -0.01378,0.31695 -0.01378,0.73725 0,0.66835 -0.499539,0.89917 l -0.16192,0.0172 h -0.03101 q -0.227376,0 -0.5271,-0.34451 -0.440972,-0.59601 -0.440972,-3.00757 0,-0.42031 0.3514,-1.10244 0.234266,-0.0861 0.392741,-0.10335 z m -0.434082,1.21612 v 0.18948 q 0,1.50895 0.258382,2.43913 0.186035,0.38241 0.413412,0.45131 h 0.02756 q 0.268718,0 0.341065,-0.60978 v -0.0103 q 0,-0.3514 0.01378,-0.74759 0,-1.6123 -0.217041,-2.3151 -0.199815,-0.33762 -0.458198,-0.33762 0,-0.0138 0.06546,-0.0138 -0.251492,0.0999 -0.251492,0.21704 -0.192925,0.47198 -0.192925,0.73725 z"
           style="font-style:normal;font-variant:normal;font-weight:normal;font-stretch:normal;font-size:7.05556px;font-family:'Moon Flower Bold';-inkscape-font-specification:'Moon Flower Bold, ';stroke-width:0.264583"
           id="path8793"
           inkscape:connector-curvature="0" />
        <path
           d="m 21.960801,306.95008 h 0.07579 q 0.07235,0 0.141249,0.10679 v 0.093 q -0.124024,0.15848 -0.244602,0.15848 -0.117133,-0.0517 -0.134359,-0.11714 v -0.062 q 0.07924,-0.14125 0.16192,-0.17914 z"
           style="font-style:normal;font-variant:normal;font-weight:normal;font-stretch:normal;font-size:7.05556px;font-family:'Moon Flower Bold';-inkscape-font-specification:'Moon Flower Bold, ';stroke-width:0.264583"
           id="path8795"
           inkscape:connector-curvature="0" />
        <path
           d="m 24.020968,302.47834 q 0.499539,0 0.70969,0.53743 l 0.01378,0.1068 q 0,0.48921 -0.389296,1.34704 -0.299724,0.97151 -0.492649,1.94648 -0.04134,0.24115 -0.158475,0.70624 h -0.09991 q 0.67524,-0.0965 0.819934,-0.0965 h 0.05512 q 0.07235,0 0.141249,0.1068 v 0.0586 q 0,0.0586 -0.103353,0.11025 h -0.09302 q -0.199816,0 -0.964628,0.13436 l -0.08613,-0.11714 v -0.0586 q 0,-0.0723 0.261827,-1.26436 0.34451,-1.55718 0.664904,-2.20141 0.134359,-0.41686 0.134359,-0.65457 0,-0.24805 -0.316949,-0.37207 -0.02756,0 -0.08957,-0.0103 -0.564996,0.12403 -0.564996,0.24116 -0.07924,0.0827 -0.137803,0.24116 l -0.07579,0.0379 q -0.158474,0 -0.206705,-0.11369 v -0.0792 q 0.19637,-0.38585 0.496094,-0.49265 0.327284,-0.0999 0.482313,-0.11369 z"
           style="font-style:normal;font-variant:normal;font-weight:normal;font-stretch:normal;font-size:7.05556px;font-family:'Moon Flower Bold';-inkscape-font-specification:'Moon Flower Bold, ';stroke-width:0.264583"
           id="path8797"
           inkscape:connector-curvature="0" />
        <path
           d="m 26.17071,302.70227 q 0.33762,0 0.647678,0.42719 0.213596,0.47198 0.213596,1.15756 0.0379,0.17914 0.0689,1.31947 -0.01378,0.31695 -0.01378,0.73725 0,0.66835 -0.499539,0.89917 l -0.16192,0.0172 h -0.03101 q -0.227376,0 -0.5271,-0.34451 -0.440972,-0.59601 -0.440972,-3.00757 0,-0.42031 0.3514,-1.10244 0.234266,-0.0861 0.392741,-0.10335 z m -0.434082,1.21612 v 0.18948 q 0,1.50895 0.258382,2.43913 0.186035,0.38241 0.413412,0.45131 h 0.02756 q 0.268717,0 0.341064,-0.60978 v -0.0103 q 0,-0.3514 0.01378,-0.74759 0,-1.6123 -0.217042,-2.3151 -0.199815,-0.33762 -0.458198,-0.33762 0,-0.0138 0.06546,-0.0138 -0.251492,0.0999 -0.251492,0.21704 -0.192925,0.47198 -0.192925,0.73725 z"
           style="font-style:normal;font-variant:normal;font-weight:normal;font-stretch:normal;font-size:7.05556px;font-family:'Moon Flower Bold';-inkscape-font-specification:'Moon Flower Bold, ';stroke-width:0.264583"
           id="path8799"
           inkscape:connector-curvature="0" />
      </g>
      <path
         style="fill:none;stroke:#ff0000;stroke-width:0.264583px;stroke-linecap:butt;stroke-linejoin:miter;stroke-opacity:1"
         d="m 94.593046,120.19643 9.926374,17.19299"
         id="path2602" />
    </g>
  </g>
</svg>
