<?xml version="1.0" encoding="UTF-8" standalone="no"?>
<!-- Created with Inkscape (http://www.inkscape.org/) -->

<svg
   xmlns:dc="http://purl.org/dc/elements/1.1/"
   xmlns:cc="http://creativecommons.org/ns#"
   xmlns:rdf="http://www.w3.org/1999/02/22-rdf-syntax-ns#"
   xmlns:svg="http://www.w3.org/2000/svg"
   xmlns="http://www.w3.org/2000/svg"
   xmlns:sodipodi="http://sodipodi.sourceforge.net/DTD/sodipodi-0.dtd"
   xmlns:inkscape="http://www.inkscape.org/namespaces/inkscape"
   width="210mm"
   height="297mm"
   viewBox="0 0 210 297"
   version="1.1"
   id="svg8"
   inkscape:version="0.92.2 5c3e80d, 2017-08-06"
   sodipodi:docname="Tahlia.svg">
  <defs
     id="defs2" />
  <sodipodi:namedview
     id="base"
     pagecolor="#ffffff"
     bordercolor="#666666"
     borderopacity="1.0"
     inkscape:pageopacity="0.0"
     inkscape:pageshadow="2"
     inkscape:zoom="0.49497475"
     inkscape:cx="610.35409"
     inkscape:cy="335.87504"
     inkscape:document-units="mm"
     inkscape:current-layer="layer1"
     showgrid="false"
     inkscape:window-width="1280"
     inkscape:window-height="755"
     inkscape:window-x="0"
     inkscape:window-y="1"
     inkscape:window-maximized="1" />
  <metadata
     id="metadata5">
    <rdf:RDF>
      <cc:Work
         rdf:about="">
        <dc:format>image/svg+xml</dc:format>
        <dc:type
           rdf:resource="http://purl.org/dc/dcmitype/StillImage" />
        <dc:title />
      </cc:Work>
    </rdf:RDF>
  </metadata>
  <g
     inkscape:label="Layer 1"
     inkscape:groupmode="layer"
     id="layer1">
    <path
       style="fill:none;stroke:#ff0000;stroke-width:0.33763823"
       d="m 99.80557,53.249374 c -28.33347,0.01072 -54.230987,16.02283 -66.902377,41.364918 -0.02294,0.004 -0.04578,0.008 -0.06873,0.01241 -0.988611,0.174461 -1.483114,0.988907 -1.483114,2.442744 0,0.330761 0.01672,0.63082 0.04857,0.902788 -0.464116,0.979011 -0.906916,1.967987 -1.328085,2.966226 -5.783857,10.81834 -8.819356,22.89273 -8.839253,35.16013 0.02442,40.11098 31.670639,73.06918 71.747557,74.72205 v 63.01046 l 7.112292,14.56619 7.60825,-14.29893 v -64.23218 c 2.08564,-0.30871 4.15731,-0.70542 6.20944,-1.18908 37.41602,-4.68309 65.50243,-36.47411 65.5376,-74.18204 C 179.44745,116.8507 173.2124,99.773945 161.84364,86.280433 147.94295,65.639576 124.69079,53.259378 99.80557,53.249374 Z m 0,3.093352 c 13.81434,0.02437 27.32785,4.036851 38.917,11.555367 -10.55545,-5.408771 -22.24539,-8.231049 -34.10593,-8.234124 -6.051993,0.03082 -12.077902,0.795703 -17.945669,2.277899 C 71.951724,63.800748 58.117222,69.993025 46.925078,79.731996 60.490228,64.86245 79.678086,56.375577 99.80557,56.342726 Z m 13.16199,6.953065 c 18.19947,2.146459 34.88748,11.176444 46.64004,25.237217 7.77009,11.727062 11.92078,25.479832 11.93571,39.547462 -0.0258,3.14693 -0.2587,6.28875 -0.69712,9.40511 0.0206,-0.46218 0.037,-0.92453 0.0491,-1.387 -0.0438,-34.7808 -24.04586,-64.946252 -57.92772,-72.802789 z m -16.903365,1.065051 c 34.865785,0.0031 64.680885,25.074062 70.666485,59.422208 -0.87857,2.7289 -1.86572,5.34889 -2.96364,7.85844 -1.66707,3.77997 -2.94632,5.66994 -3.83801,5.66994 -0.48463,0 -0.75629,-0.59109 -0.81442,-1.77354 -0.0388,-1.20184 -0.0584,-2.08368 -0.0584,-2.64583 -2e-5,-3.19844 0.24247,-7.17254 0.72708,-11.92175 0.21323,-2.09353 0.36816,-3.45981 0.46509,-4.0995 0.0581,-0.42645 0.0873,-0.81431 0.0873,-1.16323 0,-0.79477 -0.26157,-1.36674 -0.78496,-1.71566 -0.50399,-0.34892 -1.36674,-0.52348 -2.58796,-0.52348 -1.7446,0 -2.94639,0.43614 -3.60546,1.30845 -0.27138,0.3683 -0.47512,0.83362 -0.61082,1.39578 -1.08553,-1.41507 -2.3839,-2.12236 -3.89588,-2.12236 -1.58953,0 -2.97544,0.4457 -4.15789,1.33739 -1.16307,0.8723 -2.14201,2.03536 -2.93677,3.48919 -0.75217,1.35756 -1.35529,2.85585 -1.81229,4.4912 -0.81213,2.67249 -1.84372,5.42945 -3.10162,8.2734 -1.66707,3.77997 -2.9564,5.66994 -3.86747,5.66994 -0.56215,0 -0.84336,-1.53129 -0.84336,-4.59404 0,-1.86091 0.0775,-3.92543 0.23255,-6.19342 0.17446,-2.28737 0.34902,-4.32271 0.52348,-6.10609 0.19384,-1.80276 0.32967,-2.98492 0.40721,-3.54707 0.0581,-0.42645 0.0873,-0.81431 0.0873,-1.16323 0,-0.79477 -0.25203,-1.36674 -0.75602,-1.71566 -0.504,-0.34892 -1.37629,-0.52348 -2.6169,-0.52348 -1.7446,0 -2.93684,0.43614 -3.57652,1.30845 -0.67627,0.91671 -1.08723,3.5917 -1.2392,7.98038 -0.0136,0.0342 -0.0285,0.0667 -0.0403,0.10336 -0.79477,2.69444 -1.88991,5.62118 -3.28559,8.78086 -1.64768,3.77997 -2.92694,5.66994 -3.83801,5.66994 -0.48461,0 -0.73665,-0.71684 -0.75602,-2.15129 v -2.44275 c 0,-4.69104 0.38785,-11.41734 1.16323,-20.17913 0.23262,-2.69444 0.52338,-5.37923 0.8723,-8.05429 0.13569,-1.02737 0.20309,-2.00631 0.20309,-2.93677 0,-0.69784 -0.17405,-1.2019 -0.52297,-1.51205 -0.34892,-0.31015 -0.78506,-0.50382 -1.30844,-0.581362 -0.52339,-0.0775 -1.06618,-0.116271 -1.62833,-0.116271 -2.67506,0 -4.10021,1.492553 -4.27467,4.477763 l -0.6103,8.83925 c -0.25949,3.86637 -0.42992,7.31468 -0.51573,10.36475 -0.52241,1.70048 -1.27804,3.81258 -2.27583,6.35413 -0.54277,1.35691 -1.13385,2.68498 -1.77354,3.98373 -1.51199,3.02399 -2.71378,4.53616 -3.60546,4.53616 -0.44585,0 -0.66869,-1.01767 -0.66869,-3.05304 0,-1.68645 0.0483,-3.57642 0.14521,-5.66994 0.1163,-2.40368 0.17466,-4.85605 0.17466,-7.35666 0,-4.78796 -1.49307,-7.18199 -4.478278,-7.18199 -2.481212,0 -4.690602,1.74459 -6.62905,5.23379 -0.911072,1.6283 -1.783364,3.6732 -2.616896,6.13503 0.368305,-6.53257 1.017746,-13.81121 1.948201,-21.83639 0.116305,-1.00801 0.174149,-1.88028 0.174149,-2.6169 0,-0.69784 -0.174559,-1.2019 -0.523481,-1.51205 -0.329536,-0.31015 -0.765681,-0.50382 -1.308447,-0.581362 -0.52338,-0.0775 -1.066175,-0.116271 -1.628325,-0.116271 -0.639688,0 -1.269505,0.0483 -1.889808,0.145212 -1.415068,0.251989 -2.171157,1.065931 -2.268077,2.442231 -0.588301,7.50529 -0.902557,14.47126 -0.949814,20.91086 -0.0029,0.009 -0.007,0.016 -0.0098,0.0248 -0.949838,3.06275 -2.035424,5.98948 -3.256648,8.78085 -1.667065,3.77997 -2.94632,5.66994 -3.838009,5.66994 -0.48461,0 -0.755748,-0.59108 -0.813903,-1.77353 -0.03877,-1.20184 -0.0584,-2.08369 -0.0584,-2.64584 0,-3.19844 0.242475,-7.17254 0.727088,-11.92175 0.213228,-2.09352 0.368165,-3.4598 0.465087,-4.09949 0.05815,-0.42645 0.08733,-0.81432 0.08733,-1.16324 0,-0.79477 -0.261586,-1.36673 -0.784966,-1.71565 -0.503997,-0.34892 -1.366731,-0.52349 -2.587953,-0.52349 -1.744604,0 -2.946395,0.43614 -3.605466,1.30845 -0.271383,0.3683 -0.475123,0.83362 -0.610815,1.39578 -1.08553,-1.41507 -2.383896,-2.12235 -3.895886,-2.12235 -1.589527,0 -2.975951,0.4457 -4.158403,1.33739 -1.163072,0.8723 -2.142009,2.03536 -2.936772,3.48919 -0.794763,1.43446 -1.42458,3.0241 -1.889808,4.7687 -0.484611,1.72522 -0.833736,3.47936 -1.046964,5.26273 -0.21323,1.764 -0.31936,3.38281 -0.31936,4.85603 0,1.08552 0.154935,2.15149 0.465087,3.19826 0.290767,1.04676 0.79483,1.90949 1.512054,2.58795 0.717228,0.65907 1.724827,0.98857 3.023587,0.98857 2.345523,0 4.342133,-1.49254 5.989815,-4.47776 0.949841,-1.7446 1.822132,-3.96407 2.616896,-6.65851 0.484613,7.92825 2.665338,11.8923 6.542235,11.8923 2.900754,0 5.710648,-3.58116 8.429461,-10.72648 0.0013,0.0995 0.0019,0.15737 0.0031,0.2589 0.05815,2.98521 0.435938,5.84404 1.133779,8.57726 0.0737,0.2818 0.175212,0.53052 0.301273,0.7493 -2.848287,0.2414 -4.786498,1.16566 -5.807398,2.77761 -3.854939,5.9088 -7.709725,11.02778 -11.564667,15.35669 -0.347578,0.41077 -0.521414,0.78983 -0.521414,1.1374 0.0316,0.50556 0.316013,0.99519 0.853178,1.46916 0.568759,0.47397 1.105701,0.71106 1.61127,0.71106 1.358709,0 4.455395,-2.85958 9.289872,-8.5788 -0.473966,7.36231 -0.711067,14.85124 -0.711067,22.46633 0,1.89587 0.03189,5.07123 0.09508,9.52655 0.06123,4.2858 0.643247,8.17007 1.74253,11.6551 -13.334992,-4.06647 -25.196173,-11.93035 -34.133316,-22.63014 -7.771127,-11.72762 -11.922376,-25.48138 -11.937256,-39.55004 0.04181,-13.00282 3.616915,-25.74977 10.343038,-36.877854 0.08899,-0.01849 0.164545,-0.03514 0.254765,-0.05374 -0.193847,0.387691 -0.310049,0.862578 -0.348816,1.42472 -0.639689,9.382094 -0.959631,19.016544 -0.959631,28.902624 0,1.70584 0.01963,4.56519 0.05839,8.57777 0.03877,3.99321 0.416554,7.61768 1.133782,10.87427 0.329536,1.45384 1.173162,2.18075 2.530078,2.18075 0.659072,0 1.211418,-0.24196 1.657262,-0.72657 0.445845,-0.46523 0.668692,-1.40543 0.668692,-2.8205 0,-6.16426 0.222851,-13.44343 0.668693,-21.83691 0.445846,-8.39348 0.998193,-15.9146 1.657265,-22.56348 0.116308,-1.16307 0.174665,-2.180742 0.174665,-3.053041 0,-1.066152 -0.349123,-1.793058 -1.046965,-2.180746 3.663667,-0.678461 6.997893,-1.221256 10.002491,-1.628325 0.775377,-0.0969 1.27944,-0.2906 1.512052,-0.581362 0.232613,-0.290769 0.348816,-0.610711 0.348816,-0.95963 0,-1.02738 -0.474877,-1.608905 -1.424718,-1.744596 -0.581533,-0.0775 -1.250085,-0.116271 -2.006079,-0.116271 -1.647682,0 -3.70265,0.145377 -6.164482,0.436149 -1.753388,0.200229 -3.514347,0.421392 -5.281332,0.65939 9.825167,-13.544786 24.076107,-23.22888 40.286948,-27.376623 3.022946,-0.417179 6.06943,-0.641048 9.120888,-0.670242 z m -34.290413,8.821682 c -7.615279,5.348949 -14.166016,12.071434 -19.316133,19.822564 -1.361586,0.20514 -2.727865,0.423315 -4.097425,0.650605 6.213443,-8.454469 14.205778,-15.443088 23.413558,-20.473169 z M 39.133305,98.506562 c -6.094312,11.018598 -9.309659,23.396888 -9.348268,35.988498 0.0087,4.80631 0.480459,9.60061 1.4087,14.31644 -2.051744,-6.71995 -3.105132,-13.70487 -3.126424,-20.73103 0.01985,-9.11048 1.774876,-18.13379 5.17126,-26.58753 0.368777,-0.61472 0.746747,-1.22389 1.133782,-1.827279 0.557985,-0.110968 1.211006,-0.265731 1.98024,-0.473871 0.764699,-0.20692 1.702863,-0.43656 2.78071,-0.685228 z m 91.689495,7.256918 c -0.65908,0 -1.26978,0.087 -1.83193,0.26148 -0.54276,0.15508 -0.97891,0.48458 -1.30845,0.98857 -0.31015,0.48462 -0.46509,1.23115 -0.46509,2.23914 0,0.79477 0.14538,1.37629 0.43615,1.7446 0.29077,0.36831 0.659,0.60071 1.10484,0.69763 0.46523,0.0775 0.94011,0.11627 1.42472,0.11627 2.40368,0 3.60547,-1.16305 3.60547,-3.48919 0,-0.79476 -0.14538,-1.3763 -0.43615,-1.7446 -0.29077,-0.36831 -0.66856,-0.59115 -1.13378,-0.66869 -0.44584,-0.0969 -0.91117,-0.14521 -1.39578,-0.14521 z m 42.40516,8.00106 c 2.0517,6.71979 3.10508,13.70453 3.12642,20.73052 -0.0295,26.27945 -14.42571,50.43941 -37.5238,62.9729 12.1857,-8.48141 21.57307,-20.39596 26.96786,-34.22789 5.78341,-10.81827 8.81856,-22.89246 8.83822,-35.1596 -0.009,-4.80614 -0.48049,-9.60026 -1.4087,-14.31593 z m -107.129894,4.18218 c 0.348922,0 0.678418,0.10613 0.988571,0.31936 0.310152,0.19384 0.533,0.40714 0.668692,0.63975 -0.03877,0.62031 -0.300355,1.78336 -0.784966,3.48919 -0.465225,1.70584 -1.046755,3.55707 -1.744596,5.55367 -0.678458,1.97722 -1.376186,3.70269 -2.093413,5.17591 -0.717227,1.47322 -1.327933,2.20969 -1.831927,2.20969 -0.581533,0 -0.8723,-0.62027 -0.8723,-1.86087 0,-3.70244 0.484434,-7.12369 1.453658,-10.26397 1.08553,-3.50859 2.491063,-5.26273 4.216281,-5.26273 z m 84.555044,0 c 0.34892,0 0.67842,0.10613 0.98857,0.31936 0.31015,0.19384 0.533,0.40714 0.66869,0.63975 -0.0388,0.62031 -0.30035,1.78336 -0.78496,3.48919 -0.46523,1.70584 -1.04675,3.55707 -1.7446,5.55367 -0.67845,1.97722 -1.37618,3.70269 -2.09341,5.17591 -0.71723,1.47322 -1.32794,2.20969 -1.83193,2.20969 -0.58154,0 -0.8723,-0.62027 -0.8723,-1.86087 0,-3.70244 0.48495,-7.12369 1.45418,-10.26397 1.08553,-3.50859 2.49054,-5.26273 4.21576,-5.26273 z m -55.361993,2.35489 c 0.387691,0 0.581358,0.7752 0.581358,2.32596 0,1.2406 -0.03874,2.43284 -0.116271,3.57652 -0.07754,1.12431 -0.116271,2.43274 -0.116271,3.92535 0,3.27597 0.446214,5.97083 1.337902,8.08374 1.046763,2.44245 2.635888,3.66334 4.768185,3.66334 2.75259,0 5.24371,-2.5394 7.47293,-7.61814 0.50095,-1.15062 0.98735,-2.34424 1.45986,-3.57704 0.063,1.07732 0.1576,2.06704 0.28473,2.96674 0.44503,3.08005 1.32967,5.22793 2.65204,6.44716 -4.87221,0.0779 -8.60575,1.68403 -11.19415,4.82709 -2.27505,2.81221 -3.412711,6.19332 -3.412711,10.14305 0,4.86608 2.259381,9.55816 6.777881,14.07666 l 1.5167,1.46968 c -2.907,2.9386 -5.05581,5.71898 -6.44611,8.34161 -1.232323,2.27505 -1.848471,4.81886 -1.848471,7.63106 0,2.14866 0.490143,4.21825 1.469671,6.20892 1.01114,1.95909 2.54328,3.57041 4.59714,4.83433 1.14422,0.69345 2.46092,1.19546 3.94756,1.50844 -3.05465,0.42527 -6.13354,0.65312 -9.21752,0.68212 -4.590865,-0.0146 -9.169728,-0.46992 -13.673585,-1.3596 0.558678,-0.55933 0.838192,-1.5309 0.838192,-2.9161 0,-6.82513 0.363106,-14.8829 1.089856,-24.17269 0.726752,-9.32138 1.627317,-17.67898 2.701645,-25.07288 0.189584,-1.26393 0.284736,-2.38564 0.284736,-3.36518 0,-0.88473 -0.41094,-1.5801 -1.232485,-2.08566 -0.3904,-0.24986 -0.93645,-0.43689 -1.635558,-0.56327 0.244049,-0.45787 0.366903,-1.13717 0.366903,-2.0407 0,-0.73661 0.213293,-2.06467 0.639754,-3.98374 0.445842,-1.93844 1.007745,-3.96423 1.686203,-6.07715 0.678458,-2.13228 1.405885,-3.97345 2.181262,-5.52421 0.794766,-1.57014 1.540782,-2.35541 2.238624,-2.35541 z m -70.268063,6.39238 c -0.02065,0.462 -0.03701,0.92418 -0.04909,1.38648 2.92e-4,17.64436 6.235337,34.72111 17.604094,48.21462 10.588779,15.66663 26.716112,26.74362 45.139364,31.0038 -36.124718,-4.23168 -63.365945,-34.82859 -63.39148,-71.20031 0.02585,-3.14676 0.258723,-6.28841 0.697115,-9.40459 z m 127.084236,2.70887 c 0.48461,7.92825 2.66533,11.8923 6.54223,11.8923 3.03179,0 5.96385,-3.91478 8.79688,-11.72021 0.21752,2.16801 0.33616,4.34481 0.35554,6.52363 -0.0198,9.11065 -1.77482,18.13414 -5.17126,26.58804 -8.3929,15.19861 -22.01294,26.83773 -38.3341,32.75873 1.24136,-1.16984 2.22945,-2.49557 2.96106,-3.97909 1.13753,-2.30666 1.70584,-4.6293 1.70584,-6.96753 0,-4.96088 -2.32212,-9.82679 -6.96702,-14.59808 -1.07433,-1.10592 -2.16467,-2.16438 -3.2706,-3.17552 l 2.51199,-2.70164 c 3.94974,-4.42371 5.9247,-8.65805 5.9247,-12.70258 0,-1.86428 -0.50557,-3.64946 -1.5167,-5.35575 -0.97954,-1.73789 -2.44893,-3.14402 -4.408,-4.21835 -0.75929,-0.42863 -1.58818,-0.77309 -2.48512,-1.03559 2.18646,-1.29484 4.35335,-4.74903 6.49986,-10.35854 0.18265,2.35428 0.56288,4.40772 1.15084,6.14484 1.08552,3.19844 2.85929,4.79764 5.32112,4.79764 2.32357,0 4.5881,-2.2991 6.79493,-6.88382 0.0495,0.8628 0.19666,1.71332 0.44494,2.55127 0.29077,1.04676 0.79482,1.9095 1.51205,2.58796 0.71723,0.65907 1.72535,0.98857 3.02411,0.98857 2.34551,0 4.34212,-1.49255 5.98981,-4.47777 0.94984,-1.7446 1.82215,-3.96407 2.6169,-6.65851 z m -38.12119,16.51476 c 1.89587,0 3.31795,0.34768 4.26589,1.04283 0.97953,0.66356 1.643,1.51681 1.99057,2.55953 0.34758,1.04274 0.52142,2.11714 0.52142,3.22306 0,3.15979 -1.64323,6.41437 -4.92942,9.76375 l -0.9002,0.9002 c -1.16912,-1.07433 -2.27541,-2.11684 -3.31814,-3.12797 -2.90701,-2.78062 -4.36046,-5.29253 -4.36046,-7.53598 0,-2.21185 0.67941,-3.9024 2.03812,-5.07152 1.35871,-1.16912 2.92274,-1.7539 4.69222,-1.7539 z m -2.70165,28.34349 c 2.24345,1.92747 3.87075,3.38093 4.88188,4.36046 3.06499,2.97022 4.59765,5.70326 4.59765,8.19949 0,1.10594 -0.25253,2.18031 -0.75809,3.22306 -0.50557,1.04272 -1.32744,1.91191 -2.46497,2.60708 -1.10593,0.66355 -2.60669,0.99529 -4.50257,0.99529 -1.86427,0 -3.39693,-0.33174 -4.59765,-0.99529 -1.20072,-0.69517 -2.10128,-1.56436 -2.70164,-2.60708 -0.56877,-1.04275 -0.85318,-2.11712 -0.85318,-3.22306 0,-2.11705 0.53746,-4.13932 1.61179,-6.06681 1.10592,-2.02226 2.70131,-4.18649 4.78678,-6.49314 z m 37.65817,10.18801 c -9.4658,10.34799 -21.75712,17.6945 -35.35391,21.13101 -2.97409,0.40504 -5.97067,0.62302 -8.97207,0.65267 -13.816005,-0.0243 -27.331078,-4.03776 -38.921135,-11.55795 10.556476,5.4103 22.247918,8.23349 34.110065,8.23671 18.07097,-0.0192 35.52457,-6.57712 49.13705,-18.46244 z"
       id="path3818"
       inkscape:connector-curvature="0"
       sodipodi:nodetypes="cccscccccccccccccccccccccccccccsccccscsccsccccsscccscsccccscsccsccscccccsccsscccsccscccccscsccscsccsccccsccsccsccccccccscscccccccsccscsscscccscsccccccccccccccccsccsscssccsccccccsccccssscssccccssscssscscscccccscccscccccsccsccscccscccccccscccccscccscccccscccsccsccscccsssccsccsccscccccccc" />
  </g>
</svg>
