<?xml version="1.0" encoding="UTF-8" standalone="no"?>
<!-- Created with Inkscape (http://www.inkscape.org/) -->

<svg
   xmlns:dc="http://purl.org/dc/elements/1.1/"
   xmlns:cc="http://creativecommons.org/ns#"
   xmlns:rdf="http://www.w3.org/1999/02/22-rdf-syntax-ns#"
   xmlns:svg="http://www.w3.org/2000/svg"
   xmlns="http://www.w3.org/2000/svg"
   xmlns:sodipodi="http://sodipodi.sourceforge.net/DTD/sodipodi-0.dtd"
   xmlns:inkscape="http://www.inkscape.org/namespaces/inkscape"
   width="210mm"
   height="297mm"
   viewBox="0 0 210 297"
   version="1.1"
   id="svg8"
   inkscape:version="0.92.3 (2405546, 2018-03-11)"
   sodipodi:docname="Name.svg">
  <defs
     id="defs2" />
  <sodipodi:namedview
     id="base"
     pagecolor="#ffffff"
     bordercolor="#666666"
     borderopacity="1.0"
     inkscape:pageopacity="0.0"
     inkscape:pageshadow="2"
     inkscape:zoom="2.8"
     inkscape:cx="279.64088"
     inkscape:cy="897.90134"
     inkscape:document-units="mm"
     inkscape:current-layer="layer1"
     showgrid="false"
     inkscape:window-width="1920"
     inkscape:window-height="1137"
     inkscape:window-x="-8"
     inkscape:window-y="-8"
     inkscape:window-maximized="1" />
  <metadata
     id="metadata5">
    <rdf:RDF>
      <cc:Work
         rdf:about="">
        <dc:format>image/svg+xml</dc:format>
        <dc:type
           rdf:resource="http://purl.org/dc/dcmitype/StillImage" />
        <dc:title></dc:title>
      </cc:Work>
    </rdf:RDF>
  </metadata>
  <g
     inkscape:label="Layer 1"
     inkscape:groupmode="layer"
     id="layer1">
    <g
       aria-label="T. Roberts
2018"
       style="font-style:normal;font-weight:normal;font-size:10.58333302px;line-height:1.25;font-family:sans-serif;letter-spacing:0px;word-spacing:0px;fill:#000000;fill-opacity:1;stroke:none;stroke-width:0.26458332"
       id="text12">
      <path
         d="m 38.930838,46.353403 c -0.455083,0 -1.0795,-0.105833 -1.27,-0.1905 v 1.3335 h 0.105833 v -0.1905 c 0,-0.338666 0.264584,-0.613833 0.60325,-0.635 h 2.00025 v 6.35 c -0.01058,0.359833 -0.306917,0.656167 -0.677333,0.656167 h -0.127 l -0.01058,0.105833 h 2.317749 V 53.67707 h -0.127 c -0.370416,0 -0.66675,-0.296334 -0.677333,-0.66675 v -6.339417 h 2.00025 c 0.338667,0.02117 0.60325,0.296334 0.60325,0.635 v 0.1905 h 0.105833 v -1.3335 c -0.201083,0.08467 -0.814916,0.1905 -1.27,0.1905 z"
         style="font-style:normal;font-variant:normal;font-weight:normal;font-stretch:normal;font-size:10.58333302px;font-family:Cinzel;-inkscape-font-specification:'Cinzel, Normal';font-variant-ligatures:normal;font-variant-caps:normal;font-variant-numeric:normal;font-feature-settings:normal;text-align:center;writing-mode:lr-tb;text-anchor:middle;stroke-width:0.26458332;stroke:none"
         id="path16" />
      <path
         d="m 44.086078,53.814653 c 0.254,0 0.47625,-0.211667 0.47625,-0.47625 0,-0.254 -0.22225,-0.47625 -0.47625,-0.47625 -0.264583,0 -0.47625,0.22225 -0.47625,0.47625 0,0.264583 0.211667,0.47625 0.47625,0.47625 z"
         style="font-style:normal;font-variant:normal;font-weight:normal;font-stretch:normal;font-size:10.58333302px;font-family:Cinzel;-inkscape-font-specification:'Cinzel, Normal';font-variant-ligatures:normal;font-variant-caps:normal;font-variant-numeric:normal;font-feature-settings:normal;text-align:center;writing-mode:lr-tb;text-anchor:middle;stroke-width:0.26458332;stroke:none"
         id="path18" />
      <path
         d="m 48.316105,46.363987 v 0.105833 h 0.127 c 0.370416,0 0.677333,0.296333 0.677333,0.66675 v 5.87375 c -0.01058,0.370416 -0.306917,0.66675 -0.677333,0.66675 h -0.127 v 0.105833 h 2.307166 V 53.67707 h -0.137583 c -0.370417,0 -0.66675,-0.306917 -0.677333,-0.66675 v -6.307667 c 0.137583,0 0.783166,-0.02117 1.322916,0 0.783167,0.04233 1.280584,0.656167 1.312334,1.61925 0,0.232834 -0.02117,0.486834 -0.07408,0.635 -0.296333,0.9525 -1.100666,1.0795 -1.651,1.100667 -0.3175,0 -0.560916,0 -0.560916,0 v 0.09525 c 0.391583,0 0.6985,0.370417 0.973666,0.719667 0.08467,0.09525 1.280584,1.830916 1.397,1.979083 0.328084,0.391583 0.85725,0.92075 1.8415,0.92075 h 0.582084 v -0.105834 c -0.613834,0 -1.005417,-0.328083 -1.439334,-0.79375 -0.402166,-0.444499 -1.322916,-1.756833 -1.322916,-1.756833 -0.201084,-0.28575 -0.529167,-0.635 -0.751417,-0.740833 1.016,0 1.799167,-0.994833 1.799167,-2.021417 0,-1.227666 -0.79375,-1.989666 -2.074334,-1.989666 z"
         style="font-style:normal;font-variant:normal;font-weight:normal;font-stretch:normal;font-size:10.58333302px;font-family:Cinzel;-inkscape-font-specification:'Cinzel, Normal';font-variant-ligatures:normal;font-variant-caps:normal;font-variant-numeric:normal;font-feature-settings:normal;text-align:center;writing-mode:lr-tb;text-anchor:middle;stroke-width:0.26458332;stroke:none"
         id="path20" />
      <path
         d="m 58.412109,47.274153 c -1.979084,0 -3.566584,1.36525 -3.566584,3.323167 0,1.9685 1.5875,3.323166 3.566584,3.323166 1.9685,0 3.566583,-1.354666 3.566583,-3.323166 0,-1.957917 -1.598083,-3.323167 -3.566583,-3.323167 z m 0,6.339417 c -1.55575,0 -2.783417,-1.217083 -2.783417,-3.005667 0,-1.799166 1.227667,-3.01625 2.783417,-3.01625 1.55575,0 2.783416,1.217084 2.783416,3.01625 0,1.788584 -1.227666,3.005667 -2.783416,3.005667 z"
         style="font-style:normal;font-variant:normal;font-weight:normal;font-stretch:normal;font-size:10.58333302px;font-family:Cinzel;-inkscape-font-specification:'Cinzel, Normal';font-variant-ligatures:normal;font-variant-caps:normal;font-variant-numeric:normal;font-feature-settings:normal;text-align:center;writing-mode:lr-tb;text-anchor:middle;stroke-width:0.26458332;stroke:none"
         id="path22" />
      <path
         d="m 62.918624,47.432903 v 0.09525 h 0.116416 c 0.359834,0 0.624417,0.232834 0.635,0.5715 v 5.005917 c -0.01058,0.306916 -0.275166,0.5715 -0.635,0.5715 h -0.116416 l -0.01058,0.105833 h 2.624667 c 1.04775,0 2.360083,-0.402167 2.360083,-1.778 0,-0.85725 -0.751416,-1.55575 -1.778,-1.68275 0.5715,-0.137583 1.164167,-0.656166 1.164167,-1.312333 0,-1.407583 -1.449917,-1.576917 -2.201333,-1.576917 z m 1.418166,6.0325 v -5.715 h 0.719667 c 0.931333,0 1.471083,0.370417 1.471083,1.259417 0,1.164167 -1.090083,1.312333 -1.852083,1.312333 v 0.105834 c 1.143,0 2.455333,0.22225 2.455333,1.576916 0,1.005417 -0.687916,1.4605 -1.608666,1.4605 z"
         style="font-style:normal;font-variant:normal;font-weight:normal;font-stretch:normal;font-size:10.58333302px;font-family:Cinzel;-inkscape-font-specification:'Cinzel, Normal';font-variant-ligatures:normal;font-variant-caps:normal;font-variant-numeric:normal;font-feature-settings:normal;text-align:center;writing-mode:lr-tb;text-anchor:middle;stroke-width:0.26458332;stroke:none"
         id="path24" />
      <path
         d="M 73.833347,52.258903 H 73.71693 c -0.296333,0.687917 -0.66675,1.185333 -1.68275,1.195917 h -1.651 v -2.688167 h 1.830917 c 0.275167,0.01058 0.402167,0.201084 0.402167,0.4445 v 0.137584 h 0.116416 v -1.49225 h -0.116416 v 0.137583 c 0,0.243417 -0.127,0.4445 -0.423334,0.455083 h -1.80975 v -2.69875 h 2.19075 c 0.328084,0.01058 0.529167,0.243417 0.529167,0.53975 v 0.169334 h 0.116417 V 47.26357 c -0.179917,0.07408 -0.751417,0.15875 -1.17475,0.169333 H 68.95443 v 0.105834 h 0.137584 c 0.34925,0 0.613833,0.232833 0.613833,0.550333 v 5.0165 c -0.01058,0.3175 -0.264583,0.5715 -0.613833,0.5715 H 68.95443 v 0.105833 h 4.296834 z"
         style="font-style:normal;font-variant:normal;font-weight:normal;font-stretch:normal;font-size:10.58333302px;font-family:Cinzel;-inkscape-font-specification:'Cinzel, Normal';font-variant-ligatures:normal;font-variant-caps:normal;font-variant-numeric:normal;font-feature-settings:normal;text-align:center;writing-mode:lr-tb;text-anchor:middle;stroke-width:0.26458332;stroke:none"
         id="path26" />
      <path
         d="m 74.638837,47.42232 v 0.105833 h 0.137583 c 0.338667,0 0.592667,0.243417 0.60325,0.560917 v 5.027083 c -0.01058,0.306917 -0.264583,0.560917 -0.60325,0.560917 h -0.137583 v 0.105833 h 2.159 V 53.67707 H 76.64967 c -0.338667,0 -0.592667,-0.264584 -0.592667,-0.582084 v -5.333999 c 0.09525,0 0.613834,-0.02117 1.2065,0.01058 0.85725,0.04233 1.386417,0.508 1.407584,1.30175 0.01058,0.22225 -0.02117,0.455083 -0.0635,0.60325 -0.306917,0.889 -0.973667,0.889 -1.55575,0.910167 -0.34925,0 -0.613834,0 -0.613834,0 v 0.09525 c 0.423334,0 0.783167,0.359833 1.068917,0.719666 0.08467,0.09525 0.92075,1.30175 1.037167,1.449917 0.338666,0.391583 0.804333,0.931333 1.968499,0.931333 h 0.338667 v -0.116417 c -0.592667,0 -0.889,-0.3175 -1.322916,-0.79375 -0.433917,-0.497416 -0.92075,-1.164166 -0.92075,-1.164166 -0.22225,-0.3175 -0.582084,-0.719667 -0.814917,-0.8255 0.9525,-0.09525 1.640417,-0.846667 1.640417,-1.74625 0,-1.068917 -0.814917,-1.703917 -2.148417,-1.703917 z"
         style="font-style:normal;font-variant:normal;font-weight:normal;font-stretch:normal;font-size:10.58333302px;font-family:Cinzel;-inkscape-font-specification:'Cinzel, Normal';font-variant-ligatures:normal;font-variant-caps:normal;font-variant-numeric:normal;font-feature-settings:normal;text-align:center;writing-mode:lr-tb;text-anchor:middle;stroke-width:0.26458332;stroke:none"
         id="path28" />
      <path
         d="m 81.756792,47.411737 c -0.423333,0 -0.994833,-0.08467 -1.185333,-0.15875 v 1.185333 h 0.116417 v -0.15875 c 0,-0.296333 0.211666,-0.53975 0.529166,-0.550333 h 1.915584 v 5.365749 c 0,0.3175 -0.275167,0.582084 -0.613834,0.582084 h -0.127 v 0.105833 h 2.180167 V 53.67707 h -0.127 c -0.328083,0 -0.60325,-0.254 -0.613833,-0.560917 v -5.386916 h 1.905 c 0.328083,0.01058 0.529166,0.254 0.539749,0.550333 v 0.15875 h 0.105834 v -1.185333 c -0.179917,0.07408 -0.762,0.15875 -1.185333,0.15875 z"
         style="font-style:normal;font-variant:normal;font-weight:normal;font-stretch:normal;font-size:10.58333302px;font-family:Cinzel;-inkscape-font-specification:'Cinzel, Normal';font-variant-ligatures:normal;font-variant-caps:normal;font-variant-numeric:normal;font-feature-settings:normal;text-align:center;writing-mode:lr-tb;text-anchor:middle;stroke-width:0.26458332;stroke:none"
         id="path30" />
      <path
         d="m 88.235114,49.433153 c -0.338667,-0.264583 -0.423333,-0.560916 -0.423333,-0.836083 0,-0.560917 0.5715,-1.005417 1.27,-1.005417 0.836083,0 1.227666,0.34925 1.227666,0.941917 h 0.116417 l -0.01058,-1.153583 h -0.34925 c -0.243417,-0.05292 -0.5715,-0.105834 -1.04775,-0.105834 -0.98425,0 -1.767417,0.687917 -1.756834,1.545167 0.01058,0.370417 0.116417,0.814917 0.508,1.153583 l 2.116667,1.629834 c 0.275167,0.232833 0.391583,0.508 0.391583,0.836083 0,0.687916 -0.53975,1.143 -1.418166,1.17475 -0.931334,0.02117 -1.576917,-0.550334 -1.481667,-1.502833 h -0.116417 c -0.148166,0.412749 -0.179916,1.037166 -0.105833,1.312333 0.381,0.34925 1.195917,0.497416 1.820333,0.497416 1.04775,0 1.883834,-0.751416 1.87325,-1.703916 0,-0.402167 -0.148166,-0.85725 -0.47625,-1.132417 z"
         style="font-style:normal;font-variant:normal;font-weight:normal;font-stretch:normal;font-size:10.58333302px;font-family:Cinzel;-inkscape-font-specification:'Cinzel, Normal';font-variant-ligatures:normal;font-variant-caps:normal;font-variant-numeric:normal;font-feature-settings:normal;text-align:center;writing-mode:lr-tb;text-anchor:middle;stroke-width:0.26458332;stroke:none"
         id="path32" />
      <path
         d="m 54.692811,61.765217 c -0.02117,-1.016 0.613833,-1.55575 1.598083,-1.576917 0.941917,-0.01058 1.524,0.677333 1.524,1.830917 0,1.629833 -2.328333,4.169833 -3.566583,5.312833 v 0.105833 h 4.34975 l 0.508,-1.502833 h -0.105834 c -0.370416,0.677333 -0.613833,0.899583 -1.23825,0.899583 h -2.44475 c 1.04775,-1.068916 3.291417,-3.048 3.291417,-4.85775 0,-1.30175 -0.910167,-2.0955 -2.31775,-2.0955 -0.677333,0 -1.481667,0.28575 -1.883833,0.687917 l 0.179916,1.195917 z"
         style="font-style:normal;font-variant:normal;font-weight:normal;font-stretch:normal;font-size:10.58333302px;font-family:Cinzel;-inkscape-font-specification:'Cinzel, Normal';font-variant-ligatures:normal;font-variant-caps:normal;font-variant-numeric:normal;font-feature-settings:normal;text-align:center;writing-mode:lr-tb;text-anchor:middle;stroke-width:0.26458332;stroke:none"
         id="path34" />
      <path
         d="m 62.627499,59.8708 c -1.545166,0 -2.487083,1.471083 -2.487083,3.852333 0,2.391834 0.941917,3.852334 2.487083,3.852334 1.534584,0 2.487084,-1.4605 2.487084,-3.852334 0,-2.38125 -0.9525,-3.852333 -2.487084,-3.852333 z m 0,0.3175 c 1.0795,0 1.74625,1.344083 1.74625,3.534833 0,2.201334 -0.66675,3.534834 -1.74625,3.534834 -1.090083,0 -1.74625,-1.3335 -1.74625,-3.534834 0,-2.19075 0.656167,-3.534833 1.74625,-3.534833 z"
         style="font-style:normal;font-variant:normal;font-weight:normal;font-stretch:normal;font-size:10.58333302px;font-family:Cinzel;-inkscape-font-specification:'Cinzel, Normal';font-variant-ligatures:normal;font-variant-caps:normal;font-variant-numeric:normal;font-feature-settings:normal;text-align:center;writing-mode:lr-tb;text-anchor:middle;stroke-width:0.26458332;stroke:none"
         id="path36" />
      <path
         d="m 66.487274,67.4273 v -0.105833 h 0.22225 c 0.3175,0 0.582084,-0.254 0.582084,-0.5715 V 61.17255 c 0,-0.338667 -0.169334,-0.518583 -0.486834,-0.518583 h -0.391583 v -0.105834 c 0.550333,-0.07408 1.037167,-0.179916 1.449917,-0.677333 h 0.105833 v 6.88975 c 0,0.3175 0.275167,0.560917 0.582083,0.560917 h 0.22225 l 0.01058,0.105833 z"
         style="font-style:normal;font-variant:normal;font-weight:normal;font-stretch:normal;font-size:10.58333302px;font-family:Cinzel;-inkscape-font-specification:'Cinzel, Normal';font-variant-ligatures:normal;font-variant-caps:normal;font-variant-numeric:normal;font-feature-settings:normal;text-align:center;writing-mode:lr-tb;text-anchor:middle;stroke-width:0.26458332;stroke:none"
         id="path38" />
      <path
         d="m 72.940461,63.4903 c 0.836084,-0.306917 1.291167,-0.98425 1.291167,-1.830917 0.01058,-1.143 -0.804333,-1.80975 -1.894417,-1.788583 -1.185333,0.02117 -1.905,0.772583 -1.915583,1.778 0,0.804333 0.465667,1.418167 1.153583,1.905 -0.973666,0.455083 -1.49225,1.068917 -1.524,1.957917 -0.05292,1.23825 0.889,2.06375 2.286,2.06375 1.386417,0 2.286,-0.814917 2.286,-2.00025 -0.01058,-1.185334 -0.910166,-1.703917 -1.68275,-2.084917 z m -0.635,-0.328083 c -0.6985,-0.402167 -1.090083,-0.9525 -1.090083,-1.651 0,-0.719667 0.402167,-1.322917 1.121833,-1.322917 0.677334,0 1.100667,0.53975 1.100667,1.386417 0,0.613833 -0.22225,1.227666 -0.889,1.725083 z m 0.03175,4.106333 c -0.941916,0 -1.513416,-0.635 -1.502833,-1.640417 0.01058,-0.878416 0.47625,-1.471083 1.04775,-1.862666 0.127,0.07408 0.264583,0.148166 0.391583,0.211666 0.66675,0.34925 1.545167,0.656167 1.545167,1.74625 0,0.772584 -0.455083,1.534584 -1.481667,1.534584 z"
         style="font-style:normal;font-variant:normal;font-weight:normal;font-stretch:normal;font-size:10.58333302px;font-family:Cinzel;-inkscape-font-specification:'Cinzel, Normal';font-variant-ligatures:normal;font-variant-caps:normal;font-variant-numeric:normal;font-feature-settings:normal;text-align:center;writing-mode:lr-tb;text-anchor:middle;stroke-width:0.26458332;stroke:none"
         id="path40" />
    </g>
  </g>
</svg>
