<?xml version="1.0" encoding="UTF-8" standalone="no"?>
<!-- Created with Inkscape (http://www.inkscape.org/) -->

<svg
   xmlns:dc="http://purl.org/dc/elements/1.1/"
   xmlns:cc="http://creativecommons.org/ns#"
   xmlns:rdf="http://www.w3.org/1999/02/22-rdf-syntax-ns#"
   xmlns:svg="http://www.w3.org/2000/svg"
   xmlns="http://www.w3.org/2000/svg"
   xmlns:sodipodi="http://sodipodi.sourceforge.net/DTD/sodipodi-0.dtd"
   xmlns:inkscape="http://www.inkscape.org/namespaces/inkscape"
   width="383mm"
   height="383mm"
   viewBox="0 0 383 383"
   version="1.1"
   id="svg8"
   inkscape:version="0.92.3 (2405546, 2018-03-11)"
   sodipodi:docname="Tom and Tamara 8.svg">
  <defs
     id="defs2" />
  <sodipodi:namedview
     id="base"
     pagecolor="#ffffff"
     bordercolor="#666666"
     borderopacity="1.0"
     inkscape:pageopacity="0.0"
     inkscape:pageshadow="2"
     inkscape:zoom="0.32"
     inkscape:cx="597.17666"
     inkscape:cy="813.35855"
     inkscape:document-units="mm"
     inkscape:current-layer="layer1"
     showgrid="false"
     inkscape:snap-text-baseline="false"
     inkscape:window-width="1920"
     inkscape:window-height="1137"
     inkscape:window-x="-8"
     inkscape:window-y="-8"
     inkscape:window-maximized="1" />
  <metadata
     id="metadata5">
    <rdf:RDF>
      <cc:Work
         rdf:about="">
        <dc:format>image/svg+xml</dc:format>
        <dc:type
           rdf:resource="http://purl.org/dc/dcmitype/StillImage" />
        <dc:title></dc:title>
      </cc:Work>
    </rdf:RDF>
  </metadata>
  <g
     inkscape:label="Layer 1"
     inkscape:groupmode="layer"
     id="layer1"
     transform="translate(0,86)">
    <path
       style="fill:none;stroke:#000000;stroke-width:0.29380435"
       d="M 382.01054,106.0508 A 191.3528,191.3524 0 0 1 192.34679,297.39574 191.3528,191.3524 0 0 1 -0.665235,109.42876 191.3528,191.3524 0 0 1 185.59112,-85.234517 191.3528,191.3524 0 0 1 381.89128,99.295928"
       id="path34" />
    <g
       id="text172"
       style="font-style:normal;font-weight:normal;font-size:27.71707153px;line-height:1.25;font-family:sans-serif;letter-spacing:0px;word-spacing:0px;fill:#000000;fill-opacity:1;stroke:none;stroke-width:0.69292676"
       aria-label="T"
       transform="translate(6.17906,8.425991)" />
    <g
       id="g1952">
      <g
         transform="translate(0.45201148,17.445974)"
         id="g1881">
        <path
           style="fill:#000000;stroke:#000000;stroke-width:0.33709073"
           d="M 375.03688,88.604813 A 184.83116,184.83084 0 0 1 191.8372,273.42845 184.83116,184.83084 0 0 1 5.4033593,91.867647 184.83116,184.83084 0 0 1 185.31178,-96.161227 184.83116,184.83084 0 0 1 374.92168,82.08016"
           id="path1862" />
        <path
           style="fill:#ffffff;stroke:#000000;stroke-width:0.33253536"
           d="M 372.53917,88.604805 A 182.33345,182.33304 0 0 1 191.81516,270.93074 182.33345,182.33304 0 0 1 7.9006813,91.823546 182.33345,182.33304 0 0 1 185.37791,-93.664307 182.33345,182.33304 0 0 1 372.42553,82.168326"
           id="path1862-8" />
      </g>
      <g
         transform="matrix(0.99,0,0,0.99,1.9065745,1.0605024)"
         id="g1932">
        <path
           style="fill:#000000;stroke:#000000;stroke-width:0.33038262"
           d="M 371.81075,106.05077 A 181.15302,181.15271 0 0 1 192.25675,287.19643 181.15302,181.15271 0 0 1 9.5329437,109.24868 181.15302,181.15271 0 0 1 185.86118,-75.038424 181.15302,181.15271 0 0 1 371.69784,99.655961"
           id="path1862-1" />
        <path
           style="fill:#ffffff;stroke:#000000;stroke-width:0.32917708"
           d="M 371.1498,106.05078 A 180.49207,180.49165 0 0 1 192.25091,286.5354 180.49207,180.49165 0 0 1 10.19379,109.23702 180.49207,180.49165 0 0 1 185.87868,-74.377592 180.49207,180.49165 0 0 1 371.0373,99.679305"
           id="path1862-8-9" />
      </g>
    </g>
    <g
       aria-label="Tom
&amp;
Tamara"
       style="font-style:normal;font-weight:normal;font-size:10.58333302px;line-height:1.25;font-family:sans-serif;letter-spacing:0px;word-spacing:0px;fill:#000000;fill-opacity:1;stroke:none;stroke-width:0.26458332"
       id="text505-7-5">
      <path
         d="m 157.66791,40.061032 c 0,0.9652 0,16.5608 -0.1524,18.034 -0.0508,0.6096 -0.6604,1.2192 -1.6764,1.2192 h -3.4544 c -0.3048,0 -0.3556,0.1524 -0.3556,0.508 v 0.9652 c 0,0.3048 0.0508,0.508 0.4572,0.508 0.7112,0 2.8448,-0.1524 7.7216,-0.1524 4.9784,0 6.604,0.1524 7.112,0.1524 0.4572,0 0.508,-0.1524 0.508,-0.4064 v -1.0668 c 0,-0.3556 -0.0508,-0.508 -0.508,-0.508 h -3.2004 c -1.2192,0 -1.6256,-0.762 -1.7272,-2.032 -0.0508,-0.8636 -0.0508,-15.0876 -0.0508,-15.7988 V 27.005433 h 1.4224 c 2.4892,0 7.2644,0.1016 8.7884,0.8636 1.6764,0.8128 3.2004,4.7244 3.6068,5.689599 0.1524,0.3556 0.2032,0.4064 0.4064,0.3556 l 0.8128,-0.2032 c 0.254,-0.0508 0.3556,-0.1524 0.3048,-0.4064 -0.4064,-2.235199 -1.3716,-8.534399 -1.4732,-9.143999 -0.1016,-0.6604 -0.2032,-0.8128 -0.4572,-0.8128 -0.2032,0 -0.3556,0.0508 -0.6096,0.2032 l -0.9652,0.6096 c -0.8636,0.508 -1.524,0.6604 -2.6416,0.7112 -2.4892,0.1016 -4.6736,0.3048 -10.2108,0.3048 h -2.4384 c -4.7752,0 -6.9088,-0.2032 -9.6012,-0.3048 -1.4732,-0.0508 -1.9812,-0.2032 -2.8956,-0.8636 l -0.6604,-0.4572 c -0.2032,-0.1524 -0.3556,-0.2032 -0.6096,-0.2032 -0.2032,0 -0.4064,0.1524 -0.508,0.8128 -0.1016,0.5588 -1.8796,7.112 -2.3876,8.940799 -0.1016,0.3048 0.0508,0.3556 0.2032,0.4064 l 0.9144,0.254 c 0.254,0.0508 0.4064,0 0.508,-0.254 0.7112,-1.625599 2.2352,-5.181599 4.5212,-5.892799 1.9812,-0.6096 6.4008,-0.6096 8.0264,-0.6096 h 1.27 z"
         style="font-style:normal;font-variant:normal;font-weight:normal;font-stretch:normal;font-size:50.79999924px;font-family:'Adobe Caslon Pro';-inkscape-font-specification:'Adobe Caslon Pro, Normal';font-variant-ligatures:normal;font-variant-caps:normal;font-variant-numeric:normal;font-feature-settings:normal;text-align:center;writing-mode:lr-tb;text-anchor:middle;stroke-width:0.26458332"
         id="path1998" />
      <path
         d="m 185.63172,61.752632 c 6.2484,0 11.2268,-5.6388 11.2268,-11.176 0,-3.302 -1.1684,-5.9436 -3.4544,-8.2804 -1.524,-1.524 -4.318,-2.9464 -7.112,-2.9464 -1.6764,0 -4.1656,0.4064 -6.8072,2.4384 -2.9972,2.3368 -4.3688,5.588 -4.3688,8.1788 0,3.6068 0.4572,5.4864 2.794,8.2804 2.1336,2.54 5.2832,3.5052 7.7216,3.5052 z m 0.6096,-1.524 c -2.3876,0 -3.8608,-0.9652 -5.0292,-2.6416 -1.6256,-2.3368 -1.9304,-4.2672 -1.9304,-7.112 0,-3.8608 0.7112,-5.9436 2.6924,-7.9756 1.2192,-1.3208 2.54,-1.6256 3.9116,-1.6256 2.5908,0 6.7056,3.556 6.7056,9.1948 0,5.4356 -2.4892,10.16 -6.35,10.16 z"
         style="font-style:normal;font-variant:normal;font-weight:normal;font-stretch:normal;font-size:50.79999924px;font-family:'Adobe Caslon Pro';-inkscape-font-specification:'Adobe Caslon Pro, Normal';font-variant-ligatures:normal;font-variant-caps:normal;font-variant-numeric:normal;font-feature-settings:normal;text-align:center;writing-mode:lr-tb;text-anchor:middle;stroke-width:0.26458332"
         id="path2000" />
      <path
         d="m 217.34044,58.603032 c 0,0.6604 -0.3048,0.8636 -1.1176,0.8636 h -1.4732 c -0.4572,0 -0.508,0.1016 -0.508,0.508 v 0.8128 c 0,0.3556 0.1016,0.508 0.3556,0.508 0.3048,0 2.032,-0.1524 4.7752,-0.1524 2.8448,0 4.1656,0.1524 4.5212,0.1524 0.254,0 0.3556,-0.1524 0.3556,-0.5588 v -0.8128 c 0,-0.3556 -0.1016,-0.4572 -0.5588,-0.4572 h -1.7272 c -0.762,0 -1.016,-0.508 -1.016,-1.1684 v -8.7884 c 0,-2.286 -0.0508,-3.6576 0.7112,-5.1308 0.8128,-1.4732 2.8956,-2.6416 4.4196,-2.6416 1.524,0 2.8448,0.3556 3.7592,1.0668 1.1684,0.9144 1.4732,2.3876 1.4732,4.064 v 7.5184 c 0,1.1176 0,2.9464 -0.1016,4.1148 -0.0508,0.7112 -0.4572,0.9652 -1.016,0.9652 h -1.27 c -0.5588,0 -0.6604,0.1016 -0.6604,0.4572 v 0.8636 c 0,0.3556 0.1016,0.508 0.4064,0.508 0.3556,0 2.1844,-0.1524 4.7244,-0.1524 2.4384,0 3.8608,0.1524 4.2164,0.1524 0.254,0 0.3556,-0.1524 0.3556,-0.508 v -0.8636 c 0,-0.3556 -0.1016,-0.4572 -0.5588,-0.4572 h -1.3716 c -0.6096,0 -1.0668,-0.254 -1.0668,-1.016 v -11.3284 c 0,-3.9116 -1.27,-5.0292 -2.4384,-6.2484 -1.2192,-1.2192 -2.794,-1.524 -4.572,-1.524 -3.048,0 -5.9436,1.9304 -7.4676,3.9116 h -0.254 c -1.0668,-2.3876 -3.0988,-3.9116 -5.7404,-3.9116 -2.9464,0 -5.9436,1.778 -7.4676,3.8608 h -0.1524 l -0.2032,-2.9464 c 0,-0.3556 -0.1524,-0.7112 -0.4572,-0.7112 -0.2032,0 -0.5588,0.1016 -0.9652,0.3048 l -4.4704,2.286 c -0.1016,0.0508 -0.3048,0.254 -0.3048,0.4064 v 0.4064 c 0,0.1524 0.1016,0.254 0.3556,0.4064 l 1.0668,0.5588 c 1.2192,0.6604 1.4224,1.5748 1.4224,2.5908 v 9.0424 c 0,0.8636 0,1.778 -0.0508,2.6416 -0.0508,0.9652 -0.3048,1.27 -0.762,1.27 h -1.7272 c -0.508,0 -0.6096,0.0508 -0.6096,0.4572 v 0.9144 c 0,0.3556 0.1016,0.4572 0.4064,0.4572 0.4064,0 2.032,-0.1524 4.7244,-0.1524 2.794,0 4.1656,0.1524 4.6228,0.1524 0.3556,0 0.4064,-0.2032 0.4064,-0.5588 v -0.8128 c 0,-0.3556 -0.0508,-0.4572 -0.508,-0.4572 h -1.8288 c -0.7112,0 -1.016,-0.508 -1.016,-1.3208 v -10.0584 c 0,-1.4224 0.1016,-2.3876 0.7112,-3.4036 1.4224,-2.286 3.556,-2.9464 4.8768,-2.9464 1.1176,0 2.5908,0.3048 3.2512,0.9144 0.8128,0.762 1.524,1.7272 1.524,5.4864 z"
         style="font-style:normal;font-variant:normal;font-weight:normal;font-stretch:normal;font-size:50.79999924px;font-family:'Adobe Caslon Pro';-inkscape-font-specification:'Adobe Caslon Pro, Normal';font-variant-ligatures:normal;font-variant-caps:normal;font-variant-numeric:normal;font-feature-settings:normal;text-align:center;writing-mode:lr-tb;text-anchor:middle;stroke-width:0.26458332"
         id="path2002" />
      <path
         d="m 206.08229,125.40503 c 5.8928,0 8.6868,-4.7244 9.4488,-6.4008 0.1016,-0.254 0.1016,-0.4064 0,-0.4572 l -0.762,-0.4572 c -0.2032,-0.1524 -0.3048,-0.1016 -0.4064,0.0508 -0.2032,0.4064 -2.4892,3.9624 -5.588,3.9624 -3.2512,0 -5.588,-2.4892 -6.858,-3.81 -0.7112,-0.6604 -3.0988,-3.4036 -3.8608,-4.2672 1.3716,-1.4224 6.6548,-9.144 7.0104,-9.7028 0.8128,-1.27 1.3208,-1.4732 3.8608,-1.4732 h 0.8636 c 0.3048,0 0.3556,-0.1524 0.3556,-0.3556 v -1.0668 c 0,-0.2032 -0.0508,-0.3556 -0.3556,-0.3556 -0.3048,0 -3.3528,0.1524 -5.2324,0.1524 -1.7272,0 -4.4704,-0.1524 -4.9276,-0.1524 -0.3048,0 -0.3556,0.1016 -0.3556,0.254 v 1.1176 c 0,0.2032 0.0508,0.3556 0.3556,0.3556 h 0.8636 c 1.0668,0 1.6764,0.762 1.5748,1.5748 -0.1524,1.4732 -3.4036,6.2484 -5.0292,8.2804 -2.5908,-3.7084 -7.1628,-8.0264 -10.7188,-9.906 2.1844,-1.1176 5.4864,-4.368798 5.588,-7.010398 0.1016,-3.4036 -3.302,-7.0612 -7.112,-7.0612 -2.9972,0 -8.2296,4.6736 -8.2296,8.6868 0,1.8288 1.778,4.317998 5.2832,6.349998 -2.0828,1.1684 -4.1656,2.4892 -5.8928,4.1656 -2.032,1.9304 -4.1148,4.9276 -4.1148,8.5852 0,5.842 5.7912,8.9408 10.668,8.9408 6.5024,0 10.16,-5.0292 12.6492,-8.0772 2.1844,2.794 5.4356,8.0772 10.922,8.0772 z m -21.6408,-3.048 c -3.9116,0 -8.3312,-3.4036 -8.4328,-7.62 -0.1016,-4.1656 3.1496,-7.9248 6.858,-9.9568 4.7752,2.6924 8.8392,8.0772 11.176,11.3792 -1.3208,1.524 -4.6228,6.1976 -9.6012,6.1976 z m 0.3556,-31.851598 c 2.54,0 4.1148,3.3528 4.1148,5.08 0,3.911599 -2.3876,5.435598 -3.6576,6.400798 -2.3876,-1.4732 -5.1816,-3.708398 -5.1816,-5.587998 0,-2.9464 2.2352,-5.8928 4.7244,-5.8928 z"
         style="font-style:normal;font-variant:normal;font-weight:normal;font-stretch:normal;font-size:50.79999924px;font-family:'Adobe Caslon Pro';-inkscape-font-specification:'Adobe Caslon Pro, Normal';font-variant-ligatures:normal;font-variant-caps:normal;font-variant-numeric:normal;font-feature-settings:normal;text-align:center;writing-mode:lr-tb;text-anchor:middle;stroke-width:0.26458332"
         id="path2004" />
      <path
         d="m 128.4976,167.06103 c 0,0.9652 0,16.5608 -0.1524,18.034 -0.0508,0.6096 -0.6604,1.2192 -1.6764,1.2192 h -3.4544 c -0.3048,0 -0.3556,0.1524 -0.3556,0.508 v 0.9652 c 0,0.3048 0.0508,0.508 0.4572,0.508 0.7112,0 2.8448,-0.1524 7.7216,-0.1524 4.9784,0 6.604,0.1524 7.112,0.1524 0.4572,0 0.508,-0.1524 0.508,-0.4064 v -1.0668 c 0,-0.3556 -0.0508,-0.508 -0.508,-0.508 h -3.2004 c -1.2192,0 -1.6256,-0.762 -1.7272,-2.032 -0.0508,-0.8636 -0.0508,-15.0876 -0.0508,-15.7988 v -14.478 h 1.4224 c 2.4892,0 7.2644,0.1016 8.7884,0.8636 1.6764,0.8128 3.2004,4.7244 3.6068,5.6896 0.1524,0.3556 0.2032,0.4064 0.4064,0.3556 l 0.8128,-0.2032 c 0.254,-0.0508 0.3556,-0.1524 0.3048,-0.4064 -0.4064,-2.2352 -1.3716,-8.5344 -1.4732,-9.144 -0.1016,-0.6604 -0.2032,-0.8128 -0.4572,-0.8128 -0.2032,0 -0.3556,0.0508 -0.6096,0.2032 l -0.9652,0.6096 c -0.8636,0.508 -1.524,0.6604 -2.6416,0.7112 -2.4892,0.1016 -4.6736,0.3048 -10.2108,0.3048 h -2.4384 c -4.7752,0 -6.9088,-0.2032 -9.6012,-0.3048 -1.4732,-0.0508 -1.9812,-0.2032 -2.8956,-0.8636 l -0.6604,-0.4572 c -0.2032,-0.1524 -0.3556,-0.2032 -0.6096,-0.2032 -0.2032,0 -0.4064,0.1524 -0.508,0.8128 -0.1016,0.5588 -1.8796,7.112 -2.3876,8.9408 -0.1016,0.3048 0.0508,0.3556 0.2032,0.4064 l 0.9144,0.254 c 0.254,0.0508 0.4064,0 0.508,-0.254 0.7112,-1.6256 2.2352,-5.1816 4.5212,-5.8928 1.9812,-0.6096 6.4008,-0.6096 8.0264,-0.6096 h 1.27 z"
         style="font-style:normal;font-variant:normal;font-weight:normal;font-stretch:normal;font-size:50.79999924px;font-family:'Adobe Caslon Pro';-inkscape-font-specification:'Adobe Caslon Pro, Normal';font-variant-ligatures:normal;font-variant-caps:normal;font-variant-numeric:normal;font-feature-settings:normal;text-align:center;writing-mode:lr-tb;text-anchor:middle;stroke-width:0.26458332"
         id="path2006" />
      <path
         d="m 161.7327,179.10063 v -7.7724 c 0,-1.3716 -0.0508,-2.54 -1.1176,-3.6068 -0.7112,-0.6604 -1.6764,-1.3716 -4.064,-1.3716 -2.286,0 -4.064,0.508 -6.1976,1.778 -2.0828,1.2192 -3.5052,3.1496 -3.5052,4.7752 0,1.1684 0.4064,1.6256 1.2192,1.6256 2.0828,0 2.6924,-1.1176 2.6924,-2.8956 0,-0.9144 -0.4572,-1.6764 0.254,-2.3368 0.7112,-0.6604 2.286,-1.0668 3.302,-1.0668 1.4732,0 2.4892,0.4572 3.048,1.1176 0.5588,0.6604 0.6096,1.9812 0.7112,2.8448 v 3.2512 c -0.8128,0.7112 -3.4544,1.9304 -5.7404,2.9464 -4.0132,1.778 -5.08,3.81 -5.08,6.1468 0,3.2004 1.8288,4.2164 3.048,4.2164 1.1176,0 2.032,0 2.9972,-0.3048 2.286,-0.762 3.9624,-1.8288 5.0292,-3.0988 h 0.1016 c 0.4572,2.0828 1.778,3.4036 3.6068,3.4036 2.5908,0 3.556,-1.7272 3.9624,-2.4892 0.3048,-0.508 0.2032,-0.762 0.0508,-0.9144 l -0.508,-0.4064 c -0.2032,-0.1524 -0.3048,-0.0508 -0.508,0.2032 -0.254,0.3556 -0.9652,0.762 -1.778,0.762 -0.9144,0 -1.524,-0.9144 -1.524,-3.81 z m -3.7084,4.1148 c 0,1.3716 -2.6924,3.1496 -4.1656,3.1496 -1.524,0 -2.6416,-0.9144 -2.6416,-2.794 0,-4.2164 4.9784,-5.2324 6.8072,-6.604 z"
         style="font-style:normal;font-variant:normal;font-weight:normal;font-stretch:normal;font-size:50.79999924px;font-family:'Adobe Caslon Pro';-inkscape-font-specification:'Adobe Caslon Pro, Normal';font-variant-ligatures:normal;font-variant-caps:normal;font-variant-numeric:normal;font-feature-settings:normal;text-align:center;writing-mode:lr-tb;text-anchor:middle;stroke-width:0.26458332"
         id="path2008" />
      <path
         d="m 185.39201,185.60303 c 0,0.6604 -0.3048,0.8636 -1.1176,0.8636 h -1.4732 c -0.4572,0 -0.508,0.1016 -0.508,0.508 v 0.8128 c 0,0.3556 0.1016,0.508 0.3556,0.508 0.3048,0 2.032,-0.1524 4.7752,-0.1524 2.8448,0 4.1656,0.1524 4.5212,0.1524 0.254,0 0.3556,-0.1524 0.3556,-0.5588 v -0.8128 c 0,-0.3556 -0.1016,-0.4572 -0.5588,-0.4572 h -1.7272 c -0.762,0 -1.016,-0.508 -1.016,-1.1684 v -8.7884 c 0,-2.286 -0.0508,-3.6576 0.7112,-5.1308 0.8128,-1.4732 2.8956,-2.6416 4.4196,-2.6416 1.524,0 2.8448,0.3556 3.7592,1.0668 1.1684,0.9144 1.4732,2.3876 1.4732,4.064 v 7.5184 c 0,1.1176 0,2.9464 -0.1016,4.1148 -0.0508,0.7112 -0.4572,0.9652 -1.016,0.9652 h -1.27 c -0.5588,0 -0.6604,0.1016 -0.6604,0.4572 v 0.8636 c 0,0.3556 0.1016,0.508 0.4064,0.508 0.3556,0 2.1844,-0.1524 4.7244,-0.1524 2.4384,0 3.8608,0.1524 4.2164,0.1524 0.254,0 0.3556,-0.1524 0.3556,-0.508 v -0.8636 c 0,-0.3556 -0.1016,-0.4572 -0.5588,-0.4572 h -1.3716 c -0.6096,0 -1.0668,-0.254 -1.0668,-1.016 v -11.3284 c 0,-3.9116 -1.27,-5.0292 -2.4384,-6.2484 -1.2192,-1.2192 -2.794,-1.524 -4.572,-1.524 -3.048,0 -5.9436,1.9304 -7.4676,3.9116 h -0.254 c -1.0668,-2.3876 -3.0988,-3.9116 -5.7404,-3.9116 -2.9464,0 -5.9436,1.778 -7.4676,3.8608 h -0.1524 l -0.2032,-2.9464 c 0,-0.3556 -0.1524,-0.7112 -0.4572,-0.7112 -0.2032,0 -0.5588,0.1016 -0.9652,0.3048 l -4.4704,2.286 c -0.1016,0.0508 -0.3048,0.254 -0.3048,0.4064 v 0.4064 c 0,0.1524 0.1016,0.254 0.3556,0.4064 l 1.0668,0.5588 c 1.2192,0.6604 1.4224,1.5748 1.4224,2.5908 v 9.0424 c 0,0.8636 0,1.778 -0.0508,2.6416 -0.0508,0.9652 -0.3048,1.27 -0.762,1.27 h -1.7272 c -0.508,0 -0.6096,0.0508 -0.6096,0.4572 v 0.9144 c 0,0.3556 0.1016,0.4572 0.4064,0.4572 0.4064,0 2.032,-0.1524 4.7244,-0.1524 2.794,0 4.1656,0.1524 4.6228,0.1524 0.3556,0 0.4064,-0.2032 0.4064,-0.5588 v -0.8128 c 0,-0.3556 -0.0508,-0.4572 -0.508,-0.4572 h -1.8288 c -0.7112,0 -1.016,-0.508 -1.016,-1.3208 v -10.0584 c 0,-1.4224 0.1016,-2.3876 0.7112,-3.4036 1.4224,-2.286 3.556,-2.9464 4.8768,-2.9464 1.1176,0 2.5908,0.3048 3.2512,0.9144 0.8128,0.762 1.524,1.7272 1.524,5.4864 z"
         style="font-style:normal;font-variant:normal;font-weight:normal;font-stretch:normal;font-size:50.79999924px;font-family:'Adobe Caslon Pro';-inkscape-font-specification:'Adobe Caslon Pro, Normal';font-variant-ligatures:normal;font-variant-caps:normal;font-variant-numeric:normal;font-feature-settings:normal;text-align:center;writing-mode:lr-tb;text-anchor:middle;stroke-width:0.26458332"
         id="path2010" />
      <path
         d="m 224.43895,179.10063 v -7.7724 c 0,-1.3716 -0.0508,-2.54 -1.1176,-3.6068 -0.7112,-0.6604 -1.6764,-1.3716 -4.064,-1.3716 -2.286,0 -4.064,0.508 -6.1976,1.778 -2.0828,1.2192 -3.5052,3.1496 -3.5052,4.7752 0,1.1684 0.4064,1.6256 1.2192,1.6256 2.0828,0 2.6924,-1.1176 2.6924,-2.8956 0,-0.9144 -0.4572,-1.6764 0.254,-2.3368 0.7112,-0.6604 2.286,-1.0668 3.302,-1.0668 1.4732,0 2.4892,0.4572 3.048,1.1176 0.5588,0.6604 0.6096,1.9812 0.7112,2.8448 v 3.2512 c -0.8128,0.7112 -3.4544,1.9304 -5.7404,2.9464 -4.0132,1.778 -5.08,3.81 -5.08,6.1468 0,3.2004 1.8288,4.2164 3.048,4.2164 1.1176,0 2.032,0 2.9972,-0.3048 2.286,-0.762 3.9624,-1.8288 5.0292,-3.0988 h 0.1016 c 0.4572,2.0828 1.778,3.4036 3.6068,3.4036 2.5908,0 3.556,-1.7272 3.9624,-2.4892 0.3048,-0.508 0.2032,-0.762 0.0508,-0.9144 l -0.508,-0.4064 c -0.2032,-0.1524 -0.3048,-0.0508 -0.508,0.2032 -0.254,0.3556 -0.9652,0.762 -1.778,0.762 -0.9144,0 -1.524,-0.9144 -1.524,-3.81 z m -3.7084,4.1148 c 0,1.3716 -2.6924,3.1496 -4.1656,3.1496 -1.524,0 -2.6416,-0.9144 -2.6416,-2.794 0,-4.2164 4.9784,-5.2324 6.8072,-6.604 z"
         style="font-style:normal;font-variant:normal;font-weight:normal;font-stretch:normal;font-size:50.79999924px;font-family:'Adobe Caslon Pro';-inkscape-font-specification:'Adobe Caslon Pro, Normal';font-variant-ligatures:normal;font-variant-caps:normal;font-variant-numeric:normal;font-feature-settings:normal;text-align:center;writing-mode:lr-tb;text-anchor:middle;stroke-width:0.26458332"
         id="path2012" />
      <path
         d="m 234.02666,179.40543 c 0,2.6416 0,4.4196 -0.0508,6.096 0,0.6604 -0.3556,0.9652 -1.1176,0.9652 h -1.9812 c -0.4572,0 -0.5588,0.1016 -0.5588,0.4572 v 0.8636 c 0,0.4064 0.1016,0.508 0.3048,0.508 0.3048,0 2.4384,-0.1524 5.588,-0.1524 2.7432,0 5.08,0.1524 5.3848,0.1524 0.2032,0 0.254,-0.1524 0.254,-0.4572 v -0.9144 c 0,-0.3048 -0.0508,-0.4572 -0.3556,-0.4572 h -2.3876 c -1.0668,0 -1.4224,-0.508 -1.4224,-2.0828 v -10.668 c 0,-0.1524 0.2032,-1.0668 0.508,-1.6256 0.8636,-1.6256 2.1844,-2.1336 2.9972,-2.1336 0.6604,0 1.27,0.1524 1.6764,0.4064 0.4064,0.2032 0.9144,0.4064 1.4732,0.4064 0.9144,0 2.1336,-1.016 2.1336,-2.4892 0,-1.1684 -0.8636,-2.2352 -2.5908,-2.2352 -2.1844,0 -4.572,2.0828 -6.096,4.4196 h -0.2032 l -0.254,-3.5052 c 0,-0.3048 -0.0508,-0.6096 -0.3556,-0.6096 -0.2032,0 -0.4064,0.0508 -0.7112,0.2032 l -5.0292,2.5908 c -0.3048,0.1524 -0.4064,0.254 -0.4064,0.4572 v 0.3048 c 0,0.2032 0.1016,0.254 0.4064,0.3556 l 0.9652,0.508 c 1.4224,0.762 1.8288,1.27 1.8288,3.8608 z"
         style="font-style:normal;font-variant:normal;font-weight:normal;font-stretch:normal;font-size:50.79999924px;font-family:'Adobe Caslon Pro';-inkscape-font-specification:'Adobe Caslon Pro, Normal';font-variant-ligatures:normal;font-variant-caps:normal;font-variant-numeric:normal;font-feature-settings:normal;text-align:center;writing-mode:lr-tb;text-anchor:middle;stroke-width:0.26458332"
         id="path2014" />
      <path
         d="m 263.8288,179.10063 v -7.7724 c 0,-1.3716 -0.0508,-2.54 -1.1176,-3.6068 -0.7112,-0.6604 -1.6764,-1.3716 -4.064,-1.3716 -2.286,0 -4.064,0.508 -6.1976,1.778 -2.0828,1.2192 -3.5052,3.1496 -3.5052,4.7752 0,1.1684 0.4064,1.6256 1.2192,1.6256 2.0828,0 2.6924,-1.1176 2.6924,-2.8956 0,-0.9144 -0.4572,-1.6764 0.254,-2.3368 0.7112,-0.6604 2.286,-1.0668 3.302,-1.0668 1.4732,0 2.4892,0.4572 3.048,1.1176 0.5588,0.6604 0.6096,1.9812 0.7112,2.8448 v 3.2512 c -0.8128,0.7112 -3.4544,1.9304 -5.7404,2.9464 -4.0132,1.778 -5.08,3.81 -5.08,6.1468 0,3.2004 1.8288,4.2164 3.048,4.2164 1.1176,0 2.032,0 2.9972,-0.3048 2.286,-0.762 3.9624,-1.8288 5.0292,-3.0988 h 0.1016 c 0.4572,2.0828 1.778,3.4036 3.6068,3.4036 2.5908,0 3.556,-1.7272 3.9624,-2.4892 0.3048,-0.508 0.2032,-0.762 0.0508,-0.9144 l -0.508,-0.4064 c -0.2032,-0.1524 -0.3048,-0.0508 -0.508,0.2032 -0.254,0.3556 -0.9652,0.762 -1.778,0.762 -0.9144,0 -1.524,-0.9144 -1.524,-3.81 z m -3.7084,4.1148 c 0,1.3716 -2.6924,3.1496 -4.1656,3.1496 -1.524,0 -2.6416,-0.9144 -2.6416,-2.794 0,-4.2164 4.9784,-5.2324 6.8072,-6.604 z"
         style="font-style:normal;font-variant:normal;font-weight:normal;font-stretch:normal;font-size:50.79999924px;font-family:'Adobe Caslon Pro';-inkscape-font-specification:'Adobe Caslon Pro, Normal';font-variant-ligatures:normal;font-variant-caps:normal;font-variant-numeric:normal;font-feature-settings:normal;text-align:center;writing-mode:lr-tb;text-anchor:middle;stroke-width:0.26458332"
         id="path2016" />
    </g>
  </g>
</svg>
