<?xml version="1.0" encoding="UTF-8" standalone="no"?>
<!-- Created with Inkscape (http://www.inkscape.org/) -->

<svg
   xmlns:dc="http://purl.org/dc/elements/1.1/"
   xmlns:cc="http://creativecommons.org/ns#"
   xmlns:rdf="http://www.w3.org/1999/02/22-rdf-syntax-ns#"
   xmlns:svg="http://www.w3.org/2000/svg"
   xmlns="http://www.w3.org/2000/svg"
   xmlns:sodipodi="http://sodipodi.sourceforge.net/DTD/sodipodi-0.dtd"
   xmlns:inkscape="http://www.inkscape.org/namespaces/inkscape"
   width="40mm"
   height="40mm"
   viewBox="0 0 141.73228 141.73228"
   id="svg7366"
   version="1.1"
   inkscape:version="0.91 r13725"
   sodipodi:docname="Alyssa.svg">
  <defs
     id="defs7368" />
  <sodipodi:namedview
     id="base"
     pagecolor="#ffffff"
     bordercolor="#666666"
     borderopacity="1.0"
     inkscape:pageopacity="0.0"
     inkscape:pageshadow="2"
     inkscape:zoom="1.4"
     inkscape:cx="40.546793"
     inkscape:cy="-43.453103"
     inkscape:document-units="px"
     inkscape:current-layer="layer1"
     showgrid="false"
     inkscape:window-width="1920"
     inkscape:window-height="1137"
     inkscape:window-x="1912"
     inkscape:window-y="-8"
     inkscape:window-maximized="1" />
  <metadata
     id="metadata7371">
    <rdf:RDF>
      <cc:Work
         rdf:about="">
        <dc:format>image/svg+xml</dc:format>
        <dc:type
           rdf:resource="http://purl.org/dc/dcmitype/StillImage" />
        <dc:title></dc:title>
      </cc:Work>
    </rdf:RDF>
  </metadata>
  <g
     inkscape:label="Layer 1"
     inkscape:groupmode="layer"
     id="layer1"
     transform="translate(0,-910.62992)">
    <path
       style="font-style:normal;font-weight:normal;font-size:40px;line-height:125%;font-family:sans-serif;text-align:center;letter-spacing:0px;word-spacing:0px;text-anchor:middle;fill:#000000;fill-opacity:1;stroke:none;stroke-width:1px;stroke-linecap:butt;stroke-linejoin:miter;stroke-opacity:1"
       d="m 63.102445,941.92385 c -1.2368,0.70288 -4.0611,3.56962 -1.5429,4.10547 1.2116,-0.51114 2.041,-2.93165 2.1421,-0.2123 1.122,8.25556 1.0499,17.05015 1.643,25.05409 1.6114,1.35807 2.2814,-1.86469 1.7754,-3.16992 -0.4558,-8.08999 -0.3289,-16.24802 -1.9375,-24.21094 -0.1982,-0.92063 -1.01,-2.1516 -2.0801,-1.5664 z m 13.115302,2.08398 c -3.3498,0.12753 -3.8887,4.3502 -4.2618,7.04297 0.2772,5.7396 -0.3337,12.05332 2.5762,17.23438 1.4156,2.55988 5.2385,2.56657 6.377,-0.20118 1.626,-5.05416 0.4091,-10.61439 0.3535,-15.83398 -0.1065,-3.2413 -1.0062,-8.02029 -5.0449,-8.24219 z m 0.2148,1.97461 c 3.5544,1.61986 2.5581,6.6789 3.1442,9.8937 -0.2764,4.00077 1.1155,8.66471 -1.0778,12.23911 -2.8683,0.78032 -3.5778,-3.70067 -3.8691,-5.75195 -0.3558,-5.22303 -1.9722,-11.28457 0.8418,-16.0039 0.298,-0.15357 0.5991,-0.45344 0.9609,-0.37696 z M 51.350545,991.9551 c -2.4691,0.61972 -0.089,4.30988 -0.735,6.01693 0.5043,7.55807 0.2622,15.37837 0.733,22.81317 1.6051,0.8654 4.1988,0.667 5.9688,0.055 1.1582,-2.4682 -2.9574,-1.516 -4.2012,-1.623 -0.02,-8.9371 -0.1938,-18.0985 -0.9395,-26.88084 -0.1915,-0.26741 -0.4924,-0.4314 -0.8261,-0.38086 z m -12.5547,1.38867 c -2.6622,1.21678 -1.58,5.19797 -2.2476,7.56643 -0.4706,6.4622 -0.2915,12.9707 -0.7837,19.4043 0.3141,1.5723 2.8671,0.6954 1.9922,-0.7149 0.3056,-3.2588 0.418,-6.8242 0.6817,-9.8984 2.5938,-1.0014 4.3013,-0.3487 3.9629,2.6465 0.6039,2.7577 0.4767,5.6747 1.4062,8.3574 2.7389,0.033 1.0828,-3.6545 1.1426,-5.3008 -1.2569,-7.0908 -1.236,-14.8315 -4.7695,-21.25975 -0.358,-0.35995 -0.8316,-0.88165 -1.3848,-0.80078 z m 60.703102,0 c -2.6622,1.21678 -1.58,5.19797 -2.2476,7.56643 -0.4706,6.4622 -0.2915,12.9707 -0.7836,19.4043 0.314,1.5723 2.867,0.6954 1.9922,-0.7149 0.3055,-3.2588 0.4179,-6.8242 0.6816,-9.8984 2.593803,-1.0014 4.301403,-0.3487 3.962903,2.6465 0.604,2.7577 0.4767,5.6747 1.4062,8.3574 2.7389,0.033 1.0828,-3.6545 1.1426,-5.3008 -1.2569,-7.0908 -1.236,-14.8315 -4.7695,-21.25975 -0.3579,-0.35995 -0.8316,-0.88165 -1.384803,-0.80078 z m -20.6543,0.26758 c -2.8928,-0.36325 -5.6538,1.67015 -5.6015,4.72265 -0.7601,4.24 1.4539,8.407 4.9531,10.7363 2.432,2.3998 3.3158,7.5122 0.3574,9.6934 -1.6011,-0.2684 -3.5255,2.0726 -1.1699,2.4375 4.9925,-0.4996 5.943,-6.8143 4.1484,-10.6016 -1.5525,-3.7878 -6.5326,-5.3662 -6.4277,-9.9629 -0.2393,-2.3529 0.5799,-5.94434 3.8105,-5.02535 0.9938,-0.38092 1.1056,-1.85172 -0.07,-2 z m 11.1719,0 c -2.8929,-0.36325 -5.6538,1.67015 -5.6016,4.72265 -0.76,4.24 1.4539,8.407 4.9532,10.7363 2.432,2.3998 3.3158,7.5122 0.3574,9.6934 -1.6011,-0.2684 -3.5256,2.0726 -1.1699,2.4375 4.9925,-0.4996 5.943,-6.8143 4.1484,-10.6016 -1.5525,-3.7878 -6.5326,-5.3662 -6.4277,-9.9629 -0.2393,-2.3529 0.5799,-5.94434 3.8105,-5.02535 0.9938,-0.38092 1.1056,-1.85172 -0.07,-2 z m -20.957,0.86133 c -1.338302,2.44361 -0.8832,5.96632 -1.527402,8.80462 -1.491,-2.6727 -3.1734,-5.42588 -5.1777,-7.65423 -2.4425,-0.11759 -0.9465,2.78441 0.2012,3.43554 2.4025,3.64079 5.614502,7.45019 4.1407,12.06059 0.1194,3.2082 -1.3872,6.8768 -0.3849,9.8632 2.329602,0.9814 1.5149,-3.0451 1.914102,-4.3926 0.3583,-7.2874 1.7057,-14.4151 2.1328,-21.63861 -0.2348,-0.46412 -0.8244,-0.77837 -1.2988,-0.47851 z m -29.800802,2.10156 c 0.977,3.51376 2.0653,6.96026 2.5351,10.58196 -1.3714,-0.2481 -4.1423,1.4169 -3.4433,-0.8691 0.058,-3.096 0.1012,-7.2882 0.9082,-9.71286 z m 60.703102,0 c 0.977003,3.51376 2.065303,6.96026 2.535203,10.58196 -1.3715,-0.2481 -4.142403,1.4169 -3.443403,-0.8691 0.058,-3.096 0.1012,-7.2882 0.9082,-9.71286 z"
       id="text4740-7-0"
       inkscape:connector-curvature="0" />
    <g
       transform="translate(-159.44882,1.4648496e-5)"
       id="g4583-3-8">
      <ellipse
         ry="70.650627"
         rx="70.65062"
         cy="981.49603"
         cx="230.31497"
         id="path4250-8-6-7"
         style="opacity:1;fill:none;fill-opacity:1;stroke:#ff0000;stroke-width:0.43105793;stroke-linejoin:miter;stroke-miterlimit:4;stroke-dasharray:none;stroke-opacity:1" />
      <circle
         r="3.4138503"
         cy="924.80316"
         cx="230.31496"
         id="path4328-69-2-2"
         style="opacity:1;fill:none;fill-opacity:1;stroke:#ff0000;stroke-width:0.25891346;stroke-linejoin:miter;stroke-miterlimit:4;stroke-dasharray:none;stroke-opacity:1" />
      <circle
         r="3.4138503"
         cy="1038.189"
         cx="230.31496"
         id="path4328-6-0-8-4"
         style="opacity:1;fill:none;fill-opacity:1;stroke:#ff0000;stroke-width:0.25891346;stroke-linejoin:miter;stroke-miterlimit:4;stroke-dasharray:none;stroke-opacity:1" />
    </g>
  </g>
</svg>
