  0
SECTION
  2
HEADER
  9
$ACADVER
  1
AC1014
  9
$HANDSEED
  5
FFFF
  9
$MEASUREMENT
 70
     1
  0
ENDSEC
  0
SECTION
  2
TABLES
  0
TABLE
  2
VPORT
  5
8
330
0
100
AcDbSymbolTable
 70
     4
  0
VPORT
  5
2E
330
8
100
AcDbSymbolTableRecord
100
AcDbViewportTableRecord
  2
*ACTIVE
 70
     0
 10
0.0
 20
0.0
 11
1.0
 21
1.0
 12
210.0
 22
148.5
 13
0.0
 23
0.0
 14
10.0
 24
10.0
 15
10.0
 25
10.0
 16
0.0
 26
0.0
 36
1.0
 17
0.0
 27
0.0
 37
0.0
 40
341.0
 41
1.24
 42
50.0
 43
0.0
 44
0.0
 50
0.0
 51
0.0
 71
     0
 72
   100
 73
     1
 74
     3
 75
     0
 76
     0
 77
     0
 78
     0
  0
ENDTAB
  0
TABLE
  2
LTYPE
  5
5
330
0
100
AcDbSymbolTable
 70
     1
  0
LTYPE
  5
14
330
5
100
AcDbSymbolTableRecord
100
AcDbLinetypeTableRecord
  2
BYBLOCK
 70
     0
  3

 72
    65
 73
     0
 40
0.0
  0
LTYPE
  5
15
330
5
100
AcDbSymbolTableRecord
100
AcDbLinetypeTableRecord
  2
BYLAYER
 70
     0
  3

 72
    65
 73
     0
 40
0.0
  0
LTYPE
  5
16
330
5
100
AcDbSymbolTableRecord
100
AcDbLinetypeTableRecord
  2
CONTINUOUS
 70
     0
  3
Solid line
 72
    65
 73
     0
 40
0.0
  0
ENDTAB
  0
TABLE
  2
LAYER
  5
2
100
AcDbSymbolTable
 70
2
  0
LAYER
  5
50
100
AcDbSymbolTableRecord
100
AcDbLayerTableRecord
  2
0
 70
0
  6
CONTINUOUS
  0
LAYER
  5
51
100
AcDbSymbolTableRecord
100
AcDbLayerTableRecord
  2
Layer_1
 70
0
  6
CONTINUOUS
  0
ENDTAB
  0
TABLE
  2
STYLE
  5
3
330
0
100
AcDbSymbolTable
 70
     1
  0
STYLE
  5
11
330
3
100
AcDbSymbolTableRecord
100
AcDbTextStyleTableRecord
  2
STANDARD
 70
     0
 40
0.0
 41
1.0
 50
0.0
 71
     0
 42
2.5
  3
txt
  4

  0
ENDTAB
  0
TABLE
  2
VIEW
  5
6
330
0
100
AcDbSymbolTable
 70
     0
  0
ENDTAB
  0
TABLE
  2
UCS
  5
7
330
0
100
AcDbSymbolTable
 70
     0
  0
ENDTAB
  0
TABLE
  2
APPID
  5
9
330
0
100
AcDbSymbolTable
 70
     2
  0
APPID
  5
12
330
9
100
AcDbSymbolTableRecord
100
AcDbRegAppTableRecord
  2
ACAD
 70
     0
  0
ENDTAB
  0
TABLE
  2
DIMSTYLE
  5
A
330
0
100
AcDbSymbolTable
 70
     1
  0
DIMSTYLE
105
27
330
A
100
AcDbSymbolTableRecord
100
AcDbDimStyleTableRecord
  2
ISO-25
 70
     0
  3

  4

  5

  6

  7

 40
1.0
 41
2.5
 42
0.625
 43
3.75
 44
1.25
 45
0.0
 46
0.0
 47
0.0
 48
0.0
140
2.5
141
2.5
142
0.0
143
0.03937007874016
144
1.0
145
0.0
146
1.0
147
0.625
 71
     0
 72
     0
 73
     0
 74
     0
 75
     0
 76
     0
 77
     1
 78
     8
170
     0
171
     3
172
     1
173
     0
174
     0
175
     0
176
     0
177
     0
178
     0
270
     2
271
     2
272
     2
273
     2
274
     3
340
11
275
     0
280
     0
281
     0
282
     0
283
     0
284
     8
285
     0
286
     0
287
     3
288
     0
  0
ENDTAB
  0
TABLE
  2
BLOCK_RECORD
  5
1
330
0
100
AcDbSymbolTable
 70
     1
  0
BLOCK_RECORD
  5
1F
330
1
100
AcDbSymbolTableRecord
100
AcDbBlockTableRecord
  2
*MODEL_SPACE
  0
BLOCK_RECORD
  5
1B
330
1
100
AcDbSymbolTableRecord
100
AcDbBlockTableRecord
  2
*PAPER_SPACE
  0
ENDTAB
  0
ENDSEC
  0
SECTION
  2
BLOCKS
  0
BLOCK
  5
20
330
1F
100
AcDbEntity
  8
0
100
AcDbBlockBegin
  2
*MODEL_SPACE
 70
     0
 10
0.0
 20
0.0
 30
0.0
  3
*MODEL_SPACE
  1

  0
ENDBLK
  5
21
330
1F
100
AcDbEntity
  8
0
100
AcDbBlockEnd
  0
BLOCK
  5
1C
330
1B
100
AcDbEntity
 67
     1
  8
0
100
AcDbBlockBegin
  2
*PAPER_SPACE
  1

  0
ENDBLK
  5
1D
330
1B
100
AcDbEntity
 67
     1
  8
0
100
AcDbBlockEnd
  0
ENDSEC
  0
SECTION
  2
ENTITIES
  0
LINE
  5
100
100
AcDbEntity
  8
Layer_1
 62
7
100
AcDbLine
 10
-13.113218
 20
422.864247
 30
0.0
 11
-32.577247
 21
404.640040
 31
0.0
  0
SPLINE
  5
101
100
AcDbEntity
  8
Layer_1
 62
7
100
AcDbSpline
 70
8
 71
3
 72
8
 73
4
 74
0
 40
0
 40
0
 40
0
 40
0
 40
1
 40
1
 40
1
 40
1
 10
-32.577247
 20
404.640040
 30
0.0
 10
-36.649508
 20
411.681209
 30
0.0
 10
-41.688069
 20
416.927571
 30
0.0
 10
-47.692929
 20
420.379125
 30
0.0
  0
SPLINE
  5
102
100
AcDbEntity
  8
Layer_1
 62
7
100
AcDbSpline
 70
8
 71
3
 72
8
 73
4
 74
0
 40
0
 40
0
 40
0
 40
0
 40
1
 40
1
 40
1
 40
1
 10
-47.692929
 20
420.379125
 30
0.0
 10
-53.697790
 20
423.899712
 30
0.0
 10
-59.978736
 20
425.660005
 30
0.0
 10
-66.535768
 20
425.660005
 30
0.0
  0
SPLINE
  5
103
100
AcDbEntity
  8
Layer_1
 62
7
100
AcDbSpline
 70
8
 71
3
 72
8
 73
4
 74
0
 40
0
 40
0
 40
0
 40
0
 40
1
 40
1
 40
1
 40
1
 10
-66.535768
 20
425.660005
 30
0.0
 10
-77.165061
 20
425.660005
 30
0.0
 10
-86.413926
 20
421.621687
 30
0.0
 10
-94.282363
 20
413.545049
 30
0.0
  0
SPLINE
  5
104
100
AcDbEntity
  8
Layer_1
 62
7
100
AcDbSpline
 70
8
 71
3
 72
8
 73
4
 74
0
 40
0
 40
0
 40
0
 40
0
 40
1
 40
1
 40
1
 40
1
 10
-94.282363
 20
413.545049
 30
0.0
 10
-102.081778
 20
405.468412
 30
0.0
 10
-105.981486
 20
395.942122
 30
0.0
 10
-105.981486
 20
384.966179
 30
0.0
  0
SPLINE
  5
105
100
AcDbEntity
  8
Layer_1
 62
7
100
AcDbSpline
 70
8
 71
3
 72
8
 73
4
 74
0
 40
0
 40
0
 40
0
 40
0
 40
1
 40
1
 40
1
 40
1
 10
-105.981486
 20
384.966179
 30
0.0
 10
-105.981486
 20
373.299928
 30
0.0
 10
-102.081778
 20
363.393968
 30
0.0
 10
-94.282363
 20
355.248298
 30
0.0
  0
SPLINE
  5
106
100
AcDbEntity
  8
Layer_1
 62
7
100
AcDbSpline
 70
8
 71
3
 72
8
 73
4
 74
0
 40
0
 40
0
 40
0
 40
0
 40
1
 40
1
 40
1
 40
1
 10
-94.282363
 20
355.248298
 30
0.0
 10
-86.413926
 20
347.171663
 30
0.0
 10
-76.957996
 20
343.133346
 30
0.0
 10
-65.914574
 20
343.133346
 30
0.0
  0
SPLINE
  5
107
100
AcDbEntity
  8
Layer_1
 62
7
100
AcDbSpline
 70
8
 71
3
 72
8
 73
4
 74
0
 40
0
 40
0
 40
0
 40
0
 40
1
 40
1
 40
1
 40
1
 10
-65.914574
 20
343.133346
 30
0.0
 10
-59.909714
 20
343.133346
 30
0.0
 10
-54.146429
 20
344.652029
 30
0.0
 10
-48.624720
 20
347.689397
 30
0.0
  0
SPLINE
  5
108
100
AcDbEntity
  8
Layer_1
 62
7
100
AcDbSpline
 70
8
 71
3
 72
8
 73
4
 74
0
 40
0
 40
0
 40
0
 40
0
 40
1
 40
1
 40
1
 40
1
 10
-48.624720
 20
347.689397
 30
0.0
 10
-43.033987
 20
350.726764
 30
0.0
 10
-38.547596
 20
356.421828
 30
0.0
 10
-35.165549
 20
364.774588
 30
0.0
  0
LINE
  5
109
100
AcDbEntity
  8
Layer_1
 62
7
100
AcDbLine
 10
-35.165549
 20
364.774588
 30
0.0
 11
-67.364025
 21
364.774588
 31
0.0
  0
LINE
  5
10a
100
AcDbEntity
  8
Layer_1
 62
7
100
AcDbLine
 10
-67.364025
 20
364.774588
 30
0.0
 11
-67.364025
 21
391.282526
 31
0.0
  0
LINE
  5
10b
100
AcDbEntity
  8
Layer_1
 62
7
100
AcDbLine
 10
-67.364025
 20
391.282526
 30
0.0
 11
-4.623588
 21
391.282526
 31
0.0
  0
LINE
  5
10c
100
AcDbEntity
  8
Layer_1
 62
7
100
AcDbLine
 10
-4.623588
 20
391.282526
 30
0.0
 11
-4.623588
 21
373.679597
 31
0.0
  0
SPLINE
  5
10d
100
AcDbEntity
  8
Layer_1
 62
7
100
AcDbSpline
 70
8
 71
3
 72
8
 73
4
 74
0
 40
0
 40
0
 40
0
 40
0
 40
1
 40
1
 40
1
 40
1
 10
-4.623588
 20
373.679597
 30
0.0
 10
-4.623588
 20
364.636526
 30
0.0
 10
-7.729551
 20
354.903143
 30
0.0
 10
-13.941476
 20
344.479450
 30
0.0
  0
SPLINE
  5
10e
100
AcDbEntity
  8
Layer_1
 62
7
100
AcDbSpline
 70
8
 71
3
 72
8
 73
4
 74
0
 40
0
 40
0
 40
0
 40
0
 40
1
 40
1
 40
1
 40
1
 10
-13.941476
 20
344.479450
 30
0.0
 10
-20.153401
 20
334.124788
 30
0.0
 10
-28.332434
 20
326.531369
 30
0.0
 10
-38.478575
 20
321.699193
 30
0.0
  0
SPLINE
  5
10f
100
AcDbEntity
  8
Layer_1
 62
7
100
AcDbSpline
 70
8
 71
3
 72
8
 73
4
 74
0
 40
0
 40
0
 40
0
 40
0
 40
1
 40
1
 40
1
 40
1
 10
-38.478575
 20
321.699193
 30
0.0
 10
-48.624719
 20
316.936048
 30
0.0
 10
-58.874394
 20
314.554476
 30
0.0
 10
-69.227600
 20
314.554476
 30
0.0
  0
SPLINE
  5
110
100
AcDbEntity
  8
Layer_1
 62
7
100
AcDbSpline
 70
8
 71
3
 72
8
 73
4
 74
0
 40
0
 40
0
 40
0
 40
0
 40
1
 40
1
 40
1
 40
1
 10
-69.227600
 20
314.554476
 30
0.0
 10
-88.001415
 20
314.554476
 30
0.0
 10
-103.841822
 20
321.354037
 30
0.0
 10
-116.748821
 20
334.953160
 30
0.0
  0
SPLINE
  5
111
100
AcDbEntity
  8
Layer_1
 62
7
100
AcDbSpline
 70
8
 71
3
 72
8
 73
4
 74
0
 40
0
 40
0
 40
0
 40
0
 40
1
 40
1
 40
1
 40
1
 10
-116.748821
 20
334.953160
 30
0.0
 10
-129.655818
 20
348.552284
 30
0.0
 10
-136.109317
 20
365.361354
 30
0.0
 10
-136.109317
 20
385.380368
 30
0.0
  0
SPLINE
  5
112
100
AcDbEntity
  8
Layer_1
 62
7
100
AcDbSpline
 70
8
 71
3
 72
8
 73
4
 74
0
 40
0
 40
0
 40
0
 40
0
 40
1
 40
1
 40
1
 40
1
 10
-136.109317
 20
385.380368
 30
0.0
 10
-136.109317
 20
404.363916
 30
0.0
 10
-129.483265
 20
420.586220
 30
0.0
 10
-116.231161
 20
434.047281
 30
0.0
  0
SPLINE
  5
113
100
AcDbEntity
  8
Layer_1
 62
7
100
AcDbSpline
 70
8
 71
3
 72
8
 73
4
 74
0
 40
0
 40
0
 40
0
 40
0
 40
1
 40
1
 40
1
 40
1
 10
-116.231161
 20
434.047281
 30
0.0
 10
-102.910034
 20
447.508342
 30
0.0
 10
-86.897074
 20
454.238872
 30
0.0
 10
-68.192279
 20
454.238872
 30
0.0
  0
SPLINE
  5
114
100
AcDbEntity
  8
Layer_1
 62
7
100
AcDbSpline
 70
8
 71
3
 72
8
 73
4
 74
0
 40
0
 40
0
 40
0
 40
0
 40
1
 40
1
 40
1
 40
1
 10
-68.192279
 20
454.238872
 30
0.0
 10
-44.310882
 20
454.238872
 30
0.0
 10
-25.951195
 20
443.780664
 30
0.0
 10
-13.113218
 20
422.864247
 30
0.0
  0
LINE
  5
115
100
AcDbEntity
  8
Layer_1
 62
7
100
AcDbLine
 10
-13.113218
 20
422.864247
 30
0.0
 11
-13.113218
 21
422.864247
 31
0.0
  0
LINE
  5
116
100
AcDbEntity
  8
Layer_1
 62
7
100
AcDbLine
 10
167.472925
 20
447.899741
 30
0.0
 11
196.675492
 21
447.899741
 31
0.0
  0
LINE
  5
117
100
AcDbEntity
  8
Layer_1
 62
7
100
AcDbLine
 10
196.675492
 20
447.899741
 30
0.0
 11
196.675492
 21
363.850775
 31
0.0
  0
SPLINE
  5
118
100
AcDbEntity
  8
Layer_1
 62
7
100
AcDbSpline
 70
8
 71
3
 72
8
 73
4
 74
0
 40
0
 40
0
 40
0
 40
0
 40
1
 40
1
 40
1
 40
1
 10
196.675492
 20
363.850775
 30
0.0
 10
196.675492
 20
356.035509
 30
0.0
 10
198.838645
 20
349.755387
 30
0.0
 10
203.164952
 20
345.010409
 30
0.0
  0
SPLINE
  5
119
100
AcDbEntity
  8
Layer_1
 62
7
100
AcDbSpline
 70
8
 71
3
 72
8
 73
4
 74
0
 40
0
 40
0
 40
0
 40
0
 40
1
 40
1
 40
1
 40
1
 10
203.164952
 20
345.010409
 30
0.0
 10
207.491259
 20
340.265427
 30
0.0
 10
213.178257
 20
337.892935
 30
0.0
 10
220.225946
 20
337.892935
 30
0.0
  0
SPLINE
  5
11a
100
AcDbEntity
  8
Layer_1
 62
7
100
AcDbSpline
 70
8
 71
3
 72
8
 73
4
 74
0
 40
0
 40
0
 40
0
 40
0
 40
1
 40
1
 40
1
 40
1
 10
220.225946
 20
337.892935
 30
0.0
 10
228.320328
 20
337.892935
 30
0.0
 10
234.600450
 20
340.265427
 30
0.0
 10
239.066312
 20
345.010409
 30
0.0
  0
SPLINE
  5
11b
100
AcDbEntity
  8
Layer_1
 62
7
100
AcDbSpline
 70
8
 71
3
 72
8
 73
4
 74
0
 40
0
 40
0
 40
0
 40
0
 40
1
 40
1
 40
1
 40
1
 10
239.066312
 20
345.010409
 30
0.0
 10
243.532179
 20
349.825168
 30
0.0
 10
245.765112
 20
356.593743
 30
0.0
 10
245.765112
 20
365.316137
 30
0.0
  0
LINE
  5
11c
100
AcDbEntity
  8
Layer_1
 62
7
100
AcDbLine
 10
245.765112
 20
365.316137
 30
0.0
 11
245.765112
 21
447.899741
 31
0.0
  0
LINE
  5
11d
100
AcDbEntity
  8
Layer_1
 62
7
100
AcDbLine
 10
245.765112
 20
447.899741
 30
0.0
 11
274.863009
 21
447.899741
 31
0.0
  0
LINE
  5
11e
100
AcDbEntity
  8
Layer_1
 62
7
100
AcDbLine
 10
274.863009
 20
447.899741
 30
0.0
 11
274.863009
 21
358.931347
 31
0.0
  0
SPLINE
  5
11f
100
AcDbEntity
  8
Layer_1
 62
7
100
AcDbSpline
 70
8
 71
3
 72
8
 73
4
 74
0
 40
0
 40
0
 40
0
 40
0
 40
1
 40
1
 40
1
 40
1
 10
274.863009
 20
358.931347
 30
0.0
 10
274.863009
 20
351.116081
 30
0.0
 10
272.839414
 20
342.986812
 30
0.0
 10
268.792223
 20
334.543539
 30
0.0
  0
SPLINE
  5
120
100
AcDbEntity
  8
Layer_1
 62
7
100
AcDbSpline
 70
8
 71
3
 72
8
 73
4
 74
0
 40
0
 40
0
 40
0
 40
0
 40
1
 40
1
 40
1
 40
1
 10
268.792223
 20
334.543539
 30
0.0
 10
264.745036
 20
326.170041
 30
0.0
 10
258.499804
 20
319.750361
 30
0.0
 10
250.056527
 20
315.284499
 30
0.0
  0
SPLINE
  5
121
100
AcDbEntity
  8
Layer_1
 62
7
100
AcDbSpline
 70
8
 71
3
 72
8
 73
4
 74
0
 40
0
 40
0
 40
0
 40
0
 40
1
 40
1
 40
1
 40
1
 10
250.056527
 20
315.284499
 30
0.0
 10
241.683029
 20
310.818632
 30
0.0
 10
232.297736
 20
308.585698
 30
0.0
 10
221.900648
 20
308.585698
 30
0.0
  0
SPLINE
  5
122
100
AcDbEntity
  8
Layer_1
 62
7
100
AcDbSpline
 70
8
 71
3
 72
8
 73
4
 74
0
 40
0
 40
0
 40
0
 40
0
 40
1
 40
1
 40
1
 40
1
 10
221.900648
 20
308.585698
 30
0.0
 10
203.060282
 20
308.585698
 30
0.0
 10
189.278902
 20
313.819133
 30
0.0
 10
180.556508
 20
324.286001
 30
0.0
  0
SPLINE
  5
123
100
AcDbEntity
  8
Layer_1
 62
7
100
AcDbSpline
 70
8
 71
3
 72
8
 73
4
 74
0
 40
0
 40
0
 40
0
 40
0
 40
1
 40
1
 40
1
 40
1
 10
180.556508
 20
324.286001
 30
0.0
 10
171.834120
 20
334.822654
 30
0.0
 10
167.472925
 20
345.882649
 30
0.0
 10
167.472925
 20
357.465986
 30
0.0
  0
LINE
  5
124
100
AcDbEntity
  8
Layer_1
 62
7
100
AcDbLine
 10
167.472925
 20
357.465986
 30
0.0
 11
167.472925
 21
447.899741
 31
0.0
  0
LINE
  5
125
100
AcDbEntity
  8
Layer_1
 62
7
100
AcDbLine
 10
167.472925
 20
447.899741
 30
0.0
 11
167.472925
 21
447.899741
 31
0.0
  0
LINE
  5
126
100
AcDbEntity
  8
Layer_1
 62
7
100
AcDbLine
 10
66.125491
 20
253.368876
 30
0.0
 11
144.530180
 21
253.368876
 31
0.0
  0
LINE
  5
127
100
AcDbEntity
  8
Layer_1
 62
7
100
AcDbLine
 10
144.530180
 20
253.368876
 30
0.0
 11
144.530180
 21
225.784005
 31
0.0
  0
LINE
  5
128
100
AcDbEntity
  8
Layer_1
 62
7
100
AcDbLine
 10
144.530180
 20
225.784005
 30
0.0
 11
96.150560
 21
225.784005
 31
0.0
  0
LINE
  5
129
100
AcDbEntity
  8
Layer_1
 62
7
100
AcDbLine
 10
96.150560
 20
225.784005
 30
0.0
 11
96.150560
 21
197.668655
 31
0.0
  0
LINE
  5
12a
100
AcDbEntity
  8
Layer_1
 62
7
100
AcDbLine
 10
96.150560
 20
197.668655
 30
0.0
 11
144.530180
 21
197.668655
 31
0.0
  0
LINE
  5
12b
100
AcDbEntity
  8
Layer_1
 62
7
100
AcDbLine
 10
144.530180
 20
197.668655
 30
0.0
 11
144.530180
 21
170.508164
 31
0.0
  0
LINE
  5
12c
100
AcDbEntity
  8
Layer_1
 62
7
100
AcDbLine
 10
144.530180
 20
170.508164
 30
0.0
 11
96.150560
 21
170.508164
 31
0.0
  0
LINE
  5
12d
100
AcDbEntity
  8
Layer_1
 62
7
100
AcDbLine
 10
96.150560
 20
170.508164
 30
0.0
 11
96.150560
 21
141.650143
 31
0.0
  0
LINE
  5
12e
100
AcDbEntity
  8
Layer_1
 62
7
100
AcDbLine
 10
96.150560
 20
141.650143
 30
0.0
 11
144.530180
 21
141.650143
 31
0.0
  0
LINE
  5
12f
100
AcDbEntity
  8
Layer_1
 62
7
100
AcDbLine
 10
144.530180
 20
141.650143
 30
0.0
 11
144.530180
 21
114.065274
 31
0.0
  0
LINE
  5
130
100
AcDbEntity
  8
Layer_1
 62
7
100
AcDbLine
 10
144.530180
 20
114.065274
 30
0.0
 11
66.125491
 21
114.065274
 31
0.0
  0
LINE
  5
131
100
AcDbEntity
  8
Layer_1
 62
7
100
AcDbLine
 10
66.125491
 20
114.065274
 30
0.0
 11
66.125491
 21
253.368876
 31
0.0
  0
LINE
  5
132
100
AcDbEntity
  8
Layer_1
 62
7
100
AcDbLine
 10
66.125491
 20
253.368876
 30
0.0
 11
66.125491
 21
253.368876
 31
0.0
  0
LINE
  5
133
100
AcDbEntity
  8
Layer_1
 62
7
100
AcDbLine
 10
26.353844
 20
454.330013
 30
0.0
 11
72.187527
 21
454.330013
 31
0.0
  0
SPLINE
  5
134
100
AcDbEntity
  8
Layer_1
 62
7
100
AcDbSpline
 70
8
 71
3
 72
8
 73
4
 74
0
 40
0
 40
0
 40
0
 40
0
 40
1
 40
1
 40
1
 40
1
 10
72.187527
 20
454.330013
 30
0.0
 10
86.121530
 20
454.330013
 30
0.0
 10
97.120198
 20
450.652001
 30
0.0
 10
105.183532
 20
443.295979
 30
0.0
  0
SPLINE
  5
135
100
AcDbEntity
  8
Layer_1
 62
7
100
AcDbSpline
 70
8
 71
3
 72
8
 73
4
 74
0
 40
0
 40
0
 40
0
 40
0
 40
1
 40
1
 40
1
 40
1
 10
105.183532
 20
443.295979
 30
0.0
 10
113.317597
 20
435.939956
 30
0.0
 10
117.384629
 20
426.002253
 30
0.0
 10
117.384629
 20
413.482871
 30
0.0
  0
SPLINE
  5
136
100
AcDbEntity
  8
Layer_1
 62
7
100
AcDbSpline
 70
8
 71
3
 72
8
 73
4
 74
0
 40
0
 40
0
 40
0
 40
0
 40
1
 40
1
 40
1
 40
1
 10
117.384629
 20
413.482871
 30
0.0
 10
117.384629
 20
406.339039
 30
0.0
 10
115.510258
 20
398.912285
 30
0.0
 10
111.761514
 20
391.202607
 30
0.0
  0
SPLINE
  5
137
100
AcDbEntity
  8
Layer_1
 62
7
100
AcDbSpline
 70
8
 71
3
 72
8
 73
4
 74
0
 40
0
 40
0
 40
0
 40
0
 40
1
 40
1
 40
1
 40
1
 10
111.761514
 20
391.202607
 30
0.0
 10
108.083503
 20
383.492928
 30
0.0
 10
101.257963
 20
377.445429
 30
0.0
 10
91.284894
 20
373.060107
 30
0.0
  0
LINE
  5
138
100
AcDbEntity
  8
Layer_1
 62
7
100
AcDbLine
 10
91.284894
 20
373.060107
 30
0.0
 11
130.222308
 21
315.025326
 31
0.0
  0
LINE
  5
139
100
AcDbEntity
  8
Layer_1
 62
7
100
AcDbLine
 10
130.222308
 20
315.025326
 30
0.0
 11
95.847044
 21
315.025326
 31
0.0
  0
LINE
  5
13a
100
AcDbEntity
  8
Layer_1
 62
7
100
AcDbLine
 10
95.847044
 20
315.025326
 30
0.0
 11
59.774240
 21
368.922342
 31
0.0
  0
LINE
  5
13b
100
AcDbEntity
  8
Layer_1
 62
7
100
AcDbLine
 10
59.774240
 20
368.922342
 30
0.0
 11
56.379147
 21
368.922342
 31
0.0
  0
LINE
  5
13c
100
AcDbEntity
  8
Layer_1
 62
7
100
AcDbLine
 10
56.379147
 20
368.922342
 30
0.0
 11
56.379147
 21
315.025326
 31
0.0
  0
LINE
  5
13d
100
AcDbEntity
  8
Layer_1
 62
7
100
AcDbLine
 10
56.379147
 20
315.025326
 30
0.0
 11
26.353844
 21
315.025326
 31
0.0
  0
LINE
  5
13e
100
AcDbEntity
  8
Layer_1
 62
7
100
AcDbLine
 10
26.353844
 20
315.025326
 30
0.0
 11
26.353844
 21
454.330013
 31
0.0
  0
LINE
  5
13f
100
AcDbEntity
  8
Layer_1
 62
7
100
AcDbLine
 10
26.353844
 20
454.330013
 30
0.0
 11
26.353844
 21
454.330013
 31
0.0
  0
LINE
  5
140
100
AcDbEntity
  8
Layer_1
 62
7
100
AcDbLine
 10
56.591343
 20
429.503439
 30
0.0
 11
56.591343
 21
393.218440
 31
0.0
  0
LINE
  5
141
100
AcDbEntity
  8
Layer_1
 62
7
100
AcDbLine
 10
56.591343
 20
393.218440
 30
0.0
 11
63.063228
 21
393.218440
 31
0.0
  0
SPLINE
  5
142
100
AcDbEntity
  8
Layer_1
 62
7
100
AcDbSpline
 70
8
 71
3
 72
8
 73
4
 74
0
 40
0
 40
0
 40
0
 40
0
 40
1
 40
1
 40
1
 40
1
 10
63.063228
 20
393.218440
 30
0.0
 10
78.694775
 20
393.218440
 30
0.0
 10
86.510549
 20
399.619595
 30
0.0
 10
86.510549
 20
412.421905
 30
0.0
  0
SPLINE
  5
143
100
AcDbEntity
  8
Layer_1
 62
7
100
AcDbSpline
 70
8
 71
3
 72
8
 73
4
 74
0
 40
0
 40
0
 40
0
 40
0
 40
1
 40
1
 40
1
 40
1
 10
86.510549
 20
412.421905
 30
0.0
 10
86.510549
 20
417.655997
 30
0.0
 10
84.459352
 20
421.793759
 30
0.0
 10
80.356958
 20
424.835192
 30
0.0
  0
SPLINE
  5
144
100
AcDbEntity
  8
Layer_1
 62
7
100
AcDbSpline
 70
8
 71
3
 72
8
 73
4
 74
0
 40
0
 40
0
 40
0
 40
0
 40
1
 40
1
 40
1
 40
1
 10
80.356958
 20
424.835192
 30
0.0
 10
76.325291
 20
427.947357
 30
0.0
 10
70.702176
 20
429.503439
 30
0.0
 10
63.487613
 20
429.503439
 30
0.0
  0
LINE
  5
145
100
AcDbEntity
  8
Layer_1
 62
7
100
AcDbLine
 10
63.487613
 20
429.503439
 30
0.0
 11
56.591343
 21
429.503439
 31
0.0
  0
LINE
  5
146
100
AcDbEntity
  8
Layer_1
 62
7
100
AcDbLine
 10
56.591343
 20
429.503439
 30
0.0
 11
56.591343
 21
429.503439
 31
0.0
  0
ENDSEC
  0
SECTION
  2
OBJECTS
  0
DICTIONARY
  5
C
330
0
100
AcDbDictionary
  3
ACAD_GROUP
350
D
  3
ACAD_MLINESTYLE
350
17
  0
DICTIONARY
  5
D
330
C
100
AcDbDictionary
  0
DICTIONARY
  5
1A
330
C
100
AcDbDictionary
  0
DICTIONARY
  5
17
330
C
100
AcDbDictionary
  3
STANDARD
350
18
  0
DICTIONARY
  5
19
330
C
100
AcDbDictionary
  0
ENDSEC
  0
EOF
