  0
SECTION
  2
HEADER
  9
$ACADVER
  1
AC1014
  9
$HANDSEED
  5
FFFF
  9
$MEASUREMENT
 70
     1
  0
ENDSEC
  0
SECTION
  2
TABLES
  0
TABLE
  2
VPORT
  5
8
330
0
100
AcDbSymbolTable
 70
     4
  0
VPORT
  5
2E
330
8
100
AcDbSymbolTableRecord
100
AcDbViewportTableRecord
  2
*ACTIVE
 70
     0
 10
0.0
 20
0.0
 11
1.0
 21
1.0
 12
210.0
 22
148.5
 13
0.0
 23
0.0
 14
10.0
 24
10.0
 15
10.0
 25
10.0
 16
0.0
 26
0.0
 36
1.0
 17
0.0
 27
0.0
 37
0.0
 40
341.0
 41
1.24
 42
50.0
 43
0.0
 44
0.0
 50
0.0
 51
0.0
 71
     0
 72
   100
 73
     1
 74
     3
 75
     0
 76
     0
 77
     0
 78
     0
  0
ENDTAB
  0
TABLE
  2
LTYPE
  5
5
330
0
100
AcDbSymbolTable
 70
     1
  0
LTYPE
  5
14
330
5
100
AcDbSymbolTableRecord
100
AcDbLinetypeTableRecord
  2
BYBLOCK
 70
     0
  3

 72
    65
 73
     0
 40
0.0
  0
LTYPE
  5
15
330
5
100
AcDbSymbolTableRecord
100
AcDbLinetypeTableRecord
  2
BYLAYER
 70
     0
  3

 72
    65
 73
     0
 40
0.0
  0
LTYPE
  5
16
330
5
100
AcDbSymbolTableRecord
100
AcDbLinetypeTableRecord
  2
CONTINUOUS
 70
     0
  3
Solid line
 72
    65
 73
     0
 40
0.0
  0
ENDTAB
  0
TABLE
  2
LAYER
  5
2
100
AcDbSymbolTable
 70
2
  0
LAYER
  5
50
100
AcDbSymbolTableRecord
100
AcDbLayerTableRecord
  2
0
 70
0
  6
CONTINUOUS
  0
LAYER
  5
51
100
AcDbSymbolTableRecord
100
AcDbLayerTableRecord
  2
Layer_1
 70
0
  6
CONTINUOUS
  0
ENDTAB
  0
TABLE
  2
STYLE
  5
3
330
0
100
AcDbSymbolTable
 70
     1
  0
STYLE
  5
11
330
3
100
AcDbSymbolTableRecord
100
AcDbTextStyleTableRecord
  2
STANDARD
 70
     0
 40
0.0
 41
1.0
 50
0.0
 71
     0
 42
2.5
  3
txt
  4

  0
ENDTAB
  0
TABLE
  2
VIEW
  5
6
330
0
100
AcDbSymbolTable
 70
     0
  0
ENDTAB
  0
TABLE
  2
UCS
  5
7
330
0
100
AcDbSymbolTable
 70
     0
  0
ENDTAB
  0
TABLE
  2
APPID
  5
9
330
0
100
AcDbSymbolTable
 70
     2
  0
APPID
  5
12
330
9
100
AcDbSymbolTableRecord
100
AcDbRegAppTableRecord
  2
ACAD
 70
     0
  0
ENDTAB
  0
TABLE
  2
DIMSTYLE
  5
A
330
0
100
AcDbSymbolTable
 70
     1
  0
DIMSTYLE
105
27
330
A
100
AcDbSymbolTableRecord
100
AcDbDimStyleTableRecord
  2
ISO-25
 70
     0
  3

  4

  5

  6

  7

 40
1.0
 41
2.5
 42
0.625
 43
3.75
 44
1.25
 45
0.0
 46
0.0
 47
0.0
 48
0.0
140
2.5
141
2.5
142
0.0
143
0.03937007874016
144
1.0
145
0.0
146
1.0
147
0.625
 71
     0
 72
     0
 73
     0
 74
     0
 75
     0
 76
     0
 77
     1
 78
     8
170
     0
171
     3
172
     1
173
     0
174
     0
175
     0
176
     0
177
     0
178
     0
270
     2
271
     2
272
     2
273
     2
274
     3
340
11
275
     0
280
     0
281
     0
282
     0
283
     0
284
     8
285
     0
286
     0
287
     3
288
     0
  0
ENDTAB
  0
TABLE
  2
BLOCK_RECORD
  5
1
330
0
100
AcDbSymbolTable
 70
     1
  0
BLOCK_RECORD
  5
1F
330
1
100
AcDbSymbolTableRecord
100
AcDbBlockTableRecord
  2
*MODEL_SPACE
  0
BLOCK_RECORD
  5
1B
330
1
100
AcDbSymbolTableRecord
100
AcDbBlockTableRecord
  2
*PAPER_SPACE
  0
ENDTAB
  0
ENDSEC
  0
SECTION
  2
BLOCKS
  0
BLOCK
  5
20
330
1F
100
AcDbEntity
  8
0
100
AcDbBlockBegin
  2
*MODEL_SPACE
 70
     0
 10
0.0
 20
0.0
 30
0.0
  3
*MODEL_SPACE
  1

  0
ENDBLK
  5
21
330
1F
100
AcDbEntity
  8
0
100
AcDbBlockEnd
  0
BLOCK
  5
1C
330
1B
100
AcDbEntity
 67
     1
  8
0
100
AcDbBlockBegin
  2
*PAPER_SPACE
  1

  0
ENDBLK
  5
1D
330
1B
100
AcDbEntity
 67
     1
  8
0
100
AcDbBlockEnd
  0
ENDSEC
  0
SECTION
  2
ENTITIES
  0
LINE
  5
100
100
AcDbEntity
  8
Layer_1
 62
7
100
AcDbLine
 10
-13.113218
 20
422.864247
 30
0.0
 11
-32.577247
 21
404.640040
 31
0.0
  0
SPLINE
  5
101
100
AcDbEntity
  8
Layer_1
 62
7
100
AcDbSpline
 70
8
 71
3
 72
8
 73
4
 74
0
 40
0
 40
0
 40
0
 40
0
 40
1
 40
1
 40
1
 40
1
 10
-32.577247
 20
404.640040
 30
0.0
 10
-36.649508
 20
411.681209
 30
0.0
 10
-41.688069
 20
416.927571
 30
0.0
 10
-47.692929
 20
420.379125
 30
0.0
  0
SPLINE
  5
102
100
AcDbEntity
  8
Layer_1
 62
7
100
AcDbSpline
 70
8
 71
3
 72
8
 73
4
 74
0
 40
0
 40
0
 40
0
 40
0
 40
1
 40
1
 40
1
 40
1
 10
-47.692929
 20
420.379125
 30
0.0
 10
-53.697790
 20
423.899712
 30
0.0
 10
-59.978736
 20
425.660005
 30
0.0
 10
-66.535768
 20
425.660005
 30
0.0
  0
SPLINE
  5
103
100
AcDbEntity
  8
Layer_1
 62
7
100
AcDbSpline
 70
8
 71
3
 72
8
 73
4
 74
0
 40
0
 40
0
 40
0
 40
0
 40
1
 40
1
 40
1
 40
1
 10
-66.535768
 20
425.660005
 30
0.0
 10
-77.165061
 20
425.660005
 30
0.0
 10
-86.413926
 20
421.621687
 30
0.0
 10
-94.282363
 20
413.545049
 30
0.0
  0
SPLINE
  5
104
100
AcDbEntity
  8
Layer_1
 62
7
100
AcDbSpline
 70
8
 71
3
 72
8
 73
4
 74
0
 40
0
 40
0
 40
0
 40
0
 40
1
 40
1
 40
1
 40
1
 10
-94.282363
 20
413.545049
 30
0.0
 10
-102.081778
 20
405.468412
 30
0.0
 10
-105.981486
 20
395.942122
 30
0.0
 10
-105.981486
 20
384.966179
 30
0.0
  0
SPLINE
  5
105
100
AcDbEntity
  8
Layer_1
 62
7
100
AcDbSpline
 70
8
 71
3
 72
8
 73
4
 74
0
 40
0
 40
0
 40
0
 40
0
 40
1
 40
1
 40
1
 40
1
 10
-105.981486
 20
384.966179
 30
0.0
 10
-105.981486
 20
373.299928
 30
0.0
 10
-102.081778
 20
363.393968
 30
0.0
 10
-94.282363
 20
355.248298
 30
0.0
  0
SPLINE
  5
106
100
AcDbEntity
  8
Layer_1
 62
7
100
AcDbSpline
 70
8
 71
3
 72
8
 73
4
 74
0
 40
0
 40
0
 40
0
 40
0
 40
1
 40
1
 40
1
 40
1
 10
-94.282363
 20
355.248298
 30
0.0
 10
-86.413926
 20
347.171663
 30
0.0
 10
-76.957996
 20
343.133346
 30
0.0
 10
-65.914574
 20
343.133346
 30
0.0
  0
SPLINE
  5
107
100
AcDbEntity
  8
Layer_1
 62
7
100
AcDbSpline
 70
8
 71
3
 72
8
 73
4
 74
0
 40
0
 40
0
 40
0
 40
0
 40
1
 40
1
 40
1
 40
1
 10
-65.914574
 20
343.133346
 30
0.0
 10
-59.909714
 20
343.133346
 30
0.0
 10
-54.146429
 20
344.652029
 30
0.0
 10
-48.624720
 20
347.689397
 30
0.0
  0
SPLINE
  5
108
100
AcDbEntity
  8
Layer_1
 62
7
100
AcDbSpline
 70
8
 71
3
 72
8
 73
4
 74
0
 40
0
 40
0
 40
0
 40
0
 40
1
 40
1
 40
1
 40
1
 10
-48.624720
 20
347.689397
 30
0.0
 10
-43.033987
 20
350.726764
 30
0.0
 10
-38.547596
 20
356.421828
 30
0.0
 10
-35.165549
 20
364.774588
 30
0.0
  0
LINE
  5
109
100
AcDbEntity
  8
Layer_1
 62
7
100
AcDbLine
 10
-35.165549
 20
364.774588
 30
0.0
 11
-67.364025
 21
364.774588
 31
0.0
  0
LINE
  5
10a
100
AcDbEntity
  8
Layer_1
 62
7
100
AcDbLine
 10
-67.364025
 20
364.774588
 30
0.0
 11
-67.364025
 21
391.282526
 31
0.0
  0
LINE
  5
10b
100
AcDbEntity
  8
Layer_1
 62
7
100
AcDbLine
 10
-67.364025
 20
391.282526
 30
0.0
 11
-4.623588
 21
391.282526
 31
0.0
  0
LINE
  5
10c
100
AcDbEntity
  8
Layer_1
 62
7
100
AcDbLine
 10
-4.623588
 20
391.282526
 30
0.0
 11
-4.623588
 21
373.679597
 31
0.0
  0
SPLINE
  5
10d
100
AcDbEntity
  8
Layer_1
 62
7
100
AcDbSpline
 70
8
 71
3
 72
8
 73
4
 74
0
 40
0
 40
0
 40
0
 40
0
 40
1
 40
1
 40
1
 40
1
 10
-4.623588
 20
373.679597
 30
0.0
 10
-4.623588
 20
364.636526
 30
0.0
 10
-7.729551
 20
354.903143
 30
0.0
 10
-13.941476
 20
344.479450
 30
0.0
  0
SPLINE
  5
10e
100
AcDbEntity
  8
Layer_1
 62
7
100
AcDbSpline
 70
8
 71
3
 72
8
 73
4
 74
0
 40
0
 40
0
 40
0
 40
0
 40
1
 40
1
 40
1
 40
1
 10
-13.941476
 20
344.479450
 30
0.0
 10
-20.153401
 20
334.124788
 30
0.0
 10
-28.332434
 20
326.531369
 30
0.0
 10
-38.478575
 20
321.699193
 30
0.0
  0
SPLINE
  5
10f
100
AcDbEntity
  8
Layer_1
 62
7
100
AcDbSpline
 70
8
 71
3
 72
8
 73
4
 74
0
 40
0
 40
0
 40
0
 40
0
 40
1
 40
1
 40
1
 40
1
 10
-38.478575
 20
321.699193
 30
0.0
 10
-48.624719
 20
316.936048
 30
0.0
 10
-58.874394
 20
314.554476
 30
0.0
 10
-69.227600
 20
314.554476
 30
0.0
  0
SPLINE
  5
110
100
AcDbEntity
  8
Layer_1
 62
7
100
AcDbSpline
 70
8
 71
3
 72
8
 73
4
 74
0
 40
0
 40
0
 40
0
 40
0
 40
1
 40
1
 40
1
 40
1
 10
-69.227600
 20
314.554476
 30
0.0
 10
-88.001415
 20
314.554476
 30
0.0
 10
-103.841822
 20
321.354037
 30
0.0
 10
-116.748821
 20
334.953160
 30
0.0
  0
SPLINE
  5
111
100
AcDbEntity
  8
Layer_1
 62
7
100
AcDbSpline
 70
8
 71
3
 72
8
 73
4
 74
0
 40
0
 40
0
 40
0
 40
0
 40
1
 40
1
 40
1
 40
1
 10
-116.748821
 20
334.953160
 30
0.0
 10
-129.655818
 20
348.552284
 30
0.0
 10
-136.109317
 20
365.361354
 30
0.0
 10
-136.109317
 20
385.380368
 30
0.0
  0
SPLINE
  5
112
100
AcDbEntity
  8
Layer_1
 62
7
100
AcDbSpline
 70
8
 71
3
 72
8
 73
4
 74
0
 40
0
 40
0
 40
0
 40
0
 40
1
 40
1
 40
1
 40
1
 10
-136.109317
 20
385.380368
 30
0.0
 10
-136.109317
 20
404.363916
 30
0.0
 10
-129.483265
 20
420.586220
 30
0.0
 10
-116.231161
 20
434.047281
 30
0.0
  0
SPLINE
  5
113
100
AcDbEntity
  8
Layer_1
 62
7
100
AcDbSpline
 70
8
 71
3
 72
8
 73
4
 74
0
 40
0
 40
0
 40
0
 40
0
 40
1
 40
1
 40
1
 40
1
 10
-116.231161
 20
434.047281
 30
0.0
 10
-102.910034
 20
447.508342
 30
0.0
 10
-86.897074
 20
454.238872
 30
0.0
 10
-68.192279
 20
454.238872
 30
0.0
  0
SPLINE
  5
114
100
AcDbEntity
  8
Layer_1
 62
7
100
AcDbSpline
 70
8
 71
3
 72
8
 73
4
 74
0
 40
0
 40
0
 40
0
 40
0
 40
1
 40
1
 40
1
 40
1
 10
-68.192279
 20
454.238872
 30
0.0
 10
-44.310882
 20
454.238872
 30
0.0
 10
-25.951195
 20
443.780664
 30
0.0
 10
-13.113218
 20
422.864247
 30
0.0
  0
LINE
  5
115
100
AcDbEntity
  8
Layer_1
 62
7
100
AcDbLine
 10
-13.113218
 20
422.864247
 30
0.0
 11
-13.113218
 21
422.864247
 31
0.0
  0
LINE
  5
116
100
AcDbEntity
  8
Layer_1
 62
7
100
AcDbLine
 10
21.291487
 20
455.708474
 30
0.0
 11
78.991369
 21
455.708474
 31
0.0
  0
SPLINE
  5
117
100
AcDbEntity
  8
Layer_1
 62
7
100
AcDbSpline
 70
8
 71
3
 72
8
 73
4
 74
0
 40
0
 40
0
 40
0
 40
0
 40
1
 40
1
 40
1
 40
1
 10
78.991369
 20
455.708474
 30
0.0
 10
96.532843
 20
455.708474
 30
0.0
 10
110.379032
 20
452.030462
 30
0.0
 10
120.529937
 20
444.674439
 30
0.0
  0
SPLINE
  5
118
100
AcDbEntity
  8
Layer_1
 62
7
100
AcDbSpline
 70
8
 71
3
 72
8
 73
4
 74
0
 40
0
 40
0
 40
0
 40
0
 40
1
 40
1
 40
1
 40
1
 10
120.529937
 20
444.674439
 30
0.0
 10
130.769887
 20
437.318417
 30
0.0
 10
135.889862
 20
427.380712
 30
0.0
 10
135.889862
 20
414.861325
 30
0.0
  0
SPLINE
  5
119
100
AcDbEntity
  8
Layer_1
 62
7
100
AcDbSpline
 70
8
 71
3
 72
8
 73
4
 74
0
 40
0
 40
0
 40
0
 40
0
 40
1
 40
1
 40
1
 40
1
 10
135.889862
 20
414.861325
 30
0.0
 10
135.889862
 20
407.717493
 30
0.0
 10
133.530221
 20
400.290738
 30
0.0
 10
128.810939
 20
392.581060
 30
0.0
  0
SPLINE
  5
11a
100
AcDbEntity
  8
Layer_1
 62
7
100
AcDbSpline
 70
8
 71
3
 72
8
 73
4
 74
0
 40
0
 40
0
 40
0
 40
0
 40
1
 40
1
 40
1
 40
1
 10
128.810939
 20
392.581060
 30
0.0
 10
124.180702
 20
384.871382
 30
0.0
 10
115.588051
 20
378.823883
 30
0.0
 10
103.032986
 20
374.438561
 30
0.0
  0
LINE
  5
11b
100
AcDbEntity
  8
Layer_1
 62
7
100
AcDbLine
 10
103.032986
 20
374.438561
 30
0.0
 11
152.051167
 21
316.403787
 31
0.0
  0
LINE
  5
11c
100
AcDbEntity
  8
Layer_1
 62
7
100
AcDbLine
 10
152.051167
 20
316.403787
 30
0.0
 11
108.776262
 21
316.403787
 31
0.0
  0
LINE
  5
11d
100
AcDbEntity
  8
Layer_1
 62
7
100
AcDbLine
 10
108.776262
 20
316.403787
 30
0.0
 11
63.364312
 21
370.300803
 31
0.0
  0
LINE
  5
11e
100
AcDbEntity
  8
Layer_1
 62
7
100
AcDbLine
 10
63.364312
 20
370.300803
 30
0.0
 11
59.090249
 21
370.300803
 31
0.0
  0
LINE
  5
11f
100
AcDbEntity
  8
Layer_1
 62
7
100
AcDbLine
 10
59.090249
 20
370.300803
 30
0.0
 11
59.090249
 21
316.403787
 31
0.0
  0
LINE
  5
120
100
AcDbEntity
  8
Layer_1
 62
7
100
AcDbLine
 10
59.090249
 20
316.403787
 30
0.0
 11
21.291487
 21
316.403787
 31
0.0
  0
LINE
  5
121
100
AcDbEntity
  8
Layer_1
 62
7
100
AcDbLine
 10
21.291487
 20
316.403787
 30
0.0
 11
21.291487
 21
455.708474
 31
0.0
  0
LINE
  5
122
100
AcDbEntity
  8
Layer_1
 62
7
100
AcDbLine
 10
21.291487
 20
455.708474
 30
0.0
 11
21.291487
 21
455.708474
 31
0.0
  0
LINE
  5
123
100
AcDbEntity
  8
Layer_1
 62
7
100
AcDbLine
 10
59.357382
 20
430.881893
 30
0.0
 11
59.357382
 21
394.596894
 31
0.0
  0
LINE
  5
124
100
AcDbEntity
  8
Layer_1
 62
7
100
AcDbLine
 10
59.357382
 20
394.596894
 30
0.0
 11
67.504818
 21
394.596894
 31
0.0
  0
SPLINE
  5
125
100
AcDbEntity
  8
Layer_1
 62
7
100
AcDbSpline
 70
8
 71
3
 72
8
 73
4
 74
0
 40
0
 40
0
 40
0
 40
0
 40
1
 40
1
 40
1
 40
1
 10
67.504818
 20
394.596894
 30
0.0
 10
87.183324
 20
394.596894
 30
0.0
 10
97.022577
 20
400.998049
 30
0.0
 10
97.022577
 20
413.800359
 30
0.0
  0
SPLINE
  5
126
100
AcDbEntity
  8
Layer_1
 62
7
100
AcDbSpline
 70
8
 71
3
 72
8
 73
4
 74
0
 40
0
 40
0
 40
0
 40
0
 40
1
 40
1
 40
1
 40
1
 10
97.022577
 20
413.800359
 30
0.0
 10
97.022577
 20
419.034455
 30
0.0
 10
94.440329
 20
423.172220
 30
0.0
 10
89.275832
 20
426.213653
 30
0.0
  0
SPLINE
  5
127
100
AcDbEntity
  8
Layer_1
 62
7
100
AcDbSpline
 70
8
 71
3
 72
8
 73
4
 74
0
 40
0
 40
0
 40
0
 40
0
 40
1
 40
1
 40
1
 40
1
 10
89.275832
 20
426.213653
 30
0.0
 10
84.200379
 20
429.325813
 30
0.0
 10
77.121460
 20
430.881893
 30
0.0
 10
68.039074
 20
430.881893
 30
0.0
  0
LINE
  5
128
100
AcDbEntity
  8
Layer_1
 62
7
100
AcDbLine
 10
68.039074
 20
430.881893
 30
0.0
 11
59.357382
 21
430.881893
 31
0.0
  0
LINE
  5
129
100
AcDbEntity
  8
Layer_1
 62
7
100
AcDbLine
 10
59.357382
 20
430.881893
 30
0.0
 11
59.357382
 21
430.881893
 31
0.0
  0
LINE
  5
12a
100
AcDbEntity
  8
Layer_1
 62
7
100
AcDbLine
 10
51.358640
 20
241.474343
 30
0.0
 11
80.561207
 21
241.474343
 31
0.0
  0
LINE
  5
12b
100
AcDbEntity
  8
Layer_1
 62
7
100
AcDbLine
 10
80.561207
 20
241.474343
 30
0.0
 11
80.561207
 21
157.425378
 31
0.0
  0
SPLINE
  5
12c
100
AcDbEntity
  8
Layer_1
 62
7
100
AcDbSpline
 70
8
 71
3
 72
8
 73
4
 74
0
 40
0
 40
0
 40
0
 40
0
 40
1
 40
1
 40
1
 40
1
 10
80.561207
 20
157.425378
 30
0.0
 10
80.561207
 20
149.610112
 30
0.0
 10
82.724360
 20
143.329990
 30
0.0
 10
87.050667
 20
138.585012
 30
0.0
  0
SPLINE
  5
12d
100
AcDbEntity
  8
Layer_1
 62
7
100
AcDbSpline
 70
8
 71
3
 72
8
 73
4
 74
0
 40
0
 40
0
 40
0
 40
0
 40
1
 40
1
 40
1
 40
1
 10
87.050667
 20
138.585012
 30
0.0
 10
91.376973
 20
133.840029
 30
0.0
 10
97.063971
 20
131.467538
 30
0.0
 10
104.111661
 20
131.467538
 30
0.0
  0
SPLINE
  5
12e
100
AcDbEntity
  8
Layer_1
 62
7
100
AcDbSpline
 70
8
 71
3
 72
8
 73
4
 74
0
 40
0
 40
0
 40
0
 40
0
 40
1
 40
1
 40
1
 40
1
 10
104.111661
 20
131.467538
 30
0.0
 10
112.206042
 20
131.467538
 30
0.0
 10
118.486164
 20
133.840029
 30
0.0
 10
122.952027
 20
138.585012
 30
0.0
  0
SPLINE
  5
12f
100
AcDbEntity
  8
Layer_1
 62
7
100
AcDbSpline
 70
8
 71
3
 72
8
 73
4
 74
0
 40
0
 40
0
 40
0
 40
0
 40
1
 40
1
 40
1
 40
1
 10
122.952027
 20
138.585012
 30
0.0
 10
127.417894
 20
143.399770
 30
0.0
 10
129.650827
 20
150.168346
 30
0.0
 10
129.650827
 20
158.890740
 30
0.0
  0
LINE
  5
130
100
AcDbEntity
  8
Layer_1
 62
7
100
AcDbLine
 10
129.650827
 20
158.890740
 30
0.0
 11
129.650827
 21
241.474343
 31
0.0
  0
LINE
  5
131
100
AcDbEntity
  8
Layer_1
 62
7
100
AcDbLine
 10
129.650827
 20
241.474343
 30
0.0
 11
158.748724
 21
241.474343
 31
0.0
  0
LINE
  5
132
100
AcDbEntity
  8
Layer_1
 62
7
100
AcDbLine
 10
158.748724
 20
241.474343
 30
0.0
 11
158.748724
 21
152.505950
 31
0.0
  0
SPLINE
  5
133
100
AcDbEntity
  8
Layer_1
 62
7
100
AcDbSpline
 70
8
 71
3
 72
8
 73
4
 74
0
 40
0
 40
0
 40
0
 40
0
 40
1
 40
1
 40
1
 40
1
 10
158.748724
 20
152.505950
 30
0.0
 10
158.748724
 20
144.690684
 30
0.0
 10
156.725128
 20
136.561414
 30
0.0
 10
152.677937
 20
128.118141
 30
0.0
  0
SPLINE
  5
134
100
AcDbEntity
  8
Layer_1
 62
7
100
AcDbSpline
 70
8
 71
3
 72
8
 73
4
 74
0
 40
0
 40
0
 40
0
 40
0
 40
1
 40
1
 40
1
 40
1
 10
152.677937
 20
128.118141
 30
0.0
 10
148.630751
 20
119.744644
 30
0.0
 10
142.385519
 20
113.324964
 30
0.0
 10
133.942241
 20
108.859101
 30
0.0
  0
SPLINE
  5
135
100
AcDbEntity
  8
Layer_1
 62
7
100
AcDbSpline
 70
8
 71
3
 72
8
 73
4
 74
0
 40
0
 40
0
 40
0
 40
0
 40
1
 40
1
 40
1
 40
1
 10
133.942241
 20
108.859101
 30
0.0
 10
125.568744
 20
104.393235
 30
0.0
 10
116.183451
 20
102.160301
 30
0.0
 10
105.786363
 20
102.160301
 30
0.0
  0
SPLINE
  5
136
100
AcDbEntity
  8
Layer_1
 62
7
100
AcDbSpline
 70
8
 71
3
 72
8
 73
4
 74
0
 40
0
 40
0
 40
0
 40
0
 40
1
 40
1
 40
1
 40
1
 10
105.786363
 20
102.160301
 30
0.0
 10
86.945996
 20
102.160301
 30
0.0
 10
73.164617
 20
107.393735
 30
0.0
 10
64.442223
 20
117.860604
 30
0.0
  0
SPLINE
  5
137
100
AcDbEntity
  8
Layer_1
 62
7
100
AcDbSpline
 70
8
 71
3
 72
8
 73
4
 74
0
 40
0
 40
0
 40
0
 40
0
 40
1
 40
1
 40
1
 40
1
 10
64.442223
 20
117.860604
 30
0.0
 10
55.719834
 20
128.397257
 30
0.0
 10
51.358640
 20
139.457252
 30
0.0
 10
51.358640
 20
151.040588
 30
0.0
  0
LINE
  5
138
100
AcDbEntity
  8
Layer_1
 62
7
100
AcDbLine
 10
51.358640
 20
151.040588
 30
0.0
 11
51.358640
 21
241.474343
 31
0.0
  0
LINE
  5
139
100
AcDbEntity
  8
Layer_1
 62
7
100
AcDbLine
 10
51.358640
 20
241.474343
 30
0.0
 11
51.358640
 21
241.474343
 31
0.0
  0
ENDSEC
  0
SECTION
  2
OBJECTS
  0
DICTIONARY
  5
C
330
0
100
AcDbDictionary
  3
ACAD_GROUP
350
D
  3
ACAD_MLINESTYLE
350
17
  0
DICTIONARY
  5
D
330
C
100
AcDbDictionary
  0
DICTIONARY
  5
1A
330
C
100
AcDbDictionary
  0
DICTIONARY
  5
17
330
C
100
AcDbDictionary
  3
STANDARD
350
18
  0
DICTIONARY
  5
19
330
C
100
AcDbDictionary
  0
ENDSEC
  0
EOF
