<?xml version="1.0" encoding="UTF-8" standalone="no"?>
<svg
   xmlns:dc="http://purl.org/dc/elements/1.1/"
   xmlns:cc="http://creativecommons.org/ns#"
   xmlns:rdf="http://www.w3.org/1999/02/22-rdf-syntax-ns#"
   xmlns:svg="http://www.w3.org/2000/svg"
   xmlns="http://www.w3.org/2000/svg"
   xmlns:sodipodi="http://sodipodi.sourceforge.net/DTD/sodipodi-0.dtd"
   xmlns:inkscape="http://www.inkscape.org/namespaces/inkscape"
   width="744.094488189"
   height="1052.36220472"
   id="svg2"
   version="1.1"
   inkscape:version="0.91 r13725"
   sodipodi:docname="E_back.svg">
  <metadata
     id="metadata97">
    <rdf:RDF>
      <cc:Work
         rdf:about="">
        <dc:format>image/svg+xml</dc:format>
        <dc:type
           rdf:resource="http://purl.org/dc/dcmitype/StillImage" />
        <dc:title></dc:title>
      </cc:Work>
    </rdf:RDF>
  </metadata>
  <sodipodi:namedview
     pagecolor="#ffffff"
     bordercolor="#666666"
     borderopacity="1"
     objecttolerance="10"
     gridtolerance="10"
     guidetolerance="10"
     inkscape:pageopacity="0"
     inkscape:pageshadow="2"
     inkscape:window-width="1920"
     inkscape:window-height="1137"
     id="namedview95"
     showgrid="false"
     inkscape:zoom="0.63429569"
     inkscape:cx="241.42"
     inkscape:cy="147.78824"
     inkscape:window-x="-8"
     inkscape:window-y="-8"
     inkscape:window-maximized="1"
     inkscape:current-layer="g21" />
  <desc
     id="desc4">F:\Git\DIY-Projects\GRUE\Lights 3D parts\Back\E_back.DXF - scale = 1.000000, origin = (0.000000, 0.000000), auto = False</desc>
  <defs
     id="defs6">
    <marker
       refY="0.0"
       refX="0.0"
       style="overflow:visible"
       id="DistanceX"
       orient="auto">
      <path
         style="stroke:#000000; stroke-width:0.5"
         d="M 3,-3 L -3,3 M 0,-5 L  0,5"
         id="path9" />
    </marker>
    <pattern
       height="8"
       width="8"
       patternUnits="userSpaceOnUse"
       y="0"
       x="0"
       id="Hatch">
      <path
         linecap="square"
         stroke="#000000"
         stroke-width="0.25"
         d="M8 4 l-4,4"
         id="path12" />
      <path
         linecap="square"
         stroke="#000000"
         stroke-width="0.25"
         d="M6 2 l-4,4"
         id="path14" />
      <path
         linecap="square"
         stroke="#000000"
         stroke-width="0.25"
         d="M4 0 l-4,4"
         id="path16" />
    </pattern>
    <symbol
       id="*Model_Space" />
    <symbol
       id="*Paper_Space" />
    <symbol
       id="*Paper_Space0" />
  </defs>
  <g
     inkscape:label="0"
     inkscape:groupmode="layer"
     id="g21">
    <path
       style="stroke:#000000;stroke-width:0.9;fill:none;stroke-linecap: round"
       d="M 252.019456,625.871076 A 6.023622,6.023622 -0.000000 1 0 239.972212,625.871076 6.023622,6.023622 -0.000000 1 0 252.019456,625.871076 z"
       id="path23" />
    <path
       style="stroke:#000000;stroke-width:0.9;fill:none;stroke-linecap: round"
       d="M 506.445520,625.871076 A 6.023622,6.023622 -0.000000 1 0 494.398276,625.871076 6.023622,6.023622 -0.000000 1 0 506.445520,625.871076 z"
       id="path25" />
    <path
       style="stroke:#000000;stroke-width:0.9;fill:none;stroke-linecap: round"
       d="M 506.445520,166.291384 A 6.023622,6.023622 -0.000000 1 0 494.398276,166.291384 6.023622,6.023622 -0.000000 1 0 506.445520,166.291384 z"
       id="path27" />
    <path
       style="stroke:#000000;stroke-width:0.9;fill:none;stroke-linecap: round"
       d="M 252.019456,166.291384 A 6.023622,6.023622 -0.000000 1 0 239.972212,166.291384 6.023622,6.023622 -0.000000 1 0 252.019456,166.291384 z"
       id="path29" />
    <path
       style="stroke:#000000;stroke-width:0.9;fill:none;stroke-linecap: round"
       d="M 238.554889,175.311172 A 11.692913,11.692913 -0.000000 0 0 255.015622,158.850439"
       id="path31" />
    <path
       style="stroke:#000000;stroke-width:0.9;fill:none;stroke-linecap: round"
       d="M 238.554889,175.311172 238.554889,616.851289"
       id="path33" />
    <path
       style="stroke:#000000;stroke-width:0.9;fill:none;stroke-linecap: round"
       d="M 255.015622,633.312021 A 11.692913,11.692913 -0.000000 0 0 238.554889,616.851289"
       id="path35" />
    <path
       style="stroke:#000000;stroke-width:0.9;fill:none;stroke-linecap: round"
       d="M 255.015622,633.312021 491.402110,633.312021"
       id="path37" />
    <path
       style="stroke:#000000;stroke-width:0.9;fill:none;stroke-linecap: round"
       d="M 507.862843,616.851289 A 11.692913,11.692913 -0.000000 0 0 491.402110,633.312021"
       id="path39" />
    <path
       style="stroke:#000000;stroke-width:0.9;fill:none;stroke-linecap: round"
       d="M 507.862843,616.851289 507.862843,554.704218"
       id="path41" />
    <path
       style="stroke:#000000;stroke-width:0.9;fill:none;stroke-linecap: round"
       d="M 507.862843,554.704218 336.438992,554.704218"
       id="path43" />
    <path
       style="stroke:#000000;stroke-width:0.9;fill:none;stroke-linecap: round"
       d="M 336.438992,554.704218 336.438992,443.947450"
       id="path45" />
    <path
       style="stroke:#000000;stroke-width:0.9;fill:none;stroke-linecap: round"
       d="M 336.438992,443.947450 507.862843,443.947450"
       id="path47" />
    <path
       style="stroke:#000000;stroke-width:0.9;fill:none;stroke-linecap: round"
       d="M 507.862843,443.947450 507.862843,356.213427"
       id="path49" />
    <path
       style="stroke:#000000;stroke-width:0.9;fill:none;stroke-linecap: round"
       d="M 507.862843,356.213427 336.438992,356.213427"
       id="path51" />
    <path
       style="stroke:#000000;stroke-width:0.9;fill:none;stroke-linecap: round"
       d="M 336.438992,356.213427 336.438992,248.088171"
       id="path53" />
    <path
       style="stroke:#000000;stroke-width:0.9;fill:none;stroke-linecap: round"
       d="M 336.438992,248.088171 507.862843,248.088171"
       id="path55" />
    <path
       style="stroke:#000000;stroke-width:0.9;fill:none;stroke-linecap: round"
       d="M 507.862843,248.088171 507.862843,175.311172"
       id="path57" />
    <path
       style="stroke:#000000;stroke-width:0.9;fill:none;stroke-linecap: round"
       d="M 491.402110,158.850439 A 11.692913,11.692913 -0.000000 0 0 507.862843,175.311172"
       id="path59" />
    <path
       style="stroke:#000000;stroke-width:0.9;fill:none;stroke-linecap: round"
       d="M 491.402110,158.850439 255.015622,158.850439"
       id="path61" />
    <path
       style="stroke:#000000;stroke-width:0.9;fill:none;stroke-linecap: round"
       d="M 234.302921,154.598471 234.302921,637.563990"
       id="path63" />
    <path
       style="stroke:#000000;stroke-width:0.9;fill:none;stroke-linecap: round"
       d="M 512.114811,154.598471 234.302921,154.598471"
       id="path65" />
    <path
       style="stroke:#000000;stroke-width:0.9;fill:none;stroke-linecap: round"
       d="M 512.114811,252.340140 512.114811,154.598471"
       id="path67" />
    <path
       style="stroke:#000000;stroke-width:0.9;fill:none;stroke-linecap: round"
       d="M 340.690961,252.340140 512.114811,252.340140"
       id="path69" />
    <path
       style="stroke:#000000;stroke-width:0.9;fill:none;stroke-linecap: round"
       d="M 340.690961,351.961459 340.690961,252.340140"
       id="path71" />
    <path
       style="stroke:#000000;stroke-width:0.9;fill:none;stroke-linecap: round"
       d="M 512.114811,351.961459 340.690961,351.961459"
       id="path73" />
    <path
       style="stroke:#000000;stroke-width:0.9;fill:none;stroke-linecap: round"
       d="M 512.114811,448.199419 512.114811,351.961459"
       id="path75" />
    <path
       style="stroke:#000000;stroke-width:0.9;fill:none;stroke-linecap: round"
       d="M 340.690961,448.199419 512.114811,448.199419"
       id="path77" />
    <path
       style="stroke:#000000;stroke-width:0.9;fill:none;stroke-linecap: round"
       d="M 340.690961,550.452249 340.690961,448.199419"
       id="path79" />
    <path
       style="stroke:#000000;stroke-width:0.9;fill:none;stroke-linecap: round"
       d="M 512.114811,550.452249 340.690961,550.452249"
       id="path81" />
    <path
       style="stroke:#000000;stroke-width:0.9;fill:none;stroke-linecap: round"
       d="M 512.114811,637.563990 512.114811,550.452249"
       id="path83" />
    <path
       style="stroke:#000000;stroke-width:0.9;fill:none;stroke-linecap: round"
       d="M 512.114811,637.563990 234.302921,637.563990"
       id="path85" />
  </g>
</svg>
