  0
SECTION
  2
HEADER
  9
$ACADVER
  1
AC1014
  9
$HANDSEED
  5
FFFF
  9
$MEASUREMENT
 70
     1
  0
ENDSEC
  0
SECTION
  2
TABLES
  0
TABLE
  2
VPORT
  5
8
330
0
100
AcDbSymbolTable
 70
     4
  0
VPORT
  5
2E
330
8
100
AcDbSymbolTableRecord
100
AcDbViewportTableRecord
  2
*ACTIVE
 70
     0
 10
0.0
 20
0.0
 11
1.0
 21
1.0
 12
210.0
 22
148.5
 13
0.0
 23
0.0
 14
10.0
 24
10.0
 15
10.0
 25
10.0
 16
0.0
 26
0.0
 36
1.0
 17
0.0
 27
0.0
 37
0.0
 40
341.0
 41
1.24
 42
50.0
 43
0.0
 44
0.0
 50
0.0
 51
0.0
 71
     0
 72
   100
 73
     1
 74
     3
 75
     0
 76
     0
 77
     0
 78
     0
  0
ENDTAB
  0
TABLE
  2
LTYPE
  5
5
330
0
100
AcDbSymbolTable
 70
     1
  0
LTYPE
  5
14
330
5
100
AcDbSymbolTableRecord
100
AcDbLinetypeTableRecord
  2
BYBLOCK
 70
     0
  3

 72
    65
 73
     0
 40
0.0
  0
LTYPE
  5
15
330
5
100
AcDbSymbolTableRecord
100
AcDbLinetypeTableRecord
  2
BYLAYER
 70
     0
  3

 72
    65
 73
     0
 40
0.0
  0
LTYPE
  5
16
330
5
100
AcDbSymbolTableRecord
100
AcDbLinetypeTableRecord
  2
CONTINUOUS
 70
     0
  3
Solid line
 72
    65
 73
     0
 40
0.0
  0
ENDTAB
  0
TABLE
  2
LAYER
  5
2
100
AcDbSymbolTable
 70
1
  0
LAYER
  5
50
100
AcDbSymbolTableRecord
100
AcDbLayerTableRecord
  2
0
 70
0
  6
CONTINUOUS
  0
ENDTAB
  0
TABLE
  2
STYLE
  5
3
330
0
100
AcDbSymbolTable
 70
     1
  0
STYLE
  5
11
330
3
100
AcDbSymbolTableRecord
100
AcDbTextStyleTableRecord
  2
STANDARD
 70
     0
 40
0.0
 41
1.0
 50
0.0
 71
     0
 42
2.5
  3
txt
  4

  0
ENDTAB
  0
TABLE
  2
VIEW
  5
6
330
0
100
AcDbSymbolTable
 70
     0
  0
ENDTAB
  0
TABLE
  2
UCS
  5
7
330
0
100
AcDbSymbolTable
 70
     0
  0
ENDTAB
  0
TABLE
  2
APPID
  5
9
330
0
100
AcDbSymbolTable
 70
     2
  0
APPID
  5
12
330
9
100
AcDbSymbolTableRecord
100
AcDbRegAppTableRecord
  2
ACAD
 70
     0
  0
ENDTAB
  0
TABLE
  2
DIMSTYLE
  5
A
330
0
100
AcDbSymbolTable
 70
     1
  0
DIMSTYLE
105
27
330
A
100
AcDbSymbolTableRecord
100
AcDbDimStyleTableRecord
  2
ISO-25
 70
     0
  3

  4

  5

  6

  7

 40
1.0
 41
2.5
 42
0.625
 43
3.75
 44
1.25
 45
0.0
 46
0.0
 47
0.0
 48
0.0
140
2.5
141
2.5
142
0.0
143
0.03937007874016
144
1.0
145
0.0
146
1.0
147
0.625
 71
     0
 72
     0
 73
     0
 74
     0
 75
     0
 76
     0
 77
     1
 78
     8
170
     0
171
     3
172
     1
173
     0
174
     0
175
     0
176
     0
177
     0
178
     0
270
     2
271
     2
272
     2
273
     2
274
     3
340
11
275
     0
280
     0
281
     0
282
     0
283
     0
284
     8
285
     0
286
     0
287
     3
288
     0
  0
ENDTAB
  0
TABLE
  2
BLOCK_RECORD
  5
1
330
0
100
AcDbSymbolTable
 70
     1
  0
BLOCK_RECORD
  5
1F
330
1
100
AcDbSymbolTableRecord
100
AcDbBlockTableRecord
  2
*MODEL_SPACE
  0
BLOCK_RECORD
  5
1B
330
1
100
AcDbSymbolTableRecord
100
AcDbBlockTableRecord
  2
*PAPER_SPACE
  0
ENDTAB
  0
ENDSEC
  0
SECTION
  2
BLOCKS
  0
BLOCK
  5
20
330
1F
100
AcDbEntity
  8
0
100
AcDbBlockBegin
  2
*MODEL_SPACE
 70
     0
 10
0.0
 20
0.0
 30
0.0
  3
*MODEL_SPACE
  1

  0
ENDBLK
  5
21
330
1F
100
AcDbEntity
  8
0
100
AcDbBlockEnd
  0
BLOCK
  5
1C
330
1B
100
AcDbEntity
 67
     1
  8
0
100
AcDbBlockBegin
  2
*PAPER_SPACE
  1

  0
ENDBLK
  5
1D
330
1B
100
AcDbEntity
 67
     1
  8
0
100
AcDbBlockEnd
  0
ENDSEC
  0
SECTION
  2
ENTITIES
  0
SPLINE
  5
100
100
AcDbEntity
  8
0
 62
7
100
AcDbSpline
 70
8
 71
3
 72
8
 73
4
 74
0
 40
0
 40
0
 40
0
 40
0
 40
1
 40
1
 40
1
 40
1
 10
71.125491
 20
120.365274
 30
0.0
 10
71.125491
 20
120.972626
 30
0.0
 10
70.801473
 20
121.533842
 30
0.0
 10
70.275491
 20
121.837517
 30
0.0
  0
SPLINE
  5
101
100
AcDbEntity
  8
0
 62
7
100
AcDbSpline
 70
8
 71
3
 72
8
 73
4
 74
0
 40
0
 40
0
 40
0
 40
0
 40
1
 40
1
 40
1
 40
1
 10
70.275491
 20
121.837517
 30
0.0
 10
69.749509
 20
122.141193
 30
0.0
 10
69.101473
 20
122.141193
 30
0.0
 10
68.575491
 20
121.837517
 30
0.0
  0
SPLINE
  5
102
100
AcDbEntity
  8
0
 62
7
100
AcDbSpline
 70
8
 71
3
 72
8
 73
4
 74
0
 40
0
 40
0
 40
0
 40
0
 40
1
 40
1
 40
1
 40
1
 10
68.575491
 20
121.837517
 30
0.0
 10
68.049509
 20
121.533842
 30
0.0
 10
67.725491
 20
120.972626
 30
0.0
 10
67.725491
 20
120.365274
 30
0.0
  0
SPLINE
  5
103
100
AcDbEntity
  8
0
 62
7
100
AcDbSpline
 70
8
 71
3
 72
8
 73
4
 74
0
 40
0
 40
0
 40
0
 40
0
 40
1
 40
1
 40
1
 40
1
 10
67.725491
 20
120.365274
 30
0.0
 10
67.725491
 20
119.757923
 30
0.0
 10
68.049509
 20
119.196707
 30
0.0
 10
68.575491
 20
118.893031
 30
0.0
  0
SPLINE
  5
104
100
AcDbEntity
  8
0
 62
7
100
AcDbSpline
 70
8
 71
3
 72
8
 73
4
 74
0
 40
0
 40
0
 40
0
 40
0
 40
1
 40
1
 40
1
 40
1
 10
68.575491
 20
118.893031
 30
0.0
 10
69.101473
 20
118.589355
 30
0.0
 10
69.749509
 20
118.589355
 30
0.0
 10
70.275491
 20
118.893031
 30
0.0
  0
SPLINE
  5
105
100
AcDbEntity
  8
0
 62
7
100
AcDbSpline
 70
8
 71
3
 72
8
 73
4
 74
0
 40
0
 40
0
 40
0
 40
0
 40
1
 40
1
 40
1
 40
1
 10
70.275491
 20
118.893031
 30
0.0
 10
70.801473
 20
119.196707
 30
0.0
 10
71.125491
 20
119.757923
 30
0.0
 10
71.125491
 20
120.365274
 30
0.0
  0
LINE
  5
106
100
AcDbEntity
  8
0
 62
7
100
AcDbLine
 10
71.125491
 20
120.365274
 30
0.0
 11
71.125491
 21
120.365274
 31
0.0
  0
SPLINE
  5
107
100
AcDbEntity
  8
0
 62
7
100
AcDbSpline
 70
8
 71
3
 72
8
 73
4
 74
0
 40
0
 40
0
 40
0
 40
0
 40
1
 40
1
 40
1
 40
1
 10
142.930180
 20
120.365274
 30
0.0
 10
142.930180
 20
120.972626
 30
0.0
 10
142.606162
 20
121.533842
 30
0.0
 10
142.080180
 20
121.837517
 30
0.0
  0
SPLINE
  5
108
100
AcDbEntity
  8
0
 62
7
100
AcDbSpline
 70
8
 71
3
 72
8
 73
4
 74
0
 40
0
 40
0
 40
0
 40
0
 40
1
 40
1
 40
1
 40
1
 10
142.080180
 20
121.837517
 30
0.0
 10
141.554198
 20
122.141193
 30
0.0
 10
140.906162
 20
122.141193
 30
0.0
 10
140.380180
 20
121.837517
 30
0.0
  0
SPLINE
  5
109
100
AcDbEntity
  8
0
 62
7
100
AcDbSpline
 70
8
 71
3
 72
8
 73
4
 74
0
 40
0
 40
0
 40
0
 40
0
 40
1
 40
1
 40
1
 40
1
 10
140.380180
 20
121.837517
 30
0.0
 10
139.854198
 20
121.533842
 30
0.0
 10
139.530180
 20
120.972626
 30
0.0
 10
139.530180
 20
120.365274
 30
0.0
  0
SPLINE
  5
10a
100
AcDbEntity
  8
0
 62
7
100
AcDbSpline
 70
8
 71
3
 72
8
 73
4
 74
0
 40
0
 40
0
 40
0
 40
0
 40
1
 40
1
 40
1
 40
1
 10
139.530180
 20
120.365274
 30
0.0
 10
139.530180
 20
119.757923
 30
0.0
 10
139.854198
 20
119.196707
 30
0.0
 10
140.380180
 20
118.893031
 30
0.0
  0
SPLINE
  5
10b
100
AcDbEntity
  8
0
 62
7
100
AcDbSpline
 70
8
 71
3
 72
8
 73
4
 74
0
 40
0
 40
0
 40
0
 40
0
 40
1
 40
1
 40
1
 40
1
 10
140.380180
 20
118.893031
 30
0.0
 10
140.906162
 20
118.589355
 30
0.0
 10
141.554198
 20
118.589355
 30
0.0
 10
142.080180
 20
118.893031
 30
0.0
  0
SPLINE
  5
10c
100
AcDbEntity
  8
0
 62
7
100
AcDbSpline
 70
8
 71
3
 72
8
 73
4
 74
0
 40
0
 40
0
 40
0
 40
0
 40
1
 40
1
 40
1
 40
1
 10
142.080180
 20
118.893031
 30
0.0
 10
142.606162
 20
119.196707
 30
0.0
 10
142.930180
 20
119.757923
 30
0.0
 10
142.930180
 20
120.365274
 30
0.0
  0
LINE
  5
10d
100
AcDbEntity
  8
0
 62
7
100
AcDbLine
 10
142.930180
 20
120.365274
 30
0.0
 11
142.930180
 21
120.365274
 31
0.0
  0
SPLINE
  5
10e
100
AcDbEntity
  8
0
 62
7
100
AcDbSpline
 70
8
 71
3
 72
8
 73
4
 74
0
 40
0
 40
0
 40
0
 40
0
 40
1
 40
1
 40
1
 40
1
 10
142.930180
 20
250.068876
 30
0.0
 10
142.930180
 20
250.676228
 30
0.0
 10
142.606162
 20
251.237443
 30
0.0
 10
142.080180
 20
251.541119
 30
0.0
  0
SPLINE
  5
10f
100
AcDbEntity
  8
0
 62
7
100
AcDbSpline
 70
8
 71
3
 72
8
 73
4
 74
0
 40
0
 40
0
 40
0
 40
0
 40
1
 40
1
 40
1
 40
1
 10
142.080180
 20
251.541119
 30
0.0
 10
141.554198
 20
251.844795
 30
0.0
 10
140.906162
 20
251.844795
 30
0.0
 10
140.380180
 20
251.541119
 30
0.0
  0
SPLINE
  5
110
100
AcDbEntity
  8
0
 62
7
100
AcDbSpline
 70
8
 71
3
 72
8
 73
4
 74
0
 40
0
 40
0
 40
0
 40
0
 40
1
 40
1
 40
1
 40
1
 10
140.380180
 20
251.541119
 30
0.0
 10
139.854198
 20
251.237443
 30
0.0
 10
139.530180
 20
250.676228
 30
0.0
 10
139.530180
 20
250.068876
 30
0.0
  0
SPLINE
  5
111
100
AcDbEntity
  8
0
 62
7
100
AcDbSpline
 70
8
 71
3
 72
8
 73
4
 74
0
 40
0
 40
0
 40
0
 40
0
 40
1
 40
1
 40
1
 40
1
 10
139.530180
 20
250.068876
 30
0.0
 10
139.530180
 20
249.461525
 30
0.0
 10
139.854198
 20
248.900309
 30
0.0
 10
140.380180
 20
248.596633
 30
0.0
  0
SPLINE
  5
112
100
AcDbEntity
  8
0
 62
7
100
AcDbSpline
 70
8
 71
3
 72
8
 73
4
 74
0
 40
0
 40
0
 40
0
 40
0
 40
1
 40
1
 40
1
 40
1
 10
140.380180
 20
248.596633
 30
0.0
 10
140.906162
 20
248.292957
 30
0.0
 10
141.554198
 20
248.292957
 30
0.0
 10
142.080180
 20
248.596633
 30
0.0
  0
SPLINE
  5
113
100
AcDbEntity
  8
0
 62
7
100
AcDbSpline
 70
8
 71
3
 72
8
 73
4
 74
0
 40
0
 40
0
 40
0
 40
0
 40
1
 40
1
 40
1
 40
1
 10
142.080180
 20
248.596633
 30
0.0
 10
142.606162
 20
248.900309
 30
0.0
 10
142.930180
 20
249.461525
 30
0.0
 10
142.930180
 20
250.068876
 30
0.0
  0
LINE
  5
114
100
AcDbEntity
  8
0
 62
7
100
AcDbLine
 10
142.930180
 20
250.068876
 30
0.0
 11
142.930180
 21
250.068876
 31
0.0
  0
SPLINE
  5
115
100
AcDbEntity
  8
0
 62
7
100
AcDbSpline
 70
8
 71
3
 72
8
 73
4
 74
0
 40
0
 40
0
 40
0
 40
0
 40
1
 40
1
 40
1
 40
1
 10
71.125491
 20
250.068876
 30
0.0
 10
71.125491
 20
250.676228
 30
0.0
 10
70.801473
 20
251.237444
 30
0.0
 10
70.275491
 20
251.541119
 30
0.0
  0
SPLINE
  5
116
100
AcDbEntity
  8
0
 62
7
100
AcDbSpline
 70
8
 71
3
 72
8
 73
4
 74
0
 40
0
 40
0
 40
0
 40
0
 40
1
 40
1
 40
1
 40
1
 10
70.275491
 20
251.541119
 30
0.0
 10
69.749509
 20
251.844795
 30
0.0
 10
69.101473
 20
251.844795
 30
0.0
 10
68.575491
 20
251.541119
 30
0.0
  0
SPLINE
  5
117
100
AcDbEntity
  8
0
 62
7
100
AcDbSpline
 70
8
 71
3
 72
8
 73
4
 74
0
 40
0
 40
0
 40
0
 40
0
 40
1
 40
1
 40
1
 40
1
 10
68.575491
 20
251.541119
 30
0.0
 10
68.049509
 20
251.237444
 30
0.0
 10
67.725491
 20
250.676228
 30
0.0
 10
67.725491
 20
250.068876
 30
0.0
  0
SPLINE
  5
118
100
AcDbEntity
  8
0
 62
7
100
AcDbSpline
 70
8
 71
3
 72
8
 73
4
 74
0
 40
0
 40
0
 40
0
 40
0
 40
1
 40
1
 40
1
 40
1
 10
67.725491
 20
250.068876
 30
0.0
 10
67.725491
 20
249.461525
 30
0.0
 10
68.049509
 20
248.900309
 30
0.0
 10
68.575491
 20
248.596633
 30
0.0
  0
SPLINE
  5
119
100
AcDbEntity
  8
0
 62
7
100
AcDbSpline
 70
8
 71
3
 72
8
 73
4
 74
0
 40
0
 40
0
 40
0
 40
0
 40
1
 40
1
 40
1
 40
1
 10
68.575491
 20
248.596633
 30
0.0
 10
69.101473
 20
248.292957
 30
0.0
 10
69.749509
 20
248.292957
 30
0.0
 10
70.275491
 20
248.596633
 30
0.0
  0
SPLINE
  5
11a
100
AcDbEntity
  8
0
 62
7
100
AcDbSpline
 70
8
 71
3
 72
8
 73
4
 74
0
 40
0
 40
0
 40
0
 40
0
 40
1
 40
1
 40
1
 40
1
 10
70.275491
 20
248.596633
 30
0.0
 10
70.801473
 20
248.900309
 30
0.0
 10
71.125491
 20
249.461525
 30
0.0
 10
71.125491
 20
250.068876
 30
0.0
  0
LINE
  5
11b
100
AcDbEntity
  8
0
 62
7
100
AcDbLine
 10
71.125491
 20
250.068876
 30
0.0
 11
71.125491
 21
250.068876
 31
0.0
  0
SPLINE
  5
11c
100
AcDbEntity
  8
0
 62
7
100
AcDbSpline
 70
8
 71
3
 72
8
 73
4
 74
0
 40
0
 40
0
 40
0
 40
0
 40
1
 40
1
 40
1
 40
1
 10
67.325491
 20
247.523291
 30
0.0
 10
68.637232
 20
246.441158
 30
0.0
 10
70.556515
 20
246.532991
 30
0.0
 10
71.758945
 20
247.735422
 30
0.0
  0
SPLINE
  5
11d
100
AcDbEntity
  8
0
 62
7
100
AcDbSpline
 70
8
 71
3
 72
8
 73
4
 74
0
 40
0
 40
0
 40
0
 40
0
 40
1
 40
1
 40
1
 40
1
 10
71.758945
 20
247.735422
 30
0.0
 10
72.961376
 20
248.937852
 30
0.0
 10
73.053209
 20
250.857135
 30
0.0
 10
71.971076
 20
252.168876
 30
0.0
  0
LINE
  5
11e
100
AcDbEntity
  8
0
 62
7
100
AcDbLine
 10
67.325491
 20
247.523291
 30
0.0
 11
67.325491
 21
122.910858
 31
0.0
  0
SPLINE
  5
11f
100
AcDbEntity
  8
0
 62
7
100
AcDbSpline
 70
8
 71
3
 72
8
 73
4
 74
0
 40
0
 40
0
 40
0
 40
0
 40
1
 40
1
 40
1
 40
1
 10
71.971076
 20
118.265274
 30
0.0
 10
73.053208
 20
119.577016
 30
0.0
 10
72.961375
 20
121.496298
 30
0.0
 10
71.758945
 20
122.698728
 30
0.0
  0
SPLINE
  5
120
100
AcDbEntity
  8
0
 62
7
100
AcDbSpline
 70
8
 71
3
 72
8
 73
4
 74
0
 40
0
 40
0
 40
0
 40
0
 40
1
 40
1
 40
1
 40
1
 10
71.758945
 20
122.698728
 30
0.0
 10
70.556514
 20
123.901158
 30
0.0
 10
68.637232
 20
123.992991
 30
0.0
 10
67.325491
 20
122.910858
 30
0.0
  0
LINE
  5
121
100
AcDbEntity
  8
0
 62
7
100
AcDbLine
 10
71.971076
 20
118.265274
 30
0.0
 11
138.684595
 21
118.265274
 31
0.0
  0
SPLINE
  5
122
100
AcDbEntity
  8
0
 62
7
100
AcDbSpline
 70
8
 71
3
 72
8
 73
4
 74
0
 40
0
 40
0
 40
0
 40
0
 40
1
 40
1
 40
1
 40
1
 10
143.330180
 20
122.910858
 30
0.0
 10
142.018439
 20
123.992991
 30
0.0
 10
140.099157
 20
123.901158
 30
0.0
 10
138.896726
 20
122.698728
 30
0.0
  0
SPLINE
  5
123
100
AcDbEntity
  8
0
 62
7
100
AcDbSpline
 70
8
 71
3
 72
8
 73
4
 74
0
 40
0
 40
0
 40
0
 40
0
 40
1
 40
1
 40
1
 40
1
 10
138.896726
 20
122.698728
 30
0.0
 10
137.694296
 20
121.496298
 30
0.0
 10
137.602463
 20
119.577016
 30
0.0
 10
138.684595
 20
118.265274
 30
0.0
  0
LINE
  5
124
100
AcDbEntity
  8
0
 62
7
100
AcDbLine
 10
143.330180
 20
122.910858
 30
0.0
 11
143.330180
 21
140.450143
 31
0.0
  0
LINE
  5
125
100
AcDbEntity
  8
0
 62
7
100
AcDbLine
 10
143.330180
 20
140.450143
 30
0.0
 11
94.950560
 21
140.450143
 31
0.0
  0
LINE
  5
126
100
AcDbEntity
  8
0
 62
7
100
AcDbLine
 10
94.950560
 20
140.450143
 30
0.0
 11
94.950560
 21
171.708164
 31
0.0
  0
LINE
  5
127
100
AcDbEntity
  8
0
 62
7
100
AcDbLine
 10
94.950560
 20
171.708164
 30
0.0
 11
143.330180
 21
171.708164
 31
0.0
  0
LINE
  5
128
100
AcDbEntity
  8
0
 62
7
100
AcDbLine
 10
143.330180
 20
171.708164
 30
0.0
 11
143.330180
 21
196.468655
 31
0.0
  0
LINE
  5
129
100
AcDbEntity
  8
0
 62
7
100
AcDbLine
 10
143.330180
 20
196.468655
 30
0.0
 11
94.950560
 21
196.468655
 31
0.0
  0
LINE
  5
12a
100
AcDbEntity
  8
0
 62
7
100
AcDbLine
 10
94.950560
 20
196.468655
 30
0.0
 11
94.950560
 21
226.984005
 31
0.0
  0
LINE
  5
12b
100
AcDbEntity
  8
0
 62
7
100
AcDbLine
 10
94.950560
 20
226.984005
 30
0.0
 11
143.330180
 21
226.984005
 31
0.0
  0
LINE
  5
12c
100
AcDbEntity
  8
0
 62
7
100
AcDbLine
 10
143.330180
 20
226.984005
 30
0.0
 11
143.330180
 21
247.523291
 31
0.0
  0
SPLINE
  5
12d
100
AcDbEntity
  8
0
 62
7
100
AcDbSpline
 70
8
 71
3
 72
8
 73
4
 74
0
 40
0
 40
0
 40
0
 40
0
 40
1
 40
1
 40
1
 40
1
 10
138.684595
 20
252.168876
 30
0.0
 10
137.602462
 20
250.857135
 30
0.0
 10
137.694295
 20
248.937852
 30
0.0
 10
138.896726
 20
247.735422
 30
0.0
  0
SPLINE
  5
12e
100
AcDbEntity
  8
0
 62
7
100
AcDbSpline
 70
8
 71
3
 72
8
 73
4
 74
0
 40
0
 40
0
 40
0
 40
0
 40
1
 40
1
 40
1
 40
1
 10
138.896726
 20
247.735422
 30
0.0
 10
140.099156
 20
246.532991
 30
0.0
 10
142.018439
 20
246.441158
 30
0.0
 10
143.330180
 20
247.523291
 30
0.0
  0
LINE
  5
12f
100
AcDbEntity
  8
0
 62
7
100
AcDbLine
 10
138.684595
 20
252.168876
 30
0.0
 11
71.971076
 21
252.168876
 31
0.0
  0
LINE
  5
130
100
AcDbEntity
  8
0
 62
7
100
AcDbLine
 10
66.125491
 20
253.368876
 30
0.0
 11
66.125491
 21
117.065274
 31
0.0
  0
LINE
  5
131
100
AcDbEntity
  8
0
 62
7
100
AcDbLine
 10
144.530180
 20
253.368876
 30
0.0
 11
66.125491
 21
253.368876
 31
0.0
  0
LINE
  5
132
100
AcDbEntity
  8
0
 62
7
100
AcDbLine
 10
144.530180
 20
225.784005
 30
0.0
 11
144.530180
 21
253.368876
 31
0.0
  0
LINE
  5
133
100
AcDbEntity
  8
0
 62
7
100
AcDbLine
 10
96.150560
 20
225.784005
 30
0.0
 11
144.530180
 21
225.784005
 31
0.0
  0
LINE
  5
134
100
AcDbEntity
  8
0
 62
7
100
AcDbLine
 10
96.150560
 20
197.668655
 30
0.0
 11
96.150560
 21
225.784005
 31
0.0
  0
LINE
  5
135
100
AcDbEntity
  8
0
 62
7
100
AcDbLine
 10
144.530180
 20
197.668655
 30
0.0
 11
96.150560
 21
197.668655
 31
0.0
  0
LINE
  5
136
100
AcDbEntity
  8
0
 62
7
100
AcDbLine
 10
144.530180
 20
170.508164
 30
0.0
 11
144.530180
 21
197.668655
 31
0.0
  0
LINE
  5
137
100
AcDbEntity
  8
0
 62
7
100
AcDbLine
 10
96.150560
 20
170.508164
 30
0.0
 11
144.530180
 21
170.508164
 31
0.0
  0
LINE
  5
138
100
AcDbEntity
  8
0
 62
7
100
AcDbLine
 10
96.150560
 20
141.650143
 30
0.0
 11
96.150560
 21
170.508164
 31
0.0
  0
LINE
  5
139
100
AcDbEntity
  8
0
 62
7
100
AcDbLine
 10
144.530180
 20
141.650143
 30
0.0
 11
96.150560
 21
141.650143
 31
0.0
  0
LINE
  5
13a
100
AcDbEntity
  8
0
 62
7
100
AcDbLine
 10
144.530180
 20
117.065274
 30
0.0
 11
144.530180
 21
141.650143
 31
0.0
  0
LINE
  5
13b
100
AcDbEntity
  8
0
 62
7
100
AcDbLine
 10
144.530180
 20
117.065274
 30
0.0
 11
66.125491
 21
117.065274
 31
0.0
  0
ENDSEC
  0
SECTION
  2
OBJECTS
  0
DICTIONARY
  5
C
330
0
100
AcDbDictionary
  3
ACAD_GROUP
350
D
  3
ACAD_MLINESTYLE
350
17
  0
DICTIONARY
  5
D
330
C
100
AcDbDictionary
  0
DICTIONARY
  5
1A
330
C
100
AcDbDictionary
  0
DICTIONARY
  5
17
330
C
100
AcDbDictionary
  3
STANDARD
350
18
  0
DICTIONARY
  5
19
330
C
100
AcDbDictionary
  0
ENDSEC
  0
EOF
