  0
SECTION
  2
HEADER
  9
$ACADVER
  1
AC1014
  9
$HANDSEED
  5
FFFF
  9
$MEASUREMENT
 70
     1
  0
ENDSEC
  0
SECTION
  2
TABLES
  0
TABLE
  2
VPORT
  5
8
330
0
100
AcDbSymbolTable
 70
     4
  0
VPORT
  5
2E
330
8
100
AcDbSymbolTableRecord
100
AcDbViewportTableRecord
  2
*ACTIVE
 70
     0
 10
0.0
 20
0.0
 11
1.0
 21
1.0
 12
210.0
 22
148.5
 13
0.0
 23
0.0
 14
10.0
 24
10.0
 15
10.0
 25
10.0
 16
0.0
 26
0.0
 36
1.0
 17
0.0
 27
0.0
 37
0.0
 40
341.0
 41
1.24
 42
50.0
 43
0.0
 44
0.0
 50
0.0
 51
0.0
 71
     0
 72
   100
 73
     1
 74
     3
 75
     0
 76
     0
 77
     0
 78
     0
  0
ENDTAB
  0
TABLE
  2
LTYPE
  5
5
330
0
100
AcDbSymbolTable
 70
     1
  0
LTYPE
  5
14
330
5
100
AcDbSymbolTableRecord
100
AcDbLinetypeTableRecord
  2
BYBLOCK
 70
     0
  3

 72
    65
 73
     0
 40
0.0
  0
LTYPE
  5
15
330
5
100
AcDbSymbolTableRecord
100
AcDbLinetypeTableRecord
  2
BYLAYER
 70
     0
  3

 72
    65
 73
     0
 40
0.0
  0
LTYPE
  5
16
330
5
100
AcDbSymbolTableRecord
100
AcDbLinetypeTableRecord
  2
CONTINUOUS
 70
     0
  3
Solid line
 72
    65
 73
     0
 40
0.0
  0
ENDTAB
  0
TABLE
  2
LAYER
  5
2
100
AcDbSymbolTable
 70
1
  0
LAYER
  5
50
100
AcDbSymbolTableRecord
100
AcDbLayerTableRecord
  2
0
 70
0
  6
CONTINUOUS
  0
ENDTAB
  0
TABLE
  2
STYLE
  5
3
330
0
100
AcDbSymbolTable
 70
     1
  0
STYLE
  5
11
330
3
100
AcDbSymbolTableRecord
100
AcDbTextStyleTableRecord
  2
STANDARD
 70
     0
 40
0.0
 41
1.0
 50
0.0
 71
     0
 42
2.5
  3
txt
  4

  0
ENDTAB
  0
TABLE
  2
VIEW
  5
6
330
0
100
AcDbSymbolTable
 70
     0
  0
ENDTAB
  0
TABLE
  2
UCS
  5
7
330
0
100
AcDbSymbolTable
 70
     0
  0
ENDTAB
  0
TABLE
  2
APPID
  5
9
330
0
100
AcDbSymbolTable
 70
     2
  0
APPID
  5
12
330
9
100
AcDbSymbolTableRecord
100
AcDbRegAppTableRecord
  2
ACAD
 70
     0
  0
ENDTAB
  0
TABLE
  2
DIMSTYLE
  5
A
330
0
100
AcDbSymbolTable
 70
     1
  0
DIMSTYLE
105
27
330
A
100
AcDbSymbolTableRecord
100
AcDbDimStyleTableRecord
  2
ISO-25
 70
     0
  3

  4

  5

  6

  7

 40
1.0
 41
2.5
 42
0.625
 43
3.75
 44
1.25
 45
0.0
 46
0.0
 47
0.0
 48
0.0
140
2.5
141
2.5
142
0.0
143
0.03937007874016
144
1.0
145
0.0
146
1.0
147
0.625
 71
     0
 72
     0
 73
     0
 74
     0
 75
     0
 76
     0
 77
     1
 78
     8
170
     0
171
     3
172
     1
173
     0
174
     0
175
     0
176
     0
177
     0
178
     0
270
     2
271
     2
272
     2
273
     2
274
     3
340
11
275
     0
280
     0
281
     0
282
     0
283
     0
284
     8
285
     0
286
     0
287
     3
288
     0
  0
ENDTAB
  0
TABLE
  2
BLOCK_RECORD
  5
1
330
0
100
AcDbSymbolTable
 70
     1
  0
BLOCK_RECORD
  5
1F
330
1
100
AcDbSymbolTableRecord
100
AcDbBlockTableRecord
  2
*MODEL_SPACE
  0
BLOCK_RECORD
  5
1B
330
1
100
AcDbSymbolTableRecord
100
AcDbBlockTableRecord
  2
*PAPER_SPACE
  0
ENDTAB
  0
ENDSEC
  0
SECTION
  2
BLOCKS
  0
BLOCK
  5
20
330
1F
100
AcDbEntity
  8
0
100
AcDbBlockBegin
  2
*MODEL_SPACE
 70
     0
 10
0.0
 20
0.0
 30
0.0
  3
*MODEL_SPACE
  1

  0
ENDBLK
  5
21
330
1F
100
AcDbEntity
  8
0
100
AcDbBlockEnd
  0
BLOCK
  5
1C
330
1B
100
AcDbEntity
 67
     1
  8
0
100
AcDbBlockBegin
  2
*PAPER_SPACE
  1

  0
ENDBLK
  5
1D
330
1B
100
AcDbEntity
 67
     1
  8
0
100
AcDbBlockEnd
  0
ENDSEC
  0
SECTION
  2
ENTITIES
  0
SPLINE
  5
100
100
AcDbEntity
  8
0
 62
7
100
AcDbSpline
 70
8
 71
3
 72
8
 73
4
 74
0
 40
0
 40
0
 40
0
 40
0
 40
1
 40
1
 40
1
 40
1
 10
156.228754
 20
231.570536
 30
0.0
 10
143.390777
 20
252.486953
 30
0.0
 10
125.031090
 20
262.945161
 30
0.0
 10
101.149693
 20
262.945161
 30
0.0
  0
LINE
  5
101
100
AcDbEntity
  8
0
 62
7
100
AcDbLine
 10
136.764725
 20
213.346330
 30
0.0
 11
156.228754
 21
231.570536
 31
0.0
  0
SPLINE
  5
102
100
AcDbEntity
  8
0
 62
7
100
AcDbSpline
 70
8
 71
3
 72
8
 73
4
 74
0
 40
0
 40
0
 40
0
 40
0
 40
1
 40
1
 40
1
 40
1
 10
121.649043
 20
229.085415
 30
0.0
 10
127.653903
 20
225.633860
 30
0.0
 10
132.692464
 20
220.387499
 30
0.0
 10
136.764725
 20
213.346330
 30
0.0
  0
SPLINE
  5
103
100
AcDbEntity
  8
0
 62
7
100
AcDbSpline
 70
8
 71
3
 72
8
 73
4
 74
0
 40
0
 40
0
 40
0
 40
0
 40
1
 40
1
 40
1
 40
1
 10
102.806205
 20
234.366295
 30
0.0
 10
109.363236
 20
234.366295
 30
0.0
 10
115.644183
 20
232.606001
 30
0.0
 10
121.649043
 20
229.085415
 30
0.0
  0
SPLINE
  5
104
100
AcDbEntity
  8
0
 62
7
100
AcDbSpline
 70
8
 71
3
 72
8
 73
4
 74
0
 40
0
 40
0
 40
0
 40
0
 40
1
 40
1
 40
1
 40
1
 10
75.059609
 20
222.251339
 30
0.0
 10
82.928046
 20
230.327976
 30
0.0
 10
92.176912
 20
234.366295
 30
0.0
 10
102.806205
 20
234.366295
 30
0.0
  0
SPLINE
  5
105
100
AcDbEntity
  8
0
 62
7
100
AcDbSpline
 70
8
 71
3
 72
8
 73
4
 74
0
 40
0
 40
0
 40
0
 40
0
 40
1
 40
1
 40
1
 40
1
 10
63.360486
 20
193.672469
 30
0.0
 10
63.360486
 20
204.648412
 30
0.0
 10
67.260194
 20
214.174702
 30
0.0
 10
75.059609
 20
222.251339
 30
0.0
  0
SPLINE
  5
106
100
AcDbEntity
  8
0
 62
7
100
AcDbSpline
 70
8
 71
3
 72
8
 73
4
 74
0
 40
0
 40
0
 40
0
 40
0
 40
1
 40
1
 40
1
 40
1
 10
75.059609
 20
163.954588
 30
0.0
 10
67.260194
 20
172.100257
 30
0.0
 10
63.360486
 20
182.006217
 30
0.0
 10
63.360486
 20
193.672469
 30
0.0
  0
SPLINE
  5
107
100
AcDbEntity
  8
0
 62
7
100
AcDbSpline
 70
8
 71
3
 72
8
 73
4
 74
0
 40
0
 40
0
 40
0
 40
0
 40
1
 40
1
 40
1
 40
1
 10
103.427398
 20
151.839635
 30
0.0
 10
92.383976
 20
151.839635
 30
0.0
 10
82.928046
 20
155.877953
 30
0.0
 10
75.059609
 20
163.954588
 30
0.0
  0
SPLINE
  5
108
100
AcDbEntity
  8
0
 62
7
100
AcDbSpline
 70
8
 71
3
 72
8
 73
4
 74
0
 40
0
 40
0
 40
0
 40
0
 40
1
 40
1
 40
1
 40
1
 10
120.717252
 20
156.395686
 30
0.0
 10
115.195543
 20
153.358319
 30
0.0
 10
109.432259
 20
151.839635
 30
0.0
 10
103.427398
 20
151.839635
 30
0.0
  0
SPLINE
  5
109
100
AcDbEntity
  8
0
 62
7
100
AcDbSpline
 70
8
 71
3
 72
8
 73
4
 74
0
 40
0
 40
0
 40
0
 40
0
 40
1
 40
1
 40
1
 40
1
 10
134.176423
 20
173.480878
 30
0.0
 10
130.794376
 20
165.128117
 30
0.0
 10
126.307985
 20
159.433053
 30
0.0
 10
120.717252
 20
156.395686
 30
0.0
  0
LINE
  5
10a
100
AcDbEntity
  8
0
 62
7
100
AcDbLine
 10
101.977947
 20
173.480878
 30
0.0
 11
134.176423
 21
173.480878
 31
0.0
  0
LINE
  5
10b
100
AcDbEntity
  8
0
 62
7
100
AcDbLine
 10
101.977947
 20
199.988815
 30
0.0
 11
101.977947
 21
173.480878
 31
0.0
  0
LINE
  5
10c
100
AcDbEntity
  8
0
 62
7
100
AcDbLine
 10
164.718384
 20
199.988815
 30
0.0
 11
101.977947
 21
199.988815
 31
0.0
  0
LINE
  5
10d
100
AcDbEntity
  8
0
 62
7
100
AcDbLine
 10
164.718384
 20
182.385887
 30
0.0
 11
164.718384
 21
199.988815
 31
0.0
  0
SPLINE
  5
10e
100
AcDbEntity
  8
0
 62
7
100
AcDbSpline
 70
8
 71
3
 72
8
 73
4
 74
0
 40
0
 40
0
 40
0
 40
0
 40
1
 40
1
 40
1
 40
1
 10
155.400497
 20
153.185739
 30
0.0
 10
161.612421
 20
163.609432
 30
0.0
 10
164.718384
 20
173.342815
 30
0.0
 10
164.718384
 20
182.385887
 30
0.0
  0
SPLINE
  5
10f
100
AcDbEntity
  8
0
 62
7
100
AcDbSpline
 70
8
 71
3
 72
8
 73
4
 74
0
 40
0
 40
0
 40
0
 40
0
 40
1
 40
1
 40
1
 40
1
 10
130.863397
 20
130.405482
 30
0.0
 10
141.009538
 20
135.237658
 30
0.0
 10
149.188572
 20
142.831077
 30
0.0
 10
155.400497
 20
153.185739
 30
0.0
  0
SPLINE
  5
110
100
AcDbEntity
  8
0
 62
7
100
AcDbSpline
 70
8
 71
3
 72
8
 73
4
 74
0
 40
0
 40
0
 40
0
 40
0
 40
1
 40
1
 40
1
 40
1
 10
120.110269
 20
126.260765
 30
0.0
 10
123.707474
 20
127.347234
 30
0.0
 10
127.291850
 20
128.728806
 30
0.0
 10
130.863397
 20
130.405482
 30
0.0
  0
LINE
  5
111
100
AcDbEntity
  8
0
 62
7
100
AcDbLine
 10
120.110269
 20
126.260765
 30
0.0
 11
79.809622
 21
126.260765
 31
0.0
  0
SPLINE
  5
112
100
AcDbEntity
  8
0
 62
7
100
AcDbSpline
 70
8
 71
3
 72
8
 73
4
 74
0
 40
0
 40
0
 40
0
 40
0
 40
1
 40
1
 40
1
 40
1
 10
52.593151
 20
143.659449
 30
0.0
 10
60.550382
 20
135.275520
 30
0.0
 10
69.622539
 20
129.475959
 30
0.0
 10
79.809622
 20
126.260765
 30
0.0
  0
SPLINE
  5
113
100
AcDbEntity
  8
0
 62
7
100
AcDbSpline
 70
8
 71
3
 72
8
 73
4
 74
0
 40
0
 40
0
 40
0
 40
0
 40
1
 40
1
 40
1
 40
1
 10
33.232655
 20
194.086657
 30
0.0
 10
33.232655
 20
174.067643
 30
0.0
 10
39.686154
 20
157.258574
 30
0.0
 10
52.593151
 20
143.659449
 30
0.0
  0
SPLINE
  5
114
100
AcDbEntity
  8
0
 62
7
100
AcDbSpline
 70
8
 71
3
 72
8
 73
4
 74
0
 40
0
 40
0
 40
0
 40
0
 40
1
 40
1
 40
1
 40
1
 10
53.110811
 20
242.753570
 30
0.0
 10
39.858707
 20
229.292510
 30
0.0
 10
33.232655
 20
213.070205
 30
0.0
 10
33.232655
 20
194.086657
 30
0.0
  0
SPLINE
  5
115
100
AcDbEntity
  8
0
 62
7
100
AcDbSpline
 70
8
 71
3
 72
8
 73
4
 74
0
 40
0
 40
0
 40
0
 40
0
 40
1
 40
1
 40
1
 40
1
 10
101.149693
 20
262.945161
 30
0.0
 10
82.444898
 20
262.945161
 30
0.0
 10
66.431938
 20
256.214631
 30
0.0
 10
53.110811
 20
242.753570
 30
0.0
  0
LINE
  5
116
100
AcDbEntity
  8
0
 62
7
100
AcDbLine
 10
137.032453
 20
215.240900
 30
0.0
 11
149.839488
 21
227.232150
 31
0.0
  0
SPLINE
  5
117
100
AcDbEntity
  8
0
 62
7
100
AcDbSpline
 70
8
 71
3
 72
8
 73
4
 74
0
 40
0
 40
0
 40
0
 40
0
 40
1
 40
1
 40
1
 40
1
 10
153.555906
 20
230.711839
 30
0.0
 10
153.446755
 20
232.449330
 30
0.0
 10
152.006649
 20
233.803177
 30
0.0
 10
150.265733
 20
233.804936
 30
0.0
  0
SPLINE
  5
118
100
AcDbEntity
  8
0
 62
7
100
AcDbSpline
 70
8
 71
3
 72
8
 73
4
 74
0
 40
0
 40
0
 40
0
 40
0
 40
1
 40
1
 40
1
 40
1
 10
150.265733
 20
233.804936
 30
0.0
 10
148.524818
 20
233.806696
 30
0.0
 10
147.081978
 20
232.455762
 30
0.0
 10
146.969316
 20
230.718495
 30
0.0
  0
SPLINE
  5
119
100
AcDbEntity
  8
0
 62
7
100
AcDbSpline
 70
8
 71
3
 72
8
 73
4
 74
0
 40
0
 40
0
 40
0
 40
0
 40
1
 40
1
 40
1
 40
1
 10
146.969316
 20
230.718495
 30
0.0
 10
146.856654
 20
228.981228
 30
0.0
 10
148.112926
 20
227.455256
 30
0.0
 10
149.839488
 20
227.232150
 30
0.0
  0
LINE
  5
11a
100
AcDbEntity
  8
0
 62
7
100
AcDbLine
 10
153.555906
 20
230.711839
 30
0.0
 11
154.689750
 21
231.773459
 31
0.0
  0
SPLINE
  5
11b
100
AcDbEntity
  8
0
 62
7
100
AcDbSpline
 70
8
 71
3
 72
8
 73
4
 74
0
 40
0
 40
0
 40
0
 40
0
 40
1
 40
1
 40
1
 40
1
 10
154.689750
 20
231.773459
 30
0.0
 10
150.729213
 20
238.065879
 30
0.0
 10
145.852517
 20
243.934744
 30
0.0
 10
140.100430
 20
248.645783
 30
0.0
  0
SPLINE
  5
11c
100
AcDbEntity
  8
0
 62
7
100
AcDbSpline
 70
8
 71
3
 72
8
 73
4
 74
0
 40
0
 40
0
 40
0
 40
0
 40
1
 40
1
 40
1
 40
1
 10
140.100430
 20
248.645783
 30
0.0
 10
135.206336
 20
252.654115
 30
0.0
 10
129.557645
 20
255.884632
 30
0.0
 10
123.609452
 20
258.038206
 30
0.0
  0
SPLINE
  5
11d
100
AcDbEntity
  8
0
 62
7
100
AcDbSpline
 70
8
 71
3
 72
8
 73
4
 74
0
 40
0
 40
0
 40
0
 40
0
 40
1
 40
1
 40
1
 40
1
 10
123.609452
 20
258.038206
 30
0.0
 10
117.673892
 20
260.187206
 30
0.0
 10
111.323939
 20
261.334921
 30
0.0
 10
105.019185
 20
261.649807
 30
0.0
  0
SPLINE
  5
11e
100
AcDbEntity
  8
0
 62
7
100
AcDbSpline
 70
8
 71
3
 72
8
 73
4
 74
0
 40
0
 40
0
 40
0
 40
0
 40
1
 40
1
 40
1
 40
1
 10
105.019185
 20
261.649807
 30
0.0
 10
103.730569
 20
261.714166
 30
0.0
 10
102.439915
 20
261.745161
 30
0.0
 10
101.149693
 20
261.745161
 30
0.0
  0
SPLINE
  5
11f
100
AcDbEntity
  8
0
 62
7
100
AcDbSpline
 70
8
 71
3
 72
8
 73
4
 74
0
 40
0
 40
0
 40
0
 40
0
 40
1
 40
1
 40
1
 40
1
 10
101.149693
 20
261.745161
 30
0.0
 10
96.299007
 20
261.745161
 30
0.0
 10
91.417034
 20
261.276916
 30
0.0
 10
86.673141
 20
260.264674
 30
0.0
  0
SPLINE
  5
120
100
AcDbEntity
  8
0
 62
7
100
AcDbSpline
 70
8
 71
3
 72
8
 73
4
 74
0
 40
0
 40
0
 40
0
 40
0
 40
1
 40
1
 40
1
 40
1
 10
86.673141
 20
260.264674
 30
0.0
 10
79.896096
 20
258.818601
 30
0.0
 10
73.274535
 20
256.187684
 30
0.0
 10
67.354337
 20
252.586194
 30
0.0
  0
SPLINE
  5
121
100
AcDbEntity
  8
0
 62
7
100
AcDbSpline
 70
8
 71
3
 72
8
 73
4
 74
0
 40
0
 40
0
 40
0
 40
0
 40
1
 40
1
 40
1
 40
1
 10
67.354337
 20
252.586194
 30
0.0
 10
62.477233
 20
249.619259
 30
0.0
 10
57.979250
 20
245.967158
 30
0.0
 10
53.963761
 20
241.909487
 30
0.0
  0
SPLINE
  5
122
100
AcDbEntity
  8
0
 62
7
100
AcDbSpline
 70
8
 71
3
 72
8
 73
4
 74
0
 40
0
 40
0
 40
0
 40
0
 40
1
 40
1
 40
1
 40
1
 10
53.965950
 20
241.911705
 30
0.0
 10
50.557554
 20
238.449566
 30
0.0
 10
47.452670
 20
234.647340
 30
0.0
 10
44.815542
 20
230.567005
 30
0.0
  0
SPLINE
  5
123
100
AcDbEntity
  8
0
 62
7
100
AcDbSpline
 70
8
 71
3
 72
8
 73
4
 74
0
 40
0
 40
0
 40
0
 40
0
 40
1
 40
1
 40
1
 40
1
 10
44.815542
 20
230.567005
 30
0.0
 10
40.939830
 20
224.570252
 30
0.0
 10
38.038392
 20
217.825614
 30
0.0
 10
36.362453
 20
210.884907
 30
0.0
  0
SPLINE
  5
124
100
AcDbEntity
  8
0
 62
7
100
AcDbSpline
 70
8
 71
3
 72
8
 73
4
 74
0
 40
0
 40
0
 40
0
 40
0
 40
1
 40
1
 40
1
 40
1
 10
36.362453
 20
210.884907
 30
0.0
 10
35.039518
 20
205.406121
 30
0.0
 10
34.432655
 20
199.722902
 30
0.0
 10
34.432655
 20
194.086657
 30
0.0
  0
SPLINE
  5
125
100
AcDbEntity
  8
0
 62
7
100
AcDbSpline
 70
8
 71
3
 72
8
 73
4
 74
0
 40
0
 40
0
 40
0
 40
0
 40
1
 40
1
 40
1
 40
1
 10
34.432655
 20
194.086657
 30
0.0
 10
34.432655
 20
188.972303
 30
0.0
 10
34.864310
 20
183.830597
 30
0.0
 10
35.821175
 20
178.806552
 30
0.0
  0
SPLINE
  5
126
100
AcDbEntity
  8
0
 62
7
100
AcDbSpline
 70
8
 71
3
 72
8
 73
4
 74
0
 40
0
 40
0
 40
0
 40
0
 40
1
 40
1
 40
1
 40
1
 10
35.821175
 20
178.806552
 30
0.0
 10
37.262581
 20
171.238414
 30
0.0
 10
39.985342
 20
163.790406
 30
0.0
 10
43.886280
 20
157.146834
 30
0.0
  0
SPLINE
  5
127
100
AcDbEntity
  8
0
 62
7
100
AcDbSpline
 70
8
 71
3
 72
8
 73
4
 74
0
 40
0
 40
0
 40
0
 40
0
 40
1
 40
1
 40
1
 40
1
 10
43.886280
 20
157.146834
 30
0.0
 10
46.565755
 20
152.583502
 30
0.0
 10
49.820592
 20
148.323836
 30
0.0
 10
53.463539
 20
144.485539
 30
0.0
  0
SPLINE
  5
128
100
AcDbEntity
  8
0
 62
7
100
AcDbSpline
 70
8
 71
3
 72
8
 73
4
 74
0
 40
0
 40
0
 40
0
 40
0
 40
1
 40
1
 40
1
 40
1
 10
53.463539
 20
144.485539
 30
0.0
 10
56.997209
 20
140.762381
 30
0.0
 10
60.942061
 20
137.374943
 30
0.0
 10
65.224346
 20
134.544615
 30
0.0
  0
SPLINE
  5
129
100
AcDbEntity
  8
0
 62
7
100
AcDbSpline
 70
8
 71
3
 72
8
 73
4
 74
0
 40
0
 40
0
 40
0
 40
0
 40
1
 40
1
 40
1
 40
1
 10
65.224346
 20
134.544615
 30
0.0
 10
69.779869
 20
131.533693
 30
0.0
 10
74.793087
 20
129.120290
 30
0.0
 10
79.995435
 20
127.460765
 30
0.0
  0
LINE
  5
12a
100
AcDbEntity
  8
0
 62
7
100
AcDbLine
 10
79.995435
 20
127.460765
 30
0.0
 11
119.932265
 21
127.460765
 31
0.0
  0
SPLINE
  5
12b
100
AcDbEntity
  8
0
 62
7
100
AcDbSpline
 70
8
 71
3
 72
8
 73
4
 74
0
 40
0
 40
0
 40
0
 40
0
 40
1
 40
1
 40
1
 40
1
 10
119.932265
 20
127.460765
 30
0.0
 10
123.495108
 20
128.546282
 30
0.0
 10
126.981943
 20
129.908973
 30
0.0
 10
130.353450
 20
131.491739
 30
0.0
  0
SPLINE
  5
12c
100
AcDbEntity
  8
0
 62
7
100
AcDbSpline
 70
8
 71
3
 72
8
 73
4
 74
0
 40
0
 40
0
 40
0
 40
0
 40
1
 40
1
 40
1
 40
1
 10
130.347417
 20
131.488886
 30
0.0
 10
133.141969
 20
132.819812
 30
0.0
 10
135.834408
 20
134.393017
 30
0.0
 10
138.358709
 20
136.184325
 30
0.0
  0
SPLINE
  5
12d
100
AcDbEntity
  8
0
 62
7
100
AcDbSpline
 70
8
 71
3
 72
8
 73
4
 74
0
 40
0
 40
0
 40
0
 40
0
 40
1
 40
1
 40
1
 40
1
 10
138.358709
 20
136.184325
 30
0.0
 10
140.787132
 20
137.907596
 30
0.0
 10
143.076313
 20
139.844027
 30
0.0
 10
145.185651
 20
141.945835
 30
0.0
  0
SPLINE
  5
12e
100
AcDbEntity
  8
0
 62
7
100
AcDbSpline
 70
8
 71
3
 72
8
 73
4
 74
0
 40
0
 40
0
 40
0
 40
0
 40
1
 40
1
 40
1
 40
1
 10
145.185651
 20
141.945835
 30
0.0
 10
148.727290
 20
145.474832
 30
0.0
 10
151.799407
 20
149.515701
 30
0.0
 10
154.371467
 20
153.803070
 30
0.0
  0
SPLINE
  5
12f
100
AcDbEntity
  8
0
 62
7
100
AcDbSpline
 70
8
 71
3
 72
8
 73
4
 74
0
 40
0
 40
0
 40
0
 40
0
 40
1
 40
1
 40
1
 40
1
 10
154.369665
 20
153.800056
 30
0.0
 10
155.957727
 20
156.464845
 30
0.0
 10
157.418323
 20
159.213219
 30
0.0
 10
158.690950
 20
162.042258
 30
0.0
  0
SPLINE
  5
130
100
AcDbEntity
  8
0
 62
7
100
AcDbSpline
 70
8
 71
3
 72
8
 73
4
 74
0
 40
0
 40
0
 40
0
 40
0
 40
1
 40
1
 40
1
 40
1
 10
158.690950
 20
162.042258
 30
0.0
 10
160.099681
 20
165.173856
 30
0.0
 10
161.285808
 20
168.424410
 30
0.0
 10
162.129719
 20
171.752959
 30
0.0
  0
SPLINE
  5
131
100
AcDbEntity
  8
0
 62
7
100
AcDbSpline
 70
8
 71
3
 72
8
 73
4
 74
0
 40
0
 40
0
 40
0
 40
0
 40
1
 40
1
 40
1
 40
1
 10
162.129719
 20
171.752959
 30
0.0
 10
163.008169
 20
175.217742
 30
0.0
 10
163.518384
 20
178.811479
 30
0.0
 10
163.518384
 20
182.385887
 30
0.0
  0
LINE
  5
132
100
AcDbEntity
  8
0
 62
7
100
AcDbLine
 10
163.518384
 20
182.385887
 30
0.0
 11
163.518384
 21
194.143231
 31
0.0
  0
SPLINE
  5
133
100
AcDbEntity
  8
0
 62
7
100
AcDbSpline
 70
8
 71
3
 72
8
 73
4
 74
0
 40
0
 40
0
 40
0
 40
0
 40
1
 40
1
 40
1
 40
1
 10
158.872800
 20
198.788815
 30
0.0
 10
157.790668
 20
197.477073
 30
0.0
 10
157.882501
 20
195.557792
 30
0.0
 10
159.084931
 20
194.355362
 30
0.0
  0
SPLINE
  5
134
100
AcDbEntity
  8
0
 62
7
100
AcDbSpline
 70
8
 71
3
 72
8
 73
4
 74
0
 40
0
 40
0
 40
0
 40
0
 40
1
 40
1
 40
1
 40
1
 10
159.084931
 20
194.355362
 30
0.0
 10
160.287361
 20
193.152932
 30
0.0
 10
162.206643
 20
193.061099
 30
0.0
 10
163.518384
 20
194.143231
 30
0.0
  0
LINE
  5
135
100
AcDbEntity
  8
0
 62
7
100
AcDbLine
 10
158.872800
 20
198.788815
 30
0.0
 11
107.823531
 21
198.788815
 31
0.0
  0
SPLINE
  5
136
100
AcDbEntity
  8
0
 62
7
100
AcDbSpline
 70
8
 71
3
 72
8
 73
4
 74
0
 40
0
 40
0
 40
0
 40
0
 40
1
 40
1
 40
1
 40
1
 10
103.177947
 20
194.143231
 30
0.0
 10
104.489689
 20
193.061099
 30
0.0
 10
106.408970
 20
193.152932
 30
0.0
 10
107.611400
 20
194.355362
 30
0.0
  0
SPLINE
  5
137
100
AcDbEntity
  8
0
 62
7
100
AcDbSpline
 70
8
 71
3
 72
8
 73
4
 74
0
 40
0
 40
0
 40
0
 40
0
 40
1
 40
1
 40
1
 40
1
 10
107.611400
 20
194.355362
 30
0.0
 10
108.813830
 20
195.557792
 30
0.0
 10
108.905663
 20
197.477073
 30
0.0
 10
107.823531
 20
198.788815
 30
0.0
  0
LINE
  5
138
100
AcDbEntity
  8
0
 62
7
100
AcDbLine
 10
103.177947
 20
194.143231
 30
0.0
 11
103.177947
 21
179.326462
 31
0.0
  0
SPLINE
  5
139
100
AcDbEntity
  8
0
 62
7
100
AcDbSpline
 70
8
 71
3
 72
8
 73
4
 74
0
 40
0
 40
0
 40
0
 40
0
 40
1
 40
1
 40
1
 40
1
 10
107.823531
 20
174.680878
 30
0.0
 10
108.905663
 20
175.992619
 30
0.0
 10
108.813830
 20
177.911901
 30
0.0
 10
107.611400
 20
179.114331
 30
0.0
  0
SPLINE
  5
13a
100
AcDbEntity
  8
0
 62
7
100
AcDbSpline
 70
8
 71
3
 72
8
 73
4
 74
0
 40
0
 40
0
 40
0
 40
0
 40
1
 40
1
 40
1
 40
1
 10
107.611400
 20
179.114331
 30
0.0
 10
106.408970
 20
180.316761
 30
0.0
 10
104.489689
 20
180.408594
 30
0.0
 10
103.177947
 20
179.326462
 30
0.0
  0
LINE
  5
13b
100
AcDbEntity
  8
0
 62
7
100
AcDbLine
 10
107.823531
 20
174.680878
 30
0.0
 11
135.956941
 21
174.680878
 31
0.0
  0
SPLINE
  5
13c
100
AcDbEntity
  8
0
 62
7
100
AcDbSpline
 70
8
 71
3
 72
8
 73
4
 74
0
 40
0
 40
0
 40
0
 40
0
 40
1
 40
1
 40
1
 40
1
 10
135.956941
 20
174.680878
 30
0.0
 10
135.020574
 20
172.368300
 30
0.0
 10
134.058532
 20
170.056736
 30
0.0
 10
132.879625
 20
167.857877
 30
0.0
  0
SPLINE
  5
13d
100
AcDbEntity
  8
0
 62
7
100
AcDbSpline
 70
8
 71
3
 72
8
 73
4
 74
0
 40
0
 40
0
 40
0
 40
0
 40
1
 40
1
 40
1
 40
1
 10
132.879625
 20
167.857877
 30
0.0
 10
131.892712
 20
166.017117
 30
0.0
 10
130.776806
 20
164.235503
 30
0.0
 10
129.508012
 20
162.576420
 30
0.0
  0
SPLINE
  5
13e
100
AcDbEntity
  8
0
 62
7
100
AcDbSpline
 70
8
 71
3
 72
8
 73
4
 74
0
 40
0
 40
0
 40
0
 40
0
 40
1
 40
1
 40
1
 40
1
 10
129.508012
 20
162.576420
 30
0.0
 10
127.554676
 20
160.022227
 30
0.0
 10
125.170904
 20
157.709317
 30
0.0
 10
122.440528
 20
156.010944
 30
0.0
  0
SPLINE
  5
13f
100
AcDbEntity
  8
0
 62
7
100
AcDbSpline
 70
8
 71
3
 72
8
 73
4
 74
0
 40
0
 40
0
 40
0
 40
0
 40
1
 40
1
 40
1
 40
1
 10
122.440528
 20
156.010944
 30
0.0
 10
122.063756
 20
155.776581
 30
0.0
 10
121.680002
 20
155.553074
 30
0.0
 10
121.290112
 20
155.341252
 30
0.0
  0
SPLINE
  5
140
100
AcDbEntity
  8
0
 62
7
100
AcDbSpline
 70
8
 71
3
 72
8
 73
4
 74
0
 40
0
 40
0
 40
0
 40
0
 40
1
 40
1
 40
1
 40
1
 10
121.295617
 20
155.344261
 30
0.0
 10
119.865038
 20
154.557333
 30
0.0
 10
118.385755
 20
153.851986
 30
0.0
 10
116.869865
 20
153.245445
 30
0.0
  0
SPLINE
  5
141
100
AcDbEntity
  8
0
 62
7
100
AcDbSpline
 70
8
 71
3
 72
8
 73
4
 74
0
 40
0
 40
0
 40
0
 40
0
 40
1
 40
1
 40
1
 40
1
 10
116.869865
 20
153.245445
 30
0.0
 10
115.353429
 20
152.638686
 30
0.0
 10
113.794195
 20
152.128630
 30
0.0
 10
112.210704
 20
151.728268
 30
0.0
  0
SPLINE
  5
142
100
AcDbEntity
  8
0
 62
7
100
AcDbSpline
 70
8
 71
3
 72
8
 73
4
 74
0
 40
0
 40
0
 40
0
 40
0
 40
1
 40
1
 40
1
 40
1
 10
112.210704
 20
151.728268
 30
0.0
 10
109.350535
 20
151.005117
 30
0.0
 10
106.377569
 20
150.639635
 30
0.0
 10
103.427398
 20
150.639635
 30
0.0
  0
SPLINE
  5
143
100
AcDbEntity
  8
0
 62
7
100
AcDbSpline
 70
8
 71
3
 72
8
 73
4
 74
0
 40
0
 40
0
 40
0
 40
0
 40
1
 40
1
 40
1
 40
1
 10
103.427398
 20
150.639635
 30
0.0
 10
100.471411
 20
150.639635
 30
0.0
 10
97.496557
 20
150.926804
 30
0.0
 10
94.605625
 20
151.543543
 30
0.0
  0
SPLINE
  5
144
100
AcDbEntity
  8
0
 62
7
100
AcDbSpline
 70
8
 71
3
 72
8
 73
4
 74
0
 40
0
 40
0
 40
0
 40
0
 40
1
 40
1
 40
1
 40
1
 10
94.605625
 20
151.543543
 30
0.0
 10
90.435882
 20
152.433099
 30
0.0
 10
86.362513
 20
154.053073
 30
0.0
 10
82.719401
 20
156.267977
 30
0.0
  0
SPLINE
  5
145
100
AcDbEntity
  8
0
 62
7
100
AcDbSpline
 70
8
 71
3
 72
8
 73
4
 74
0
 40
0
 40
0
 40
0
 40
0
 40
1
 40
1
 40
1
 40
1
 10
82.719401
 20
156.267977
 30
0.0
 10
79.605930
 20
158.160876
 30
0.0
 10
76.742722
 20
160.507285
 30
0.0
 10
74.200075
 20
163.117211
 30
0.0
  0
SPLINE
  5
146
100
AcDbEntity
  8
0
 62
7
100
AcDbSpline
 70
8
 71
3
 72
8
 73
4
 74
0
 40
0
 40
0
 40
0
 40
0
 40
1
 40
1
 40
1
 40
1
 10
74.192859
 20
163.124682
 30
0.0
 10
72.104705
 20
165.305539
 30
0.0
 10
70.211789
 20
167.697737
 30
0.0
 10
68.606525
 20
170.255012
 30
0.0
  0
SPLINE
  5
147
100
AcDbEntity
  8
0
 62
7
100
AcDbSpline
 70
8
 71
3
 72
8
 73
4
 74
0
 40
0
 40
0
 40
0
 40
0
 40
1
 40
1
 40
1
 40
1
 10
68.606525
 20
170.255012
 30
0.0
 10
66.159646
 20
174.153028
 30
0.0
 10
64.357630
 20
178.527268
 30
0.0
 10
63.326480
 20
183.012630
 30
0.0
  0
SPLINE
  5
148
100
AcDbEntity
  8
0
 62
7
100
AcDbSpline
 70
8
 71
3
 72
8
 73
4
 74
0
 40
0
 40
0
 40
0
 40
0
 40
1
 40
1
 40
1
 40
1
 10
63.326480
 20
183.012630
 30
0.0
 10
62.525626
 20
186.496233
 30
0.0
 10
62.160486
 20
190.097996
 30
0.0
 10
62.160486
 20
193.672469
 30
0.0
  0
SPLINE
  5
149
100
AcDbEntity
  8
0
 62
7
100
AcDbSpline
 70
8
 71
3
 72
8
 73
4
 74
0
 40
0
 40
0
 40
0
 40
0
 40
1
 40
1
 40
1
 40
1
 10
62.160486
 20
193.672469
 30
0.0
 10
62.160486
 20
196.610787
 30
0.0
 10
62.437766
 20
199.566319
 30
0.0
 10
63.029063
 20
202.444527
 30
0.0
  0
SPLINE
  5
14a
100
AcDbEntity
  8
0
 62
7
100
AcDbSpline
 70
8
 71
3
 72
8
 73
4
 74
0
 40
0
 40
0
 40
0
 40
0
 40
1
 40
1
 40
1
 40
1
 10
63.029063
 20
202.444527
 30
0.0
 10
63.923253
 20
206.797108
 30
0.0
 10
65.581831
 20
211.053634
 30
0.0
 10
67.859304
 20
214.869083
 30
0.0
  0
SPLINE
  5
14b
100
AcDbEntity
  8
0
 62
7
100
AcDbSpline
 70
8
 71
3
 72
8
 73
4
 74
0
 40
0
 40
0
 40
0
 40
0
 40
1
 40
1
 40
1
 40
1
 10
67.859304
 20
214.869083
 30
0.0
 10
69.631996
 20
217.838873
 30
0.0
 10
71.793850
 20
220.596981
 30
0.0
 10
74.196396
 20
223.084923
 30
0.0
  0
SPLINE
  5
14c
100
AcDbEntity
  8
0
 62
7
100
AcDbSpline
 70
8
 71
3
 72
8
 73
4
 74
0
 40
0
 40
0
 40
0
 40
0
 40
1
 40
1
 40
1
 40
1
 10
74.200075
 20
223.088716
 30
0.0
 10
76.227653
 20
225.169945
 30
0.0
 10
78.445442
 20
227.088313
 30
0.0
 10
80.832200
 20
228.745412
 30
0.0
  0
SPLINE
  5
14d
100
AcDbEntity
  8
0
 62
7
100
AcDbSpline
 70
8
 71
3
 72
8
 73
4
 74
0
 40
0
 40
0
 40
0
 40
0
 40
1
 40
1
 40
1
 40
1
 10
80.832200
 20
228.745412
 30
0.0
 10
84.371359
 20
231.202608
 30
0.0
 10
88.374831
 20
233.110130
 30
0.0
 10
92.533640
 20
234.236080
 30
0.0
  0
SPLINE
  5
14e
100
AcDbEntity
  8
0
 62
7
100
AcDbSpline
 70
8
 71
3
 72
8
 73
4
 74
0
 40
0
 40
0
 40
0
 40
0
 40
1
 40
1
 40
1
 40
1
 10
92.533640
 20
234.236080
 30
0.0
 10
95.866432
 20
235.138395
 30
0.0
 10
99.353427
 20
235.566295
 30
0.0
 10
102.806205
 20
235.566295
 30
0.0
  0
SPLINE
  5
14f
100
AcDbEntity
  8
0
 62
7
100
AcDbSpline
 70
8
 71
3
 72
8
 73
4
 74
0
 40
0
 40
0
 40
0
 40
0
 40
1
 40
1
 40
1
 40
1
 10
102.806205
 20
235.566295
 30
0.0
 10
104.609073
 20
235.566295
 30
0.0
 10
106.416909
 20
235.436086
 30
0.0
 10
108.200500
 20
235.173151
 30
0.0
  0
SPLINE
  5
150
100
AcDbEntity
  8
0
 62
7
100
AcDbSpline
 70
8
 71
3
 72
8
 73
4
 74
0
 40
0
 40
0
 40
0
 40
0
 40
1
 40
1
 40
1
 40
1
 10
108.200500
 20
235.173151
 30
0.0
 10
109.984230
 20
234.910196
 30
0.0
 10
111.752941
 20
234.513111
 30
0.0
 10
113.478946
 20
233.991823
 30
0.0
  0
SPLINE
  5
151
100
AcDbEntity
  8
0
 62
7
100
AcDbSpline
 70
8
 71
3
 72
8
 73
4
 74
0
 40
0
 40
0
 40
0
 40
0
 40
1
 40
1
 40
1
 40
1
 10
113.478946
 20
233.991823
 30
0.0
 10
116.539994
 20
233.067324
 30
0.0
 10
119.497498
 20
231.737879
 30
0.0
 10
122.255970
 20
230.120615
 30
0.0
  0
SPLINE
  5
152
100
AcDbEntity
  8
0
 62
7
100
AcDbSpline
 70
8
 71
3
 72
8
 73
4
 74
0
 40
0
 40
0
 40
0
 40
0
 40
1
 40
1
 40
1
 40
1
 10
122.247047
 20
230.125795
 30
0.0
 10
124.068405
 20
229.078890
 30
0.0
 10
125.804297
 20
227.869164
 30
0.0
 10
127.423312
 20
226.530453
 30
0.0
  0
SPLINE
  5
153
100
AcDbEntity
  8
0
 62
7
100
AcDbSpline
 70
8
 71
3
 72
8
 73
4
 74
0
 40
0
 40
0
 40
0
 40
0
 40
1
 40
1
 40
1
 40
1
 10
127.423312
 20
226.530453
 30
0.0
 10
129.041437
 20
225.192477
 30
0.0
 10
130.553551
 20
223.717819
 30
0.0
 10
131.947006
 20
222.147216
 30
0.0
  0
SPLINE
  5
154
100
AcDbEntity
  8
0
 62
7
100
AcDbSpline
 70
8
 71
3
 72
8
 73
4
 74
0
 40
0
 40
0
 40
0
 40
0
 40
1
 40
1
 40
1
 40
1
 10
131.947006
 20
222.147216
 30
0.0
 10
133.844339
 20
220.008677
 30
0.0
 10
135.536325
 20
217.677049
 30
0.0
 10
137.032453
 20
215.240900
 30
0.0
  0
SPLINE
  5
155
100
AcDbEntity
  8
0
 62
7
100
AcDbSpline
 70
8
 71
3
 72
8
 73
4
 74
0
 40
0
 40
0
 40
0
 40
0
 40
1
 40
1
 40
1
 40
1
 10
106.977947
 20
176.780878
 30
0.0
 10
106.977947
 20
177.388229
 30
0.0
 10
106.653929
 20
177.949445
 30
0.0
 10
106.127947
 20
178.253121
 30
0.0
  0
SPLINE
  5
156
100
AcDbEntity
  8
0
 62
7
100
AcDbSpline
 70
8
 71
3
 72
8
 73
4
 74
0
 40
0
 40
0
 40
0
 40
0
 40
1
 40
1
 40
1
 40
1
 10
106.127947
 20
178.253121
 30
0.0
 10
105.601965
 20
178.556797
 30
0.0
 10
104.953929
 20
178.556797
 30
0.0
 10
104.427947
 20
178.253121
 30
0.0
  0
SPLINE
  5
157
100
AcDbEntity
  8
0
 62
7
100
AcDbSpline
 70
8
 71
3
 72
8
 73
4
 74
0
 40
0
 40
0
 40
0
 40
0
 40
1
 40
1
 40
1
 40
1
 10
104.427947
 20
178.253121
 30
0.0
 10
103.901965
 20
177.949445
 30
0.0
 10
103.577947
 20
177.388229
 30
0.0
 10
103.577947
 20
176.780878
 30
0.0
  0
SPLINE
  5
158
100
AcDbEntity
  8
0
 62
7
100
AcDbSpline
 70
8
 71
3
 72
8
 73
4
 74
0
 40
0
 40
0
 40
0
 40
0
 40
1
 40
1
 40
1
 40
1
 10
103.577947
 20
176.780878
 30
0.0
 10
103.577947
 20
176.173526
 30
0.0
 10
103.901965
 20
175.612311
 30
0.0
 10
104.427947
 20
175.308635
 30
0.0
  0
SPLINE
  5
159
100
AcDbEntity
  8
0
 62
7
100
AcDbSpline
 70
8
 71
3
 72
8
 73
4
 74
0
 40
0
 40
0
 40
0
 40
0
 40
1
 40
1
 40
1
 40
1
 10
104.427947
 20
175.308635
 30
0.0
 10
104.953929
 20
175.004959
 30
0.0
 10
105.601965
 20
175.004959
 30
0.0
 10
106.127947
 20
175.308635
 30
0.0
  0
SPLINE
  5
15a
100
AcDbEntity
  8
0
 62
7
100
AcDbSpline
 70
8
 71
3
 72
8
 73
4
 74
0
 40
0
 40
0
 40
0
 40
0
 40
1
 40
1
 40
1
 40
1
 10
106.127947
 20
175.308635
 30
0.0
 10
106.653929
 20
175.612311
 30
0.0
 10
106.977947
 20
176.173526
 30
0.0
 10
106.977947
 20
176.780878
 30
0.0
  0
LINE
  5
15b
100
AcDbEntity
  8
0
 62
7
100
AcDbLine
 10
106.977947
 20
176.780878
 30
0.0
 11
106.977947
 21
176.780878
 31
0.0
  0
SPLINE
  5
15c
100
AcDbEntity
  8
0
 62
7
100
AcDbSpline
 70
8
 71
3
 72
8
 73
4
 74
0
 40
0
 40
0
 40
0
 40
0
 40
1
 40
1
 40
1
 40
1
 10
106.977947
 20
196.688815
 30
0.0
 10
106.977947
 20
197.296166
 30
0.0
 10
106.653929
 20
197.857382
 30
0.0
 10
106.127947
 20
198.161058
 30
0.0
  0
SPLINE
  5
15d
100
AcDbEntity
  8
0
 62
7
100
AcDbSpline
 70
8
 71
3
 72
8
 73
4
 74
0
 40
0
 40
0
 40
0
 40
0
 40
1
 40
1
 40
1
 40
1
 10
106.127947
 20
198.161058
 30
0.0
 10
105.601965
 20
198.464734
 30
0.0
 10
104.953929
 20
198.464734
 30
0.0
 10
104.427947
 20
198.161058
 30
0.0
  0
SPLINE
  5
15e
100
AcDbEntity
  8
0
 62
7
100
AcDbSpline
 70
8
 71
3
 72
8
 73
4
 74
0
 40
0
 40
0
 40
0
 40
0
 40
1
 40
1
 40
1
 40
1
 10
104.427947
 20
198.161058
 30
0.0
 10
103.901965
 20
197.857382
 30
0.0
 10
103.577947
 20
197.296166
 30
0.0
 10
103.577947
 20
196.688815
 30
0.0
  0
SPLINE
  5
15f
100
AcDbEntity
  8
0
 62
7
100
AcDbSpline
 70
8
 71
3
 72
8
 73
4
 74
0
 40
0
 40
0
 40
0
 40
0
 40
1
 40
1
 40
1
 40
1
 10
103.577947
 20
196.688815
 30
0.0
 10
103.577947
 20
196.081463
 30
0.0
 10
103.901965
 20
195.520247
 30
0.0
 10
104.427947
 20
195.216572
 30
0.0
  0
SPLINE
  5
160
100
AcDbEntity
  8
0
 62
7
100
AcDbSpline
 70
8
 71
3
 72
8
 73
4
 74
0
 40
0
 40
0
 40
0
 40
0
 40
1
 40
1
 40
1
 40
1
 10
104.427947
 20
195.216572
 30
0.0
 10
104.953929
 20
194.912896
 30
0.0
 10
105.601965
 20
194.912896
 30
0.0
 10
106.127947
 20
195.216572
 30
0.0
  0
SPLINE
  5
161
100
AcDbEntity
  8
0
 62
7
100
AcDbSpline
 70
8
 71
3
 72
8
 73
4
 74
0
 40
0
 40
0
 40
0
 40
0
 40
1
 40
1
 40
1
 40
1
 10
106.127947
 20
195.216572
 30
0.0
 10
106.653929
 20
195.520247
 30
0.0
 10
106.977947
 20
196.081463
 30
0.0
 10
106.977947
 20
196.688815
 30
0.0
  0
LINE
  5
162
100
AcDbEntity
  8
0
 62
7
100
AcDbLine
 10
106.977947
 20
196.688815
 30
0.0
 11
106.977947
 21
196.688815
 31
0.0
  0
SPLINE
  5
163
100
AcDbEntity
  8
0
 62
7
100
AcDbSpline
 70
8
 71
3
 72
8
 73
4
 74
0
 40
0
 40
0
 40
0
 40
0
 40
1
 40
1
 40
1
 40
1
 10
163.118384
 20
196.688815
 30
0.0
 10
163.118384
 20
197.296166
 30
0.0
 10
162.794366
 20
197.857382
 30
0.0
 10
162.268384
 20
198.161058
 30
0.0
  0
SPLINE
  5
164
100
AcDbEntity
  8
0
 62
7
100
AcDbSpline
 70
8
 71
3
 72
8
 73
4
 74
0
 40
0
 40
0
 40
0
 40
0
 40
1
 40
1
 40
1
 40
1
 10
162.268384
 20
198.161058
 30
0.0
 10
161.742402
 20
198.464734
 30
0.0
 10
161.094366
 20
198.464734
 30
0.0
 10
160.568384
 20
198.161058
 30
0.0
  0
SPLINE
  5
165
100
AcDbEntity
  8
0
 62
7
100
AcDbSpline
 70
8
 71
3
 72
8
 73
4
 74
0
 40
0
 40
0
 40
0
 40
0
 40
1
 40
1
 40
1
 40
1
 10
160.568384
 20
198.161058
 30
0.0
 10
160.042402
 20
197.857382
 30
0.0
 10
159.718384
 20
197.296166
 30
0.0
 10
159.718384
 20
196.688815
 30
0.0
  0
SPLINE
  5
166
100
AcDbEntity
  8
0
 62
7
100
AcDbSpline
 70
8
 71
3
 72
8
 73
4
 74
0
 40
0
 40
0
 40
0
 40
0
 40
1
 40
1
 40
1
 40
1
 10
159.718384
 20
196.688815
 30
0.0
 10
159.718384
 20
196.081463
 30
0.0
 10
160.042402
 20
195.520247
 30
0.0
 10
160.568384
 20
195.216572
 30
0.0
  0
SPLINE
  5
167
100
AcDbEntity
  8
0
 62
7
100
AcDbSpline
 70
8
 71
3
 72
8
 73
4
 74
0
 40
0
 40
0
 40
0
 40
0
 40
1
 40
1
 40
1
 40
1
 10
160.568384
 20
195.216572
 30
0.0
 10
161.094366
 20
194.912896
 30
0.0
 10
161.742402
 20
194.912896
 30
0.0
 10
162.268384
 20
195.216572
 30
0.0
  0
SPLINE
  5
168
100
AcDbEntity
  8
0
 62
7
100
AcDbSpline
 70
8
 71
3
 72
8
 73
4
 74
0
 40
0
 40
0
 40
0
 40
0
 40
1
 40
1
 40
1
 40
1
 10
162.268384
 20
195.216572
 30
0.0
 10
162.794366
 20
195.520247
 30
0.0
 10
163.118384
 20
196.081463
 30
0.0
 10
163.118384
 20
196.688815
 30
0.0
  0
LINE
  5
169
100
AcDbEntity
  8
0
 62
7
100
AcDbLine
 10
163.118384
 20
196.688815
 30
0.0
 11
163.118384
 21
196.688815
 31
0.0
  0
SPLINE
  5
16a
100
AcDbEntity
  8
0
 62
7
100
AcDbSpline
 70
8
 71
3
 72
8
 73
4
 74
0
 40
0
 40
0
 40
0
 40
0
 40
1
 40
1
 40
1
 40
1
 10
151.962398
 20
230.504938
 30
0.0
 10
151.962398
 20
231.112290
 30
0.0
 10
151.638380
 20
231.673506
 30
0.0
 10
151.112398
 20
231.977182
 30
0.0
  0
SPLINE
  5
16b
100
AcDbEntity
  8
0
 62
7
100
AcDbSpline
 70
8
 71
3
 72
8
 73
4
 74
0
 40
0
 40
0
 40
0
 40
0
 40
1
 40
1
 40
1
 40
1
 10
151.112398
 20
231.977182
 30
0.0
 10
150.586416
 20
232.280857
 30
0.0
 10
149.938380
 20
232.280857
 30
0.0
 10
149.412398
 20
231.977182
 30
0.0
  0
SPLINE
  5
16c
100
AcDbEntity
  8
0
 62
7
100
AcDbSpline
 70
8
 71
3
 72
8
 73
4
 74
0
 40
0
 40
0
 40
0
 40
0
 40
1
 40
1
 40
1
 40
1
 10
149.412398
 20
231.977182
 30
0.0
 10
148.886416
 20
231.673506
 30
0.0
 10
148.562398
 20
231.112290
 30
0.0
 10
148.562398
 20
230.504938
 30
0.0
  0
SPLINE
  5
16d
100
AcDbEntity
  8
0
 62
7
100
AcDbSpline
 70
8
 71
3
 72
8
 73
4
 74
0
 40
0
 40
0
 40
0
 40
0
 40
1
 40
1
 40
1
 40
1
 10
148.562398
 20
230.504938
 30
0.0
 10
148.562398
 20
229.897587
 30
0.0
 10
148.886416
 20
229.336371
 30
0.0
 10
149.412398
 20
229.032695
 30
0.0
  0
SPLINE
  5
16e
100
AcDbEntity
  8
0
 62
7
100
AcDbSpline
 70
8
 71
3
 72
8
 73
4
 74
0
 40
0
 40
0
 40
0
 40
0
 40
1
 40
1
 40
1
 40
1
 10
149.412398
 20
229.032695
 30
0.0
 10
149.938380
 20
228.729019
 30
0.0
 10
150.586416
 20
228.729019
 30
0.0
 10
151.112398
 20
229.032695
 30
0.0
  0
SPLINE
  5
16f
100
AcDbEntity
  8
0
 62
7
100
AcDbSpline
 70
8
 71
3
 72
8
 73
4
 74
0
 40
0
 40
0
 40
0
 40
0
 40
1
 40
1
 40
1
 40
1
 10
151.112398
 20
229.032695
 30
0.0
 10
151.638380
 20
229.336371
 30
0.0
 10
151.962398
 20
229.897587
 30
0.0
 10
151.962398
 20
230.504938
 30
0.0
  0
LINE
  5
170
100
AcDbEntity
  8
0
 62
7
100
AcDbLine
 10
151.962398
 20
230.504938
 30
0.0
 11
151.962398
 21
230.504938
 31
0.0
  0
ENDSEC
  0
SECTION
  2
OBJECTS
  0
DICTIONARY
  5
C
330
0
100
AcDbDictionary
  3
ACAD_GROUP
350
D
  3
ACAD_MLINESTYLE
350
17
  0
DICTIONARY
  5
D
330
C
100
AcDbDictionary
  0
DICTIONARY
  5
1A
330
C
100
AcDbDictionary
  0
DICTIONARY
  5
17
330
C
100
AcDbDictionary
  3
STANDARD
350
18
  0
DICTIONARY
  5
19
330
C
100
AcDbDictionary
  0
ENDSEC
  0
EOF
