  0
SECTION
  2
HEADER
  9
$ACADVER
  1
AC1014
  9
$HANDSEED
  5
FFFF
  9
$MEASUREMENT
 70
     1
  0
ENDSEC
  0
SECTION
  2
TABLES
  0
TABLE
  2
VPORT
  5
8
330
0
100
AcDbSymbolTable
 70
     4
  0
VPORT
  5
2E
330
8
100
AcDbSymbolTableRecord
100
AcDbViewportTableRecord
  2
*ACTIVE
 70
     0
 10
0.0
 20
0.0
 11
1.0
 21
1.0
 12
210.0
 22
148.5
 13
0.0
 23
0.0
 14
10.0
 24
10.0
 15
10.0
 25
10.0
 16
0.0
 26
0.0
 36
1.0
 17
0.0
 27
0.0
 37
0.0
 40
341.0
 41
1.24
 42
50.0
 43
0.0
 44
0.0
 50
0.0
 51
0.0
 71
     0
 72
   100
 73
     1
 74
     3
 75
     0
 76
     0
 77
     0
 78
     0
  0
ENDTAB
  0
TABLE
  2
LTYPE
  5
5
330
0
100
AcDbSymbolTable
 70
     1
  0
LTYPE
  5
14
330
5
100
AcDbSymbolTableRecord
100
AcDbLinetypeTableRecord
  2
BYBLOCK
 70
     0
  3

 72
    65
 73
     0
 40
0.0
  0
LTYPE
  5
15
330
5
100
AcDbSymbolTableRecord
100
AcDbLinetypeTableRecord
  2
BYLAYER
 70
     0
  3

 72
    65
 73
     0
 40
0.0
  0
LTYPE
  5
16
330
5
100
AcDbSymbolTableRecord
100
AcDbLinetypeTableRecord
  2
CONTINUOUS
 70
     0
  3
Solid line
 72
    65
 73
     0
 40
0.0
  0
ENDTAB
  0
TABLE
  2
LAYER
  5
2
100
AcDbSymbolTable
 70
1
  0
LAYER
  5
50
100
AcDbSymbolTableRecord
100
AcDbLayerTableRecord
  2
0
 70
0
  6
CONTINUOUS
  0
ENDTAB
  0
TABLE
  2
STYLE
  5
3
330
0
100
AcDbSymbolTable
 70
     1
  0
STYLE
  5
11
330
3
100
AcDbSymbolTableRecord
100
AcDbTextStyleTableRecord
  2
STANDARD
 70
     0
 40
0.0
 41
1.0
 50
0.0
 71
     0
 42
2.5
  3
txt
  4

  0
ENDTAB
  0
TABLE
  2
VIEW
  5
6
330
0
100
AcDbSymbolTable
 70
     0
  0
ENDTAB
  0
TABLE
  2
UCS
  5
7
330
0
100
AcDbSymbolTable
 70
     0
  0
ENDTAB
  0
TABLE
  2
APPID
  5
9
330
0
100
AcDbSymbolTable
 70
     2
  0
APPID
  5
12
330
9
100
AcDbSymbolTableRecord
100
AcDbRegAppTableRecord
  2
ACAD
 70
     0
  0
ENDTAB
  0
TABLE
  2
DIMSTYLE
  5
A
330
0
100
AcDbSymbolTable
 70
     1
  0
DIMSTYLE
105
27
330
A
100
AcDbSymbolTableRecord
100
AcDbDimStyleTableRecord
  2
ISO-25
 70
     0
  3

  4

  5

  6

  7

 40
1.0
 41
2.5
 42
0.625
 43
3.75
 44
1.25
 45
0.0
 46
0.0
 47
0.0
 48
0.0
140
2.5
141
2.5
142
0.0
143
0.03937007874016
144
1.0
145
0.0
146
1.0
147
0.625
 71
     0
 72
     0
 73
     0
 74
     0
 75
     0
 76
     0
 77
     1
 78
     8
170
     0
171
     3
172
     1
173
     0
174
     0
175
     0
176
     0
177
     0
178
     0
270
     2
271
     2
272
     2
273
     2
274
     3
340
11
275
     0
280
     0
281
     0
282
     0
283
     0
284
     8
285
     0
286
     0
287
     3
288
     0
  0
ENDTAB
  0
TABLE
  2
BLOCK_RECORD
  5
1
330
0
100
AcDbSymbolTable
 70
     1
  0
BLOCK_RECORD
  5
1F
330
1
100
AcDbSymbolTableRecord
100
AcDbBlockTableRecord
  2
*MODEL_SPACE
  0
BLOCK_RECORD
  5
1B
330
1
100
AcDbSymbolTableRecord
100
AcDbBlockTableRecord
  2
*PAPER_SPACE
  0
ENDTAB
  0
ENDSEC
  0
SECTION
  2
BLOCKS
  0
BLOCK
  5
20
330
1F
100
AcDbEntity
  8
0
100
AcDbBlockBegin
  2
*MODEL_SPACE
 70
     0
 10
0.0
 20
0.0
 30
0.0
  3
*MODEL_SPACE
  1

  0
ENDBLK
  5
21
330
1F
100
AcDbEntity
  8
0
100
AcDbBlockEnd
  0
BLOCK
  5
1C
330
1B
100
AcDbEntity
 67
     1
  8
0
100
AcDbBlockBegin
  2
*PAPER_SPACE
  1

  0
ENDBLK
  5
1D
330
1B
100
AcDbEntity
 67
     1
  8
0
100
AcDbBlockEnd
  0
ENDSEC
  0
SECTION
  2
ENTITIES
  0
SPLINE
  5
100
100
AcDbEntity
  8
0
 62
7
100
AcDbSpline
 70
8
 71
3
 72
8
 73
4
 74
0
 40
0
 40
0
 40
0
 40
0
 40
1
 40
1
 40
1
 40
1
 10
121.703352
 20
118.847539
 30
0.0
 10
122.655172
 20
120.001319
 30
0.0
 10
122.711965
 20
121.650995
 30
0.0
 10
121.841746
 20
122.867502
 30
0.0
  0
SPLINE
  5
101
100
AcDbEntity
  8
0
 62
7
100
AcDbSpline
 70
8
 71
3
 72
8
 73
4
 74
0
 40
0
 40
0
 40
0
 40
0
 40
1
 40
1
 40
1
 40
1
 10
121.841746
 20
122.867502
 30
0.0
 10
120.971527
 20
124.084008
 30
0.0
 10
119.391932
 20
124.563107
 30
0.0
 10
117.992558
 20
124.034978
 30
0.0
  0
SPLINE
  5
102
100
AcDbEntity
  8
0
 62
7
100
AcDbSpline
 70
8
 71
3
 72
8
 73
4
 74
0
 40
0
 40
0
 40
0
 40
0
 40
1
 40
1
 40
1
 40
1
 10
117.992558
 20
124.034978
 30
0.0
 10
116.593183
 20
123.506850
 30
0.0
 10
115.724002
 20
122.103575
 30
0.0
 10
115.874519
 20
120.615451
 30
0.0
  0
LINE
  5
103
100
AcDbEntity
  8
0
 62
7
100
AcDbLine
 10
121.703352
 20
118.847539
 30
0.0
 11
148.537104
 21
118.847539
 31
0.0
  0
LINE
  5
104
100
AcDbEntity
  8
0
 62
7
100
AcDbLine
 10
148.537104
 20
118.847539
 30
0.0
 11
112.067655
 21
173.203910
 31
0.0
  0
SPLINE
  5
105
100
AcDbEntity
  8
0
 62
7
100
AcDbSpline
 70
8
 71
3
 72
8
 73
4
 74
0
 40
0
 40
0
 40
0
 40
0
 40
1
 40
1
 40
1
 40
1
 10
112.067655
 20
173.203910
 30
0.0
 10
114.783549
 20
174.398132
 30
0.0
 10
117.479948
 20
175.673555
 30
0.0
 10
120.004805
 20
177.231550
 30
0.0
  0
SPLINE
  5
106
100
AcDbEntity
  8
0
 62
7
100
AcDbSpline
 70
8
 71
3
 72
8
 73
4
 74
0
 40
0
 40
0
 40
0
 40
0
 40
1
 40
1
 40
1
 40
1
 10
120.004805
 20
177.231550
 30
0.0
 10
123.772116
 20
179.556217
 30
0.0
 10
127.278407
 20
182.493412
 30
0.0
 10
129.976163
 20
186.003230
 30
0.0
  0
SPLINE
  5
107
100
AcDbEntity
  8
0
 62
7
100
AcDbSpline
 70
8
 71
3
 72
8
 73
4
 74
0
 40
0
 40
0
 40
0
 40
0
 40
1
 40
1
 40
1
 40
1
 10
129.976163
 20
186.003230
 30
0.0
 10
131.248913
 20
187.659096
 30
0.0
 10
132.356973
 20
189.456537
 30
0.0
 10
133.256227
 20
191.341512
 30
0.0
  0
SPLINE
  5
108
100
AcDbEntity
  8
0
 62
7
100
AcDbSpline
 70
8
 71
3
 72
8
 73
4
 74
0
 40
0
 40
0
 40
0
 40
0
 40
1
 40
1
 40
1
 40
1
 10
133.260105
 20
191.349562
 30
0.0
 10
134.220871
 20
193.325479
 30
0.0
 10
135.089349
 20
195.350290
 30
0.0
 10
135.837460
 20
197.416119
 30
0.0
  0
SPLINE
  5
109
100
AcDbEntity
  8
0
 62
7
100
AcDbSpline
 70
8
 71
3
 72
8
 73
4
 74
0
 40
0
 40
0
 40
0
 40
0
 40
1
 40
1
 40
1
 40
1
 10
135.837460
 20
197.416119
 30
0.0
 10
136.586029
 20
199.483217
 30
0.0
 10
137.216259
 20
201.598733
 30
0.0
 10
137.696298
 20
203.744149
 30
0.0
  0
SPLINE
  5
10a
100
AcDbEntity
  8
0
 62
7
100
AcDbSpline
 70
8
 71
3
 72
8
 73
4
 74
0
 40
0
 40
0
 40
0
 40
0
 40
1
 40
1
 40
1
 40
1
 10
137.696298
 20
203.744149
 30
0.0
 10
138.382028
 20
206.808853
 30
0.0
 10
138.762407
 20
209.964602
 30
0.0
 10
138.762407
 20
213.105085
 30
0.0
  0
SPLINE
  5
10b
100
AcDbEntity
  8
0
 62
7
100
AcDbSpline
 70
8
 71
3
 72
8
 73
4
 74
0
 40
0
 40
0
 40
0
 40
0
 40
1
 40
1
 40
1
 40
1
 10
138.762407
 20
213.105085
 30
0.0
 10
138.762407
 20
216.055555
 30
0.0
 10
138.530503
 20
219.021607
 30
0.0
 10
137.995933
 20
221.923246
 30
0.0
  0
SPLINE
  5
10c
100
AcDbEntity
  8
0
 62
7
100
AcDbSpline
 70
8
 71
3
 72
8
 73
4
 74
0
 40
0
 40
0
 40
0
 40
0
 40
1
 40
1
 40
1
 40
1
 10
137.995933
 20
221.923246
 30
0.0
 10
137.227542
 20
226.094061
 30
0.0
 10
135.782884
 20
230.218792
 30
0.0
 10
133.634445
 20
233.875339
 30
0.0
  0
SPLINE
  5
10d
100
AcDbEntity
  8
0
 62
7
100
AcDbSpline
 70
8
 71
3
 72
8
 73
4
 74
0
 40
0
 40
0
 40
0
 40
0
 40
1
 40
1
 40
1
 40
1
 10
133.634445
 20
233.875339
 30
0.0
 10
131.854852
 20
236.904129
 30
0.0
 10
129.561899
 20
239.671903
 30
0.0
 10
126.956416
 20
242.028166
 30
0.0
  0
SPLINE
  5
10e
100
AcDbEntity
  8
0
 62
7
100
AcDbSpline
 70
8
 71
3
 72
8
 73
4
 74
0
 40
0
 40
0
 40
0
 40
0
 40
1
 40
1
 40
1
 40
1
 10
126.952554
 20
242.031673
 30
0.0
 10
124.282512
 20
244.467501
 30
0.0
 10
121.213469
 20
246.517298
 30
0.0
 10
117.956765
 20
248.084547
 30
0.0
  0
SPLINE
  5
10f
100
AcDbEntity
  8
0
 62
7
100
AcDbSpline
 70
8
 71
3
 72
8
 73
4
 74
0
 40
0
 40
0
 40
0
 40
0
 40
1
 40
1
 40
1
 40
1
 10
117.956765
 20
248.084547
 30
0.0
 10
113.447043
 20
250.254796
 30
0.0
 10
108.483191
 20
251.563108
 30
0.0
 10
103.520440
 20
252.210158
 30
0.0
  0
SPLINE
  5
110
100
AcDbEntity
  8
0
 62
7
100
AcDbSpline
 70
8
 71
3
 72
8
 73
4
 74
0
 40
0
 40
0
 40
0
 40
0
 40
1
 40
1
 40
1
 40
1
 10
103.520440
 20
252.210158
 30
0.0
 10
100.621014
 20
252.588189
 30
0.0
 10
97.689272
 20
252.752227
 30
0.0
 10
94.765305
 20
252.752227
 30
0.0
  0
LINE
  5
111
100
AcDbEntity
  8
0
 62
7
100
AcDbLine
 10
94.765305
 20
252.752227
 30
0.0
 11
54.777205
 21
252.752227
 31
0.0
  0
SPLINE
  5
112
100
AcDbEntity
  8
0
 62
7
100
AcDbSpline
 70
8
 71
3
 72
8
 73
4
 74
0
 40
0
 40
0
 40
0
 40
0
 40
1
 40
1
 40
1
 40
1
 10
50.131621
 20
248.106643
 30
0.0
 10
51.443363
 20
247.024510
 30
0.0
 10
53.362644
 20
247.116344
 30
0.0
 10
54.565074
 20
248.318774
 30
0.0
  0
SPLINE
  5
113
100
AcDbEntity
  8
0
 62
7
100
AcDbSpline
 70
8
 71
3
 72
8
 73
4
 74
0
 40
0
 40
0
 40
0
 40
0
 40
1
 40
1
 40
1
 40
1
 10
54.565074
 20
248.318774
 30
0.0
 10
55.767504
 20
249.521204
 30
0.0
 10
55.859337
 20
251.440485
 30
0.0
 10
54.777205
 20
252.752227
 30
0.0
  0
LINE
  5
114
100
AcDbEntity
  8
0
 62
7
100
AcDbLine
 10
50.131621
 20
248.106643
 30
0.0
 11
50.131621
 21
123.493124
 31
0.0
  0
SPLINE
  5
115
100
AcDbEntity
  8
0
 62
7
100
AcDbSpline
 70
8
 71
3
 72
8
 73
4
 74
0
 40
0
 40
0
 40
0
 40
0
 40
1
 40
1
 40
1
 40
1
 10
54.777205
 20
118.847539
 30
0.0
 10
55.859338
 20
120.159280
 30
0.0
 10
55.767505
 20
122.078562
 30
0.0
 10
54.565075
 20
123.280993
 30
0.0
  0
SPLINE
  5
116
100
AcDbEntity
  8
0
 62
7
100
AcDbSpline
 70
8
 71
3
 72
8
 73
4
 74
0
 40
0
 40
0
 40
0
 40
0
 40
1
 40
1
 40
1
 40
1
 10
54.565075
 20
123.280993
 30
0.0
 10
53.362644
 20
124.483423
 30
0.0
 10
51.443363
 20
124.575256
 30
0.0
 10
50.131621
 20
123.493124
 30
0.0
  0
LINE
  5
117
100
AcDbEntity
  8
0
 62
7
100
AcDbLine
 10
54.777205
 20
118.847539
 30
0.0
 11
77.756925
 21
118.847539
 31
0.0
  0
LINE
  5
118
100
AcDbEntity
  8
0
 62
7
100
AcDbLine
 10
77.756925
 20
118.847539
 30
0.0
 11
77.756925
 21
169.744556
 31
0.0
  0
LINE
  5
119
100
AcDbEntity
  8
0
 62
7
100
AcDbLine
 10
77.756925
 20
169.744556
 30
0.0
 11
82.992838
 21
169.744556
 31
0.0
  0
LINE
  5
11a
100
AcDbEntity
  8
0
 62
7
100
AcDbLine
 10
82.992838
 20
169.744556
 30
0.0
 11
115.874519
 21
120.615451
 31
0.0
  0
LINE
  5
11b
100
AcDbEntity
  8
0
 62
7
100
AcDbLine
 10
150.787289
 20
117.647539
 30
0.0
 11
113.862672
 21
172.682321
 31
0.0
  0
LINE
  5
11c
100
AcDbEntity
  8
0
 62
7
100
AcDbLine
 10
116.416947
 20
117.647539
 30
0.0
 11
150.787289
 21
117.647539
 31
0.0
  0
LINE
  5
11d
100
AcDbEntity
  8
0
 62
7
100
AcDbLine
 10
82.352018
 20
168.544556
 30
0.0
 11
116.416947
 21
117.647539
 31
0.0
  0
LINE
  5
11e
100
AcDbEntity
  8
0
 62
7
100
AcDbLine
 10
78.956925
 20
168.544556
 30
0.0
 11
82.352018
 21
168.544556
 31
0.0
  0
LINE
  5
11f
100
AcDbEntity
  8
0
 62
7
100
AcDbLine
 10
78.956925
 20
117.647539
 30
0.0
 11
78.956925
 21
168.544556
 31
0.0
  0
LINE
  5
120
100
AcDbEntity
  8
0
 62
7
100
AcDbLine
 10
48.931621
 20
117.647539
 30
0.0
 11
78.956925
 21
117.647539
 31
0.0
  0
LINE
  5
121
100
AcDbEntity
  8
0
 62
7
100
AcDbLine
 10
48.931621
 20
253.952227
 30
0.0
 11
48.931621
 21
117.647539
 31
0.0
  0
LINE
  5
122
100
AcDbEntity
  8
0
 62
7
100
AcDbLine
 10
48.931621
 20
253.952227
 30
0.0
 11
94.765305
 21
253.952227
 31
0.0
  0
SPLINE
  5
123
100
AcDbEntity
  8
0
 62
7
100
AcDbSpline
 70
8
 71
3
 72
8
 73
4
 74
0
 40
0
 40
0
 40
0
 40
0
 40
1
 40
1
 40
1
 40
1
 10
127.761309
 20
242.918192
 30
0.0
 10
119.697976
 20
250.274215
 30
0.0
 10
108.699308
 20
253.952227
 30
0.0
 10
94.765305
 20
253.952227
 30
0.0
  0
SPLINE
  5
124
100
AcDbEntity
  8
0
 62
7
100
AcDbSpline
 70
8
 71
3
 72
8
 73
4
 74
0
 40
0
 40
0
 40
0
 40
0
 40
1
 40
1
 40
1
 40
1
 10
139.962407
 20
213.105085
 30
0.0
 10
139.962407
 20
225.624467
 30
0.0
 10
135.895374
 20
235.562170
 30
0.0
 10
127.761309
 20
242.918192
 30
0.0
  0
SPLINE
  5
125
100
AcDbEntity
  8
0
 62
7
100
AcDbSpline
 70
8
 71
3
 72
8
 73
4
 74
0
 40
0
 40
0
 40
0
 40
0
 40
1
 40
1
 40
1
 40
1
 10
134.339292
 20
190.824820
 30
0.0
 10
138.088035
 20
198.534498
 30
0.0
 10
139.962407
 20
205.961253
 30
0.0
 10
139.962407
 20
213.105085
 30
0.0
  0
SPLINE
  5
126
100
AcDbEntity
  8
0
 62
7
100
AcDbSpline
 70
8
 71
3
 72
8
 73
4
 74
0
 40
0
 40
0
 40
0
 40
0
 40
1
 40
1
 40
1
 40
1
 10
113.862672
 20
172.682321
 30
0.0
 10
123.835741
 20
177.067642
 30
0.0
 10
130.661281
 20
183.115142
 30
0.0
 10
134.339292
 20
190.824820
 30
0.0
  0
SPLINE
  5
127
100
AcDbEntity
  8
0
 62
7
100
AcDbSpline
 70
8
 71
3
 72
8
 73
4
 74
0
 40
0
 40
0
 40
0
 40
0
 40
1
 40
1
 40
1
 40
1
 10
120.857767
 20
120.947539
 30
0.0
 10
120.857767
 20
121.554890
 30
0.0
 10
120.533749
 20
122.116106
 30
0.0
 10
120.007767
 20
122.419782
 30
0.0
  0
SPLINE
  5
128
100
AcDbEntity
  8
0
 62
7
100
AcDbSpline
 70
8
 71
3
 72
8
 73
4
 74
0
 40
0
 40
0
 40
0
 40
0
 40
1
 40
1
 40
1
 40
1
 10
120.007767
 20
122.419782
 30
0.0
 10
119.481786
 20
122.723458
 30
0.0
 10
118.833749
 20
122.723458
 30
0.0
 10
118.307768
 20
122.419782
 30
0.0
  0
SPLINE
  5
129
100
AcDbEntity
  8
0
 62
7
100
AcDbSpline
 70
8
 71
3
 72
8
 73
4
 74
0
 40
0
 40
0
 40
0
 40
0
 40
1
 40
1
 40
1
 40
1
 10
118.307768
 20
122.419782
 30
0.0
 10
117.781786
 20
122.116106
 30
0.0
 10
117.457768
 20
121.554890
 30
0.0
 10
117.457768
 20
120.947539
 30
0.0
  0
SPLINE
  5
12a
100
AcDbEntity
  8
0
 62
7
100
AcDbSpline
 70
8
 71
3
 72
8
 73
4
 74
0
 40
0
 40
0
 40
0
 40
0
 40
1
 40
1
 40
1
 40
1
 10
117.457768
 20
120.947539
 30
0.0
 10
117.457768
 20
120.340187
 30
0.0
 10
117.781786
 20
119.778971
 30
0.0
 10
118.307768
 20
119.475296
 30
0.0
  0
SPLINE
  5
12b
100
AcDbEntity
  8
0
 62
7
100
AcDbSpline
 70
8
 71
3
 72
8
 73
4
 74
0
 40
0
 40
0
 40
0
 40
0
 40
1
 40
1
 40
1
 40
1
 10
118.307768
 20
119.475296
 30
0.0
 10
118.833749
 20
119.171620
 30
0.0
 10
119.481786
 20
119.171620
 30
0.0
 10
120.007767
 20
119.475296
 30
0.0
  0
SPLINE
  5
12c
100
AcDbEntity
  8
0
 62
7
100
AcDbSpline
 70
8
 71
3
 72
8
 73
4
 74
0
 40
0
 40
0
 40
0
 40
0
 40
1
 40
1
 40
1
 40
1
 10
120.007767
 20
119.475296
 30
0.0
 10
120.533749
 20
119.778971
 30
0.0
 10
120.857767
 20
120.340187
 30
0.0
 10
120.857767
 20
120.947539
 30
0.0
  0
LINE
  5
12d
100
AcDbEntity
  8
0
 62
7
100
AcDbLine
 10
120.857767
 20
120.947539
 30
0.0
 11
120.857767
 21
120.947539
 31
0.0
  0
SPLINE
  5
12e
100
AcDbEntity
  8
0
 62
7
100
AcDbSpline
 70
8
 71
3
 72
8
 73
4
 74
0
 40
0
 40
0
 40
0
 40
0
 40
1
 40
1
 40
1
 40
1
 10
53.931621
 20
250.652227
 30
0.0
 10
53.931621
 20
251.259578
 30
0.0
 10
53.607603
 20
251.820794
 30
0.0
 10
53.081621
 20
252.124470
 30
0.0
  0
SPLINE
  5
12f
100
AcDbEntity
  8
0
 62
7
100
AcDbSpline
 70
8
 71
3
 72
8
 73
4
 74
0
 40
0
 40
0
 40
0
 40
0
 40
1
 40
1
 40
1
 40
1
 10
53.081621
 20
252.124470
 30
0.0
 10
52.555639
 20
252.428146
 30
0.0
 10
51.907603
 20
252.428146
 30
0.0
 10
51.381621
 20
252.124470
 30
0.0
  0
SPLINE
  5
130
100
AcDbEntity
  8
0
 62
7
100
AcDbSpline
 70
8
 71
3
 72
8
 73
4
 74
0
 40
0
 40
0
 40
0
 40
0
 40
1
 40
1
 40
1
 40
1
 10
51.381621
 20
252.124470
 30
0.0
 10
50.855639
 20
251.820794
 30
0.0
 10
50.531621
 20
251.259578
 30
0.0
 10
50.531621
 20
250.652227
 30
0.0
  0
SPLINE
  5
131
100
AcDbEntity
  8
0
 62
7
100
AcDbSpline
 70
8
 71
3
 72
8
 73
4
 74
0
 40
0
 40
0
 40
0
 40
0
 40
1
 40
1
 40
1
 40
1
 10
50.531621
 20
250.652227
 30
0.0
 10
50.531621
 20
250.044875
 30
0.0
 10
50.855639
 20
249.483659
 30
0.0
 10
51.381621
 20
249.179984
 30
0.0
  0
SPLINE
  5
132
100
AcDbEntity
  8
0
 62
7
100
AcDbSpline
 70
8
 71
3
 72
8
 73
4
 74
0
 40
0
 40
0
 40
0
 40
0
 40
1
 40
1
 40
1
 40
1
 10
51.381621
 20
249.179984
 30
0.0
 10
51.907603
 20
248.876308
 30
0.0
 10
52.555639
 20
248.876308
 30
0.0
 10
53.081621
 20
249.179984
 30
0.0
  0
SPLINE
  5
133
100
AcDbEntity
  8
0
 62
7
100
AcDbSpline
 70
8
 71
3
 72
8
 73
4
 74
0
 40
0
 40
0
 40
0
 40
0
 40
1
 40
1
 40
1
 40
1
 10
53.081621
 20
249.179984
 30
0.0
 10
53.607603
 20
249.483659
 30
0.0
 10
53.931621
 20
250.044875
 30
0.0
 10
53.931621
 20
250.652227
 30
0.0
  0
LINE
  5
134
100
AcDbEntity
  8
0
 62
7
100
AcDbLine
 10
53.931621
 20
250.652227
 30
0.0
 11
53.931621
 21
250.652227
 31
0.0
  0
SPLINE
  5
135
100
AcDbEntity
  8
0
 62
7
100
AcDbSpline
 70
8
 71
3
 72
8
 73
4
 74
0
 40
0
 40
0
 40
0
 40
0
 40
1
 40
1
 40
1
 40
1
 10
53.931621
 20
120.947539
 30
0.0
 10
53.931621
 20
121.554890
 30
0.0
 10
53.607603
 20
122.116106
 30
0.0
 10
53.081621
 20
122.419782
 30
0.0
  0
SPLINE
  5
136
100
AcDbEntity
  8
0
 62
7
100
AcDbSpline
 70
8
 71
3
 72
8
 73
4
 74
0
 40
0
 40
0
 40
0
 40
0
 40
1
 40
1
 40
1
 40
1
 10
53.081621
 20
122.419782
 30
0.0
 10
52.555639
 20
122.723458
 30
0.0
 10
51.907603
 20
122.723458
 30
0.0
 10
51.381621
 20
122.419782
 30
0.0
  0
SPLINE
  5
137
100
AcDbEntity
  8
0
 62
7
100
AcDbSpline
 70
8
 71
3
 72
8
 73
4
 74
0
 40
0
 40
0
 40
0
 40
0
 40
1
 40
1
 40
1
 40
1
 10
51.381621
 20
122.419782
 30
0.0
 10
50.855639
 20
122.116106
 30
0.0
 10
50.531621
 20
121.554890
 30
0.0
 10
50.531621
 20
120.947539
 30
0.0
  0
SPLINE
  5
138
100
AcDbEntity
  8
0
 62
7
100
AcDbSpline
 70
8
 71
3
 72
8
 73
4
 74
0
 40
0
 40
0
 40
0
 40
0
 40
1
 40
1
 40
1
 40
1
 10
50.531621
 20
120.947539
 30
0.0
 10
50.531621
 20
120.340187
 30
0.0
 10
50.855639
 20
119.778971
 30
0.0
 10
51.381621
 20
119.475296
 30
0.0
  0
SPLINE
  5
139
100
AcDbEntity
  8
0
 62
7
100
AcDbSpline
 70
8
 71
3
 72
8
 73
4
 74
0
 40
0
 40
0
 40
0
 40
0
 40
1
 40
1
 40
1
 40
1
 10
51.381621
 20
119.475296
 30
0.0
 10
51.907603
 20
119.171620
 30
0.0
 10
52.555639
 20
119.171620
 30
0.0
 10
53.081621
 20
119.475296
 30
0.0
  0
SPLINE
  5
13a
100
AcDbEntity
  8
0
 62
7
100
AcDbSpline
 70
8
 71
3
 72
8
 73
4
 74
0
 40
0
 40
0
 40
0
 40
0
 40
1
 40
1
 40
1
 40
1
 10
53.081621
 20
119.475296
 30
0.0
 10
53.607603
 20
119.778971
 30
0.0
 10
53.931621
 20
120.340187
 30
0.0
 10
53.931621
 20
120.947539
 30
0.0
  0
LINE
  5
13b
100
AcDbEntity
  8
0
 62
7
100
AcDbLine
 10
53.931621
 20
120.947539
 30
0.0
 11
53.931621
 21
120.947539
 31
0.0
  0
SPLINE
  5
13c
100
AcDbEntity
  8
0
 62
7
100
AcDbSpline
 70
8
 71
3
 72
8
 73
4
 74
0
 40
0
 40
0
 40
0
 40
0
 40
1
 40
1
 40
1
 40
1
 10
85.641006
 20
192.840654
 30
0.0
 10
101.272553
 20
192.840654
 30
0.0
 10
109.088327
 20
199.241809
 30
0.0
 10
109.088327
 20
212.044119
 30
0.0
  0
SPLINE
  5
13d
100
AcDbEntity
  8
0
 62
7
100
AcDbSpline
 70
8
 71
3
 72
8
 73
4
 74
0
 40
0
 40
0
 40
0
 40
0
 40
1
 40
1
 40
1
 40
1
 10
109.088327
 20
212.044119
 30
0.0
 10
109.088327
 20
217.278211
 30
0.0
 10
107.037130
 20
221.415973
 30
0.0
 10
102.934736
 20
224.457406
 30
0.0
  0
SPLINE
  5
13e
100
AcDbEntity
  8
0
 62
7
100
AcDbSpline
 70
8
 71
3
 72
8
 73
4
 74
0
 40
0
 40
0
 40
0
 40
0
 40
1
 40
1
 40
1
 40
1
 10
102.934736
 20
224.457406
 30
0.0
 10
98.903069
 20
227.569571
 30
0.0
 10
93.279954
 20
229.125653
 30
0.0
 10
86.065391
 20
229.125653
 30
0.0
  0
LINE
  5
13f
100
AcDbEntity
  8
0
 62
7
100
AcDbLine
 10
86.065391
 20
229.125653
 30
0.0
 11
79.169121
 21
229.125653
 31
0.0
  0
LINE
  5
140
100
AcDbEntity
  8
0
 62
7
100
AcDbLine
 10
79.169121
 20
229.125653
 30
0.0
 11
79.169121
 21
192.840654
 31
0.0
  0
LINE
  5
141
100
AcDbEntity
  8
0
 62
7
100
AcDbLine
 10
79.169121
 20
192.840654
 30
0.0
 11
85.641006
 21
192.840654
 31
0.0
  0
SPLINE
  5
142
100
AcDbEntity
  8
0
 62
7
100
AcDbSpline
 70
8
 71
3
 72
8
 73
4
 74
0
 40
0
 40
0
 40
0
 40
0
 40
1
 40
1
 40
1
 40
1
 10
110.142177
 20
214.461724
 30
0.0
 10
109.978017
 20
215.778076
 30
0.0
 10
109.663902
 20
217.087130
 30
0.0
 10
109.187377
 20
218.325135
 30
0.0
  0
SPLINE
  5
143
100
AcDbEntity
  8
0
 62
7
100
AcDbSpline
 70
8
 71
3
 72
8
 73
4
 74
0
 40
0
 40
0
 40
0
 40
0
 40
1
 40
1
 40
1
 40
1
 10
109.187377
 20
218.325135
 30
0.0
 10
108.480780
 20
220.160865
 30
0.0
 10
107.382017
 20
221.880577
 30
0.0
 10
106.033801
 20
223.312882
 30
0.0
  0
SPLINE
  5
144
100
AcDbEntity
  8
0
 62
7
100
AcDbSpline
 70
8
 71
3
 72
8
 73
4
 74
0
 40
0
 40
0
 40
0
 40
0
 40
1
 40
1
 40
1
 40
1
 10
106.033801
 20
223.312882
 30
0.0
 10
105.309248
 20
224.082627
 30
0.0
 10
104.507581
 20
224.784368
 30
0.0
 10
103.658761
 20
225.414440
 30
0.0
  0
SPLINE
  5
145
100
AcDbEntity
  8
0
 62
7
100
AcDbSpline
 70
8
 71
3
 72
8
 73
4
 74
0
 40
0
 40
0
 40
0
 40
0
 40
1
 40
1
 40
1
 40
1
 10
110.189653
 20
209.583259
 30
0.0
 10
111.519066
 20
208.395485
 30
0.0
 10
113.551501
 20
208.478286
 30
0.0
 10
114.779890
 20
209.770262
 30
0.0
  0
SPLINE
  5
146
100
AcDbEntity
  8
0
 62
7
100
AcDbSpline
 70
8
 71
3
 72
8
 73
4
 74
0
 40
0
 40
0
 40
0
 40
0
 40
1
 40
1
 40
1
 40
1
 10
114.779890
 20
209.770262
 30
0.0
 10
116.008279
 20
211.062239
 30
0.0
 10
115.988484
 20
213.096263
 30
0.0
 10
114.735184
 20
214.364089
 30
0.0
  0
SPLINE
  5
147
100
AcDbEntity
  8
0
 62
7
100
AcDbSpline
 70
8
 71
3
 72
8
 73
4
 74
0
 40
0
 40
0
 40
0
 40
0
 40
1
 40
1
 40
1
 40
1
 10
114.735184
 20
214.364089
 30
0.0
 10
113.481884
 20
215.631914
 30
0.0
 10
111.448222
 20
215.675144
 30
0.0
 10
110.142177
 20
214.461724
 30
0.0
  0
SPLINE
  5
148
100
AcDbEntity
  8
0
 62
7
100
AcDbSpline
 70
8
 71
3
 72
8
 73
4
 74
0
 40
0
 40
0
 40
0
 40
0
 40
1
 40
1
 40
1
 40
1
 10
85.641006
 20
191.640654
 30
0.0
 10
89.470048
 20
191.640654
 30
0.0
 10
93.371902
 20
191.996702
 30
0.0
 10
97.032480
 20
193.119970
 30
0.0
  0
SPLINE
  5
149
100
AcDbEntity
  8
0
 62
7
100
AcDbSpline
 70
8
 71
3
 72
8
 73
4
 74
0
 40
0
 40
0
 40
0
 40
0
 40
1
 40
1
 40
1
 40
1
 10
97.032480
 20
193.119970
 30
0.0
 10
99.023287
 20
193.730859
 30
0.0
 10
100.969580
 20
194.591769
 30
0.0
 10
102.696898
 20
195.754899
 30
0.0
  0
SPLINE
  5
14a
100
AcDbEntity
  8
0
 62
7
100
AcDbSpline
 70
8
 71
3
 72
8
 73
4
 74
0
 40
0
 40
0
 40
0
 40
0
 40
1
 40
1
 40
1
 40
1
 10
102.696898
 20
195.754899
 30
0.0
 10
104.439713
 20
196.928464
 30
0.0
 10
105.994003
 20
198.458173
 30
0.0
 10
107.159938
 20
200.206102
 30
0.0
  0
SPLINE
  5
14b
100
AcDbEntity
  8
0
 62
7
100
AcDbSpline
 70
8
 71
3
 72
8
 73
4
 74
0
 40
0
 40
0
 40
0
 40
0
 40
1
 40
1
 40
1
 40
1
 10
107.159938
 20
200.206102
 30
0.0
 10
108.170032
 20
201.720402
 30
0.0
 10
108.920483
 20
203.427686
 30
0.0
 10
109.415339
 20
205.179403
 30
0.0
  0
SPLINE
  5
14c
100
AcDbEntity
  8
0
 62
7
100
AcDbSpline
 70
8
 71
3
 72
8
 73
4
 74
0
 40
0
 40
0
 40
0
 40
0
 40
1
 40
1
 40
1
 40
1
 10
109.415339
 20
205.179403
 30
0.0
 10
109.820536
 20
206.613738
 30
0.0
 10
110.066653
 20
208.097873
 30
0.0
 10
110.189653
 20
209.583259
 30
0.0
  0
LINE
  5
14d
100
AcDbEntity
  8
0
 62
7
100
AcDbLine
 10
77.969121
 20
191.640654
 30
0.0
 11
85.641006
 21
191.640654
 31
0.0
  0
LINE
  5
14e
100
AcDbEntity
  8
0
 62
7
100
AcDbLine
 10
77.969121
 20
230.325653
 30
0.0
 11
77.969121
 21
191.640654
 31
0.0
  0
LINE
  5
14f
100
AcDbEntity
  8
0
 62
7
100
AcDbLine
 10
86.065391
 20
230.325653
 30
0.0
 11
77.969121
 21
230.325653
 31
0.0
  0
SPLINE
  5
150
100
AcDbEntity
  8
0
 62
7
100
AcDbSpline
 70
8
 71
3
 72
8
 73
4
 74
0
 40
0
 40
0
 40
0
 40
0
 40
1
 40
1
 40
1
 40
1
 10
103.658761
 20
225.414440
 30
0.0
 10
102.150243
 20
226.577422
 30
0.0
 10
100.449581
 20
227.513530
 30
0.0
 10
98.680864
 20
228.220491
 30
0.0
  0
SPLINE
  5
151
100
AcDbEntity
  8
0
 62
7
100
AcDbSpline
 70
8
 71
3
 72
8
 73
4
 74
0
 40
0
 40
0
 40
0
 40
0
 40
1
 40
1
 40
1
 40
1
 10
98.680864
 20
228.220491
 30
0.0
 10
95.802976
 20
229.370791
 30
0.0
 10
92.685403
 20
229.958317
 30
0.0
 10
89.595213
 20
230.195290
 30
0.0
  0
SPLINE
  5
152
100
AcDbEntity
  8
0
 62
7
100
AcDbSpline
 70
8
 71
3
 72
8
 73
4
 74
0
 40
0
 40
0
 40
0
 40
0
 40
1
 40
1
 40
1
 40
1
 10
89.595213
 20
230.195290
 30
0.0
 10
88.421250
 20
230.285315
 30
0.0
 10
87.242800
 20
230.325653
 30
0.0
 10
86.065391
 20
230.325653
 30
0.0
  0
SPLINE
  5
153
100
AcDbEntity
  8
0
 62
7
100
AcDbSpline
 70
8
 71
3
 72
8
 73
4
 74
0
 40
0
 40
0
 40
0
 40
0
 40
1
 40
1
 40
1
 40
1
 10
114.088327
 20
212.044119
 30
0.0
 10
114.088327
 20
212.651471
 30
0.0
 10
113.764309
 20
213.212686
 30
0.0
 10
113.238327
 20
213.516362
 30
0.0
  0
SPLINE
  5
154
100
AcDbEntity
  8
0
 62
7
100
AcDbSpline
 70
8
 71
3
 72
8
 73
4
 74
0
 40
0
 40
0
 40
0
 40
0
 40
1
 40
1
 40
1
 40
1
 10
113.238327
 20
213.516362
 30
0.0
 10
112.712345
 20
213.820038
 30
0.0
 10
112.064309
 20
213.820038
 30
0.0
 10
111.538327
 20
213.516362
 30
0.0
  0
SPLINE
  5
155
100
AcDbEntity
  8
0
 62
7
100
AcDbSpline
 70
8
 71
3
 72
8
 73
4
 74
0
 40
0
 40
0
 40
0
 40
0
 40
1
 40
1
 40
1
 40
1
 10
111.538327
 20
213.516362
 30
0.0
 10
111.012345
 20
213.212686
 30
0.0
 10
110.688327
 20
212.651471
 30
0.0
 10
110.688327
 20
212.044119
 30
0.0
  0
SPLINE
  5
156
100
AcDbEntity
  8
0
 62
7
100
AcDbSpline
 70
8
 71
3
 72
8
 73
4
 74
0
 40
0
 40
0
 40
0
 40
0
 40
1
 40
1
 40
1
 40
1
 10
110.688327
 20
212.044119
 30
0.0
 10
110.688327
 20
211.436768
 30
0.0
 10
111.012345
 20
210.875552
 30
0.0
 10
111.538327
 20
210.571876
 30
0.0
  0
SPLINE
  5
157
100
AcDbEntity
  8
0
 62
7
100
AcDbSpline
 70
8
 71
3
 72
8
 73
4
 74
0
 40
0
 40
0
 40
0
 40
0
 40
1
 40
1
 40
1
 40
1
 10
111.538327
 20
210.571876
 30
0.0
 10
112.064309
 20
210.268200
 30
0.0
 10
112.712345
 20
210.268200
 30
0.0
 10
113.238327
 20
210.571876
 30
0.0
  0
SPLINE
  5
158
100
AcDbEntity
  8
0
 62
7
100
AcDbSpline
 70
8
 71
3
 72
8
 73
4
 74
0
 40
0
 40
0
 40
0
 40
0
 40
1
 40
1
 40
1
 40
1
 10
113.238327
 20
210.571876
 30
0.0
 10
113.764309
 20
210.875552
 30
0.0
 10
114.088327
 20
211.436768
 30
0.0
 10
114.088327
 20
212.044119
 30
0.0
  0
LINE
  5
159
100
AcDbEntity
  8
0
 62
7
100
AcDbLine
 10
114.088327
 20
212.044119
 30
0.0
 11
114.088327
 21
212.044119
 31
0.0
  0
ENDSEC
  0
SECTION
  2
OBJECTS
  0
DICTIONARY
  5
C
330
0
100
AcDbDictionary
  3
ACAD_GROUP
350
D
  3
ACAD_MLINESTYLE
350
17
  0
DICTIONARY
  5
D
330
C
100
AcDbDictionary
  0
DICTIONARY
  5
1A
330
C
100
AcDbDictionary
  0
DICTIONARY
  5
17
330
C
100
AcDbDictionary
  3
STANDARD
350
18
  0
DICTIONARY
  5
19
330
C
100
AcDbDictionary
  0
ENDSEC
  0
EOF
