  0
SECTION
  2
HEADER
  9
$ACADVER
  1
AC1014
  9
$HANDSEED
  5
FFFF
  9
$MEASUREMENT
 70
     1
  0
ENDSEC
  0
SECTION
  2
TABLES
  0
TABLE
  2
VPORT
  5
8
330
0
100
AcDbSymbolTable
 70
     4
  0
VPORT
  5
2E
330
8
100
AcDbSymbolTableRecord
100
AcDbViewportTableRecord
  2
*ACTIVE
 70
     0
 10
0.0
 20
0.0
 11
1.0
 21
1.0
 12
210.0
 22
148.5
 13
0.0
 23
0.0
 14
10.0
 24
10.0
 15
10.0
 25
10.0
 16
0.0
 26
0.0
 36
1.0
 17
0.0
 27
0.0
 37
0.0
 40
341.0
 41
1.24
 42
50.0
 43
0.0
 44
0.0
 50
0.0
 51
0.0
 71
     0
 72
   100
 73
     1
 74
     3
 75
     0
 76
     0
 77
     0
 78
     0
  0
ENDTAB
  0
TABLE
  2
LTYPE
  5
5
330
0
100
AcDbSymbolTable
 70
     1
  0
LTYPE
  5
14
330
5
100
AcDbSymbolTableRecord
100
AcDbLinetypeTableRecord
  2
BYBLOCK
 70
     0
  3

 72
    65
 73
     0
 40
0.0
  0
LTYPE
  5
15
330
5
100
AcDbSymbolTableRecord
100
AcDbLinetypeTableRecord
  2
BYLAYER
 70
     0
  3

 72
    65
 73
     0
 40
0.0
  0
LTYPE
  5
16
330
5
100
AcDbSymbolTableRecord
100
AcDbLinetypeTableRecord
  2
CONTINUOUS
 70
     0
  3
Solid line
 72
    65
 73
     0
 40
0.0
  0
ENDTAB
  0
TABLE
  2
LAYER
  5
2
100
AcDbSymbolTable
 70
1
  0
LAYER
  5
50
100
AcDbSymbolTableRecord
100
AcDbLayerTableRecord
  2
0
 70
0
  6
CONTINUOUS
  0
ENDTAB
  0
TABLE
  2
STYLE
  5
3
330
0
100
AcDbSymbolTable
 70
     1
  0
STYLE
  5
11
330
3
100
AcDbSymbolTableRecord
100
AcDbTextStyleTableRecord
  2
STANDARD
 70
     0
 40
0.0
 41
1.0
 50
0.0
 71
     0
 42
2.5
  3
txt
  4

  0
ENDTAB
  0
TABLE
  2
VIEW
  5
6
330
0
100
AcDbSymbolTable
 70
     0
  0
ENDTAB
  0
TABLE
  2
UCS
  5
7
330
0
100
AcDbSymbolTable
 70
     0
  0
ENDTAB
  0
TABLE
  2
APPID
  5
9
330
0
100
AcDbSymbolTable
 70
     2
  0
APPID
  5
12
330
9
100
AcDbSymbolTableRecord
100
AcDbRegAppTableRecord
  2
ACAD
 70
     0
  0
ENDTAB
  0
TABLE
  2
DIMSTYLE
  5
A
330
0
100
AcDbSymbolTable
 70
     1
  0
DIMSTYLE
105
27
330
A
100
AcDbSymbolTableRecord
100
AcDbDimStyleTableRecord
  2
ISO-25
 70
     0
  3

  4

  5

  6

  7

 40
1.0
 41
2.5
 42
0.625
 43
3.75
 44
1.25
 45
0.0
 46
0.0
 47
0.0
 48
0.0
140
2.5
141
2.5
142
0.0
143
0.03937007874016
144
1.0
145
0.0
146
1.0
147
0.625
 71
     0
 72
     0
 73
     0
 74
     0
 75
     0
 76
     0
 77
     1
 78
     8
170
     0
171
     3
172
     1
173
     0
174
     0
175
     0
176
     0
177
     0
178
     0
270
     2
271
     2
272
     2
273
     2
274
     3
340
11
275
     0
280
     0
281
     0
282
     0
283
     0
284
     8
285
     0
286
     0
287
     3
288
     0
  0
ENDTAB
  0
TABLE
  2
BLOCK_RECORD
  5
1
330
0
100
AcDbSymbolTable
 70
     1
  0
BLOCK_RECORD
  5
1F
330
1
100
AcDbSymbolTableRecord
100
AcDbBlockTableRecord
  2
*MODEL_SPACE
  0
BLOCK_RECORD
  5
1B
330
1
100
AcDbSymbolTableRecord
100
AcDbBlockTableRecord
  2
*PAPER_SPACE
  0
ENDTAB
  0
ENDSEC
  0
SECTION
  2
BLOCKS
  0
BLOCK
  5
20
330
1F
100
AcDbEntity
  8
0
100
AcDbBlockBegin
  2
*MODEL_SPACE
 70
     0
 10
0.0
 20
0.0
 30
0.0
  3
*MODEL_SPACE
  1

  0
ENDBLK
  5
21
330
1F
100
AcDbEntity
  8
0
100
AcDbBlockEnd
  0
BLOCK
  5
1C
330
1B
100
AcDbEntity
 67
     1
  8
0
100
AcDbBlockBegin
  2
*PAPER_SPACE
  1

  0
ENDBLK
  5
1D
330
1B
100
AcDbEntity
 67
     1
  8
0
100
AcDbBlockEnd
  0
ENDSEC
  0
SECTION
  2
ENTITIES
  0
SPLINE
  5
100
100
AcDbEntity
  8
0
 62
7
100
AcDbSpline
 70
8
 71
3
 72
8
 73
4
 74
0
 40
0
 40
0
 40
0
 40
0
 40
1
 40
1
 40
1
 40
1
 10
125.708007
 20
106.565441
 30
0.0
 10
126.688661
 20
107.963692
 30
0.0
 10
126.440435
 20
109.879154
 30
0.0
 10
125.135760
 20
110.981248
 30
0.0
  0
SPLINE
  5
101
100
AcDbEntity
  8
0
 62
7
100
AcDbSpline
 70
8
 71
3
 72
8
 73
4
 74
0
 40
0
 40
0
 40
0
 40
0
 40
1
 40
1
 40
1
 40
1
 10
125.135760
 20
110.981248
 30
0.0
 10
123.831085
 20
112.083343
 30
0.0
 10
121.901081
 20
112.007891
 30
0.0
 10
120.686427
 20
110.807306
 30
0.0
  0
SPLINE
  5
102
100
AcDbEntity
  8
0
 62
7
100
AcDbSpline
 70
8
 71
3
 72
8
 73
4
 74
0
 40
0
 40
0
 40
0
 40
0
 40
1
 40
1
 40
1
 40
1
 10
120.686427
 20
110.807306
 30
0.0
 10
119.471773
 20
109.606721
 30
0.0
 10
119.373842
 20
107.677727
 30
0.0
 10
120.460663
 20
106.360301
 30
0.0
  0
SPLINE
  5
103
100
AcDbEntity
  8
0
 62
7
100
AcDbSpline
 70
8
 71
3
 72
8
 73
4
 74
0
 40
0
 40
0
 40
0
 40
0
 40
1
 40
1
 40
1
 40
1
 10
125.708007
 20
106.565441
 30
0.0
 10
128.343548
 20
107.481114
 30
0.0
 10
130.915702
 20
108.604947
 30
0.0
 10
133.377535
 20
109.917924
 30
0.0
  0
SPLINE
  5
104
100
AcDbEntity
  8
0
 62
7
100
AcDbSpline
 70
8
 71
3
 72
8
 73
4
 74
0
 40
0
 40
0
 40
0
 40
0
 40
1
 40
1
 40
1
 40
1
 10
133.381179
 20
109.919860
 30
0.0
 10
135.531090
 20
111.057002
 30
0.0
 10
137.602567
 20
112.361990
 30
0.0
 10
139.539654
 20
113.832672
 30
0.0
  0
SPLINE
  5
105
100
AcDbEntity
  8
0
 62
7
100
AcDbSpline
 70
8
 71
3
 72
8
 73
4
 74
0
 40
0
 40
0
 40
0
 40
0
 40
1
 40
1
 40
1
 40
1
 10
139.539654
 20
113.832672
 30
0.0
 10
141.323721
 20
115.187179
 30
0.0
 10
143.004480
 20
116.691136
 30
0.0
 10
144.540396
 20
118.321641
 30
0.0
  0
SPLINE
  5
106
100
AcDbEntity
  8
0
 62
7
100
AcDbSpline
 70
8
 71
3
 72
8
 73
4
 74
0
 40
0
 40
0
 40
0
 40
0
 40
1
 40
1
 40
1
 40
1
 10
144.540396
 20
118.321641
 30
0.0
 10
147.397648
 20
121.354856
 30
0.0
 10
149.784151
 20
124.888545
 30
0.0
 10
151.597518
 20
128.640343
 30
0.0
  0
SPLINE
  5
107
100
AcDbEntity
  8
0
 62
7
100
AcDbSpline
 70
8
 71
3
 72
8
 73
4
 74
0
 40
0
 40
0
 40
0
 40
0
 40
1
 40
1
 40
1
 40
1
 10
151.595830
 20
128.636837
 30
0.0
 10
152.630699
 20
130.795786
 30
0.0
 10
153.566056
 20
133.006654
 30
0.0
 10
154.372372
 20
135.260954
 30
0.0
  0
SPLINE
  5
108
100
AcDbEntity
  8
0
 62
7
100
AcDbSpline
 70
8
 71
3
 72
8
 73
4
 74
0
 40
0
 40
0
 40
0
 40
0
 40
1
 40
1
 40
1
 40
1
 10
154.372372
 20
135.260954
 30
0.0
 10
155.179157
 20
137.516566
 30
0.0
 10
155.859019
 20
139.823383
 30
0.0
 10
156.378594
 20
142.161915
 30
0.0
  0
SPLINE
  5
109
100
AcDbEntity
  8
0
 62
7
100
AcDbSpline
 70
8
 71
3
 72
8
 73
4
 74
0
 40
0
 40
0
 40
0
 40
0
 40
1
 40
1
 40
1
 40
1
 10
156.378594
 20
142.161915
 30
0.0
 10
157.131207
 20
145.549317
 30
0.0
 10
157.548724
 20
149.035947
 30
0.0
 10
157.548724
 20
152.505950
 30
0.0
  0
LINE
  5
10a
100
AcDbEntity
  8
0
 62
7
100
AcDbLine
 10
157.548724
 20
152.505950
 30
0.0
 11
157.548724
 21
235.628758
 31
0.0
  0
SPLINE
  5
10b
100
AcDbEntity
  8
0
 62
7
100
AcDbSpline
 70
8
 71
3
 72
8
 73
4
 74
0
 40
0
 40
0
 40
0
 40
0
 40
1
 40
1
 40
1
 40
1
 10
152.903140
 20
240.274343
 30
0.0
 10
151.821007
 20
238.962602
 30
0.0
 10
151.912840
 20
237.043320
 30
0.0
 10
153.115270
 20
235.840889
 30
0.0
  0
SPLINE
  5
10c
100
AcDbEntity
  8
0
 62
7
100
AcDbSpline
 70
8
 71
3
 72
8
 73
4
 74
0
 40
0
 40
0
 40
0
 40
0
 40
1
 40
1
 40
1
 40
1
 10
153.115270
 20
235.840889
 30
0.0
 10
154.317700
 20
234.638459
 30
0.0
 10
156.236982
 20
234.546626
 30
0.0
 10
157.548724
 20
235.628758
 30
0.0
  0
LINE
  5
10d
100
AcDbEntity
  8
0
 62
7
100
AcDbLine
 10
152.903140
 20
240.274343
 30
0.0
 11
130.850827
 21
240.274343
 31
0.0
  0
LINE
  5
10e
100
AcDbEntity
  8
0
 62
7
100
AcDbLine
 10
130.850827
 20
240.274343
 30
0.0
 11
130.850827
 21
158.890740
 31
0.0
  0
SPLINE
  5
10f
100
AcDbEntity
  8
0
 62
7
100
AcDbSpline
 70
8
 71
3
 72
8
 73
4
 74
0
 40
0
 40
0
 40
0
 40
0
 40
1
 40
1
 40
1
 40
1
 10
130.850827
 20
158.890740
 30
0.0
 10
130.850827
 20
156.661263
 30
0.0
 10
130.708877
 20
154.423321
 30
0.0
 10
130.371654
 20
152.219495
 30
0.0
  0
SPLINE
  5
110
100
AcDbEntity
  8
0
 62
7
100
AcDbSpline
 70
8
 71
3
 72
8
 73
4
 74
0
 40
0
 40
0
 40
0
 40
0
 40
1
 40
1
 40
1
 40
1
 10
130.371654
 20
152.219495
 30
0.0
 10
129.831231
 20
148.687715
 30
0.0
 10
128.749546
 20
145.154152
 30
0.0
 10
126.974367
 20
142.053464
 30
0.0
  0
SPLINE
  5
111
100
AcDbEntity
  8
0
 62
7
100
AcDbSpline
 70
8
 71
3
 72
8
 73
4
 74
0
 40
0
 40
0
 40
0
 40
0
 40
1
 40
1
 40
1
 40
1
 10
126.974367
 20
142.053464
 30
0.0
 10
126.094381
 20
140.516399
 30
0.0
 10
125.036287
 20
139.067511
 30
0.0
 10
123.831833
 20
137.768960
 30
0.0
  0
SPLINE
  5
112
100
AcDbEntity
  8
0
 62
7
100
AcDbSpline
 70
8
 71
3
 72
8
 73
4
 74
0
 40
0
 40
0
 40
0
 40
0
 40
1
 40
1
 40
1
 40
1
 10
123.825867
 20
137.762575
 30
0.0
 10
122.534198
 20
136.390175
 30
0.0
 10
121.056300
 20
135.171733
 30
0.0
 10
119.459538
 20
134.170614
 30
0.0
  0
SPLINE
  5
113
100
AcDbEntity
  8
0
 62
7
100
AcDbSpline
 70
8
 71
3
 72
8
 73
4
 74
0
 40
0
 40
0
 40
0
 40
0
 40
1
 40
1
 40
1
 40
1
 10
119.459538
 20
134.170614
 30
0.0
 10
117.219933
 20
132.766453
 30
0.0
 10
114.698185
 20
131.764931
 30
0.0
 10
112.127498
 20
131.149250
 30
0.0
  0
SPLINE
  5
114
100
AcDbEntity
  8
0
 62
7
100
AcDbSpline
 70
8
 71
3
 72
8
 73
4
 74
0
 40
0
 40
0
 40
0
 40
0
 40
1
 40
1
 40
1
 40
1
 10
112.127498
 20
131.149250
 30
0.0
 10
109.513365
 20
130.523164
 30
0.0
 10
106.799722
 20
130.267538
 30
0.0
 10
104.111661
 20
130.267538
 30
0.0
  0
SPLINE
  5
115
100
AcDbEntity
  8
0
 62
7
100
AcDbSpline
 70
8
 71
3
 72
8
 73
4
 74
0
 40
0
 40
0
 40
0
 40
0
 40
1
 40
1
 40
1
 40
1
 10
104.111661
 20
130.267538
 30
0.0
 10
100.757820
 20
130.267538
 30
0.0
 10
97.319337
 20
130.817102
 30
0.0
 10
94.216670
 20
132.090567
 30
0.0
  0
SPLINE
  5
116
100
AcDbEntity
  8
0
 62
7
100
AcDbSpline
 70
8
 71
3
 72
8
 73
4
 74
0
 40
0
 40
0
 40
0
 40
0
 40
1
 40
1
 40
1
 40
1
 10
94.216670
 20
132.090567
 30
0.0
 10
91.501683
 20
133.204912
 30
0.0
 10
88.977041
 20
134.917524
 30
0.0
 10
86.906304
 20
136.997181
 30
0.0
  0
SPLINE
  5
117
100
AcDbEntity
  8
0
 62
7
100
AcDbSpline
 70
8
 71
3
 72
8
 73
4
 74
0
 40
0
 40
0
 40
0
 40
0
 40
1
 40
1
 40
1
 40
1
 10
86.906304
 20
136.997181
 30
0.0
 10
86.653157
 20
137.251419
 30
0.0
 10
86.405647
 20
137.511387
 30
0.0
 10
86.163920
 20
137.776508
 30
0.0
  0
SPLINE
  5
118
100
AcDbEntity
  8
0
 62
7
100
AcDbSpline
 70
8
 71
3
 72
8
 73
4
 74
0
 40
0
 40
0
 40
0
 40
0
 40
1
 40
1
 40
1
 40
1
 10
86.163920
 20
137.776507
 30
0.0
 10
84.775538
 20
139.299247
 30
0.0
 10
83.572871
 20
141.013409
 30
0.0
 10
82.612531
 20
142.836619
 30
0.0
  0
SPLINE
  5
119
100
AcDbEntity
  8
0
 62
7
100
AcDbSpline
 70
8
 71
3
 72
8
 73
4
 74
0
 40
0
 40
0
 40
0
 40
0
 40
1
 40
1
 40
1
 40
1
 10
82.612531
 20
142.836619
 30
0.0
 10
81.223412
 20
145.473867
 30
0.0
 10
80.315810
 20
148.394579
 30
0.0
 10
79.833634
 20
151.336048
 30
0.0
  0
SPLINE
  5
11a
100
AcDbEntity
  8
0
 62
7
100
AcDbSpline
 70
8
 71
3
 72
8
 73
4
 74
0
 40
0
 40
0
 40
0
 40
0
 40
1
 40
1
 40
1
 40
1
 10
79.833634
 20
151.336048
 30
0.0
 10
79.504301
 20
153.345110
 30
0.0
 10
79.361207
 20
155.389502
 30
0.0
 10
79.361207
 20
157.425378
 30
0.0
  0
LINE
  5
11b
100
AcDbEntity
  8
0
 62
7
100
AcDbLine
 10
79.361207
 20
157.425378
 30
0.0
 11
79.361207
 21
240.274343
 31
0.0
  0
LINE
  5
11c
100
AcDbEntity
  8
0
 62
7
100
AcDbLine
 10
79.361207
 20
240.274343
 30
0.0
 11
57.204224
 21
240.274343
 31
0.0
  0
SPLINE
  5
11d
100
AcDbEntity
  8
0
 62
7
100
AcDbSpline
 70
8
 71
3
 72
8
 73
4
 74
0
 40
0
 40
0
 40
0
 40
0
 40
1
 40
1
 40
1
 40
1
 10
52.558640
 20
235.628758
 30
0.0
 10
53.870382
 20
234.546626
 30
0.0
 10
55.789664
 20
234.638459
 30
0.0
 10
56.992094
 20
235.840889
 30
0.0
  0
SPLINE
  5
11e
100
AcDbEntity
  8
0
 62
7
100
AcDbSpline
 70
8
 71
3
 72
8
 73
4
 74
0
 40
0
 40
0
 40
0
 40
0
 40
1
 40
1
 40
1
 40
1
 10
56.992094
 20
235.840889
 30
0.0
 10
58.194524
 20
237.043320
 30
0.0
 10
58.286357
 20
238.962602
 30
0.0
 10
57.204224
 20
240.274343
 30
0.0
  0
LINE
  5
11f
100
AcDbEntity
  8
0
 62
7
100
AcDbLine
 10
52.558640
 20
235.628758
 30
0.0
 11
52.558640
 21
151.040588
 31
0.0
  0
SPLINE
  5
120
100
AcDbEntity
  8
0
 62
7
100
AcDbSpline
 70
8
 71
3
 72
8
 73
4
 74
0
 40
0
 40
0
 40
0
 40
0
 40
1
 40
1
 40
1
 40
1
 10
52.558640
 20
151.040588
 30
0.0
 10
52.558640
 20
147.513471
 30
0.0
 10
52.986008
 20
143.961471
 30
0.0
 10
53.822555
 20
140.534994
 30
0.0
  0
SPLINE
  5
121
100
AcDbEntity
  8
0
 62
7
100
AcDbSpline
 70
8
 71
3
 72
8
 73
4
 74
0
 40
0
 40
0
 40
0
 40
0
 40
1
 40
1
 40
1
 40
1
 10
53.822555
 20
140.534994
 30
0.0
 10
55.098917
 20
135.307040
 30
0.0
 10
57.361208
 20
130.271531
 30
0.0
 10
60.219728
 20
125.711984
 30
0.0
  0
SPLINE
  5
122
100
AcDbEntity
  8
0
 62
7
100
AcDbSpline
 70
8
 71
3
 72
8
 73
4
 74
0
 40
0
 40
0
 40
0
 40
0
 40
1
 40
1
 40
1
 40
1
 10
60.219728
 20
125.711984
 30
0.0
 10
61.770419
 20
123.238518
 30
0.0
 10
63.504998
 20
120.874619
 30
0.0
 10
65.366593
 20
118.625810
 30
0.0
  0
SPLINE
  5
123
100
AcDbEntity
  8
0
 62
7
100
AcDbSpline
 70
8
 71
3
 72
8
 73
4
 74
0
 40
0
 40
0
 40
0
 40
0
 40
1
 40
1
 40
1
 40
1
 10
65.364089
 20
118.628825
 30
0.0
 10
67.679180
 20
115.850717
 30
0.0
 10
70.439716
 20
113.396173
 30
0.0
 10
73.459248
 20
111.406207
 30
0.0
  0
SPLINE
  5
124
100
AcDbEntity
  8
0
 62
7
100
AcDbSpline
 70
8
 71
3
 72
8
 73
4
 74
0
 40
0
 40
0
 40
0
 40
0
 40
1
 40
1
 40
1
 40
1
 10
73.459248
 20
111.406207
 30
0.0
 10
76.580888
 20
109.348948
 30
0.0
 10
80.026786
 20
107.742962
 30
0.0
 10
83.571746
 20
106.555437
 30
0.0
  0
SPLINE
  5
125
100
AcDbEntity
  8
0
 62
7
100
AcDbSpline
 70
8
 71
3
 72
8
 73
4
 74
0
 40
0
 40
0
 40
0
 40
0
 40
1
 40
1
 40
1
 40
1
 10
88.812046
 20
106.360301
 30
0.0
 10
89.899862
 20
107.678934
 30
0.0
 10
89.800631
 20
109.609989
 30
0.0
 10
88.583380
 20
110.810171
 30
0.0
  0
SPLINE
  5
126
100
AcDbEntity
  8
0
 62
7
100
AcDbSpline
 70
8
 71
3
 72
8
 73
4
 74
0
 40
0
 40
0
 40
0
 40
0
 40
1
 40
1
 40
1
 40
1
 10
88.583380
 20
110.810171
 30
0.0
 10
87.366129
 20
112.010352
 30
0.0
 10
85.433865
 20
112.082305
 30
0.0
 10
84.130725
 20
110.975977
 30
0.0
  0
SPLINE
  5
127
100
AcDbEntity
  8
0
 62
7
100
AcDbSpline
 70
8
 71
3
 72
8
 73
4
 74
0
 40
0
 40
0
 40
0
 40
0
 40
1
 40
1
 40
1
 40
1
 10
84.130725
 20
110.975977
 30
0.0
 10
82.827585
 20
109.869649
 30
0.0
 10
82.585012
 20
107.951321
 30
0.0
 10
83.571746
 20
106.555437
 30
0.0
  0
LINE
  5
128
100
AcDbEntity
  8
0
 62
7
100
AcDbLine
 10
88.812046
 20
106.360301
 30
0.0
 11
120.460663
 21
106.360301
 31
0.0
  0
LINE
  5
129
100
AcDbEntity
  8
0
 62
7
100
AcDbLine
 10
125.300482
 20
105.160301
 30
0.0
 11
83.979522
 21
105.160301
 31
0.0
  0
SPLINE
  5
12a
100
AcDbEntity
  8
0
 62
7
100
AcDbSpline
 70
8
 71
3
 72
8
 73
4
 74
0
 40
0
 40
0
 40
0
 40
0
 40
1
 40
1
 40
1
 40
1
 10
64.442223
 20
117.860604
 30
0.0
 10
69.351832
 20
111.969075
 30
0.0
 10
75.864265
 20
107.735641
 30
0.0
 10
83.979522
 20
105.160301
 30
0.0
  0
SPLINE
  5
12b
100
AcDbEntity
  8
0
 62
7
100
AcDbSpline
 70
8
 71
3
 72
8
 73
4
 74
0
 40
0
 40
0
 40
0
 40
0
 40
1
 40
1
 40
1
 40
1
 10
51.358640
 20
151.040588
 30
0.0
 10
51.358640
 20
139.457252
 30
0.0
 10
55.719834
 20
128.397257
 30
0.0
 10
64.442223
 20
117.860604
 30
0.0
  0
LINE
  5
12c
100
AcDbEntity
  8
0
 62
7
100
AcDbLine
 10
51.358640
 20
241.474343
 30
0.0
 11
51.358640
 21
151.040588
 31
0.0
  0
LINE
  5
12d
100
AcDbEntity
  8
0
 62
7
100
AcDbLine
 10
80.561207
 20
241.474343
 30
0.0
 11
51.358640
 21
241.474343
 31
0.0
  0
LINE
  5
12e
100
AcDbEntity
  8
0
 62
7
100
AcDbLine
 10
80.561207
 20
157.425378
 30
0.0
 11
80.561207
 21
241.474343
 31
0.0
  0
SPLINE
  5
12f
100
AcDbEntity
  8
0
 62
7
100
AcDbSpline
 70
8
 71
3
 72
8
 73
4
 74
0
 40
0
 40
0
 40
0
 40
0
 40
1
 40
1
 40
1
 40
1
 10
87.050667
 20
138.585012
 30
0.0
 10
82.724360
 20
143.329990
 30
0.0
 10
80.561207
 20
149.610112
 30
0.0
 10
80.561207
 20
157.425378
 30
0.0
  0
SPLINE
  5
130
100
AcDbEntity
  8
0
 62
7
100
AcDbSpline
 70
8
 71
3
 72
8
 73
4
 74
0
 40
0
 40
0
 40
0
 40
0
 40
1
 40
1
 40
1
 40
1
 10
104.111661
 20
131.467538
 30
0.0
 10
97.063971
 20
131.467538
 30
0.0
 10
91.376973
 20
133.840029
 30
0.0
 10
87.050667
 20
138.585012
 30
0.0
  0
SPLINE
  5
131
100
AcDbEntity
  8
0
 62
7
100
AcDbSpline
 70
8
 71
3
 72
8
 73
4
 74
0
 40
0
 40
0
 40
0
 40
0
 40
1
 40
1
 40
1
 40
1
 10
122.952027
 20
138.585012
 30
0.0
 10
118.486164
 20
133.840029
 30
0.0
 10
112.206042
 20
131.467538
 30
0.0
 10
104.111661
 20
131.467538
 30
0.0
  0
SPLINE
  5
132
100
AcDbEntity
  8
0
 62
7
100
AcDbSpline
 70
8
 71
3
 72
8
 73
4
 74
0
 40
0
 40
0
 40
0
 40
0
 40
1
 40
1
 40
1
 40
1
 10
129.650827
 20
158.890740
 30
0.0
 10
129.650827
 20
150.168346
 30
0.0
 10
127.417894
 20
143.399770
 30
0.0
 10
122.952027
 20
138.585012
 30
0.0
  0
LINE
  5
133
100
AcDbEntity
  8
0
 62
7
100
AcDbLine
 10
129.650827
 20
241.474343
 30
0.0
 11
129.650827
 21
158.890740
 31
0.0
  0
LINE
  5
134
100
AcDbEntity
  8
0
 62
7
100
AcDbLine
 10
158.748724
 20
241.474343
 30
0.0
 11
129.650827
 21
241.474343
 31
0.0
  0
LINE
  5
135
100
AcDbEntity
  8
0
 62
7
100
AcDbLine
 10
158.748724
 20
152.505950
 30
0.0
 11
158.748724
 21
241.474343
 31
0.0
  0
SPLINE
  5
136
100
AcDbEntity
  8
0
 62
7
100
AcDbSpline
 70
8
 71
3
 72
8
 73
4
 74
0
 40
0
 40
0
 40
0
 40
0
 40
1
 40
1
 40
1
 40
1
 10
152.677937
 20
128.118141
 30
0.0
 10
156.725128
 20
136.561414
 30
0.0
 10
158.748724
 20
144.690684
 30
0.0
 10
158.748724
 20
152.505950
 30
0.0
  0
SPLINE
  5
137
100
AcDbEntity
  8
0
 62
7
100
AcDbSpline
 70
8
 71
3
 72
8
 73
4
 74
0
 40
0
 40
0
 40
0
 40
0
 40
1
 40
1
 40
1
 40
1
 10
133.942241
 20
108.859101
 30
0.0
 10
142.385519
 20
113.324964
 30
0.0
 10
148.630751
 20
119.744644
 30
0.0
 10
152.677937
 20
128.118141
 30
0.0
  0
SPLINE
  5
138
100
AcDbEntity
  8
0
 62
7
100
AcDbSpline
 70
8
 71
3
 72
8
 73
4
 74
0
 40
0
 40
0
 40
0
 40
0
 40
1
 40
1
 40
1
 40
1
 10
125.300482
 20
105.160301
 30
0.0
 10
128.291781
 20
106.148902
 30
0.0
 10
131.172368
 20
107.381835
 30
0.0
 10
133.942241
 20
108.859101
 30
0.0
  0
SPLINE
  5
139
100
AcDbEntity
  8
0
 62
7
100
AcDbSpline
 70
8
 71
3
 72
8
 73
4
 74
0
 40
0
 40
0
 40
0
 40
0
 40
1
 40
1
 40
1
 40
1
 10
124.706247
 20
108.460301
 30
0.0
 10
124.706247
 20
109.067652
 30
0.0
 10
124.382229
 20
109.628868
 30
0.0
 10
123.856247
 20
109.932544
 30
0.0
  0
SPLINE
  5
13a
100
AcDbEntity
  8
0
 62
7
100
AcDbSpline
 70
8
 71
3
 72
8
 73
4
 74
0
 40
0
 40
0
 40
0
 40
0
 40
1
 40
1
 40
1
 40
1
 10
123.856247
 20
109.932544
 30
0.0
 10
123.330265
 20
110.236220
 30
0.0
 10
122.682229
 20
110.236220
 30
0.0
 10
122.156247
 20
109.932544
 30
0.0
  0
SPLINE
  5
13b
100
AcDbEntity
  8
0
 62
7
100
AcDbSpline
 70
8
 71
3
 72
8
 73
4
 74
0
 40
0
 40
0
 40
0
 40
0
 40
1
 40
1
 40
1
 40
1
 10
122.156247
 20
109.932544
 30
0.0
 10
121.630265
 20
109.628868
 30
0.0
 10
121.306247
 20
109.067652
 30
0.0
 10
121.306247
 20
108.460301
 30
0.0
  0
SPLINE
  5
13c
100
AcDbEntity
  8
0
 62
7
100
AcDbSpline
 70
8
 71
3
 72
8
 73
4
 74
0
 40
0
 40
0
 40
0
 40
0
 40
1
 40
1
 40
1
 40
1
 10
121.306247
 20
108.460301
 30
0.0
 10
121.306247
 20
107.852949
 30
0.0
 10
121.630265
 20
107.291733
 30
0.0
 10
122.156247
 20
106.988058
 30
0.0
  0
SPLINE
  5
13d
100
AcDbEntity
  8
0
 62
7
100
AcDbSpline
 70
8
 71
3
 72
8
 73
4
 74
0
 40
0
 40
0
 40
0
 40
0
 40
1
 40
1
 40
1
 40
1
 10
122.156247
 20
106.988058
 30
0.0
 10
122.682229
 20
106.684382
 30
0.0
 10
123.330265
 20
106.684382
 30
0.0
 10
123.856247
 20
106.988058
 30
0.0
  0
SPLINE
  5
13e
100
AcDbEntity
  8
0
 62
7
100
AcDbSpline
 70
8
 71
3
 72
8
 73
4
 74
0
 40
0
 40
0
 40
0
 40
0
 40
1
 40
1
 40
1
 40
1
 10
123.856247
 20
106.988058
 30
0.0
 10
124.382229
 20
107.291733
 30
0.0
 10
124.706247
 20
107.852949
 30
0.0
 10
124.706247
 20
108.460301
 30
0.0
  0
LINE
  5
13f
100
AcDbEntity
  8
0
 62
7
100
AcDbLine
 10
124.706247
 20
108.460301
 30
0.0
 11
124.706247
 21
108.460301
 31
0.0
  0
SPLINE
  5
140
100
AcDbEntity
  8
0
 62
7
100
AcDbSpline
 70
8
 71
3
 72
8
 73
4
 74
0
 40
0
 40
0
 40
0
 40
0
 40
1
 40
1
 40
1
 40
1
 10
87.966462
 20
108.460301
 30
0.0
 10
87.966462
 20
109.067652
 30
0.0
 10
87.642444
 20
109.628868
 30
0.0
 10
87.116462
 20
109.932544
 30
0.0
  0
SPLINE
  5
141
100
AcDbEntity
  8
0
 62
7
100
AcDbSpline
 70
8
 71
3
 72
8
 73
4
 74
0
 40
0
 40
0
 40
0
 40
0
 40
1
 40
1
 40
1
 40
1
 10
87.116462
 20
109.932544
 30
0.0
 10
86.590480
 20
110.236220
 30
0.0
 10
85.942444
 20
110.236220
 30
0.0
 10
85.416462
 20
109.932544
 30
0.0
  0
SPLINE
  5
142
100
AcDbEntity
  8
0
 62
7
100
AcDbSpline
 70
8
 71
3
 72
8
 73
4
 74
0
 40
0
 40
0
 40
0
 40
0
 40
1
 40
1
 40
1
 40
1
 10
85.416462
 20
109.932544
 30
0.0
 10
84.890480
 20
109.628868
 30
0.0
 10
84.566462
 20
109.067652
 30
0.0
 10
84.566462
 20
108.460301
 30
0.0
  0
SPLINE
  5
143
100
AcDbEntity
  8
0
 62
7
100
AcDbSpline
 70
8
 71
3
 72
8
 73
4
 74
0
 40
0
 40
0
 40
0
 40
0
 40
1
 40
1
 40
1
 40
1
 10
84.566462
 20
108.460301
 30
0.0
 10
84.566462
 20
107.852949
 30
0.0
 10
84.890480
 20
107.291733
 30
0.0
 10
85.416462
 20
106.988058
 30
0.0
  0
SPLINE
  5
144
100
AcDbEntity
  8
0
 62
7
100
AcDbSpline
 70
8
 71
3
 72
8
 73
4
 74
0
 40
0
 40
0
 40
0
 40
0
 40
1
 40
1
 40
1
 40
1
 10
85.416462
 20
106.988058
 30
0.0
 10
85.942444
 20
106.684382
 30
0.0
 10
86.590480
 20
106.684382
 30
0.0
 10
87.116462
 20
106.988058
 30
0.0
  0
SPLINE
  5
145
100
AcDbEntity
  8
0
 62
7
100
AcDbSpline
 70
8
 71
3
 72
8
 73
4
 74
0
 40
0
 40
0
 40
0
 40
0
 40
1
 40
1
 40
1
 40
1
 10
87.116462
 20
106.988058
 30
0.0
 10
87.642444
 20
107.291733
 30
0.0
 10
87.966462
 20
107.852949
 30
0.0
 10
87.966462
 20
108.460301
 30
0.0
  0
LINE
  5
146
100
AcDbEntity
  8
0
 62
7
100
AcDbLine
 10
87.966462
 20
108.460301
 30
0.0
 11
87.966462
 21
108.460301
 31
0.0
  0
SPLINE
  5
147
100
AcDbEntity
  8
0
 62
7
100
AcDbSpline
 70
8
 71
3
 72
8
 73
4
 74
0
 40
0
 40
0
 40
0
 40
0
 40
1
 40
1
 40
1
 40
1
 10
56.358640
 20
238.174343
 30
0.0
 10
56.358640
 20
238.781695
 30
0.0
 10
56.034622
 20
239.342911
 30
0.0
 10
55.508640
 20
239.646586
 30
0.0
  0
SPLINE
  5
148
100
AcDbEntity
  8
0
 62
7
100
AcDbSpline
 70
8
 71
3
 72
8
 73
4
 74
0
 40
0
 40
0
 40
0
 40
0
 40
1
 40
1
 40
1
 40
1
 10
55.508640
 20
239.646586
 30
0.0
 10
54.982658
 20
239.950262
 30
0.0
 10
54.334622
 20
239.950262
 30
0.0
 10
53.808640
 20
239.646586
 30
0.0
  0
SPLINE
  5
149
100
AcDbEntity
  8
0
 62
7
100
AcDbSpline
 70
8
 71
3
 72
8
 73
4
 74
0
 40
0
 40
0
 40
0
 40
0
 40
1
 40
1
 40
1
 40
1
 10
53.808640
 20
239.646586
 30
0.0
 10
53.282658
 20
239.342911
 30
0.0
 10
52.958640
 20
238.781695
 30
0.0
 10
52.958640
 20
238.174343
 30
0.0
  0
SPLINE
  5
14a
100
AcDbEntity
  8
0
 62
7
100
AcDbSpline
 70
8
 71
3
 72
8
 73
4
 74
0
 40
0
 40
0
 40
0
 40
0
 40
1
 40
1
 40
1
 40
1
 10
52.958640
 20
238.174343
 30
0.0
 10
52.958640
 20
237.566992
 30
0.0
 10
53.282658
 20
237.005776
 30
0.0
 10
53.808640
 20
236.702100
 30
0.0
  0
SPLINE
  5
14b
100
AcDbEntity
  8
0
 62
7
100
AcDbSpline
 70
8
 71
3
 72
8
 73
4
 74
0
 40
0
 40
0
 40
0
 40
0
 40
1
 40
1
 40
1
 40
1
 10
53.808640
 20
236.702100
 30
0.0
 10
54.334622
 20
236.398424
 30
0.0
 10
54.982658
 20
236.398424
 30
0.0
 10
55.508640
 20
236.702100
 30
0.0
  0
SPLINE
  5
14c
100
AcDbEntity
  8
0
 62
7
100
AcDbSpline
 70
8
 71
3
 72
8
 73
4
 74
0
 40
0
 40
0
 40
0
 40
0
 40
1
 40
1
 40
1
 40
1
 10
55.508640
 20
236.702100
 30
0.0
 10
56.034622
 20
237.005776
 30
0.0
 10
56.358640
 20
237.566992
 30
0.0
 10
56.358640
 20
238.174343
 30
0.0
  0
LINE
  5
14d
100
AcDbEntity
  8
0
 62
7
100
AcDbLine
 10
56.358640
 20
238.174343
 30
0.0
 11
56.358640
 21
238.174343
 31
0.0
  0
SPLINE
  5
14e
100
AcDbEntity
  8
0
 62
7
100
AcDbSpline
 70
8
 71
3
 72
8
 73
4
 74
0
 40
0
 40
0
 40
0
 40
0
 40
1
 40
1
 40
1
 40
1
 10
157.148724
 20
238.174343
 30
0.0
 10
157.148724
 20
238.781695
 30
0.0
 10
156.824706
 20
239.342911
 30
0.0
 10
156.298724
 20
239.646586
 30
0.0
  0
SPLINE
  5
14f
100
AcDbEntity
  8
0
 62
7
100
AcDbSpline
 70
8
 71
3
 72
8
 73
4
 74
0
 40
0
 40
0
 40
0
 40
0
 40
1
 40
1
 40
1
 40
1
 10
156.298724
 20
239.646586
 30
0.0
 10
155.772742
 20
239.950262
 30
0.0
 10
155.124706
 20
239.950262
 30
0.0
 10
154.598724
 20
239.646586
 30
0.0
  0
SPLINE
  5
150
100
AcDbEntity
  8
0
 62
7
100
AcDbSpline
 70
8
 71
3
 72
8
 73
4
 74
0
 40
0
 40
0
 40
0
 40
0
 40
1
 40
1
 40
1
 40
1
 10
154.598724
 20
239.646586
 30
0.0
 10
154.072742
 20
239.342911
 30
0.0
 10
153.748724
 20
238.781695
 30
0.0
 10
153.748724
 20
238.174343
 30
0.0
  0
SPLINE
  5
151
100
AcDbEntity
  8
0
 62
7
100
AcDbSpline
 70
8
 71
3
 72
8
 73
4
 74
0
 40
0
 40
0
 40
0
 40
0
 40
1
 40
1
 40
1
 40
1
 10
153.748724
 20
238.174343
 30
0.0
 10
153.748724
 20
237.566992
 30
0.0
 10
154.072742
 20
237.005776
 30
0.0
 10
154.598724
 20
236.702100
 30
0.0
  0
SPLINE
  5
152
100
AcDbEntity
  8
0
 62
7
100
AcDbSpline
 70
8
 71
3
 72
8
 73
4
 74
0
 40
0
 40
0
 40
0
 40
0
 40
1
 40
1
 40
1
 40
1
 10
154.598724
 20
236.702100
 30
0.0
 10
155.124706
 20
236.398424
 30
0.0
 10
155.772742
 20
236.398424
 30
0.0
 10
156.298724
 20
236.702100
 30
0.0
  0
SPLINE
  5
153
100
AcDbEntity
  8
0
 62
7
100
AcDbSpline
 70
8
 71
3
 72
8
 73
4
 74
0
 40
0
 40
0
 40
0
 40
0
 40
1
 40
1
 40
1
 40
1
 10
156.298724
 20
236.702100
 30
0.0
 10
156.824706
 20
237.005776
 30
0.0
 10
157.148724
 20
237.566992
 30
0.0
 10
157.148724
 20
238.174343
 30
0.0
  0
LINE
  5
154
100
AcDbEntity
  8
0
 62
7
100
AcDbLine
 10
157.148724
 20
238.174343
 30
0.0
 11
157.148724
 21
238.174343
 31
0.0
  0
ENDSEC
  0
SECTION
  2
OBJECTS
  0
DICTIONARY
  5
C
330
0
100
AcDbDictionary
  3
ACAD_GROUP
350
D
  3
ACAD_MLINESTYLE
350
17
  0
DICTIONARY
  5
D
330
C
100
AcDbDictionary
  0
DICTIONARY
  5
1A
330
C
100
AcDbDictionary
  0
DICTIONARY
  5
17
330
C
100
AcDbDictionary
  3
STANDARD
350
18
  0
DICTIONARY
  5
19
330
C
100
AcDbDictionary
  0
ENDSEC
  0
EOF
